<?xml version="1.0" encoding="UTF-8" standalone="no"?>
<svg
   height="150.679"
   viewBox="0 0 490.056 120.543"
   width="612.57"
   version="1.1"
   id="svg37"
   sodipodi:docname="auto-favorites-ro_RO.svg"
   inkscape:version="1.3.2 (091e20e, 2023-11-25, custom)"
   xmlns:inkscape="http://www.inkscape.org/namespaces/inkscape"
   xmlns:sodipodi="http://sodipodi.sourceforge.net/DTD/sodipodi-0.dtd"
   xmlns="http://www.w3.org/2000/svg"
   xmlns:svg="http://www.w3.org/2000/svg">
  <defs
     id="defs37" />
  <sodipodi:namedview
     id="namedview37"
     pagecolor="#ffffff"
     bordercolor="#999999"
     borderopacity="1"
     inkscape:showpageshadow="0"
     inkscape:pageopacity="0"
     inkscape:pagecheckerboard="0"
     inkscape:deskcolor="#d1d1d1"
     inkscape:zoom="2.5874594"
     inkscape:cx="306.285"
     inkscape:cy="75.363502"
     inkscape:window-width="2560"
     inkscape:window-height="1351"
     inkscape:window-x="-9"
     inkscape:window-y="-9"
     inkscape:window-maximized="1"
     inkscape:current-layer="svg37" />
  <path
     d="m 94.21,101.608 -0.859,3.984 q -2.124,3.94 -3.947,3.922 l -15.847,-0.186 -0.235,-0.023 q -1.73,-0.169 -1.686,-3.913 L 90.311,10.306 q 1.967,-3.955 5.863,-4.055 l 13.71,0.139 0.471,0.045 q 3.772,0.368 5.56,4.05 l 16.906,95.44 -0.083,0.87 q -0.297,3.08 -2.52,3.104 L 115,109.773 l -0.157,-0.015 q -1.886,-0.184 -3.737,-4.033 l -0.727,-3.979 z m 12.61,-19.748 -4.044,-22.247 -4.519,22.21 z"
     fill="#f3010f"
     id="path1" />
  <path
     d="m 97.975,4.257 c -4.227,0.036 -8.163,3.057 -9.506,7.024 -0.465,1.932 -0.764,3.904 -1.181,5.85 l -17.659,89.9 c -0.063,2.526 0.35,5.388 2.43,7.084 1.615,1.372 3.838,1.269 5.822,1.224 4.766,0.07 9.538,0.177 14.301,0.131 2.856,-0.42 4.878,-2.786 6.22,-5.166 0.548,-0.796 0.876,-1.72 1.044,-2.668 l 9.586,0.082 c 0.291,1.977 1.446,3.688 2.635,5.242 1.415,1.782 3.635,2.994 5.95,2.801 5.12,0.059 10.241,0.138 15.358,0.096 2.962,-0.26 5.288,-2.916 5.62,-5.797 0.363,-1.61 0.18,-3.263 -0.192,-4.852 l -16.65,-93.984 c -1.486,-3.55 -4.838,-6.401 -8.747,-6.727 -2.62,-0.25 -5.257,-0.078 -7.884,-0.175 -2.383,-0.024 -4.764,-0.05 -7.147,-0.065 z m 0.2,3.994 13.708,0.139 0.473,0.045 c 2.515,0.245 4.367,1.595 5.559,4.05 l 16.906,95.44 -0.084,0.87 c -0.198,2.054 -1.037,3.088 -2.52,3.103 l -15.216,-0.125 -0.159,-0.016 c -1.257,-0.122 -2.502,-1.465 -3.736,-4.031 l -0.727,-3.98 -16.167,-0.137 -0.862,3.982 c -1.416,2.627 -2.732,3.936 -3.947,3.924 l -15.846,-0.188 -0.236,-0.023 c -1.153,-0.112 -1.715,-1.416 -1.686,-3.912 L 92.311,12.306 c 1.312,-2.637 3.266,-3.989 5.863,-4.055 z m 6.601,53.362 -4.52,22.21 8.565,0.038 z"
     fill="#845f23"
     id="path2" />
  <path
     d="m 96.174,6.251 c -2.597,0.066 -4.551,1.418 -5.863,4.055 l -18.676,95.086 c -0.028,2.496 0.533,3.8 1.686,3.912 l 0.236,0.023 0.225,0.002 a 9.915,9.915 0 0 1 -0.147,-1.937 L 92.311,12.306 c 1.312,-2.637 3.266,-3.989 5.863,-4.055 l 13.71,0.139 0.472,0.045 c 1.115,0.108 2.09,0.447 2.945,0.99 -1.18,-1.78 -2.823,-2.784 -4.945,-2.99 L 109.883,6.39 Z m 8.602,55.362 -0.863,4.248 2.908,16 -6.16,-0.028 -0.405,1.99 8.565,0.038 z m 5.967,42.119 0.363,1.994 c 0.994,2.068 1.996,3.328 3.006,3.808 a 16.045,16.045 0 0 1 -1.006,-1.808 l -0.727,-3.98 z"
     fill="#bb000f"
     id="path3" />
  <path
     d="m 95.975,2.257 c -4.227,0.036 -8.163,3.057 -9.506,7.024 -0.465,1.932 -0.764,3.904 -1.181,5.85 l -17.659,89.9 c -0.063,2.526 0.35,5.388 2.43,7.084 1.615,1.372 3.838,1.269 5.822,1.224 4.766,0.07 9.538,0.177 14.301,0.131 2.856,-0.42 4.878,-2.786 6.22,-5.166 0.548,-0.796 0.876,-1.72 1.044,-2.668 l 9.586,0.082 c 0.291,1.977 1.446,3.688 2.635,5.242 1.415,1.782 3.635,2.994 5.95,2.801 5.12,0.059 10.241,0.138 15.358,0.096 2.962,-0.26 5.288,-2.916 5.62,-5.797 0.363,-1.61 0.18,-3.263 -0.192,-4.852 L 119.753,9.224 c -1.486,-3.55 -4.838,-6.401 -8.747,-6.727 -2.62,-0.25 -5.257,-0.078 -7.884,-0.175 -2.383,-0.024 -4.764,-0.05 -7.147,-0.065 z m 0.2,3.994 13.708,0.139 0.473,0.045 c 2.515,0.245 4.367,1.595 5.559,4.05 l 16.906,95.44 -0.084,0.87 c -0.198,2.054 -1.037,3.088 -2.52,3.103 l -15.216,-0.125 -0.159,-0.016 c -1.257,-0.122 -2.502,-1.465 -3.736,-4.031 l -0.727,-3.98 -16.167,-0.137 -0.862,3.982 c -1.416,2.627 -2.732,3.936 -3.947,3.924 l -15.846,-0.188 -0.236,-0.023 c -1.153,-0.112 -1.715,-1.416 -1.686,-3.912 L 90.311,10.306 c 1.312,-2.637 3.266,-3.989 5.863,-4.055 z m 6.601,53.362 -4.52,22.21 8.565,0.038 z"
     fill="#fad60b"
     id="path4" />
  <path
     d="m 47.723,66.391 1.288,39.041 q 0.128,3.904 -3.776,4.033 l -11.712,0.386 q -3.904,0.13 -4.033,-3.775 L 26.4,12.376 Q 26.272,8.473 30.176,8.344 L 84.834,6.542 q 3.904,-0.129 4.033,3.775 l 0.386,11.713 q 0.129,3.904 -3.776,4.032 l -39.04,1.288 0.771,23.425 31.233,-1.03 q 3.905,-0.129 4.033,3.775 l 0.258,7.808 q 0.129,3.904 -3.776,4.033 z"
     fill="#f3010f"
     id="path5" />
  <path
     d="M 86.702,4.546 C 68.2,5.168 49.695,5.735 31.196,6.404 c -3.1,0.224 -6.033,2.545 -6.572,5.673 -0.483,2.385 -0.03,4.821 -0.06,7.229 0.99,29.912 1.954,59.824 2.983,89.734 0.222,3.104 2.539,6.05 5.676,6.588 2.386,0.481 4.824,0.034 7.233,0.059 2.84,-0.135 5.787,-0.061 8.658,-0.416 3.008,-0.542 5.533,-3.151 5.793,-6.227 0.258,-2.375 -0.087,-4.761 -0.078,-7.142 L 53.852,72.255 c 9.422,-0.326 18.85,-0.58 28.268,-0.972 3.1,-0.291 5.961,-2.699 6.427,-5.838 0.407,-2.326 0.01,-4.692 0.012,-7.034 -0.066,-2.723 0.108,-5.796 -1.785,-8.003 -1.49,-1.871 -3.93,-2.784 -6.285,-2.643 -2.22,-0.008 -4.418,0.164 -6.576,0.195 L 53.071,48.646 52.565,33.212 c 11.993,-0.408 23.989,-0.755 35.979,-1.217 3.107,-0.255 6.003,-2.624 6.505,-5.763 0.447,-2.391 0.012,-4.825 0.036,-7.235 C 94.954,16.193 95.02,13.278 94.672,10.443 94.142,7.497 91.638,5.022 88.645,4.659 A 11.02,11.02 0 0 0 86.702,4.546 Z m 0.133,3.996 c 2.602,-0.086 3.945,1.173 4.03,3.776 l 0.388,11.713 c 0.085,2.602 -1.173,3.945 -3.776,4.03 l -39.04,1.288 0.77,23.426 31.235,-1.03 c 2.603,-0.085 3.947,1.173 4.033,3.776 l 0.256,7.806 c 0.086,2.603 -1.173,3.948 -3.775,4.034 l -31.233,1.03 1.287,39.042 c 0.086,2.603 -1.172,3.947 -3.775,4.033 l -11.713,0.385 c -2.603,0.086 -3.945,-1.173 -4.031,-3.776 L 28.4,14.376 c -0.086,-2.602 1.173,-3.947 3.775,-4.033 z"
     fill="#845f23"
     id="path6" />
  <path
     d="M 84.835,6.542 30.176,8.343 c -2.602,0.086 -3.86,1.43 -3.775,4.033 l 3.09,93.7 c 0.063,1.927 0.821,3.113 2.265,3.566 a 5.495,5.495 0 0 1 -0.265,-1.567 L 28.4,14.376 c -0.086,-2.602 1.173,-3.947 3.775,-4.033 l 54.659,-1.8 c 0.675,-0.023 1.262,0.05 1.767,0.208 -0.51,-1.533 -1.76,-2.275 -3.767,-2.209 z m -6.393,43.203 -29.303,0.965 0.069,2.065 31.234,-1.03 c 0.675,-0.022 1.262,0.05 1.768,0.21 -0.51,-1.534 -1.76,-2.276 -3.768,-2.21 z"
     fill="#bb000f"
     id="path7" />
  <path
     d="M 84.702,2.546 C 66.2,3.168 47.695,3.735 29.196,4.404 c -3.1,0.224 -6.033,2.545 -6.572,5.673 -0.483,2.385 -0.03,4.821 -0.06,7.229 0.99,29.912 1.954,59.824 2.983,89.734 0.222,3.104 2.539,6.05 5.676,6.588 2.386,0.481 4.824,0.034 7.233,0.059 2.84,-0.135 5.787,-0.061 8.658,-0.416 3.008,-0.542 5.533,-3.151 5.793,-6.227 0.258,-2.375 -0.087,-4.761 -0.078,-7.142 L 51.852,70.255 c 9.422,-0.326 18.85,-0.58 28.268,-0.972 3.1,-0.291 5.961,-2.699 6.427,-5.838 0.407,-2.326 0.01,-4.692 0.012,-7.034 -0.066,-2.723 0.108,-5.796 -1.785,-8.003 -1.49,-1.871 -3.93,-2.784 -6.285,-2.643 -2.22,-0.008 -4.418,0.164 -6.576,0.195 L 51.071,46.646 50.565,31.212 c 11.993,-0.408 23.989,-0.755 35.979,-1.217 3.107,-0.255 6.003,-2.624 6.505,-5.763 0.447,-2.391 0.012,-4.825 0.036,-7.235 C 92.954,14.193 93.02,11.278 92.672,8.443 92.142,5.497 89.638,3.022 86.645,2.659 A 11.02,11.02 0 0 0 84.702,2.546 Z m 0.133,3.996 c 2.602,-0.086 3.945,1.173 4.03,3.776 l 0.388,11.713 c 0.085,2.602 -1.173,3.945 -3.776,4.03 l -39.04,1.288 0.77,23.426 31.235,-1.03 c 2.603,-0.085 3.947,1.173 4.033,3.776 l 0.256,7.806 c 0.086,2.603 -1.173,3.948 -3.775,4.034 l -31.233,1.03 1.287,39.042 c 0.086,2.603 -1.172,3.947 -3.775,4.033 l -11.713,0.385 c -2.603,0.086 -3.945,-1.173 -4.031,-3.776 L 26.4,12.376 C 26.315,9.774 27.574,8.43 30.176,8.343 Z"
     fill="#fad60b"
     id="path8" />
  <g
     stroke-width="2.5"
     id="g11"
     transform="translate(22.4)">
    <path
       d="m 198.915,4.949 c -12.001,0.033 -22.218,5.3 -30.652,15.802 -8.435,10.449 -12.625,23.083 -12.569,37.9 0.056,14.817 4.343,27.454 12.858,37.909 8.514,10.402 18.772,15.586 30.773,15.553 12.002,-0.034 22.22,-5.274 30.654,-15.723 8.435,-10.502 12.623,-23.16 12.567,-37.979 C 242.489,43.594 238.205,30.983 229.69,20.581 221.176,10.127 210.916,4.915 198.915,4.949 Z m 0.106,37.02 a 0.28,0.28 0 0 1 0.134,0.03 c 1.565,2.447 1.854,5.547 3.34,8.065 1.21,2.11 3.805,2.706 6.068,2.57 1.407,0.2 3.163,-0.208 4.338,0.399 -2.051,1.949 -5.317,3.238 -6.214,6.162 -0.626,3.53 1.298,6.905 2.197,10.254 0.011,0.738 1.008,1.78 0.379,2.375 -1.046,-0.505 -1.879,-1.435 -2.823,-2.122 -2.306,-1.66 -4.498,-4.46 -7.63,-4.226 -3.38,0.34 -5.521,3.413 -8.096,5.27 -0.525,0.239 -1.389,1.698 -1.858,0.826 0.623,-3.48 2.36,-6.74 2.918,-10.256 0.3,-3.139 -2.41,-5.27 -4.712,-6.86 -0.527,-0.271 -1.508,-1.219 -0.508,-1.543 2.71,-0.626 5.925,0.42 8.185,-1.68 2.423,-2.487 2.397,-6.347 4.149,-9.228 a 0.267,0.267 0 0 1 0.133,-0.037 z"
       fill="#845f23"
       id="path9" />
    <path
       d="m 198.916,4.95 q 18.002,-0.05 30.774,15.632 12.772,15.602 12.856,37.829 0.085,22.226 -12.567,37.979 -12.652,15.673 -30.654,15.723 -18.002,0.05 -30.774,-15.553 Q 155.779,80.878 155.694,58.651 155.61,36.425 168.262,20.751 180.914,5 198.916,4.95 Z m 20.05,81.31 q 1.344,0.63 1.976,0.63 0.631,-0.003 0.629,-0.638 -0.002,-0.635 -0.64,-1.982 l -8.386,-25.3 14.172,-10.438 q 1.967,-1.99 1.963,-3.022 -0.004,-0.952 -1.978,-0.947 l -19.265,0.053 -6.471,-19.827 q -0.955,-1.982 -1.982,-1.98 -0.947,0.003 -1.966,1.99 l -6.32,19.864 -19.265,0.053 q -1.974,0.005 -1.97,1.037 0.003,0.953 1.906,2.932 l 14.33,10.36 -8.272,25.345 q -0.627,1.272 -0.624,1.986 0.002,0.635 0.713,0.633 0.631,-0.001 1.971,-0.64 l 19.675,-16.804 z"
       fill="#f3010f"
       id="path10" />
    <path
       d="m 198.78,4.952 -1.05,0.016 c -8.854,0.198 -17.587,3.449 -24.434,9.063 -6.55,5.29 -11.742,12.169 -15.445,19.707 -5.184,10.744 -6.847,22.94 -5.913,34.765 0.773,10.076 3.766,20.053 9.221,28.6 4.68,7.407 10.946,13.983 18.686,18.203 9.954,5.398 22.167,6.25 32.851,2.59 8.603,-2.93 15.841,-8.997 21.303,-16.153 4.857,-6.351 8.44,-13.671 10.4,-21.427 2.321,-9.031 2.68,-18.518 1.479,-27.746 -1.245,-9.25 -4.468,-18.275 -9.74,-26.002 -4.41,-6.526 -10.044,-12.364 -16.9,-16.32 C 213.049,6.696 205.912,4.864 198.78,4.952 Z m 0.135,3.997 c 12.001,-0.034 22.26,5.178 30.775,15.632 8.515,10.402 12.8,23.013 12.856,37.83 0.056,14.818 -4.132,27.477 -12.567,37.979 -8.434,10.449 -18.652,15.69 -30.654,15.723 -12.001,0.033 -22.259,-5.151 -30.773,-15.553 -8.515,-10.455 -12.801,-23.09 -12.858,-37.908 -0.056,-14.818 4.134,-27.452 12.569,-37.9 8.434,-10.502 18.65,-15.77 30.652,-15.803 z"
       fill="#845f23"
       id="path11" />
  </g>
  <path
     d="m 221.18,4.952 c -0.516,0.004 -1.025,0.025 -1.535,0.047 -0.495,0.018 -0.987,0.062 -1.48,0.098 -10.647,0.878 -19.817,6.086 -27.502,15.654 -8.435,10.449 -12.625,23.083 -12.569,37.9 0.002,0.528 0.023,1.047 0.036,1.569 0.39,-13.771 4.564,-25.597 12.533,-35.469 8.434,-10.501 18.65,-15.77 30.652,-15.802 12.001,-0.034 22.26,5.178 30.775,15.632 8.212,10.032 12.476,22.124 12.82,36.262 a 75.57,75.57 0 0 0 0.036,-2.432 C 264.889,43.594 260.605,30.983 252.091,20.581 243.96,10.6 234.236,5.41 222.926,4.99 c -0.58,-0.019 -1.16,-0.045 -1.742,-0.038 z"
     fill="#bb000f"
     id="path12" />
  <path
     d="m 222.672,0.954 a 41.15,41.15 0 0 0 -2.535,0.008 c -8.861,0.196 -17.604,3.451 -24.453,9.074 -6.623,5.357 -11.858,12.334 -15.564,19.979 -4.713,9.899 -6.447,21.026 -5.942,31.926 0.476,11.157 3.582,22.322 9.737,31.705 4.908,7.615 11.54,14.324 19.716,18.377 9.095,4.466 19.865,5.28 29.579,2.472 6.31,-1.799 12.057,-5.28 16.837,-9.746 6.245,-5.81 11.111,-13.067 14.313,-20.963 4.386,-10.981 5.417,-23.117 3.97,-34.796 -1.22,-9.431 -4.463,-18.656 -9.863,-26.516 C 253.677,15.398 247.42,9.118 239.745,5.226 234.455,2.556 228.587,1.119 222.672,0.954 Z m -1.357,3.995 c 12.001,-0.034 22.26,5.178 30.775,15.632 8.515,10.402 12.8,23.013 12.856,37.83 0.056,14.818 -4.132,27.477 -12.567,37.979 -8.434,10.449 -18.652,15.69 -30.654,15.723 -12.001,0.033 -22.259,-5.151 -30.773,-15.553 -8.515,-10.455 -12.801,-23.09 -12.858,-37.908 -0.056,-14.818 4.134,-27.452 12.569,-37.9 8.434,-10.502 18.65,-15.77 30.652,-15.803 z m 0.068,17.86 c -0.631,0.003 -1.285,0.666 -1.964,1.991 l -6.32,19.863 -19.266,0.053 c -1.316,0.004 -1.974,0.35 -1.971,1.037 0.002,0.635 0.638,1.612 1.906,2.932 l 14.332,10.36 -8.273,25.345 c -0.418,0.848 -0.627,1.51 -0.625,1.986 0.002,0.424 0.24,0.634 0.715,0.633 0.42,-0.001 1.077,-0.215 1.97,-0.64 l 19.676,-16.803 19.803,16.693 c 0.896,0.421 1.555,0.632 1.976,0.63 0.422,0 0.63,-0.212 0.63,-0.636 -0.003,-0.423 -0.215,-1.086 -0.64,-1.984 L 234.944,58.97 249.118,48.533 c 1.31,-1.327 1.963,-2.334 1.96,-3.022 -0.001,-0.635 -0.66,-0.95 -1.976,-0.947 l -19.265,0.052 -6.471,-19.828 c -0.637,-1.32 -1.298,-1.98 -1.983,-1.978 z m 0.036,8.886 5.074,15.55 c 0.295,0.445 0.13,1.525 0.851,1.381 l 14.95,-0.04 c -4.02,2.958 -8.036,5.922 -12.057,8.878 l 6.525,19.684 -15.216,-12.83 c -5.068,4.325 -10.134,8.653 -15.202,12.98 l 6.46,-19.787 c -4.06,-2.938 -8.124,-5.872 -12.184,-8.81 l 15.402,-0.042 c 1.798,-5.655 3.592,-11.311 5.397,-16.964 z"
     fill="#fad60b"
     id="path13" />
  <path
     d="m 172.018,104.923 q -1.687,4.097 -5.777,4.463 l -13.705,0.962 q -3.865,0.191 -6.116,-3.63 L 121.934,12.944 q -0.276,-3.88 1.687,-4.097 l 15.753,-1.104 q 1.89,-0.133 4.22,3.682 l 12.248,45.295 5.474,-46.538 q 1.687,-4.097 3.656,-4.235 l 15.122,-1.06 q 2.605,-0.103 2.881,3.776 z"
     fill="#f3010f"
     id="path14" />
  <path
     d="m 181.811,2.898 c -5.299,0.395 -10.612,0.69 -15.916,1.164 -2.905,0.626 -4.82,3.227 -5.93,5.814 -0.915,1.727 -0.734,3.739 -1.066,5.612 l -2.607,22.171 c -2.333,-8.625 -4.663,-17.251 -6.998,-25.876 -1.508,-2.45 -3.367,-5.072 -6.303,-5.846 -2.004,-0.443 -4.066,0.074 -6.09,0.113 -4.122,0.322 -8.278,0.5 -12.406,0.941 -2.732,0.565 -4.472,3.35 -4.553,6.02 -0.317,2.63 0.781,5.113 1.344,7.629 l 23.408,89.643 c 1.741,3.332 5.144,6.028 9.021,6.04 2.604,0.03 5.191,-0.34 7.79,-0.46 2.916,-0.242 5.86,-0.284 8.751,-0.752 3.734,-0.858 6.868,-3.98 7.733,-7.71 3.667,-32.219 7.333,-64.444 11.004,-96.665 -0.079,-2.759 -1.167,-5.8 -3.754,-7.133 -1.046,-0.555 -2.251,-0.77 -3.428,-0.705 z m 0.283,3.988 c 1.737,-0.069 2.697,1.19 2.881,3.777 l -10.957,96.26 c -1.125,2.732 -3.05,4.219 -5.777,4.463 l -13.705,0.961 c -2.577,0.128 -4.615,-1.082 -6.115,-3.629 L 123.934,14.945 c -0.184,-2.587 0.379,-3.953 1.688,-4.098 l 15.752,-1.104 c 1.26,-0.088 2.667,1.138 4.22,3.682 l 12.248,45.295 5.473,-46.537 c 1.125,-2.732 2.344,-4.144 3.656,-4.236 z"
     fill="#845f23"
     id="path15" />
  <path
     d="m 180.094,4.886 -15.123,1.06 c -1.312,0.093 -2.531,1.505 -3.656,4.237 l -5.031,42.775 1.558,5.762 5.473,-46.537 c 1.125,-2.732 2.344,-4.144 3.656,-4.236 l 15.123,-1.061 c 0.204,-0.008 0.396,0.007 0.578,0.035 -0.434,-1.404 -1.292,-2.086 -2.578,-2.035 z m -40.72,2.857 -15.752,1.104 c -1.31,0.145 -1.872,1.511 -1.688,4.098 l 24.487,93.773 c 0.696,1.182 1.513,2.062 2.44,2.668 -0.149,-0.215 -0.3,-0.43 -0.44,-0.668 L 123.934,14.945 c -0.184,-2.587 0.379,-3.953 1.688,-4.098 l 15.752,-1.104 c 0.43,-0.03 0.88,0.106 1.345,0.383 -1.21,-1.65 -2.326,-2.454 -3.345,-2.383 z"
     fill="#bb000f"
     id="path16" />
  <path
     d="m 179.811,0.898 c -5.299,0.395 -10.612,0.69 -15.916,1.164 -2.905,0.626 -4.82,3.227 -5.93,5.814 -0.915,1.727 -0.734,3.739 -1.066,5.612 l -2.607,22.171 c -2.333,-8.625 -4.663,-17.251 -6.998,-25.876 -1.508,-2.45 -3.367,-5.072 -6.303,-5.846 -2.004,-0.443 -4.066,0.074 -6.09,0.113 -4.122,0.322 -8.278,0.5 -12.406,0.941 -2.732,0.565 -4.472,3.35 -4.553,6.02 -0.317,2.63 0.781,5.113 1.344,7.629 l 23.408,89.643 c 1.741,3.332 5.144,6.028 9.021,6.04 2.604,0.03 5.191,-0.34 7.79,-0.46 2.916,-0.242 5.86,-0.284 8.751,-0.752 3.734,-0.858 6.868,-3.98 7.733,-7.71 3.667,-32.219 7.333,-64.444 11.004,-96.665 -0.079,-2.759 -1.167,-5.8 -3.754,-7.133 -1.046,-0.555 -2.251,-0.77 -3.428,-0.705 z m 0.283,3.988 c 1.737,-0.069 2.697,1.19 2.881,3.777 l -10.957,96.26 c -1.125,2.732 -3.05,4.219 -5.777,4.463 l -13.705,0.961 c -2.577,0.128 -4.615,-1.082 -6.115,-3.629 L 121.934,12.945 c -0.184,-2.587 0.379,-3.953 1.688,-4.098 l 15.752,-1.104 c 1.26,-0.088 2.667,1.138 4.22,3.682 l 12.248,45.295 5.473,-46.537 c 1.125,-2.732 2.344,-4.144 3.656,-4.236 z"
     fill="#fad60b"
     id="path17" />
  <path
     d="m 296.456,26.613 -11.811,-0.382 -0.637,23.82 11.886,0.298 q 0.635,0.04 1.266,0 4.098,-0.253 7.233,-3.23 3.504,-3.399 3.589,-8.335 0.039,-0.639 0,-1.273 -0.26,-4.12 -3.228,-7.276 -3.387,-3.528 -8.298,-3.622 z m 10.589,53.825 -0.158,0.01 q 0.177,-0.966 0.19,-2 0.044,-0.56 0.01,-1.115 -0.265,-4.199 -3.316,-7.43 -3.387,-3.528 -8.298,-3.622 l -11.807,-0.303 -0.983,39.669 q -0.091,3.584 -3.48,3.794 l -0.551,0.034 -11.807,-0.303 q -3.645,-0.092 -3.86,-3.499 l -0.035,-0.554 2.31,-95.265 Q 265.35,6.27 268.739,6.06 L 269.29,6.026 296.943,6.7 q 13.078,0.383 22.104,9.289 8.02,8.013 8.693,18.708 0.08,1.268 0.086,2.62 -0.335,12.268 -9.766,20.806 -0.374,0.34 -0.9,0.771 0.497,0.367 0.842,0.823 8.016,7.934 8.69,18.63 0.079,1.267 0.085,2.619 l -0.67,25.81 q -0.09,3.584 -3.479,3.794 l -0.551,0.034 -11.807,-0.303 q -3.645,-0.092 -3.86,-3.499 l -0.035,-0.554 z"
     fill="#f3010f"
     id="path18" />
  <path
     d="m 270.75,6.036 c -2.89,0.067 -5.855,1.728 -6.865,4.54 -0.968,2.443 -0.545,5.121 -0.734,7.68 -0.732,30.41 -1.49,60.819 -2.193,91.23 0.009,2.962 1.694,6.038 4.582,7.06 2.487,0.97 5.205,0.553 7.806,0.742 2.904,0.029 5.9,0.286 8.846,0.082 2.983,-0.343 5.699,-2.639 6.232,-5.644 0.475,-2.295 0.225,-4.656 0.381,-6.98 l 0.762,-30.66 c 2.802,0.074 5.567,0.1 8.314,0.243 4.294,0.126 7.824,4.52 7.155,8.74 -0.285,2.055 -0.65,4.097 -0.953,6.149 0.831,-0.419 0.956,0.03 0.814,0.805 -0.164,7.02 -0.417,14.04 -0.492,21.06 0.132,2.95 2.03,5.876 4.94,6.727 2.428,0.796 5.022,0.427 7.529,0.61 2.827,0.027 5.76,0.27 8.642,0.091 3.02,-0.305 5.79,-2.612 6.332,-5.648 0.476,-2.296 0.232,-4.657 0.389,-6.983 0.165,-7.494 0.462,-14.988 0.514,-22.484 -0.159,-6.798 -2.487,-13.545 -6.713,-18.889 a 32.026,32.026 0 0 0 -1.201,-1.457 c 5.054,-5.253 8.324,-12.237 8.86,-19.527 0.64,-7.453 -1.257,-15.146 -5.571,-21.287 C 323.149,15.059 315.527,9.667 306.979,7.728 303.268,6.796 299.428,6.651 295.619,6.618 287.33,6.424 279.041,6.193 270.751,6.036 Z m 0.54,3.99 27.654,0.674 c 8.718,0.256 16.086,3.352 22.103,9.29 5.347,5.342 8.245,11.576 8.694,18.707 0.053,0.845 0.082,1.718 0.086,2.619 -0.224,8.179 -3.479,15.115 -9.766,20.806 -0.25,0.228 -0.551,0.485 -0.902,0.772 0.332,0.244 0.613,0.518 0.843,0.822 5.344,5.29 8.241,11.5 8.69,18.631 0.053,0.845 0.08,1.718 0.084,2.62 l -0.668,25.81 c -0.06,2.39 -1.221,3.653 -3.48,3.793 l -0.551,0.035 -11.807,-0.303 c -2.43,-0.062 -3.716,-1.229 -3.86,-3.5 l -0.034,-0.555 0.67,-25.81 -0.159,0.01 a 12,12 0 0 0 0.19,-2 c 0.029,-0.373 0.033,-0.744 0.01,-1.114 -0.177,-2.799 -1.282,-5.275 -3.317,-7.43 -2.257,-2.352 -5.023,-3.56 -8.297,-3.622 l -11.806,-0.303 -0.985,39.668 c -0.06,2.39 -1.22,3.655 -3.478,3.795 l -0.553,0.035 -11.806,-0.303 c -2.43,-0.061 -3.717,-1.229 -3.86,-3.5 l -0.035,-0.554 2.309,-95.264 c 0.06,-2.39 1.22,-3.655 3.48,-3.795 z m 15.355,20.206 -0.637,23.818 11.885,0.299 c 0.424,0.027 0.847,0.026 1.268,0 2.732,-0.17 5.142,-1.245 7.232,-3.23 2.336,-2.266 3.533,-5.044 3.59,-8.335 0.026,-0.425 0.025,-0.85 -0.002,-1.273 -0.173,-2.746 -1.248,-5.17 -3.227,-7.275 -2.257,-2.353 -5.024,-3.561 -8.298,-3.623 z m 3.89,4.125 7.772,0.252 c 4.013,-0.104 7.679,3.443 7.692,7.46 0.138,2.59 -0.974,5.246 -3.104,6.78 -1.55,1.21 -3.558,1.71 -5.5,1.486 l -7.281,-0.183 0.422,-15.795 z"
     fill="#845f23"
     id="path19" />
  <path
     d="m 270.528,6.056 c -1.797,0.092 -3.592,0.792 -4.92,1.998 -0.207,0.507 -0.332,1.1 -0.35,1.8 l -2.308,95.264 0.035,0.555 c 0.1,1.58 0.766,2.613 1.973,3.123 l 2.3,-94.941 c 0.06,-2.39 1.222,-3.655 3.48,-3.795 l 0.552,-0.033 27.654,0.673 c 8.718,0.256 16.086,3.352 22.103,9.29 a 31.594,31.594 0 0 1 4.774,6.064 C 324.365,22.406 322.111,19.05 319.047,15.99 313.03,10.052 305.662,6.956 296.944,6.7 Z m 37.076,29.19 c 0.196,0.73 0.328,1.483 0.377,2.265 0.027,0.423 0.028,0.848 0.002,1.273 -0.052,3.016 -1.074,5.596 -3.041,7.75 a 7.24,7.24 0 0 1 -2.047,2.315 c -1.55,1.21 -3.558,1.71 -5.5,1.486 l -0.084,-0.002 c -0.05,0.004 -0.1,0.013 -0.15,0.016 -0.42,0.026 -0.844,0.027 -1.268,0 l -9.78,-0.246 -0.105,3.947 11.885,0.299 c 0.424,0.027 0.847,0.026 1.268,0 2.732,-0.17 5.142,-1.245 7.232,-3.23 2.336,-2.266 3.534,-5.044 3.59,-8.335 0.026,-0.425 0.025,-0.85 -0.002,-1.273 -0.146,-2.319 -0.944,-4.405 -2.377,-6.266 z m 12.537,26.8 c -0.027,0.025 -0.052,0.051 -0.08,0.076 -0.25,0.228 -0.551,0.485 -0.902,0.772 0.332,0.244 0.613,0.518 0.844,0.822 a 31.116,31.116 0 0 1 4.787,6.045 c -1.093,-2.743 -2.643,-5.315 -4.649,-7.715 z m -13.445,12.96 c 0.204,0.75 0.34,1.524 0.39,2.327 0.024,0.37 0.02,0.74 -0.01,1.114 -0.008,0.69 -0.071,1.356 -0.189,2 l 0.158,-0.01 -0.67,25.81 0.036,0.555 c 0.099,1.581 0.764,2.615 1.972,3.125 l 0.662,-25.49 -0.158,0.01 a 12,12 0 0 0 0.19,-2 c 0.029,-0.373 0.032,-0.744 0.01,-1.114 -0.147,-2.335 -0.951,-4.442 -2.391,-6.328 z"
     fill="#bb000f"
     id="path20" />
  <path
     d="m 268.75,2.036 c -2.89,0.067 -5.855,1.728 -6.865,4.54 -0.968,2.443 -0.545,5.121 -0.734,7.68 -0.732,30.41 -1.49,60.819 -2.193,91.23 0.009,2.962 1.694,6.038 4.582,7.06 2.487,0.97 5.205,0.553 7.806,0.742 2.904,0.029 5.9,0.286 8.846,0.082 2.983,-0.343 5.699,-2.639 6.232,-5.644 0.475,-2.295 0.225,-4.656 0.381,-6.98 l 0.762,-30.66 c 2.802,0.074 5.567,0.1 8.314,0.243 4.294,0.126 7.824,4.52 7.155,8.74 -0.285,2.055 -0.65,4.097 -0.953,6.149 0.831,-0.419 0.956,0.03 0.814,0.805 -0.164,7.02 -0.417,14.04 -0.492,21.06 0.132,2.95 2.03,5.876 4.94,6.727 2.428,0.796 5.022,0.427 7.529,0.61 2.827,0.027 5.76,0.27 8.642,0.091 3.02,-0.305 5.79,-2.612 6.332,-5.648 0.476,-2.296 0.232,-4.657 0.389,-6.983 0.165,-7.494 0.462,-14.988 0.514,-22.484 -0.159,-6.798 -2.487,-13.545 -6.713,-18.889 a 32.026,32.026 0 0 0 -1.201,-1.457 c 5.054,-5.253 8.324,-12.237 8.86,-19.527 0.64,-7.453 -1.257,-15.146 -5.571,-21.287 C 321.149,11.059 313.527,5.667 304.979,3.728 301.268,2.796 297.428,2.651 293.619,2.618 285.33,2.424 277.041,2.193 268.751,2.036 Z m 0.54,3.99 27.654,0.674 c 8.718,0.256 16.086,3.352 22.103,9.29 5.347,5.342 8.245,11.576 8.694,18.707 0.053,0.845 0.082,1.718 0.086,2.619 -0.224,8.179 -3.479,15.115 -9.766,20.806 -0.25,0.228 -0.551,0.485 -0.902,0.772 0.332,0.244 0.613,0.518 0.843,0.822 5.344,5.29 8.241,11.5 8.69,18.631 0.053,0.845 0.08,1.718 0.084,2.62 l -0.668,25.81 c -0.06,2.39 -1.221,3.653 -3.48,3.793 l -0.551,0.035 -11.807,-0.303 c -2.43,-0.062 -3.716,-1.229 -3.86,-3.5 l -0.034,-0.555 0.67,-25.81 -0.159,0.01 a 12,12 0 0 0 0.19,-2 c 0.029,-0.373 0.033,-0.744 0.01,-1.114 -0.177,-2.799 -1.282,-5.275 -3.317,-7.43 -2.257,-2.352 -5.023,-3.56 -8.297,-3.622 l -11.806,-0.303 -0.985,39.668 c -0.06,2.39 -1.22,3.655 -3.478,3.795 l -0.553,0.035 -11.806,-0.303 c -2.43,-0.061 -3.717,-1.229 -3.86,-3.5 l -0.035,-0.554 2.309,-95.264 c 0.06,-2.39 1.22,-3.655 3.48,-3.795 z m 15.355,20.206 -0.637,23.818 11.885,0.299 c 0.424,0.027 0.847,0.026 1.268,0 2.732,-0.17 5.142,-1.245 7.232,-3.23 2.336,-2.266 3.533,-5.044 3.59,-8.335 0.026,-0.425 0.025,-0.85 -0.002,-1.273 -0.173,-2.746 -1.248,-5.17 -3.227,-7.275 -2.257,-2.353 -5.024,-3.561 -8.298,-3.623 z m 3.89,4.125 7.772,0.252 c 4.013,-0.104 7.679,3.443 7.692,7.46 0.138,2.59 -0.974,5.246 -3.104,6.78 -1.55,1.21 -3.558,1.71 -5.5,1.486 l -7.281,-0.183 0.422,-15.795 z"
     fill="#fad60b"
     id="path21" />
  <path
     d="m 415.585,67.428 2.559,23.677 39.254,-4.2 q 3.925,-0.42 4.352,3.526 l 1.279,11.838 q 0.426,3.946 -3.5,4.366 l -54.955,5.88 q -3.926,0.42 -4.352,-3.526 L 389.99,14.283 q -0.427,-3.946 3.499,-4.366 l 54.956,-5.88 q 3.925,-0.42 4.351,3.526 l 1.28,11.838 q 0.426,3.946 -3.5,4.367 l -39.254,4.2 2.559,23.676 31.403,-3.36 q 3.926,-0.42 4.352,3.526 l 0.853,7.892 q 0.426,3.946 -3.5,4.366 z"
     fill="#f3010f"
     id="path26" />
  <path
     d="m 450.735,4.007 c -18.456,1.916 -36.9,3.954 -55.356,5.881 -2.657,0.22 -5.413,1.513 -6.615,4.014 -1.4,2.684 -0.584,5.758 -0.343,8.603 3.31,30.58 6.594,61.165 9.939,91.74 0.454,3.011 2.841,5.751 5.932,6.164 2.227,0.394 4.407,-0.193 6.587,-0.332 17.307,-1.863 34.62,-3.67 51.92,-5.584 3.092,-0.455 5.86,-3 6.164,-6.18 0.308,-2.426 -0.32,-4.836 -0.476,-7.251 -0.37,-2.962 -0.5,-5.965 -1.111,-8.889 -0.793,-2.96 -3.607,-5.26 -6.7,-5.275 -2.34,-0.076 -4.646,0.434 -6.974,0.593 l -30.012,3.211 -1.7,-15.722 c 9.486,-1.033 18.981,-1.987 28.458,-3.088 3.058,-0.52 5.728,-3.103 5.992,-6.252 0.262,-2.36 -0.317,-4.7 -0.494,-7.045 -0.288,-2.729 -0.29,-5.807 -2.27,-7.95 -1.613,-1.83 -4.151,-2.652 -6.547,-2.341 -3.808,0.337 -7.603,0.817 -11.408,1.195 l -16.295,1.742 -1.699,-15.722 c 12.07,-1.306 24.148,-2.548 36.211,-3.912 3.094,-0.485 5.818,-3.076 6.086,-6.258 0.273,-2.429 -0.345,-4.836 -0.502,-7.252 -0.362,-2.928 -0.499,-5.896 -1.1,-8.787 -0.773,-2.868 -3.432,-5.131 -6.425,-5.274 -0.42,-0.039 -0.841,-0.042 -1.262,-0.029 z m 0.635,3.994 c 2.034,0.074 3.177,1.26 3.426,3.563 l 1.279,11.838 c 0.284,2.63 -0.883,4.085 -3.5,4.365 l -39.254,4.201 2.558,23.676 31.405,-3.36 c 2.617,-0.28 4.067,0.895 4.351,3.526 l 0.852,7.892 c 0.284,2.631 -0.881,4.086 -3.498,4.366 l -31.404,3.361 2.558,23.676 39.254,-4.2 c 2.617,-0.28 4.07,0.895 4.354,3.526 l 1.277,11.838 c 0.284,2.63 -0.881,4.087 -3.498,4.367 l -54.955,5.879 c -2.617,0.28 -4.07,-0.895 -4.354,-3.525 L 391.99,18.283 c -0.284,-2.631 0.881,-4.086 3.498,-4.366 l 54.957,-5.88 c 0.327,-0.036 0.635,-0.046 0.926,-0.036 z"
     fill="#845f23"
     id="path27" />
  <path
     d="M 450.032,4.081 C 431.81,5.976 413.6,7.986 395.379,9.888 c -1.863,0.155 -3.765,0.85 -5.156,2.107 -0.246,0.627 -0.332,1.382 -0.234,2.288 l 10.232,94.707 c 0.179,1.652 0.82,2.728 1.918,3.232 l -10.15,-93.94 c -0.284,-2.63 0.881,-4.085 3.498,-4.365 l 54.957,-5.88 c 0.327,-0.036 0.635,-0.046 0.926,-0.036 0.577,0.021 1.076,0.142 1.51,0.342 l -0.085,-0.78 c -0.22,-2.035 -1.146,-3.189 -2.763,-3.482 z m -3.15,44.248 c -3.725,0.336 -7.438,0.8 -11.16,1.17 l -16.296,1.742 c -0.007,-0.063 -0.012,-0.126 -0.02,-0.189 l -3.976,0.426 0.45,4.166 31.404,-3.36 c 0.973,-0.104 1.783,-0.005 2.433,0.293 l -0.082,-0.767 c -0.22,-2.032 -1.142,-3.185 -2.754,-3.48 z m 12.02,38.61 c -1.736,0.12 -3.462,0.434 -5.2,0.552 l -30.012,3.211 -0.02,-0.189 -3.976,0.426 0.45,4.166 39.253,-4.2 c 0.973,-0.104 1.785,-0.005 2.436,0.294 l -0.082,-0.768 c -0.224,-2.07 -1.182,-3.224 -2.848,-3.492 z"
     fill="#bb000f"
     id="path28" />
  <path
     d="m 448.735,0.007 c -18.456,1.916 -36.9,3.954 -55.356,5.881 -2.657,0.22 -5.413,1.513 -6.615,4.014 -1.4,2.684 -0.584,5.758 -0.343,8.603 3.31,30.58 6.594,61.165 9.939,91.74 0.454,3.011 2.841,5.751 5.932,6.164 2.227,0.394 4.407,-0.193 6.587,-0.332 17.307,-1.863 34.62,-3.67 51.92,-5.584 3.092,-0.455 5.86,-3 6.164,-6.18 0.308,-2.426 -0.32,-4.836 -0.476,-7.251 -0.37,-2.962 -0.5,-5.965 -1.111,-8.889 -0.793,-2.96 -3.607,-5.26 -6.7,-5.275 -2.34,-0.076 -4.646,0.434 -6.974,0.593 l -30.012,3.211 -1.7,-15.722 c 9.486,-1.033 18.981,-1.987 28.458,-3.088 3.058,-0.52 5.728,-3.103 5.992,-6.252 0.262,-2.36 -0.317,-4.7 -0.494,-7.045 -0.288,-2.729 -0.29,-5.807 -2.27,-7.95 -1.613,-1.83 -4.151,-2.652 -6.547,-2.341 -3.808,0.337 -7.603,0.817 -11.408,1.195 l -16.295,1.742 -1.699,-15.722 c 12.07,-1.306 24.148,-2.548 36.211,-3.912 3.094,-0.485 5.818,-3.076 6.086,-6.258 0.273,-2.429 -0.345,-4.836 -0.502,-7.252 -0.362,-2.928 -0.499,-5.896 -1.1,-8.787 -0.773,-2.868 -3.432,-5.131 -6.425,-5.274 a 10.08,10.08 0 0 0 -1.262,-0.029 z m 0.635,3.994 c 2.034,0.074 3.177,1.26 3.426,3.563 l 1.279,11.838 c 0.284,2.63 -0.883,4.085 -3.5,4.365 l -39.254,4.201 2.558,23.676 31.405,-3.36 c 2.617,-0.28 4.067,0.895 4.351,3.526 l 0.852,7.892 c 0.284,2.631 -0.881,4.086 -3.498,4.366 l -31.404,3.361 2.558,23.676 39.254,-4.2 c 2.617,-0.28 4.07,0.895 4.354,3.526 l 1.277,11.838 c 0.284,2.63 -0.881,4.087 -3.498,4.367 l -54.955,5.879 c -2.617,0.28 -4.07,-0.895 -4.354,-3.525 L 389.99,14.283 c -0.284,-2.631 0.881,-4.086 3.498,-4.366 l 54.957,-5.88 c 0.327,-0.036 0.635,-0.046 0.926,-0.036 z"
     fill="#fad60b"
     id="path29" />
  <path
     d="m 380.998,106.92 q -0.123,3.967 -4.069,3.841 l -11.837,-0.379 q -3.946,-0.126 -3.823,-4.093 l 2.455,-79.343 -17.756,-0.568 q -3.945,-0.126 -3.823,-4.094 l 0.369,-11.901 q 0.122,-3.967 4.068,-3.841 l 55.242,1.768 q 3.945,0.126 3.823,4.093 l -0.369,11.901 q -0.123,3.968 -4.068,3.841 l -17.756,-0.568 z"
     fill="#f3010f"
     id="path30" />
  <path
     d="m 347.92,6.546 c -3.183,-0.011 -6.335,2.197 -7.05,5.365 -0.605,2.368 -0.325,4.836 -0.504,7.25 -0.045,2.867 -0.31,5.837 -0.139,8.754 0.34,3.083 2.828,5.812 5.928,6.256 2.338,0.399 4.724,0.213 7.082,0.375 l 8.363,0.268 c -0.776,25.396 -1.6,50.79 -2.33,76.187 0.03,3.083 2.074,6.155 5.127,6.955 2.359,0.697 4.849,0.382 7.27,0.573 2.913,0.045 5.913,0.317 8.87,0.154 3.056,-0.335 5.763,-2.782 6.237,-5.848 0.425,-2.337 0.224,-4.727 0.389,-7.088 l 2.166,-70.045 c 5.018,0.136 10.037,0.387 15.056,0.418 3.012,-0.198 5.873,-2.361 6.541,-5.363 0.6,-2.362 0.322,-4.824 0.5,-7.232 0.046,-2.868 0.307,-5.837 0.141,-8.756 -0.345,-3.055 -2.788,-5.772 -5.861,-6.238 C 403.346,8.115 400.935,8.304 398.553,8.14 381.675,7.61 364.799,7.032 347.921,6.546 Z m 0.663,3.996 55.24,1.768 c 2.63,0.084 3.906,1.449 3.824,4.094 l -0.37,11.9 c -0.081,2.645 -1.437,3.926 -4.067,3.842 l -17.756,-0.569 -2.455,79.342 c -0.082,2.645 -1.438,3.926 -4.069,3.842 l -11.838,-0.379 c -2.63,-0.084 -3.906,-1.449 -3.824,-4.094 l 2.457,-79.341 -17.758,-0.569 c -2.63,-0.084 -3.904,-1.449 -3.822,-4.094 l 0.37,-11.902 c 0.081,-2.645 1.437,-3.924 4.068,-3.84 z"
     fill="#845f23"
     id="path31" />
  <path
     d="m 347.58,6.574 a 7.522,7.522 0 0 0 -4.728,2.001 c -0.2,0.51 -0.316,1.107 -0.338,1.807 l -0.369,11.902 c -0.06,1.936 0.615,3.178 2.008,3.743 l 0.361,-11.645 c 0.082,-2.645 1.438,-3.924 4.069,-3.84 l 55.24,1.768 c 0.706,0.022 1.306,0.144 1.816,0.351 l 0.008,-0.257 c 0.082,-2.645 -1.193,-4.01 -3.824,-4.094 z m 16.024,24.304 -2.336,75.41 c -0.06,1.936 0.616,3.178 2.008,3.743 l 2.45,-79.084 z"
     fill="#bb000f"
     id="path32" />
  <path
     d="m 345.92,2.546 c -3.183,-0.011 -6.335,2.197 -7.05,5.365 -0.605,2.368 -0.325,4.836 -0.504,7.25 -0.045,2.867 -0.31,5.837 -0.139,8.754 0.34,3.083 2.828,5.812 5.928,6.256 2.338,0.399 4.724,0.213 7.082,0.375 l 8.363,0.268 c -0.776,25.396 -1.6,50.79 -2.33,76.187 0.03,3.083 2.074,6.155 5.127,6.955 2.359,0.697 4.849,0.382 7.27,0.573 2.913,0.045 5.913,0.317 8.87,0.154 3.056,-0.335 5.763,-2.782 6.237,-5.848 0.425,-2.337 0.224,-4.727 0.389,-7.088 l 2.166,-70.045 c 5.018,0.136 10.037,0.387 15.056,0.418 3.012,-0.198 5.873,-2.361 6.541,-5.363 0.6,-2.362 0.322,-4.824 0.5,-7.232 0.046,-2.868 0.307,-5.837 0.141,-8.756 C 409.222,7.714 406.779,4.997 403.706,4.531 401.346,4.115 398.935,4.304 396.553,4.14 379.675,3.61 362.799,3.032 345.921,2.546 Z m 0.663,3.996 55.24,1.768 c 2.63,0.084 3.906,1.449 3.824,4.094 l -0.37,11.9 c -0.081,2.645 -1.437,3.926 -4.067,3.842 l -17.756,-0.569 -2.455,79.342 c -0.082,2.645 -1.438,3.926 -4.069,3.842 l -11.838,-0.379 c -2.63,-0.084 -3.906,-1.449 -3.824,-4.094 l 2.457,-79.341 -17.758,-0.569 c -2.63,-0.084 -3.904,-1.449 -3.822,-4.094 l 0.37,-11.902 c 0.081,-2.645 1.437,-3.924 4.068,-3.84 z"
     fill="#fad60b"
     id="path33" />
  <g
     stroke-width="2.5"
     id="g36"
     transform="translate(22.4)">
    <path
       d="m 325.808,104.655 q 0.167,3.966 -3.7,4.124 l -11.912,0.487 q -3.944,0.161 -4.11,-3.804 l -3.992,-95.174 q -0.166,-3.965 3.779,-4.127 l 11.833,-0.483 q 3.945,-0.162 4.111,3.804 z"
       fill="#f3010f"
       id="path34" />
    <path
       d="m 319.606,5.679 c -4.438,0.22 -8.888,0.274 -13.318,0.627 -3.063,0.457 -5.742,3.008 -6.068,6.135 -0.316,2.362 0.091,4.74 0.093,7.111 1.274,30.304 2.522,60.61 3.836,90.912 0.257,3.038 2.463,5.93 5.526,6.541 2.43,0.56 4.927,0.053 7.386,0.063 2.979,-0.17 5.98,-0.114 8.94,-0.5 3.015,-0.573 5.506,-3.243 5.72,-6.33 0.231,-2.413 -0.133,-4.83 -0.148,-7.245 -1.268,-30.136 -2.513,-60.275 -3.812,-90.41 -0.216,-3.034 -2.373,-5.947 -5.41,-6.623 -0.893,-0.242 -1.823,-0.298 -2.745,-0.281 z m 0.1,3.998 c 2.63,-0.107 4,1.161 4.111,3.805 l 3.99,95.174 c 0.111,2.643 -1.122,4.017 -3.699,4.123 l -11.912,0.488 c -2.63,0.107 -4,-1.161 -4.111,-3.805 l -3.99,-95.174 c -0.111,-2.643 1.147,-4.02 3.777,-4.127 z"
       fill="#845f23"
       id="path35" />
    <path
       d="m 317.606,1.679 c -4.438,0.22 -8.888,0.274 -13.318,0.627 -3.063,0.457 -5.742,3.008 -6.068,6.135 -0.316,2.362 0.091,4.74 0.093,7.111 1.274,30.304 2.522,60.61 3.836,90.912 0.257,3.038 2.463,5.93 5.526,6.541 2.43,0.56 4.927,0.053 7.386,0.063 2.979,-0.17 5.98,-0.114 8.94,-0.5 3.015,-0.573 5.506,-3.243 5.72,-6.33 0.231,-2.413 -0.133,-4.83 -0.148,-7.245 -1.268,-30.136 -2.513,-60.275 -3.812,-90.41 -0.216,-3.034 -2.373,-5.947 -5.41,-6.623 -0.893,-0.242 -1.823,-0.298 -2.745,-0.281 z m 0.1,3.998 c 2.63,-0.107 4,1.161 4.111,3.805 l 3.99,95.174 c 0.111,2.643 -1.122,4.017 -3.699,4.123 l -11.912,0.488 c -2.63,0.107 -4,-1.161 -4.111,-3.805 l -3.99,-95.174 c -0.111,-2.643 1.147,-4.02 3.777,-4.127 z"
       fill="#fad60b"
       id="path36" />
  </g>
  <path
     d="m 341.1,5.714 c -4.138,0.186 -8.284,0.263 -12.412,0.592 -1.46,0.218 -2.822,0.922 -3.894,1.926 -0.223,0.571 -0.333,1.247 -0.3,2.056 l 3.991,95.174 c 0.075,1.793 0.743,2.937 1.977,3.465 l -3.967,-94.639 c -0.111,-2.643 1.147,-4.02 3.777,-4.127 l 11.834,-0.484 c 0.846,-0.035 1.547,0.09 2.133,0.34 L 344.217,9.482 C 344.121,7.196 343.08,5.942 341.1,5.714 Z"
     fill="#bb000f"
     id="path37" />
</svg>
