<?xml version="1.0" encoding="UTF-8" standalone="no"?>
<!-- Created with Inkscape (http://www.inkscape.org/) -->

<svg
   version="1.1"
   id="svg1"
   width="770.66669"
   height="286.66666"
   viewBox="0 0 770.66669 286.66666"
   sodipodi:docname="centurye-w.svg"
   inkscape:version="1.4.2 (f4327f4, 2025-05-13)"
   xmlns:inkscape="http://www.inkscape.org/namespaces/inkscape"
   xmlns:sodipodi="http://sodipodi.sourceforge.net/DTD/sodipodi-0.dtd"
   xmlns="http://www.w3.org/2000/svg"
   xmlns:svg="http://www.w3.org/2000/svg">
  <defs
     id="defs1" />
  <sodipodi:namedview
     id="namedview1"
     pagecolor="#ffffff"
     bordercolor="#000000"
     borderopacity="0.25"
     inkscape:showpageshadow="2"
     inkscape:pageopacity="0.0"
     inkscape:pagecheckerboard="0"
     inkscape:deskcolor="#d1d1d1"
     inkscape:zoom="1.6497119"
     inkscape:cx="380.36945"
     inkscape:cy="163.96802"
     inkscape:window-width="1920"
     inkscape:window-height="1009"
     inkscape:window-x="-8"
     inkscape:window-y="-8"
     inkscape:window-maximized="1"
     inkscape:current-layer="g1" />
  <g
     inkscape:groupmode="layer"
     inkscape:label="Image"
     id="g1">
    <path
       style="fill:#ffffff;stroke-width:0.606166"
       d="m 14.851078,181.13752 c -1.000175,-0.35339 -2.292154,-0.88321 -2.871066,-1.17739 -0.578911,-0.29417 -1.485627,-0.53486 -2.0149241,-0.53486 -0.5292972,0 -2.5788103,-1.59158 -4.5544735,-3.53683 l -3.592115,-3.53683 v -6.46492 c 0,-3.90583 0.2399459,-6.46491 0.6061664,-6.46491 0.3333916,0 0.6061665,-0.68194 0.6061665,-1.51542 0,-0.83348 0.2687828,-1.51542 0.5972952,-1.51542 0.7226438,0 6.0705357,-5.41757 6.0705357,-6.14963 0,-0.285 0.2997227,-0.5182 0.6660498,-0.5182 0.366327,0 1.430479,-0.81832 2.364782,-1.8185 0.934304,-1.00017 1.975038,-1.8185 2.312744,-1.8185 0.337706,0 1.534418,-0.88651 2.65936,-1.97004 1.124942,-1.08352 2.785009,-2.3571 3.689037,-2.83018 0.904029,-0.47307 1.643689,-1.08682 1.643689,-1.36387 0,-0.27705 0.2707,-0.50374 0.601556,-0.50374 0.546513,0 2.564822,-1.53322 4.588195,-3.48545 0.431925,-0.41674 0.976806,-0.75771 1.210847,-0.75771 0.60737,0 6.591749,-4.32845 6.834036,-4.943 0.111131,-0.28187 0.588487,-0.5125 1.060791,-0.5125 0.472305,0 0.858736,-0.27277 0.858736,-0.60617 0,-0.33339 0.54555,-0.60616 1.212333,-0.60616 0.666783,0 1.212333,-0.22989 1.212333,-0.51087 0,-0.28097 1.18447,-1.12006 2.632156,-1.86463 1.447685,-0.74457 3.345204,-2.01495 4.216709,-2.82305 0.871505,-0.80811 2.005622,-1.46928 2.52026,-1.46928 0.514637,0 0.935705,-0.27278 0.935705,-0.60617 0,-0.33339 0.409162,-0.60617 0.90925,-0.60617 0.500087,0 0.912379,-0.20458 0.916204,-0.45462 0.0038,-0.25004 1.094924,-0.97587 2.424666,-1.61294 1.329741,-0.63707 2.417711,-1.3872 2.417711,-1.66695 0,-0.27976 0.409162,-0.50865 0.90925,-0.50865 0.500087,0 0.909249,-0.27278 0.909249,-0.60617 0,-0.33339 0.54555,-0.60616 1.212333,-0.60616 0.666783,0 1.212333,-0.27278 1.212333,-0.60617 0,-0.33339 0.54555,-0.60617 1.212333,-0.60617 0.666783,0 1.212333,-0.22186 1.212333,-0.49302 0,-0.27117 0.954712,-0.86763 2.121582,-1.32548 1.166871,-0.45784 2.121583,-1.19069 2.121583,-1.62855 0,-0.44508 0.668208,-0.79611 1.515416,-0.79611 0.833479,0 1.515416,-0.27278 1.515416,-0.60617 0,-0.33339 0.54555,-0.60617 1.212333,-0.60617 0.666783,0 1.212333,-0.27277 1.212333,-0.60616 0,-0.33339 0.54555,-0.60617 1.212333,-0.60617 0.666783,0 1.212333,-0.27277 1.212333,-0.60616 0,-0.3334 0.387055,-0.60617 0.860126,-0.60617 1.081698,0 4.586401,-1.96641 4.591541,-2.57621 0.0021,-0.25004 0.685768,-0.45462 1.519247,-0.45462 0.833479,0 1.515416,-0.27278 1.515416,-0.60617 0,-0.33339 0.54555,-0.60617 1.212333,-0.60617 0.666783,0 1.212333,-0.27277 1.212333,-0.60616 0,-0.33339 0.399482,-0.60617 0.887743,-0.60617 1.217085,0 6.467566,-2.970566 7.669691,-4.339284 0.539191,-0.613919 1.289322,-1.116213 1.666957,-1.116213 0.37763,0 0.686605,-0.665838 0.686605,-1.47964 0,-0.813803 0.272775,-1.648227 0.606167,-1.854276 0.333391,-0.206048 0.606166,-2.077017 0.606166,-4.157707 0,-2.080691 0.246328,-4.042209 0.547399,-4.358931 0.301063,-0.316722 0.701563,-1.803345 0.889983,-3.303607 0.81197,-6.465208 1.14301,-8.216635 1.65554,-8.759106 0.29924,-0.316722 0.54408,-1.222722 0.54408,-2.013339 0,-0.790611 0.40916,-1.846644 0.90925,-2.346731 0.50008,-0.500087 0.90925,-1.419218 0.90925,-2.042508 0,-0.623297 0.27277,-1.301846 0.60616,-1.507894 0.33339,-0.206048 0.60617,-0.904085 0.60617,-1.551192 0,-0.647106 0.27277,-1.176557 0.60617,-1.176557 0.33339,0 0.60616,-0.54555 0.60616,-1.212333 0,-0.666783 0.27278,-1.212333 0.60617,-1.212333 0.33339,0 0.60616,-0.681937 0.60616,-1.515416 0,-0.833479 0.27278,-1.515416 0.60617,-1.515416 0.33339,0 0.60617,-0.395108 0.60617,-0.878019 0,-0.48291 0.68194,-1.613841 1.51541,-2.51318 0.83348,-0.899338 1.51542,-2.004492 1.51542,-2.455896 0,-0.451405 0.27277,-0.820736 0.60617,-0.820736 0.33339,0 0.60616,-0.54555 0.60616,-1.212333 0,-0.666783 0.27278,-1.212333 0.60617,-1.212333 0.33339,0 0.60617,-0.409162 0.60617,-0.909249 0,-0.500088 0.27277,-0.90925 0.60616,-0.90925 0.33339,0 0.60617,-0.54555 0.60617,-1.212333 0,-0.666783 0.28517,-1.212333 0.63372,-1.212333 0.89394,0 3.13942,-2.400974 4.21561,-4.507537 0.93608,-1.832306 8.22213,-9.408528 11.1059,-11.548205 0.89298,-0.662565 1.6236,-1.549083 1.6236,-1.970041 0,-0.420957 0.48533,-0.765377 1.07851,-0.765377 0.59318,0 1.47173,-0.54555 1.95232,-1.212333 0.48059,-0.666783 1.08324,-1.212333 1.33922,-1.212333 0.47296,0 2.25014,-1.334639 4.11622,-3.091216 0.56654,-0.533298 1.88942,-1.350017 2.93973,-1.814929 1.05031,-0.464914 1.90966,-1.051485 1.90966,-1.303491 0,-0.252007 0.34097,-0.46426 0.75771,-0.471673 0.41674,-0.0074 1.43964,-0.546898 2.27312,-1.198855 0.83348,-0.651956 1.99277,-1.19144 2.57621,-1.198854 0.58343,-0.0074 1.06079,-0.422641 1.06079,-0.922728 0,-0.500087 0.52945,-0.9092498 1.17656,-0.9092498 0.6471,0 1.34514,-0.2727749 1.55119,-0.6061664 0.20605,-0.3333916 1.02437,-0.6061665 1.8185,-0.6061665 0.79412,0 1.61245,-0.2727749 1.8185,-0.6061664 0.20604,-0.3333916 1.17686,-0.6061665 2.15736,-0.6061665 0.98049,0 1.78272,-0.2727749 1.78272,-0.6061664 0,-0.3333916 0.66584,-0.6061665 1.47964,-0.6061665 0.8138,0 1.64823,-0.2727749 1.85427,-0.6061664 0.20605,-0.3333916 1.15738,-0.6061665 2.11406,-0.6061665 0.95669,0 2.14859,-0.4091623 2.64868,-0.9092497 0.50009,-0.5000873 1.86072,-0.9092496 3.02362,-0.9092496 1.1629,0 2.21763,-0.309805 2.34385,-0.6884554 0.32475,-0.9742707 32.3941,-0.9767723 33.36827,-0.0026 0.38008,0.380082 1.83059,0.6910583 3.22336,0.6910583 1.51143,0 2.8365,0.3665514 3.2869,0.9092496 0.46046,0.5548294 1.78894,0.9092497 3.40813,0.9092497 1.45944,0 2.65353,0.2727749 2.65353,0.6061665 0,0.3333915 0.81833,0.6061664 1.8185,0.6061664 1.00017,0 1.8185,0.2727749 1.8185,0.6061665 0,0.3333915 0.66584,0.6061664 1.47964,0.6061664 0.8138,0 1.64823,0.2727749 1.85427,0.6061665 0.20605,0.3333915 1.04048,0.6061664 1.85428,0.6061664 0.8138,0 1.47964,0.2727749 1.47964,0.6061665 0,0.3333915 0.65921,0.6061664 1.4649,0.6061664 0.8057,0 1.55583,0.2184673 1.66696,0.4854829 0.28887,0.694057 5.9521,3.757682 6.94623,3.757682 0.4581,0 0.83291,0.272775 0.83291,0.606167 0,0.333391 0.42106,0.606166 0.9357,0.606166 0.51464,0 1.67115,0.681938 2.57002,1.515416 0.89886,0.833479 1.97806,1.515417 2.3982,1.515417 0.42015,0 0.76391,0.208381 0.76391,0.46307 0,0.254688 1.0911,1.137406 2.42466,1.961595 1.33357,0.82419 2.42467,1.706908 2.42467,1.961596 0,0.254689 0.40916,0.46307 0.90925,0.46307 0.50009,0 0.92077,0.340969 0.93485,0.757708 0.0141,0.41674 1.77559,1.985195 3.91448,3.485457 2.13889,1.500262 3.90041,2.941423 3.91448,3.20258 0.0141,0.261157 1.01391,1.463145 2.22186,2.671086 1.90885,1.908851 2.56097,2.190742 4.98329,2.154122 1.53287,-0.02317 2.88587,-0.338643 3.00667,-0.701045 0.1208,-0.362401 0.72636,-0.658912 1.34569,-0.658912 0.61932,0 1.29462,-0.272775 1.50067,-0.606166 0.20605,-0.333392 1.16076,-0.606167 2.12158,-0.606167 0.96083,0 1.89691,-0.242636 2.08019,-0.539192 0.18329,-0.296556 1.22229,-0.671514 2.3089,-0.833242 1.77478,-0.264151 3.81512,-0.89947 7.43116,-2.313908 0.66678,-0.260817 2.03066,-0.612404 3.03083,-0.781305 1.70087,-0.287229 3.77196,-0.769547 9.69866,-2.258641 1.33357,-0.335061 3.76563,-0.85886 5.40457,-1.163997 1.63894,-0.305138 3.26195,-0.836852 3.60669,-1.181587 0.34474,-0.344735 1.66334,-0.626791 2.93022,-0.626791 1.26689,0 2.30344,-0.272775 2.30344,-0.606166 0,-0.333392 1.4457,-0.606167 3.21268,-0.606167 1.76697,0 3.47182,-0.247629 3.78854,-0.550287 0.31672,-0.302657 1.93973,-0.699824 3.60669,-0.882592 1.66696,-0.182768 4.80387,-0.614522 6.97091,-0.959453 2.16705,-0.344931 6.04458,-0.861186 8.61674,-1.147232 2.57217,-0.286047 5.05565,-0.834616 5.51886,-1.219043 0.59086,-0.490372 1.72776,-0.535866 3.80967,-0.152446 1.63211,0.300582 5.2194,0.738736 7.97176,0.973675 2.75234,0.23494 5.15522,0.671412 5.33972,0.969938 0.1845,0.298526 0.73993,0.542774 1.23428,0.542774 0.49435,0 1.4844,0.54555 2.2001,1.212333 0.71572,0.666783 1.63646,1.212333 2.04611,1.212333 0.40965,0 1.2136,1.227487 1.78655,2.727749 0.57296,1.500262 1.27745,2.727749 1.56555,2.727749 0.93405,0 0.59568,5.853583 -0.38543,6.667831 -0.50009,0.415036 -0.90925,1.179528 -0.90925,1.698872 0,1.03449 -8.54659,9.572373 -11.04188,11.030624 -2.20114,1.286354 -4.63704,3.107783 -6.28263,4.69779 -0.77635,0.750131 -1.55721,1.363874 -1.73525,1.363874 -0.4342,0 -2.58082,1.744636 -4.66145,3.788541 -0.93331,0.916826 -2.04709,1.667291 -2.47506,1.667698 -0.42798,4.07e-4 -1.5707,0.682344 -2.53938,1.515416 -0.96869,0.833072 -1.97061,1.514676 -2.2265,1.514676 -0.25589,0 -1.28357,0.818324 -2.28375,1.818499 -1.00017,1.000175 -2.12367,1.818499 -2.49664,1.818499 -0.37298,0 -1.26372,0.54555 -1.97943,1.212333 -0.71571,0.666783 -1.65694,1.212333 -2.09163,1.212333 -0.70857,0 -2.57887,1.364638 -4.77697,3.485457 -0.43193,0.41674 -1.06929,0.757708 -1.41635,0.757708 -0.34706,0 -1.66223,0.588309 -2.92258,1.307356 -1.26036,0.719041 -2.84096,1.605559 -3.51243,1.970041 -0.67148,0.364476 -2.03536,1.218067 -3.03083,1.896864 -0.99549,0.678798 -2.6283,1.633073 -3.62847,2.120613 -1.00018,0.487546 -1.95489,1.025876 -2.12159,1.196294 -0.16669,0.170417 -1.32598,0.846626 -2.5762,1.502686 -1.25022,0.656054 -2.27313,1.403579 -2.27313,1.661151 0,0.257578 -0.54555,0.468324 -1.21233,0.468324 -0.66678,0 -1.21233,0.221863 -1.21233,0.493026 0,0.271168 -0.95471,0.86763 -2.12159,1.325474 -1.16687,0.457843 -2.12158,1.054305 -2.12158,1.325474 0,0.271162 -0.38705,0.493025 -0.86012,0.493025 -1.0817,0 -4.5864,1.96641 -4.59154,2.576207 -0.002,0.250044 -0.413,0.454625 -0.91309,0.454625 -0.50008,0 -0.90925,0.240964 -0.90925,0.53547 0,0.294506 -0.54554,0.67813 -1.21233,0.8525 -1.14487,0.299392 -1.21233,0.0186 -1.21233,-5.045942 0,-2.949636 -0.27278,-5.53156 -0.60617,-5.737608 -0.33339,-0.206048 -0.60616,-0.888615 -0.60616,-1.516816 0,-2.189485 -4.13667,-3.573097 -5.4555,-1.824725 -0.1667,0.220984 -2.55348,1.460431 -5.30396,2.754318 -2.75048,1.293886 -5.00087,2.569072 -5.00087,2.833749 0,0.26467 -0.40087,0.481223 -0.89081,0.481223 -0.90735,0 -5.00438,2.091226 -6.0498,3.087958 -0.31672,0.301974 -1.06685,0.549041 -1.66696,0.549041 -0.6001,0 -1.09109,0.272775 -1.09109,0.606167 0,0.333391 -0.54555,0.606166 -1.21234,0.606166 -0.67352,0 -1.21233,0.404113 -1.21233,0.90925 0,0.500087 -0.52945,0.909249 -1.17656,0.909249 -0.6471,0 -1.34514,0.272775 -1.55119,0.606167 -0.20605,0.333391 -0.90408,0.606166 -1.55119,0.606166 -0.64711,0 -1.17656,0.272775 -1.17656,0.606167 0,0.333391 -0.54555,0.606166 -1.21233,0.606166 -0.66678,0 -1.21233,0.272775 -1.21233,0.606167 0,0.333391 -0.68194,0.606166 -1.51542,0.606166 -0.83348,0 -1.51542,0.272775 -1.51542,0.606166 0,0.333392 -0.41772,0.606167 -0.92827,0.606167 -0.51055,0 -1.08528,0.409162 -1.27718,0.90925 -0.19191,0.500087 -0.84918,0.909249 -1.46062,0.909249 -0.61144,0 -1.28029,0.272775 -1.48634,0.606167 -0.20605,0.333391 -0.90409,0.606166 -1.55119,0.606166 -0.64711,0 -1.17656,0.272775 -1.17656,0.606167 0,0.333391 -0.54555,0.606166 -1.21233,0.606166 -0.66679,0 -1.21234,0.272775 -1.21234,0.606159 0,0.3334 -0.52945,0.60617 -1.17655,0.60617 -0.64711,0 -1.34515,0.27278 -1.5512,0.60617 -0.20604,0.33339 -0.87489,0.60616 -1.48633,0.60616 -0.61144,0 -1.26872,0.40917 -1.46062,0.90925 -0.1919,0.50009 -0.88693,0.90925 -1.5445,0.90925 -0.65757,0 -1.36416,0.27278 -1.57021,0.60617 -0.20605,0.33339 -1.04047,0.60617 -1.85428,0.60617 -0.8138,0 -1.47964,0.27277 -1.47964,0.60616 0,0.33339 -0.68193,0.60617 -1.51541,0.60617 -0.83348,0 -1.51542,0.27277 -1.51542,0.60617 0,0.33339 -0.35811,0.60616 -0.7958,0.60616 -0.43769,0 -2.2094,0.68194 -3.93711,1.51542 -1.72772,0.83348 -3.41542,1.51541 -3.75045,1.51541 -0.33502,0 -0.60913,0.27278 -0.60913,0.60617 0,0.33339 -0.41287,0.60617 -0.91748,0.60617 -0.50461,0 -1.39113,0.24095 -1.97004,0.53544 -0.57891,0.2945 -1.87089,0.87187 -2.87107,1.28306 -1.00017,0.41118 -2.29215,0.98856 -2.87106,1.28305 -0.57891,0.29449 -1.58572,0.53545 -2.23735,0.53545 -0.65163,0 -1.34269,0.2555 -1.53569,0.56778 -0.46072,0.74546 -3.92385,2.46305 -4.96619,2.46305 -0.44887,0 -0.81612,0.27277 -0.81612,0.60616 0,0.3334 -0.41286,0.60617 -0.91747,0.60617 -0.50461,0 -1.45932,0.27278 -2.12159,0.60617 l -2.40821,1.21233 c -0.66226,0.33339 -1.58357,0.60617 -2.04736,0.60617 -0.46379,0 -1.18283,0.40916 -1.59786,0.90925 -0.41504,0.50008 -1.26677,0.90925 -1.89272,0.90925 -0.62597,0 -1.13812,0.27277 -1.13812,0.60616 0,0.33339 -0.95471,0.60617 -2.12158,0.60617 -1.16687,0 -2.12158,0.27277 -2.12158,0.60617 0,0.33339 -0.54926,0.60616 -1.22056,0.60616 -0.67131,0 -1.8306,0.31537 -2.57621,0.70081 -2.87343,1.48542 -3.49462,1.72447 -4.5298,1.74313 -0.58795,0.0106 -1.5985,0.41977 -2.24566,0.90925 -0.64716,0.48949 -1.80645,0.88998 -2.57621,0.88998 -0.76976,0 -1.39956,0.27277 -1.39956,0.60616 0,0.3334 -0.66583,0.60617 -1.47964,0.60617 -0.8138,0 -1.64822,0.27277 -1.85427,0.60617 -0.20605,0.33339 -1.17686,0.60616 -2.15736,0.60616 -0.9805,0 -1.78272,0.27278 -1.78272,0.60617 0,0.33339 -0.80223,0.60617 -1.78273,0.60617 -0.9805,0 -1.95131,0.27277 -2.15736,0.60616 -0.20604,0.33339 -0.86217,0.60617 -1.45806,0.60617 -0.98926,0 -3.58648,1.02177 -6.26233,2.46365 -0.57892,0.31195 -1.73821,0.56718 -2.57621,0.56718 -0.838,0 -1.52364,0.27278 -1.52364,0.60617 0,0.33339 -0.81833,0.60616 -1.8185,0.60616 -1.00018,0 -1.8185,0.27278 -1.8185,0.60617 0,0.33339 -0.95471,0.60617 -2.12158,0.60617 -1.16687,0 -2.12159,0.27277 -2.12159,0.60616 0,0.33339 -0.44074,0.60617 -0.97943,0.60617 -1.44778,0 -6.90073,2.0284 -6.90073,2.56694 0,0.25514 -0.95842,0.46389 -2.12981,0.46389 -1.17139,0 -2.60346,0.24134 -3.18237,0.53631 -1.62148,0.8262 -8.97643,3.10069 -10.02659,3.10069 -2.15321,0 -5.76981,4.31625 -4.14791,4.95036 0.79637,0.31136 6.15102,7.07587 6.15102,7.77057 0,0.3381 0.21396,0.61473 0.47547,0.61473 0.46663,0 2.55536,3.17317 2.55536,3.88207 0,0.1986 -1.075,0.3611 -2.38889,0.3611 -1.31389,0 -2.55748,0.27277 -2.76352,0.60616 -0.20605,0.3334 -1.04417,0.60617 -1.86251,0.60617 -0.81832,0 -1.96151,0.23929 -2.54043,0.53175 -1.65191,0.83456 -5.05753,1.80779 -7.87194,2.24961 -1.41691,0.22243 -2.5762,0.64233 -2.5762,0.93311 0,0.29078 -0.80223,0.5287 -1.782726,0.5287 -0.980498,0 -1.95131,0.27277 -2.157358,0.60616 -0.206049,0.33339 -1.706311,0.60617 -3.333916,0.60617 -1.627605,0 -3.127867,0.27277 -3.333915,0.60617 -0.206049,0.33339 -1.433536,0.60616 -2.727749,0.60616 -1.294214,0 -2.49934,0.23659 -2.678056,0.52577 -0.178722,0.28917 -1.490497,0.69261 -2.915067,0.89655 -1.42457,0.20394 -4.908711,0.80676 -7.742539,1.33962 -2.833829,0.53286 -7.06184,1.09401 -9.39558,1.247 -2.333741,0.15299 -4.788715,0.53383 -5.455498,0.8463 -0.666784,0.31247 -3.940082,0.7125 -7.273998,0.88896 -3.333915,0.17645 -10.426063,0.58275 -15.760328,0.90289 -5.334264,0.32013 -12.01725,0.71281 -14.851078,0.87262 -2.898137,0.16343 -5.948042,0.009 -6.970914,-0.35196 z m 24.852825,-14.9706 c 7.254854,-0.68379 11.788674,-1.51185 13.60756,-2.48529 0.6401,-0.34257 2.802301,-0.62285 4.804892,-0.62285 2.002591,0 3.809658,-0.27278 4.015706,-0.60617 0.206048,-0.33339 2.115473,-0.60617 4.243165,-0.60617 2.127693,0 4.037118,-0.27277 4.243166,-0.60616 0.206048,-0.3334 1.858797,-0.60617 3.672774,-0.60617 1.813978,0 3.29814,-0.24753 3.29814,-0.55007 0,-0.30253 1.432068,-0.68371 3.182374,-0.84706 4.575829,-0.42705 8.564665,-1.41408 8.820873,-2.1827 0.121609,-0.36483 1.425867,-0.66334 2.898343,-0.66334 1.472481,0 2.677237,-0.27277 2.677237,-0.60616 0,-0.33339 1.075,-0.60617 2.38889,-0.60617 1.31389,0 2.557477,-0.27277 2.763527,-0.60616 0.20605,-0.3334 1.17686,-0.60617 2.15736,-0.60617 0.98049,0 1.78272,-0.27278 1.78272,-0.60617 0,-0.33339 0.65983,-0.60616 1.46629,-0.60616 2.32541,0 5.19332,-1.92315 5.19771,-3.48546 0.002,-0.75013 -0.26894,-1.36388 -0.60234,-1.36388 -0.33339,0 -0.60616,-0.40916 -0.60616,-0.90925 0,-0.50008 -0.27278,-0.90925 -0.60617,-0.90925 -0.33339,0 -0.60617,-0.54925 -0.60617,-1.22055 0,-0.67131 -0.27277,-1.76241 -0.60616,-2.42467 l -1.21233,-2.40821 c -0.3334,-0.66227 -0.60617,-1.61698 -0.60617,-2.12159 0,-0.50461 -0.27278,-0.91747 -0.60617,-0.91747 -0.33339,0 -0.60616,-0.66246 -0.60616,-1.47212 0,-0.80967 -0.40917,-1.88128 -0.90925,-2.38137 -0.50009,-0.50008 -0.90925,-1.61437 -0.90925,-2.47619 0,-0.86181 -0.23929,-2.04059 -0.53176,-2.6195 -0.93215,-1.84512 -1.89291,-5.33246 -1.89291,-6.87085 0,-2.15039 -1.636915,-4.18346 -3.368284,-4.18346 -0.814579,0 -1.483174,0.20458 -1.485775,0.45462 -0.0064,0.61506 -3.004694,1.97004 -4.359282,1.97004 -0.600317,0 -1.091488,0.27278 -1.091488,0.60617 0,0.33339 -0.681937,0.60616 -1.515416,0.60616 -0.833479,0 -1.515416,0.27278 -1.515416,0.60617 0,0.33339 -0.54555,0.60617 -1.212333,0.60617 -0.666783,0 -1.212333,0.26758 -1.212333,0.59462 0,0.32703 -0.681937,0.76577 -1.515416,0.97496 -0.833479,0.20919 -1.515416,0.62355 -1.515416,0.9208 0,0.29724 -0.412866,0.54045 -0.917475,0.54045 -0.50461,0 -1.391128,0.25491 -1.970041,0.56646 -0.578914,0.31156 -1.939084,0.9237 -3.022607,1.36031 -1.083522,0.43661 -1.970041,0.96821 -1.970041,1.18134 0,0.21312 -0.477356,0.55252 -1.060791,0.75421 -0.583435,0.2017 -1.879116,0.89551 -2.879291,1.54181 -1.000174,0.6463 -2.295855,1.19503 -2.87929,1.2194 -0.583436,0.0244 -1.060792,0.31707 -1.060792,0.65047 0,0.33339 -0.54555,0.60616 -1.212333,0.60616 -0.666783,0 -1.212333,0.20619 -1.212333,0.4582 0,0.25201 -0.886518,0.8439 -1.970041,1.31531 -1.083522,0.47141 -2.106428,1.02166 -2.273124,1.22277 -0.703966,0.84927 -3.666231,2.45922 -4.524921,2.45922 -0.511818,0 -0.930577,0.27278 -0.930577,0.60617 0,0.33339 -0.54555,0.60616 -1.212333,0.60616 -0.666783,0 -1.212333,0.20619 -1.212333,0.4582 0,0.25201 -0.886518,0.84418 -1.970041,1.31594 -1.083522,0.47177 -2.788365,1.44875 -3.78854,2.17107 -1.000175,0.72232 -2.828681,1.77355 -4.063348,2.33607 -1.234667,0.56252 -2.598541,1.35763 -3.030832,1.76691 -0.432291,0.40928 -1.827288,1.28904 -3.099993,1.95502 -1.272706,0.66598 -2.772968,1.62004 -3.333916,2.12012 -0.560948,0.50009 -1.83823,1.31842 -2.838405,1.8185 -1.000175,0.50009 -2.123183,1.18203 -2.495575,1.51542 -2.20254,1.97187 -3.920219,3.33391 -4.20442,3.33391 -0.179314,0 -0.995564,0.66955 -1.813889,1.48787 -1.99412,1.99412 -1.925931,4.35254 0.179095,6.19432 1.546997,1.35353 2.037746,1.43852 6.819373,1.18113 2.833828,-0.15256 8.152939,-0.56018 11.820246,-0.90584 z m 81.368017,-27.65789 c 0.44529,-0.33339 1.18982,-0.94713 1.65453,-1.36387 0.4647,-0.41674 1.27356,-0.75771 1.79746,-0.75771 0.5239,0 0.95255,-0.27277 0.95255,-0.60616 0,-0.3334 0.38643,-0.60617 0.85873,-0.60617 0.4723,0 0.97158,-0.33853 1.1095,-0.7523 0.35949,-1.07847 1.92147,0.60116 2.68265,2.88471 0.47794,1.43382 0.95454,1.80767 2.30448,1.80767 1.0652,0 1.95342,-0.44872 2.37415,-1.1994 1.03986,-1.85533 4.56053,-4.99681 6.50049,-5.80037 0.96185,-0.39842 1.74882,-1.10046 1.74882,-1.5601 0,-0.45964 0.40917,-0.83571 0.90925,-0.83571 0.61489,0 0.90925,-0.61528 0.90925,-1.90053 0,-1.8515 2.26752,-4.7673 3.70736,-4.7673 0.33774,0 1.25665,-0.76365 2.04202,-1.69701 0.78537,-0.93336 2.4044,-2.22288 3.59786,-2.8656 1.19346,-0.64272 2.16992,-1.37932 2.16992,-1.6369 0,-0.25758 0.55465,-0.46832 1.23254,-0.46832 0.6779,0 2.16899,-0.88652 3.31354,-1.97004 4.31628,-4.08616 5.46842,-4.69705 8.88546,-4.71127 2.2773,-0.009 3.68767,-0.36518 4.75346,-1.19886 0.83348,-0.65195 1.85638,-1.19143 2.27312,-1.19885 0.41674,-0.007 0.75771,-0.22744 0.75771,-0.48895 0,-0.81012 3.44021,-2.55536 5.03712,-2.55536 1.89138,0 6.51888,-2.41628 6.96533,-3.637 0.1829,-0.50009 0.69408,-1.127384 1.13596,-1.393994 0.44188,-0.26661 0.80342,-1.016741 0.80342,-1.666958 0,-1.720415 0.77067,-1.459109 2.7705,0.93937 2.04058,2.447352 3.52411,2.650952 6.62508,0.90925 2.35039,-1.320133 4.26051,-1.558902 4.84933,-0.606166 0.73363,1.187031 3.61161,0.625873 4.84933,-0.945535 0.66679,-0.846542 1.96247,-2.448191 2.87929,-3.559216 2.22983,-2.702138 2.16451,-4.603282 -0.20449,-5.951621 -1.02509,-0.583435 -2.52363,-1.060791 -3.33009,-1.060791 -1.15048,0 -1.46629,-0.318686 -1.46629,-1.47964 0,-0.813803 0.27277,-1.648227 0.60617,-1.854275 0.33339,-0.206049 0.60616,-1.040473 0.60616,-1.854276 0,-0.813802 -0.27277,-1.47964 -0.60616,-1.47964 -0.3334,0 -0.60617,-0.681937 -0.60617,-1.515416 0,-0.833479 0.27277,-1.515416 0.60617,-1.515416 0.33339,0 0.60616,-0.949517 0.60616,-2.110035 0,-1.794592 -0.2492,-2.17364 -1.66696,-2.535522 -0.91682,-0.234016 -2.14867,-0.392226 -2.73743,-0.35157 -1.18798,0.08202 -4.6881,3.322046 -4.6881,4.339721 0,0.356505 -0.57874,1.313787 -1.28608,2.127299 -1.10079,1.266021 -1.471,1.375846 -2.56972,0.762315 -0.70602,-0.394233 -1.76717,-1.239611 -2.35811,-1.878613 -1.17815,-1.273956 -4.78592,-1.60251 -5.16335,-0.470216 -0.47946,1.438349 -3.96526,4.660796 -4.22432,3.905161 -0.14288,-0.416739 -0.62348,-0.757708 -1.068,-0.757708 -0.44452,0 -0.9066,-0.295118 -1.02683,-0.655824 -0.12632,-0.378957 -1.80418,-0.64824 -3.97441,-0.637862 -2.06569,0.0099 -3.91557,-0.240545 -4.11084,-0.55651 -0.47492,-0.768419 -5.13283,-0.739656 -5.13283,0.0317 0,0.333391 -0.42288,0.606166 -0.93973,0.606166 -0.51684,0 -2.69538,1.773037 -4.8412,3.940082 -2.14581,2.167045 -4.14928,3.940082 -4.45215,3.940082 -0.30287,0 -1.19305,0.677227 -1.97817,1.504942 -1.87547,1.977224 -2.33675,1.910915 -2.33675,-0.335907 0,-1.023985 -0.38968,-2.251472 -0.86595,-2.72775 -0.95695,-0.956955 -2.77105,-1.172241 -2.77105,-0.328851 0,0.295403 -0.88652,0.961707 -1.97004,1.480677 -2.14235,1.026106 -4.01298,2.374184 -6.24226,4.498513 -0.78719,0.750131 -1.71643,1.363874 -2.06498,1.363874 -0.34854,0 -0.63371,0.272775 -0.63371,0.606167 0,0.333391 -0.40917,0.606166 -0.90925,0.606166 -1.14765,0 -1.13837,-0.282273 0.0865,-2.634224 1.90304,-3.653983 2.03492,-4.026418 2.01575,-5.692339 -0.0301,-2.61836 -1.29177,-3.796766 -4.06495,-3.796766 -1.42509,0 -2.74816,0.377145 -3.18977,0.90925 -0.41503,0.500087 -1.53028,0.909249 -2.47832,0.909249 -2.19803,0 -6.00801,-1.798586 -6.00801,-2.836216 0,-0.436246 -1.15929,-1.616937 -2.57621,-2.623755 -4.9286,-3.502109 -5.44283,-4.20334 -5.08094,-6.928568 0.64847,-4.883404 1.13287,-7.02596 1.66246,-7.353265 0.72443,-0.447721 0.69119,-5.551701 -0.0391,-6.003041 -1.14299,-0.706399 -3.52423,0.409945 -4.26407,1.999024 -0.41502,0.891411 -0.99554,2.094398 -1.29003,2.673311 -0.2945,0.578914 -0.53545,1.58572 -0.53545,2.237349 0,0.651635 -0.27277,1.353369 -0.60616,1.559417 -0.3334,0.206049 -0.60617,1.176861 -0.60617,2.157359 0,0.980498 -0.27277,1.782723 -0.60617,1.782723 -0.33339,0 -0.60616,0.772863 -0.60616,1.71747 0,0.944613 -0.20458,1.921208 -0.45463,2.170215 -1.42882,1.422903 -3.3624,15.915652 -3.40366,25.511388 -0.0392,9.115556 1.92059,23.420266 3.41312,24.912786 0.24484,0.24485 0.44517,1.49081 0.44517,2.76881 0,1.278 0.27277,2.32364 0.60616,2.32364 0.3334,0 0.60617,0.80223 0.60617,1.78272 0,0.9805 0.23754,1.92954 0.52787,2.10897 0.29033,0.17944 0.69432,1.15848 0.89775,2.17565 0.20344,1.01717 1.08228,2.50963 1.95299,3.31657 1.62814,1.50891 2.23429,1.43606 4.94635,-0.5945 z m 77.33841,-63.414239 c 0.18441,-0.705195 0.0142,-1.796295 -0.37819,-2.424665 -1.4335,-2.295377 -5.27121,-0.761582 -5.27121,2.106713 0,1.486035 0.18947,1.600134 2.65705,1.600134 2.19551,0 2.7153,-0.222718 2.99235,-1.282182 z m 98.00506,-1.74865 c 0,-0.333392 0.68194,-0.606167 1.51542,-0.606167 0.83348,0 1.51542,-0.272775 1.51542,-0.606166 0,-0.333392 0.51215,-0.606167 1.13811,-0.606167 0.62596,0 1.47768,-0.409162 1.89272,-0.909249 0.41504,-0.500088 1.10764,-0.90925 1.53912,-0.90925 0.43148,0 0.87544,-0.205775 0.98658,-0.45728 0.11112,-0.251504 2.11147,-1.401511 4.44521,-2.555573 2.33374,-1.154056 5.08724,-2.721318 6.11888,-3.482796 1.03165,-0.761485 2.32733,-1.384515 2.87929,-1.384515 0.55197,0 1.00358,-0.206187 1.00358,-0.458195 0,-0.252006 0.88652,-0.83622 1.97004,-1.298252 1.08352,-0.462033 2.83836,-1.483333 3.89964,-2.269555 1.06128,-0.786223 2.22057,-1.429496 2.57621,-1.429496 0.35563,0 0.64661,-0.221862 0.64661,-0.493028 0,-0.271165 0.95471,-0.867627 2.12158,-1.325471 1.16687,-0.457845 2.12158,-1.054307 2.12158,-1.325472 0,-0.271165 0.42107,-0.493028 0.9357,-0.493028 0.51465,0 1.67115,-0.681937 2.57002,-1.515416 0.89887,-0.833479 1.97806,-1.515416 2.39821,-1.515416 0.42015,0 0.7639,-0.226681 0.7639,-0.503736 0,-0.277055 0.75013,-0.890364 1.66696,-1.362909 0.91683,-0.472544 1.80335,-0.997545 1.97004,-1.166669 0.1667,-0.169125 1.39418,-1.110243 2.72775,-2.091376 1.33357,-0.981132 2.86582,-2.275261 3.40502,-2.875842 0.53919,-0.600581 1.17242,-1.091965 1.40717,-1.091965 0.23475,0 0.8165,-0.389678 1.29277,-0.865952 1.2744,-1.274393 1.05418,-4.007971 -0.45204,-5.611269 -1.2442,-1.324394 -1.75128,-1.402943 -9.05673,-1.402943 -4.50528,0 -7.89525,0.253273 -8.11335,0.606167 -0.20605,0.333391 -1.70631,0.606166 -3.33392,0.606166 -1.6276,0 -3.12786,0.272775 -3.33391,0.606167 -0.20605,0.333391 -1.53389,0.606166 -2.95075,0.606166 -1.41687,0 -3.10561,0.400487 -3.75277,0.889972 -0.64715,0.489484 -2.18345,0.898647 -3.41399,0.90925 -1.23055,0.0106 -2.40594,0.292052 -2.61199,0.625444 -0.20605,0.333392 -1.31325,0.606166 -2.46044,0.606166 -1.14719,0 -2.08581,0.272775 -2.08581,0.606167 0,0.333391 -0.82203,0.606166 -1.82672,0.606166 -1.0047,0 -2.30038,0.254926 -2.87929,0.566502 -0.57892,0.311576 -2.75741,1.045136 -4.84111,1.630135 -2.0837,0.584998 -3.78854,1.284784 -3.78854,1.55508 0,0.270297 -0.66584,0.491449 -1.47964,0.491449 -0.8138,0 -1.64823,0.272774 -1.85427,0.606166 -0.20605,0.333392 -1.02438,0.606166 -1.8185,0.606166 -0.79413,0 -1.61245,0.272775 -1.8185,0.606167 -0.20605,0.333391 -1.16076,0.606166 -2.12159,0.606166 -0.96082,0 -1.91553,0.272775 -2.12158,0.606167 -0.20605,0.333391 -0.78718,0.606166 -1.29141,0.606166 -2.28816,0 -3.56758,3.911262 -1.89096,5.780843 1.88717,2.104376 2.27312,2.71517 2.27312,3.597378 0,0.518683 0.24095,1.416714 0.53545,1.995625 1.15697,2.274353 1.89865,4.25355 3.12028,8.326564 2.13602,7.121619 2.02531,6.970914 5.12069,6.970914 1.50741,0 2.74074,-0.272775 2.74074,-0.606166 z M 202.95866,59.20254 c 0.1134,-0.584692 -0.19084,-1.010561 -0.72193,-1.010561 -1.12609,0 -1.80574,0.988141 -1.27278,1.850497 0.5483,0.887163 1.7586,0.377528 1.99471,-0.839936 z m -53.84171,-4.041393 c 0.48059,-0.666783 1.29094,-1.212666 1.80077,-1.213073 0.50984,-4.07e-4 1.67711,-0.645888 2.59393,-1.434402 2.20553,-1.896854 2.21213,-4.320103 0.0169,-6.2064 -1.40195,-1.204655 -2.29061,-1.41288 -5.91012,-1.38481 -3.45513,0.02679 -4.51778,0.272704 -5.62395,1.301443 -1.93066,1.795514 -1.90492,5.845376 0.0474,7.464055 3.57818,2.966625 5.68276,3.404848 7.07502,1.473187 z m 92.46171,0.233368 c 2.93947,-1.926018 1.20509,-6.164955 -2.92206,-7.141659 -1.01954,-0.241279 -1.91409,-0.993187 -2.25812,-1.898052 -0.43668,-1.148546 -1.00801,-1.498487 -2.44653,-1.498487 -1.03224,0 -2.26647,0.389679 -2.74275,0.865952 -0.98411,0.984114 -1.17971,3.98338 -0.25978,3.98338 0.33339,0 0.60616,0.27914 0.60616,0.620311 0,0.34117 1.1593,1.821664 2.57621,3.289985 2.84652,2.949797 4.90794,3.442136 7.44687,1.77857 z M 151.92674,40.920788 c 0.53544,-0.535439 0.82703,-1.710641 0.71441,-2.879291 -0.15866,-1.646426 -0.46733,-2.00647 -1.85725,-2.166398 -0.91682,-0.105492 -1.66695,0.09909 -1.66695,0.454625 0,0.355536 -0.34355,0.64643 -0.76344,0.64643 -1.33486,0 -2.37672,2.300094 -1.65375,3.65096 0.77683,1.451544 3.89397,1.626679 5.22698,0.293674 z"
       id="path1" />
    <path
       style="fill:#ffffff;stroke-width:0.606166"
       d="m 222.61463,167.41508 c -1.08352,-0.10448 -1.97004,-0.44545 -1.97004,-0.75771 0,-0.31227 0.27277,-0.56776 0.60616,-0.56776 0.3334,0 0.60617,-0.81833 0.60617,-1.8185 0,-1.00018 -0.27277,-1.8185 -0.60617,-1.8185 -0.33339,0 -0.60616,-0.40916 -0.60616,-0.90925 0,-0.73601 0.96948,-0.90925 5.08831,-0.90925 4.75678,0 5.2011,-0.1106 6.81937,-1.69741 2.58501,-2.53475 3.85265,-4.27217 3.85265,-5.28043 0,-1.00808 2.14389,-1.24085 2.72775,-0.29616 0.52628,0.85154 5.36469,0.75759 6.24351,-0.12123 0.40007,-0.40007 0.7274,-1.35478 0.7274,-2.12158 0,-1.14498 0.32504,-1.39419 1.8185,-1.39419 1.00017,0 1.8185,-0.27277 1.8185,-0.60616 0,-0.33339 0.55794,-0.60617 1.23988,-0.60617 1.29009,0 4.21562,-2.50486 4.21562,-3.60944 0,-0.34855 0.27277,-0.63372 0.60616,-0.63372 0.93013,0 0.7193,-4.21663 -0.25978,-5.19572 -0.98411,-0.98411 -3.98338,-1.17971 -3.98338,-0.25978 0,0.33339 -0.68194,0.60616 -1.51542,0.60616 -0.83348,0 -1.51541,0.27278 -1.51541,0.60617 0,0.33339 -0.36689,0.60617 -0.8153,0.60617 -1.09707,0 -2.8217,1.97425 -2.8217,3.2301 0,0.55718 -0.27278,1.01306 -0.60617,1.01306 -0.33339,0 -0.60617,0.50177 -0.60617,1.11504 0,1.21519 -2.46577,2.65207 -3.45053,2.01073 -0.33613,-0.21891 -0.93435,-1.01176 -1.32938,-1.76189 -1.3022,-2.47276 -3.85529,-1.81725 -7.67296,1.97004 -3.28258,3.25645 -4.67111,3.9541 -5.42904,2.72775 -0.20604,-0.3334 -1.66218,-0.60617 -3.23587,-0.60617 -2.16586,0 -3.0736,0.29464 -3.73504,1.21233 -0.48059,0.66679 -1.22275,1.21234 -1.64923,1.21234 -0.42649,0 -0.77544,0.27277 -0.77544,0.60616 0,0.33339 -0.37445,0.60617 -0.83211,0.60617 -0.45766,0 -1.61931,0.88652 -2.58143,1.97004 -0.96213,1.08352 -2.39809,2.33666 -3.19102,2.78475 -4.7982,2.71148 -5.61335,3.12537 -6.15542,3.12537 -0.32987,0 -1.68003,0.68194 -3.00034,1.51542 -1.32032,0.83348 -3.06521,1.51541 -3.87753,1.51541 -0.81232,0 -1.57333,0.28915 -1.69113,0.64255 -0.14112,0.42337 -0.77405,0.35208 -1.85554,-0.209 l -1.64135,-0.85154 1.80502,-2.02176 c 2.64785,-2.96579 2.68275,-7.26172 0.0774,-9.52958 -1.33764,-1.16437 -2.2146,-1.37909 -5.2433,-1.2838 -2.00035,0.0629 -4.04616,0.30859 -4.54625,0.54591 -0.50008,0.23732 -2.13673,1.07103 -3.63699,1.8527 -1.50027,0.78166 -4.09163,2.07887 -5.75859,2.88267 -1.66695,0.8038 -4.07951,1.97158 -5.36123,2.59507 -1.66441,0.80964 -3.67408,1.13362 -7.03201,1.13362 -2.58587,0 -5.58258,0.30711 -6.65935,0.68248 -1.44306,0.50305 -2.30348,0.50459 -3.27283,0.006 -0.72328,-0.37216 -3.63365,-0.74762 -6.46748,-0.83438 -3.9253,-0.12016 -4.71932,-0.27464 -3.33392,-0.64862 1.00018,-0.26998 2.29216,-0.74718 2.87107,-1.06043 0.57891,-0.31326 1.47399,-0.56956 1.98906,-0.56956 0.51508,0 1.09351,-0.40916 1.28542,-0.90925 0.21528,-0.56101 1.13662,-0.90925 2.40564,-0.90925 1.1312,0 2.05673,-0.27277 2.05673,-0.60616 0,-0.33339 0.81832,-0.60617 1.8185,-0.60617 1.00017,0 1.81849,-0.27277 1.81849,-0.60616 0,-0.3334 0.80223,-0.60617 1.78273,-0.60617 0.9805,0 1.95131,-0.27278 2.15736,-0.60617 0.20604,-0.33339 1.17685,-0.60616 2.15735,-0.60616 0.9805,0 1.78273,-0.27278 1.78273,-0.60617 0,-0.33339 0.66245,-0.60617 1.47212,-0.60617 0.80966,0 1.88128,-0.40916 2.38137,-0.90925 0.50008,-0.50008 1.59457,-0.90925 2.43218,-0.90925 0.83762,0 1.69153,-0.27277 1.89758,-0.60616 0.20604,-0.33339 1.17685,-0.60617 2.15735,-0.60617 0.9805,0 1.78273,-0.27277 1.78273,-0.60617 0,-0.33339 0.95471,-0.60616 2.12158,-0.60616 1.16687,0 2.12158,-0.27278 2.12158,-0.60617 0,-0.33339 0.66584,-0.60617 1.47964,-0.60617 0.81381,0 1.64823,-0.27277 1.85428,-0.60616 0.20605,-0.33339 0.91264,-0.60617 1.57021,-0.60617 0.65757,0 1.3526,-0.40916 1.5445,-0.90925 0.21528,-0.56101 1.13662,-0.90925 2.40564,-0.90925 1.1312,0 2.05673,-0.27277 2.05673,-0.60616 0,-0.3334 0.81832,-0.60617 1.8185,-0.60617 1.00017,0 1.8185,-0.27278 1.8185,-0.60617 0,-0.33339 0.68193,-0.60616 1.51541,-0.60616 0.83348,0 1.51542,-0.27278 1.51542,-0.60617 0,-0.33339 0.6675,-0.60617 1.48334,-0.60617 0.81584,0 2.76589,-0.68193 4.33345,-1.51541 1.56755,-0.83348 3.21864,-1.51542 3.66907,-1.51542 0.45043,0 0.81897,-0.27277 0.81897,-0.60616 0,-0.3334 0.66584,-0.60617 1.47964,-0.60617 0.8138,0 1.64823,-0.27278 1.85427,-0.60617 0.20605,-0.33339 0.90779,-0.60616 1.55942,-0.60616 0.65163,0 1.65844,-0.24985 2.23735,-0.55521 0.57891,-0.30537 2.06388,-0.9946 3.29994,-1.53164 1.23606,-0.53704 2.41145,-1.2419 2.61198,-1.56637 0.20054,-0.32447 0.89406,-0.58995 1.54117,-0.58995 0.64711,0 1.17656,-0.27277 1.17656,-0.60617 0,-0.33339 0.68193,-0.60616 1.51541,-0.60616 0.83348,0 1.51542,-0.27278 1.51542,-0.60617 0,-0.33339 0.41287,-0.60617 0.91747,-0.60617 0.50461,0 1.39113,-0.25662 1.97005,-0.57027 0.57891,-0.31365 2.21185,-1.04809 3.62877,-1.63207 1.41691,-0.58399 2.57621,-1.28208 2.57621,-1.55131 0,-0.26923 0.54555,-0.48951 1.21233,-0.48951 0.66678,0 1.21233,-0.27278 1.21233,-0.60617 0,-0.33339 0.33855,-0.60616 0.75234,-0.60616 1.00919,0 9.80171,-4.33842 10.05763,-4.96265 0.11113,-0.27107 0.70215,-0.49285 1.31336,-0.49285 0.61122,0 1.20223,-0.20458 1.31336,-0.45463 0.20537,-0.46208 4.05181,-2.42088 7.6276,-3.88436 1.08352,-0.44346 1.97004,-1.14886 1.97004,-1.56756 0,-0.41871 0.68193,-0.76128 1.51541,-0.76128 0.83348,0 1.51542,-0.27278 1.51542,-0.60617 0,-0.33339 0.38338,-0.60617 0.85197,-0.60617 0.83512,0 3.0972,-1.00755 7.93744,-3.5354 1.33357,-0.69646 3.44757,-1.75052 4.69779,-2.34236 1.25022,-0.59183 2.27313,-1.28448 2.27313,-1.53923 0,-0.25474 0.54555,-0.46317 1.21233,-0.46317 0.66678,0 1.21233,-0.27277 1.21233,-0.60617 0,-0.333387 0.54555,-0.606162 1.21234,-0.606162 0.66678,0 1.21233,-0.240961 1.21233,-0.535468 0,-0.294508 0.47735,-0.70004 1.06079,-0.901182 0.58344,-0.201142 2.23466,-1.067345 3.66937,-1.924896 l 2.60859,-1.559183 -0.30428,8.370491 c -0.39716,10.92548 -0.93828,16.71974 -1.62802,17.43267 -0.30642,0.31672 -0.55712,1.03553 -0.55712,1.59735 0,1.05226 -1.12477,4.99537 -3.10912,10.89973 -0.62373,1.85585 -1.13404,3.83347 -1.13404,4.39471 0,0.56124 -0.27278,1.02043 -0.60617,1.02043 -0.33339,0 -0.60617,0.41458 -0.60617,0.9213 0,0.50671 -0.63507,1.93878 -1.41127,3.18237 -0.77621,1.24359 -1.79751,3.1476 -2.26956,4.23112 -0.47205,1.08352 -1.06446,1.97004 -1.31647,1.97004 -0.25201,0 -0.4582,0.40916 -0.4582,0.90925 0,0.50009 -0.27277,0.90925 -0.60616,0.90925 -0.33339,0 -0.60617,0.54555 -0.60617,1.21233 0,0.66679 -0.25053,1.21234 -0.55673,1.21234 -0.3062,0 -1.15124,0.96194 -1.87787,2.13765 -0.72663,1.17572 -1.64656,2.4714 -2.04429,2.87929 -0.39772,0.40791 -1.12113,1.31749 -1.60758,2.02132 -0.48645,0.70382 -2.14056,2.65905 -3.67582,4.34497 l -2.79137,3.0653 -20.54603,0.20127 c -11.30032,0.1107 -21.43256,0.1158 -22.51608,0.0113 z m 39.6178,-13.29726 c 0.44289,-0.58343 0.81393,-2.06532 0.82453,-3.29307 0.0148,-1.7098 -0.26447,-2.32233 -1.19305,-2.61705 -1.98197,-0.62905 -3.637,0.21705 -3.637,1.85935 0,0.81101 -0.27278,1.47456 -0.60617,1.47456 -0.67423,0 -0.83662,2.59832 -0.20205,3.23289 0.8158,0.81581 4.02868,0.37751 4.81374,-0.65668 z"
       id="path2" />
    <path
       style="fill:#ffffff;stroke-width:0.606166"
       d="m 183.97152,194.57943 c -0.20605,-0.33339 -2.52464,-0.60617 -5.15242,-0.60617 -2.62778,0 -4.94636,-0.27277 -5.15241,-0.60616 -0.20605,-0.33339 -1.56992,-0.60617 -3.03083,-0.60617 -1.46091,0 -2.82479,-0.27277 -3.03084,-0.60616 -0.20604,-0.3334 -1.04047,-0.60617 -1.85427,-0.60617 -0.8138,0 -1.47964,-0.27278 -1.47964,-0.60617 0,-0.33339 -0.57166,-0.60616 -1.27035,-0.60616 -0.69869,0 -2.13076,-0.44812 -3.18237,-0.99581 -3.46807,-1.80621 -4.00934,-2.03503 -4.81379,-2.03503 -1.12163,0 -4.05874,-1.42362 -4.06442,-1.97004 -0.003,-0.25004 -0.55028,-0.45462 -1.21707,-0.45462 -0.66678,0 -1.21546,-0.20458 -1.21928,-0.45463 -0.004,-0.25004 -1.16312,-0.99941 -2.57621,-1.66527 -1.41309,-0.66586 -3.09805,-1.68876 -3.74434,-2.27312 -0.6463,-0.58437 -1.53282,-1.06248 -1.97005,-1.06248 -0.43722,0 -0.79495,-0.27278 -0.79495,-0.60617 0,-0.33339 -0.28428,-0.60616 -0.63175,-0.60616 -0.65036,0 -1.09303,-0.32812 -4.29878,-3.1864 -1.03077,-0.91904 -2.79805,-2.10942 -3.92729,-2.64528 -1.12925,-0.53586 -2.05317,-1.18309 -2.05317,-1.4383 0,-0.2552 -1.06856,-1.56507 -2.37457,-2.91083 -2.49474,-2.57066 -2.54945,-3.15486 -0.29545,-3.15486 0.7541,0 1.78025,-0.40916 2.28034,-0.90924 1.49549,-1.4955 2.9618,-1.04985 5.99445,1.82188 1.58236,1.4984 3.01379,2.72436 3.18096,2.72436 0.16718,0 1.31613,0.95472 2.55323,2.12159 1.2371,1.16687 2.47663,2.12158 2.7545,2.12158 0.27787,0 1.0908,0.54555 1.80651,1.21233 0.71571,0.66678 1.65902,1.21233 2.09624,1.21233 0.43722,0 0.79495,0.27278 0.79495,0.60617 0,0.33339 0.54555,0.60617 1.21233,0.60617 0.66678,0 1.21233,0.25279 1.21233,0.56177 0,0.64678 3.42407,2.46906 4.63938,2.46906 0.44887,0 0.81825,0.20458 0.82085,0.45462 0.006,0.61506 3.00469,1.97005 4.35929,1.97005 0.60031,0 1.09148,0.27277 1.09148,0.60616 0,0.33339 0.68194,0.60617 1.51542,0.60617 0.83347,0 1.51541,0.22225 1.51541,0.4939 0,0.73857 4.07131,2.53693 5.74337,2.53693 0.8025,0 1.62767,0.27278 1.83371,0.60617 0.20605,0.33339 1.16076,0.60616 2.12159,0.60616 0.96082,0 1.91553,0.27278 2.12158,0.60617 0.20605,0.33339 1.58602,0.60617 3.0666,0.60617 1.48059,0 2.69198,0.27277 2.69198,0.60616 0,0.33339 1.36387,0.60617 3.03083,0.60617 h 3.03083 v 2.72775 c 0,2.4879 -0.1301,2.72775 -1.47964,2.72775 -0.8138,0 -1.64822,-0.27278 -1.85427,-0.60617 z"
       id="path3" />
    <path
       style="fill:#ffffff;stroke-width:0.606166"
       d="m 193.41189,231.91263 c -0.48525,-0.58468 -0.50873,-0.97957 -0.0742,-1.2481 0.42813,-0.2646 0.6356,-9.29932 0.6356,-27.67784 0,-22.83879 0.14112,-27.42613 0.86596,-28.15097 0.7161,-0.7161 4.38749,-0.86595 21.21582,-0.86595 h 20.34988 v 3.33392 3.33391 h -5.53594 c -7.49404,0 -7.79973,0.34886 -7.79973,8.90119 0,5.03284 0.18185,6.3608 0.90925,6.63993 0.50009,0.19191 0.90925,0.7289 0.90925,1.19331 0,0.66179 1.23068,0.8444 5.69077,0.8444 h 5.69077 l -0.2083,2.87929 c -0.11457,1.58361 -0.22044,3.08387 -0.23528,3.33392 -0.0148,0.25004 -2.41374,0.4588 -5.33092,0.4639 -2.91717,0.005 -5.71312,0.26732 -6.2132,0.5827 -0.71053,0.44808 -0.98417,2.46638 -1.25203,9.23475 -0.20252,5.11737 -0.1007,9.21941 0.24884,10.02522 0.56577,1.30428 0.90522,1.36388 7.76832,1.36388 h 7.1767 v 1.47964 c 0,0.8138 -0.29655,1.66291 -0.65899,1.88691 -0.47453,0.29328 -0.47453,0.59173 0,1.06626 2.13626,2.13626 1.19104,2.23502 -21.39187,2.23502 -18.24289,0 -22.17343,-0.1477 -22.76067,-0.85529 z"
       id="path4" />
    <path
       style="fill:#ffffff;stroke-width:0.606166"
       d="m 242.46658,231.85867 c -0.59673,-0.71902 -0.59896,-1.09679 -0.0107,-1.80564 0.586,-0.70608 0.5877,-1.54765 0.008,-3.9641 -0.55365,-2.30791 -0.57424,-4.22531 -0.0831,-7.74149 0.35905,-2.57057 0.66784,-13.39031 0.68621,-24.04386 0.0252,-14.61287 0.21609,-19.48616 0.77728,-19.84267 0.40913,-0.25992 7.0859,-0.47675 14.83725,-0.48186 l 14.09337,-0.009 V 199.691 c 0,23.9657 0.0724,25.7439 1.06079,26.05352 2.28611,0.71612 6.05618,1.18454 9.0925,1.12969 l 3.18238,-0.0575 v 2.9756 2.97559 h -21.44469 c -18.32245,0 -21.55456,-0.13238 -22.1993,-0.90925 z"
       id="path5" />
    <path
       style="fill:#ffffff;stroke-width:0.606166"
       d="m 291.80159,231.9012 c -0.3308,-0.86205 -0.0567,-21.4809 0.51619,-38.83719 0.16509,-5.00087 0.33626,-11.34647 0.38038,-14.10132 l 0.0802,-5.00883 20.7612,0.1595 20.7612,0.15949 0.34261,2.56699 c 0.18964,1.4209 0.0679,2.84175 -0.27278,3.18238 -0.33846,0.33846 -3.14699,0.61538 -6.24118,0.61538 h -5.6258 l -0.42933,1.66696 c -0.23613,0.91683 -0.44591,4.45121 -0.46617,7.85418 -0.0482,8.08616 0.20632,8.37764 7.2603,8.31583 l 5.12927,-0.0449 v 3.22731 3.22732 h -5.73726 c -4.84854,0 -5.82321,0.16432 -6.29217,1.06079 -0.70708,1.35167 -1.2537,18.33654 -0.59012,18.33654 0.27292,0 0.49622,0.40916 0.49622,0.90925 0,0.75311 1.14498,0.90925 6.66783,0.90925 h 6.66783 v 3.33391 3.33392 h -21.53794 c -18.11591,0 -21.59077,-0.13771 -21.87052,-0.86672 z"
       id="path6" />
    <path
       style="fill:#ffffff;stroke-width:0.606166"
       d="m 326.72372,162.45261 c -0.50009,-0.32318 -2.05245,-0.59178 -3.44969,-0.59689 -1.39723,-0.005 -2.70901,-0.28205 -2.91506,-0.61544 -0.20605,-0.3334 -1.17686,-0.60617 -2.15736,-0.60617 -0.9805,0 -1.78272,-0.27278 -1.78272,-0.60617 0,-0.33339 -0.54555,-0.60616 -1.21234,-0.60616 -0.66678,0 -1.21233,-0.27278 -1.21233,-0.60617 0,-0.33339 -0.54555,-0.60617 -1.21233,-0.60617 -0.66678,0 -1.21233,-0.27277 -1.21233,-0.60616 0,-0.33339 -0.40917,-0.60617 -0.90925,-0.60617 -0.50009,0 -0.90925,-0.23688 -0.90925,-0.52641 0,-0.68614 -5.45528,-6.14142 -6.14143,-6.14142 -0.28952,0 -0.5264,-0.52945 -0.5264,-1.17656 0,-0.64711 -0.27278,-1.34514 -0.60617,-1.55119 -0.33339,-0.20605 -0.60617,-0.90408 -0.60617,-1.55119 0,-0.64711 -0.24412,-1.17656 -0.54249,-1.17656 -1.27027,0 -2.50574,-19.01622 -1.31297,-20.209 0.35372,-0.35372 0.64313,-1.67967 0.64313,-2.94656 0,-1.26688 0.27278,-2.30343 0.60617,-2.30343 0.33339,0 0.60616,-0.68194 0.60616,-1.51542 0,-0.83347 0.27278,-1.51541 0.60617,-1.51541 0.33339,0 0.60617,-0.28442 0.60617,-0.63205 0,-1.15763 4.64055,-6.93237 6.27219,-7.80517 0.88438,-0.47308 1.60797,-1.08682 1.60797,-1.36387 0,-0.27706 0.40916,-0.50374 0.90925,-0.50374 0.50009,0 0.90925,-0.27278 0.90925,-0.60617 0,-0.33339 0.51215,-0.60616 1.13811,-0.60616 0.62596,0 1.47769,-0.40917 1.89272,-0.90925 0.41504,-0.50009 1.38705,-0.90925 2.16003,-0.90925 0.77298,0 1.55222,-0.23753 1.73164,-0.52783 1.18424,-1.91615 20.07334,-1.77421 22.01318,0.16541 0.25486,0.25484 0.47097,1.66812 0.48024,3.14063 0.0149,2.36623 -0.13941,2.67728 -1.3281,2.67728 -0.73972,0 -1.51353,-0.27277 -1.71958,-0.60616 -0.48573,-0.78593 -3.15127,-0.78593 -3.637,0 -0.20605,0.33339 -0.89168,0.60616 -1.52364,0.60616 -1.55897,0 -5.44727,4.06672 -5.44727,5.69723 0,0.49448 -0.27278,1.06764 -0.60617,1.27369 -0.89369,0.55233 -0.79774,29.52826 0.10779,32.55065 0.79877,2.66603 4.67948,7.15325 6.1864,7.15325 0.53889,0 0.97981,0.27278 0.97981,0.60617 0,0.34562 1.80024,0.60616 4.18839,0.60616 h 4.1884 l -0.0417,2.75805 c -0.0301,1.99191 -0.3406,2.91802 -1.11771,3.33392 -1.40974,0.75447 -14.52853,0.72916 -15.70371,-0.0303 z"
       id="path7" />
    <path
       style="fill:#ffffff;stroke-width:0.606166"
       d="M 349.75804,132.47007 V 103.0483 l 10.75946,-0.13745 c 5.9177,-0.0756 12.25971,-0.11453 14.09337,-0.0865 1.83365,0.028 6.2916,-0.17705 9.90655,-0.45567 7.59155,-0.58512 8.14151,-0.34088 7.67255,3.4074 l -0.30336,2.42466 -5.42393,0.17689 c -2.98316,0.0973 -5.77911,0.47166 -6.21321,0.83193 -1.06982,0.88788 -1.12474,16.29516 -0.0619,17.35803 0.45554,0.45554 2.72101,0.72739 6.06166,0.72739 h 5.33427 v 3.33392 3.33392 h -5.10284 c -2.80656,0 -5.53431,0.16557 -6.06166,0.36793 -0.81797,0.31388 -0.95883,1.76547 -0.95883,9.88052 0,6.59044 0.22345,9.73602 0.7274,10.23997 0.47595,0.47595 2.99042,0.7274 7.274,0.7274 h 6.54659 v 2.7162 c 0,3.04437 -0.59582,3.4156 -5.15241,3.21031 -1.33357,-0.0601 -10.67611,0.0924 -20.7612,0.33874 l -18.33654,0.44798 z"
       id="path8" />
    <path
       style="fill:#ffffff;stroke-width:0.606166"
       d="m 400.11454,160.99103 c -0.46408,-0.55918 -0.61559,-9.41114 -0.50529,-29.52223 l 0.15753,-28.72359 4.54624,-0.0558 c 2.50044,-0.0307 6.46619,-0.25716 8.81278,-0.50327 l 4.26653,-0.44746 4.52288,4.54417 c 2.48759,2.49929 5.21643,5.31713 6.06409,6.26185 0.84766,0.94473 2.27973,2.25979 3.18237,2.92235 0.90265,0.66257 1.64118,1.43973 1.64118,1.72702 0,0.2873 1.18544,1.65462 2.63431,3.0385 1.44887,1.38388 3.1169,3.26628 3.70672,4.1831 1.15506,1.79547 4.08252,2.33069 4.9732,0.90925 0.26113,-0.41674 0.48181,-5.80404 0.4904,-11.97178 l 0.0156,-11.21408 3.43459,-0.18028 3.43459,-0.18027 0.33958,4.42344 c 0.18677,2.43289 0.33675,5.03718 0.33329,5.78731 -0.003,0.75013 0.002,2.52317 0.0113,3.94008 0.0226,3.32638 0.0354,16.15307 0.0176,17.73037 -0.008,0.66679 0.15818,3.34989 0.36822,5.96246 0.25444,3.16505 0.15661,4.97539 -0.29319,5.42519 -0.4228,0.4228 -0.67506,3.46127 -0.67506,8.13091 v 7.45585 h -8.49185 -8.49185 l -1.90288,-1.8185 c -1.04659,-1.00017 -2.13521,-1.8185 -2.41915,-1.8185 -0.28395,0 -0.51627,-0.2998 -0.51627,-0.66623 0,-0.75823 -5.38008,-6.0016 -6.15809,-6.0016 -0.28035,0 -0.50974,-0.2998 -0.50974,-0.66623 0,-0.75823 -5.38009,-6.0016 -6.15809,-6.0016 -0.28035,0 -0.50974,-0.28582 -0.50974,-0.63515 0,-0.34934 -1.28563,-1.8496 -2.85695,-3.33392 -1.97454,-1.86521 -3.37871,-2.69876 -4.54625,-2.69876 h -1.68929 v 12.11178 c 0,12.08628 -0.003,12.11228 -1.36388,12.34792 -2.85363,0.49409 -5.22696,0.30703 -5.86544,-0.46229 z"
       id="path9" />
    <path
       style="fill:#ffffff;stroke-width:0.606166"
       d="m 466.142,135.29635 c 0,-18.89892 -0.18485,-25.5226 -0.7274,-26.06516 -0.42313,-0.42312 -2.4516,-0.7274 -4.84933,-0.7274 h -4.12193 v -3.33391 -3.33392 H 480.69 504.93665 v 2.6629 c 0,2.9552 -0.73436,3.58529 -3.52752,3.02666 -1.08461,-0.21693 -2.44761,0.081 -3.78191,0.82675 l -2.08615,1.16591 -0.12944,24.80026 c -0.0712,13.64014 -0.13938,25.14122 -0.15154,25.55796 -0.017,0.58451 -3.3476,0.75771 -14.57009,0.75771 h -14.548 z"
       id="path10" />
    <path
       style="fill:#ffffff;stroke-width:0.606166"
       d="m 533.72956,161.26881 c -1.00017,-0.27019 -3.64363,-0.52354 -5.87435,-0.56298 -2.23072,-0.0394 -4.22443,-0.3445 -4.43048,-0.67789 -0.20605,-0.33339 -1.01469,-0.60616 -1.79699,-0.60616 -1.66162,0 -6.38626,-2.38496 -6.38626,-3.22373 0,-0.31579 -0.47735,-1.01823 -1.06079,-1.56098 -2.62083,-2.43809 -2.80805,-3.51485 -3.0151,-17.34037 -0.16465,-10.99451 -0.3673,-20.32102 -0.72994,-33.59344 -0.022,-0.80663 0.0274,-1.52314 0.10976,-1.59224 0.0824,-0.0691 6.59795,-0.26515 14.479,-0.43568 l 14.32918,-0.31006 0.37155,10.69171 c 0.20436,5.88045 0.53903,17.02815 0.74371,24.77269 0.37047,14.0178 0.379,14.08782 1.89996,15.60878 1.17847,1.17847 2.14904,1.52782 4.24462,1.52782 2.2993,0 2.9878,-0.30275 4.48015,-1.97004 l 1.76334,-1.97004 -0.0644,-22.73125 c -0.0354,-12.50218 -0.0428,-23.61776 -0.0165,-24.70128 l 0.0478,-1.97004 h 3.33392 c 2.2484,0 3.34284,0.24671 3.36134,0.75771 0.10386,2.86976 0.59867,20.8273 0.92843,33.69491 0.28065,10.95097 0.19997,15.552 -0.28113,16.0331 -0.3711,0.3711 -0.67472,1.16572 -0.67472,1.76583 0,0.6001 -0.27278,1.0911 -0.60617,1.0911 -0.33339,0 -0.60617,0.28517 -0.60617,0.63372 0,0.82283 -2.78661,3.60944 -3.60944,3.60944 -0.34855,0 -0.63372,0.27278 -0.63372,0.60617 0,0.33339 -0.81833,0.60617 -1.8185,0.60617 -1.00018,0 -1.8185,0.23515 -1.8185,0.52255 0,0.28741 -2.11401,0.70522 -4.69779,0.92846 -2.58379,0.22325 -5.92528,0.51421 -7.42554,0.6466 -1.50026,0.13238 -3.54607,0.0196 -4.54625,-0.25058 z"
       id="path11" />
    <path
       style="fill:#ffffff;stroke-width:0.606166"
       d="m 567.11789,138.96366 c -0.16521,-11.25197 -0.31696,-21.54922 -0.33722,-22.88278 -0.0203,-1.33357 0.12596,-4.38003 0.32494,-6.76991 0.23223,-2.78912 0.11253,-4.81099 -0.33424,-5.64579 -1.5885,-2.96813 -1.03902,-3.04155 22.76395,-3.04155 14.02286,0 22.15109,0.22006 22.38971,0.60617 0.20605,0.33339 1.04047,0.60616 1.85428,0.60616 0.8138,0 1.47964,0.27278 1.47964,0.60617 0,0.33339 0.68194,0.60617 1.51541,0.60617 0.94293,0 1.51542,0.34349 1.51542,0.90925 0,0.50008 0.36871,0.90925 0.81935,0.90925 0.45064,0 1.60993,0.80051 2.57621,1.77891 2.67448,2.70806 3.27227,3.54114 3.27227,4.56025 0,0.51416 0.27278,0.93483 0.60617,0.93483 0.33339,0 0.60616,0.68194 0.60616,1.51542 0,0.83348 0.27278,1.51542 0.60617,1.51542 0.78028,0 0.81657,15.38581 0.0397,16.82934 -0.31156,0.57891 -0.9237,1.93908 -1.36031,3.02261 -0.43661,1.08352 -1.00912,1.97004 -1.27224,1.97004 -0.26312,0 -1.42402,0.94562 -2.57978,2.10138 -2.4814,2.48139 -2.82669,5.37782 -0.88904,7.45764 0.66678,0.7157 1.21233,1.54563 1.21233,1.84428 0,0.29865 0.68194,1.27882 1.51542,2.17816 0.83347,0.89934 1.51541,1.97005 1.51541,2.37936 0,0.40931 0.54555,1.13742 1.21233,1.61801 0.66679,0.48059 1.21234,1.35913 1.21234,1.95231 0,0.59319 0.24359,1.07852 0.54131,1.07852 0.29773,0 0.69832,0.40916 0.89023,0.90925 0.303,0.7896 -1.25136,0.90925 -11.81215,0.90925 -11.65126,0 -12.17434,-0.0508 -12.47808,-1.21234 -0.17437,-0.66678 -0.55799,-1.21233 -0.8525,-1.21233 -0.29451,0 -0.53547,-0.40916 -0.53547,-0.90925 0,-0.50009 -0.20619,-0.90925 -0.45819,-0.90925 -0.25201,0 -0.82042,-0.81832 -1.26314,-1.8185 -0.66777,-1.50859 -1.15785,-1.8185 -2.87573,-1.8185 h -2.07077 v 3.94008 3.94009 h -14.52476 -14.52477 z m 36.88382,-0.37466 2.16474,-2.04161 -0.0202,-13.26409 c -0.0218,-14.3155 -0.0591,-14.49181 -3.48479,-16.44646 -1.58926,-0.90683 -4.37521,-1.00332 -4.37521,-0.15154 0,0.33339 -0.40916,0.60616 -0.90925,0.60616 -0.78461,0 -0.90925,2.13277 -0.90925,15.55794 0,14.00321 0.10601,15.66542 1.06079,16.63355 1.69691,1.72062 4.04466,1.3964 6.47313,-0.89395 z"
       id="path12" />
    <path
       style="fill:#ffffff;stroke-width:0.606166"
       d="m 642.3849,160.19673 -1.66696,-0.24931 v -13.00054 c 0,-7.1503 -0.23383,-13.4742 -0.51961,-14.05311 -0.28579,-0.57891 -1.01583,-2.00728 -1.62232,-3.17415 -0.60649,-1.16687 -1.32738,-2.59894 -1.60197,-3.18237 -0.2746,-0.58344 -0.77204,-1.60264 -1.10543,-2.2649 -0.33339,-0.66226 -0.60617,-1.75336 -0.60617,-2.42467 0,-0.67131 -0.27277,-1.22056 -0.60616,-1.22056 -0.3334,0 -0.60617,-0.52945 -0.60617,-1.17655 0,-0.64711 -0.27278,-1.34515 -0.60617,-1.5512 -0.33339,-0.20604 -0.60616,-0.9095 -0.60616,-1.56323 0,-0.65373 -0.68194,-2.26886 -1.51542,-3.58918 -0.83348,-1.32032 -1.51542,-3.08793 -1.51542,-3.92804 0,-0.8401 -0.27277,-1.52746 -0.60616,-1.52746 -0.33339,0 -0.60617,-0.54925 -0.60617,-1.22056 0,-0.6713 -0.33064,-1.75 -0.73476,-2.39709 -0.40412,-0.6471 -0.59941,-1.31189 -0.43399,-1.47732 0.40947,-0.40947 19.06025,-1.56655 25.30716,-1.57004 5.3795,-0.003 6.77608,0.61216 6.77608,2.98472 0,0.69059 0.27277,1.25563 0.60617,1.25563 0.33339,0 0.60616,0.66584 0.60616,1.47964 0,0.8138 0.27278,1.64822 0.60617,1.85427 0.33339,0.20605 0.60617,0.90408 0.60617,1.55119 0,0.64711 0.27277,1.17656 0.60616,1.17656 0.33339,0 0.60617,0.68194 0.60617,1.51542 0,0.94292 0.34349,1.51541 0.90925,1.51541 0.60616,0 0.90925,0.60617 0.90925,1.8185 0,1.59233 0.21343,1.8185 1.71607,1.8185 1.27904,0 1.91454,-0.42452 2.49539,-1.66696 0.42862,-0.91682 1.02026,-2.14061 1.31476,-2.71952 0.29449,-0.57891 0.53544,-1.57263 0.53544,-2.20827 0,-0.63564 0.40916,-1.31272 0.90925,-1.50462 0.50009,-0.1919 0.90925,-1.03941 0.90925,-1.88335 0,-0.84394 0.27278,-1.53444 0.60617,-1.53444 0.33339,0 0.60616,-0.68194 0.60616,-1.51542 0,-0.83348 0.24097,-1.51541 0.53547,-1.51541 0.29451,0 0.67814,-0.54555 0.8525,-1.21234 0.2519,-0.96326 0.82682,-1.21233 2.79845,-1.21233 2.34195,0 2.48142,0.1002 2.48142,1.78273 0,0.9805 -0.27278,1.95131 -0.60617,2.15735 -0.33339,0.20605 -0.60617,1.16076 -0.60617,2.12159 0,0.96082 -0.27277,1.91553 -0.60616,2.12158 -0.3334,0.20605 -0.60617,1.14346 -0.60617,2.08313 0,0.93968 -0.40916,2.04808 -0.90925,2.46312 -0.50009,0.41503 -0.90925,1.27046 -0.90925,1.90094 0,0.63049 -0.31536,1.75638 -0.70081,2.50199 -1.50853,2.91812 -1.72386,3.50287 -1.72386,4.68134 0,0.67131 -0.27277,1.22056 -0.60616,1.22056 -0.33339,0 -0.60617,0.54925 -0.60617,1.22055 0,1.13474 -0.35355,2.01563 -2.06468,5.14419 -0.40107,0.7333 -0.78283,6.96073 -0.96615,15.76033 l -0.30308,14.548 -12.7295,0.0575 c -7.00122,0.0316 -13.47963,-0.0547 -14.39645,-0.1918 z"
       id="path13" />
    <path
       style="fill:#ffffff;stroke-width:0.606166"
       d="m 640.71794,202.79845 c 0,-18.98686 0.21111,-28.88761 0.62138,-29.14116 0.45648,-0.28212 18.37909,-0.4752 28.01998,-0.30186 0.25005,0.004 0.45463,13.10137 0.45463,29.10416 v 29.09599 h -14.548 -14.54799 z"
       id="path14" />
    <path
       style="fill:#ffffff;stroke-width:0.606166"
       d="m 582.6775,231.81969 c -1.10381,-1.19326 -1.10381,-57.59879 0,-57.98603 0.41674,-0.1462 4.36085,-0.33239 8.76469,-0.41376 l 8.00698,-0.14794 3.9184,3.83436 c 12.93052,12.65319 18.55921,18.35271 18.55921,18.79276 0,0.99477 3.94358,0.51206 4.59084,-0.56194 0.37079,-0.61527 0.6782,-5.38875 0.73192,-11.36562 l 0.0926,-10.30483 1.92242,-0.1962 c 1.05734,-0.10792 2.56662,-0.0345 3.35397,0.16309 l 1.43154,0.35929 v 28.78136 28.78135 h -8.45662 -8.45661 l -7.6068,-7.60679 c -4.18374,-4.18374 -7.60679,-7.74221 -7.60679,-7.90772 0,-0.49836 -2.93848,-3.27665 -3.46558,-3.27665 -0.26941,0 -1.01493,-0.69921 -1.65671,-1.55381 -3.38225,-4.50385 -5.38958,-5.41107 -7.30054,-3.29948 -0.97061,1.07251 -1.04893,1.55989 -0.48904,3.04321 0.46546,1.23313 0.49063,3.22223 0.0834,6.59057 -0.38282,3.16655 -0.37252,6.34498 0.03,9.24936 0.6656,4.80303 0.3207,5.60589 -2.14263,4.98763 -0.72185,-0.18117 -1.81521,-0.0625 -2.4297,0.26375 -0.79455,0.42183 -1.3361,0.35656 -1.87496,-0.22596 z"
       id="path15" />
    <path
       style="fill:#ffffff;stroke-width:0.606166"
       d="m 534.35556,232.19385 c -0.21695,-0.35105 -1.20039,-0.63827 -2.18541,-0.63827 -0.98503,0 -2.26461,-0.25956 -2.84352,-0.5768 -0.57891,-0.31724 -2.14367,-1.05844 -3.47723,-1.64712 -1.33357,-0.58868 -2.95346,-1.5566 -3.59976,-2.15095 -0.6463,-0.59434 -1.53282,-1.08062 -1.97004,-1.08062 -0.43722,0 -0.79495,-0.27278 -0.79495,-0.60617 0,-0.33339 -0.29226,-0.60617 -0.64947,-0.60617 -0.7271,0 -2.38136,-1.4996 -2.38136,-2.15872 0,-0.23475 -0.48483,-0.86798 -1.0774,-1.40717 -1.45001,-1.3194 -5.59043,-9.77536 -5.59043,-11.41731 0,-0.72146 -0.27278,-1.48033 -0.60617,-1.68637 -0.34149,-0.21105 -0.60617,-3.13816 -0.60617,-6.70361 0,-3.8152 0.24076,-6.32897 0.60617,-6.32897 0.33339,0 0.60617,-0.64758 0.60617,-1.43907 0,-1.4459 2.85039,-7.17479 3.75768,-7.5524 0.26701,-0.11113 0.49657,-0.52029 0.51012,-0.90925 0.0356,-1.02243 2.96531,-4.18814 5.43086,-5.86837 1.16687,-0.7952 2.33972,-1.80048 2.60633,-2.23395 0.26661,-0.43347 1.01674,-0.78812 1.66695,-0.78812 0.65022,0 1.18222,-0.27278 1.18222,-0.60617 0,-0.33339 0.62738,-0.60617 1.39418,-0.60617 0.7668,0 1.65332,-0.22885 1.97004,-0.50857 1.51555,-1.33848 7.62356,-1.99646 16.0331,-1.72715 9.16376,0.29346 13.11591,0.78359 13.68014,1.69653 0.18328,0.29656 0.86269,0.53919 1.5098,0.53919 0.64711,0 1.17656,0.27278 1.17656,0.60617 0,0.33339 0.51636,0.60617 1.14748,0.60617 0.63111,0 1.30449,0.40916 1.49639,0.90925 0.1919,0.50008 0.73374,0.90925 1.20409,0.90925 0.91022,0 4.74594,3.58057 6.75995,6.31027 2.12574,2.88115 3.90539,6.67066 3.92301,8.35349 0.009,0.89715 0.28985,1.79977 0.62324,2.00581 0.34908,0.21575 0.60617,3.42932 0.60617,7.57708 0,4.14777 -0.25709,7.36134 -0.60617,7.57709 -0.33339,0.20604 -0.60617,1.17685 -0.60617,2.15735 0,0.9805 -0.27277,1.78273 -0.60616,1.78273 -0.3334,0 -0.60617,0.68193 -0.60617,1.51541 0,0.83348 -0.22668,1.51542 -0.50374,1.51542 -0.27705,0 -0.88365,0.70987 -1.34798,1.57749 -2.6684,4.98594 -12.91255,12.0914 -19.12103,13.26256 -4.14821,0.78252 -18.28006,1.04399 -18.71132,0.34621 z m 9.98191,-5.4876 c 0,-0.33339 0.29226,-0.60616 0.64947,-0.60616 1.7766,0 2.22771,-1.78754 2.60727,-10.33139 1.07987,-24.30773 1.1558,-32.16535 0.32671,-33.81024 -1.44678,-2.87035 -2.74996,-3.74552 -5.57725,-3.74552 -2.2986,0 -2.75418,0.22141 -3.42999,1.66695 -0.42862,0.91683 -1.02027,2.14062 -1.31476,2.71953 -0.81984,1.61163 -0.67264,15.23734 0.17375,16.08374 0.54149,0.54148 0.51575,1.29535 -0.10883,3.18785 -0.65523,1.98537 -0.67158,2.88366 -0.0821,4.51373 0.45553,1.25976 0.69701,4.95062 0.63383,9.68789 l -0.10207,7.6528 2.00885,1.7935 c 1.96736,1.75645 4.21515,2.38961 4.21515,1.18732 z"
       id="path16" />
    <path
       style="fill:#ffffff;stroke-width:0.606166"
       d="m 531.91106,231.31771 c -5.53956,-1.42786 -13.37987,-6.26624 -15.98772,-9.86627 -4.66891,-6.44525 -6.79404,-12.68152 -6.78167,-19.90109 0.0144,-8.42317 3.23016,-15.31929 9.89122,-21.21169 6.73648,-5.95913 9.37358,-6.67775 24.39533,-6.64782 11.8003,0.0235 12.21569,0.0668 15.58956,1.6251 3.84041,1.77377 3.81201,1.75443 7.96499,5.4214 6.54013,5.77476 8.86335,11.50013 8.87073,21.86107 0.007,9.76591 -1.33839,13.35077 -7.25112,19.32167 -3.58256,3.61781 -5.71711,5.1771 -9.92234,7.24826 l -5.35784,2.63884 -9.19015,0.14587 c -5.98896,0.0951 -10.24588,-0.12624 -12.22099,-0.63534 z m 13.18665,-4.763 c 0.88445,-0.41674 1.77727,-1.43087 1.98403,-2.25362 0.60034,-2.38883 1.4675,-21.23607 1.48387,-32.25136 0.0149,-9.99875 -0.002,-10.12671 -1.55427,-11.97179 -1.35846,-1.61443 -1.96762,-1.865 -4.53393,-1.865 -2.86538,0 -3.00751,0.084 -4.24545,2.51061 -1.25353,2.45713 -1.27241,2.94464 -0.88593,22.88279 l 0.39489,20.37216 1.9344,1.65066 c 2.17592,1.85674 3.10834,2.01589 5.42239,0.92555 z"
       id="path17" />
    <path
       style="fill:#ffffff;stroke-width:0.606166"
       d="m 442.17707,204.12635 c -0.0164,-22.02602 0.15262,-28.8202 0.73188,-29.41634 0.58985,-0.60703 4.67044,-0.71881 18.81251,-0.51532 18.28876,0.26315 24.25956,0.65238 25.30298,1.64946 0.31672,0.30266 1.47601,0.55029 2.5762,0.55029 1.37398,0 2.00035,0.28471 2.00035,0.90925 0,0.50008 0.48533,0.90925 1.07852,0.90925 0.59318,0 1.47172,0.54555 1.95231,1.21233 0.48059,0.66678 1.09876,1.21233 1.37371,1.21233 1.7029,0 5.51609,6.37319 6.16555,10.30483 1.00104,6.05994 1.05436,7.65732 0.36088,10.81045 -1.06783,4.85516 -2.90623,8.33982 -5.91036,11.20294 -2.40385,2.29101 -3.41495,4.65794 -1.98978,4.65794 0.3334,0 0.60617,0.36933 0.60617,0.82073 0,0.45141 0.65008,1.52218 1.44462,2.37951 0.79454,0.85732 1.81584,2.39741 2.26955,3.42243 0.45372,1.02501 1.03113,1.86366 1.28313,1.86366 0.25201,0 0.4582,0.29182 0.4582,0.64849 0,0.35667 0.83143,1.85693 1.84762,3.33391 l 1.84762,2.68543 h -12.01062 -12.01062 l -1.96033,-2.99444 c -1.07818,-1.64694 -1.96033,-3.21797 -1.96033,-3.49118 0,-0.91956 -2.49001,-2.06167 -3.67491,-1.6856 -1.00144,0.31785 -1.17442,0.94708 -1.17442,4.27198 v 3.89924 l -14.69954,-2.1e-4 -14.69953,-2e-4 z m 37.04187,7.50756 c 2.3926,-1.78461 2.68339,-3.47384 2.68339,-15.58798 v -11.62748 l -1.93357,-1.89042 c -1.493,-1.45968 -2.4697,-1.89043 -4.28647,-1.89043 -4.12909,0 -4.12599,-0.0129 -3.9441,16.46806 l 0.16239,14.71444 1.50689,0.7509 c 1.68062,0.83748 3.91547,0.47711 5.81147,-0.93709 z"
       id="path18" />
    <path
       style="fill:#ffffff;stroke-width:0.606166"
       d="m 398.08559,208.06663 c 0.30916,-24.0453 0.28552,-24.7375 -0.89021,-26.06515 -1.00497,-1.13483 -1.8321,-1.36388 -4.92524,-1.36388 h -3.71744 v -3.33391 -3.33392 h 23.94357 23.94358 v 3.33392 3.33391 l -3.18238,0.0202 c -2.20168,0.0139 -3.60267,0.37079 -4.54625,1.15795 l -1.36387,1.13779 v 24.90721 24.9072 H 412.55767 397.768 Z"
       id="path19" />
    <path
       style="fill:#ffffff;stroke-width:0.606166"
       d="m 364.00295,233.37408 c -0.20604,-0.33339 -1.29714,-0.60616 -2.42466,-0.60616 -1.12752,0 -2.21862,-0.27278 -2.42467,-0.60617 -0.20604,-0.33339 -0.90408,-0.60617 -1.55119,-0.60617 -0.64711,0 -1.17656,-0.24096 -1.17656,-0.53546 0,-0.29451 -0.47735,-0.71556 -1.06079,-0.93567 -1.99244,-0.75167 -3.78854,-1.84662 -3.78854,-2.3096 0,-0.25434 -0.28187,-0.46243 -0.62637,-0.46243 -1.42016,0 -7.85996,-7.66482 -7.85996,-9.35514 0,-0.52233 -0.27277,-0.94969 -0.60616,-0.94969 -0.3334,0 -0.60617,-0.66584 -0.60617,-1.47964 0,-0.81381 -0.23858,-1.62709 -0.53018,-1.80731 -1.83134,-1.13183 -1.84206,-20.77747 -0.012,-21.90853 0.29818,-0.18428 0.54214,-1.0009 0.54214,-1.8147 0,-0.8138 0.27277,-1.47964 0.60617,-1.47964 0.33339,0 0.60616,-0.34566 0.60616,-0.76812 0,-0.42247 1.25183,-2.19915 2.78183,-3.94817 3.70056,-4.23029 9.97424,-8.61938 12.32039,-8.61938 0.56199,0 1.36278,-0.34096 1.77952,-0.7577 0.54222,-0.54222 3.48125,-0.75771 10.33429,-0.75771 11.6616,0 12.79096,0.38369 12.79096,4.34559 0,2.37931 -0.13866,2.62532 -1.47964,2.62532 -0.81381,0 -1.64823,-0.27277 -1.85428,-0.60616 -0.52381,-0.84755 -3.69415,-0.75654 -5.27865,0.15154 -3.60012,2.06322 -5.93543,5.47354 -5.93543,8.6677 0,1.10706 -0.23516,2.64433 -0.52257,3.41617 -0.28742,0.77183 -0.32125,7.4221 -0.0752,14.77837 0.44901,13.42365 0.91397,16.02403 2.86515,16.02403 0.41989,0 0.76344,0.29226 0.76344,0.64947 0,0.96575 1.59578,2.38137 2.68445,2.38137 0.5239,0 0.95254,0.27277 0.95254,0.60616 0,0.3409 1.69586,0.60617 3.87523,0.60617 4.11387,0 4.6111,0.35951 4.6111,3.33391 0,3.32821 -0.0172,3.33392 -10.03082,3.33392 -5.54277,0 -9.44619,-0.2447 -9.66959,-0.60617 z"
       id="path20" />
    <path
       style="fill:#ffffff;stroke-width:0.606166"
       d="m 702.24383,232.16175 c -0.20604,-0.33339 -1.18055,-0.60617 -2.16558,-0.60617 -0.98502,0 -2.2646,-0.23511 -2.84351,-0.52247 -0.57892,-0.28736 -2.68922,-1.3088 -4.68957,-2.26987 -2.00035,-0.96107 -3.77338,-1.8868 -3.94008,-2.05718 -0.1667,-0.17039 -1.39418,-1.11667 -2.72775,-2.10287 -3.33027,-2.46278 -3.94008,-3.11567 -3.94008,-4.21839 0,-0.5239 -0.20458,-0.95467 -0.45463,-0.95727 -0.52566,-0.005 -1.97004,-2.92494 -1.97004,-3.98198 0,-0.3928 -0.40916,-1.05376 -0.90925,-1.46879 -0.50008,-0.41504 -0.90925,-1.38705 -0.90925,-2.16003 0,-0.77298 -0.27277,-1.57401 -0.60616,-1.78005 -0.80543,-0.49778 -0.80543,-15.86872 0,-16.3665 0.33339,-0.20605 0.60616,-1.17686 0.60616,-2.15736 0,-1.18053 0.30714,-1.78272 0.90925,-1.78272 0.50514,0 0.90925,-0.53882 0.90925,-1.21233 0,-0.66679 0.27278,-1.21234 0.60617,-1.21234 0.33339,0 0.60617,-0.54555 0.60617,-1.21233 0,-0.66678 0.27277,-1.21233 0.60616,-1.21233 0.33339,0 0.60617,-0.32274 0.60617,-0.71719 0,-1.05297 7.04509,-7.76914 8.14962,-7.76914 0.51858,0 0.94288,-0.27278 0.94288,-0.60617 0,-0.33339 0.49099,-0.60617 1.09109,-0.60617 0.60011,0 1.35024,-0.22679 1.66696,-0.50398 1.53838,-1.34636 6.60896,-2.06664 14.5675,-2.06933 10.32374,-0.004 11.16427,0.30594 11.16427,4.11006 0,2.27488 -0.1876,2.70642 -1.17656,2.70642 -0.64711,0 -1.34514,-0.27278 -1.55119,-0.60617 -0.20605,-0.33339 -1.44963,-0.60616 -2.76352,-0.60616 -1.31389,0 -2.3889,0.27277 -2.3889,0.60616 0,0.33339 -0.47735,0.61485 -1.06079,0.62545 -2.09342,0.038 -4.3947,3.02038 -4.3947,5.6953 0,0.81833 -0.27278,1.65645 -0.60617,1.8625 -0.92447,0.57135 -0.79383,28.21069 0.14759,31.22712 0.41456,1.32831 0.96011,2.41512 1.21233,2.41512 0.25222,0 0.45858,0.37095 0.45858,0.82434 0,0.45339 0.71216,1.33991 1.58258,1.97004 0.87042,0.63014 1.94204,1.48667 2.38137,1.90341 0.48433,0.45942 2.48621,0.75771 5.08525,0.75771 h 4.28646 v 3.33391 3.33392 h -9.05672 c -5.38395,0 -9.20865,-0.24582 -9.43136,-0.60617 z"
       id="path21" />
    <path
       style="fill:#ffffff;stroke-width:0.606166"
       d="m 728.91516,232.16175 c -0.20605,-0.33339 -0.90408,-0.60617 -1.55119,-0.60617 -1.02202,0 -1.17656,-0.4379 -1.17656,-3.33391 v -3.33392 h 3.87598 c 3.44059,0 4.08744,-0.19754 5.75858,-1.75861 1.42025,-1.32672 1.8826,-2.28558 1.8826,-3.90431 0,-1.18013 -0.27277,-2.31428 -0.60616,-2.52032 -0.3334,-0.20605 -0.60617,-1.17686 -0.60617,-2.15736 0,-0.9805 -0.27278,-1.78273 -0.60617,-1.78273 -0.33339,0 -0.60616,-0.68193 -0.60616,-1.51541 0,-0.83348 -0.27278,-1.51542 -0.60617,-1.51542 -0.33339,0 -0.60617,-0.66584 -0.60617,-1.47964 0,-0.8138 -0.27277,-1.64823 -0.60616,-1.85427 -0.33339,-0.20605 -0.60617,-0.8846 -0.60617,-1.5079 0,-0.62329 -0.40916,-1.54242 -0.90925,-2.04251 -0.50009,-0.50008 -0.90925,-1.47428 -0.90925,-2.16488 0,-0.69059 -0.27277,-1.25563 -0.60617,-1.25563 -0.33339,0 -0.60616,-0.68193 -0.60616,-1.51541 0,-0.83348 -0.27278,-1.51542 -0.60617,-1.51542 -0.33339,0 -0.60616,-0.41286 -0.60616,-0.91747 0,-0.50462 -0.2393,-1.39113 -0.53176,-1.97005 -1.27239,-2.51859 -1.89291,-5.6705 -1.89291,-9.61501 0,-3.94283 0.13514,-4.37668 1.97004,-6.32459 3.7379,-3.96811 6.94998,-4.81337 18.29135,-4.81337 14.83837,0 22.77609,1.45514 20.47732,3.7539 -0.40245,0.40245 -0.73172,1.4955 -0.73172,2.429 0,1.68803 -1.32995,2.372 -2.12159,1.0911 -0.48871,-0.79076 -5.75858,-0.79076 -5.75858,0 0,0.33339 -0.29226,0.60616 -0.64946,0.60616 -2.1239,0 -3.52174,5.76993 -1.81203,7.47964 0.35364,0.35365 0.64299,1.14255 0.64299,1.75312 0,0.61057 0.40916,1.26713 0.90925,1.45903 0.50009,0.1919 0.90925,0.67451 0.90925,1.07246 0,1.06438 1.44198,3.98586 1.97004,3.99135 0.25005,0.003 0.45463,0.68667 0.45463,1.52015 0,0.83348 0.20842,1.51541 0.46317,1.51541 0.25474,0 0.93587,1.0911 1.51361,2.42467 0.57775,1.33356 1.32403,2.42466 1.65841,2.42466 0.33439,0 0.60797,0.68194 0.60797,1.51542 0,0.83348 0.27278,1.51542 0.60617,1.51542 0.33339,0 0.60617,0.54555 0.60617,1.21233 0,0.66678 0.24644,1.21233 0.54766,1.21233 0.30121,0 0.70305,1.29568 0.89298,2.87929 0.18992,1.58361 0.51848,4.20007 0.73014,5.81435 0.24155,1.84231 0.13477,3.1851 -0.28681,3.60669 -0.3694,0.3694 -0.67164,1.27802 -0.67164,2.01916 0,1.46018 -4.49588,6.29017 -5.85505,6.29017 -0.44703,0 -0.81278,0.27278 -0.81278,0.60617 0,0.33339 -0.66584,0.60616 -1.47964,0.60616 -0.81381,0 -1.64823,0.27278 -1.85428,0.60617 -0.23209,0.37554 -5.65192,0.60617 -14.24491,0.60617 -8.59299,0 -14.01282,-0.23063 -14.24491,-0.60617 z"
       id="path22" />
    <path
       style="fill:#ffffff;stroke-width:0.606166"
       d="m 174.14085,91.102642 c -0.21546,-0.561484 -0.0699,-1.120643 0.32603,-1.252628 0.39337,-0.131124 0.71522,-0.855336 0.71522,-1.609361 0,-2.820037 3.80426,-4.361712 6.22697,-2.523478 0.99703,0.756498 0.91777,0.940956 -1.09867,2.556929 -1.19526,0.957888 -2.49713,2.029652 -2.89304,2.381698 -1.45732,1.295854 -2.87644,1.48939 -3.27651,0.44684 z"
       id="path23" />
    <path
       style="fill:#ffffff;stroke-width:0.606166"
       d=""
       id="path24" />
    <path
       style="fill:#ffffff;stroke-width:0.606166"
       d=""
       id="path25" />
    <path
       style="fill:#ffffff;stroke-width:0.606166"
       d="m 198.21643,88.457004 c 0,-0.834937 1.77659,-2.625329 2.19245,-2.209475 0.39264,0.392643 -1.10157,2.858939 -1.7321,2.858939 -0.25319,0 -0.46035,-0.292258 -0.46035,-0.649464 z"
       id="path26" />
    <path
       style="fill:#ffffff;stroke-width:0.606166"
       d=""
       id="path27" />
    <path
       style="fill:#ffffff;stroke-width:0.606166"
       d=""
       id="path28" />
    <path
       style="fill:#ffffff;stroke-width:0.606166"
       d=""
       id="path29" />
    <path
       style="fill:#ffffff;stroke-width:0.606166"
       d="m 194.42789,284.49678 c 0.41674,-0.16816 0.75771,-0.81246 0.75771,-1.43179 0,-0.61932 0.27277,-1.29463 0.60616,-1.50067 0.3334,-0.20605 0.60617,-1.17686 0.60617,-2.15736 0,-0.9805 0.22028,-1.78273 0.48951,-1.78273 0.58182,0 2.06957,-3.46939 3.11924,-7.27399 0.41392,-1.50026 0.99876,-3.20141 1.29966,-3.78032 0.3009,-0.57891 0.54709,-1.58572 0.54709,-2.23735 0,-0.65163 0.27277,-1.35337 0.60616,-1.55941 0.3334,-0.20605 0.60617,-1.05996 0.60617,-1.89757 0,-0.83762 0.40916,-1.93211 0.90925,-2.43219 0.50009,-0.50009 0.90925,-1.55561 0.90925,-2.3456 0,-0.78999 0.27278,-1.60493 0.60617,-1.81097 0.33339,-0.20605 0.6261,-0.97228 0.65047,-1.70274 0.0244,-0.73045 0.52392,-2.14642 1.11011,-3.1466 0.84537,-1.44236 1.48278,-1.81849 3.08174,-1.81849 1.85179,0 2.0892,0.22208 2.91596,2.72774 1.13162,3.42957 1.576,4.60366 2.78783,7.36561 0.53408,1.21726 0.97105,2.64933 0.97105,3.18238 0,0.53305 0.27277,0.96918 0.60617,0.96918 0.33339,0 0.60616,0.81832 0.60616,1.8185 0,1.00017 0.27278,1.8185 0.60617,1.8185 0.33339,0 0.60617,0.66583 0.60617,1.47964 0,0.8138 0.27277,1.64822 0.60616,1.85427 0.33339,0.20605 0.60617,0.90779 0.60617,1.55942 0,0.65163 0.24253,1.65844 0.53896,2.23735 0.5792,1.13114 1.90889,4.17782 3.10494,7.11423 0.40739,1.00017 0.98166,2.29215 1.27615,2.87106 0.85678,1.68425 0.63202,2.28135 -0.85874,2.28135 -1.77646,0 -2.84898,-1.07252 -2.84898,-2.84898 0,-0.7668 -0.27277,-1.39418 -0.60617,-1.39418 -0.33339,0 -0.60616,-0.81833 -0.60616,-1.8185 0,-1.00018 -0.27278,-1.8185 -0.60617,-1.8185 -0.33339,0 -0.60616,-0.68194 -0.60616,-1.51542 0,-0.94292 -0.3435,-1.51541 -0.90925,-1.51541 -0.50009,0 -0.90925,-0.27278 -0.90925,-0.60617 0,-0.36908 -2.73486,-0.60617 -6.99224,-0.60617 -7.49199,0 -9.98042,0.77307 -9.98042,3.10055 0,0.62844 -0.27278,1.14262 -0.60617,1.14262 -0.33339,0 -0.60617,0.80222 -0.60617,1.78272 0,0.9805 -0.27277,1.95131 -0.60616,2.15736 -0.3334,0.20605 -0.60617,1.17686 -0.60617,2.15736 0,1.66443 -0.15083,1.77955 -2.27312,1.73487 -1.25022,-0.0263 -1.93216,-0.18544 -1.51542,-0.3536 z m 20.66845,-14.0661 c 1.35743,-1.17729 1.90771,-5.53594 0.69892,-5.53594 -0.33339,0 -0.60617,-0.81833 -0.60617,-1.8185 0,-1.00017 -0.27277,-1.8185 -0.60617,-1.8185 -0.33339,0 -0.60616,-0.80223 -0.60616,-1.78272 0,-0.9805 -0.27278,-1.95131 -0.60617,-2.15736 -0.33339,-0.20605 -0.60617,-0.91368 -0.60617,-1.57252 0,-1.91093 -1.81463,-4.18606 -3.33877,-4.18606 -1.46923,0 -2.11672,1.02404 -2.11672,3.34772 0,0.78653 -0.27278,1.59864 -0.60617,1.80469 -0.33339,0.20605 -0.60617,1.16076 -0.60617,2.12158 0,0.96083 -0.27277,1.91554 -0.60616,2.12159 -0.33339,0.20605 -0.60617,1.17686 -0.60617,2.15735 0,0.9805 -0.25162,1.78273 -0.55916,1.78273 -0.30753,0 -0.87988,0.97181 -1.27188,2.15959 -0.61154,1.85297 -0.56184,2.32632 0.35002,3.33391 1.52307,1.68298 9.76705,1.71289 11.6931,0.0424 z"
       id="path30" />
    <path
       style="fill:#ffffff;stroke-width:0.606166"
       d="m 233.98025,266.10707 c 0,-18.38705 0.0261,-18.79116 1.21233,-18.79116 1.14708,0 1.21234,0.40411 1.21234,7.50737 0,7.45263 0.0117,7.51504 1.60664,8.56007 1.32781,0.87002 2.97433,1.04499 9.48755,1.00823 4.62616,-0.0261 8.14334,-0.30691 8.51634,-0.67991 0.34948,-0.34949 1.09724,-0.63543 1.66167,-0.63543 1.52632,0 1.76212,-1.2147 1.76212,-9.07722 0,-5.73546 0.177,-7.22749 0.88984,-7.50103 0.48941,-0.1878 1.01515,-0.13871 1.1683,0.10911 0.15316,0.24781 0.44238,8.06139 0.64271,17.3635 0.20032,9.30211 0.49562,17.47527 0.65622,18.16257 0.44514,1.90506 -0.644,3.22623 -1.97594,2.3969 -0.93656,-0.58314 -1.1001,-1.79368 -1.2461,-9.22343 l -0.16806,-8.5522 -2.13542,-1.01332 c -1.70692,-0.80999 -2.43913,-0.87494 -3.649,-0.32368 -0.86987,0.39634 -4.69386,0.68963 -8.99145,0.68963 -8.91308,0 -8.2051,-0.92702 -8.21715,10.75946 -0.008,7.62483 -0.0697,8.0317 -1.22061,8.0317 -1.18626,0 -1.21233,-0.40411 -1.21233,-18.79116 z"
       id="path31" />
    <path
       style="fill:#ffffff;stroke-width:0.606166"
       d="m 271.56257,266.10707 v -18.79116 l 5.30396,-0.0209 c 2.91717,-0.0115 8.55326,-0.0797 12.52464,-0.15154 5.3321,-0.0965 7.28747,0.0675 7.47605,0.62707 0.19782,0.58695 -2.12544,0.75771 -10.30911,0.75771 -13.09062,0 -12.57087,-0.34047 -12.57087,8.23454 0,5.99252 0.007,6.02059 1.67957,6.76096 1.02562,0.45398 5.15589,0.79395 10.60791,0.87316 6.86818,0.0998 8.92834,0.31205 8.92834,0.91994 0,0.61674 -2.13869,0.79022 -9.74196,0.79022 -7.63481,0 -9.92926,0.1873 -10.60791,0.86595 -0.63406,0.63406 -0.86595,2.47565 -0.86595,6.87697 0,8.35941 -0.56444,8.01741 13.23185,8.01741 h 11.0148 v 1.51542 1.51541 h -13.33566 -13.33566 z"
       id="path32" />
    <path
       style="fill:#ffffff;stroke-width:0.606166"
       d="m 304.29556,284.23405 c 0,-0.3653 0.44811,-1.52459 0.9958,-2.57621 1.86294,-3.57698 2.03503,-4.01689 2.03503,-5.20194 0,-0.65163 0.27278,-1.35337 0.60617,-1.55941 0.33339,-0.20605 0.60616,-1.16076 0.60616,-2.12159 0,-0.96082 0.27278,-1.91553 0.60617,-2.12158 0.33339,-0.20605 0.60617,-1.00707 0.60617,-1.78005 0,-0.77298 0.40916,-1.745 0.90925,-2.16003 0.50008,-0.41504 0.90925,-1.38705 0.90925,-2.16003 0,-0.77298 0.27277,-1.57401 0.60616,-1.78005 0.33339,-0.20605 0.60617,-1.02438 0.60617,-1.8185 0,-0.79413 0.27277,-1.61245 0.60617,-1.8185 0.33339,-0.20605 0.60616,-1.17686 0.60616,-2.15736 0,-0.9805 0.27278,-1.78272 0.60617,-1.78272 0.33339,0 0.60616,-0.80223 0.60616,-1.78273 0,-0.9805 0.27278,-1.95131 0.60617,-2.15736 0.33339,-0.20604 0.60617,-1.17685 0.60617,-2.15735 0,-1.69662 0.12596,-1.78273 2.608,-1.78273 2.60064,0 2.61115,0.009 3.72167,3.18238 0.61252,1.7503 1.34834,3.44151 1.63517,3.75823 0.28682,0.31672 0.52149,1.20324 0.52149,1.97004 0,0.7668 0.27277,1.39418 0.60616,1.39418 0.3334,0 0.60617,0.66584 0.60617,1.47964 0,0.81381 0.27278,1.64823 0.60617,1.85428 0.33339,0.20605 0.60616,0.90778 0.60616,1.55941 0,0.65163 0.24215,1.65844 0.53811,2.23735 2.30015,4.4992 3.70506,7.94715 3.70506,9.09297 0,0.74535 0.27277,1.35518 0.60617,1.35518 0.33339,0 0.60616,0.68194 0.60616,1.51542 0,0.83347 0.27278,1.51541 0.60617,1.51541 0.33339,0 0.61484,0.61374 0.62544,1.36388 0.0106,0.75013 0.40103,1.86774 0.86762,2.48358 0.46658,0.61584 0.7015,1.50236 0.52203,1.97004 -0.73607,1.91818 -3.83359,0.22632 -3.83359,-2.0939 0,-0.66679 -0.40916,-1.6215 -0.90925,-2.12159 -0.50009,-0.50008 -0.90925,-1.61067 -0.90925,-2.46796 0,-0.85729 -0.27278,-1.55871 -0.60617,-1.55871 -0.33339,0 -0.60616,-0.29226 -0.60616,-0.64947 0,-1.92062 -1.75922,-2.38137 -9.0925,-2.38137 -6.0566,0 -7.53926,0.17868 -8.36913,1.00855 -1.16254,1.16253 -2.5194,4.74351 -2.53274,6.6843 -0.005,0.73046 -0.2819,1.49669 -0.61529,1.70273 -0.33339,0.20605 -0.60617,0.90409 -0.60617,1.55119 0,0.85089 -0.41947,1.17656 -1.51542,1.17656 -0.83347,0 -1.51541,-0.29888 -1.51541,-0.66418 z m 20.06151,-13.71142 c 1.44987,-0.85646 1.76048,-1.44469 1.76048,-3.33392 0,-1.26168 -0.27277,-2.29397 -0.60617,-2.29397 -0.33339,0 -0.60616,-0.82689 -0.60616,-1.83752 0,-1.07418 -0.37773,-1.98247 -0.90925,-2.18644 -0.51225,-0.19657 -0.90925,-1.09897 -0.90925,-2.06678 0,-0.94483 -0.27278,-1.88646 -0.60617,-2.09251 -0.33339,-0.20605 -0.60616,-1.05995 -0.60616,-1.89757 0,-1.56408 -1.23343,-3.25484 -2.37444,-3.25484 -1.14613,0 -3.08106,2.05614 -3.08106,3.27405 0,1.28111 -1.0333,4.8664 -1.89291,6.56793 -0.29247,0.57891 -0.53176,1.58572 -0.53176,2.23735 0,0.65163 -0.27277,1.35337 -0.60616,1.55941 -1.11567,0.68952 -0.66708,4.04814 0.69891,5.23286 1.74265,1.51139 7.77573,1.5654 10.2701,0.0919 z"
       id="path33" />
    <path
       style="fill:#ffffff;stroke-width:0.606166"
       d="m 343.83888,283.98183 c -0.58954,-0.66915 -0.72964,-5.04188 -0.60617,-18.91965 l 0.16059,-18.04935 9.09249,0.041 c 5.00088,0.0226 9.8497,0.23412 10.77516,0.47011 1.84579,0.47068 6.23076,4.6547 6.81829,6.50583 0.20359,0.64145 0.62455,1.16627 0.93548,1.16627 0.31092,0 0.56532,0.81832 0.56532,1.8185 0,1.00017 0.27277,1.81849 0.60616,1.81849 0.80603,0 0.80603,12.53443 0,13.03258 -0.33339,0.20605 -0.60616,0.92229 -0.60616,1.59164 0,1.22371 -2.26287,4.62834 -4.57978,6.89057 -2.45528,2.39734 -4.09211,2.88643 -10.70957,3.20009 -3.61254,0.17123 -6.71272,0.54509 -6.88931,0.8308 -0.52321,0.84658 -4.73151,0.54629 -5.5625,-0.39692 z m 16.17775,-2.8247 c 1.69239,-0.39066 3.07707,-0.93621 3.07707,-1.21234 0,-0.27613 0.39059,-0.50206 0.86798,-0.50206 0.47738,0 1.49044,-0.88651 2.25123,-1.97004 0.76079,-1.08352 1.59769,-2.06096 1.85977,-2.17209 0.26209,-0.11113 0.47652,-0.86126 0.47652,-1.66696 0,-0.8057 0.27278,-1.4649 0.60617,-1.4649 0.81062,0 0.81062,-14.35009 0,-14.85108 -0.33339,-0.20605 -0.60617,-0.85078 -0.60617,-1.43274 0,-1.20718 -3.13981,-4.75407 -5.58571,-6.3099 -1.30993,-0.83324 -3.04727,-1.04677 -8.51664,-1.04677 -4.53589,0 -7.11821,0.2472 -7.59841,0.7274 -0.52477,0.52476 -0.7274,4.72319 -0.7274,15.0715 v 14.3441 l 1.59808,1.59807 c 1.38776,1.38776 2.09965,1.59808 5.40925,1.59808 2.09615,0 5.19587,-0.31962 6.88826,-0.71027 z"
       id="path34" />
    <path
       style="fill:#ffffff;stroke-width:0.606166"
       d="m 397.17966,266.10707 c 0,-1.16687 0.12474,-1.64422 0.27721,-1.06079 0.15247,0.58344 0.15247,1.53815 0,2.12158 -0.15247,0.58344 -0.27721,0.10608 -0.27721,-1.06079 z"
       id="path35" />
    <path
       style="fill:#ffffff;stroke-width:0.606166"
       d="m 406.13152,284.33291 c 0,-0.31092 -0.5728,-0.74712 -1.27289,-0.96932 -1.77088,-0.56205 -7.65917,-6.20191 -8.74263,-8.37377 -0.49251,-0.98726 -0.89547,-2.41894 -0.89547,-3.18152 0,-0.76258 -0.27278,-1.5551 -0.60617,-1.76115 -0.78981,-0.48813 -0.78981,-7.39203 0,-7.88016 0.33339,-0.20605 0.60617,-1.18056 0.60617,-2.16558 0,-1.69665 0.77363,-3.58166 2.12158,-5.16935 0.33339,-0.39269 1.1347,-1.44342 1.7807,-2.33496 2.1633,-2.98559 3.20396,-3.96885 4.20052,-3.96885 0.54433,0 0.98969,-0.24182 0.98969,-0.53737 0,-1.3338 10.73426,-2.33154 13.53479,-1.25805 4.30002,1.64825 5.25637,2.11212 5.25637,2.54955 0,0.25201 0.29226,0.4582 0.64947,0.4582 0.83922,0 2.38137,1.54214 2.38137,2.38137 0,0.3572 0.21842,0.64946 0.48537,0.64946 0.79818,0 3.15162,5.35739 3.15162,7.17436 0,0.92753 0.40049,2.21592 0.88998,2.86307 1.164,1.53896 1.17555,5.56247 0.0193,6.71874 -0.50008,0.50009 -0.90925,1.55561 -0.90925,2.3456 0,0.78999 -0.27277,1.60493 -0.60616,1.81097 -0.33339,0.20605 -0.60617,0.90409 -0.60617,1.55119 0,0.64711 -0.27277,1.17656 -0.60616,1.17656 -0.3334,0 -0.60617,0.29972 -0.60617,0.66605 0,1.09589 -4.44973,4.93766 -7.82918,6.75949 -1.4764,0.79592 -3.39333,1.06079 -7.67719,1.06079 -3.1402,0 -5.70946,-0.25439 -5.70946,-0.56532 z m 11.92018,-2.17318 c 2.50397,-0.54138 5.92769,-3.72088 7.80147,-7.24499 1.33745,-2.51538 1.49418,-3.53801 1.49418,-9.74899 0,-4.22178 -0.23736,-6.93884 -0.60617,-6.93884 -0.33339,0 -0.60616,-0.71137 -0.60616,-1.58082 0,-2.17616 -6.0988,-8.11784 -8.3325,-8.11784 -0.87075,0 -2.50003,-0.33154 -3.62063,-0.73676 -1.59906,-0.57823 -2.2913,-0.57823 -3.21719,0 -0.64885,0.40522 -1.94106,0.73676 -2.87158,0.73676 -0.93051,0 -2.36628,0.46305 -3.1906,1.02901 -2.43661,1.67294 -5.43883,5.18554 -5.43883,6.36344 0,0.60163 -0.27277,1.09388 -0.60616,1.09388 -0.3334,0 -0.60617,1.075 -0.60617,2.38889 0,1.31389 -0.27278,2.55747 -0.60617,2.76352 -0.79219,0.48961 -0.79219,7.57708 0,7.57708 0.33339,0 0.60617,0.76394 0.60617,1.69765 0,1.84182 1.23627,4.95782 1.97004,4.96545 0.25004,0.003 0.45462,0.34915 0.45462,0.77011 0,0.42096 0.72697,1.30747 1.61549,1.97004 0.88851,0.66257 1.96013,1.54563 2.38137,1.96237 0.42123,0.41674 1.26272,0.76189 1.86997,0.76699 0.60725,0.005 1.51325,0.28575 2.01334,0.62365 0.91134,0.61578 5.89963,0.43685 9.49551,-0.3406 z"
       id="path36" />
    <path
       style="fill:#ffffff;stroke-width:0.606166"
       d="m 439.09027,284.14052 c -0.29086,-0.41674 -0.39245,-8.89612 -0.22576,-18.84307 l 0.30308,-18.08536 11.82025,0.0423 c 6.50114,0.0233 12.02483,0.0466 12.27487,0.0519 0.25004,0.005 0.45463,0.28234 0.45463,0.61573 0,0.37961 -3.79473,0.60963 -10.15329,0.61545 -5.58431,0.005 -10.42752,0.20968 -10.76269,0.45462 -1.69644,1.23975 -2.42837,8.43696 -1.26276,12.41713 0.35662,1.21775 0.87883,1.66696 1.93787,1.66696 0.79734,0 1.44971,0.29266 1.44971,0.65036 0,0.43575 2.45038,0.60123 7.42553,0.50149 6.08681,-0.12204 7.42554,0.007 7.42554,0.71351 0,0.69882 -1.68206,0.89413 -8.86834,1.02972 l -8.86834,0.16733 -0.4104,1.95425 c -0.78493,3.73774 -1.03844,12.43421 -0.37442,12.84459 0.90416,0.5588 0.79325,2.07519 -0.22636,3.09479 -1.05901,1.05901 -1.2674,1.07065 -1.93912,0.10824 z"
       id="path37" />
    <path
       style="fill:#ffffff;stroke-width:0.606166"
       d="m 499.48116,268.20733 c 0,-20.80387 0.43995,-19.67908 -7.69731,-19.67908 -4.24409,0 -5.67522,-0.19251 -5.49309,-0.73888 0.18238,-0.54715 3.5462,-0.75454 12.96294,-0.79922 6.99415,-0.0332 13.05543,-0.26972 13.46952,-0.52564 0.77382,-0.47825 2.51826,0.58285 2.51826,1.53179 0,0.29257 -2.67319,0.53195 -5.94043,0.53195 -3.81211,0 -6.20104,0.26061 -6.66783,0.7274 -0.53208,0.53207 -0.7274,5.41508 -0.7274,18.18499 0,17.05348 -0.0281,17.45759 -1.21233,17.45759 -1.18298,0 -1.21233,-0.40411 -1.21233,-16.6909 z"
       id="path38" />
    <path
       style="fill:#ffffff;stroke-width:0.606166"
       d="m 523.10397,283.83744 c -0.13947,-8.37024 0.0644,-37.3765 0.26414,-37.57621 0.14759,-0.14759 0.82664,-0.0911 1.50901,0.12543 1.15563,0.36678 1.25224,0.94182 1.40955,8.39013 l 0.16889,7.99637 10.1818,0.16632 c 10.73142,0.17531 10.731,0.1754 12.38549,-2.73787 0.47173,-0.83063 0.52668,-1.44744 0.14971,-1.68042 -0.80908,-0.50004 -0.56321,-11.38592 0.26999,-11.9537 1.89341,-1.29029 2.16892,-0.46827 2.16892,6.47123 0,3.81433 0.26249,7.09737 0.58331,7.29564 0.36833,0.22765 0.34535,0.88277 -0.0624,1.7776 -0.46085,1.01145 -0.45431,1.77467 0.0228,2.66625 1.05403,1.96947 0.88793,18.16872 -0.19742,19.25407 -0.93227,0.93228 -2.11603,1.14933 -2.24325,0.41133 -0.0431,-0.25005 -0.14515,-3.86431 -0.22677,-8.03171 -0.14754,-7.53327 -0.45987,-9.31062 -1.89077,-10.75945 -1.14463,-1.15899 -19.40746,-1.06292 -20.57863,0.10824 -0.67388,0.67388 -0.86595,2.89228 -0.86595,10.00175 v 9.13579 h -1.51542 c -1.0324,0 -1.52105,-0.3381 -1.53309,-1.06079 z"
       id="path39" />
    <path
       style="fill:#ffffff;stroke-width:0.606166"
       d="m 561.46168,283.28445 c -0.5827,-0.23513 -0.75745,-4.52927 -0.75659,-18.59177 l 10e-4,-18.28602 13.33455,-0.15449 c 12.99259,-0.15053 13.33454,-0.12332 13.33454,1.06079 0,1.172 -0.39514,1.21529 -11.09284,1.21529 -7.81955,0 -11.30749,0.21464 -11.82025,0.7274 -1.07329,1.07328 -0.93629,11.37225 0.17072,12.83407 0.78478,1.03631 1.75872,1.12919 11.1948,1.06756 8.77852,-0.0573 10.33524,0.0684 10.33524,0.83498 0,0.7617 -1.51725,0.90248 -9.72622,0.90248 -9.51838,0 -9.75801,0.0318 -11.21408,1.48786 -1.35788,1.35788 -1.48618,1.95364 -1.46858,6.81937 0.0123,3.40548 0.30337,5.70542 0.80568,6.36653 1.25751,1.65505 5.82557,2.31281 14.60683,2.10327 8.16386,-0.19481 9.94725,0.0661 9.15984,1.34019 -0.41975,0.67917 -25.23316,0.93085 -26.86475,0.27249 z"
       id="path40" />
    <path
       style="fill:#ffffff;stroke-width:0.606166"
       d="m 624.35145,283.98898 c -0.41504,-0.50008 -0.99087,-0.90925 -1.27963,-0.90925 -1.27055,0 -6.10454,-4.72885 -7.12591,-6.97091 -0.45562,-1.00018 -1.06936,-2.29216 -1.36385,-2.87107 -0.75378,-1.48177 -0.68977,-15.61701 0.0707,-15.61701 0.33339,0 0.60617,-0.41286 0.60617,-0.91747 0,-1.32771 1.21387,-3.22027 3.65541,-5.69919 3.42688,-3.47933 7.12335,-4.9005 12.74621,-4.9005 3.08334,0 4.99563,0.36096 7.09393,1.33905 2.84097,1.32426 4.38811,2.45403 4.38811,3.20434 0,0.21276 0.68193,1.2809 1.51541,2.37364 1.8885,2.47595 1.8885,2.78163 0,2.78163 -0.90331,0 -1.51541,-0.34686 -1.51541,-0.85873 0,-0.47231 -0.20459,-0.94966 -0.45463,-1.06079 -0.25004,-0.11113 -1.22103,-1.22811 -2.15775,-2.48216 -0.93672,-1.25406 -2.67488,-2.68613 -3.86257,-3.18238 -2.43184,-1.01609 -9.62061,-1.22488 -10.19463,-0.2961 -0.20605,0.33339 -0.85563,0.60617 -1.4435,0.60617 -1.22496,0 -6.73975,5.65917 -6.73975,6.91619 0,0.45884 -0.36938,0.97601 -0.82084,1.14925 -1.69043,0.64868 -1.72717,16.0785 -0.0412,17.29271 0.30848,0.22216 0.92534,1.11265 1.37081,1.97889 1.533,2.98099 3.4398,4.6043 6.93949,5.90779 3.69217,1.37518 7.98255,1.72402 8.61513,0.70049 0.20605,-0.33339 1.04047,-0.60617 1.85428,-0.60617 0.8138,0 1.47964,-0.27277 1.47964,-0.60617 0,-0.33339 0.28517,-0.60616 0.63372,-0.60616 0.86136,0 3.14042,-2.38879 4.04825,-4.24317 0.74779,-1.52748 1.08335,-4.35106 0.88245,-7.42554 l -0.10892,-1.66695 h -5.49995 c -4.69757,0 -5.47135,-0.14013 -5.30396,-0.96048 0.16214,-0.79456 1.47875,-1.00899 7.62153,-1.2413 l 7.42554,-0.28081 v 9.62659 c 0,5.29463 -0.18023,9.80683 -0.40052,10.02712 -0.39415,0.39415 -1.37597,-1.00275 -2.58928,-3.68392 -0.75911,-1.67749 -1.70839,-1.70532 -3.67803,-0.10782 -4.55394,3.69352 -5.85804,4.19944 -10.82473,4.19944 -3.51575,0 -4.98757,-0.24148 -5.54176,-0.90925 z"
       id="path41" />
    <path
       style="fill:#ffffff;stroke-width:0.606166"
       d="m 656.47827,283.07973 c 0,-1.00017 0.24097,-1.8185 0.5355,-1.8185 0.29452,0 0.68915,-0.61374 0.87694,-1.36387 0.55571,-2.21972 3.25419,-9.56648 3.66451,-9.97679 0.2082,-0.20821 0.37855,-1.13532 0.37855,-2.06025 0,-0.92494 0.27277,-1.85028 0.60616,-2.05633 0.33339,-0.20605 0.60617,-1.17686 0.60617,-2.15736 0,-0.9805 0.2511,-1.78272 0.558,-1.78272 0.3069,0 0.73705,-0.8152 0.95589,-1.81155 0.21883,-0.99635 0.64967,-1.96716 0.95741,-2.15736 0.30774,-0.19019 0.55953,-0.99555 0.55953,-1.78967 0,-0.79413 0.27278,-1.61246 0.60617,-1.8185 0.33339,-0.20605 0.60616,-1.02438 0.60616,-1.8185 0,-0.79413 0.27278,-1.61245 0.60617,-1.8185 0.33339,-0.20605 0.60617,-0.92357 0.60617,-1.59449 0,-1.57909 1.39345,-2.95176 2.99644,-2.95176 1.29273,0 3.64715,3.09575 3.68808,4.84933 0.0117,0.50009 0.69213,2.27313 1.51214,3.94008 0.82,1.66696 1.49341,3.37551 1.49646,3.79677 0.003,0.42126 0.27831,1.30778 0.61171,1.97004 l 1.21233,2.40822 c 0.33339,0.66225 0.60617,1.62067 0.60617,2.1298 0,0.50914 0.25653,1.39936 0.57008,1.97827 0.31355,0.57891 1.03254,2.34825 1.59777,3.93186 0.56523,1.58361 1.2634,2.87929 1.5515,2.87929 0.28809,0 0.52381,0.52945 0.52381,1.17656 0,0.6471 0.27278,1.34514 0.60617,1.55119 0.33339,0.20604 0.60616,1.17685 0.60616,2.15735 0,0.9805 0.27278,1.78273 0.60617,1.78273 0.33339,0 0.60617,0.52282 0.60617,1.16182 0,0.639 0.32107,1.26884 0.71349,1.39965 0.89546,0.29848 0.0979,1.68169 -0.96969,1.68169 -1.30511,0 -3.98697,-3.09447 -3.98697,-4.60038 0,-1.33036 -0.56726,-3.0804 -1.9964,-6.15907 -0.34822,-0.75013 -0.99619,-1.36388 -1.43994,-1.36388 -0.44375,0 -0.80682,-0.27277 -0.80682,-0.60616 0,-0.36897 -2.72775,-0.60617 -6.97092,-0.60617 -4.24316,0 -6.97091,0.2372 -6.97091,0.60617 0,0.33339 -0.29226,0.60616 -0.64947,0.60616 -1.50353,0 -3.5937,3.5208 -3.5937,6.05344 0,1.0047 -0.27277,1.82673 -0.60616,1.82673 -0.3334,0 -0.60617,0.56503 -0.60617,1.25563 0,1.34201 -1.31165,2.98753 -2.38137,2.98753 -0.3572,0 -0.64946,-0.81832 -0.64946,-1.8185 z m 21.10997,-14.39645 c 0.64566,-1.26141 0.2065,-5.60704 -0.56663,-5.60704 -0.29692,0 -0.53985,-0.81832 -0.53985,-1.8185 0,-1.00017 -0.27277,-1.8185 -0.60617,-1.8185 -0.33339,0 -0.60616,-0.80222 -0.60616,-1.78272 0,-0.9805 -0.27278,-1.95131 -0.60617,-2.15736 -0.33339,-0.20605 -0.60617,-0.97985 -0.60617,-1.71956 0,-1.14525 -1.81773,-3.43286 -2.72774,-3.43286 -1.00859,0 -2.72775,2.35458 -2.72775,3.73594 0,0.90641 -0.24396,1.79879 -0.54214,1.98307 -0.29817,0.18428 -0.69189,1.35968 -0.87492,2.61198 -0.62955,4.30739 -1.14637,6.21701 -1.68258,6.21701 -0.62142,0 -0.73659,3.84188 -0.13325,4.44522 0.22226,0.22226 2.94041,0.40411 6.04034,0.40411 4.75687,0 5.72093,-0.1655 6.17919,-1.06079 z"
       id="path42" />
    <path
       style="fill:#ffffff;stroke-width:0.606166"
       d="m 696.48525,265.80399 v -19.09424 h 1.72455 c 1.99949,0 3.73095,1.63968 3.73095,3.53318 0,0.72388 0.27278,1.31615 0.60617,1.31615 0.33339,0 0.60616,0.52606 0.60616,1.16903 0,0.64297 0.40917,1.5782 0.90925,2.07829 0.50009,0.50009 0.90925,1.3416 0.90925,1.87002 0,0.52842 0.25469,1.43443 0.56598,2.01334 0.31128,0.57891 0.91638,2.34825 1.34467,3.93186 0.42828,1.58361 0.99191,2.87929 1.25252,2.87929 0.26061,0 0.47383,0.52945 0.47383,1.17655 0,0.64711 0.27278,1.34515 0.60617,1.55119 0.33339,0.20605 0.60617,1.02692 0.60617,1.82416 0,0.79723 0.38549,1.66765 0.85665,1.93426 0.47117,0.26661 0.94852,1.30307 1.0608,2.30325 0.18185,1.62005 0.45218,1.83903 2.47725,2.00663 1.95209,0.16156 2.27313,0.0118 2.27313,-1.06079 0,-0.68691 0.27277,-1.24892 0.60616,-1.24892 0.33339,0 0.60617,-0.64854 0.60617,-1.4412 0,-0.79266 0.40916,-1.78077 0.90925,-2.1958 0.50009,-0.41504 0.90925,-1.13408 0.90925,-1.59787 0,-0.46378 0.27277,-1.3851 0.60616,-2.04736 l 1.21234,-2.40821 c 0.33339,-0.66226 0.60616,-1.73726 0.60616,-2.38889 0,-0.65163 0.27278,-1.35337 0.60617,-1.55942 0.33339,-0.20605 0.60617,-1.17686 0.60617,-2.15736 0,-0.98049 0.27277,-1.78272 0.60616,-1.78272 0.3334,0 0.61485,-0.61374 0.62545,-1.36388 0.0106,-0.75013 0.41976,-1.89336 0.90925,-2.54052 0.48948,-0.64715 0.88997,-1.55976 0.88997,-2.02801 0,-0.46824 0.56412,-1.6436 1.25361,-2.61189 0.9668,-1.35775 1.72955,-1.76053 3.33391,-1.76053 h 2.08031 v 18.79116 18.79116 h -1.50424 -1.50425 l -0.16271,-14.09337 -0.16272,-14.09337 -1.41305,-0.20015 c -1.64545,-0.23306 -3.08549,1.35122 -3.11392,3.42582 -0.0106,0.77395 -0.42844,1.81634 -0.92852,2.31642 -0.50009,0.50009 -0.90925,1.57171 -0.90925,2.38137 0,0.80967 -0.27278,1.47212 -0.60617,1.47212 -0.33339,0 -0.60617,0.52945 -0.60617,1.17656 0,0.64711 -0.27277,1.34514 -0.60616,1.55119 -0.33339,0.20605 -0.60617,1.17686 -0.60617,2.15736 0,0.98049 -0.27277,1.78272 -0.60617,1.78272 -0.33339,0 -0.60616,0.80223 -0.60616,1.78273 0,0.98049 -0.27278,1.9513 -0.60617,2.15735 -0.33339,0.20605 -0.60616,0.87069 -0.60616,1.47697 0,0.60629 -0.40917,1.44191 -0.90925,1.85695 -0.50009,0.41503 -0.90925,1.27046 -0.90925,1.90094 0,0.63049 -0.34097,1.75638 -0.75771,2.50199 -0.41674,0.74561 -0.81291,1.45632 -0.88039,1.57935 -0.25242,0.4603 -1.85475,-1.54233 -2.26286,-2.82818 -0.23315,-0.73458 -0.6783,-1.3356 -0.98922,-1.3356 -0.31093,0 -0.56532,-0.81833 -0.56532,-1.8185 0,-1.00018 -0.27278,-1.8185 -0.60617,-1.8185 -0.33339,0 -0.60616,-0.68194 -0.60616,-1.51542 0,-0.83348 -0.20637,-1.51541 -0.45858,-1.51541 -0.50266,0 -1.96609,-4.27923 -1.96609,-5.74904 0,-0.50534 -0.27278,-0.91879 -0.60617,-0.91879 -0.33339,0 -0.60616,-0.42865 -0.60616,-0.95255 0,-0.5239 -0.40917,-1.36171 -0.90925,-1.8618 -0.50009,-0.50009 -0.90925,-1.5717 -0.90925,-2.38137 0,-0.80966 -0.27278,-1.47212 -0.60617,-1.47212 -0.33339,0 -0.60617,-0.63966 -0.60617,-1.42146 0,-1.93308 -1.81101,-3.47484 -3.54808,-3.02059 -1.31484,0.34384 -1.36309,0.55571 -0.99567,4.37174 0.21238,2.20572 0.52052,8.57938 0.68476,14.16368 l 0.29863,10.15329 h -1.55374 -1.55373 z"
       id="path43" />
    <path
       style="fill:#ffffff;stroke-width:0.606166"
       d="m 745.1664,256.10533 c 0.003,-2.00035 0.11657,-2.7456 0.25148,-1.65611 0.13491,1.0895 0.13212,2.72615 -0.006,3.637 -0.13831,0.91086 -0.24869,0.0195 -0.24529,-1.98089 z"
       id="path44" />
    <path
       style="fill:#ffffff;stroke-width:0.606166"
       d="m 742.1998,283.13025 c -0.13863,-0.13892 -0.25206,-8.52674 -0.25206,-18.63962 v -18.38705 h 13.33566 c 12.93155,0 13.33566,0.0367 13.33566,1.21233 0,1.16723 -0.40411,1.21234 -10.86142,1.21234 -5.97378,0 -11.29289,0.16557 -11.82024,0.36793 -1.31755,0.50559 -1.41068,11.9963 -0.1078,13.29919 0.64832,0.64832 3.27145,0.89068 11.01263,1.01749 7.46889,0.12235 10.22837,0.36725 10.41356,0.92417 0.19453,0.58499 -2.0049,0.76231 -9.64875,0.77788 -12.77594,0.026 -12.6365,-0.062 -12.60919,7.95716 0.0287,8.42096 -0.49885,8.08608 12.73785,8.08608 5.98623,0 10.8839,0.20458 10.88371,0.45463 -1.9e-4,0.25004 0.46337,0.45462 1.03013,0.45462 0.71439,0 0.83682,0.19366 0.39914,0.63135 -0.60189,0.60188 -27.2748,1.20672 -27.84888,0.6315 z"
       id="path45" />
  </g>
</svg>
