<?xml version="1.0" encoding="UTF-8" standalone="no"?>
<svg
   height="165.667"
   viewBox="0 0 567.038 149.1"
   width="630.043"
   version="1.1"
   id="svg8"
   sodipodi:docname="cinematronics.svg"
   inkscape:version="1.4.2 (f4327f4, 2025-05-13)"
   xmlns:inkscape="http://www.inkscape.org/namespaces/inkscape"
   xmlns:sodipodi="http://sodipodi.sourceforge.net/DTD/sodipodi-0.dtd"
   xmlns="http://www.w3.org/2000/svg"
   xmlns:svg="http://www.w3.org/2000/svg">
  <defs
     id="defs8" />
  <sodipodi:namedview
     id="namedview8"
     pagecolor="#ffffff"
     bordercolor="#000000"
     borderopacity="0.25"
     inkscape:showpageshadow="2"
     inkscape:pageopacity="0.0"
     inkscape:pagecheckerboard="0"
     inkscape:deskcolor="#d1d1d1"
     inkscape:zoom="2.0179225"
     inkscape:cx="303.28222"
     inkscape:cy="162.29563"
     inkscape:window-width="1920"
     inkscape:window-height="1009"
     inkscape:window-x="-8"
     inkscape:window-y="-8"
     inkscape:window-maximized="1"
     inkscape:current-layer="svg8" />
  <rect
     fill="#ffffff"
     height="61.475971"
     rx="16.8249"
     ry="17.069126"
     stroke="#ffffff"
     stroke-width="4.48584"
     width="153.07787"
     x="146.66893"
     y="44.144974"
     id="rect1" />
  <rect
     fill="none"
     height="143.64664"
     rx="12.251333"
     ry="9.750227"
     stroke="#ffffff"
     width="560.26978"
     x="3.3841383"
     y="2.7266841"
     id="rect2"
     style="fill:#000000;stroke-width:4.98427" />
  <rect
     fill="none"
     height="122.02188"
     rx="12.251333"
     ry="9.750227"
     stroke="#ffffff"
     width="537.68005"
     x="13.699581"
     y="13.816683"
     id="rect3"
     style="stroke-width:4.98427" />
  <path
     d="m 44.7436,26.102911 c 32.318001,-3.238778 62.90347,-3.229806 91.77235,0 11.58743,1.29591 21.04758,9.317592 21.04758,20.894056 v 56.027173 c 0,11.57547 -9.49205,19.34096 -21.04758,20.89406 -29.19485,3.92461 -59.733469,4.07015 -91.771353,0 -11.566494,-1.46936 -21.04757,-9.31859 -21.04757,-20.89406 V 46.99597 c 0,-11.575467 9.446186,-19.731724 21.04757,-20.894056 z"
     fill="#ffffff"
     id="path3"
     style="fill:#cccccc;stroke-width:4.98427" />
  <path
     d="m 178.16949,26.102911 c 32.08075,-3.238778 62.44292,-3.229806 91.10247,0 11.5027,1.29591 20.89406,9.317592 20.89406,20.894056 v 56.027173 c 0,11.57547 -9.42326,19.34096 -20.89406,20.89406 -28.98253,3.92461 -59.29785,4.07015 -91.10247,0 -11.48176,-1.46936 -20.89406,-9.31859 -20.89406,-20.89406 V 46.99597 c 0,-11.575467 9.37641,-19.731724 20.89406,-20.894056 z m 133.11288,0 c 32.41171,-3.238778 63.08888,-3.229806 92.0435,0 11.62132,1.29591 21.11037,9.317592 21.11037,20.894056 v 56.027173 c 0,11.57547 -9.52095,19.34096 -21.11037,20.89406 -29.28158,3.92461 -59.91091,4.07015 -92.0435,0 C 299.68198,122.44884 290.172,114.59961 290.172,103.02414 V 46.99597 c 0,-11.575467 9.4741,-19.731724 21.11037,-20.894056 z"
     fill="#ffffff"
     id="path4"
     style="fill:#cccccc;stroke-width:4.98427" />
  <path
     d="m 72.055401,70.105035 v -1.539142 c -0.390767,-8.069532 -4.579547,-8.107412 -11.898447,-8.107412 -8.650698,0 -12.291208,2.026603 -12.291208,11.035171 v 6.456622 c 0.117629,8.220057 1.957821,11.48575 12.291208,11.109936 7.280023,-0.300053 12.329088,0 12.211459,-8.483226 v -1.839195 h -5.636212 v 1.539142 c 0,4.017321 -2.035575,4.166849 -6.575247,4.166849 -5.911343,0 -6.615122,-1.088564 -6.654,-6.718795 v -6.230336 c 0,-5.518583 0.977914,-6.419738 6.654,-6.419738 4.931435,0 6.262235,0.225289 6.262235,3.490982 v 1.539142 z M 83.608936,60.68377 h -5.636211 v 28.151151 h 5.636211 z m 29.484944,23.534721 h -0.15651 L 100.37203,60.682773 h -9.315599 v 28.152148 h 5.636212 L 96.224121,65.3002 h 0.195384 L 108.9051,88.835918 h 9.35547 V 60.68377 h -5.63721 z M 130.76112,65.3002 h 14.48229 v -4.61643 h -20.1185 v 28.151151 h 20.23613 v -4.61643 h -14.59992 v -7.469426 h 13.73864 v -4.429021 h -13.73864 z m 49.31336,-0.187409 h 0.19538 l -0.46852,23.72213 h 5.62425 V 60.68377 h -9.21791 l -7.81234,20.907014 h -0.15651 L 160.27098,60.68377 h -9.02252 v 28.151151 h 5.62425 l -0.46853,-23.609486 h 0.11664 l 9.29666,23.609486 h 5.03909 z"
     id="path5"
     style="stroke-width:0.996854" />
  <path
     d="m 452.35812,61.134347 v 28.447218 h -3.39429 V 61.134347 Z"
     fill="#fffffb"
     id="path6"
     style="fill:#cccccc;stroke-width:0.996854" />
  <path
     d="m 209.32416,83.504744 1.91895,5.330177 h 5.71496 L 207.01545,60.68377 h -8.29781 l -9.74624,28.151151 h 5.83159 l 1.8402,-5.330177 z m -1.25205,-4.091088 h -10.138 l 5.01119,-14.600918 h 0.0778 z M 229.39482,65.3002 h 8.61182 v -4.61643 h -22.85886 v 4.61643 h 8.61083 v 23.535718 h 5.63621 z m 26.34884,14.2261 c 2.70147,0.03788 3.71826,1.688671 3.71826,4.054205 v 5.254416 h 5.63621 v -5.254416 c 0,-3.979441 -0.97791,-6.043925 -4.97031,-6.380862 v -0.150525 c 4.97031,-0.713747 5.20557,-3.753154 5.20557,-7.920003 0,-6.380861 -2.46622,-8.294821 -8.88496,-8.445345 h -14.99268 v 28.151151 h 5.63721 V 79.5263 Z m -8.6507,-4.61643 V 65.3002 h 7.82829 c 4.03228,0 4.77493,0.713747 4.77493,4.69219 0,4.128969 -1.01679,4.91748 -5.16569,4.91748 z m 35.72923,-15.188064 c -9.51497,0 -12.673,1.579016 -12.673,10.549703 v 7.777454 c 0,9.471108 3.39828,11.011247 12.67201,11.011247 9.07535,0 12.79262,-1.771409 12.79262,-11.011247 v -7.777454 c 0,-9.278715 -4.15688,-10.549703 -12.79262,-10.549703 z m 0,4.735055 c 5.11586,0 7.15542,0.385783 7.0348,5.814648 v 7.777454 c 0,5.582381 -1.79832,6.275195 -7.03579,6.275195 -5.75584,0 -6.91518,-0.538301 -6.91518,-6.275195 v -7.777454 c 0.11962,-4.58154 0.71973,-5.813651 6.91518,-5.813651 z m 40.50217,19.76163 h -0.1555 L 310.60351,60.682773 h -9.3156 v 28.152148 h 5.63721 L 306.45461,65.3002 h 0.19638 l 12.48559,23.535718 h 9.35547 V 60.68377 h -5.63621 z M 340.87697,60.88314 h -5.63622 v 28.151152 h 5.63622 z m 30.1937,9.221895 v -1.539142 c -0.39077,-8.069532 -4.57955,-8.107412 -11.89845,-8.107412 -8.65069,0 -12.2912,2.026603 -12.2912,11.035171 v 6.456622 c 0.11763,8.220057 1.95682,11.48575 12.2912,11.109936 7.28003,-0.300053 12.32909,0 12.21146,-8.483226 v -1.839195 h -5.63621 v 1.539142 c 0,4.017321 -2.03557,4.166849 -6.57525,4.166849 -5.91134,0 -6.61512,-1.088564 -6.65499,-6.718795 v -6.230336 c 0,-5.518583 0.97891,-6.419738 6.65499,-6.419738 4.93144,0 6.26224,0.225289 6.26224,3.490982 v 1.539142 z m 3.63553,9.758202 v 1.31485 c 0,8.069532 5.79371,7.882123 12.2912,7.882123 7.55416,0 11.46881,-0.675867 11.46881,-8.59587 0,-7.168376 -2.46622,-7.618954 -11.50768,-8.144296 -5.71497,-0.33893 -6.45962,-0.450578 -6.45962,-3.903679 0,-3.003521 0.90116,-3.528863 6.49849,-3.528863 3.95353,0 5.24445,0.112645 5.24445,3.153049 v 0.901155 h 5.63721 v -0.901155 c 0,-7.394662 -4.89355,-7.58207 -10.88166,-7.58207 -7.04576,0 -12.1337,0.225289 -12.1337,7.957884 0,8.182176 5.01019,7.956887 11.35117,8.3327 4.38317,0.225289 6.61413,-0.301049 6.61413,3.715275 0,3.265693 -0.70378,4.166849 -5.8316,4.166849 -5.20557,0 -6.65399,-0.225289 -6.65399,-3.453102 v -1.313853 z"
     id="path7"
     style="stroke-width:0.996854" />
  <path
     d="m 482.14511,61.134347 v 28.447218 h -5.2913 l -16.24374,-25.70587 v 25.70587 h -3.15903 V 61.134347 h 5.24545 l 16.28959,25.988976 V 61.134347 Z m 24.20161,18.35507 h 3.17 q 0,0.455562 0.0688,1.365689 0.0688,0.912122 0.0688,1.366687 0,6.609141 -6.35195,7.217221 -2.30273,0.13956 -4.57257,0.13956 h -4.01433 q -3.04439,-0.233264 -4.73206,-1.541136 -1.67671,-1.319834 -2.33762,-3.363385 -0.66191,-2.054515 -0.76459,-4.927448 -0.10268,-2.872933 -0.1595,-4.939411 v -4.647332 q 0,-2.93075 0.61606,-4.974301 0.62702,-2.055512 2.23494,-3.30457 1.6189,-1.262017 4.48186,-1.565061 1.77839,-0.245226 5.56444,-0.245226 3.02146,0 4.75499,0.349896 1.74449,0.350893 2.74833,1.29591 1.00383,0.947011 1.47135,2.733373 0.46753,1.7744 0.64995,4.904521 h -3.18196 q 0,-2.511075 -0.33095,-3.807982 -0.319,-1.306875 -1.41354,-1.948849 -1.08358,-0.653936 -3.34145,-0.653936 -2.69151,0 -6.03197,0.233264 -2.05352,0.175446 -3.10221,0.968942 -1.03672,0.78253 -1.37964,2.160182 -0.33096,1.36569 -0.33096,3.71328 v 6.748701 q 0,5.991091 1.12944,8.081494 1.0148,1.868104 5.69004,1.868104 0.34192,0 1.24308,0.04685 0.90115,0.04685 1.4255,0.04685 2.91879,0 4.82377,-0.81742 1.90399,-0.829383 1.9957,-3.199901 0,-0.572194 -0.0458,-1.680696 -0.0459,-1.109498 -0.0459,-1.623874 z m 11.93234,5.704994 v 4.017321 h -3.40924 v -4.017321 z"
     fill="#fffffb"
     id="path8"
     style="fill:#cccccc;stroke-width:0.996854" />
  <text
     fill="#ef00eb"
     font-family="TrasksHand"
     font-size="1.8px"
     stroke="#0105ff"
     stroke-width="2.25"
     x="228.82599"
     y="143.86201"
     id="text8"><tspan
       fill="#fafafa"
       fill-opacity="0.4"
       stroke="none"
       x="228.82599"
       y="143.86201"
       id="tspan8">John Loreth 2022</tspan></text>
</svg>
