<?xml version="1.0" encoding="utf-8"?>
<!-- Generator: Adobe Illustrator 19.0.0, SVG Export Plug-In . SVG Version: 6.00 Build 0)  -->
<svg version="1.1" id="Camada_1" xmlns="http://www.w3.org/2000/svg" xmlns:xlink="http://www.w3.org/1999/xlink" x="0px" y="0px"
	 viewBox="0 0 510.8 120.7" style="enable-background:new 0 0 510.8 120.7;" xml:space="preserve">
<style type="text/css">
	.st0{fill-rule:evenodd;clip-rule:evenodd;fill:#69A53C;}
</style>
<g>
	<path class="st0" d="M242.5,22c5,10,7.6,21,8,32.9c0,1.3,0,2.7-0.1,4l-56.6-0.1l-0.9-0.5c1.8-15.6,4.1-31,14.5-43.1
		c5.6-6.1,13.6-9.9,21.7-6.7C235,10.6,239.7,16.7,242.5,22L242.5,22z"/>
	<path class="st0" d="M189,89.7c0.2-0.5,0.6-1.3,0.6-1.3c0.3-0.1,25.5,6.9,25.5,6.9c0.7,0.2,1.6,0.1,2.2-0.4
		c0.4-0.3,0.5-0.8,0.4-1.3c-0.4-1.8-2.2-1.4-3.4-1.8c-9.9-2.5-19.9-12-22.4-21.9c-0.5-2.1-1-4.2-1.2-6.4h62.1
		c-1.7,10.4-6.9,21.8-17.6,25.9l-10.9,3.6c-0.7,0.3-1.3,1.1-1.5,1.9c-0.2,1.3,0.4,2.5,1.5,3.1l1.2,0.8c4.9,1.3,9.8,2.7,14.9,4.2
		c5.8,1.7,11.5,3.5,17,5.3c-1.1,0.7-2.3,1.4-3.5,2.3c-1.2,0.9-2.3,1.8-3.3,2.7c-0.1,0-11.8-4.7-11.9-4.8c-6.6-2.8-15.1-6.3-23.8-9.6
		L189,89.7z"/>
</g>
<g>
	<path d="M42.6,73.7v5.6h-11v-3.9c-3.1,3-6.5,4.4-10.2,4.4c-2.9,0-5.5-1-7.6-2.9c-2.2-1.9-3.2-4.3-3.2-7.3c0-3,1.1-5.5,3.4-7.4
		c2.3-2,5.1-3,8.3-3c3,0,5.9,0.9,8.7,2.7v-3.2c0-1.6-0.2-2.9-0.5-3.8c-0.3-0.9-1-1.7-2.2-2.4c-1.1-0.7-2.6-1.1-4.5-1.1
		c-3.2,0-5.5,1.3-6.9,3.8l-6-1.6c2.7-5,7.3-7.5,13.9-7.5c2.4,0,4.5,0.3,6.3,1c1.8,0.7,3.1,1.5,3.9,2.5s1.4,2.1,1.7,3.3
		s0.4,3.1,0.4,5.7v14.9H42.6z M30.9,67.4c-2.7-2.1-5.5-3.2-8.3-3.2c-1.7,0-3.2,0.5-4.4,1.5c-1.2,1-1.8,2.3-1.8,4
		c0,1.5,0.5,2.8,1.5,3.8c1,1,2.4,1.5,4.2,1.5c3.1,0,5.9-1.3,8.7-3.9V67.4z"/>
	<path d="M73.9,47.2v12.2h-5.6C68,57,67,55.2,65.4,54c-1.6-1.2-3.5-1.9-5.6-1.9c-2.8,0-5.1,1-6.9,3c-1.8,2-2.7,4.6-2.7,7.9
		c0,3,0.8,5.7,2.5,8c1.7,2.3,4.1,3.5,7.3,3.5c4.4,0,7.6-2.1,9.6-6.3l5.2,2.5c-2.9,6.4-7.9,9.6-15.1,9.6c-5.1,0-9.1-1.7-12-5.2
		c-2.9-3.5-4.4-7.5-4.4-12c0-4.8,1.6-8.8,4.8-12s6.9-4.7,11-4.7c3.6,0,6.6,1.1,9,3.2v-2.3H73.9z"/>
	<path d="M76.7,63.3c0-5,1.6-9,4.9-12.2c3.3-3.2,7.3-4.8,12-4.8c4.6,0,8.6,1.6,11.9,4.7s5,7.2,5,12.3s-1.7,9.1-5,12.3
		c-3.3,3.1-7.3,4.7-11.9,4.7c-4.8,0-8.8-1.6-12-4.8C78.3,72.3,76.7,68.2,76.7,63.3z M83.4,63.2c0,3.2,1,5.8,3,7.8c2,2,4.4,3,7.3,3
		c2.9,0,5.3-1,7.3-3.1c2-2,2.9-4.6,2.9-7.8c0-3.2-1-5.7-3-7.8c-2-2-4.4-3.1-7.2-3.1c-3,0-5.4,1-7.3,3.1
		C84.3,57.6,83.4,60.2,83.4,63.2z"/>
	<path d="M118.7,73.7V52.8h-6.5v-5.6h11.5v7.2c0.7-1.9,1.7-3.4,3-4.7c1.3-1.2,2.6-2.1,4-2.5c1.4-0.4,3.3-0.6,5.8-0.6h1.7v6.4h-1.3
		c-3.2,0-5.6,0.3-7.2,1c-1.6,0.6-2.8,1.8-3.5,3.5s-1.1,4.7-1.1,9.1v7.1h7v5.6h-19.8v-5.6H118.7z"/>
	<path d="M152.5,47.2v3.9c4.1-2.9,7.7-4.4,11.1-4.4c2.1,0,3.8,0.5,5.2,1.5s2.3,2.2,2.7,3.6c0.4,1.4,0.6,3.5,0.6,6.3v15.7h5.4v5.6
		h-11.7v-21c0-2.4-0.4-4-1.1-4.8s-1.6-1.1-2.7-1.1c-2.8,0-5.9,1.4-9.5,4.1v17.2h5.5v5.6h-17.5v-5.6h5.6V52.8h-5.6v-5.6H152.5z"/>
	<path d="M299.5,64.9h-27c0.4,3,1.6,5.4,3.5,7.2c1.9,1.8,4.4,2.8,7.5,2.8c4.4,0,7.9-1.8,10.5-5.3l5.6,2.5c-1.8,2.8-4.2,4.9-7.1,6.3
		c-2.9,1.4-5.9,2-9.1,2c-4.9,0-9.1-1.5-12.6-4.6s-5.2-7.2-5.2-12.4c0-4.9,1.7-9,5.1-12.2c3.4-3.2,7.3-4.8,11.7-4.8
		c4.3,0,8.2,1.6,11.7,4.7C297.5,54.1,299.3,58.7,299.5,64.9z M293,60.3c-0.4-2.3-1.6-4.3-3.5-6.1c-1.9-1.8-4.2-2.7-7-2.7
		c-2.5,0-4.7,0.8-6.5,2.5s-2.9,3.8-3.3,6.4H293z"/>
	<path d="M306.7,73.7v-35H301v-5.6h12v40.6h4.9v5.6H301v-5.6H306.7z"/>
	<path d="M353.5,64.9h-27c0.4,3,1.6,5.4,3.5,7.2c1.9,1.8,4.4,2.8,7.5,2.8c4.4,0,7.9-1.8,10.5-5.3l5.6,2.5c-1.8,2.8-4.2,4.9-7.1,6.3
		c-2.9,1.4-5.9,2-9.1,2c-4.9,0-9.1-1.5-12.6-4.6s-5.2-7.2-5.2-12.4c0-4.9,1.7-9,5.1-12.2c3.4-3.2,7.3-4.8,11.7-4.8
		c4.3,0,8.2,1.6,11.7,4.7C351.6,54.1,353.4,58.7,353.5,64.9z M347,60.3c-0.4-2.3-1.6-4.3-3.5-6.1c-1.9-1.8-4.2-2.7-7-2.7
		c-2.5,0-4.7,0.8-6.5,2.5s-2.9,3.8-3.3,6.4H347z"/>
	<path d="M386.6,47.2v12.2h-5.6c-0.3-2.3-1.2-4.1-2.8-5.3c-1.6-1.2-3.5-1.9-5.6-1.9c-2.8,0-5.1,1-6.9,3c-1.8,2-2.7,4.6-2.7,7.9
		c0,3,0.8,5.7,2.5,8c1.7,2.3,4.1,3.5,7.3,3.5c4.4,0,7.6-2.1,9.6-6.3l5.2,2.5c-2.9,6.4-7.9,9.6-15.1,9.6c-5.1,0-9.1-1.7-12-5.2
		c-2.9-3.5-4.4-7.5-4.4-12c0-4.8,1.6-8.8,4.8-12s6.9-4.7,11-4.7c3.6,0,6.6,1.1,9,3.2v-2.3H386.6z"/>
	<path d="M388.8,52.8v-5.6h4.2v-4.9l6.3-5.8v10.7h5.9v5.6h-5.9v15.6c0,2.5,0.1,4,0.4,4.6c0.3,0.6,1,0.9,2.1,0.9
		c1.2,0,2.3-0.2,3.5-0.7V79c-1.6,0.6-3.2,0.9-4.8,0.9c-1.9,0-3.5-0.4-4.7-1.3s-1.9-1.9-2.3-3.2c-0.3-1.3-0.5-3.5-0.5-6.6V52.8H388.8
		z"/>
	<path d="M412.8,73.7V52.8h-6.5v-5.6h11.5v7.2c0.7-1.9,1.7-3.4,3-4.7c1.3-1.2,2.6-2.1,4-2.5c1.4-0.4,3.3-0.6,5.8-0.6h1.7v6.4H431
		c-3.2,0-5.6,0.3-7.2,1c-1.6,0.6-2.8,1.8-3.5,3.5s-1.1,4.7-1.1,9.1v7.1h7v5.6h-19.8v-5.6H412.8z"/>
	<path d="M430.7,63.3c0-5,1.6-9,4.9-12.2c3.3-3.2,7.3-4.8,12-4.8c4.6,0,8.6,1.6,11.9,4.7s5,7.2,5,12.3s-1.7,9.1-5,12.3
		c-3.3,3.1-7.3,4.7-11.9,4.7c-4.8,0-8.8-1.6-12-4.8C432.3,72.3,430.7,68.2,430.7,63.3z M437.4,63.2c0,3.2,1,5.8,3,7.8
		c2,2,4.4,3,7.3,3c2.9,0,5.3-1,7.3-3.1c2-2,2.9-4.6,2.9-7.8c0-3.2-1-5.7-3-7.8c-2-2-4.4-3.1-7.2-3.1c-3,0-5.4,1-7.3,3.1
		C438.4,57.6,437.4,60.2,437.4,63.2z"/>
	<path d="M478.5,47.2v3.9c4.1-2.9,7.7-4.4,11.1-4.4c2.1,0,3.8,0.5,5.2,1.5s2.3,2.2,2.7,3.6c0.4,1.4,0.6,3.5,0.6,6.3v15.7h5.4v5.6
		h-11.7v-21c0-2.4-0.4-4-1.1-4.8s-1.6-1.1-2.7-1.1c-2.8,0-5.9,1.4-9.5,4.1v17.2h5.5v5.6h-17.5v-5.6h5.6V52.8h-5.6v-5.6H478.5z"/>
</g>
</svg>
