<?xml version="1.0" encoding="UTF-8" standalone="no"?>
<!-- Created with Inkscape (http://www.inkscape.org/) -->

<svg
   width="210mm"
   height="47mm"
   viewBox="0 0 210 47"
   version="1.1"
   id="svg1"
   inkscape:version="1.4.2 (f4327f4, 2025-05-13)"
   sodipodi:docname="plus-logo.svg"
   xmlns:inkscape="http://www.inkscape.org/namespaces/inkscape"
   xmlns:sodipodi="http://sodipodi.sourceforge.net/DTD/sodipodi-0.dtd"
   xmlns="http://www.w3.org/2000/svg"
   xmlns:svg="http://www.w3.org/2000/svg">
  <sodipodi:namedview
     id="namedview1"
     pagecolor="#ffffff"
     bordercolor="#000000"
     borderopacity="0.25"
     inkscape:showpageshadow="2"
     inkscape:pageopacity="0.0"
     inkscape:pagecheckerboard="0"
     inkscape:deskcolor="#d1d1d1"
     inkscape:document-units="mm"
     inkscape:zoom="0.73851712"
     inkscape:cx="398.77207"
     inkscape:cy="561.25984"
     inkscape:window-width="1920"
     inkscape:window-height="1009"
     inkscape:window-x="-8"
     inkscape:window-y="-8"
     inkscape:window-maximized="1"
     inkscape:current-layer="layer1" />
  <defs
     id="defs1" />
  <g
     inkscape:label="Camada 1"
     inkscape:groupmode="layer"
     id="layer1">
    <path
       id="path908"
       style="fill:#181f26;fill-opacity:1;stroke:#f400f6;stroke-width:0;stroke-linecap:butt;stroke-linejoin:miter;stroke-miterlimit:4;stroke-dasharray:none;stroke-opacity:1"
       d="m 140.14674,1.4854005 c -3.17243,0.122873 -4.18089,3.25086 -3.49591,8.7312495 -8.68553,-5.8836595 -20.42277,-3.3614615 -23.7722,6.025988 l -4.83381,0.132292 C 103.08609,13.7141 99.416303,14.233202 96.324087,16.176492 92.926558,13.097352 88.043061,14.26367 83.477843,14.52078 78.816485,14.2694 73.518537,13.265704 70.671906,15.158984 c -4.087982,-1.1436 -8.385092,-1.65429 -13.217797,1.1498 -4.617473,-2.89715 -8.361053,-1.948007 -12.118124,-1.059367 -5.43028,-1.43575 -10.24108,-1.456312 -14.435294,-0.06666 -4.685322,-1.77175 -6.688458,-0.860972 -8.608261,0.132808 -1.814652,-2.69119 -3.846261,-5.027765 -7.019209,-5.4963045 H 6.267569 C 3.347891,10.111498 1.248308,11.355217 1.433755,15.249417 l -0.10697,17.562236 c 0.830223,6.604402 9.632102,4.667692 17.137455,4.120162 4.724776,1.42301 6.849309,-0.18695 8.42791,-2.43448 2.133061,1.057 1.669417,3.52022 7.585583,2.52801 3.004083,1.21314 5.754203,0.96805 8.053255,-1.87275 3.910036,2.01 7.818185,4.02381 14.65802,-0.17053 3.474737,2.32104 7.354649,3.83192 13.177491,1.45676 l 5.628597,1.05988 c 4.630951,-0.36039 9.995462,1.26024 13.508219,-2.11925 3.011916,1.68584 8.22926,4.60749 12.846765,-0.99322 1.40753,3.41782 4.40271,4.45381 8.80669,3.37705 -0.32651,2.6298 -0.0888,4.01785 0.19844,5.29735 5.90716,3.26385 9.95666,0.95398 13.0452,-4.23798 5.54088,0.42101 11.49413,-1.15012 15.56132,-5.69474 4.54584,5.54465 11.85343,7.54858 23.27972,4.27209 3.41493,1.23535 7.15478,1.77412 11.79928,0.37465 10.20516,1.9676 24.91709,1.03052 23.31796,-16.388145 4.29434,-2.00493 11.61171,0.14701 10.39471,-13.1103095 -12.16377,-2.84202 -19.45287,0.194153 -23.13037,7.5855825 -0.83773,-2.87601 0.78011,-6.9803585 -3.62355,-8.0734085 -3.65005,-0.86066 -9.54803,2.13406 -10.12083,6.9313595 -0.74306,3.89752 1.24182,11.460202 -3.04581,10.594702 -3.3372,-0.3089 -1.68107,-7.009512 -2.25154,-10.859802 -1.56345,-6.7591695 -12.79442,-9.5392825 -12.97854,-4.105693 l -0.1328,14.700395 -3.17811,-1.32395 c -0.7194,-7.05842 0.88291,-16.7552135 -3.31091,-19.8654535 -2.91668,-1.678611 -5.17246,-2.438895 -6.8342,-2.374532 z M 127.08242,20.401558 c 0.43091,-0.01976 0.91716,0.05764 1.46037,0.253214 1.83259,0.93033 1.94002,3.913697 -0.82217,5.045687 -0.82264,0.3371 -1.79638,0.06821 -3.10989,0.135909 -0.57381,-2.393769 0.14476,-5.328119 2.47169,-5.43481 z" />
    <path
       sodipodi:nodetypes="ccsccc"
       inkscape:connector-curvature="0"
       id="path868"
       d="M 4.698074,34.122505 V 13.192541 c 2.060449,0.0242 5.967146,-0.53011 8.821875,-0.082 4.255638,0.66805 8.007286,4.53434 4.101317,9.72753 3.834805,3.47995 2.070035,11.456014 -3.008415,11.236964 z"
       style="fill:#ea6020;fill-opacity:1;stroke:#000000;stroke-width:0;stroke-linecap:butt;stroke-linejoin:miter;stroke-miterlimit:4;stroke-dasharray:none;stroke-opacity:1" />
    <path
       sodipodi:nodetypes="ccccc"
       inkscape:connector-curvature="0"
       id="path870"
       d="m 7.554285,31.359931 v -6.78935 h 7.117124 c 3.592634,0.28646 3.363549,6.43905 0,6.78935 z"
       style="fill:#181f26;fill-opacity:1;stroke:#000000;stroke-width:0;stroke-linecap:butt;stroke-linejoin:miter;stroke-miterlimit:4;stroke-dasharray:none;stroke-opacity:1" />
    <path
       style="fill:#181f26;fill-opacity:1;stroke:#000000;stroke-width:0;stroke-linecap:butt;stroke-linejoin:miter;stroke-miterlimit:4;stroke-dasharray:none;stroke-opacity:1"
       d="m 7.519415,21.749241 v -5.88934 h 6.173646 c 3.11638,0.24848 2.917665,5.58547 0,5.88934 z"
       id="path872"
       inkscape:connector-curvature="0"
       sodipodi:nodetypes="ccccc" />
    <path
       sodipodi:nodetypes="ccccccccc"
       inkscape:connector-curvature="0"
       id="path874"
       d="m 20.664861,32.662401 c 0.0787,1.431124 2.408273,1.940524 2.726877,0 v -3.14888 h 7.206735 v 2.95411 c -0.02663,1.822634 2.813281,2.156204 2.856729,0 v -9.25189 c -1.67592,-7.65943 -12.058925,-6.13179 -12.72542,0 z"
       style="fill:#ea6020;fill-opacity:1;stroke:#000000;stroke-width:0;stroke-linecap:butt;stroke-linejoin:miter;stroke-miterlimit:4;stroke-dasharray:none;stroke-opacity:1" />
    <path
       sodipodi:nodetypes="cccc"
       inkscape:connector-curvature="0"
       id="path876"
       d="m 23.450752,26.607381 h 7.070297 c 0.14176,-2.56051 0.628341,-5.66084 -3.347855,-6.01678 -4.21919,0.0313 -3.851163,3.8263 -3.722442,6.01678 z"
       style="fill:#181f26;fill-opacity:1;stroke:#000000;stroke-width:0;stroke-linecap:butt;stroke-linejoin:miter;stroke-miterlimit:4;stroke-dasharray:none;stroke-opacity:1" />
    <path
       sodipodi:nodetypes="ccccccccc"
       inkscape:connector-curvature="0"
       id="path878"
       d="m 33.946699,17.699241 h 8.707664 c 1.55402,0.16644 1.314363,3.08132 0,3.01292 h -3.344011 v 12.25033 c -0.489655,1.501014 -2.794805,1.240594 -2.91359,0 v -12.18411 h -2.383847 c -1.367012,-0.2994 -1.801889,-2.70079 -0.06622,-3.07914 z"
       style="fill:#ea6020;fill-opacity:1;stroke:#000000;stroke-width:0;stroke-linecap:butt;stroke-linejoin:miter;stroke-miterlimit:4;stroke-dasharray:none;stroke-opacity:1" />
    <ellipse
       ry="6.9275241"
       rx="6.5529394"
       cy="25.998661"
       cx="49.81221"
       id="path880"
       style="fill:none;fill-opacity:1;stroke:#ea6020;stroke-width:2.48329;stroke-linejoin:round;stroke-miterlimit:4;stroke-dasharray:none;stroke-dashoffset:0;stroke-opacity:1" />
    <path
       sodipodi:nodetypes="ccccccc"
       inkscape:connector-curvature="0"
       id="path882"
       d="m 69.969568,22.931771 c -3.058433,-4.17877 -9.126061,-1.63156 -9.036874,3.18396 0.601772,5.22615 5.379738,5.09028 9.083697,2.94985 1.92518,-1.18937 3.898558,1.37343 0.84282,3.41811 -7.562821,4.158074 -12.471981,-1.03251 -12.876374,-6.4616 -0.491606,-7.16185 8.894689,-11.49299 14.187418,-5.19736 1.05191,1.48685 -0.784525,3.84905 -2.200687,2.10704 z"
       style="fill:#ea6020;fill-opacity:1;stroke:#00d200;stroke-width:0;stroke-linecap:butt;stroke-linejoin:miter;stroke-miterlimit:4;stroke-dasharray:none;stroke-opacity:1" />
    <path
       sodipodi:nodetypes="ccccccccccccccc"
       inkscape:connector-curvature="0"
       id="path884"
       d="m 72.989661,32.881701 v -13.64898 c -0.0073,-0.65959 0.06091,-1.42435 1.030111,-1.54515 h 8.217469 c 1.59842,0.38977 1.10209,2.99268 0,3.09033 h -6.204075 v 3.37125 h 4.846199 c 1.659242,0.37626 1.305332,2.7817 0,2.9967 h -4.822787 v 4.12807 h 6.163011 c 1.588909,0.28895 1.375883,2.982994 0,3.012924 h -8.211028 c -0.890722,-0.005 -1.04336,-0.98603 -1.0189,-1.405144 z"
       style="fill:#ea6020;fill-opacity:1;stroke:#000000;stroke-width:0;stroke-linecap:butt;stroke-linejoin:miter;stroke-miterlimit:4;stroke-dasharray:none;stroke-opacity:1" />
    <path
       sodipodi:nodetypes="cccccccccc"
       inkscape:connector-curvature="0"
       id="path886"
       d="m 83.969695,17.874861 v 15.638944 c 0.03577,0.85641 2.327656,1.55944 2.856213,0 v -5.806074 h 2.434806 l 3.839498,5.899724 c 1.217065,1.34956 2.997287,-0.46145 2.153871,-1.826114 l -2.575277,-4.26091 c 4.533458,-2.32966 3.238934,-8.70774 -0.749168,-9.59875 z"
       style="fill:#ea6020;fill-opacity:1;stroke:#000000;stroke-width:0;stroke-linecap:butt;stroke-linejoin:miter;stroke-miterlimit:4;stroke-dasharray:none;stroke-opacity:1" />
    <path
       sodipodi:nodetypes="ccccc"
       inkscape:connector-curvature="0"
       id="path888"
       d="m 86.638615,25.226101 v -4.77597 h 4.869611 c 2.122447,0.54131 2.117149,4.18986 0,4.77597 z"
       style="fill:#181f26;fill-opacity:1;stroke:#000000;stroke-width:0;stroke-linecap:butt;stroke-linejoin:miter;stroke-miterlimit:4;stroke-dasharray:none;stroke-opacity:1" />
    <path
       style="fill:#ea6020;fill-opacity:1;stroke:#000000;stroke-width:0;stroke-linecap:butt;stroke-linejoin:miter;stroke-miterlimit:4;stroke-dasharray:none;stroke-opacity:1"
       d="m 96.020903,32.662401 c 0.07874,1.431124 2.408275,1.940524 2.72687,0 v -3.14888 h 7.206747 v 2.95411 c -0.0266,1.822634 2.81327,2.156204 2.85672,0 v -9.25189 c -1.67591,-7.65943 -12.058913,-6.13179 -12.725413,0 z"
       id="path890"
       inkscape:connector-curvature="0"
       sodipodi:nodetypes="ccccccccc" />
    <path
       style="fill:#181f26;fill-opacity:1;stroke:#000000;stroke-width:0;stroke-linecap:butt;stroke-linejoin:miter;stroke-miterlimit:4;stroke-dasharray:none;stroke-opacity:1"
       d="m 98.806791,26.607381 h 7.070299 c 0.14178,-2.56051 0.62834,-5.66084 -3.34785,-6.01678 -4.219192,0.0313 -3.851163,3.8263 -3.722449,6.01678 z"
       id="path892"
       inkscape:connector-curvature="0"
       sodipodi:nodetypes="cccc" />
    <path
       id="path894"
       style="fill:#fdfdfd;fill-opacity:1;stroke:#005b9c;stroke-width:0;stroke-linecap:butt;stroke-linejoin:miter;stroke-miterlimit:4;stroke-dasharray:none;stroke-opacity:1"
       d="m 126.60286,10.864672 c -9.20552,0.156013 -13.57348,7.850129 -11.58276,18.43195 2.71259,3.06141 1.04177,6.955863 -0.66197,7.260543 v 4.58886 c 3.53315,1.53054 6.68908,-1.8277 7.30446,-5.8999 5.80395,1.0612 13.52575,0.66448 16.47342,-7.167517 2.51568,-6.68415 1.91182,-13.809022 -7.2962,-16.805692 -1.5081,-0.298941 -2.92188,-0.430532 -4.23695,-0.408244 z m 0.47956,9.536886 c 0.43091,-0.01976 0.91716,0.05764 1.46037,0.253214 1.83259,0.93033 1.94002,3.913697 -0.82217,5.045687 -0.82264,0.3371 -1.79638,0.06821 -3.10989,0.135909 -0.57381,-2.393769 0.14476,-5.328119 2.47169,-5.43481 z" />
    <path
       id="path896"
       style="fill:#181f26;fill-opacity:1;stroke:#000000;stroke-width:0;stroke-linecap:butt;stroke-linejoin:miter;stroke-miterlimit:4;stroke-dasharray:none;stroke-opacity:1"
       d="m 126.85671,17.348295 c -5.05507,0.231766 -6.61629,6.60623 -5.36969,11.806515 2.85349,-0.14696 4.96853,0.437834 6.75566,-0.294556 6.00067,-2.45916 5.76766,-8.941032 1.78645,-10.962122 -1.1801,-0.424876 -2.23629,-0.592756 -3.17242,-0.549837 z m 0.49093,3.053044 c 0.36244,0.01591 0.7607,0.09676 1.19528,0.253214 1.83259,0.93033 1.9395,3.914214 -0.82269,5.046204 -0.82264,0.3371 -1.79586,0.06821 -3.10937,0.135909 -0.59507,-2.482428 0.19968,-5.546689 2.73678,-5.435327 z" />
    <ellipse
       ry="2.0307846"
       rx="1.8784757"
       cy="32.833881"
       cx="112.31002"
       id="path900"
       style="fill:#ea6020;fill-opacity:1;stroke:#005b9c;stroke-width:0;stroke-linejoin:round;stroke-miterlimit:4;stroke-dasharray:none;stroke-dashoffset:0;stroke-opacity:1" />
    <path
       sodipodi:nodetypes="ccccccc"
       inkscape:connector-curvature="0"
       id="path902"
       d="M 140.01703,4.9048415 V 23.727751 c 1.12125,10.353304 8.58157,12.971904 20.32125,11.612154 -0.5832,-7.862604 -6.53183,-5.395484 -10.34792,-6.789354 -2.19899,-0.55195 -3.43135,-2.11079 -3.51172,-4.86963 v -12.31448 c -0.0358,-4.3802295 -3.24221,-6.5911495 -6.46161,-6.4615995 z"
       style="fill:#fdfdfd;fill-opacity:1;stroke:#c10000;stroke-width:0;stroke-linecap:butt;stroke-linejoin:miter;stroke-miterlimit:4;stroke-dasharray:none;stroke-opacity:1" />
    <path
       sodipodi:nodetypes="cccccccc"
       inkscape:connector-curvature="0"
       id="path904"
       d="m 156.82654,10.523641 c -0.31874,4.70561 -0.30549,9.80961 0,15.26432 2.97634,11.097394 20.44396,13.674864 24.67582,0 0.49931,-5.49378 0.22726,-10.2162 0,-14.9834 -3.71123,0.0973 -6.3013,2.107 -6.5114,5.63655 -0.1034,5.52423 0.72743,13.13848 -6.88668,12.71384 -6.5776,-1.63158 -4.28965,-8.3809 -5.165,-13.30981 -0.24299,-2.79751 -2.5207,-5.41873 -6.11274,-5.3215 z"
       style="fill:#fdfdfd;fill-opacity:1;stroke:#000000;stroke-width:0;stroke-linecap:butt;stroke-linejoin:miter;stroke-miterlimit:4;stroke-dasharray:none;stroke-opacity:1" />
    <path
       sodipodi:nodetypes="ccccccc"
       inkscape:connector-curvature="0"
       id="path906"
       d="m 177.97077,35.578095 c 7.46084,0.29708 16.15316,-0.15032 16.68691,-8.542114 0.44061,-6.58585 0.67221,-9.79958 6.82045,-10.46244 3.03753,-0.56718 4.93727,-2.117 4.10553,-6.02583 -5.81143,0.47591 -14.53235,-1.5797295 -16.81937,8.01236 -1.27486,7.89392 0.72562,10.04367 -5.16501,10.33001 -2.44576,-0.0804 -6.00676,2.69333 -5.62851,6.688014 z"
       style="fill:#fdfdfd;fill-opacity:1;stroke:#000000;stroke-width:0;stroke-linecap:butt;stroke-linejoin:miter;stroke-miterlimit:4;stroke-dasharray:none;stroke-opacity:1" />
  </g>
</svg>
