<?xml version="1.0" encoding="UTF-8" standalone="no"?>
<svg
   version="1.1"
   viewBox="0.00 0.00 1063.00 231.00"
   id="svg20"
   sodipodi:docname="quake3.svg"
   inkscape:version="1.4.2 (f4327f4, 2025-05-13)"
   xmlns:inkscape="http://www.inkscape.org/namespaces/inkscape"
   xmlns:sodipodi="http://sodipodi.sourceforge.net/DTD/sodipodi-0.dtd"
   xmlns="http://www.w3.org/2000/svg"
   xmlns:svg="http://www.w3.org/2000/svg">
  <defs
     id="defs20" />
  <sodipodi:namedview
     id="namedview20"
     pagecolor="#ffffff"
     bordercolor="#000000"
     borderopacity="0.25"
     inkscape:showpageshadow="2"
     inkscape:pageopacity="0.0"
     inkscape:pagecheckerboard="0"
     inkscape:deskcolor="#d1d1d1"
     inkscape:zoom="1.6914393"
     inkscape:cx="531.20439"
     inkscape:cy="115.58204"
     inkscape:window-width="1920"
     inkscape:window-height="1009"
     inkscape:window-x="-8"
     inkscape:window-y="-8"
     inkscape:window-maximized="1"
     inkscape:current-layer="svg20" />
  <g
     id="g20">
    <path
       d="m 606.56,0 h 2.5 q -0.03,0.48 -0.16,0.65 -21.83,27.87 -43.18,56.11 -0.32,0.42 0.15,0.66 c 27.62,14.1 39.23,39.98 36.66,70.63 a 0.79,0.8 43.3 0 1 -1.58,0.05 C 596.37,95.61 567.27,74.11 538.25,63.76 q -0.54,-0.2 -0.11,-0.59 z"
       id="path1"
       style="fill:#000000" />
    <path
       d="m 349.75,93.01 c -3.46,5.68 -10.52,19.68 -8.72,26.28 q 1,3.64 4.65,5.88 0.95,0.58 -0.17,0.58 h -26.43 a 0.26,0.27 25.8 0 1 -0.16,-0.47 c 11.72,-9.33 20.31,-22.86 26.42,-35.45 Q 366.42,46.4 383.54,1.17 a 0.44,0.44 0 0 1 0.82,-0.01 q 21.2,51.58 45.23,102.06 c 5.13,10.77 9.53,17.01 19.56,21.95 a 0.31,0.31 0 0 1 -0.14,0.58 h -37.5 q -0.7,0 -0.09,-0.33 c 4.95,-2.72 5.35,-6.89 3.41,-12.04 -2.89,-7.67 -8.02,-21.1 -15.41,-25.37 -3.64,-2.1 -9.43,-1.7 -13.74,-1.97 q -0.75,-0.04 -0.31,-0.65 0.7,-0.95 1.57,-1.23 c 6.55,-2.04 12.13,-3.69 8.47,-12.11 q -6.1,-14.04 -12.06,-28.12 -1.95,-4.62 -4.86,-7.27 a 1.96,1.96 0 0 0 -3.07,0.56 q -7.48,14.89 -14.18,29.74 c -2.36,5.22 -5.11,13.34 1.36,16.67 1.76,0.9 4.47,0.74 6.66,1.46 a 0.48,0.48 0 0 1 -0.1,0.93 c -6.99,0.61 -15.18,0.06 -19.41,6.99 z"
       id="path2"
       style="fill:#000000" />
    <path
       d="m 689.94,2.06 c -6.22,4.29 -8.87,8.08 -8.91,15.55 q -0.16,26.06 0.02,34.32 0.11,4.9 3.96,8.73 0.43,0.43 1.03,0.53 l 13.71,2.19 q 1.46,0.23 -0.01,0.36 c -10.1,0.92 -18.39,3.29 -18.66,15.25 -0.42,18.84 1.32,38.16 22.07,45.28 a 0.37,0.37 0 0 1 -0.17,0.72 q -24.47,-3.05 -36.58,-23.42 c -3.49,-5.87 -4.38,-11.02 -4.39,-18.41 q 0,-32.67 -0.03,-65.34 C 661.97,10.81 655.82,4.9 649.88,2.04 A 0.28,0.28 0 0 1 650,1.5 h 39.76 q 0.99,0 0.18,0.56 z"
       id="path3"
       style="fill:#000000" />
    <path
       d="M 755.34,39.27 C 748.74,19.96 733.8,8.29 714.9,2.04 a 0.28,0.28 0 0 1 0.09,-0.54 h 40 a 0.49,0.49 0 0 1 0.49,0.49 l 0.06,37.25 a 0.10111874,0.10111874 0 0 1 -0.2,0.03 z"
       id="path4"
       style="fill:#000000" />
    <path
       d="m 894.78,2.09 c -5.57,2.6 -8.02,9.44 -8.02,15.18 q -0.03,47.11 -0.08,94.24 0,8.91 7.19,13.78 0.57,0.38 -0.12,0.39 l -33.26,0.58 a 0.24,0.24 0 0 1 -0.11,-0.46 c 6.92,-3.19 8.1,-8.39 8.1,-16.03 q 0.04,-48.26 -0.05,-96.52 C 868.42,7 865.46,4.85 860.36,2 q -0.91,-0.5 0.13,-0.5 h 34.16 a 0.31,0.31 0 0 1 0.13,0.59 z"
       id="path5"
       style="fill:#000000" />
    <path
       d="m 978.16,1.99 c -5.74,3.96 -7.96,9.39 -7.91,16.18 q 0.29,42.42 0.54,84.82 c 0.07,10.88 -0.97,16.42 6.54,22.39 q 0.37,0.3 -0.1,0.31 l -33.22,0.56 q -0.76,0.02 -0.1,-0.35 c 7.53,-4.12 8.55,-9.77 8.56,-18.47 q 0.08,-46.09 0.09,-92.18 0,-9.66 -8.85,-13.25 a 0.26,0.26 0 0 1 0.1,-0.5 h 34.2 q 0.87,0 0.15,0.49 z"
       id="path6"
       style="fill:#000000" />
    <path
       d="m 1061.69,2.11 c -4.64,2.92 -7.43,8.79 -7.43,13.85 q -0.03,47.47 0.01,94.94 c 0,6.44 1.42,10.41 6.21,14.17 q 0.76,0.59 -0.2,0.61 l -32.28,0.58 q -0.92,0.02 -0.11,-0.41 8.06,-4.17 8.08,-13.16 0.08,-48.95 -0.07,-97.88 -0.02,-9.1 -7.99,-12.85 -0.97,-0.46 0.1,-0.46 h 33.5 q 1.15,0 0.18,0.61 z"
       id="path7"
       style="fill:#000000" />
    <path
       d="m 522.62,2.73 c -5.1,2.85 -6.85,9.24 -6.86,14.78 q -0.02,13.45 -0.01,26.95 0,6.25 0.84,8.52 c 1.95,5.3 8.52,8.43 13.8,9.97 A 0.54,0.54 0 0 1 530.37,64 c -11.06,2.65 -15.13,10.52 -15.12,21.14 q 0,11.96 0,23.91 c 0,7.92 0.94,11.03 6.61,15.95 q 0.28,0.25 -0.1,0.25 h -33.5 q -0.87,0 -0.08,-0.36 8.53,-3.92 8.54,-12.9 0.05,-48.74 0.03,-97.5 -0.01,-6.96 -5.96,-11.67 -0.73,-0.57 0.2,-0.57 h 31.51 q 0.98,0 0.12,0.48 z"
       id="path8"
       style="fill:#000000" />
    <path
       d="m 219.81,126.35 a 0.09,0.09 0 0 1 -0.03,0.17 c -13.24,-0.67 -23.33,-4.37 -31.79,-14.89 q -10.02,-12.47 -10,-29.63 0.04,-34.88 0.02,-69.75 0,-5.56 -4.2,-8.96 -0.66,-0.54 0.19,-0.54 h 29.01 q 1.02,0 0.17,0.57 c -4.23,2.83 -5.68,5.86 -5.68,11.18 q 0,39.39 0.01,78.75 c 0,6.93 0.95,14.85 4.91,20.63 q 6.18,9.05 17.39,12.47 z"
       id="path9"
       style="fill:#000000" />
    <path
       d="m 282.8,21.82 q -0.38,28.46 -0.57,56.93 c -0.09,14.29 -1.17,25.72 -12.18,36.05 -9.61,9.01 -17.55,11.96 -30.73,12.26 q -0.3,0.01 -0.01,-0.07 c 14.24,-3.79 23.22,-14.9 23.29,-29.81 Q 262.79,58.1 262.71,19 C 262.7,12.86 262.48,7.47 257.31,3.29 q -0.67,-0.54 0.19,-0.54 h 29.75 q 0.98,0 0.17,0.56 c -6.82,4.75 -4.53,11.53 -4.62,18.51 z"
       id="path10"
       style="fill:#000000" />
    <path
       d="M 71.82,107.08 C 93.57,103.1 111.1,88.33 115.98,66.7 121.63,41.67 108.52,18.62 88.26,4.53 a 0.16124515,0.16124515 0 0 1 0.16,-0.28 c 10.89,4.41 20.07,11.05 26.41,21.11 25.42,40.35 4.42,93.76 -43.02,101.84 q -0.58,0.1 -0.57,0.68 c 0.08,7.11 0.53,14 -1.26,21.01 -2.77,10.82 -3.89,22.92 -5.75,33.19 q -0.22,1.23 -0.49,0.01 -3.95,-18.26 -8.29,-36.36 c -1.43,-5.95 -0.91,-11.77 -0.97,-17.83 q 0,-0.53 -0.52,-0.63 C 19.97,120.7 -3.18,89.24 1.32,55.03 4.17,33.34 14.56,13.59 35.98,5.43 Q 36.97,5.06 36.1,5.67 C 20.27,16.96 9.31,34.19 9.02,53.78 c -0.4,27.89 18.49,47.07 44.84,53.36 q 0.55,0.13 0.56,-0.44 0.23,-10.12 0.14,-19.92 -0.04,-4.46 -4.09,-5.38 a 0.36,0.36 0 0 1 0.01,-0.7 q 12.8,-2.38 25.58,0.18 a 0.35,0.35 0 0 1 0.04,0.67 c -6.69,2.18 -5.05,19.71 -4.73,25.18 q 0.03,0.43 0.45,0.35 z"
       id="path11"
       style="fill:#000000" />
    <path
       d="m 761.17,82.64 a 0.3,0.31 57.8 0 1 0.58,0.13 v 43.71 q 0,0.55 -0.44,0.22 -8.24,-6.16 -17.91,-3.7 c -7.29,1.85 -14.32,2.11 -21.8,2.06 q -0.08,0 0,-0.02 c 18.56,-5.85 31.45,-25.5 39.57,-42.4 z"
       id="path12"
       style="fill:#000000" />
    <path
       d="m 336.56,190.45 a 0.85,0.82 26.7 0 0 -1.15,0.36 q -3.42,7.07 -6.46,14.15 -1.33,3.11 1.55,4.42 0.43,0.19 0.9,0.14 0.62,-0.07 1.04,0.29 0.54,0.48 -0.18,0.44 c -2.94,-0.15 -5.3,0.35 -6.98,3.04 -2.01,3.22 -5.76,9.67 -1.67,12.66 a 0.3,0.3 0 0 1 -0.18,0.54 l -9.68,0.01 q -0.65,0 -0.2,-0.47 5.19,-5.63 9.39,-13.59 9.1,-17.25 15.53,-35.42 A 0.39,0.39 0 0 1 339.2,177 c 4.34,9.89 8.25,19.46 13.16,29.56 3.63,7.45 4.8,14.7 12.31,19.25 a 0.25,0.26 61.1 0 1 -0.14,0.47 l -13.85,0.02 q -0.6,0 -0.25,-0.49 c 3.19,-4.37 -3.26,-16.37 -9.57,-15.26 q -6.13,1.08 -0.05,-1.04 c 3.03,-1.06 3.43,-2.09 2.37,-5.16 -0.78,-2.26 -4.82,-12.96 -6.62,-13.9 z"
       id="path13"
       style="fill:#000000" />
    <path
       d="m 413.45,216.89 q 0.12,-17.19 0.1,-34.39 -0.01,-2.55 -2.35,-4.98 a 0.3,0.3 0 0 1 0.21,-0.51 l 15.31,-0.13 q 0.07,0 0.05,0.06 -0.05,0.14 -0.09,0.27 -0.02,0.07 -0.1,0.09 c -8.15,1.92 -5.85,10.75 -5.83,16.87 0.02,3.55 1.75,5.07 5.01,5.62 a 0.52,0.52 0 0 1 0.06,1.01 c -7.18,2.13 -5.1,13.15 -5.05,18.86 0.01,1.99 1,3.12 2.59,4.02 a 0.56,0.56 0 0 1 -0.28,1.05 L 409,224.76 q -1.85,0 -0.11,-0.63 c 3.61,-1.3 4.54,-3.37 4.56,-7.24 z"
       id="path14"
       style="fill:#000000" />
    <path
       d="m 515.15,207.91 c -0.33,7.41 0.88,14.81 8.61,17.28 q 0.71,0.23 0.02,0.51 -0.44,0.18 -1,0.07 c -8.18,-1.6 -15.32,-7.58 -15.29,-16.31 q 0.04,-12.66 -0.01,-25.37 c -0.02,-3.55 -1.21,-4.88 -3.93,-6.66 q -0.73,-0.47 0.14,-0.47 h 14.36 q 0.83,0 0.15,0.49 c -4.66,3.37 -2.97,13.89 -2.92,19.04 0.04,4.8 3.77,3.97 7.01,5.03 q 1.67,0.54 -0.08,0.43 c -4.14,-0.24 -6.86,1.6 -7.06,5.96 z"
       id="path15"
       style="fill:#000000" />
    <path
       d="m 529.97,176.91 14.65,0.08 q 0.63,0.01 0.63,0.63 v 12.87 q 0,0.98 -0.4,0.09 c -3.13,-6.89 -8.22,-10.41 -14.96,-13.25 q -1.03,-0.43 0.08,-0.42 z"
       id="path16"
       style="fill:#000000" />
    <path
       d="m 602.54,189.52 q -0.11,15.43 -0.08,30.98 0,3.58 3.23,4.76 a 0.51,0.51 0 0 1 -0.18,0.99 l -9.21,-0.01 a 0.29,0.29 0 0 1 -0.12,-0.55 q 3.06,-1.47 3.07,-4.94 0.04,-19.12 0.04,-38.25 0,-3.36 -2.68,-5.04 a 0.3,0.3 0 0 1 0.16,-0.55 l 14.05,0.07 q 0.44,0 0.11,0.29 l -2.34,2.02 q -0.62,0.54 -0.11,1.18 l 24.12,30.18 a 0.24,0.24 0 0 0 0.42,-0.15 l -0.03,-28.73 q 0,-0.45 -0.28,-0.8 -1.99,-2.47 -5.3,-3.31 -0.39,-0.1 -0.48,-0.42 -0.1,-0.34 0.26,-0.34 l 11.6,0.09 a 0.35,0.35 0 0 1 0.23,0.61 c -1.94,1.69 -2.5,3.82 -2.5,6.54 q -0.04,22.74 -0.02,45.42 a 0.25,0.25 0 0 1 -0.44,0.15 l -32.87,-40.42 a 0.37,0.37 0 0 0 -0.65,0.23 z"
       id="path17"
       style="fill:#000000" />
    <path
       d="m 689.12,224.21 q 6.49,-7.25 10.47,-16.14 6.95,-15.53 13.57,-31.26 a 0.2,0.2 0 0 1 0.36,0 q 8.45,19.81 17.43,39.42 c 2.06,4.48 3.87,6.99 7.72,9.56 a 0.27,0.28 62.3 0 1 -0.16,0.5 h -14.05 q -0.61,0 -0.13,-0.38 c 1.78,-1.37 2.02,-2.77 1.13,-4.9 -1.28,-3.08 -2.56,-7.01 -5.23,-9.1 -1.54,-1.21 -3.86,-1.23 -5.8,-1.81 q -0.75,-0.22 0,-0.45 l 2.35,-0.74 a 2.1,2.1 0 0 0 1.37,-2.69 c -0.69,-2.01 -5.9,-15.82 -7.34,-15.78 a 1.32,0.56 2.7 0 0 -1.11,0.41 q -2.78,6.35 -5.86,12.47 c -1.24,2.48 -1.47,6.23 2.48,6.22 q 0.25,0 0.35,0.24 0.05,0.14 0.1,0.28 0.06,0.19 -0.13,0.18 c -2.84,-0.11 -5.3,0.25 -6.92,2.93 -2.12,3.51 -5.56,9.1 -2.16,12.63 q 0.68,0.7 -0.29,0.7 h -9.75 q -0.55,0 -0.31,-0.5 c 0.39,-0.78 1.43,-1.25 1.91,-1.79 z"
       id="path18"
       style="fill:#000000" />
    <path
       d="m 441.91,199.36 c 10.34,6.27 13.1,16.56 13.34,27.96 a 0.35,0.35 0 0 1 -0.68,0.1 q -5.64,-20.68 -26.1,-27.01 -0.45,-0.14 0,-0.27 5.42,-1.56 9.08,-5.09 c 7.38,-7.1 0.67,-16.41 -7.82,-17.34 a 0.19026298,0.19026298 0 0 1 -0.02,-0.38 q 8.45,-1.67 13.84,3.23 c 6.09,5.55 5.49,13.63 -1.64,18.08 q -0.59,0.36 0,0.72 z"
       id="path19"
       style="fill:#000000" />
    <path
       d="m 547.35,209.89 q 0.3,8.21 0.11,16.09 -0.02,0.74 -0.63,0.31 c -3.84,-2.77 -11.1,-0.04 -15.73,0.12 a 0.29,0.29 0 0 1 -0.08,-0.57 c 7.58,-1.9 12.42,-9.63 15.81,-16.07 q 0.48,-0.92 0.52,0.12 z"
       id="path20"
       style="fill:#000000" />
  </g>
</svg>
