<svg viewBox="0 0 580.5 178.7" xmlns="http://www.w3.org/2000/svg"><g fill="#a50000"><path d="m176.1 103.8c-1.2 0-2.7-.3-4.4-.8l-1.2-.4.2-1.3c3.9-22 7.7-44.2 11.7-66.6l.2-1.2 1.2-.1c.6 0 1.1-.1 1.8-.2.8-.1 1.6-.2 2.5-.2 1.8 0 3.2.5 4.4 1.7 6.1-3.9 12.6-5.9 19.6-5.9h.6c8.5.2 15.3 3 19.8 8.1 4.4 5.1 6.2 12.2 5.2 20.4-2 16.4-17.7 29.7-34.9 29.7-3.3 0-6.5-.5-9.5-1.5s-5.5-2.6-8.2-4.6c-.2 1.2-.5 2.4-.7 3.6-.8 4.2-1.6 8.2-2 12.2-.6 4.8-2.7 7.1-6.3 7.1zm34.8-65.8c-7.7 0-20.5 8.3-22.3 20.9-.7 5.2.6 10.1 3.7 13.7 2.8 3.3 6.8 5 11.2 5 1.9 0 3.8-.3 5.7-1 8.7-3 14.4-8.9 17-17.6 1.5-5.3.6-10.7-2.6-14.9-2.9-3.9-7.4-6.1-12.3-6.1z"/><path d="m211.9 30.4h.6c16.2.3 25.6 10.7 23.6 26.9-2 16-17.6 28.3-33.5 28.3-3.1 0-6.1-.5-9.1-1.4-3.4-1.1-6.2-3.1-9.7-5.9-1.1 6.6-2.5 12.4-3.1 18.3-.4 3.9-1.8 5.7-4.7 5.7-1.1 0-2.4-.3-3.9-.8 3.9-22 7.7-44.2 11.7-66.6 1.4-.1 2.8-.4 4.2-.4 1.5 0 2.9.4 4.2 2.2 5.9-4.1 12.4-6.3 19.7-6.3m-8.3 48.7c2 0 4.1-.3 6.2-1.1 9.1-3.1 15.2-9.3 17.9-18.6 3.4-11.7-4.7-23-16.3-23h-.6c-8.4 0-21.9 8.8-23.7 22.2-1.5 11.5 6.2 20.5 16.5 20.5m8.3-51.7c-7 0-13.4 1.8-19.5 5.5-1.3-.9-2.8-1.3-4.5-1.3-1 0-1.8.1-2.7.3-.6.1-1.1.2-1.6.2l-2.4.1-.4 2.3c-3.9 22.4-7.8 44.5-11.7 66.6l-.4 2.6 2.5.8c1.9.6 3.5.9 4.8.9 3.1 0 7-1.5 7.7-8.4.4-3.9 1.2-7.9 2-12.1.1-.4.2-.9.2-1.3 2.1 1.5 4.3 2.7 6.7 3.5 3.2 1 6.6 1.6 10 1.6 18 0 34.4-13.9 36.4-31 1.1-8.7-.9-16.2-5.6-21.6-4.8-5.5-12-8.5-20.9-8.6-.1-.1-.3-.1-.6-.1zm-8.3 48.7c-4 0-7.5-1.6-10.1-4.5-2.8-3.3-4-7.7-3.4-12.5 1.6-11.8 13.6-19.6 20.8-19.6h.6c4.4 0 8.4 2 11.1 5.5 2.9 3.8 3.7 8.8 2.3 13.6-2.4 8.2-7.7 13.8-16 16.6-1.8.6-3.6.9-5.3.9z"/><path d="m262.3 87c-6.1 0-11.4-1.6-15.5-4.5-9.5-6.9-12.4-20.8-6.9-33 5.6-12.5 18.6-20.8 32.3-20.8 2.7 0 5.3.3 7.9.9 6 1.4 10.4 4.6 13.5 9.7l.7 1.1-39.7 33.8c2.5 2.3 5.5 3.5 8.9 3.5 1.9 0 4-.4 6.2-1.1 2.3-.8 4.5-2 7-3.9 2.4-1.8 4-3 5.9-3 1.6 0 3.2.8 6.1 2.3l1.5.8-.9 1.4c-5.2 7.6-16 12.8-27 12.8zm8.5-48.9c-4 0-8.3 1.7-12.6 5-8 6.1-11.6 15.1-9.3 22.8 8.5-7.2 17-14.5 25.5-21.7l4.3-3.7c-2.5-1.6-5.2-2.4-7.9-2.4z"/><path d="m272.2 30.1c2.5 0 5 .3 7.5.9 5.1 1.2 9.5 3.9 12.6 9-13.4 11.4-26.6 22.7-39.9 34 3 3.4 6.8 5.1 11.1 5.1 2.1 0 4.3-.4 6.7-1.2 2.7-.9 5.1-2.4 7.4-4.1 2.4-1.8 3.6-2.7 5-2.7 1.3 0 2.7.7 5.4 2.1-5.2 7.8-15.8 12.3-25.7 12.3-5.4 0-10.7-1.3-14.6-4.2-9-6.5-11.7-19.5-6.4-31.2 5.4-12.2 17.9-20 30.9-20m-24.2 37.8c.6-.3 1.2-.4 1.7-.8 10.5-8.9 20.9-17.8 31.5-26.8-3.3-2.5-6.8-3.8-10.4-3.8-4.4 0-8.9 1.8-13.5 5.3-9.1 6.9-12.9 17.4-9.3 26.1m24.2-40.8c-14.3 0-27.9 8.7-33.7 21.7-5.8 12.9-2.7 27.6 7.4 34.9 4.3 3.1 10 4.8 16.4 4.8 11.5 0 22.8-5.5 28.2-13.6l1.8-2.8-3-1.5c-2.8-1.5-4.7-2.5-6.8-2.5-2.5 0-4.3 1.4-6.8 3.3-2.3 1.8-4.4 2.9-6.5 3.7-2 .7-3.9 1-5.7 1-2.5 0-4.7-.7-6.6-2l26.1-22.2 11.2-9.6 2-1.7-1.3-2.2c-3.3-5.4-8.1-8.8-14.5-10.4-2.7-.6-5.5-.9-8.2-.9zm-22.4 36c-.9-6.6 2.5-13.8 9.2-18.9 4.1-3.1 8-4.7 11.7-4.7 1.8 0 3.6.4 5.3 1.2l-2.4 2c-7.7 6.7-15.8 13.6-23.8 20.4zm-150.6 23.3c-5 0-11.3-.7-16.4-6.5-2.7-3-4.3-6.1-5-9.4-.6-3-.8-5.4.5-7 1.3-1.7 3.7-2.1 7.1-2.1h.8l.5.6.1.1c.2.3.6.7.7 1.3 1.4 8.5 5 13 11.4 13.9.5.1 1.1.1 1.6.1 6.3 0 13.8-5 17.1-11.4 4.1-7.9 2.6-14.7-4.5-20.3-2.7-2.1-5.8-3.5-8.8-4.8-10.3-4.2-14.7-11.5-12.8-21.3 1.9-9.9 10.7-17.3 21-17.4h.6c9.7 0 15 3.4 17.1 11 .1.5.1 1 .1 1.4v1.3l-.7.4c-1.7 1.1-3.6 2.2-5.5 2.2-2.3 0-4.2-1.5-5.7-4.6-1.3-2.5-3.4-3.1-5-3.1-1.2 0-2.6.3-4 1-4.7 2.2-7.3 5.6-7.8 10.2-.5 4.1 2.2 6.7 6.2 9.3 1.5.9 3.1 1.7 4.8 2.4l.8.4c12.9 5.8 18.6 15.2 16.5 27-2.3 13.3-13.6 24-26.3 25-1.6.2-3 .3-4.4.3z"/><path d="m113.1 3.7c9 0 13.8 3 15.7 9.9.1.4 0 .9 0 1.5-1.7 1.1-3.2 2-4.6 2-1.6 0-3-1-4.4-3.8-1.3-2.7-3.7-3.9-6.3-3.9-1.5 0-3 .4-4.6 1.1-4.9 2.3-8 6.1-8.6 11.4-.6 5.2 3 8.2 6.9 10.7 1.8 1.2 3.8 2 5.8 2.9 12.2 5.5 17.6 14.3 15.7 25.4-2.2 12.6-12.9 22.8-24.9 23.7-1.5.1-3 .2-4.5.2-5.7 0-11-1.1-15.3-6-2.3-2.5-3.9-5.4-4.6-8.7-1.3-5.9-.1-7.2 6.2-7.3.2.3.5.5.5.8 1.5 9.2 5.6 14.1 12.7 15.2.6.1 1.2.1 1.8.1 6.8 0 14.8-5.2 18.5-12.2 4.4-8.5 2.7-16.1-4.9-22.1-2.8-2.2-5.9-3.6-9.2-5-9.8-4.1-13.8-10.6-12-19.7 1.8-9.2 10-16 19.5-16.2h.6m0-3h-.7c-10.9.2-20.4 8-22.4 18.6-1.4 7.3-.2 17.3 13.8 23.2 2.9 1.2 5.9 2.6 8.5 4.6 6.5 5.2 7.8 11.2 4.1 18.4-3.1 5.9-10 10.6-15.8 10.6-.5 0-1 0-1.4-.1-3.9-.6-8.5-2.5-10.2-12.7-.2-1.1-.8-1.8-1.1-2.1l-.9-1.2h-1.5c-3 .1-6.4.3-8.3 2.7-1.9 2.3-1.4 5.5-.8 8.3.8 3.6 2.5 6.9 5.3 10.1 5.6 6.2 12.7 7 17.6 7 1.4 0 2.9-.1 4.7-.2 13.3-1 25.2-12.3 27.7-26.2 2.2-12.4-4-22.6-17.4-28.6l-.8-.4c-1.7-.7-3.2-1.4-4.6-2.3-4.4-2.8-5.9-5-5.5-7.9.4-4.1 2.8-7.1 6.9-9.1 1.2-.5 2.3-.8 3.3-.8 1.7 0 2.9.7 3.6 2.2 1.8 3.6 4.2 5.4 7.1 5.4 2.3 0 4.4-1.2 6.3-2.5l1.3-.9v-1.6-.4c0-.5.1-1.1-.1-1.9-2.4-8.4-8.3-12.2-18.7-12.2z"/><path d="m149.5 86.7c-3.9 0-7.7-.9-10.9-2.6-6.3-3.3-9.5-9.1-8.6-15.9 1-7.9 2.3-15.9 3.7-23.7.6-3.3 1.1-6.6 1.7-9.9l.2-1.3h10.8l-1.7 9.9c-.8 4.6-1.6 9.2-2.3 13.8-.2 1.2-.4 2.4-.7 3.7-.3 1.5-.6 3.1-.8 4.7-.7 4.1.7 7.4 4.1 9.9 1.7 1.3 3.6 1.9 5.5 1.9 1.5 0 3.1-.4 4.7-1.2 5.7-2.8 8.9-6.9 9.9-12.4 1.2-6.9 2.4-13.8 3.7-20.8l1.6-8.6.7-.3c1.2-.6 2.5-.8 4.1-.8 1.3 0 2.6.2 4 .4l2 .3-.3 1.6c-.9 4.2-1.5 8.5-2.1 12.6-1.1 7.6-2.3 15.4-4.8 22.8-3.6 9.4-13.5 15.9-24.5 15.9z"/><path d="m174.9 34.6c1.3 0 2.7.2 4.2.4-2.4 11.9-3 24-6.9 35.3-3.2 9.2-13.1 14.9-22.8 14.9-3.6 0-7.1-.8-10.3-2.4-5.8-3-8.6-8.2-7.8-14.4 1.4-11.2 3.5-22.3 5.3-33.5h7.7c-1.3 7.5-2.5 14.7-3.7 22-.5 2.8-1.1 5.5-1.5 8.3-.8 4.7.9 8.5 4.7 11.4 2 1.5 4.2 2.2 6.4 2.2 1.8 0 3.6-.5 5.4-1.4 5.6-2.8 9.6-7 10.7-13.5 1.6-9.5 3.4-19 5.1-28.6 1.2-.5 2.3-.7 3.5-.7m0-3c-1.7 0-3.3.3-4.7.9l-1.4.6-.3 1.6c-.5 2.6-.9 5.2-1.4 7.9-1.2 6.8-2.5 13.9-3.7 20.8-.9 5.1-3.8 8.7-9.1 11.4-1.4.7-2.8 1.1-4.1 1.1-1.6 0-3.1-.5-4.6-1.6-2.9-2.2-4.1-5-3.5-8.5.2-1.5.5-3.1.8-4.6.2-1.2.5-2.5.7-3.7.8-4.6 1.6-9.3 2.4-13.9.4-2.7.9-5.4 1.4-8.1l.6-3.5h-13.8l-.4 2.5c-.5 3.3-1.1 6.6-1.7 9.9-1.3 7.8-2.7 15.8-3.7 23.7-.9 7.5 2.5 13.9 9.4 17.5 3.5 1.8 7.5 2.7 11.6 2.7 11.6 0 22.2-7 25.6-17 2.6-7.5 3.8-15.4 4.9-23.1.6-4.1 1.2-8.4 2.1-12.5l.6-3.1-3.2-.4-.4-.1c-1.3-.3-2.7-.5-4.1-.5zm119.5 53.8c-.9 0-1.8-.1-2.7-.1-.5 0-1-.1-1.5-.1l-1.7-.1 3.7-20.7c1.8-9.9 3.5-19.8 5.2-29.7l.2-1.2h8.4l.4.2c1.2.7 1.4 1.8 1.4 2.6 3.3-2 6.6-4 10.9-4 1 0 2.1.1 3.1.4l1.1.3v1.2c.1 3.3-.2 6.1-4.7 8-8 3.3-12.9 9.5-14.5 18.3-1.1 5.6-2.1 11.4-3 16.9-.4 2.2-1.3 7.4-1.3 7.4l-.9.3c-1.3.1-2.6.3-4.1.3z"/><path d="m318.7 33.7c.9 0 1.8.1 2.8.3.1 3-.1 5-3.8 6.6-8.5 3.5-13.7 10.2-15.5 19.4-1.5 7.8-2.8 15.6-4.2 23.4-1.2.4-2.4.5-3.6.5-1.3 0-2.6-.1-4.1-.2 2.9-16.5 5.7-32.6 8.6-48.8h6.7c1.4.8-.2 2.6 1.3 3.5 3.6-2.1 7.2-4.7 11.8-4.7m0-3c-3.9 0-7.1 1.5-10 3.2-.3-.6-.8-1.1-1.5-1.6l-.7-.4h-10l-.4 2.5c-1.7 9.9-3.5 19.8-5.2 29.7l-3.4 19.1-.6 3.3 3.4.2c.5 0 1 .1 1.4.1.9.1 1.8.1 2.8.1 1.7 0 3.1-.2 4.5-.6l1.8-.5.3-1.8c.4-2.2.8-4.3 1.2-6.5 1-5.5 2-11.3 3-16.9 1.5-8.3 6.1-14 13.6-17.1 5.5-2.3 5.8-6.1 5.7-9.5l-.1-2.3-2.3-.5c-1.2-.4-2.4-.5-3.5-.5zm-142.6 73.1c-1.2 0-2.7-.3-4.4-.8l-1.2-.4.2-1.3c3.9-22 7.7-44.2 11.7-66.6l.2-1.2 1.2-.1c.6 0 1.1-.1 1.8-.2.8-.1 1.6-.2 2.5-.2 1.8 0 3.2.5 4.4 1.7 6.1-3.9 12.6-5.9 19.6-5.9h.6c8.5.2 15.3 3 19.8 8.1 4.4 5.1 6.2 12.2 5.2 20.4-2 16.4-17.7 29.7-34.9 29.7-3.3 0-6.5-.5-9.5-1.5s-5.5-2.6-8.2-4.6c-.2 1.2-.5 2.4-.7 3.6-.8 4.2-1.6 8.2-2 12.2-.6 4.8-2.7 7.1-6.3 7.1zm34.8-65.8c-7.7 0-20.5 8.3-22.3 20.9-.7 5.2.6 10.1 3.7 13.7 2.8 3.3 6.8 5 11.2 5 1.9 0 3.8-.3 5.7-1 8.7-3 14.4-8.9 17-17.6 1.5-5.3.6-10.7-2.6-14.9-2.9-3.9-7.4-6.1-12.3-6.1z"/><path d="m211.9 30.4h.6c16.2.3 25.6 10.7 23.6 26.9-2 16-17.6 28.3-33.5 28.3-3.1 0-6.1-.5-9.1-1.4-3.4-1.1-6.2-3.1-9.7-5.9-1.1 6.6-2.5 12.4-3.1 18.3-.4 3.9-1.8 5.7-4.7 5.7-1.1 0-2.4-.3-3.9-.8 3.9-22 7.7-44.2 11.7-66.6 1.4-.1 2.8-.4 4.2-.4 1.5 0 2.9.4 4.2 2.2 5.9-4.1 12.4-6.3 19.7-6.3m-8.3 48.7c2 0 4.1-.3 6.2-1.1 9.1-3.1 15.2-9.3 17.9-18.6 3.4-11.7-4.7-23-16.3-23h-.6c-8.4 0-21.9 8.8-23.7 22.2-1.5 11.5 6.2 20.5 16.5 20.5m8.3-51.7c-7 0-13.4 1.8-19.5 5.5-1.3-.9-2.8-1.3-4.5-1.3-1 0-1.8.1-2.7.3-.6.1-1.1.2-1.6.2l-2.4.1-.4 2.3c-3.9 22.4-7.8 44.5-11.7 66.6l-.4 2.6 2.5.8c1.9.6 3.5.9 4.8.9 3.1 0 7-1.5 7.7-8.4.4-3.9 1.2-7.9 2-12.1.1-.4.2-.9.2-1.3 2.1 1.5 4.3 2.7 6.7 3.5 3.2 1 6.6 1.6 10 1.6 18 0 34.4-13.9 36.4-31 1.1-8.7-.9-16.2-5.6-21.6-4.8-5.5-12-8.5-20.9-8.6-.1-.1-.3-.1-.6-.1zm-8.3 48.7c-4 0-7.5-1.6-10.1-4.5-2.8-3.3-4-7.7-3.4-12.5 1.6-11.8 13.6-19.6 20.8-19.6h.6c4.4 0 8.4 2 11.1 5.5 2.9 3.8 3.7 8.8 2.3 13.6-2.4 8.2-7.7 13.8-16 16.6-1.8.6-3.6.9-5.3.9z"/><path d="m262.3 87c-6.1 0-11.4-1.6-15.5-4.5-9.5-6.9-12.4-20.8-6.9-33 5.6-12.5 18.6-20.8 32.3-20.8 2.7 0 5.3.3 7.9.9 6 1.4 10.4 4.6 13.5 9.7l.7 1.1-39.7 33.8c2.5 2.3 5.5 3.5 8.9 3.5 1.9 0 4-.4 6.2-1.1 2.3-.8 4.5-2 7-3.9 2.4-1.8 4-3 5.9-3 1.6 0 3.2.8 6.1 2.3l1.5.8-.9 1.4c-5.2 7.6-16 12.8-27 12.8zm8.5-48.9c-4 0-8.3 1.7-12.6 5-8 6.1-11.6 15.1-9.3 22.8 8.5-7.2 17-14.5 25.5-21.7l4.3-3.7c-2.5-1.6-5.2-2.4-7.9-2.4z"/><path d="m272.2 30.1c2.5 0 5 .3 7.5.9 5.1 1.2 9.5 3.9 12.6 9-13.4 11.4-26.6 22.7-39.9 34 3 3.4 6.8 5.1 11.1 5.1 2.1 0 4.3-.4 6.7-1.2 2.7-.9 5.1-2.4 7.4-4.1 2.4-1.8 3.6-2.7 5-2.7 1.3 0 2.7.7 5.4 2.1-5.2 7.8-15.8 12.3-25.7 12.3-5.4 0-10.7-1.3-14.6-4.2-9-6.5-11.7-19.5-6.4-31.2 5.4-12.2 17.9-20 30.9-20m-24.2 37.8c.6-.3 1.2-.4 1.7-.8 10.5-8.9 20.9-17.8 31.5-26.8-3.3-2.5-6.8-3.8-10.4-3.8-4.4 0-8.9 1.8-13.5 5.3-9.1 6.9-12.9 17.4-9.3 26.1m24.2-40.8c-14.3 0-27.9 8.7-33.7 21.7-5.8 12.9-2.7 27.6 7.4 34.9 4.3 3.1 10 4.8 16.4 4.8 11.5 0 22.8-5.5 28.2-13.6l1.8-2.8-3-1.5c-2.8-1.5-4.7-2.5-6.8-2.5-2.5 0-4.3 1.4-6.8 3.3-2.3 1.8-4.4 2.9-6.5 3.7-2 .7-3.9 1-5.7 1-2.5 0-4.7-.7-6.6-2l26.1-22.2 11.2-9.6 2-1.7-1.3-2.2c-3.3-5.4-8.1-8.8-14.5-10.4-2.7-.6-5.5-.9-8.2-.9zm-22.4 36c-.9-6.6 2.5-13.8 9.2-18.9 4.1-3.1 8-4.7 11.7-4.7 1.8 0 3.6.4 5.3 1.2l-2.4 2c-7.7 6.7-15.8 13.6-23.8 20.4zm-150.6 23.3c-5 0-11.3-.7-16.4-6.5-2.7-3-4.3-6.1-5-9.4-.6-3-.8-5.4.5-7 1.3-1.7 3.7-2.1 7.1-2.1h.8l.5.6.1.1c.2.3.6.7.7 1.3 1.4 8.5 5 13 11.4 13.9.5.1 1.1.1 1.6.1 6.3 0 13.8-5 17.1-11.4 4.1-7.9 2.6-14.7-4.5-20.3-2.7-2.1-5.8-3.5-8.8-4.8-10.3-4.2-14.7-11.5-12.8-21.3 1.9-9.9 10.7-17.3 21-17.4h.6c9.7 0 15 3.4 17.1 11 .1.5.1 1 .1 1.4v1.3l-.7.4c-1.7 1.1-3.6 2.2-5.5 2.2-2.3 0-4.2-1.5-5.7-4.6-1.3-2.5-3.4-3.1-5-3.1-1.2 0-2.6.3-4 1-4.7 2.2-7.3 5.6-7.8 10.2-.5 4.1 2.2 6.7 6.2 9.3 1.5.9 3.1 1.7 4.8 2.4l.8.4c12.9 5.8 18.6 15.2 16.5 27-2.3 13.3-13.6 24-26.3 25-1.6.2-3 .3-4.4.3z"/><path d="m113.1 3.7c9 0 13.8 3 15.7 9.9.1.4 0 .9 0 1.5-1.7 1.1-3.2 2-4.6 2-1.6 0-3-1-4.4-3.8-1.3-2.7-3.7-3.9-6.3-3.9-1.5 0-3 .4-4.6 1.1-4.9 2.3-8 6.1-8.6 11.4-.6 5.2 3 8.2 6.9 10.7 1.8 1.2 3.8 2 5.8 2.9 12.2 5.5 17.6 14.3 15.7 25.4-2.2 12.6-12.9 22.8-24.9 23.7-1.5.1-3 .2-4.5.2-5.7 0-11-1.1-15.3-6-2.3-2.5-3.9-5.4-4.6-8.7-1.3-5.9-.1-7.2 6.2-7.3.2.3.5.5.5.8 1.5 9.2 5.6 14.1 12.7 15.2.6.1 1.2.1 1.8.1 6.8 0 14.8-5.2 18.5-12.2 4.4-8.5 2.7-16.1-4.9-22.1-2.8-2.2-5.9-3.6-9.2-5-9.8-4.1-13.8-10.6-12-19.7 1.8-9.2 10-16 19.5-16.2h.6m0-3h-.7c-10.9.2-20.4 8-22.4 18.6-1.4 7.3-.2 17.3 13.8 23.2 2.9 1.2 5.9 2.6 8.5 4.6 6.5 5.2 7.8 11.2 4.1 18.4-3.1 5.9-10 10.6-15.8 10.6-.5 0-1 0-1.4-.1-3.9-.6-8.5-2.5-10.2-12.7-.2-1.1-.8-1.8-1.1-2.1l-.9-1.2h-1.5c-3 .1-6.4.3-8.3 2.7-1.9 2.3-1.4 5.5-.8 8.3.8 3.6 2.5 6.9 5.3 10.1 5.6 6.2 12.7 7 17.6 7 1.4 0 2.9-.1 4.7-.2 13.3-1 25.2-12.3 27.7-26.2 2.2-12.4-4-22.6-17.4-28.6l-.8-.4c-1.7-.7-3.2-1.4-4.6-2.3-4.4-2.8-5.9-5-5.5-7.9.4-4.1 2.8-7.1 6.9-9.1 1.2-.5 2.3-.8 3.3-.8 1.7 0 2.9.7 3.6 2.2 1.8 3.6 4.2 5.4 7.1 5.4 2.3 0 4.4-1.2 6.3-2.5l1.3-.9v-1.6-.4c0-.5.1-1.1-.1-1.9-2.4-8.4-8.3-12.2-18.7-12.2z"/><path d="m149.5 86.7c-3.9 0-7.7-.9-10.9-2.6-6.3-3.3-9.5-9.1-8.6-15.9 1-7.9 2.3-15.9 3.7-23.7.6-3.3 1.1-6.6 1.7-9.9l.2-1.3h10.8l-1.7 9.9c-.8 4.6-1.6 9.2-2.3 13.8-.2 1.2-.4 2.4-.7 3.7-.3 1.5-.6 3.1-.8 4.7-.7 4.1.7 7.4 4.1 9.9 1.7 1.3 3.6 1.9 5.5 1.9 1.5 0 3.1-.4 4.7-1.2 5.7-2.8 8.9-6.9 9.9-12.4 1.2-6.9 2.4-13.8 3.7-20.8l1.6-8.6.7-.3c1.2-.6 2.5-.8 4.1-.8 1.3 0 2.6.2 4 .4l2 .3-.3 1.6c-.9 4.2-1.5 8.5-2.1 12.6-1.1 7.6-2.3 15.4-4.8 22.8-3.6 9.4-13.5 15.9-24.5 15.9z"/><path d="m174.9 34.6c1.3 0 2.7.2 4.2.4-2.4 11.9-3 24-6.9 35.3-3.2 9.2-13.1 14.9-22.8 14.9-3.6 0-7.1-.8-10.3-2.4-5.8-3-8.6-8.2-7.8-14.4 1.4-11.2 3.5-22.3 5.3-33.5h7.7c-1.3 7.5-2.5 14.7-3.7 22-.5 2.8-1.1 5.5-1.5 8.3-.8 4.7.9 8.5 4.7 11.4 2 1.5 4.2 2.2 6.4 2.2 1.8 0 3.6-.5 5.4-1.4 5.6-2.8 9.6-7 10.7-13.5 1.6-9.5 3.4-19 5.1-28.6 1.2-.5 2.3-.7 3.5-.7m0-3c-1.7 0-3.3.3-4.7.9l-1.4.6-.3 1.6c-.5 2.6-.9 5.2-1.4 7.9-1.2 6.8-2.5 13.9-3.7 20.8-.9 5.1-3.8 8.7-9.1 11.4-1.4.7-2.8 1.1-4.1 1.1-1.6 0-3.1-.5-4.6-1.6-2.9-2.2-4.1-5-3.5-8.5.2-1.5.5-3.1.8-4.6.2-1.2.5-2.5.7-3.7.8-4.6 1.6-9.3 2.4-13.9.4-2.7.9-5.4 1.4-8.1l.6-3.5h-13.8l-.4 2.5c-.5 3.3-1.1 6.6-1.7 9.9-1.3 7.8-2.7 15.8-3.7 23.7-.9 7.5 2.5 13.9 9.4 17.5 3.5 1.8 7.5 2.7 11.6 2.7 11.6 0 22.2-7 25.6-17 2.6-7.5 3.8-15.4 4.9-23.1.6-4.1 1.2-8.4 2.1-12.5l.6-3.1-3.2-.4-.4-.1c-1.3-.3-2.7-.5-4.1-.5zm119.5 53.8c-.9 0-1.8-.1-2.7-.1-.5 0-1-.1-1.5-.1l-1.7-.1 3.7-20.7c1.8-9.9 3.5-19.8 5.2-29.7l.2-1.2h8.4l.4.2c1.2.7 1.4 1.8 1.4 2.6 3.3-2 6.6-4 10.9-4 1 0 2.1.1 3.1.4l1.1.3v1.2c.1 3.3-.2 6.1-4.7 8-8 3.3-12.9 9.5-14.5 18.3-1.1 5.6-2.1 11.4-3 16.9-.4 2.2-1.3 7.4-1.3 7.4l-.9.3c-1.3.1-2.6.3-4.1.3z"/><path d="m318.7 33.7c.9 0 1.8.1 2.8.3.1 3-.1 5-3.8 6.6-8.5 3.5-13.7 10.2-15.5 19.4-1.5 7.8-2.8 15.6-4.2 23.4-1.2.4-2.4.5-3.6.5-1.3 0-2.6-.1-4.1-.2 2.9-16.5 5.7-32.6 8.6-48.8h6.7c1.4.8-.2 2.6 1.3 3.5 3.6-2.1 7.2-4.7 11.8-4.7m0-3c-3.9 0-7.1 1.5-10 3.2-.3-.6-.8-1.1-1.5-1.6l-.7-.4h-10l-.4 2.5c-1.7 9.9-3.5 19.8-5.2 29.7l-3.4 19.1-.6 3.3 3.4.2c.5 0 1 .1 1.4.1.9.1 1.8.1 2.8.1 1.7 0 3.1-.2 4.5-.6l1.8-.5.3-1.8c.4-2.2.8-4.3 1.2-6.5 1-5.5 2-11.3 3-16.9 1.5-8.3 6.1-14 13.6-17.1 5.5-2.3 5.8-6.1 5.7-9.5l-.1-2.3-2.3-.5c-1.2-.4-2.4-.5-3.5-.5z"/><path d="m176.1 104.8c-1.2 0-2.7-.3-4.4-.8l-1.2-.4.2-1.3c3.9-22 7.7-44.2 11.7-66.6l.2-1.2 1.2-.1c.6 0 1.1-.1 1.8-.2.8-.1 1.6-.2 2.5-.2 1.8 0 3.2.5 4.4 1.7 6.1-3.9 12.6-5.9 19.6-5.9h.6c8.5.2 15.3 3 19.8 8.1 4.4 5.1 6.2 12.2 5.2 20.4-2 16.4-17.7 29.7-34.9 29.7-3.3 0-6.5-.5-9.5-1.5s-5.5-2.6-8.2-4.6c-.2 1.2-.5 2.4-.7 3.6-.8 4.2-1.6 8.2-2 12.2-.6 4.8-2.7 7.1-6.3 7.1zm34.8-65.8c-7.7 0-20.5 8.3-22.3 20.9-.7 5.2.6 10.1 3.7 13.7 2.8 3.3 6.8 5 11.2 5 1.9 0 3.8-.3 5.7-1 8.7-3 14.4-8.9 17-17.6 1.5-5.3.6-10.7-2.6-14.9-2.9-3.9-7.4-6.1-12.3-6.1z"/><path d="m211.9 31.4h.6c16.2.3 25.6 10.7 23.6 26.9-2 16-17.6 28.3-33.5 28.3-3.1 0-6.1-.5-9.1-1.4-3.4-1.1-6.2-3.1-9.7-5.9-1.1 6.6-2.5 12.4-3.1 18.3-.4 3.9-1.8 5.7-4.7 5.7-1.1 0-2.4-.3-3.9-.8 3.9-22 7.7-44.2 11.7-66.6 1.4-.1 2.8-.4 4.2-.4 1.5 0 2.9.4 4.2 2.2 5.9-4.1 12.4-6.3 19.7-6.3m-8.3 48.7c2 0 4.1-.3 6.2-1.1 9.1-3.1 15.2-9.3 17.9-18.6 3.4-11.7-4.7-23-16.3-23h-.6c-8.4 0-21.9 8.8-23.7 22.2-1.5 11.5 6.2 20.5 16.5 20.5m8.3-51.7c-7 0-13.4 1.8-19.5 5.5-1.3-.9-2.8-1.3-4.5-1.3-1 0-1.8.1-2.7.3-.6.1-1.1.2-1.6.2l-2.4.1-.4 2.3c-3.9 22.4-7.8 44.5-11.7 66.6l-.4 2.6 2.5.8c1.9.6 3.5.9 4.8.9 3.1 0 7-1.5 7.7-8.4.4-3.9 1.2-7.9 2-12.1.1-.4.2-.9.2-1.3 2.1 1.5 4.3 2.7 6.7 3.5 3.2 1 6.6 1.6 10 1.6 18 0 34.4-13.9 36.4-31 1.1-8.7-.9-16.2-5.6-21.6-4.8-5.5-12-8.5-20.9-8.6-.1-.1-.3-.1-.6-.1zm-8.3 48.7c-4 0-7.5-1.6-10.1-4.5-2.8-3.3-4-7.7-3.4-12.5 1.6-11.8 13.6-19.6 20.8-19.6h.6c4.4 0 8.4 2 11.1 5.5 2.9 3.8 3.7 8.8 2.3 13.6-2.4 8.2-7.7 13.8-16 16.6-1.8.6-3.6.9-5.3.9z"/><path d="m262.3 88c-6.1 0-11.4-1.6-15.5-4.5-9.5-6.9-12.4-20.8-6.9-33 5.6-12.5 18.6-20.8 32.3-20.8 2.7 0 5.3.3 7.9.9 6 1.4 10.4 4.6 13.5 9.7l.7 1.1-39.7 33.8c2.5 2.3 5.5 3.5 8.9 3.5 1.9 0 4-.4 6.2-1.1 2.3-.8 4.5-2 7-3.9 2.4-1.8 4-3 5.9-3 1.6 0 3.2.8 6.1 2.3l1.5.8-.9 1.4c-5.2 7.6-16 12.8-27 12.8zm8.5-48.9c-4 0-8.3 1.7-12.6 5-8 6.1-11.6 15.1-9.3 22.8 8.5-7.2 17-14.5 25.5-21.7l4.3-3.7c-2.5-1.6-5.2-2.4-7.9-2.4z"/><path d="m272.2 31.1c2.5 0 5 .3 7.5.9 5.1 1.2 9.5 3.9 12.6 9-13.4 11.4-26.6 22.7-39.9 34 3 3.4 6.8 5.1 11.1 5.1 2.1 0 4.3-.4 6.7-1.2 2.7-.9 5.1-2.4 7.4-4.1 2.4-1.8 3.6-2.7 5-2.7 1.3 0 2.7.7 5.4 2.1-5.2 7.8-15.8 12.3-25.7 12.3-5.4 0-10.7-1.3-14.6-4.2-9-6.5-11.7-19.5-6.4-31.2 5.4-12.2 17.9-20 30.9-20m-24.2 37.8c.6-.3 1.2-.4 1.7-.8 10.5-8.9 20.9-17.8 31.5-26.8-3.3-2.5-6.8-3.8-10.4-3.8-4.4 0-8.9 1.8-13.5 5.3-9.1 6.9-12.9 17.4-9.3 26.1m24.2-40.8c-14.3 0-27.9 8.7-33.7 21.7-5.8 12.9-2.7 27.6 7.4 34.9 4.3 3.1 10 4.8 16.4 4.8 11.5 0 22.8-5.5 28.2-13.6l1.8-2.8-3-1.5c-2.8-1.5-4.7-2.5-6.8-2.5-2.5 0-4.3 1.4-6.8 3.3-2.3 1.8-4.4 2.9-6.5 3.7-2 .7-3.9 1-5.7 1-2.5 0-4.7-.7-6.6-2l26.1-22.2 11.2-9.6 2-1.7-1.3-2.2c-3.3-5.4-8.1-8.8-14.5-10.4-2.7-.6-5.5-.9-8.2-.9zm-22.4 36c-.9-6.6 2.5-13.8 9.2-18.9 4.1-3.1 8-4.7 11.7-4.7 1.8 0 3.6.4 5.3 1.2l-2.4 2c-7.7 6.7-15.8 13.6-23.8 20.4zm-150.6 23.3c-5 0-11.3-.7-16.4-6.5-2.7-3-4.3-6.1-5-9.4-.6-3-.8-5.4.5-7 1.3-1.7 3.7-2.1 7.1-2.1h.8l.5.6.1.1c.2.3.6.7.7 1.3 1.4 8.5 5 13 11.4 13.9.5.1 1.1.1 1.6.1 6.3 0 13.8-5 17.1-11.4 4.1-7.9 2.6-14.7-4.5-20.3-2.7-2.1-5.8-3.5-8.8-4.8-10.3-4.2-14.7-11.5-12.8-21.3 1.9-9.9 10.7-17.3 21-17.4h.6c9.7 0 15 3.4 17.1 11 .1.5.1 1 .1 1.4v1.3l-.7.4c-1.7 1.1-3.6 2.2-5.5 2.2-2.3 0-4.2-1.5-5.7-4.6-1.3-2.5-3.4-3.1-5-3.1-1.2 0-2.6.3-4 1-4.7 2.2-7.3 5.6-7.8 10.2-.5 4.1 2.2 6.7 6.2 9.3 1.5.9 3.1 1.7 4.8 2.4l.8.4c12.9 5.8 18.6 15.2 16.5 27-2.3 13.3-13.6 24-26.3 25-1.6.2-3 .3-4.4.3z"/><path d="m113.1 4.7c9 0 13.8 3 15.7 9.9.1.4 0 .9 0 1.5-1.7 1.1-3.2 2-4.6 2-1.6 0-3-1-4.4-3.8-1.3-2.7-3.7-3.9-6.3-3.9-1.5 0-3 .4-4.6 1.1-4.9 2.3-8 6.1-8.6 11.4-.6 5.2 3 8.2 6.9 10.7 1.8 1.2 3.8 2 5.8 2.9 12.2 5.5 17.6 14.3 15.7 25.4-2.2 12.6-12.9 22.8-24.9 23.7-1.5.1-3 .2-4.5.2-5.7 0-11-1.1-15.3-6-2.3-2.5-3.9-5.4-4.6-8.7-1.3-5.9-.1-7.2 6.2-7.3.2.3.5.5.5.8 1.5 9.2 5.6 14.1 12.7 15.2.6.1 1.2.1 1.8.1 6.8 0 14.8-5.2 18.5-12.2 4.4-8.5 2.7-16.1-4.9-22.1-2.8-2.2-5.9-3.6-9.2-5-9.8-4.1-13.8-10.6-12-19.7 1.8-9.2 10-16 19.5-16.2h.6m0-3h-.7c-10.9.2-20.4 8-22.4 18.6-1.4 7.3-.2 17.3 13.8 23.2 2.9 1.2 5.9 2.6 8.5 4.6 6.5 5.2 7.8 11.2 4.1 18.4-3.1 5.9-10 10.6-15.8 10.6-.5 0-1 0-1.4-.1-3.9-.6-8.5-2.5-10.2-12.7-.2-1.1-.8-1.8-1.1-2.1l-.9-1.2h-1.5c-3 .1-6.4.3-8.3 2.7-1.9 2.3-1.4 5.5-.8 8.3.8 3.6 2.5 6.9 5.3 10.1 5.6 6.2 12.7 7 17.6 7 1.4 0 2.9-.1 4.7-.2 13.3-1 25.2-12.3 27.7-26.2 2.2-12.4-4-22.6-17.4-28.6l-.8-.4c-1.7-.7-3.2-1.4-4.6-2.3-4.4-2.8-5.9-5-5.5-7.9.4-4.1 2.8-7.1 6.9-9.1 1.2-.5 2.3-.8 3.3-.8 1.7 0 2.9.7 3.6 2.2 1.8 3.6 4.2 5.4 7.1 5.4 2.3 0 4.4-1.2 6.3-2.5l1.3-.9v-1.6-.4c0-.5.1-1.1-.1-1.9-2.4-8.4-8.3-12.2-18.7-12.2z"/><path d="m149.5 87.7c-3.9 0-7.7-.9-10.9-2.6-6.3-3.3-9.5-9.1-8.6-15.9 1-7.9 2.3-15.9 3.7-23.7.6-3.3 1.1-6.6 1.7-9.9l.2-1.3h10.8l-1.7 9.9c-.8 4.6-1.6 9.2-2.3 13.8-.2 1.2-.4 2.4-.7 3.7-.3 1.5-.6 3.1-.8 4.7-.7 4.1.7 7.4 4.1 9.9 1.7 1.3 3.6 1.9 5.5 1.9 1.5 0 3.1-.4 4.7-1.2 5.7-2.8 8.9-6.9 9.9-12.4 1.2-6.9 2.4-13.8 3.7-20.8l1.6-8.6.7-.3c1.2-.6 2.5-.8 4.1-.8 1.3 0 2.6.2 4 .4l2 .3-.3 1.6c-.9 4.2-1.5 8.5-2.1 12.6-1.1 7.6-2.3 15.4-4.8 22.8-3.6 9.4-13.5 15.9-24.5 15.9z"/><path d="m174.9 35.6c1.3 0 2.7.2 4.2.4-2.4 11.9-3 24-6.9 35.3-3.2 9.2-13.1 14.9-22.8 14.9-3.6 0-7.1-.8-10.3-2.4-5.8-3-8.6-8.2-7.8-14.4 1.4-11.2 3.5-22.3 5.3-33.5h7.7c-1.3 7.5-2.5 14.7-3.7 22-.5 2.8-1.1 5.5-1.5 8.3-.8 4.7.9 8.5 4.7 11.4 2 1.5 4.2 2.2 6.4 2.2 1.8 0 3.6-.5 5.4-1.4 5.6-2.8 9.6-7 10.7-13.5 1.6-9.5 3.4-19 5.1-28.6 1.2-.5 2.3-.7 3.5-.7m0-3c-1.7 0-3.3.3-4.7.9l-1.4.6-.3 1.6c-.5 2.6-.9 5.2-1.4 7.9-1.2 6.8-2.5 13.9-3.7 20.8-.9 5.1-3.8 8.7-9.1 11.4-1.4.7-2.8 1.1-4.1 1.1-1.6 0-3.1-.5-4.6-1.6-2.9-2.2-4.1-5-3.5-8.5.2-1.5.5-3.1.8-4.6.2-1.2.5-2.5.7-3.7.8-4.6 1.6-9.3 2.4-13.9.4-2.7.9-5.4 1.4-8.1l.6-3.5h-13.8l-.4 2.5c-.5 3.3-1.1 6.6-1.7 9.9-1.3 7.8-2.7 15.8-3.7 23.7-.9 7.5 2.5 13.9 9.4 17.5 3.5 1.8 7.5 2.7 11.6 2.7 11.6 0 22.2-7 25.6-17 2.6-7.5 3.8-15.4 4.9-23.1.6-4.1 1.2-8.4 2.1-12.5l.6-3.1-3.2-.4-.4-.1c-1.3-.3-2.7-.5-4.1-.5z"/><path d="m294.4 86.4c-.9 0-1.8-.1-2.7-.1-.5 0-1-.1-1.5-.1l-1.7-.1 3.7-20.7c1.8-9.9 3.5-19.8 5.2-29.7l.2-1.2h8.4l.4.2c1.2.7 1.4 1.8 1.4 2.6 3.3-2 6.6-4 10.9-4 1 0 2.1.1 3.1.4l1.1.3v1.2c.1 3.3-.2 6.1-4.7 8-8 3.3-12.9 9.5-14.5 18.3-1.1 5.6-2.1 11.4-3 16.9-.4 2.2-1.3 7.4-1.3 7.4l-.9.3c-1.3.1-2.6.3-4.1.3z"/><path d="m318.7 34.7c.9 0 1.8.1 2.8.3.1 3-.1 5-3.8 6.6-8.5 3.5-13.7 10.2-15.5 19.4-1.5 7.8-2.8 15.6-4.2 23.4-1.2.4-2.4.5-3.6.5-1.3 0-2.6-.1-4.1-.2 2.9-16.5 5.7-32.6 8.6-48.8h6.7c1.4.8-.2 2.6 1.3 3.5 3.6-2.1 7.2-4.7 11.8-4.7m0-3c-3.9 0-7.1 1.5-10 3.2-.3-.6-.8-1.1-1.5-1.6l-.7-.4h-10l-.4 2.5c-1.7 9.9-3.5 19.8-5.2 29.7l-3.4 19.1-.6 3.3 3.4.2c.5 0 1 .1 1.4.1.9.1 1.8.1 2.8.1 1.7 0 3.1-.2 4.5-.6l1.8-.5.3-1.8c.4-2.2.8-4.3 1.2-6.5 1-5.5 2-11.3 3-16.9 1.5-8.3 6.1-14 13.6-17.1 5.5-2.3 5.8-6.1 5.7-9.5l-.1-2.3-2.3-.5c-1.2-.4-2.4-.5-3.5-.5z"/><path d="m171.1 108.5c-1.2 0-2.7-.3-4.4-.8l-1.2-.4.2-1.3c3.9-22 7.7-44.2 11.7-66.6l.2-1.2 1.2-.1c.6 0 1.1-.1 1.8-.2.8-.1 1.6-.2 2.5-.2 1.8 0 3.2.5 4.4 1.7 6.1-3.9 12.6-5.9 19.6-5.9h.6c8.5.2 15.3 3 19.8 8.1 4.4 5.1 6.2 12.2 5.2 20.4-2 16.4-17.7 29.7-34.9 29.7-3.3 0-6.5-.5-9.5-1.5s-5.5-2.6-8.2-4.6c-.2 1.2-.5 2.4-.7 3.6-.8 4.2-1.6 8.2-2 12.2-.6 4.7-2.7 7.1-6.3 7.1zm34.8-65.8c-7.7 0-20.5 8.3-22.3 20.9-.7 5.2.6 10.1 3.7 13.7 2.8 3.3 6.8 5 11.2 5 1.9 0 3.8-.3 5.7-1 8.7-3 14.4-8.9 17-17.6 1.5-5.3.6-10.7-2.6-14.9-2.9-3.9-7.4-6.1-12.3-6.1z"/><path d="m207 35.1h.6c16.2.3 25.6 10.7 23.6 26.9-2 16-17.6 28.3-33.5 28.3-3.1 0-6.1-.5-9.1-1.4-3.4-1.1-6.2-3.1-9.7-5.9-1.1 6.6-2.5 12.4-3.1 18.3-.4 3.9-1.8 5.7-4.7 5.7-1.1 0-2.4-.3-3.9-.8 3.9-22 7.7-44.2 11.7-66.6 1.4-.1 2.8-.4 4.2-.4 1.5 0 2.9.4 4.2 2.2 5.8-4.1 12.3-6.3 19.7-6.3m-8.4 48.7c2 0 4.1-.3 6.2-1.1 9.1-3.1 15.2-9.3 17.9-18.6 3.4-11.7-4.7-23-16.3-23h-.6c-8.4 0-21.9 8.8-23.7 22.2-1.5 11.5 6.2 20.5 16.5 20.5m8.4-51.7c-7 0-13.4 1.8-19.5 5.5-1.3-.9-2.8-1.3-4.5-1.3-1 0-1.8.1-2.7.3-.6.1-1.1.2-1.6.2l-2.4.1-.4 2.3c-3.9 22.4-7.8 44.5-11.7 66.6l-.4 2.6 2.5.8c1.9.6 3.5.9 4.8.9 3.1 0 7-1.5 7.7-8.4.4-3.9 1.2-7.9 2-12.1.1-.4.2-.9.2-1.3 2.1 1.5 4.3 2.7 6.7 3.5 3.2 1 6.6 1.6 10 1.6 18 0 34.4-13.9 36.4-31 1.1-8.7-.9-16.2-5.6-21.6-4.8-5.5-12-8.5-20.9-8.6-.2-.1-.4-.1-.6-.1zm-8.4 48.7c-4 0-7.5-1.6-10.1-4.5-2.8-3.3-4-7.7-3.4-12.5 1.6-11.8 13.6-19.6 20.8-19.6h.6c4.4 0 8.4 2 11.1 5.5 2.9 3.8 3.7 8.8 2.3 13.6-2.4 8.2-7.7 13.8-16 16.6-1.8.6-3.6.9-5.3.9z"/><path d="m257.3 91.7c-6.1 0-11.4-1.6-15.5-4.5-9.5-6.9-12.4-20.8-6.9-33 5.6-12.5 18.6-20.8 32.3-20.8 2.7 0 5.3.3 7.9.9 6 1.4 10.4 4.6 13.5 9.7l.7 1.1-39.7 33.8c2.5 2.3 5.5 3.5 8.9 3.5 1.9 0 4-.4 6.2-1.1 2.3-.8 4.5-2 7-3.9 2.4-1.8 4-3 5.9-3 1.6 0 3.2.8 6.1 2.3l1.5.8-.9 1.4c-5.2 7.6-16 12.8-27 12.8zm8.5-49c-4 0-8.3 1.7-12.6 5-8 6.1-11.6 15.1-9.3 22.8 8.5-7.2 17-14.5 25.6-21.8l4.3-3.6c-2.6-1.6-5.2-2.4-8-2.4z"/><path d="m267.2 34.8c2.5 0 5 .3 7.5.9 5.1 1.2 9.5 3.9 12.6 9-13.4 11.4-26.6 22.7-39.9 34 3 3.4 6.8 5.1 11.1 5.1 2.1 0 4.3-.4 6.7-1.2 2.7-.9 5.1-2.4 7.4-4.1 2.4-1.8 3.6-2.7 5-2.7 1.3 0 2.7.7 5.4 2.1-5.2 7.8-15.8 12.3-25.7 12.3-5.4 0-10.7-1.3-14.6-4.2-9-6.5-11.7-19.5-6.4-31.2 5.4-12.2 17.9-20 30.9-20m-24.1 37.8c.6-.3 1.2-.4 1.7-.8 10.5-8.9 20.9-17.8 31.5-26.8-3.3-2.5-6.8-3.8-10.4-3.8-4.4 0-8.9 1.8-13.5 5.3-9.2 6.9-13 17.3-9.3 26.1m24.1-40.8c-14.3 0-27.9 8.7-33.7 21.7-5.8 12.9-2.7 27.6 7.4 34.9 4.3 3.1 10 4.8 16.4 4.8 11.5 0 22.8-5.5 28.2-13.7l1.8-2.8-3-1.5c-2.8-1.5-4.7-2.5-6.8-2.5-2.5 0-4.3 1.4-6.8 3.3-2.3 1.8-4.4 2.9-6.5 3.7-2 .7-3.9 1-5.7 1-2.5 0-4.7-.7-6.6-2l26.1-22.2 11.2-9.6 2-1.7-1.3-2.2c-3.3-5.4-8.1-8.8-14.5-10.4-2.7-.5-5.4-.8-8.2-.8zm-22.4 36c-.9-6.6 2.5-13.8 9.2-18.9 4.1-3.1 8-4.7 11.7-4.7 1.8 0 3.6.4 5.3 1.2l-2.4 2c-7.7 6.7-15.8 13.6-23.8 20.4zm-150.6 23.3c-5 0-11.3-.7-16.4-6.5-2.7-3-4.3-6.1-5-9.4-.6-3-.8-5.4.5-7 1.3-1.7 3.7-2.1 7.1-2.1h.8l.5.6.1.1c.2.3.6.7.7 1.3 1.4 8.5 5 13 11.4 13.9.5.1 1.1.1 1.6.1 6.3 0 13.8-5 17.1-11.4 4.1-7.9 2.6-14.7-4.5-20.3-2.7-2.1-5.8-3.5-8.8-4.8-10.3-4.3-14.7-11.5-12.8-21.4s10.7-17.3 21-17.4h.6c9.7 0 15 3.4 17.1 11 .1.5.1 1 .1 1.4v1.3l-.7.4c-1.7 1.1-3.6 2.2-5.5 2.2-2.3 0-4.2-1.5-5.7-4.6-1.3-2.5-3.4-3.1-5-3.1-1.2 0-2.6.3-4 1-4.7 2.2-7.3 5.6-7.8 10.2-.5 4.1 2.2 6.7 6.2 9.3 1.5.9 3.1 1.7 4.8 2.4l.8.4c12.9 5.8 18.6 15.2 16.5 27-2.3 13.3-13.6 24-26.3 25-1.5.3-3 .4-4.4.4z"/><path d="m108.1 8.3c9 0 13.8 3 15.7 9.9.1.4 0 .9 0 1.5-1.7 1.1-3.2 2-4.6 2-1.6 0-3-1-4.4-3.8-1.3-2.7-3.7-3.9-6.3-3.9-1.5 0-3 .4-4.6 1.1-4.9 2.3-8 6.1-8.6 11.4-.6 5.2 3 8.2 6.9 10.7 1.8 1.2 3.8 2 5.8 2.9 12.2 5.5 17.6 14.3 15.7 25.4-2.2 12.6-12.9 22.8-24.9 23.7-1.5.1-3 .2-4.5.2-5.7 0-11-1.1-15.3-6-2.3-2.5-3.9-5.4-4.6-8.7-1.3-5.9-.1-7.2 6.2-7.3.2.3.5.5.5.8 1.5 9.2 5.6 14.2 12.7 15.2.6.1 1.2.1 1.8.1 6.8 0 14.8-5.2 18.5-12.2 4.4-8.5 2.7-16.1-4.9-22.1-2.8-2.2-5.9-3.6-9.2-5-9.8-4.1-13.7-10.7-12-19.8 1.8-9.2 10-16 19.5-16.2.2.1.4.1.6.1m0-3h-.7c-10.9.2-20.4 8-22.4 18.6-1.4 7.3-.2 17.3 13.8 23.2 2.9 1.2 5.9 2.6 8.5 4.6 6.5 5.2 7.8 11.2 4.1 18.4-3.1 5.9-10 10.6-15.8 10.6-.5 0-1 0-1.4-.1-3.9-.6-8.5-2.6-10.2-12.7-.2-1.1-.8-1.8-1.1-2.1l-.9-1.3h-1.5c-3 .1-6.4.3-8.3 2.7-1.9 2.3-1.4 5.5-.8 8.3.8 3.6 2.5 6.9 5.3 10.1 5.6 6.2 12.7 7 17.6 7 1.4 0 2.9-.1 4.7-.2 13.3-1 25.2-12.3 27.7-26.2 2.2-12.4-4-22.6-17.4-28.6l-.8-.4c-1.7-.7-3.2-1.4-4.6-2.3-4.4-2.8-5.9-5-5.5-7.9.4-4.1 2.8-7.1 6.9-9.1 1.2-.5 2.3-.8 3.3-.8 1.7 0 2.9.7 3.6 2.2 1.8 3.6 4.2 5.4 7.1 5.4 2.3 0 4.4-1.2 6.3-2.5l1.3-.9v-1.6-.4c0-.5.1-1.1-.1-1.9-2.4-8.2-8.3-12.1-18.7-12.1z"/><path d="m144.5 91.4c-3.9 0-7.7-.9-10.9-2.6-6.3-3.3-9.5-9.1-8.6-15.9 1-7.9 2.3-15.9 3.7-23.7.6-3.3 1.1-6.6 1.7-9.9l.2-1.3h10.8l-1.7 9.9c-.8 4.6-1.5 9.2-2.3 13.8-.2 1.2-.4 2.4-.7 3.7-.3 1.5-.6 3.1-.8 4.7-.7 4.1.7 7.4 4.1 9.9 1.7 1.3 3.6 1.9 5.5 1.9 1.5 0 3.1-.4 4.7-1.2 5.7-2.8 8.9-6.9 9.9-12.4 1.2-6.9 2.4-13.8 3.7-20.8l1.6-8.6.7-.3c1.2-.6 2.5-.8 4.1-.8 1.3 0 2.6.2 4 .4l2 .3-.3 1.6c-.9 4.2-1.5 8.5-2.1 12.6-1.1 7.6-2.3 15.4-4.8 22.8-3.6 9.3-13.5 15.9-24.5 15.9z"/><path d="m169.9 39.3c1.3 0 2.7.2 4.2.4-2.4 11.9-3 24-6.9 35.3-3.2 9.2-13.1 14.9-22.8 14.9-3.6 0-7.1-.8-10.3-2.4-5.8-3-8.6-8.2-7.8-14.4 1.4-11.2 3.5-22.3 5.3-33.5h7.7c-1.3 7.5-2.5 14.7-3.7 22-.5 2.8-1.1 5.5-1.5 8.3-.8 4.7.9 8.5 4.7 11.4 2 1.5 4.2 2.2 6.4 2.2 1.8 0 3.6-.5 5.4-1.4 5.6-2.8 9.6-7 10.7-13.5 1.6-9.5 3.4-19 5.1-28.6 1.2-.6 2.3-.7 3.5-.7m0-3c-1.7 0-3.3.3-4.7.9l-1.4.6-.3 1.6c-.5 2.6-.9 5.2-1.4 7.9-1.2 6.8-2.5 13.9-3.7 20.8-.9 5.1-3.8 8.7-9.1 11.4-1.4.7-2.8 1.1-4.1 1.1-1.6 0-3.1-.5-4.6-1.6-2.9-2.2-4.1-5-3.5-8.5.2-1.5.5-3.1.8-4.6.2-1.2.5-2.5.7-3.7.8-4.6 1.6-9.3 2.4-13.9.4-2.7.9-5.4 1.4-8.1l.6-3.5h-13.8l-.4 2.5c-.5 3.3-1.1 6.6-1.7 9.9-1.3 7.8-2.7 15.8-3.7 23.7-.9 7.5 2.5 13.9 9.4 17.5 3.5 1.8 7.5 2.7 11.6 2.7 11.6 0 22.2-7 25.6-17 2.6-7.5 3.8-15.4 4.9-23.1.6-4.1 1.2-8.4 2.1-12.5l.6-3.1-3.2-.4-.4-.1c-1.3-.3-2.7-.5-4.1-.5z"/><path d="m289.4 90c-.9 0-1.8-.1-2.7-.1-.5 0-1-.1-1.5-.1l-1.7-.1 3.7-21.3c1.7-9.8 3.4-19.5 5.1-29.2l.2-1.2h8.4l.4.2c1.2.7 1.4 1.8 1.4 2.6 3.3-2 6.6-4 10.9-4 1 0 2.1.1 3.1.4l1.1.3v1.2c.1 3.3-.2 6.1-4.7 8-8 3.3-12.9 9.5-14.5 18.3-1.1 5.7-2.1 11.4-3.1 17l-1.3 7.3-.9.3c-1.1.2-2.4.4-3.9.4z"/><path d="m313.7 38.3c.9 0 1.8.1 2.8.3.1 3-.1 5-3.8 6.6-8.5 3.5-13.7 10.2-15.5 19.4-1.5 7.8-2.8 15.6-4.2 23.4-1.2.4-2.4.5-3.6.5-1.3 0-2.6-.1-4.1-.2 2.9-16.5 5.7-32.6 8.6-48.8h6.7c1.4.8-.2 2.6 1.3 3.5 3.7-2.1 7.2-4.7 11.8-4.7m0-3c-3.9 0-7.1 1.5-10 3.2-.3-.6-.8-1.1-1.5-1.6l-.7-.4h-10l-.5 2.5c-1.7 9.9-3.5 19.8-5.2 29.7l-3.4 19.1-.6 3.3 3.4.2c.5 0 1 .1 1.4.1.9.1 1.8.1 2.8.1 1.7 0 3.1-.2 4.5-.6l1.8-.5.3-1.8c.4-2.2.8-4.3 1.2-6.5 1-5.5 2-11.3 3-16.9 1.5-8.3 6.1-14 13.6-17.1 5.5-2.3 5.8-6.1 5.7-9.5l-.1-2.3-2.3-.5c-1.1-.3-2.3-.5-3.4-.5z"/><path d="m363.1 158.7c3.5-3.4 5.4-7.3 7.6-10.8 6.3-9.9 12.3-20 18.5-30 7.3-11.7 17.3-16 31.1-13.6 1.7.3 4.1.8 3.6 3.2-.4 2.4 0 5.4-3.3 6.6-2.9 1.1-5.9 1-8.8.9-3.1-.1-5.2 1.1-6.9 3.8-11.4 17.7-23.1 35.3-34.4 53.1-2 3.2-4.2 4.4-8 4.3-14-.2-14-.1-13.9-14 0-17.1-.1-34.3 0-51.4 0-5.9.9-6.5 6.8-6 7.4.6 7.5.6 7.3 8.3-.2 10.8-.5 21.6-.8 32.4-.1 4.3.3 8.4 1.2 13.2z"/><path d="m75.9 164.9c-.7 3.1-1.3 6.3-2.1 9.5s-3.3 3.7-6.2 3.8c-13.9.4-27.5-8.9-30.5-21.1-3.1-12.2 4.8-27 17.5-33.2 17.5-8.4 37.5-1.1 42.8 15.7 1.7 5.3 1.5 10.5.2 15.7-1.3 5.6-3.2 11.2-4.3 16.8-.8 3.9-2.8 5.4-6.6 4.9-1.5-.2-3-.1-4.5 0-3.6.2-4.2-1.3-3.3-4.6 1.9-6.9 3.3-13.9 5.2-20.7 1.8-6.3.3-11.6-4.8-15.6-5.4-4.3-11.7-4.8-17.9-2-8.3 3.7-12.3 12.7-9.7 21.1 2.4 7.6 10.3 11.4 19.5 9.5 1.7-.3 3.1-1 4.7.2z"/><path d="m291.7 160.8c6.5 5.2 13.1 3.1 19.6 1.1 1.9 9.4-1.8 14.1-10.7 14.1-13 0-24.2-7.3-27.8-18-3.9-11.7.3-24.3 10.8-32.4 16.2-12.4 37.8-8.9 47.1 7.6 3.2 5.7 2.8 6.9-3.2 9.7-10.7 5-21.3 10-32 15-1.2.7-2.7 1.1-3.8 2.9zm-5.3-10.6c9.6-4.2 19.1-8.1 28.2-13.3-4.8-5.4-12.4-6.7-19-3.6-6.4 3-10.1 9.6-9.2 16.9z"/><path d="m174.4 160.8c6.1 5.1 12.6 2.9 19.5.8 0 5-1.6 9-2.9 13-.5 1.5-2 1.7-3.3 1.9-18.6 2.8-36.4-10.6-34.8-29.3 1.5-17.2 20.1-30.7 38-27.8 10.9 1.8 18.5 7.5 23.1 17.5 1.5 3.3 1 5-2.5 6.4-11 4.6-21.9 9.4-32.8 14.2-1.4.9-3.3 1.4-4.3 3.3zm-6.1-10.8c5.6-1.1 25.2-9.6 29.4-12.8-4.1-5.4-11.9-7.2-18.8-4.4s-11.4 9.8-10.6 17.2z"/><path d="m527.3 143.3c.3 18.4-14.4 33.3-29 34-8.3.3-16.1-.1-22.8-5.5-13-10.4-14.5-24.9-4-38.1 11.4-14.3 30.1-17.2 45-6.9 6.9 4.9 10.6 11.7 10.8 16.5zm-32.8 23c9.9 0 18.8-8.3 18.8-17.5 0-8.3-8-15.6-17-15.5-9.6.2-18.2 9-18.1 18.4.1 8.2 7.2 14.6 16.3 14.6z"/><path d="m557.4 134.1c-7.6.1-7.4.1-9.3 7.9-2.6 10.3-5.7 20.5-8.7 30.7-.5 1.7-.9 3.8-3.4 3.5-3.2-.4-6.7 1.1-9.6-.9-1.2-.8-.6-2.5-.3-3.8 3.4-15.3 8-30.2 12.2-45.2.8-2.7 2.3-4 5.5-3.9 7.7.2 15.3 0 23 0 10.7.1 15.2 5 13.3 15.4-2.2 11.9-5.5 23.6-9 35.3-1 3.2-3.4 3.4-6.3 3.2-9.1-.6-9-.5-6.5-9.2 2.2-7.8 4.2-15.7 6.3-23.6 2.2-9 1.8-9.5-7.2-9.4z"/><path d="m.1 144.4c-1-21.6 16.4-35.7 33.2-39 5.6-1.1 11.2-1.5 16.9-1.5 3.6 0 5.2.8 4.3 5-1.8 8.3-1.7 8.6-10.3 8.6-7.9 0-15.2 1.6-21.3 6.8-8 6.8-10.4 15.5-7.9 25.6 2.3 9.1 9.7 12.3 17.7 13.9 3.6.7 4.4 1.5 3.4 5-3 10.8-1.5 11.7-14.2 7.6-12.7-4.2-22.9-16.4-21.8-32z"/><path d="m233.9 164.5c-1.2 2.2-1.6 3.4-2.3 4.2-2.2 2.5-2.7 7.5-7.5 6.6-5.4-1.1-9.2-4.6-10.7-10-.8-2.9-.6-6 .1-8.9 3.9-16.3 7.9-32.6 11.9-48.9.7-2.8 2.1-4.8 5.6-4.4 2.8.3 5.6.1 8.7.1 1.5 4.6-.7 8.6-1.7 12.6-.9 3.4-.4 4.6 3.1 4.6 2.2 0 5-.9 5.1 2.9.1 5.3-2.2 10.1-5.4 9.7-6.2-.8-8.1 2.1-8.9 7.6-.8 5.2-2.3 10.4-3.6 15.5-1.1 4.4-2.2 8.7 5.6 8.4z"/><path d="m269.9 103.1c0 6.1-3.1 10.9-2.7 16.1.4.3.7.7.9.7 8 .9 9.2 3.1 5.6 10.5-1.3 2.7-3.7 2.5-6 2.4-3.3-.2-5.1.8-5.8 4.5-1.2 6.3-3 12.5-4.5 18.8-1 4.1-1 7.8 5.3 8.5-2.1 4.4-3.2 9.5-7.9 10.3-4.6.8-8.4-2.5-10.8-6.7-2-3.3-2.2-7-1.5-10.6 3.4-17.2 8.2-34.1 12.8-51 .6-2.3 2-3.7 4.7-3.5 3.2.1 6.3 0 9.9 0z"/><path d="m119 176.6c.8-5.8.4-11.3 6.1-15.1 3.8-2.6 4-7.8 5.1-12.1 1.9-7.9 3.3-16 9.6-22 3.9-3.7 8.2-6.3 13.6-6.6 3-.2 4.4 1.1 3.5 4.2-1.3 4.5-1.7 9.5-6.6 12.2-1.9 1-2.4 3.5-2.9 5.6-1.4 5.5-2.6 11-4.1 16.4-3.2 11.2-13.3 18.7-24.3 17.4z"/><path d="m99.5 177.1c-1.8.2-3.6-.6-3.2-2.6.9-4.4.6-9.3 5.1-12.4 4.2-2.9 4.4-8 5.6-12.4 1.5-5.8 2.3-11.7 5.3-17 3.7-6.6 9.2-10.7 16.7-12.2 3.3-.6 5 .3 4.2 3.8-1 4.6-1.1 9.6-6.1 12.4-1.8 1-2.3 3.2-2.8 5.1-1.5 5.8-2.9 11.5-4.4 17.3-2.5 10-11.7 18.1-20.4 18z"/><path d="m444.1 121.2c4.9-.1 6.3 1.1 4.8 5.1-1.7 4.3-3.6 8.1-6.9 11.7-4.7 5-4.7 12.5-6.5 18.9-2.8 9.9-8.1 17.2-18.6 19.8-4.9 1.2-6.1.2-5-4.8.9-4 1.6-7.9 5.9-10.4 2.5-1.5 2.8-5 3.6-7.9 2-7.4 3.2-15.1 7.4-21.8 3.7-6.2 9.3-9.6 15.3-10.6z"/><path d="m447.6 176.6c-1.3-.1-2.6-.3-4-.4-2.9-.2-3.5-1.3-2.7-4.2 3.9-15.2 7.7-30.5 11.3-45.8.6-2.8 2.6-3.2 4.6-3.8.9-.3 2-.2 3-.2 8.1-.2 8.6.4 6.4 8.4-3.7 13.5-7.4 27-10.8 40.7-1.1 4.5-3.7 5.6-7.8 5.3z"/><path d="m419.2 122.4c0 6.9-2.9 13.4-4.3 20-2.1 9.6-4.9 19-7.4 28.6-.5 1.9-.5 4.6-2.7 4.9-3.5.5-7.4 1.1-10.8-.3-2.1-.9-.9-3.7-.4-5.5 3.7-13.1 6.7-26.3 9.9-39.5 2.2-9.2 4.4-10.4 15.7-8.2z"/><path d="m457 113.9c.6-7.6 6.3-11.3 12.9-8.6 1.7.7 1.7 2 1.5 3.3-.4 2.4-.3 5.5-3.3 6.1-3.7.6-7.6 1.1-11.1-.8z"/></g><path d="m176.1 103.2c-1.2 0-2.7-.3-4.4-.8l-1.2-.4.2-1.3c3.9-22 7.7-44.2 11.7-66.6l.2-1.2 1.2-.1c.6 0 1.1-.1 1.8-.2.8-.1 1.6-.2 2.5-.2 1.8 0 3.2.5 4.4 1.7 6.1-3.9 12.6-5.9 19.6-5.9h.6c8.5.2 15.3 3 19.8 8.1 4.4 5.1 6.2 12.2 5.2 20.4-2 16.4-17.7 29.7-34.9 29.7-3.3 0-6.5-.5-9.5-1.5s-5.5-2.6-8.2-4.6c-.2 1.2-.5 2.4-.7 3.6-.8 4.2-1.6 8.2-2 12.2-.6 4.7-2.7 7.1-6.3 7.1zm34.8-65.8c-7.7 0-20.5 8.3-22.3 20.9-.7 5.2.6 10.1 3.7 13.7 2.8 3.2 6.8 5 11.2 5 1.9 0 3.8-.3 5.7-1 8.7-3 14.4-8.9 17-17.6 1.5-5.3.6-10.7-2.6-14.9-2.9-3.9-7.4-6.1-12.3-6.1z" fill="#fff200"/><path d="m211.9 29.7h.6c16.2.3 25.6 10.7 23.6 26.9-2 16-17.6 28.3-33.5 28.3-3.1 0-6.1-.5-9.1-1.4-3.4-1.1-6.2-3.1-9.7-5.9-1.1 6.6-2.5 12.4-3.1 18.3-.4 3.9-1.8 5.7-4.7 5.7-1.1 0-2.4-.3-3.9-.8 3.9-22 7.7-44.2 11.7-66.6 1.4-.1 2.8-.4 4.2-.4 1.5 0 2.9.4 4.2 2.2 5.9-4 12.4-6.3 19.7-6.3m-8.3 48.8c2 0 4.1-.3 6.2-1.1 9.1-3.1 15.2-9.3 17.9-18.6 3.4-11.7-4.7-23-16.3-23h-.6c-8.4 0-21.9 8.8-23.7 22.2-1.5 11.5 6.2 20.5 16.5 20.5m8.3-51.8c-7 0-13.4 1.8-19.5 5.5-1.3-.9-2.8-1.3-4.5-1.3-1 0-1.8.1-2.7.3-.6.1-1.1.2-1.6.2l-2.4.1-.4 2.3c-3.9 22.4-7.8 44.5-11.7 66.6l-.4 2.6 2.5.8c1.9.6 3.5.9 4.8.9 3.1 0 7-1.5 7.7-8.4.4-3.9 1.2-7.9 2-12.1.1-.4.2-.9.2-1.3 2.1 1.5 4.3 2.7 6.7 3.5 3.2 1 6.6 1.6 10 1.6 18 0 34.4-13.9 36.4-31 1.1-8.7-.9-16.2-5.6-21.6-4.8-5.5-12-8.5-20.9-8.6-.1-.1-.3-.1-.6-.1zm-8.3 48.8c-4 0-7.5-1.6-10.1-4.5-2.8-3.3-4-7.7-3.4-12.5 1.6-11.8 13.6-19.6 20.8-19.6h.6c4.4 0 8.4 2 11.1 5.5 2.9 3.8 3.7 8.8 2.3 13.6-2.4 8.2-7.7 13.8-16 16.6-1.8.6-3.6.9-5.3.9z" fill="#a50000"/><path d="m262.3 86.4c-6.1 0-11.4-1.6-15.5-4.5-9.5-6.9-12.4-20.8-6.9-33 5.6-12.5 18.6-20.8 32.3-20.8 2.7 0 5.3.3 7.9.9 6 1.4 10.4 4.6 13.5 9.7l.7 1.1-39.7 33.8c2.5 2.3 5.5 3.5 8.9 3.5 1.9 0 4-.4 6.2-1.1 2.3-.8 4.5-2 7-3.9 2.4-1.8 4-3 5.9-3 1.6 0 3.2.8 6.1 2.3l1.5.8-.9 1.4c-5.2 7.5-16 12.8-27 12.8zm8.5-49c-4 0-8.3 1.7-12.6 5-8 6.1-11.6 15.1-9.3 22.8 8.6-7.3 17.2-14.6 25.8-22l4-3.4c-2.5-1.6-5.2-2.4-7.9-2.4z" fill="#fff200"/><path d="m272.2 29.5c2.5 0 5 .3 7.5.9 5.1 1.2 9.5 3.9 12.6 9-13.4 11.4-26.6 22.7-39.9 34 3 3.4 6.8 5.1 11.1 5.1 2.1 0 4.3-.4 6.7-1.2 2.7-.9 5.1-2.4 7.4-4.1 2.4-1.8 3.6-2.7 5-2.7 1.3 0 2.7.7 5.4 2.1-5.2 7.8-15.8 12.3-25.7 12.3-5.4 0-10.7-1.3-14.6-4.2-9-6.5-11.7-19.5-6.4-31.2 5.4-12.3 17.9-20 30.9-20m-24.2 37.7c.6-.3 1.2-.4 1.7-.8 10.5-8.9 20.9-17.8 31.5-26.8-3.3-2.5-6.8-3.8-10.4-3.8-4.4 0-8.9 1.8-13.5 5.3-9.1 7-12.9 17.4-9.3 26.1m24.2-40.7c-14.3 0-27.9 8.7-33.7 21.7-5.8 12.9-2.7 27.6 7.4 34.9 4.3 3.1 10 4.8 16.4 4.8 11.5 0 22.8-5.5 28.2-13.6l1.8-2.8-3-1.5c-2.8-1.5-4.7-2.5-6.8-2.5-2.5 0-4.3 1.4-6.8 3.3-2.3 1.8-4.4 2.9-6.5 3.7-2 .7-3.9 1-5.7 1-2.5 0-4.7-.7-6.6-2l26.1-22.2 11.2-9.6 2-1.7-1.3-2.2c-3.3-5.4-8.1-8.8-14.5-10.4-2.7-.6-5.5-.9-8.2-.9zm-22.4 35.9c-.9-6.6 2.5-13.8 9.2-18.9 4.1-3.1 8-4.7 11.7-4.7 1.8 0 3.6.4 5.3 1.2l-2.4 2c-7.7 6.8-15.8 13.7-23.8 20.4z" fill="#a50000"/><path d="m99.2 85.7c-5 0-11.3-.7-16.4-6.5-2.7-3-4.3-6.1-5-9.4-.6-3-.8-5.4.5-7 1.3-1.7 3.7-2.1 7.1-2.1h.8l.5.6.1.1c.2.3.6.7.7 1.3 1.4 8.5 5 13 11.4 13.9.5.1 1.1.1 1.6.1 6.3 0 13.8-5 17.1-11.4 4.1-7.9 2.6-14.7-4.5-20.3-2.7-2.1-5.8-3.5-8.8-4.8-10.3-4.2-14.7-11.4-12.8-21.3s10.7-17.3 21-17.4h.6c9.7 0 15 3.4 17.1 11 .1.5.1 1 .1 1.4v1.3l-.7.4c-1.7 1.1-3.6 2.2-5.5 2.2-2.3 0-4.2-1.5-5.7-4.6-1.3-2.5-3.4-3.1-5-3.1-1.2 0-2.6.3-4 1-4.7 2.2-7.3 5.6-7.8 10.2-.5 4.1 2.2 6.7 6.2 9.3 1.5.9 3.1 1.7 4.8 2.4l.8.4c12.9 5.8 18.6 15.2 16.5 27-2.3 13.3-13.6 24-26.3 25-1.6.3-3 .3-4.4.3z" fill="#fff200"/><path d="m113.1 3c9 0 13.8 3 15.7 9.9.1.4 0 .9 0 1.5-1.7 1.1-3.2 2-4.6 2-1.6 0-3-1-4.4-3.8-1.3-2.7-3.7-3.9-6.3-3.9-1.5 0-3 .4-4.6 1.1-4.9 2.3-8 6.1-8.6 11.4-.6 5.2 3 8.2 6.9 10.7 1.8 1.2 3.8 2 5.8 2.9 12.2 5.5 17.6 14.3 15.7 25.4-2.2 12.6-12.9 22.8-24.9 23.7-1.5.1-3 .2-4.5.2-5.7 0-11-1.1-15.3-6-2.3-2.5-3.9-5.4-4.6-8.7-1.3-5.9-.1-7.2 6.2-7.3.2.3.5.5.5.8 1.5 9.2 5.6 14.1 12.7 15.2.6.1 1.2.1 1.8.1 6.8 0 14.8-5.2 18.5-12.2 4.4-8.5 2.7-16.1-4.9-22.1-2.8-2.2-5.9-3.6-9.2-5-9.8-4.1-13.7-10.7-12-19.8 1.8-9.2 10-16 19.5-16.2.2.1.4.1.6.1m0-3h-.7c-10.9.2-20.3 8-22.4 18.6-1.4 7.3-.2 17.3 13.8 23.2 2.9 1.2 5.9 2.6 8.5 4.6 6.5 5.2 7.8 11.2 4.1 18.4-3.1 5.9-10 10.6-15.8 10.6-.5 0-1 0-1.4-.1-3.9-.6-8.5-2.5-10.2-12.7-.2-1.1-.8-1.8-1.1-2.1l-.9-1.2h-1.5c-3 .1-6.4.3-8.3 2.7-1.9 2.3-1.4 5.5-.8 8.3.8 3.6 2.5 6.9 5.3 10.1 5.6 6.2 12.7 7 17.6 7 1.4 0 2.9-.1 4.7-.2 13.3-1 25.2-12.3 27.7-26.2 2.2-12.4-4-22.6-17.4-28.6l-.8-.4c-1.7-.7-3.2-1.4-4.6-2.3-4.4-2.8-5.9-5-5.5-7.9.4-4.1 2.8-7.1 6.9-9.1 1.2-.5 2.3-.8 3.3-.8 1.7 0 2.9.7 3.6 2.2 1.8 3.6 4.2 5.4 7.1 5.4 2.3 0 4.4-1.2 6.3-2.5l1.3-.9v-1.6-.4c0-.5.1-1.1-.1-1.9-2.4-8.3-8.3-12.2-18.7-12.2z" fill="#a50000"/><path d="m149.5 86.1c-3.9 0-7.7-.9-10.9-2.6-6.3-3.3-9.5-9.1-8.6-15.9 1-7.9 2.3-15.9 3.7-23.7.6-3.3 1.1-6.6 1.7-9.9l.2-1.3h10.8l-1.7 9.9c-.8 4.6-1.5 9.2-2.3 13.8-.2 1.2-.4 2.4-.7 3.7-.3 1.5-.6 3.1-.8 4.7-.7 4.1.7 7.4 4.1 9.9 1.7 1.3 3.6 1.9 5.5 1.9 1.5 0 3.1-.4 4.7-1.2 5.7-2.8 8.9-6.9 9.9-12.4 1.2-6.9 2.4-13.8 3.7-20.8l1.6-8.6.7-.3c1.2-.6 2.5-.8 4.1-.8 1.3 0 2.6.2 4 .4l2 .3-.3 1.6c-.9 4.2-1.5 8.5-2.1 12.6-1.1 7.6-2.3 15.4-4.8 22.8-3.6 9.3-13.5 15.9-24.5 15.9z" fill="#fff200"/><path d="m174.9 33.9c1.3 0 2.7.2 4.2.4-2.4 11.9-3 24-6.9 35.3-3.2 9.2-13.1 14.9-22.8 14.9-3.6 0-7.1-.8-10.3-2.4-5.8-3-8.6-8.2-7.8-14.4 1.4-11.2 3.5-22.3 5.3-33.5h7.7c-1.3 7.5-2.5 14.7-3.7 22-.5 2.8-1.1 5.5-1.5 8.3-.8 4.7.9 8.5 4.7 11.4 2 1.5 4.2 2.2 6.4 2.2 1.8 0 3.6-.5 5.4-1.4 5.6-2.8 9.6-7 10.7-13.5 1.6-9.5 3.4-19 5.1-28.6 1.2-.5 2.3-.7 3.5-.7m0-3c-1.7 0-3.3.3-4.7.9l-1.4.6-.3 1.6c-.5 2.6-.9 5.2-1.4 7.9-1.2 6.8-2.5 13.9-3.7 20.8-.9 5.1-3.8 8.7-9.1 11.4-1.4.7-2.8 1.1-4.1 1.1-1.6 0-3.1-.5-4.6-1.6-2.9-2.2-4.1-5-3.5-8.5.2-1.5.5-3.1.8-4.6.2-1.2.5-2.5.7-3.7.8-4.6 1.6-9.3 2.4-13.9.4-2.7.9-5.4 1.4-8.1l.6-3.5h-13.8l-.4 2.5c-.5 3.3-1.1 6.6-1.7 9.9-1.3 7.8-2.7 15.8-3.7 23.7-.9 7.5 2.5 13.9 9.4 17.5 3.5 1.8 7.5 2.7 11.6 2.7 11.6 0 22.2-7 25.6-17 2.6-7.5 3.8-15.4 4.9-23.1.6-4.1 1.2-8.4 2.1-12.5l.6-3.1-3.2-.4-.4-.1c-1.3-.3-2.7-.5-4.1-.5z" fill="#a50000"/><path d="m294.4 84.7c-.9 0-1.8-.1-2.7-.1-.5 0-1-.1-1.5-.1l-1.7-.1 3.7-21.3c1.7-9.8 3.4-19.4 5.1-29.2l.2-1.2h8.4l.4.2c1.2.7 1.4 1.8 1.4 2.6 3.3-2 6.6-4 10.9-4 1 0 2.1.1 3.1.4l1.1.3v1.2c.1 3.3-.2 6.1-4.7 8-8 3.3-12.9 9.5-14.5 18.3-1.1 5.6-2.1 11.4-3.1 17l-1.3 7.3-.9.3c-1.1.2-2.4.4-3.9.4z" fill="#fff200"/><path d="m318.7 33c.9 0 1.8.1 2.8.3.1 3-.1 5-3.8 6.6-8.5 3.5-13.7 10.2-15.5 19.4-1.5 7.8-2.8 15.6-4.2 23.4-1.2.4-2.4.5-3.6.5-1.3 0-2.6-.1-4.1-.2 2.9-16.5 5.7-32.6 8.6-48.8h6.7c1.4.8-.2 2.6 1.3 3.5 3.6-2.1 7.2-4.7 11.8-4.7m0-3c-3.9 0-7.1 1.5-10 3.2-.3-.6-.8-1.1-1.5-1.6l-.7-.4h-10l-.4 2.5c-1.7 9.9-3.5 19.8-5.2 29.7l-3.4 19.1-.6 3.3 3.4.2c.5 0 1 .1 1.4.1.9.1 1.8.1 2.8.1 1.7 0 3.1-.2 4.5-.6l1.8-.5.3-1.8c.4-2.2.8-4.3 1.2-6.5 1-5.5 2-11.3 3-16.9 1.5-8.3 6.1-14 13.6-17.1 5.5-2.3 5.8-6.1 5.7-9.5l-.1-2.3-2.3-.5c-1.2-.4-2.4-.5-3.5-.5z" fill="#a50000"/></svg>