<?xml version="1.0" encoding="UTF-8" standalone="no"?>
<!-- Created with Inkscape (http://www.inkscape.org/) -->

<svg
   version="1.1"
   id="svg1"
   width="502"
   height="502"
   viewBox="0 0 502 502"
   sodipodi:docname="custom-avatar.svg"
   inkscape:version="1.4.2 (f4327f4, 2025-05-13)"
   xmlns:inkscape="http://www.inkscape.org/namespaces/inkscape"
   xmlns:sodipodi="http://sodipodi.sourceforge.net/DTD/sodipodi-0.dtd"
   xmlns="http://www.w3.org/2000/svg"
   xmlns:svg="http://www.w3.org/2000/svg">
  <defs
     id="defs1" />
  <sodipodi:namedview
     id="namedview1"
     pagecolor="#ffffff"
     bordercolor="#000000"
     borderopacity="0.25"
     inkscape:showpageshadow="2"
     inkscape:pageopacity="0.0"
     inkscape:pagecheckerboard="0"
     inkscape:deskcolor="#d1d1d1"
     inkscape:zoom="1.6513944"
     inkscape:cx="241.61399"
     inkscape:cy="260.08323"
     inkscape:window-width="1920"
     inkscape:window-height="1009"
     inkscape:window-x="-8"
     inkscape:window-y="-8"
     inkscape:window-maximized="1"
     inkscape:current-layer="g1" />
  <g
     inkscape:groupmode="layer"
     inkscape:label="Image"
     id="g1">
    <g
       id="g3"
       transform="translate(68.427021,77.510253)">
      <path
         style="fill:#3f48cc;fill-opacity:1;stroke-width:0.605549"
         d="m 157.29132,420.44268 c -2.74768,-0.13242 -4.99578,-0.50223 -4.99578,-0.82181 0,-0.31958 -1.63498,-0.58106 -3.6333,-0.58106 -1.99831,0 -3.63329,-0.23735 -3.63329,-0.52744 0,-0.29009 -2.45247,-0.7193 -5.44994,-0.95379 -2.99747,-0.23448 -5.44994,-0.67837 -5.44994,-0.98642 0,-0.30805 -1.0739,-0.56009 -2.38645,-0.56009 -1.31256,0 -2.54166,-0.25112 -2.73134,-0.55804 -0.18969,-0.30692 -2.11325,-0.74741 -4.27459,-0.97887 -2.16133,-0.23145 -3.92969,-0.66158 -3.92969,-0.95584 0,-0.29424 -0.76299,-0.535 -1.69554,-0.535 -0.93255,0 -1.97528,-0.27974 -2.31718,-0.62164 -0.3419,-0.3419 -2.03138,-0.7886 -3.7544,-0.99267 -1.72302,-0.20407 -3.13276,-0.60557 -3.13276,-0.89223 0,-0.28666 -0.68124,-0.5212 -1.51387,-0.5212 -0.83263,0 -1.51388,-0.24693 -1.51388,-0.54873 0,-0.3018 -1.36248,-0.73611 -3.02774,-0.96514 -1.66526,-0.22904 -3.02775,-0.65101 -3.02775,-0.93771 0,-0.28671 -0.956742,-0.70078 -2.126112,-0.92015 -1.16935,-0.21937 -2.27543,-0.64046 -2.45793,-0.93576 -0.1825,-0.2953 -0.99698,-0.5369 -1.80996,-0.5369 -0.81297,0 -1.47813,-0.26015 -1.47813,-0.57811 0,-0.31796 -1.02186,-0.76601 -2.27081,-0.99567 -1.24894,-0.22966 -2.40706,-0.59683 -2.57358,-0.81593 -0.57321,-0.75418 -4.72673,-2.45468 -5.99562,-2.45468 -0.69903,0 -1.27097,-0.2725 -1.27097,-0.60555 0,-0.33305 -0.40874,-0.60555 -0.90832,-0.60555 -0.49958,0 -0.90832,-0.26015 -0.90832,-0.57811 0,-0.31796 -0.95374,-0.75704 -2.11943,-0.97572 -1.16568,-0.21868 -2.11942,-0.63977 -2.11942,-0.93576 0,-0.29599 -0.40874,-0.53816 -0.90832,-0.53816 -0.49958,0 -0.90832,-0.27249 -0.90832,-0.60554 0,-0.33306 -0.29944,-0.60555 -0.66542,-0.60555 -0.8104,0 -4.96883,-1.89821 -5.39007,-2.46042 -0.16653,-0.22225 -0.96307,-0.61041 -1.7701,-0.86256 -0.80702,-0.25217 -2.02784,-0.98068 -2.71292,-1.61893 -0.68508,-0.63825 -1.93226,-1.32811 -2.77152,-1.53303 -0.83925,-0.20492 -1.66217,-0.53499 -1.82869,-0.7335 -0.50091,-0.59711 -2.6541,-1.88616 -3.78468,-2.26578 -0.58285,-0.1957 -1.05971,-0.56699 -1.05971,-0.82509 0,-0.25811 -0.68125,-0.64026 -1.51388,-0.84924 -0.83263,-0.20898 -1.51387,-0.64726 -1.51387,-0.97397 0,-0.3267 -0.40874,-0.59401 -0.90832,-0.59401 -0.49958,0 -0.90833,-0.25414 -0.90833,-0.56474 0,-0.31061 -0.61311,-0.75834 -1.36248,-0.99495 -0.74937,-0.23661 -1.77123,-0.89723 -2.27081,-1.46805 -0.49958,-0.57082 -1.52144,-1.23145 -2.27081,-1.46806 -0.74936,-0.23661 -1.36248,-0.68434 -1.36248,-0.99495 0,-0.3106 -0.30938,-0.56474 -0.6875,-0.56474 -0.37812,0 -1.31885,-0.68124 -2.09051,-1.51387 -0.77165,-0.83263 -1.70152,-1.51387 -2.06638,-1.51387 -0.36486,0 -1.29473,-0.68125 -2.06639,-1.51387 -0.77165,-0.83263 -1.67411,-1.51388 -2.00546,-1.51388 -0.33135,0 -1.52634,-0.95084 -2.65553,-2.11297 -1.1292,-1.16214 -2.32558,-2.11633 -2.65863,-2.12042 -0.33305,-0.004 -1.63072,-1.09698 -2.8837,-2.42864 -1.25298,-1.33166 -2.523946,-2.4212 -2.824366,-2.4212 -0.74502,0 -4.88904,-4.07322 -4.88904,-4.80552 0,-0.32344 -2.12764,-2.72431 -4.72809,-5.33527 l -4.7280902,-4.74719 -0.74414,-10.87386 c -0.72689,-10.62179 -0.63324,-14.65154 0.91056,-39.18327 0.20435,-3.24726 0.56813,-5.90411 0.8084,-5.90411 0.24027,0 0.62911,-3.06559 0.86408,-6.81242 0.23498,-3.74683 0.68251,-6.90326 0.99451,-7.01427 0.31201,-0.11102 0.56728,-1.40538 0.56728,-2.87636 0,-1.47098 0.2372902,-2.67451 0.5273102,-2.67451 0.29002,0 0.71526,-1.90748 0.94499,-4.23884 0.22973,-2.33136 0.67368,-4.23884 0.98657,-4.23884 0.31288,0 0.56888,-1.22624 0.56888,-2.72497 0,-1.49874 0.25289,-2.72497 0.56197,-2.72497 0.30909,0 0.74923,-1.49874 0.9781,-3.33052 0.22887,-1.83179 0.65722,-3.33052 0.9519,-3.33052 0.29467,0 0.53577,-0.68124 0.53577,-1.51387 0,-0.83263 0.24693,-1.51387 0.54873,-1.51387 0.3018,0 0.73611,-1.36249 0.96514,-3.02775 0.22904,-1.66526 0.59683,-3.02774 0.81733,-3.02774 0.54662,0 1.79326,-2.90996 2.27189,-5.30315 0.21598,-1.07989 0.63113,-1.96344 0.92255,-1.96344 0.29142,0 0.529846,-0.40874 0.529846,-0.90832 0,-0.49958 0.25085,-0.90833 0.55744,-0.90833 0.30658,0 0.74957,-0.88561 0.9844,-1.96803 0.23483,-1.08242 0.61695,-2.10428 0.84916,-2.27081 0.2322,-0.16652 1.31065,-2.14213 2.39655,-4.39023 1.0859,-2.2481 2.22416,-4.08745 2.52948,-4.08745 0.30531,0 0.55511,-0.545 0.55511,-1.2111 0,-0.6661 0.27249,-1.2111 0.60555,-1.2111 0.33305,0 0.60554,-0.41054 0.60554,-0.91232 0,-0.50179 0.68125,-1.50467 1.51388,-2.22863 0.83263,-0.72396 1.51387,-1.63773 1.51387,-2.03059 0,-0.39287 0.68124,-1.2259 1.51387,-1.85117 0.83263,-0.62528 1.51388,-1.47346 1.51388,-1.88484 0,-0.82418 9.01694,-9.86446 9.83898,-9.86446 0.28225,0 1.14453,-0.68124 1.91618,-1.51387 0.77166,-0.83263 1.71239,-1.51388 2.09051,-1.51388 0.37812,0 0.6875,-0.2673 0.6875,-0.59401 0,-0.3267 0.68124,-0.76499 1.51387,-0.97397 0.83263,-0.20897 1.51387,-0.62291 1.51387,-0.91986 0,-0.29694 0.545,-0.5399 1.2111,-0.5399 0.6661,0 1.2111,-0.25085 1.2111,-0.55743 0,-0.30659 0.81749,-0.73699 1.81664,-0.95644 0.99916,-0.21945 1.81665,-0.64985 1.81665,-0.95644 0,-0.30659 0.54499,-0.55743 1.2111,-0.55743 0.6661,0 1.2111,-0.26928 1.2111,-0.5984 0,-0.32911 1.08998,-0.77269 2.42219,-0.98571 1.33221,-0.21303 2.4222,-0.625 2.4222,-0.91548 0,-0.29049 0.68124,-0.52816 1.51387,-0.52816 0.83263,0 1.51387,-0.25081 1.51387,-0.55735 0,-0.30654 1.83936,-0.74838 4.08746,-0.98187 2.2481,-0.23349 4.37884,-0.65643 4.73499,-0.93988 1.00738,-0.80174 13.60112,-0.89335 14.0899,-0.10249 0.22737,0.36791 1.17919,0.86112 2.11514,1.09603 0.93595,0.23491 2.02063,0.93776 2.4104,1.56188 0.38978,0.62413 1.03241,1.13478 1.428092,1.13478 0.39567,0 1.0795,0.35096 1.5196,0.77991 0.4401,0.42895 1.82205,1.25923 3.071,1.84506 1.24894,0.58583 2.2708,1.32486 2.2708,1.64228 0,0.31743 0.51585,0.57714 1.14631,0.57714 0.63048,0 1.30316,0.40875 1.49487,0.90832 0.19171,0.49958 0.87295,0.90833 1.51388,0.90833 0.64091,0 1.32373,0.41283 1.51736,0.91741 0.19362,0.50457 1.04026,1.17907 1.88142,1.49888 0.84117,0.31981 1.5294,0.86072 1.5294,1.20201 0,0.3413 0.54499,0.62054 1.21109,0.62054 0.66611,0 1.2111,0.24071 1.2111,0.53492 0,0.29421 0.47687,0.70973 1.05971,0.92339 2.06038,0.75529 4.39023,2.24843 4.39023,2.81357 0,0.31488 0.545,0.57251 1.2111,0.57251 0.6661,0 1.2111,0.25085 1.2111,0.55743 0,0.30659 0.81749,0.73699 1.81664,0.95644 0.99916,0.21945 1.81665,0.64985 1.81665,0.95644 0,0.30659 0.54499,0.55743 1.2111,0.55743 0.6661,0 1.2111,0.23767 1.2111,0.52816 0,0.29048 1.08998,0.70245 2.42219,0.91548 1.33221,0.21303 2.4222,0.6566 2.4222,0.98572 0,0.32911 0.68124,0.59839 1.51387,0.59839 0.83263,0 1.51387,0.26927 1.51387,0.59839 0,0.32912 1.08999,0.77269 2.4222,0.98572 1.3322,0.21303 2.42219,0.62499 2.42219,0.91548 0,0.29048 0.68124,0.52815 1.51387,0.52815 0.83263,0 1.51388,0.2373 1.51388,0.52733 0,0.29004 1.63498,0.71231 3.63329,0.9384 1.99831,0.22608 3.63329,0.67002 3.63329,0.98654 0,0.31651 1.06728,0.57548 2.37174,0.57548 1.30445,0 2.46341,0.27502 2.57545,0.61117 0.11205,0.33614 3.26847,0.78652 7.01428,1.00084 3.7458,0.21432 6.81055,0.62054 6.81055,0.9027 0,0.28217 4.08745,0.51303 9.08323,0.51303 4.99578,0 9.08323,-0.23251 9.08323,-0.51668 0,-0.28417 3.20184,-0.70672 7.1152,-0.93899 3.91336,-0.23227 7.20603,-0.68101 7.31705,-0.99719 0.11102,-0.31619 1.13288,-0.57488 2.27081,-0.57488 1.13792,0 2.06896,-0.23454 2.06896,-0.5212 0,-0.28667 1.34167,-0.68011 2.98151,-0.87432 1.63982,-0.19422 3.47918,-0.59837 4.08745,-0.89813 0.60827,-0.29976 1.70716,-0.85493 2.44199,-1.23372 0.73481,-0.37879 2.43792,-0.8649 3.78468,-1.08026 1.34675,-0.21535 2.44864,-0.62922 2.44864,-0.91971 0,-0.29048 0.54499,-0.52815 1.21109,-0.52815 0.66611,0 1.2111,-0.23767 1.2111,-0.52816 0,-0.29048 1.08999,-0.70245 2.4222,-0.91548 1.3322,-0.21303 2.42219,-0.59232 2.42219,-0.84286 0,-0.48107 4.42834,-2.55789 5.4541,-2.55789 0.33077,0 0.60139,-0.25085 0.60139,-0.55744 0,-0.30659 0.81715,-0.73691 1.8159,-0.95627 0.99873,-0.21936 2.16904,-0.90302 2.60066,-1.51925 0.43162,-0.61623 1.54109,-1.31024 2.46548,-1.54224 0.92439,-0.23201 1.99961,-0.93249 2.38939,-1.55661 0.38977,-0.62413 1.19668,-1.13478 1.79312,-1.13478 0.59644,0 1.24129,-0.40874 1.43299,-0.90832 0.19171,-0.49958 0.83525,-0.90833 1.43008,-0.90833 0.59484,0 1.23838,-0.40874 1.43009,-0.90832 0.1917,-0.49958 0.7504,-0.90832 1.24154,-0.90832 0.49115,0 1.24908,-0.50838 1.68429,-1.12974 0.43522,-0.62136 1.65415,-1.31925 2.70873,-1.55088 1.05457,-0.23162 2.06944,-0.81732 2.25525,-1.30154 0.18582,-0.48423 0.95795,-1.14817 1.71585,-1.47542 1.5878,-0.68561 3.66166,-1.94131 4.10298,-2.48433 0.16652,-0.2049 0.98401,-0.58225 1.81664,-0.83855 0.83263,-0.2563 1.69928,-0.75529 1.92588,-1.10885 0.48032,-0.74944 13.90538,-0.61917 14.40734,0.1398 0.17566,0.26561 1.95436,0.66985 3.95267,0.89833 1.99831,0.22847 3.72412,0.67848 3.83514,1 0.11102,0.32153 0.82924,0.58459 1.59605,0.58459 0.7668,0 2.1747,0.40707 3.12866,0.90459 0.95396,0.49753 2.3476,0.90628 3.09696,0.90833 0.74937,0.002 1.36249,0.27623 1.36249,0.60928 0,0.33305 0.40875,0.60555 0.90832,0.60555 0.49958,0 0.90833,0.26015 0.90833,0.57811 0,0.31796 0.95374,0.75703 2.11942,0.97571 1.16568,0.21868 2.11942,0.63978 2.11942,0.93576 0,0.29599 0.40874,0.53816 0.90832,0.53816 0.49958,0 0.90832,0.25413 0.90832,0.56474 0,0.31061 0.61312,0.75834 1.36249,0.99495 0.74937,0.23661 1.77123,0.89356 2.27081,1.4599 0.49958,0.56633 1.23386,1.14047 1.63175,1.27586 0.97128,0.3305 10.47922,9.64998 10.47922,10.27151 0,0.26958 0.53106,0.6587 1.18013,0.8647 0.64906,0.20601 1.36297,0.95066 1.58645,1.65479 0.22348,0.70412 1.0549,1.9288 1.84762,2.72152 0.79271,0.79271 1.44129,1.73756 1.44129,2.09967 0,0.36211 0.49578,1.09909 1.10175,1.63774 0.60596,0.53864 1.29288,1.38809 1.52651,1.88767 0.23362,0.49958 1.36834,2.54331 2.5216,4.54162 1.15326,1.99831 2.26934,4.11016 2.48018,4.693 0.21085,0.58284 0.62407,1.05971 0.91827,1.05971 0.29421,0 0.53493,0.68124 0.53493,1.51387 0,0.83263 0.27249,1.51388 0.60555,1.51388 0.33305,0 0.60554,0.43482 0.60554,0.96628 0,1.06879 1.85811,4.67029 2.57359,4.98828 0.24979,0.11102 0.45416,0.75108 0.45416,1.42236 0,1.13222 1.11427,4.13148 2.50711,6.74832 0.32376,0.60828 0.74755,2.44763 0.94176,4.08746 0.19421,1.63983 0.58766,2.98151 0.87432,2.98151 0.28666,0 0.5212,0.68124 0.5212,1.51387 0,0.83263 0.24075,1.51387 0.535,1.51387 0.29426,0 0.72469,1.77123 0.95653,3.93607 0.23183,2.16484 0.67232,3.93607 0.97886,3.93607 0.30655,0 0.55735,1.0739 0.55735,2.38645 0,1.31255 0.25232,2.5424 0.56072,2.733 0.3084,0.1906 0.75229,2.7954 0.98643,5.78845 0.23414,2.99306 0.63031,5.44192 0.88037,5.44192 0.25007,0 0.61916,1.56685 0.82021,3.4819 0.20104,1.91505 0.62855,5.38939 0.95,7.72075 0.32146,2.33136 0.59847,6.75944 0.61557,9.84017 0.0184,3.30979 0.27883,5.60132 0.63664,5.60132 0.39167,0 0.60555,7.1755 0.60555,20.31541 v 20.3154 l -5.70462,5.7232 c -3.13755,3.14775 -5.93064,5.72912 -6.20688,5.73637 -0.27623,0.007 -1.85522,1.36973 -3.50885,3.02774 -1.65363,1.65802 -3.25644,3.01457 -3.56179,3.01457 -0.30536,0 -1.45468,0.95374 -2.55406,2.11943 -1.09938,1.16568 -2.2873,2.11942 -2.63982,2.11942 -0.35252,0 -1.42219,0.81749 -2.37703,1.81664 -0.95485,0.99916 -2.04489,1.81665 -2.42233,1.81665 -0.37744,0 -1.0266,0.54499 -1.44259,1.2111 -0.41599,0.6661 -1.19762,1.2111 -1.73696,1.2111 -0.53933,0 -1.47989,0.66484 -2.09012,1.47743 -0.61023,0.81258 -1.73838,1.63526 -2.50702,1.82818 -0.76863,0.19291 -1.39751,0.61806 -1.39751,0.94476 0,0.32671 -0.40874,0.59402 -0.90832,0.59402 -0.49958,0 -0.90832,0.25413 -0.90832,0.56474 0,0.31061 -0.61312,0.75833 -1.36249,0.99494 -0.74936,0.23662 -1.77123,0.89724 -2.27081,1.46806 -0.49957,0.57082 -1.58956,1.24981 -2.42219,1.50886 -0.83263,0.25906 -1.65012,0.64496 -1.81665,0.85755 -0.65968,0.84218 -3.64371,2.47798 -4.52031,2.47798 -0.5113,0 -0.92963,0.27331 -0.92963,0.60735 0,0.33404 -1.08999,1.07956 -2.42219,1.65672 -1.33221,0.57715 -2.4222,1.23594 -2.4222,1.46396 0,0.22802 -0.81715,0.59406 -1.81589,0.81342 -0.99874,0.21936 -2.18114,0.9203 -2.62755,1.55765 -0.44641,0.63734 -1.67299,1.33106 -2.72572,1.54161 -1.05274,0.21055 -1.91407,0.62125 -1.91407,0.91267 0,0.29142 -0.40875,0.52985 -0.90832,0.52985 -0.49958,0 -0.90833,0.26928 -0.90833,0.5984 0,0.32911 -1.08999,0.77269 -2.42219,0.98571 -1.33221,0.21303 -2.4222,0.625 -2.4222,0.91548 0,0.29049 -0.54499,0.52816 -1.2111,0.52816 -0.6661,0 -1.21109,0.25085 -1.21109,0.55743 0,0.30659 -0.81749,0.73699 -1.81665,0.95644 -0.99916,0.21945 -1.81665,0.64985 -1.81665,0.95644 0,0.30658 -0.68124,0.55743 -1.51387,0.55743 -0.83263,0 -1.51387,0.24855 -1.51387,0.55232 0,0.30378 -1.08999,0.73648 -2.4222,0.96155 -1.3322,0.22508 -2.42219,0.65778 -2.42219,0.96156 0,0.30377 -0.52891,0.55232 -1.17536,0.55232 -0.64645,0 -1.33404,0.25675 -1.52799,0.57056 -0.19394,0.3138 -1.57251,0.75349 -3.06348,0.97708 -1.49097,0.22358 -2.71086,0.61325 -2.71086,0.86592 0,0.25266 -1.10188,0.63559 -2.44864,0.85094 -2.38602,0.38155 -3.00337,0.60299 -5.92389,2.1249 -0.7748,0.40376 -2.7504,0.893 -4.39023,1.08721 -1.63983,0.19422 -2.98151,0.58766 -2.98151,0.87432 0,0.28666 -0.95374,0.5212 -2.11942,0.5212 -1.16568,0 -2.11942,0.25081 -2.11942,0.55735 0,0.30655 -1.77123,0.74703 -3.93607,0.97887 -2.16483,0.23183 -3.93606,0.66227 -3.93606,0.95652 0,0.29425 -1.08999,0.53501 -2.4222,0.53501 -1.33221,0 -2.42219,0.25204 -2.42219,0.56009 0,0.30805 -2.45248,0.75194 -5.44994,0.98642 -2.99747,0.23449 -5.44994,0.6637 -5.44994,0.95379 0,0.29009 -1.61228,0.52744 -3.58284,0.52744 -2.25697,0 -3.67285,0.27008 -3.8261,0.72981 -0.18404,0.55214 -6.49832,0.75221 -25.93767,0.82181 -14.13192,0.0506 -27.94251,-0.0163 -30.69018,-0.14875 z"
         id="path1" />
      <path
         style="fill:#3f48cc;fill-opacity:1;stroke-width:1.28225"
         id="path3"
         sodipodi:type="arc"
         sodipodi:cx="183.48128"
         sodipodi:cy="99.31002"
         sodipodi:rx="96.282265"
         sodipodi:ry="96.282265"
         sodipodi:start="3.1415927"
         sodipodi:end="3.1413674"
         sodipodi:arc-type="slice"
         d="M 87.199013,99.31002 A 96.282265,96.282265 0 0 1 183.47586,3.0277559 96.282265,96.282265 0 0 1 279.76354,99.299179 96.282265,96.282265 0 0 1 183.49754,195.59228 96.282265,96.282265 0 0 1 87.199015,99.331708 l 96.282265,-0.02169 z" />
    </g>
  </g>
</svg>
