<?xml version="1.0" encoding="UTF-8" standalone="no"?>
<!-- Created with Inkscape (http://www.inkscape.org/) -->

<svg
   xmlns:dc="http://purl.org/dc/elements/1.1/"
   xmlns:cc="http://creativecommons.org/ns#"
   xmlns:rdf="http://www.w3.org/1999/02/22-rdf-syntax-ns#"
   xmlns:svg="http://www.w3.org/2000/svg"
   xmlns="http://www.w3.org/2000/svg"
   xmlns:xlink="http://www.w3.org/1999/xlink"
   xmlns:sodipodi="http://sodipodi.sourceforge.net/DTD/sodipodi-0.dtd"
   xmlns:inkscape="http://www.inkscape.org/namespaces/inkscape"
   viewBox="0 0 1975.1075 1120.2125"
   preserveAspectRatio="none"
   version="1.1"
   id="svg8"
   inkscape:version="0.92.4 (5da689c313, 2019-01-14)"
   sodipodi:docname="background1.svg"
   width="1975.1075"
   height="1120.2125">
  <title
     id="title815">Batocera PLUS</title>
  <defs
     id="defs2">
    <linearGradient
       inkscape:collect="always"
       id="linearGradient150">
      <stop
         style="stop-color:#0764a1;stop-opacity:1;"
         offset="0"
         id="stop146" />
      <stop
         style="stop-color:#0764a1;stop-opacity:0;"
         offset="1"
         id="stop148" />
    </linearGradient>
    <linearGradient
       inkscape:collect="always"
       xlink:href="#linearGradient150"
       id="linearGradient152"
       x1="-205.2561"
       y1="-77.658524"
       x2="-62.717144"
       y2="-77.658524"
       gradientUnits="userSpaceOnUse"
       gradientTransform="translate(-2.506968,1.083395)" />
  </defs>
  <sodipodi:namedview
     id="base"
     pagecolor="#ffffff"
     bordercolor="#666666"
     borderopacity="1.0"
     inkscape:pageopacity="0.0"
     inkscape:pageshadow="2"
     inkscape:zoom="0.35078125"
     inkscape:cx="1612.1157"
     inkscape:cy="354.76154"
     inkscape:document-units="px"
     inkscape:current-layer="layer1"
     showgrid="false"
     units="px"
     showguides="false"
     inkscape:window-width="1600"
     inkscape:window-height="837"
     inkscape:window-x="-8"
     inkscape:window-y="-8"
     inkscape:window-maximized="1" />
  <metadata
     id="metadata5">
    <rdf:RDF>
      <cc:Work
         rdf:about="">
        <dc:format>image/svg+xml</dc:format>
        <dc:type
           rdf:resource="http://purl.org/dc/dcmitype/StillImage" />
        <dc:title>Batocera PLUS</dc:title>
        <dc:creator>
          <cc:Agent>
            <dc:title>Criado por: Wesley Costa (ThE BosS BR)</dc:title>
          </cc:Agent>
        </dc:creator>
        <dc:description>Background criado para o tema Batocera PLUS.</dc:description>
      </cc:Work>
    </rdf:RDF>
  </metadata>
  <g
     inkscape:label="ThE BosS BR"
     inkscape:groupmode="layer"
     id="layer1"
     transform="translate(1122.1505,625.42915)">
    <g
       id="g262">
      <path
         transform="translate(0,42.519645)"
         inkscape:connector-curvature="0"
         id="path49"
         d="M -1121.5422,148.05809 V 28.325353 h 984.94432 984.94432 V 148.05809 267.79083 h -984.94432 -984.94432 z"
         style="fill:#000000;fill-opacity:0;stroke-width:2.85077953" />
      <path
         sodipodi:nodetypes="ccccc"
         inkscape:connector-curvature="0"
         id="path836-9-3"
         d="M -1122.1505,494.78333 H 849.16344 V -625.12743 H -1121.0455 l -1.105,1119.91076"
         style="fill:url(#linearGradient152);fill-opacity:1" />
      <path
         transform="translate(0,42.519645)"
         inkscape:connector-curvature="0"
         id="path169"
         d="m -608.73128,436.57691 c 6.07387,-20.18195 5.72494,-1074.50186 -0.3612,-1091.39548 -2.25947,-6.27172 -4.12744,-11.72383 -4.15104,-12.11581 -0.0236,-0.39199 96.81231,-0.7127 215.19093,-0.7127 h 215.23385 v 558.75278 558.75279 h -214.95485 -214.95486 z"
         style="fill:#10143e;fill-opacity:1;stroke-width:2.85077953" />
      <path
         transform="translate(0,42.519645)"
         inkscape:connector-curvature="0"
         id="path171"
         d="m -148.60939,-108.8943 v -558.75278 h 22.80624 22.80624 v 558.75278 558.75279 h -22.80624 -22.80624 z"
         style="fill:#10143e;fill-opacity:1;stroke-width:2.85077953" />
      <path
         transform="translate(0,42.519645)"
         inkscape:connector-curvature="0"
         id="path173"
         d="m -174.2664,-108.8943 v -558.75278 h 12.82851 12.8285 v 558.75278 558.75279 h -12.8285 -12.82851 z"
         style="fill:#10143e;fill-opacity:1;stroke-width:2.85077953" />
      <path
         transform="translate(0,42.519645)"
         inkscape:connector-curvature="0"
         id="path175"
         d="m -174.2664,-108.8943 v -558.75278 h 35.63474 35.63475 v 558.75278 558.75279 h -35.63475 -35.63474 z"
         style="fill:#10143e;fill-opacity:1" />
      <path
         id="path177"
         transform="translate(0,42.519645)"
         d="m -178.54297,-667.64648 c -3.78649,0 -4.27539,63.98333 -4.27539,558.75195 0,494.76864 0.4889,558.75391 4.27539,558.75391 3.78649,0 4.27735,-63.98527 4.27735,-558.75391 0,-494.76862 -0.49086,-558.75195 -4.27735,-558.75195 z m 4.27735,558.75195 v 558.75391 h 35.63476 35.63477 v -558.75391 -558.75195 h -35.63477 -35.63476 z"
         style="fill:#10143e;fill-opacity:1;stroke-width:2.85077953"
         inkscape:connector-curvature="0" />
      <path
         transform="translate(0,42.519645)"
         inkscape:connector-curvature="0"
         id="path191"
         d="m -102.99691,-108.8943 v -558.75278 h 476.08017 476.08018 l 10e-4,205.96882 c 6.8e-4,113.28285 0.8542,364.721604 1.89668,558.752785 l 1.89542,352.783965 H 374.97997 -102.99691 Z"
         style="fill:#10143e;fill-opacity:1;stroke-width:2.85077953" />
      <path
         transform="translate(0,42.519645)"
         inkscape:connector-curvature="0"
         id="path193"
         d="m -608.77156,443.44424 c 3.21764,-8.86137 4.83416,-1004.76098 1.72251,-1061.20268 -1.38304,-25.08686 -1.96328,-46.2539 -1.28941,-47.03786 0.67387,-0.78396 96.69148,-1.81399 213.37247,-2.28894 l 212.14725,-0.86355 0.65959,70.70765 0.65958,70.70765 1.42947,-69.8441 1.42943,-69.8441 1.54963,71.26949 1.54963,71.26949 0.63752,-71.98219 0.63749,-71.98218 h 511.71492 511.71492 l 10e-4,205.96882 c 6.8e-4,113.28285 0.8542,364.721604 1.89668,558.752785 l 1.89542,352.783965 H 339.34523 -174.2664 l -0.63749,-71.98218 -0.63752,-71.98219 -1.54963,71.26949 -1.54963,71.26949 -1.42943,-69.8441 -1.42947,-69.8441 -0.65958,70.5568 -0.65959,70.55679 h -214.14095 -214.14096 z"
         style="fill:#10143e;fill-opacity:1;stroke-width:2.85077953" />
      <path
         transform="translate(0,42.519645)"
         inkscape:connector-curvature="0"
         id="path195"
         d="m -609.14545,442.01885 c 3.0179,-12.10262 5.07428,-944.46217 2.27138,-1029.8441 -1.36399,-41.55011 -1.97574,-76.18709 -1.35945,-76.97105 0.6163,-0.78396 96.58674,-1.8 213.26766,-2.25786 l 212.14712,-0.83246 0.62532,40.74338 0.62529,40.74338 1.43574,-39.91092 1.43576,-39.91091 1.62201,41.3363 1.62201,41.33631 0.5931,-42.049 0.59311,-42.049 h 511.71492 511.71492 l 10e-4,184.58797 c 6.6e-4,101.52339 0.85427,352.96214 1.89691,558.752788 l 1.89574,374.164812 H 339.34543 -174.2664 l -0.59311,-42.049 -0.5931,-42.049 -1.62201,41.33631 -1.62201,41.3363 -1.43576,-39.91091 -1.43574,-39.91092 -0.62529,40.62361 -0.62532,40.62361 h -214.1408 -214.1408 z"
         style="fill:#10143e;fill-opacity:1;stroke-width:2.85077953" />
      <path
         transform="translate(0,42.519645)"
         inkscape:connector-curvature="0"
         id="path197"
         d="m -609.42327,441.23303 c 2.90625,-14.53122 5.17299,-883.8056 2.60163,-997.69971 -1.32746,-58.79733 -1.93575,-107.54566 -1.35176,-108.32962 0.58399,-0.78396 96.52769,-1.77014 213.20823,-2.1915 l 212.14643,-0.7661 0.58623,26.42312 0.58621,26.42312 1.44563,-25.65701 1.4456,-25.65702 1.69864,27.08241 1.69867,27.0824 0.54566,-27.7951 0.5457,-27.7951 h 511.24317 511.24315 l 1.89603,399.82183 c 1.04281,219.902002 1.89653,471.34075 1.89716,558.75278 l 10e-4,158.93096 H 338.87391 -174.2664 l -0.5457,-27.7951 -0.54566,-27.7951 -1.69867,27.0824 -1.69864,27.08241 -1.4456,-25.65702 -1.44563,-25.65701 -0.58621,26.36971 -0.58623,26.36971 h -214.16481 -214.16481 z"
         style="fill:#10143e;fill-opacity:1;stroke-width:2.85077953" />
      <path
         transform="translate(0,42.519645)"
         inkscape:connector-curvature="0"
         id="path199"
         d="m -609.28956,429.19034 c 1.91034,-24.1847 3.60591,-814.37112 2.10584,-981.38085 l -1.02422,-114.03118 212.6946,-0.73084 212.6946,-0.73085 0.53903,17.83552 0.53905,17.83552 1.46043,-17.10467 1.46042,-17.10468 1.78467,18.53007 1.78465,18.53006 0.49204,-19.24276 0.49205,-19.24276 H 336.97732 848.221 l 1.89532,344.23163 c 1.04241,189.32739 1.89588,440.76614 1.89659,558.75278 l 10e-4,214.52116 h -513.14 -513.14031 l -0.49205,-19.24276 -0.49204,-19.24276 -1.78465,18.53006 -1.78467,18.53007 -1.46042,-17.10468 -1.46043,-17.10467 -0.53905,17.81737 -0.53903,17.81737 h -214.05169 -214.05169 z"
         style="fill:#10143e;fill-opacity:1;stroke-width:2.85077953" />
      <path
         transform="translate(0,42.519645)"
         inkscape:connector-curvature="0"
         id="path201"
         d="m -608.2885,-108.18143 0.72177,-558.04026 212.37399,-0.73084 212.374,-0.73085 0.47922,12.13397 0.47924,12.13396 1.50222,-11.40312 1.50222,-11.40312 1.84685,14.2539 1.84685,14.2539 0.44788,-14.9666 0.44786,-14.96659 h 511.67378 511.67379 l 0.76509,184.58797 c 0.42081,101.52339 1.09442,352.96214 1.49692,558.752788 l 0.73185,374.164812 H 338.9043 -174.2664 l -0.44786,-14.96659 -0.44788,-14.9666 -1.85498,14.2539 -1.855,14.2539 -1.47525,-12.82851 -1.47528,-12.82851 -0.49803,13.54121 -0.49806,13.5412 -213.09577,1.7e-4 -213.09577,1.4e-4 z"
         style="fill:#10143e;fill-opacity:1;stroke-width:2.85077953" />
      <path
         transform="translate(0,42.519645)"
         inkscape:connector-curvature="0"
         id="path203"
         d="m -608.24558,-108.18134 0.7647,-558.04035 212.33107,-0.73084 212.33107,-0.73085 0.33728,9.28319 0.3373,9.28318 2.05695,-8.55234 2.05698,-8.55234 1.42568,9.97773 1.4257,9.97773 0.45621,-10.69043 0.45624,-10.69042 h 511.24554 511.24557 l 1.89283,233.05123 c 1.04108,128.17817 1.89372,379.616922 1.89477,558.75278 l 0.002,325.70156 H 338.87391 -174.2664 l -0.45624,-10.69042 -0.45621,-10.69043 -1.4257,9.97773 -1.42568,9.97773 -2.05698,-8.55234 -2.05695,-8.55234 -0.3373,9.26504 -0.33728,9.26503 -213.09577,2.6e-4 -213.09577,2.5e-4 z"
         style="fill:#10143e;fill-opacity:1;stroke-width:2.85077953" />
      <path
         transform="translate(0,42.519645)"
         inkscape:connector-curvature="0"
         id="path205"
         d="m -608.15217,-108.18132 0.8581,-558.04037 212.23766,-0.73084 212.23767,-0.73085 0.28417,7.8578 0.28416,7.85779 2.13142,-7.12695 2.13141,-7.12695 1.47237,7.12695 c 1.45994,7.06684 1.47562,7.06083 1.86059,-0.7127 l 0.38822,-7.83964 h 511.24691 511.24691 l 1.8934,188.62174 c 1.04136,103.74195 1.8934,355.1807 1.8934,558.752786 V 449.85849 H 338.87391 -174.2664 l -0.28422,-7.83964 -0.28423,-7.83965 -2.13141,7.12695 -2.13141,7.12695 -1.47237,-7.12695 c -1.45995,-7.06683 -1.47563,-7.06084 -1.86059,0.7127 l -0.38811,7.83964 -213.09577,2.8e-4 -213.09577,2.6e-4 z"
         style="fill:#10143e;fill-opacity:1;stroke-width:2.85077953" />
      <path
         transform="translate(0,42.519645)"
         inkscape:connector-curvature="0"
         id="path207"
         d="m -608.15825,-108.1816 1.15172,-558.04009 212.0939,-0.73084 212.09389,-0.73085 0.20041,6.43241 c 0.18958,6.08993 0.321,6.12884 2.46649,0.73084 l 2.26617,-5.70156 1.47896,5.70156 c 1.34848,5.19861 1.50812,5.13574 1.80965,-0.7127 l 0.33066,-6.41425 h 511.24836 511.24837 l 1.88909,156.08018 c 1.039,85.8441 1.89038,337.28285 1.89195,558.752783 l 0.003,402.672607 H 338.87391 -174.2664 l -0.20041,-6.41425 c -0.18986,-6.08035 -0.31832,-6.11746 -2.4665,-0.7127 l -2.26617,5.70156 -1.47895,-5.70156 c -1.34848,-5.19862 -1.50812,-5.13574 -1.80965,0.7127 l -0.33066,6.41425 h -213.24562 -213.24562 z"
         style="fill:#10143e;fill-opacity:1;stroke-width:2.85077953" />
      <path
         transform="translate(0,42.519645)"
         inkscape:connector-curvature="0"
         id="path209"
         d="m -608.54182,-108.1816 1.71771,-558.04009 212.00268,-0.73084 c 200.56285,-0.69141 212.00506,-0.46066 212.04634,4.27617 0.0342,3.91449 0.58087,4.15908 2.50569,1.12096 2.07862,-3.28088 2.70271,-3.28088 4.00745,0 1.07748,2.70941 1.61357,2.37549 1.77048,-1.10281 0.21347,-4.73192 26.55658,-4.98887 511.47523,-4.98887 h 511.25019 l 1.89012,128.75308 c 1.03959,70.8142 1.89015,322.25295 1.89015,558.752795 V 449.85849 H 338.87391 c -486.7879,0 -513.14256,-0.25629 -513.18396,-4.98887 -0.0342,-3.90425 -0.57893,-4.144 -2.50569,-1.10282 -2.07862,3.28088 -2.70271,3.28088 -4.00745,0 -1.07748,-2.70941 -1.61357,-2.37547 -1.77048,1.10282 -0.21238,4.70493 -12.38849,4.98887 -213.94546,4.98887 h -213.72039 z"
         style="fill:#10143e;fill-opacity:1;stroke-width:2.85077953" />
      <path
         transform="translate(0,42.519645)"
         inkscape:connector-curvature="0"
         id="path211"
         d="m -608.9199,-108.1816 1.97814,-558.04009 212.06151,-0.73084 c 200.56035,-0.69121 212.07371,-0.45929 212.28658,4.27617 0.13541,3.01108 0.80058,3.57943 1.66887,1.42577 0.79409,-1.96968 2.61711,-2.85611 4.0511,-1.96984 1.434,0.88627 2.6073,0.25284 2.6073,-1.40763 0,-2.11363 153.43263,-3.01902 511.61951,-3.01902 h 511.61947 l 0.89332,71.98218 c 0.49131,39.5902 1.18291,291.02896 1.53686,558.752788 l 0.64353,486.770602 H 338.88993 c -486.73405,0 -513.16791,-0.25686 -513.3814,-4.98887 -0.1357,-3.00971 -0.79785,-3.56812 -1.66887,-1.40762 -0.79409,1.96968 -2.61711,2.85611 -4.05111,1.96983 -1.43399,-0.88625 -2.60729,-0.25284 -2.60729,1.40763 0,2.09806 -65.29505,3.01903 -214.03964,3.01903 h -214.03965 z"
         style="fill:#10143e;fill-opacity:1;stroke-width:2.85077953" />
      <path
         transform="translate(0,42.519645)"
         inkscape:connector-curvature="0"
         id="path213"
         d="m -612.3626,447.7204 c 0.69318,-1.17594 2.13032,-252.29398 3.19365,-558.04008 l 1.93333,-555.90201 212.20844,-0.73084 c 116.71465,-0.40197 212.20844,0.34636 212.20844,1.66295 0,1.31659 1.92428,2.3938 4.27617,2.3938 2.35189,0 4.27617,-1.06904 4.27617,-2.37565 0,-1.30661 230.064405,-2.37565 511.25421,-2.37565 h 511.2542 l 1.88132,91.93764 c 1.03475,50.5657 1.88348,302.00445 1.8861,558.752784 l 0.005,466.815146 H 338.87391 c -282.227171,0 -513.14031,-1.06904 -513.14031,-2.37564 0,-1.30663 -1.92428,-2.37567 -4.27617,-2.37567 -2.35189,0 -4.27617,1.06904 -4.27617,2.37567 0,1.3066 -96.93095,2.37564 -215.4021,2.37564 -118.47115,0 -214.83495,-0.96214 -214.14176,-2.13809 z"
         style="fill:#10143e;fill-opacity:1;stroke-width:2.85077953" />
      <path
         transform="translate(0,42.519645)"
         inkscape:connector-curvature="0"
         id="path215"
         d="m -611.90144,442.01885 c 0.68335,-4.31181 1.94389,-255.42985 2.80118,-558.04009 l 1.55872,-550.20045 212.3614,-0.73084 c 145.78928,-0.50174 212.3614,0.19996 212.3614,2.23838 0,2.0522 1.70303,2.05781 5.51415,0.0182 3.7421,-2.00272 169.415953,-2.95109 515.53357,-2.95109 h 510.01945 l 1.87707,74.83296 c 1.03238,41.15813 1.87969,292.59689 1.88288,558.752787 l 0.006,483.919823 H 338.87391 c -351.820086,0 -513.14031,-0.92776 -513.14031,-2.95107 0,-2.03426 -1.71312,-2.03426 -5.51415,0 -3.66051,1.95903 -77.42677,2.95107 -219.43875,2.95107 h -213.92461 z"
         style="fill:#10143e;fill-opacity:1;stroke-width:2.85077953" />
      <path
         transform="translate(0,42.519645)"
         inkscape:connector-curvature="0"
         id="path217"
         d="m -611.85396,420.61362 c 0.75638,-16.05787 1.98906,-267.16493 2.73929,-558.01571 l 1.36406,-528.8196 728.00343,-0.72058 728.00345,-0.72059 1.87898,60.33391 c 1.03343,33.18365 1.87897,284.62702 1.87897,558.763051 V 449.86322 l -732.62171,-0.0257 -732.6217,-0.0256 1.37523,-29.19612 z"
         style="fill:#10143e;fill-opacity:1;stroke-width:2.85077953" />
      <path
         transform="translate(0,42.519645)"
         inkscape:connector-curvature="0"
         id="path219"
         d="m -611.83915,373.60014 c 0.78362,-41.9421 1.99465,-293.060137 2.69118,-558.04009 l 1.26642,-481.78174 728.3445,-0.72058 728.34452,-0.72058 1.07922,32.07915 c 0.59356,17.64354 1.32176,269.08584 1.61824,558.760674 l 0.53903,526.681516 H 119.39003 -613.26391 Z"
         style="fill:#10143e;fill-opacity:1;stroke-width:2.85077953" />
      <path
         transform="translate(0,42.519645)"
         inkscape:connector-curvature="0"
         id="path221"
         d="m -611.80995,302.33065 c 0.78154,-81.14031 1.96798,-332.258353 2.63653,-558.04009 l 1.21554,-410.51225 728.11534,-0.71818 728.11531,-0.71817 1.87074,43.22043 c 1.02888,23.77123 1.87071,275.21245 1.87071,558.758253 V 449.85849 H 119.39163 -613.23094 Z"
         style="fill:#10143e;fill-opacity:1;stroke-width:2.85077953" />
      <path
         transform="translate(0,42.519645)"
         inkscape:connector-curvature="0"
         id="path223"
         d="m -611.81243,231.06116 c 0.79952,-120.33853 1.96527,-371.45657 2.59056,-558.04009 l 1.13688,-339.24276 728.18583,-0.71818 728.18582,-0.71817 1.86378,34.66241 c 1.02508,19.06433 1.86378,270.50554 1.86378,558.758261 V 449.85849 H 119.37407 -613.2661 Z"
         style="fill:#10143e;fill-opacity:1;stroke-width:2.85077953" />
      <path
         transform="translate(0,42.519645)"
         inkscape:connector-curvature="0"
         id="path225"
         d="m -612.28835,265.27052 c 0.99404,-101.52339 2.13826,-352.962028 2.54271,-558.75253 l 0.73536,-374.16457 728.65691,-2.5e-4 728.65688,-2.5e-4 1.8406,27.7951 c 1.01234,15.28731 1.84725,266.72606 1.85537,558.752785 l 0.0147,530.957685 H 118.95925 -614.09571 Z"
         style="fill:#10143e;fill-opacity:1;stroke-width:2.85077953" />
      <path
         transform="translate(0,42.519645)"
         inkscape:connector-curvature="0"
         id="path227"
         d="m -612.33159,255.29279 c 1.04024,-107.01114 1.89237,-358.44989 1.89363,-558.75279 l 0.002,-364.18708 h 729.38124 729.38125 l 1.84369,21.81097 c 1.01405,11.99603 1.84371,263.43478 1.84371,558.752787 V 449.85849 H 118.89565 -614.22292 Z"
         style="fill:#10143e;fill-opacity:1;stroke-width:2.85077953" />
      <path
         transform="translate(0,42.519645)"
         inkscape:connector-curvature="0"
         id="path229"
         d="m -612.33241,212.53109 c 1.04114,-130.530062 1.89383,-381.96881 1.89486,-558.75278 l 0.002,-321.42539 h 729.38734 729.3873 l 1.81737,19.24276 c 0.99954,10.58352 1.82647,262.02227 1.83761,558.752787 l 0.0203,539.510023 h -733.1198 -733.11981 z"
         style="fill:#10143e;fill-opacity:1;stroke-width:2.85077953" />
    </g>
  </g>
</svg>
