<?xml version="1.0" encoding="UTF-8" standalone="no"?>
<!-- Created with Inkscape (http://www.inkscape.org/) -->

<svg
   version="1.1"
   id="svg1"
   width="610"
   height="610"
   viewBox="0 0 610 610"
   sodipodi:docname="square.svg"
   inkscape:version="1.4.2 (f4327f4, 2025-05-13)"
   xmlns:inkscape="http://www.inkscape.org/namespaces/inkscape"
   xmlns:sodipodi="http://sodipodi.sourceforge.net/DTD/sodipodi-0.dtd"
   xmlns="http://www.w3.org/2000/svg"
   xmlns:svg="http://www.w3.org/2000/svg">
  <defs
     id="defs1" />
  <sodipodi:namedview
     id="namedview1"
     pagecolor="#ffffff"
     bordercolor="#000000"
     borderopacity="0.25"
     inkscape:showpageshadow="2"
     inkscape:pageopacity="0.0"
     inkscape:pagecheckerboard="0"
     inkscape:deskcolor="#d1d1d1"
     inkscape:zoom="1.3816667"
     inkscape:cx="299.27623"
     inkscape:cy="299.99999"
     inkscape:window-width="1920"
     inkscape:window-height="1009"
     inkscape:window-x="-8"
     inkscape:window-y="-8"
     inkscape:window-maximized="1"
     inkscape:current-layer="g1" />
  <g
     inkscape:groupmode="layer"
     inkscape:label="Image"
     id="g1">
    <path
       style="fill:#b3b3b3;fill-opacity:1;stroke-width:0.723764"
       d="m 279.47721,600.2251 c -0.29368,-0.29367 -4.1828,-0.922 -8.6425,-1.39627 -11.43053,-1.21561 -22.68389,-2.97317 -26.92639,-4.20537 -1.99035,-0.5781 -5.32835,-1.26384 -7.41777,-1.52389 -2.08942,-0.26005 -3.96252,-0.73748 -4.16245,-1.06096 -0.19992,-0.32349 -1.99124,-0.81203 -3.9807,-1.08565 -1.98946,-0.27362 -3.77741,-0.75673 -3.97324,-1.07357 -0.19582,-0.31685 -2.47603,-0.99747 -5.06715,-1.51251 -2.59111,-0.51503 -4.71112,-1.16165 -4.71112,-1.43693 0,-0.27528 -1.04491,-0.70949 -2.32202,-0.96491 -2.55615,-0.51123 -17.03416,-5.66404 -20.47653,-7.28772 -1.19421,-0.56327 -3.79976,-1.7345 -5.79011,-2.60273 -1.99035,-0.86823 -5.93869,-2.67976 -8.7741,-4.02562 -2.83541,-1.34587 -5.52238,-2.44703 -5.97105,-2.44703 -0.44867,0 -0.81576,-0.24886 -0.81576,-0.55303 0,-0.30416 -1.22136,-1.10918 -2.71412,-1.78892 -1.49276,-0.67974 -4.83112,-2.43497 -7.41857,-3.90051 -2.58746,-1.46554 -5.84439,-3.27074 -7.23764,-4.01156 -3.00223,-1.59635 -5.28857,-2.98678 -5.79011,-3.52125 -0.19903,-0.21209 -2.1532,-1.50977 -4.34258,-2.88371 -4.16183,-2.61176 -4.35541,-2.74862 -7.16744,-5.06735 -0.95657,-0.78876 -1.96523,-1.43411 -2.24149,-1.43411 -0.27625,0 -1.17312,-0.56996 -1.99304,-1.26658 -0.81992,-0.69663 -2.20935,-1.75513 -3.08762,-2.35224 -1.93404,-1.31487 -6.29765,-4.61325 -8.38664,-6.3393 -0.83887,-0.69312 -2.91061,-2.40014 -4.60389,-3.79339 -1.69326,-1.39324 -3.77531,-3.10672 -4.62678,-3.80771 -7.44364,-6.12827 -31.584285,-30.29553 -31.584285,-31.61912 0,-0.25493 -1.22136,-1.78096 -2.71412,-3.39118 -1.49276,-1.61023 -3.52835,-4.0124 -4.52352,-5.33814 -0.99518,-1.32575 -2.78649,-3.631 -3.9807,-5.12278 -3.1015,-3.87431 -9.82526,-13.42832 -11.88833,-16.89252 -0.9656,-1.62138 -1.96419,-3.11081 -2.21908,-3.30985 -0.42761,-0.3339 -3.95071,-6.12881 -6.51985,-10.72404 -0.59711,-1.068 -1.27222,-2.10467 -1.50025,-2.3037 -0.22803,-0.19904 -1.53081,-2.58113 -2.89505,-5.29352 -3.83535,-7.62545 -4.47441,-8.7925 -5.02781,-9.18175 -0.28296,-0.19904 -0.76877,-1.17533 -1.07956,-2.16954 -0.31079,-0.99422 -1.77695,-4.414 -3.25813,-7.59952 -4.18116,-8.99231 -4.90849,-10.71004 -5.4433,-12.8554 -0.27383,-1.09845 -0.78749,-2.17617 -1.14146,-2.39494 -0.35397,-0.21877 -0.64359,-0.88495 -0.64359,-1.4804 0,-0.59545 -0.62185,-2.44897 -1.38189,-4.11892 -0.76004,-1.66996 -1.61052,-4.25764 -1.88996,-5.7504 -0.27943,-1.49277 -0.75435,-2.71412 -1.05537,-2.71412 -0.30102,0 -0.90346,-1.54704 -1.33876,-3.43787 -1.15398,-5.01265 -3.33996,-12.73295 -3.84246,-13.57057 -0.2388,-0.39807 -0.8602,-3.00362 -1.38088,-5.79011 -0.52068,-2.78649 -1.17465,-5.39204 -1.45325,-5.79011 -0.27861,-0.39807 -0.74098,-2.67792 -1.0275,-5.06634 -0.28651,-2.38842 -0.77638,-4.66828 -1.0886,-5.06635 -0.31221,-0.39807 -0.96121,-4.60574 -1.44222,-9.35039 -0.48101,-4.74464 -1.1618397,-9.38219 -1.5129397,-10.30567 -0.35111,-0.92348 -0.95447,-9.45708 -1.34081,-18.96356 -0.72909,-17.94045 0.0601,-47.67899 1.37597,-51.85082 0.37668,-1.19421 1.0613597,-5.91677 1.5215097,-10.49458 0.46016,-4.5778 1.09079,-8.64897 1.4014,-9.04704 0.31061,-0.39807 0.79918,-2.67793 1.08569,-5.06635 0.28652,-2.38842 0.76638,-4.66827 1.06636,-5.06634 0.29999,-0.39807 0.92547,-2.94949 1.38997,-5.66983 0.46451,-2.72033 1.13374,-5.48872 1.4872,-6.15199 0.35345,-0.66325 1.02173,-2.67155 1.48506,-4.46286 2.54653,-9.84529 3.1765,-11.97527 3.63908,-12.30398 0.2801,-0.19904 0.92601,-2.23462 1.43536,-4.52352 0.50936,-2.28891 1.17409,-4.16165 1.47718,-4.16165 0.3031,0 0.77742,-1.0585 1.05405,-2.35223 0.27663,-1.29372 0.75119,-2.67792 1.05457,-3.07599 0.30339,-0.39807 0.79055,-1.538 1.08258,-2.53317 0.6303,-2.14793 1.77666,-4.81882 5.52586,-12.87466 1.53554,-3.2994 2.99311,-6.8006 3.23904,-7.78046 0.24593,-0.97986 0.70567,-1.78156 1.02164,-1.78156 0.31598,0 0.92264,-0.89565 1.34814,-1.99035 0.8251,-2.12273 5.4778,-10.91392 6.41607,-12.12303 0.3089,-0.39807 0.96991,-1.538 1.46892,-2.53318 0.499,-0.99517 1.55135,-2.78649 2.33855,-3.9807 0.78721,-1.19421 1.984,-3.22979 2.65954,-4.52352 0.67554,-1.29373 1.49363,-2.35223 1.81797,-2.35223 0.32434,0 0.58971,-0.32134 0.58971,-0.71409 0,-0.76092 7.08646,-11.30001 9.89864,-14.72142 0.92487,-1.12523 1.68158,-2.33178 1.68158,-2.68121 0,-0.34944 0.73281,-1.38534 1.62847,-2.30203 0.89566,-0.91667 2.60555,-2.9309 3.79976,-4.47605 1.19421,-1.54515 2.49905,-3.17123 2.89964,-3.6135 0.40059,-0.44227 1.65188,-1.94405 2.78065,-3.3373 7.52437,-9.2874 30.073895,-32.012223 34.447405,-34.715203 1.33841,-0.82719 6.8675,-5.48445 8.40791,-7.08215 0.86353,-0.89565 1.81139,-1.62846 2.10635,-1.62846 0.29496,0 1.44973,-0.73282 2.56615,-1.62847 2.52402,-2.02492 4.4773,-3.48207 6.54875,-4.88541 0.88139,-0.5971 2.49989,-1.81845 3.59668,-2.71411 1.09677,-0.89566 2.35424,-1.62847 2.79437,-1.62847 0.44012,0 0.80637,-0.24427 0.81389,-0.54282 0.008,-0.29855 1.66323,-1.5199 3.67936,-2.71411 2.01613,-1.19421 4.04556,-2.51521 4.50985,-2.93556 0.46429,-0.42034 1.3327,-1.00584 1.92981,-1.30111 0.5971,-0.29527 2.38842,-1.31618 3.9807,-2.26867 2.78479,-1.66586 7.20396,-4.07915 14.11339,-7.70726 1.79131,-0.94061 3.42305,-1.92865 3.62607,-2.19564 0.20302,-0.26699 1.24816,-0.70607 2.32254,-0.97572 1.07438,-0.26965 2.33234,-0.94686 2.79549,-1.50491 0.46313,-0.55805 1.3219,-1.01463 1.90836,-1.01463 0.58646,0 1.93078,-0.46336 2.98738,-1.02969 1.75468,-0.9405 3.57961,-1.77243 10.96812,-5.00005 6.92723,-3.02612 20.3528,-7.72177 22.07767,-7.72177 0.59552,0 1.08276,-0.27387 1.08276,-0.60859 0,-0.33473 1.87274,-1.00386 4.16164,-1.48696 2.28891,-0.4831 4.81303,-1.15851 5.60917,-1.50092 6.51288,-2.80108 41.80633,-9.3499705 50.69964,-9.4075905 2.01025,-0.013 4.02195,-0.39063 4.47045,-0.83912 1.14967,-1.14967 49.90943,-1.14967 51.0591,0 0.4485,0.44849 2.4602,0.82609 4.47045,0.83912 8.98088,0.0582 45.75945,6.9048805 50.43614,9.3891905 0.65121,0.34593 3.17534,1.04026 5.60917,1.54296 2.43382,0.5027 4.42514,1.17453 4.42514,1.49295 0,0.31843 0.44696,0.57896 0.99326,0.57896 1.28878,0 11.72707,3.3663 14.67704,4.73327 1.25436,0.58126 2.49359,1.05684 2.75381,1.05684 0.26024,0 2.00233,0.67937 3.87132,1.50972 4.5739,2.03208 8.64178,3.84413 11.83084,5.27008 1.4534,0.64988 2.96057,1.1816 3.34925,1.1816 0.38869,0 1.08564,0.45658 1.54877,1.01463 0.46315,0.55805 1.72111,1.23526 2.79549,1.50491 1.07438,0.26965 2.11952,0.70873 2.32254,0.97572 0.20302,0.26699 1.83476,1.25503 3.62607,2.19564 6.90943,3.62811 11.3286,6.0414 14.11339,7.70726 1.59228,0.95249 3.3836,1.9734 3.9807,2.26867 0.59711,0.29527 1.46552,0.88077 1.92981,1.30111 0.46429,0.42035 2.49372,1.74135 4.50985,2.93556 2.01613,1.19421 3.67184,2.41556 3.67936,2.71411 0.008,0.29855 0.37377,0.54282 0.81389,0.54282 0.44013,0 1.71367,0.73281 2.83009,1.62847 2.52402,2.02492 4.4773,3.48207 6.54875,4.8854 0.88139,0.59711 2.49989,1.81846 3.59667,2.71412 1.09678,0.89565 2.23548,1.62847 2.53044,1.62847 0.29496,0 1.24282,0.73281 2.10635,1.62846 1.54041,1.5977 7.0695,6.25496 8.40791,7.08215 4.37351,2.70298 26.92304,25.427803 34.44741,34.715203 1.12877,1.39325 2.38006,2.89503 2.78065,3.3373 0.40059,0.44227 1.70543,2.06835 2.89964,3.6135 1.19421,1.54515 2.9041,3.55938 3.79976,4.47605 0.89566,0.91669 1.62847,1.95259 1.62847,2.30203 0,0.34943 0.75671,1.55598 1.68158,2.68121 2.81219,3.42141 9.89864,13.9605 9.89864,14.72142 0,0.39275 0.26536,0.71409 0.58971,0.71409 0.32434,0 1.14243,1.0585 1.81797,2.35223 0.67554,1.29373 1.87233,3.32931 2.65954,4.52352 0.7872,1.19421 1.83955,2.98553 2.33855,3.9807 0.499,0.99518 1.15934,2.13511 1.4674,2.53318 0.96312,1.24449 4.87705,8.55799 6.1005,11.39927 0.64278,1.49276 1.44499,2.71411 1.78268,2.71411 0.33768,0 0.61695,0.40712 0.62059,0.90471 0.004,0.49759 0.80769,2.53317 1.78677,4.52352 0.97909,1.99035 1.79035,4.02594 1.8028,4.52352 0.0125,0.49759 0.31302,0.90471 0.66793,0.90471 0.35492,0 0.86726,0.88436 1.13854,1.96524 0.27129,1.08088 1.09703,3.29061 1.83498,4.91051 0.73795,1.6199 1.56446,3.83271 1.83668,4.91735 0.27223,1.08465 0.78458,2.15107 1.13855,2.36984 0.35397,0.21877 0.64358,0.88495 0.64358,1.4804 0,0.59545 0.62186,2.44897 1.3819,4.11892 0.76004,1.66996 1.61052,4.25764 1.88996,5.7504 0.27943,1.49277 0.75435,2.71412 1.05537,2.71412 0.30102,0 0.90346,1.54704 1.33876,3.43787 1.15398,5.01265 3.33996,12.73295 3.84246,13.57057 0.2388,0.39807 0.8602,3.00362 1.38088,5.79011 0.52068,2.78649 1.17465,5.39204 1.45325,5.79011 0.2786,0.39807 0.74098,2.67792 1.02749,5.06634 0.28652,2.38842 0.77639,4.66828 1.08861,5.06635 0.31221,0.39807 0.96122,4.60574 1.44222,9.35039 0.48102,4.74464 1.16261,9.38423 1.51466,10.31019 2.02052,5.31437 1.99623,64.46113 -0.0291,70.80986 -0.38096,1.19421 -1.06915,5.91677 -1.5293,10.49458 -0.46016,4.5778 -1.09079,8.64897 -1.4014,9.04704 -0.31062,0.39807 -0.79918,2.67793 -1.0857,5.06635 -0.28651,2.38842 -0.75974,4.66827 -1.05161,5.06634 -0.29186,0.39807 -0.91588,2.84077 -1.38669,5.42823 -0.47081,2.58745 -1.1411,5.35585 -1.48953,6.15199 -0.52163,1.19189 -1.46569,4.5565 -2.43693,8.68516 -0.0936,0.39807 -0.3678,1.04946 -0.60924,1.44753 -0.24144,0.39807 -0.66803,2.10796 -0.94796,3.79976 -0.27995,1.69179 -0.76981,3.07599 -1.0886,3.07599 -0.31877,0 -0.80822,1.22135 -1.08765,2.71412 -0.27944,1.49276 -1.12992,4.08044 -1.88996,5.7504 -0.76004,1.66995 -1.39225,3.46127 -1.40491,3.9807 -0.0127,0.51942 -0.50121,1.57662 -1.08565,2.34933 -0.58444,0.7727 -1.06463,1.91263 -1.06708,2.53317 -0.002,0.62054 -0.45535,1.99243 -1.00643,3.04864 -0.55108,1.05621 -1.4105,3.17322 -1.90983,4.70446 -0.49933,1.53125 -1.10524,2.94693 -1.34648,3.14596 -0.61744,0.50943 -3.43753,6.5146 -4.07863,8.68516 -0.29394,0.99518 -0.76595,1.97226 -1.04892,2.1713 -0.5534,0.38925 -1.19246,1.5563 -5.02781,9.18175 -1.36424,2.71239 -2.66702,5.09448 -2.89505,5.29352 -0.22803,0.19903 -0.90314,1.2357 -1.50025,2.3037 -2.56914,4.59523 -6.09224,10.39014 -6.51985,10.72404 -0.25489,0.19904 -1.25348,1.68847 -2.21908,3.30985 -2.06307,3.4642 -8.78683,13.01821 -11.88833,16.89252 -1.19421,1.49178 -2.98553,3.8041 -3.9807,5.13849 -0.99518,1.3344 -2.68191,3.33139 -3.7483,4.43777 -1.06639,1.10637 -2.21692,2.50841 -2.55674,3.11563 -1.52677,2.72818 -18.88145,20.71172 -26.72784,27.69635 -4.37786,3.89704 -5.20789,4.60553 -10.41583,8.89069 -1.69328,1.39325 -3.76502,3.10027 -4.60389,3.79339 -2.08899,1.72605 -6.4526,5.02443 -8.38664,6.3393 -0.87827,0.59711 -2.2677,1.65561 -3.08762,2.35224 -0.81992,0.69662 -1.71679,1.26658 -1.99304,1.26658 -0.27626,0 -1.28492,0.64535 -2.24149,1.43411 -2.81203,2.31873 -3.00561,2.45559 -7.16744,5.06735 -2.18938,1.37394 -4.14355,2.67825 -4.34258,2.89845 -0.19904,0.2202 -1.17612,0.8035 -2.17129,1.29622 -0.99518,0.49274 -2.94934,1.59332 -4.34258,2.44575 -4.41606,2.7019 -11.12269,6.39717 -13.93245,7.67661 -1.49276,0.67974 -2.71412,1.48476 -2.71412,1.78892 0,0.30417 -0.36709,0.55303 -0.81576,0.55303 -0.44867,0 -3.13564,1.10116 -5.97105,2.44703 -14.56884,6.9153 -29.30725,12.76936 -35.03041,13.914 -1.2828,0.25656 -2.33235,0.68629 -2.33235,0.95495 0,0.26867 -1.99132,0.89979 -4.42514,1.40249 -2.43383,0.5027 -4.95796,1.19703 -5.60917,1.54296 -3.74128,1.98741 -26.78396,6.57454 -46.05737,9.1687 -9.23547,1.24307 -58.92924,2.23171 -59.9679,1.19303 z"
       id="path1" />
    <rect
       style="fill:#b3b3b3;fill-opacity:1"
       id="rect1"
       width="610.13269"
       height="606.51385"
       x="-0.72376353"
       y="0" />
  </g>
</svg>
