<?xml version="1.0" encoding="UTF-8" standalone="no"?>
<svg
   enable-background="new 0 0 501 278.5"
   viewBox="0 0 501 278.5"
   version="1.1"
   id="svg190"
   sodipodi:docname="camplynx.svg"
   xml:space="preserve"
   inkscape:version="1.4.2 (f4327f4, 2025-05-13)"
   xmlns:inkscape="http://www.inkscape.org/namespaces/inkscape"
   xmlns:sodipodi="http://sodipodi.sourceforge.net/DTD/sodipodi-0.dtd"
   xmlns:xlink="http://www.w3.org/1999/xlink"
   xmlns="http://www.w3.org/2000/svg"
   xmlns:svg="http://www.w3.org/2000/svg"><defs
     id="defs190" /><sodipodi:namedview
     id="namedview190"
     pagecolor="#ffffff"
     bordercolor="#000000"
     borderopacity="0.25"
     inkscape:showpageshadow="2"
     inkscape:pageopacity="0.0"
     inkscape:pagecheckerboard="0"
     inkscape:deskcolor="#d1d1d1"
     inkscape:zoom="1.4883304"
     inkscape:cx="294.62545"
     inkscape:cy="100.44813"
     inkscape:window-width="1920"
     inkscape:window-height="1009"
     inkscape:window-x="-8"
     inkscape:window-y="-8"
     inkscape:window-maximized="1"
     inkscape:current-layer="svg190" /><linearGradient
     id="a"
     gradientUnits="userSpaceOnUse"
     x1="0"
     x2="501"
     y1="31"
     y2="31"><stop
       offset="0"
       stop-color="#131313"
       id="stop1" /><stop
       offset=".1284"
       stop-color="#141414"
       id="stop2" /><stop
       offset=".2757"
       stop-color="#181616"
       id="stop3" /><stop
       offset=".4324"
       stop-color="#1c1919"
       id="stop4" /><stop
       offset=".5955"
       stop-color="#1f1d1d"
       id="stop5" /><stop
       offset=".7638"
       stop-color="#211f20"
       id="stop6" /><stop
       offset=".9338"
       stop-color="#121112"
       id="stop7" /><stop
       offset="1"
       id="stop8" /></linearGradient><linearGradient
     id="b"><stop
       offset="0"
       stop-color="#131313"
       id="stop9" /><stop
       offset="1"
       id="stop10" /></linearGradient><linearGradient
     id="c"
     gradientUnits="userSpaceOnUse"
     x1="0"
     x2="501"
     xlink:href="#b"
     y1="143.2196"
     y2="143.2196" /><linearGradient
     id="d"
     gradientUnits="userSpaceOnUse"
     x1="74.0259"
     x2="88.5741"
     xlink:href="#b"
     y1="149.6759"
     y2="135.1277" /><linearGradient
     id="e"
     gradientUnits="userSpaceOnUse"
     x1="40.7708"
     x2="40.7708"
     xlink:href="#b"
     y1="224"
     y2="62.3889" /><linearGradient
     id="f"
     gradientUnits="userSpaceOnUse"
     x1="3.5016"
     x2="497.4984"
     xlink:href="#b"
     y1="251.4722"
     y2="251.4722" /><linearGradient
     id="g"><stop
       offset="0"
       stop-color="#131212"
       id="stop11" /><stop
       offset="1"
       stop-color="#1e1b1c"
       id="stop12" /></linearGradient><linearGradient
     id="h"
     gradientUnits="userSpaceOnUse"
     x1="96.2256"
     x2="119.9411"
     xlink:href="#g"
     y1="89.1911"
     y2="65.4756" /><linearGradient
     id="i"
     gradientUnits="userSpaceOnUse"
     x1="98.2685"
     x2="121.984"
     xlink:href="#g"
     y1="141.8853"
     y2="118.1698" /><linearGradient
     id="j"
     gradientUnits="userSpaceOnUse"
     x1="106.3519"
     x2="130.0674"
     xlink:href="#g"
     y1="167.6906"
     y2="143.9751" /><linearGradient
     id="k"
     gradientUnits="userSpaceOnUse"
     x1="106.3519"
     x2="130.0674"
     xlink:href="#g"
     y1="219.3013"
     y2="195.5858" /><linearGradient
     id="l"
     gradientUnits="userSpaceOnUse"
     x1="136.144"
     x2="159.5141"
     xlink:href="#g"
     y1="89.0184"
     y2="65.6483" /><linearGradient
     id="m"
     gradientUnits="userSpaceOnUse"
     x1="175.3714"
     x2="198.7415"
     xlink:href="#g"
     y1="89.0184"
     y2="65.6483" /><linearGradient
     id="n"
     gradientUnits="userSpaceOnUse"
     x1="214.5988"
     x2="237.9689"
     xlink:href="#g"
     y1="89.0184"
     y2="65.6483" /><linearGradient
     id="o"
     gradientUnits="userSpaceOnUse"
     x1="253.8262"
     x2="277.1963"
     xlink:href="#g"
     y1="89.0184"
     y2="65.6483" /><linearGradient
     id="p"
     gradientUnits="userSpaceOnUse"
     x1="293.0536"
     x2="316.4237"
     xlink:href="#g"
     y1="89.0184"
     y2="65.6483" /><linearGradient
     id="q"
     gradientUnits="userSpaceOnUse"
     x1="332.2809"
     x2="355.6511"
     xlink:href="#g"
     y1="89.0184"
     y2="65.6483" /><linearGradient
     id="r"
     gradientUnits="userSpaceOnUse"
     x1="371.5083"
     x2="394.8784"
     xlink:href="#g"
     y1="89.0184"
     y2="65.6483" /><linearGradient
     id="s"
     gradientUnits="userSpaceOnUse"
     x1="410.7357"
     x2="434.1058"
     xlink:href="#g"
     y1="89.0184"
     y2="65.6483" /><linearGradient
     id="t"
     gradientUnits="userSpaceOnUse"
     x1="453.1983"
     x2="481.0928"
     y1="91.2806"
     y2="63.3861"><stop
       offset="0"
       stop-color="#9f1e22"
       id="stop13"
       style="stop-color:#1e1b1c;stop-opacity:1;" /><stop
       offset="1"
       stop-color="#771215"
       id="stop14"
       style="stop-color:#1e1b1c;stop-opacity:1;" /></linearGradient><linearGradient
     id="u"
     gradientUnits="userSpaceOnUse"
     x1="93.1025"
     x2="112.0084"
     xlink:href="#g"
     y1="113.6751"
     y2="94.7692" /><linearGradient
     id="v"
     gradientUnits="userSpaceOnUse"
     x1="102.3525"
     x2="121.2584"
     xlink:href="#g"
     y1="191.0911"
     y2="172.1852" /><linearGradient
     id="w"
     gradientUnits="userSpaceOnUse"
     x1="128.0361"
     x2="146.942"
     xlink:href="#g"
     y1="191.0911"
     y2="172.1852" /><linearGradient
     id="x"
     gradientUnits="userSpaceOnUse"
     x1="140.6609"
     x2="159.5668"
     xlink:href="#g"
     y1="216.8965"
     y2="197.9906" /><linearGradient
     id="y"
     gradientUnits="userSpaceOnUse"
     x1="374.9839"
     x2="398.6995"
     xlink:href="#g"
     y1="219.3014"
     y2="195.5859" /><linearGradient
     id="z"
     gradientUnits="userSpaceOnUse"
     x1="460.3643"
     x2="484.0798"
     xlink:href="#g"
     y1="116.0799"
     y2="92.3644" /><linearGradient
     id="A"
     gradientUnits="userSpaceOnUse"
     x1="454.6589"
     x2="478.3744"
     xlink:href="#g"
     y1="167.6905"
     y2="143.975" /><linearGradient
     id="B"
     gradientUnits="userSpaceOnUse"
     x1="468.6581"
     x2="487.564"
     xlink:href="#g"
     y1="139.4806"
     y2="120.5747" /><linearGradient
     id="C"
     gradientUnits="userSpaceOnUse"
     x1="436.8225"
     x2="455.7284"
     xlink:href="#g"
     y1="191.0912"
     y2="172.1853" /><linearGradient
     id="D"
     gradientUnits="userSpaceOnUse"
     x1="436.8225"
     x2="455.7284"
     xlink:href="#g"
     y1="216.8965"
     y2="197.9906" /><linearGradient
     id="E"
     gradientUnits="userSpaceOnUse"
     x1="403.5987"
     x2="435.4073"
     xlink:href="#g"
     y1="210.4453"
     y2="178.6367" /><linearGradient
     id="F"
     gradientUnits="userSpaceOnUse"
     x1="456.5013"
     x2="488.3099"
     xlink:href="#g"
     y1="210.4453"
     y2="178.6367" /><path
     d="m3.042 62v-5.264c0-.568-.46-1.028-1.028-1.028h-2.014v-50.458c0-2.899 2.351-5.25 5.25-5.25h490.5c2.9 0 5.25 2.351 5.25 5.25v56.75z"
     fill="url(#a)"
     id="path14" /><path
     d="m81.778 224.444h-78.276l-3.502-155.888v-11.223c0-.276.224-.5.5-.5h2.542c.036 1.72.072 3.441.108 5.161 7.184 0 75.017.005 75.017.005s3.611 149.557 3.611 162.445z"
     id="path15" /><path
     d="m501 61.995c-7.184 0-501 .005-501 .005s3.502 149.556 3.502 162.444h493.997l3.501-155.888v-6.556z"
     fill="url(#c)"
     id="path16" /><path
     d="m88.542 46.333h-72.917c-1.266 0-2.292-1.026-2.292-2.292v-26.25c0-1.266 1.026-2.292 2.292-2.292h72.917c1.266 0 2.292 1.026 2.292 2.292v26.25c-.001 1.266-1.027 2.292-2.292 2.292z"
     fill="#1c1c1d"
     id="path17" /><path
     d="m82.851 156.028h-2.473l-.629-27.252h2.473z"
     fill="url(#d)"
     id="path18" /><path
     d="m81.125 224h-77.127l-3.581-159.847c-.022-.968.751-1.764 1.712-1.764h75.414z"
     fill="url(#e)"
     id="path19" /><path
     d="m488.709 278.5h-476.411c-2.128 0-3.853-1.725-3.853-3.853l-4.943-50.202h493.997l-4.943 50.209c0 2.124-1.723 3.846-3.847 3.846z"
     fill="url(#f)"
     id="path21" /><path
     d="m102.692 221.444c-2.196 0-3.982-1.786-3.982-3.982v-73.434h-4.102c-2.196 0-3.982-1.736-3.982-3.871v-49.324c-1.233-.686-2.043-1.999-2.043-3.481v-20.036c0-2.196 1.787-3.982 3.982-3.982h394.845c2.377 0 4.312 1.934 4.312 4.311v72.847c0 1.95-1.587 3.537-3.537 3.537h-2.169v73.879c0 1.95-1.586 3.537-3.536 3.537h-379.788z"
     fill="#0d0d0d"
     id="path22" /><path
     d="m90.083 87.351v-20.035c0-1.371 1.111-2.483 2.483-2.483h31.035c1.371 0 2.483 1.111 2.483 2.483v20.035c0 1.371-1.111 2.483-2.483 2.483h-31.035c-1.371-.001-2.483-1.112-2.483-2.483z"
     fill="#0d0d0d"
     id="path23" /><path
     d="m121.101 87.003h-26.035c-1.371 0-2.483-1.112-2.483-2.483v-14.374c0-1.371 1.112-2.483 2.483-2.483h26.035c1.371 0 2.483 1.112 2.483 2.483v14.374c-.001 1.372-1.112 2.483-2.483 2.483z"
     fill="url(#h)"
     id="path24" /><path
     d="m92.126 140.046v-20.036c0-1.371 1.111-2.483 2.483-2.483h31.035c1.371 0 2.483 1.111 2.483 2.483v20.035c0 1.371-1.111 2.483-2.483 2.483h-31.036c-1.37 0-2.482-1.112-2.482-2.482z"
     fill="#0d0d0d"
     id="path25" /><path
     d="m123.144 139.697h-26.035c-1.371 0-2.483-1.112-2.483-2.483v-14.374c0-1.371 1.112-2.483 2.483-2.483h26.035c1.371 0 2.483 1.112 2.483 2.483v14.374c-.001 1.372-1.112 2.483-2.483 2.483z"
     fill="url(#i)"
     id="path26" /><path
     d="m100.21 165.851v-20.036c0-1.371 1.111-2.483 2.483-2.483h31.035c1.371 0 2.483 1.111 2.483 2.483v20.035c0 1.371-1.111 2.483-2.483 2.483h-31.035c-1.372 0-2.483-1.111-2.483-2.482z"
     fill="#0d0d0d"
     id="path27" /><path
     d="m131.227 165.503h-26.035c-1.371 0-2.483-1.112-2.483-2.483v-14.374c0-1.371 1.112-2.483 2.483-2.483h26.035c1.371 0 2.483 1.112 2.483 2.483v14.374c0 1.371-1.112 2.483-2.483 2.483z"
     fill="url(#j)"
     id="path28" /><path
     d="m100.21 217.462v-20.036c0-1.371 1.111-2.483 2.483-2.483h31.035c1.371 0 2.483 1.111 2.483 2.483v20.035c0 1.371-1.111 2.483-2.483 2.483h-31.035c-1.372 0-2.483-1.112-2.483-2.482z"
     fill="#0d0d0d"
     id="path29" /><path
     d="m131.227 217.113h-26.035c-1.371 0-2.483-1.112-2.483-2.483v-14.374c0-1.371 1.112-2.483 2.483-2.483h26.035c1.371 0 2.483 1.112 2.483 2.483v14.374c0 1.372-1.112 2.483-2.483 2.483z"
     fill="url(#k)"
     id="path30" /><path
     d="m130.25 87.381v-20.094c0-1.355 1.098-2.453 2.453-2.453h30.251c1.355 0 2.453 1.098 2.453 2.453v20.093c0 1.355-1.098 2.453-2.453 2.453h-30.252c-1.354 0-2.452-1.098-2.452-2.452z"
     fill="#0d0d0d"
     id="path31" /><path
     d="m160.513 87.003h-25.368c-1.355 0-2.453-1.098-2.453-2.453v-14.433c0-1.355 1.098-2.453 2.453-2.453h25.368c1.355 0 2.453 1.098 2.453 2.453v14.433c.001 1.355-1.098 2.453-2.453 2.453z"
     fill="url(#l)"
     id="path32" /><path
     d="m169.478 87.381v-20.094c0-1.355 1.098-2.453 2.453-2.453h30.251c1.355 0 2.453 1.098 2.453 2.453v20.093c0 1.355-1.098 2.453-2.453 2.453h-30.252c-1.354 0-2.452-1.098-2.452-2.452z"
     fill="#0d0d0d"
     id="path33" /><path
     d="m199.741 87.003h-25.368c-1.355 0-2.453-1.098-2.453-2.453v-14.433c0-1.355 1.098-2.453 2.453-2.453h25.368c1.355 0 2.453 1.098 2.453 2.453v14.433c0 1.355-1.098 2.453-2.453 2.453z"
     fill="url(#m)"
     id="path34" /><path
     d="m208.705 87.381v-20.094c0-1.355 1.098-2.453 2.453-2.453h30.251c1.355 0 2.453 1.098 2.453 2.453v20.093c0 1.355-1.098 2.453-2.453 2.453h-30.252c-1.354 0-2.452-1.098-2.452-2.452z"
     fill="#0d0d0d"
     id="path35" /><path
     d="m238.968 87.003h-25.368c-1.355 0-2.453-1.098-2.453-2.453v-14.433c0-1.355 1.098-2.453 2.453-2.453h25.368c1.355 0 2.453 1.098 2.453 2.453v14.433c0 1.355-1.098 2.453-2.453 2.453z"
     fill="url(#n)"
     id="path36" /><path
     d="m247.932 87.381v-20.094c0-1.355 1.098-2.453 2.453-2.453h30.251c1.355 0 2.453 1.098 2.453 2.453v20.093c0 1.355-1.098 2.453-2.453 2.453h-30.252c-1.353 0-2.452-1.098-2.452-2.452z"
     fill="#0d0d0d"
     id="path37" /><path
     d="m278.195 87.003h-25.368c-1.355 0-2.453-1.098-2.453-2.453v-14.433c0-1.355 1.098-2.453 2.453-2.453h25.368c1.355 0 2.453 1.098 2.453 2.453v14.433c.001 1.355-1.098 2.453-2.453 2.453z"
     fill="url(#o)"
     id="path38" /><path
     d="m287.16 87.381v-20.094c0-1.355 1.098-2.453 2.453-2.453h30.251c1.355 0 2.453 1.098 2.453 2.453v20.093c0 1.355-1.098 2.453-2.453 2.453h-30.252c-1.354 0-2.452-1.098-2.452-2.452z"
     fill="#0d0d0d"
     id="path39" /><path
     d="m317.423 87.003h-25.368c-1.355 0-2.453-1.098-2.453-2.453v-14.433c0-1.355 1.098-2.453 2.453-2.453h25.368c1.355 0 2.453 1.098 2.453 2.453v14.433c0 1.355-1.098 2.453-2.453 2.453z"
     fill="url(#p)"
     id="path40" /><path
     d="m326.387 87.381v-20.094c0-1.355 1.098-2.453 2.453-2.453h30.251c1.355 0 2.453 1.098 2.453 2.453v20.093c0 1.355-1.098 2.453-2.453 2.453h-30.251c-1.355 0-2.453-1.098-2.453-2.452z"
     fill="#0d0d0d"
     id="path41" /><path
     d="m356.65 87.003h-25.368c-1.355 0-2.453-1.098-2.453-2.453v-14.433c0-1.355 1.098-2.453 2.453-2.453h25.368c1.355 0 2.453 1.098 2.453 2.453v14.433c.001 1.355-1.098 2.453-2.453 2.453z"
     fill="url(#q)"
     id="path42" /><path
     d="m365.614 87.381v-20.094c0-1.355 1.098-2.453 2.453-2.453h30.251c1.355 0 2.453 1.098 2.453 2.453v20.093c0 1.355-1.098 2.453-2.453 2.453h-30.252c-1.353 0-2.452-1.098-2.452-2.452z"
     fill="#0d0d0d"
     id="path43" /><path
     d="m395.877 87.003h-25.368c-1.355 0-2.453-1.098-2.453-2.453v-14.433c0-1.355 1.098-2.453 2.453-2.453h25.368c1.355 0 2.453 1.098 2.453 2.453v14.433c.001 1.355-1.098 2.453-2.453 2.453z"
     fill="url(#r)"
     id="path44" /><path
     d="m404.842 87.381v-20.094c0-1.355 1.098-2.453 2.453-2.453h30.251c1.355 0 2.453 1.098 2.453 2.453v20.093c0 1.355-1.098 2.453-2.453 2.453h-30.252c-1.354 0-2.452-1.098-2.452-2.452z"
     fill="#0d0d0d"
     id="path45" /><path
     d="m435.105 87.003h-25.368c-1.355 0-2.453-1.098-2.453-2.453v-14.433c0-1.355 1.098-2.453 2.453-2.453h25.368c1.355 0 2.453 1.098 2.453 2.453v14.433c0 1.355-1.098 2.453-2.453 2.453z"
     fill="url(#s)"
     id="path46" /><path
     d="m444.069 87.023v-19.379c0-1.552 1.258-2.811 2.811-2.811h40.531c1.552 0 2.811 1.258 2.811 2.811v19.378c0 1.552-1.258 2.811-2.811 2.811h-40.531c-1.552 0-2.811-1.258-2.811-2.81z"
     fill="#861719"
     id="path47"
     style="fill:#0d0d0d;fill-opacity:1" /><path
     d="m484.206 87.003h-34.121c-1.552 0-2.811-1.259-2.811-2.811v-13.717c0-1.552 1.259-2.811 2.811-2.811h34.121c1.552 0 2.811 1.259 2.811 2.811v13.718c0 1.552-1.259 2.81-2.811 2.81z"
     fill="url(#t)"
     id="path48" /><path
     d="m90.444 114.686v-20.928c0-1.125.912-2.036 2.036-2.036h20.149c1.125 0 2.036.912 2.036 2.036v20.927c0 1.125-.912 2.036-2.036 2.036h-20.149c-1.124.001-2.036-.91-2.036-2.035z"
     fill="#0d0d0d"
     id="path49" /><path
     d="m110.948 113.892h-16.785c-1.125 0-2.036-.912-2.036-2.036v-15.267c0-1.125.912-2.036 2.036-2.036h16.785c1.125 0 2.036.912 2.036 2.036v15.267c0 1.124-.911 2.036-2.036 2.036z"
     fill="url(#u)"
     id="path50" /><path
     d="m99.694 192.102v-20.928c0-1.125.912-2.036 2.036-2.036h20.149c1.125 0 2.036.912 2.036 2.036v20.927c0 1.125-.912 2.036-2.036 2.036h-20.15c-1.123.001-2.035-.91-2.035-2.035z"
     fill="#0d0d0d"
     id="path51" /><path
     d="m120.198 191.308h-16.785c-1.125 0-2.036-.912-2.036-2.036v-15.267c0-1.125.912-2.036 2.036-2.036h16.785c1.125 0 2.036.912 2.036 2.036v15.267c0 1.124-.911 2.036-2.036 2.036z"
     fill="url(#v)"
     id="path52" /><path
     d="m125.378 192.102v-20.928c0-1.125.912-2.036 2.036-2.036h20.149c1.125 0 2.036.912 2.036 2.036v20.927c0 1.125-.912 2.036-2.036 2.036h-20.15c-1.123.001-2.035-.91-2.035-2.035z"
     fill="#0d0d0d"
     id="path53" /><path
     d="m145.882 191.308h-16.785c-1.125 0-2.036-.912-2.036-2.036v-15.267c0-1.125.912-2.036 2.036-2.036h16.785c1.125 0 2.036.912 2.036 2.036v15.267c0 1.124-.912 2.036-2.036 2.036z"
     fill="url(#w)"
     id="path54" /><path
     d="m117.583 114.733v-21.021c0-1.099.891-1.99 1.99-1.99h19.148c1.099 0 1.99.891 1.99 1.99v21.02c0 1.099-.891 1.99-1.99 1.99h-19.149c-1.098 0-1.989-.89-1.989-1.989z"
     fill="#cabfa3"
     id="path55"
     style="fill:#0d0d0d;fill-opacity:1" /><path
     d="m137.115 113.892h-15.936c-1.099 0-1.99-.891-1.99-1.99v-15.36c0-1.099.891-1.99 1.99-1.99h15.936c1.099 0 1.99.891 1.99 1.99v15.36c0 1.099-.891 1.99-1.99 1.99z"
     fill="#ddd6ba"
     id="path56"
     style="fill:#1e1b1c;fill-opacity:1" /><path
     d="m143.496 114.733v-21.021c0-1.099.891-1.99 1.99-1.99h19.148c1.099 0 1.99.891 1.99 1.99v21.02c0 1.099-.891 1.99-1.99 1.99h-19.149c-1.098 0-1.989-.89-1.989-1.989z"
     fill="#cabfa3"
     id="path57"
     style="fill:#0d0d0d;fill-opacity:1" /><path
     d="m163.028 113.892h-15.936c-1.099 0-1.99-.891-1.99-1.99v-15.36c0-1.099.891-1.99 1.99-1.99h15.936c1.099 0 1.99.891 1.99 1.99v15.36c0 1.099-.891 1.99-1.99 1.99z"
     fill="#ddd6ba"
     id="path58"
     style="fill:#1e1b1c;fill-opacity:1" /><path
     d="m169.409 114.733v-21.021c0-1.099.891-1.99 1.99-1.99h19.148c1.099 0 1.99.891 1.99 1.99v21.02c0 1.099-.891 1.99-1.99 1.99h-19.149c-1.098 0-1.989-.89-1.989-1.989z"
     fill="#cabfa3"
     id="path59"
     style="fill:#0d0d0d;fill-opacity:1" /><path
     d="m188.941 113.892h-15.936c-1.099 0-1.99-.891-1.99-1.99v-15.36c0-1.099.891-1.99 1.99-1.99h15.936c1.099 0 1.99.891 1.99 1.99v15.36c0 1.099-.891 1.99-1.99 1.99z"
     fill="#ddd6ba"
     id="path60"
     style="fill:#1e1b1c;fill-opacity:1" /><path
     d="m195.322 114.733v-21.021c0-1.099.891-1.99 1.99-1.99h19.148c1.099 0 1.99.891 1.99 1.99v21.02c0 1.099-.891 1.99-1.99 1.99h-19.149c-1.098 0-1.989-.89-1.989-1.989z"
     fill="#cabfa3"
     id="path61"
     style="fill:#0d0d0d;fill-opacity:1" /><path
     d="m214.854 113.892h-15.936c-1.099 0-1.99-.891-1.99-1.99v-15.36c0-1.099.891-1.99 1.99-1.99h15.936c1.099 0 1.99.891 1.99 1.99v15.36c0 1.099-.891 1.99-1.99 1.99z"
     fill="#ddd6ba"
     id="path62"
     style="fill:#1e1b1c;fill-opacity:1" /><path
     d="m221.235 114.733v-21.021c0-1.099.891-1.99 1.99-1.99h19.148c1.099 0 1.99.891 1.99 1.99v21.02c0 1.099-.891 1.99-1.99 1.99h-19.149c-1.098 0-1.989-.89-1.989-1.989z"
     fill="#cabfa3"
     id="path63"
     style="fill:#0d0d0d;fill-opacity:1" /><path
     d="m240.767 113.892h-15.936c-1.099 0-1.99-.891-1.99-1.99v-15.36c0-1.099.891-1.99 1.99-1.99h15.936c1.099 0 1.99.891 1.99 1.99v15.36c0 1.099-.891 1.99-1.99 1.99z"
     fill="#ddd6ba"
     id="path64"
     style="fill:#1e1b1c;fill-opacity:1" /><path
     d="m247.148 114.733v-21.021c0-1.099.891-1.99 1.99-1.99h19.148c1.099 0 1.99.891 1.99 1.99v21.02c0 1.099-.891 1.99-1.99 1.99h-19.149c-1.098 0-1.989-.89-1.989-1.989z"
     fill="#cabfa3"
     id="path65"
     style="fill:#0d0d0d;fill-opacity:1" /><path
     d="m266.68 113.892h-15.936c-1.099 0-1.99-.891-1.99-1.99v-15.36c0-1.099.891-1.99 1.99-1.99h15.936c1.099 0 1.99.891 1.99 1.99v15.36c0 1.099-.891 1.99-1.99 1.99z"
     fill="#ddd6ba"
     id="path66"
     style="fill:#1e1b1c;fill-opacity:1" /><path
     d="m273.061 114.733v-21.021c0-1.099.891-1.99 1.99-1.99h19.148c1.099 0 1.99.891 1.99 1.99v21.02c0 1.099-.891 1.99-1.99 1.99h-19.149c-1.098 0-1.989-.89-1.989-1.989z"
     fill="#cabfa3"
     id="path67"
     style="fill:#0d0d0d;fill-opacity:1" /><path
     d="m292.593 113.892h-15.936c-1.099 0-1.99-.891-1.99-1.99v-15.36c0-1.099.891-1.99 1.99-1.99h15.936c1.099 0 1.99.891 1.99 1.99v15.36c0 1.099-.891 1.99-1.99 1.99z"
     fill="#ddd6ba"
     id="path68"
     style="fill:#1e1b1c;fill-opacity:1" /><path
     d="m298.974 114.733v-21.021c0-1.099.891-1.99 1.99-1.99h19.148c1.099 0 1.99.891 1.99 1.99v21.02c0 1.099-.891 1.99-1.99 1.99h-19.149c-1.098 0-1.989-.89-1.989-1.989z"
     fill="#cabfa3"
     id="path69"
     style="fill:#0d0d0d;fill-opacity:1" /><path
     d="m318.506 113.892h-15.936c-1.099 0-1.99-.891-1.99-1.99v-15.36c0-1.099.891-1.99 1.99-1.99h15.936c1.099 0 1.99.891 1.99 1.99v15.36c0 1.099-.891 1.99-1.99 1.99z"
     fill="#ddd6ba"
     id="path70"
     style="fill:#1e1b1c;fill-opacity:1" /><path
     d="m324.887 114.733v-21.021c0-1.099.891-1.99 1.99-1.99h19.148c1.099 0 1.99.891 1.99 1.99v21.02c0 1.099-.891 1.99-1.99 1.99h-19.149c-1.098 0-1.989-.89-1.989-1.989z"
     fill="#cabfa3"
     id="path71"
     style="fill:#0d0d0d;fill-opacity:1" /><path
     d="m344.419 113.892h-15.936c-1.099 0-1.99-.891-1.99-1.99v-15.36c0-1.099.891-1.99 1.99-1.99h15.936c1.099 0 1.99.891 1.99 1.99v15.36c0 1.099-.891 1.99-1.99 1.99z"
     fill="#ddd6ba"
     id="path72"
     style="fill:#1e1b1c;fill-opacity:1" /><path
     d="m350.8 114.733v-21.021c0-1.099.891-1.99 1.99-1.99h19.148c1.099 0 1.99.891 1.99 1.99v21.02c0 1.099-.891 1.99-1.99 1.99h-19.149c-1.098 0-1.989-.89-1.989-1.989z"
     fill="#cabfa3"
     id="path73"
     style="fill:#0d0d0d;fill-opacity:1" /><path
     d="m370.332 113.892h-15.936c-1.099 0-1.99-.891-1.99-1.99v-15.36c0-1.099.891-1.99 1.99-1.99h15.936c1.099 0 1.99.891 1.99 1.99v15.36c0 1.099-.891 1.99-1.99 1.99z"
     fill="#ddd6ba"
     id="path74"
     style="fill:#1e1b1c;fill-opacity:1" /><path
     d="m376.713 114.733v-21.021c0-1.099.891-1.99 1.99-1.99h19.148c1.099 0 1.99.891 1.99 1.99v21.02c0 1.099-.891 1.99-1.99 1.99h-19.149c-1.099 0-1.989-.89-1.989-1.989z"
     fill="#cabfa3"
     id="path75"
     style="fill:#0d0d0d;fill-opacity:1" /><path
     d="m396.245 113.892h-15.936c-1.099 0-1.99-.891-1.99-1.99v-15.36c0-1.099.891-1.99 1.99-1.99h15.936c1.099 0 1.99.891 1.99 1.99v15.36c0 1.099-.891 1.99-1.99 1.99z"
     fill="#ddd6ba"
     id="path76"
     style="fill:#1e1b1c;fill-opacity:1" /><path
     d="m402.626 114.733v-21.021c0-1.099.891-1.99 1.99-1.99h19.148c1.099 0 1.99.891 1.99 1.99v21.02c0 1.099-.891 1.99-1.99 1.99h-19.149c-1.099 0-1.989-.89-1.989-1.989z"
     fill="#cabfa3"
     id="path77"
     style="fill:#0d0d0d;fill-opacity:1" /><path
     d="m422.158 113.892h-15.936c-1.099 0-1.99-.891-1.99-1.99v-15.36c0-1.099.891-1.99 1.99-1.99h15.936c1.099 0 1.99.891 1.99 1.99v15.36c0 1.099-.891 1.99-1.99 1.99z"
     fill="#ddd6ba"
     id="path78"
     style="fill:#1e1b1c;fill-opacity:1" /><path
     d="m428.539 114.733v-21.021c0-1.099.891-1.99 1.99-1.99h19.148c1.099 0 1.99.891 1.99 1.99v21.02c0 1.099-.891 1.99-1.99 1.99h-19.149c-1.099 0-1.989-.89-1.989-1.989z"
     fill="#cabfa3"
     id="path79"
     style="fill:#0d0d0d;fill-opacity:1" /><path
     d="m448.071 113.892h-15.936c-1.099 0-1.99-.891-1.99-1.99v-15.36c0-1.099.891-1.99 1.99-1.99h15.936c1.099 0 1.99.891 1.99 1.99v15.36c-.001 1.099-.891 1.99-1.99 1.99z"
     fill="#ddd6ba"
     id="path80"
     style="fill:#1e1b1c;fill-opacity:1" /><path
     d="m130.292 140.538v-21.021c0-1.099.891-1.99 1.99-1.99h19.148c1.099 0 1.99.891 1.99 1.99v21.021c0 1.099-.891 1.99-1.99 1.99h-19.149c-1.098 0-1.989-.891-1.989-1.99z"
     fill="#cabfa3"
     id="path81"
     style="fill:#0d0d0d;fill-opacity:1" /><path
     d="m149.824 139.697h-15.936c-1.099 0-1.99-.891-1.99-1.99v-15.36c0-1.099.891-1.99 1.99-1.99h15.936c1.099 0 1.99.891 1.99 1.99v15.36c0 1.1-.891 1.99-1.99 1.99z"
     fill="#ddd6ba"
     id="path82"
     style="fill:#1e1b1c;fill-opacity:1" /><path
     d="m156.205 140.538v-21.021c0-1.099.891-1.99 1.99-1.99h19.148c1.099 0 1.99.891 1.99 1.99v21.021c0 1.099-.891 1.99-1.99 1.99h-19.149c-1.098 0-1.989-.891-1.989-1.99z"
     fill="#cabfa3"
     id="path83"
     style="fill:#0d0d0d;fill-opacity:1" /><path
     d="m175.737 139.697h-15.936c-1.099 0-1.99-.891-1.99-1.99v-15.36c0-1.099.891-1.99 1.99-1.99h15.936c1.099 0 1.99.891 1.99 1.99v15.36c0 1.1-.891 1.99-1.99 1.99z"
     fill="#ddd6ba"
     id="path84"
     style="fill:#1e1b1c;fill-opacity:1" /><path
     d="m182.118 140.538v-21.021c0-1.099.891-1.99 1.99-1.99h19.148c1.099 0 1.99.891 1.99 1.99v21.021c0 1.099-.891 1.99-1.99 1.99h-19.149c-1.098 0-1.989-.891-1.989-1.99z"
     fill="#cabfa3"
     id="path85"
     style="fill:#0d0d0d;fill-opacity:1" /><path
     d="m201.65 139.697h-15.936c-1.099 0-1.99-.891-1.99-1.99v-15.36c0-1.099.891-1.99 1.99-1.99h15.936c1.099 0 1.99.891 1.99 1.99v15.36c0 1.1-.891 1.99-1.99 1.99z"
     fill="#ddd6ba"
     id="path86"
     style="fill:#1e1b1c;fill-opacity:1" /><path
     d="m208.031 140.538v-21.021c0-1.099.891-1.99 1.99-1.99h19.148c1.099 0 1.99.891 1.99 1.99v21.021c0 1.099-.891 1.99-1.99 1.99h-19.149c-1.098 0-1.989-.891-1.989-1.99z"
     fill="#cabfa3"
     id="path87"
     style="fill:#0d0d0d;fill-opacity:1" /><path
     d="m227.563 139.697h-15.936c-1.099 0-1.99-.891-1.99-1.99v-15.36c0-1.099.891-1.99 1.99-1.99h15.936c1.099 0 1.99.891 1.99 1.99v15.36c0 1.1-.891 1.99-1.99 1.99z"
     fill="#ddd6ba"
     id="path88"
     style="fill:#1e1b1c;fill-opacity:1" /><path
     d="m233.944 140.538v-21.021c0-1.099.891-1.99 1.99-1.99h19.148c1.099 0 1.99.891 1.99 1.99v21.021c0 1.099-.891 1.99-1.99 1.99h-19.149c-1.099 0-1.989-.891-1.989-1.99z"
     fill="#cabfa3"
     id="path89"
     style="fill:#0d0d0d;fill-opacity:1" /><path
     d="m253.476 139.697h-15.936c-1.099 0-1.99-.891-1.99-1.99v-15.36c0-1.099.891-1.99 1.99-1.99h15.936c1.099 0 1.99.891 1.99 1.99v15.36c0 1.1-.891 1.99-1.99 1.99z"
     fill="#ddd6ba"
     id="path90"
     style="fill:#1e1b1c;fill-opacity:1" /><path
     d="m259.857 140.538v-21.021c0-1.099.891-1.99 1.99-1.99h19.148c1.099 0 1.99.891 1.99 1.99v21.021c0 1.099-.891 1.99-1.99 1.99h-19.149c-1.099 0-1.989-.891-1.989-1.99z"
     fill="#cabfa3"
     id="path91"
     style="fill:#0d0d0d;fill-opacity:1" /><path
     d="m279.389 139.697h-15.936c-1.099 0-1.99-.891-1.99-1.99v-15.36c0-1.099.891-1.99 1.99-1.99h15.936c1.099 0 1.99.891 1.99 1.99v15.36c0 1.1-.891 1.99-1.99 1.99z"
     fill="#ddd6ba"
     id="path92"
     style="fill:#1e1b1c;fill-opacity:1" /><path
     d="m285.77 140.538v-21.021c0-1.099.891-1.99 1.99-1.99h19.148c1.099 0 1.99.891 1.99 1.99v21.021c0 1.099-.891 1.99-1.99 1.99h-19.149c-1.099 0-1.989-.891-1.989-1.99z"
     fill="#cabfa3"
     id="path93"
     style="fill:#0d0d0d;fill-opacity:1" /><path
     d="m305.302 139.697h-15.936c-1.099 0-1.99-.891-1.99-1.99v-15.36c0-1.099.891-1.99 1.99-1.99h15.936c1.099 0 1.99.891 1.99 1.99v15.36c-.001 1.1-.891 1.99-1.99 1.99z"
     fill="#ddd6ba"
     id="path94"
     style="fill:#1e1b1c;fill-opacity:1" /><path
     d="m311.683 140.538v-21.021c0-1.099.891-1.99 1.99-1.99h19.148c1.099 0 1.99.891 1.99 1.99v21.021c0 1.099-.891 1.99-1.99 1.99h-19.149c-1.099 0-1.989-.891-1.989-1.99z"
     fill="#cabfa3"
     id="path95"
     style="fill:#0d0d0d;fill-opacity:1" /><path
     d="m331.215 139.697h-15.936c-1.099 0-1.99-.891-1.99-1.99v-15.36c0-1.099.891-1.99 1.99-1.99h15.936c1.099 0 1.99.891 1.99 1.99v15.36c-.001 1.1-.892 1.99-1.99 1.99z"
     fill="#ddd6ba"
     id="path96"
     style="fill:#1e1b1c;fill-opacity:1" /><path
     d="m337.596 140.538v-21.021c0-1.099.891-1.99 1.99-1.99h19.148c1.099 0 1.99.891 1.99 1.99v21.021c0 1.099-.891 1.99-1.99 1.99h-19.149c-1.099 0-1.989-.891-1.989-1.99z"
     fill="#cabfa3"
     id="path97"
     style="fill:#0d0d0d;fill-opacity:1" /><path
     d="m357.127 139.697h-15.936c-1.099 0-1.99-.891-1.99-1.99v-15.36c0-1.099.891-1.99 1.99-1.99h15.936c1.099 0 1.99.891 1.99 1.99v15.36c0 1.1-.891 1.99-1.99 1.99z"
     fill="#ddd6ba"
     id="path98"
     style="fill:#1e1b1c;fill-opacity:1" /><path
     d="m363.508 140.538v-21.021c0-1.099.891-1.99 1.99-1.99h19.148c1.099 0 1.99.891 1.99 1.99v21.021c0 1.099-.891 1.99-1.99 1.99h-19.149c-1.098 0-1.989-.891-1.989-1.99z"
     fill="#cabfa3"
     id="path99"
     style="fill:#0d0d0d;fill-opacity:1" /><path
     d="m383.04 139.697h-15.936c-1.099 0-1.99-.891-1.99-1.99v-15.36c0-1.099.891-1.99 1.99-1.99h15.936c1.099 0 1.99.891 1.99 1.99v15.36c0 1.1-.891 1.99-1.99 1.99z"
     fill="#ddd6ba"
     id="path100"
     style="fill:#1e1b1c;fill-opacity:1" /><path
     d="m389.421 140.538v-21.021c0-1.099.891-1.99 1.99-1.99h19.148c1.099 0 1.99.891 1.99 1.99v21.021c0 1.099-.891 1.99-1.99 1.99h-19.149c-1.098 0-1.989-.891-1.989-1.99z"
     fill="#cabfa3"
     id="path101"
     style="fill:#0d0d0d;fill-opacity:1" /><path
     d="m408.953 139.697h-15.936c-1.099 0-1.99-.891-1.99-1.99v-15.36c0-1.099.891-1.99 1.99-1.99h15.936c1.099 0 1.99.891 1.99 1.99v15.36c0 1.1-.891 1.99-1.99 1.99z"
     fill="#ddd6ba"
     id="path102"
     style="fill:#1e1b1c;fill-opacity:1" /><path
     d="m415.334 140.538v-21.021c0-1.099.891-1.99 1.99-1.99h19.148c1.099 0 1.99.891 1.99 1.99v21.021c0 1.099-.891 1.99-1.99 1.99h-19.149c-1.098 0-1.989-.891-1.989-1.99z"
     fill="#cabfa3"
     id="path103"
     style="fill:#0d0d0d;fill-opacity:1" /><path
     d="m434.866 139.697h-15.936c-1.099 0-1.99-.891-1.99-1.99v-15.36c0-1.099.891-1.99 1.99-1.99h15.936c1.099 0 1.99.891 1.99 1.99v15.36c0 1.1-.891 1.99-1.99 1.99z"
     fill="#ddd6ba"
     id="path104"
     style="fill:#1e1b1c;fill-opacity:1" /><path
     d="m441.247 140.538v-21.021c0-1.099.891-1.99 1.99-1.99h19.148c1.099 0 1.99.891 1.99 1.99v21.021c0 1.099-.891 1.99-1.99 1.99h-19.149c-1.098 0-1.989-.891-1.989-1.99z"
     fill="#cabfa3"
     id="path105"
     style="fill:#0d0d0d;fill-opacity:1" /><path
     d="m460.779 139.697h-15.936c-1.099 0-1.99-.891-1.99-1.99v-15.36c0-1.099.891-1.99 1.99-1.99h15.936c1.099 0 1.99.891 1.99 1.99v15.36c0 1.1-.891 1.99-1.99 1.99z"
     fill="#ddd6ba"
     id="path106"
     style="fill:#1e1b1c;fill-opacity:1" /><path
     d="m138.105 166.344v-21.021c0-1.099.891-1.99 1.99-1.99h19.148c1.099 0 1.99.891 1.99 1.99v21.02c0 1.099-.891 1.99-1.99 1.99h-19.149c-1.098 0-1.989-.891-1.989-1.989z"
     fill="#cabfa3"
     id="path107"
     style="fill:#0d0d0d;fill-opacity:1" /><path
     d="m157.637 165.503h-15.936c-1.099 0-1.99-.891-1.99-1.99v-15.36c0-1.099.891-1.99 1.99-1.99h15.936c1.099 0 1.99.891 1.99 1.99v15.36c0 1.099-.891 1.99-1.99 1.99z"
     fill="#ddd6ba"
     id="path108"
     style="fill:#1e1b1c;fill-opacity:1" /><path
     d="m164.018 166.344v-21.021c0-1.099.891-1.99 1.99-1.99h19.148c1.099 0 1.99.891 1.99 1.99v21.02c0 1.099-.891 1.99-1.99 1.99h-19.149c-1.098 0-1.989-.891-1.989-1.989z"
     fill="#cabfa3"
     id="path109"
     style="fill:#0d0d0d;fill-opacity:1" /><path
     d="m183.55 165.503h-15.936c-1.099 0-1.99-.891-1.99-1.99v-15.36c0-1.099.891-1.99 1.99-1.99h15.936c1.099 0 1.99.891 1.99 1.99v15.36c0 1.099-.891 1.99-1.99 1.99z"
     fill="#ddd6ba"
     id="path110"
     style="fill:#1e1b1c;fill-opacity:1" /><path
     d="m189.931 166.344v-21.021c0-1.099.891-1.99 1.99-1.99h19.148c1.099 0 1.99.891 1.99 1.99v21.02c0 1.099-.891 1.99-1.99 1.99h-19.149c-1.098 0-1.989-.891-1.989-1.989z"
     fill="#cabfa3"
     id="path111"
     style="fill:#0d0d0d;fill-opacity:1" /><path
     d="m209.463 165.503h-15.936c-1.099 0-1.99-.891-1.99-1.99v-15.36c0-1.099.891-1.99 1.99-1.99h15.936c1.099 0 1.99.891 1.99 1.99v15.36c0 1.099-.891 1.99-1.99 1.99z"
     fill="#ddd6ba"
     id="path112"
     style="fill:#1e1b1c;fill-opacity:1" /><path
     d="m215.844 166.344v-21.021c0-1.099.891-1.99 1.99-1.99h19.148c1.099 0 1.99.891 1.99 1.99v21.02c0 1.099-.891 1.99-1.99 1.99h-19.149c-1.098 0-1.989-.891-1.989-1.989z"
     fill="#cabfa3"
     id="path113"
     style="fill:#0d0d0d;fill-opacity:1" /><path
     d="m235.376 165.503h-15.936c-1.099 0-1.99-.891-1.99-1.99v-15.36c0-1.099.891-1.99 1.99-1.99h15.936c1.099 0 1.99.891 1.99 1.99v15.36c0 1.099-.891 1.99-1.99 1.99z"
     fill="#ddd6ba"
     id="path114"
     style="fill:#1e1b1c;fill-opacity:1" /><path
     d="m241.757 166.344v-21.021c0-1.099.891-1.99 1.99-1.99h19.148c1.099 0 1.99.891 1.99 1.99v21.02c0 1.099-.891 1.99-1.99 1.99h-19.149c-1.098 0-1.989-.891-1.989-1.989z"
     fill="#cabfa3"
     id="path115"
     style="fill:#0d0d0d;fill-opacity:1" /><path
     d="m261.289 165.503h-15.936c-1.099 0-1.99-.891-1.99-1.99v-15.36c0-1.099.891-1.99 1.99-1.99h15.936c1.099 0 1.99.891 1.99 1.99v15.36c0 1.099-.891 1.99-1.99 1.99z"
     fill="#ddd6ba"
     id="path116"
     style="fill:#1e1b1c;fill-opacity:1" /><path
     d="m267.67 166.344v-21.021c0-1.099.891-1.99 1.99-1.99h19.148c1.099 0 1.99.891 1.99 1.99v21.02c0 1.099-.891 1.99-1.99 1.99h-19.149c-1.098 0-1.989-.891-1.989-1.989z"
     fill="#cabfa3"
     id="path117"
     style="fill:#0d0d0d;fill-opacity:1" /><path
     d="m287.202 165.503h-15.936c-1.099 0-1.99-.891-1.99-1.99v-15.36c0-1.099.891-1.99 1.99-1.99h15.936c1.099 0 1.99.891 1.99 1.99v15.36c0 1.099-.891 1.99-1.99 1.99z"
     fill="#ddd6ba"
     id="path118"
     style="fill:#1e1b1c;fill-opacity:1" /><path
     d="m293.583 166.344v-21.021c0-1.099.891-1.99 1.99-1.99h19.148c1.099 0 1.99.891 1.99 1.99v21.02c0 1.099-.891 1.99-1.99 1.99h-19.149c-1.099 0-1.989-.891-1.989-1.989z"
     fill="#cabfa3"
     id="path119"
     style="fill:#0d0d0d;fill-opacity:1" /><path
     d="m313.115 165.503h-15.936c-1.099 0-1.99-.891-1.99-1.99v-15.36c0-1.099.891-1.99 1.99-1.99h15.936c1.099 0 1.99.891 1.99 1.99v15.36c0 1.099-.891 1.99-1.99 1.99z"
     fill="#ddd6ba"
     id="path120"
     style="fill:#1e1b1c;fill-opacity:1" /><path
     d="m319.496 166.344v-21.021c0-1.099.891-1.99 1.99-1.99h19.148c1.099 0 1.99.891 1.99 1.99v21.02c0 1.099-.891 1.99-1.99 1.99h-19.149c-1.099 0-1.989-.891-1.989-1.989z"
     fill="#cabfa3"
     id="path121"
     style="fill:#0d0d0d;fill-opacity:1" /><path
     d="m339.028 165.503h-15.936c-1.099 0-1.99-.891-1.99-1.99v-15.36c0-1.099.891-1.99 1.99-1.99h15.936c1.099 0 1.99.891 1.99 1.99v15.36c0 1.099-.891 1.99-1.99 1.99z"
     fill="#ddd6ba"
     id="path122"
     style="fill:#1e1b1c;fill-opacity:1" /><path
     d="m345.409 166.344v-21.021c0-1.099.891-1.99 1.99-1.99h19.148c1.099 0 1.99.891 1.99 1.99v21.02c0 1.099-.891 1.99-1.99 1.99h-19.149c-1.099 0-1.989-.891-1.989-1.989z"
     fill="#cabfa3"
     id="path123"
     style="fill:#0d0d0d;fill-opacity:1" /><path
     d="m364.941 165.503h-15.936c-1.099 0-1.99-.891-1.99-1.99v-15.36c0-1.099.891-1.99 1.99-1.99h15.936c1.099 0 1.99.891 1.99 1.99v15.36c-.001 1.099-.891 1.99-1.99 1.99z"
     fill="#ddd6ba"
     id="path124"
     style="fill:#1e1b1c;fill-opacity:1" /><path
     d="m371.322 166.344v-21.021c0-1.099.891-1.99 1.99-1.99h19.148c1.099 0 1.99.891 1.99 1.99v21.02c0 1.099-.891 1.99-1.99 1.99h-19.149c-1.099 0-1.989-.891-1.989-1.989z"
     fill="#cabfa3"
     id="path125"
     style="fill:#0d0d0d;fill-opacity:1" /><path
     d="m390.854 165.503h-15.936c-1.099 0-1.99-.891-1.99-1.99v-15.36c0-1.099.891-1.99 1.99-1.99h15.936c1.099 0 1.99.891 1.99 1.99v15.36c-.001 1.099-.891 1.99-1.99 1.99z"
     fill="#ddd6ba"
     id="path126"
     style="fill:#1e1b1c;fill-opacity:1" /><path
     d="m397.235 166.344v-21.021c0-1.099.891-1.99 1.99-1.99h19.148c1.099 0 1.99.891 1.99 1.99v21.02c0 1.099-.891 1.99-1.99 1.99h-19.149c-1.099 0-1.989-.891-1.989-1.989z"
     fill="#cabfa3"
     id="path127"
     style="fill:#0d0d0d;fill-opacity:1" /><path
     d="m416.766 165.503h-15.936c-1.099 0-1.99-.891-1.99-1.99v-15.36c0-1.099.891-1.99 1.99-1.99h15.936c1.099 0 1.99.891 1.99 1.99v15.36c0 1.099-.891 1.99-1.99 1.99z"
     fill="#ddd6ba"
     id="path128"
     style="fill:#1e1b1c;fill-opacity:1" /><path
     d="m423.148 166.344v-21.021c0-1.099.891-1.99 1.99-1.99h19.148c1.099 0 1.99.891 1.99 1.99v21.02c0 1.099-.891 1.99-1.99 1.99h-19.149c-1.099 0-1.989-.891-1.989-1.989z"
     fill="#cabfa3"
     id="path129"
     style="fill:#0d0d0d;fill-opacity:1" /><path
     d="m442.679 165.503h-15.936c-1.099 0-1.99-.891-1.99-1.99v-15.36c0-1.099.891-1.99 1.99-1.99h15.936c1.099 0 1.99.891 1.99 1.99v15.36c0 1.099-.891 1.99-1.99 1.99z"
     fill="#ddd6ba"
     id="path130"
     style="fill:#1e1b1c;fill-opacity:1" /><path
     d="m346.064 219.944h19.009c1.091 0 1.975-.891 1.975-1.99v-21.02c0-1.099-.884-1.99-1.975-1.99h-19.009-180.071c-1.091 0-1.975.891-1.975 1.99v21.021c0 1.099.884 1.989 1.975 1.989z"
     fill="#cabfa3"
     id="path131"
     style="fill:#0d0d0d;fill-opacity:1" /><path
     d="m347.659 217.113h15.82c1.091 0 1.975-.891 1.975-1.99v-15.36c0-1.099-.884-1.99-1.975-1.99h-15.82-180.071c-1.091 0-1.975.891-1.975 1.99v15.36c0 1.099.884 1.99 1.975 1.99z"
     fill="#ddd6ba"
     id="path132"
     style="fill:#1e1b1c;fill-opacity:1" /><path
     d="m151.062 192.159v-21.041c0-1.093.886-1.98 1.98-1.98h18.937c1.093 0 1.98.886 1.98 1.98v21.04c0 1.093-.886 1.98-1.98 1.98h-18.937c-1.094 0-1.98-.886-1.98-1.979z"
     fill="#cabfa3"
     id="path133"
     style="fill:#0d0d0d;fill-opacity:1" /><path
     d="m170.388 191.308h-15.757c-1.093 0-1.98-.886-1.98-1.98v-15.38c0-1.093.886-1.98 1.98-1.98h15.757c1.093 0 1.98.886 1.98 1.98v15.38c0 1.094-.886 1.98-1.98 1.98z"
     fill="#ddd6ba"
     id="path134"
     style="fill:#1e1b1c;fill-opacity:1" /><path
     d="m176.715 192.159v-21.041c0-1.093.886-1.98 1.98-1.98h18.937c1.093 0 1.98.886 1.98 1.98v21.04c0 1.093-.886 1.98-1.98 1.98h-18.937c-1.093 0-1.98-.886-1.98-1.979z"
     fill="#cabfa3"
     id="path135"
     style="fill:#0d0d0d;fill-opacity:1" /><path
     d="m196.042 191.308h-15.757c-1.093 0-1.98-.886-1.98-1.98v-15.38c0-1.093.886-1.98 1.98-1.98h15.757c1.093 0 1.98.886 1.98 1.98v15.38c0 1.094-.887 1.98-1.98 1.98z"
     fill="#ddd6ba"
     id="path136"
     style="fill:#1e1b1c;fill-opacity:1" /><path
     d="m202.369 192.159v-21.041c0-1.093.886-1.98 1.98-1.98h18.937c1.093 0 1.98.886 1.98 1.98v21.04c0 1.093-.886 1.98-1.98 1.98h-18.937c-1.094 0-1.98-.886-1.98-1.979z"
     fill="#cabfa3"
     id="path137"
     style="fill:#0d0d0d;fill-opacity:1" /><path
     d="m221.696 191.308h-15.757c-1.093 0-1.98-.886-1.98-1.98v-15.38c0-1.093.886-1.98 1.98-1.98h15.757c1.093 0 1.98.886 1.98 1.98v15.38c0 1.094-.887 1.98-1.98 1.98z"
     fill="#ddd6ba"
     id="path138"
     style="fill:#1e1b1c;fill-opacity:1" /><path
     d="m228.023 192.159v-21.041c0-1.093.886-1.98 1.98-1.98h18.937c1.093 0 1.98.886 1.98 1.98v21.04c0 1.093-.886 1.98-1.98 1.98h-18.937c-1.094 0-1.98-.886-1.98-1.979z"
     fill="#cabfa3"
     id="path139"
     style="fill:#0d0d0d;fill-opacity:1" /><path
     d="m247.349 191.308h-15.757c-1.093 0-1.98-.886-1.98-1.98v-15.38c0-1.093.886-1.98 1.98-1.98h15.757c1.093 0 1.98.886 1.98 1.98v15.38c0 1.094-.886 1.98-1.98 1.98z"
     fill="#ddd6ba"
     id="path140"
     style="fill:#1e1b1c;fill-opacity:1" /><path
     d="m253.677 192.159v-21.041c0-1.093.886-1.98 1.98-1.98h18.937c1.093 0 1.98.886 1.98 1.98v21.04c0 1.093-.886 1.98-1.98 1.98h-18.937c-1.094 0-1.98-.886-1.98-1.979z"
     fill="#cabfa3"
     id="path141"
     style="fill:#0d0d0d;fill-opacity:1" /><path
     d="m273.003 191.308h-15.757c-1.093 0-1.98-.886-1.98-1.98v-15.38c0-1.093.886-1.98 1.98-1.98h15.757c1.093 0 1.98.886 1.98 1.98v15.38c0 1.094-.886 1.98-1.98 1.98z"
     fill="#ddd6ba"
     id="path142"
     style="fill:#1e1b1c;fill-opacity:1" /><path
     d="m279.33 192.159v-21.041c0-1.093.886-1.98 1.98-1.98h18.937c1.093 0 1.98.886 1.98 1.98v21.04c0 1.093-.886 1.98-1.98 1.98h-18.937c-1.094 0-1.98-.886-1.98-1.979z"
     fill="#cabfa3"
     id="path143"
     style="fill:#0d0d0d;fill-opacity:1" /><path
     d="m298.657 191.308h-15.757c-1.093 0-1.98-.886-1.98-1.98v-15.38c0-1.093.886-1.98 1.98-1.98h15.757c1.093 0 1.98.886 1.98 1.98v15.38c0 1.094-.887 1.98-1.98 1.98z"
     fill="#ddd6ba"
     id="path144"
     style="fill:#1e1b1c;fill-opacity:1" /><path
     d="m304.984 192.159v-21.041c0-1.093.886-1.98 1.98-1.98h18.937c1.093 0 1.98.886 1.98 1.98v21.04c0 1.093-.886 1.98-1.98 1.98h-18.937c-1.094 0-1.98-.886-1.98-1.979z"
     fill="#cabfa3"
     id="path145"
     style="fill:#0d0d0d;fill-opacity:1" /><path
     d="m324.311 191.308h-15.757c-1.093 0-1.98-.886-1.98-1.98v-15.38c0-1.093.886-1.98 1.98-1.98h15.757c1.093 0 1.98.886 1.98 1.98v15.38c0 1.094-.887 1.98-1.98 1.98z"
     fill="#ddd6ba"
     id="path146"
     style="fill:#1e1b1c;fill-opacity:1" /><path
     d="m330.638 192.159v-21.041c0-1.093.886-1.98 1.98-1.98h18.937c1.093 0 1.98.886 1.98 1.98v21.04c0 1.093-.886 1.98-1.98 1.98h-18.937c-1.094 0-1.98-.886-1.98-1.979z"
     fill="#cabfa3"
     id="path147"
     style="fill:#0d0d0d;fill-opacity:1" /><path
     d="m349.964 191.308h-15.757c-1.093 0-1.98-.886-1.98-1.98v-15.38c0-1.093.886-1.98 1.98-1.98h15.757c1.093 0 1.98.886 1.98 1.98v15.38c0 1.094-.886 1.98-1.98 1.98z"
     fill="#ddd6ba"
     id="path148"
     style="fill:#1e1b1c;fill-opacity:1" /><path
     d="m356.291 192.159v-21.041c0-1.093.886-1.98 1.98-1.98h18.937c1.093 0 1.98.886 1.98 1.98v21.04c0 1.093-.886 1.98-1.98 1.98h-18.937c-1.093 0-1.98-.886-1.98-1.979z"
     fill="#cabfa3"
     id="path149"
     style="fill:#0d0d0d;fill-opacity:1" /><path
     d="m375.618 191.308h-15.757c-1.093 0-1.98-.886-1.98-1.98v-15.38c0-1.093.886-1.98 1.98-1.98h15.757c1.093 0 1.98.886 1.98 1.98v15.38c0 1.094-.886 1.98-1.98 1.98z"
     fill="#ddd6ba"
     id="path150"
     style="fill:#1e1b1c;fill-opacity:1" /><path
     d="m381.945 192.159v-21.041c0-1.093.886-1.98 1.98-1.98h18.937c1.093 0 1.98.886 1.98 1.98v21.04c0 1.093-.886 1.98-1.98 1.98h-18.937c-1.094 0-1.98-.886-1.98-1.979z"
     fill="#cabfa3"
     id="path151"
     style="fill:#0d0d0d;fill-opacity:1" /><path
     d="m401.272 191.308h-15.757c-1.093 0-1.98-.886-1.98-1.98v-15.38c0-1.093.886-1.98 1.98-1.98h15.757c1.093 0 1.98.886 1.98 1.98v15.38c0 1.094-.887 1.98-1.98 1.98z"
     fill="#ddd6ba"
     id="path152"
     style="fill:#1e1b1c;fill-opacity:1" /><path
     d="m138.003 217.908v-20.928c0-1.125.912-2.036 2.036-2.036h20.15c1.125 0 2.036.912 2.036 2.036v20.927c0 1.125-.912 2.036-2.036 2.036h-20.15c-1.125.001-2.036-.911-2.036-2.035z"
     fill="#0d0d0d"
     id="path153" /><path
     d="m158.506 217.113h-16.785c-1.125 0-2.036-.912-2.036-2.036v-15.267c0-1.125.912-2.036 2.036-2.036h16.785c1.125 0 2.036.912 2.036 2.036v15.267c.001 1.125-.911 2.036-2.036 2.036z"
     fill="url(#x)"
     id="path154" /><path
     d="m368.842 217.462v-20.036c0-1.371 1.111-2.483 2.483-2.483h31.035c1.371 0 2.483 1.111 2.483 2.483v20.035c0 1.371-1.111 2.483-2.483 2.483h-31.035c-1.372 0-2.483-1.111-2.483-2.482z"
     fill="#0d0d0d"
     id="path155" /><path
     d="m399.859 217.113h-26.035c-1.371 0-2.483-1.112-2.483-2.483v-14.374c0-1.371 1.112-2.483 2.483-2.483h26.035c1.371 0 2.483 1.112 2.483 2.483v14.374c0 1.372-1.112 2.483-2.483 2.483z"
     fill="url(#y)"
     id="path156" /><path
     d="m454.222 114.24v-20.035c0-1.371 1.111-2.483 2.483-2.483h31.035c1.371 0 2.483 1.111 2.483 2.483v20.035c0 1.371-1.111 2.483-2.483 2.483h-31.035c-1.372-.001-2.483-1.112-2.483-2.483z"
     fill="#0d0d0d"
     id="path157" /><path
     d="m485.239 113.892h-26.035c-1.371 0-2.483-1.112-2.483-2.483v-14.374c0-1.371 1.112-2.483 2.483-2.483h26.035c1.371 0 2.483 1.112 2.483 2.483v14.374c0 1.371-1.111 2.483-2.483 2.483z"
     fill="url(#z)"
     id="path158" /><path
     d="m448.517 165.851v-20.036c0-1.371 1.111-2.483 2.483-2.483h31.035c1.371 0 2.483 1.111 2.483 2.483v20.035c0 1.371-1.111 2.483-2.483 2.483h-31.035c-1.372 0-2.483-1.111-2.483-2.482z"
     fill="#0d0d0d"
     id="path159"
     style="fill:#0d0d0d;fill-opacity:1" /><path
     d="m479.534 165.503h-26.035c-1.371 0-2.483-1.112-2.483-2.483v-14.374c0-1.371 1.112-2.483 2.483-2.483h26.035c1.371 0 2.483 1.112 2.483 2.483v14.374c0 1.371-1.112 2.483-2.483 2.483z"
     fill="url(#A)"
     id="path160" /><path
     d="m466 140.492v-20.928c0-1.125.912-2.036 2.036-2.036h20.15c1.125 0 2.036.912 2.036 2.036v20.927c0 1.125-.912 2.036-2.036 2.036h-20.15c-1.124.001-2.036-.911-2.036-2.035z"
     fill="#0d0d0d"
     id="path161" /><path
     d="m486.504 139.697h-16.785c-1.125 0-2.036-.912-2.036-2.036v-15.267c0-1.125.912-2.036 2.036-2.036h16.785c1.125 0 2.036.912 2.036 2.036v15.267c0 1.125-.912 2.036-2.036 2.036z"
     fill="url(#B)"
     id="path162" /><path
     d="m434.164 192.103v-20.928c0-1.125.912-2.036 2.036-2.036h20.15c1.125 0 2.036.912 2.036 2.036v20.927c0 1.125-.912 2.036-2.036 2.036h-20.15c-1.124 0-2.036-.911-2.036-2.035z"
     fill="#0d0d0d"
     id="path163" /><path
     d="m454.668 191.308h-16.785c-1.125 0-2.036-.912-2.036-2.036v-15.267c0-1.125.912-2.036 2.036-2.036h16.785c1.125 0 2.036.912 2.036 2.036v15.267c0 1.124-.911 2.036-2.036 2.036z"
     fill="url(#C)"
     id="path164" /><path
     d="m434.164 217.908v-20.928c0-1.125.912-2.036 2.036-2.036h20.15c1.125 0 2.036.912 2.036 2.036v20.927c0 1.125-.912 2.036-2.036 2.036h-20.15c-1.124.001-2.036-.911-2.036-2.035z"
     fill="#0d0d0d"
     id="path165" /><path
     d="m454.668 217.113h-16.785c-1.125 0-2.036-.912-2.036-2.036v-15.267c0-1.125.912-2.036 2.036-2.036h16.785c1.125 0 2.036.912 2.036 2.036v15.267c0 1.125-.911 2.036-2.036 2.036z"
     fill="url(#D)"
     id="path166" /><path
     d="m407.392 196.98v20.928c0 1.124.912 2.036 2.036 2.036h20.15c1.125 0 2.036-.912 2.036-2.036v-20.928-25.805c0-1.125-.912-2.036-2.036-2.036h-20.149c-1.125 0-2.036.912-2.036 2.036-.001 0-.001 25.805-.001 25.805z"
     fill="#0d0d0d"
     id="path167" /><path
     d="m409.074 189.272v25.805c0 1.125.912 2.036 2.036 2.036h16.785c1.125 0 2.036-.912 2.036-2.036v-25.805-15.267c0-1.125-.912-2.036-2.036-2.036h-16.785c-1.125 0-2.036.912-2.036 2.036z"
     fill="url(#E)"
     id="path168" /><path
     d="m460.295 196.98v20.928c0 1.124.912 2.036 2.036 2.036h20.15c1.125 0 2.036-.912 2.036-2.036v-20.928-25.805c0-1.125-.912-2.036-2.036-2.036h-20.15c-1.125 0-2.036.912-2.036 2.036z"
     fill="#0d0d0d"
     id="path169" /><path
     d="m461.977 189.272v25.805c0 1.125.912 2.036 2.036 2.036h16.785c1.125 0 2.036-.912 2.036-2.036v-25.805-15.267c0-1.125-.912-2.036-2.036-2.036h-16.785c-1.125 0-2.036.912-2.036 2.036z"
     fill="url(#F)"
     id="path170" /><g
     id="g190"
     transform="matrix(0.04719058,0,0,0.04719058,16.902466,19.662546)"><g
       fill="#ffffff"
       id="g3"><g
         stroke-width="3.1"
         id="g2"><text
           fill-opacity="0.5"
           font-family="TrasksHand"
           font-size="6.2px"
           font-weight="bold"
           x="1173.677"
           y="242.37199"
           id="text1"><tspan
             style="font-weight:700;font-size:6.2px;font-family:TrasksHand;fill:#ffffff;fill-opacity:0.5;stroke-width:3.1"
             x="1173.677"
             y="242.37199"
             id="tspan1">John Loreth 2022</tspan></text><g
           fill-opacity="0.994"
           id="g1"><path
             d="m 284.775,165.227 h 19.178 V 86.966 c 0,-5.09 -0.38,-12.284 -1.33,-21.584 0.38,1.58 1.33,7.546 3.229,17.548 l 16.14,82.297 h 10.254 l 16.9,-82.297 c 0.759,-3.334 1.708,-9.125 3.227,-17.548 -1.139,10.88 -1.519,18.074 -1.519,21.584 v 78.261 h 19.369 V 41.342 H 342.31 l -12.913,68.786 c -1.139,5.966 -1.898,12.108 -1.898,18.425 0,-6.668 -0.57,-12.985 -1.71,-18.6 l -13.481,-68.61 h -27.533 z m 106.335,0 h 20.697 v -50.361 h 14.242 c 16.52,0 27.723,-13.512 27.723,-37.727 0,-25.268 -9.874,-35.797 -32.28,-35.797 H 391.11 Z M 411.807,97.143 V 59.241 h 7.406 c 10.444,0 13.482,4.387 13.482,18.249 0,14.389 -2.469,19.653 -12.723,19.653 z m 54.877,-55.801 v 92.124 c 0,22.636 11.393,34.393 31.9,34.393 20.128,0 31.711,-11.932 31.711,-33.866 v -92.65 h -21.077 v 95.984 c 0,7.545 -4.177,11.756 -10.443,11.756 -6.266,0 -11.014,-4.211 -11.014,-11.756 V 41.342 Z M 538.46,59.24 h 21.457 v 105.987 h 20.698 V 59.241 h 21.646 V 41.342 h -63.8 z m 73.106,105.987 h 53.927 v -18.6 h -33.23 v -37.025 h 23.926 V 91.703 H 632.263 V 59.241 h 33.23 V 41.342 h -53.927 z m 90.384,-52.116 h 9.875 l 12.722,52.116 h 21.457 l -15.19,-57.555 c 9.683,-6.318 13.101,-15.793 13.101,-30.533 0,-25.444 -9.874,-35.797 -32.28,-35.797 h -30.382 v 123.885 h 20.698 z m 0,-53.87 h 7.406 c 10.064,0 13.482,4.036 13.482,17.196 0,13.687 -2.658,18.776 -12.722,18.776 h -8.165 z m 52.409,74.576 c 0.95,21.759 14.051,34.218 34.18,34.218 18.418,0 32.09,-12.635 32.09,-30.884 0,-17.196 -8.925,-26.496 -23.166,-39.306 -11.773,-10.528 -20.698,-18.074 -20.698,-29.304 0,-7.02 4.558,-11.406 11.014,-11.406 7.595,0 10.633,4.738 11.393,15.442 l 20.127,-2.632 c -1.519,-19.302 -13.861,-30.708 -30.95,-30.708 -17.47,0 -32.091,13.16 -32.091,31.059 0,16.319 10.633,26.496 25.634,40.359 11.013,10.177 18.609,16.494 18.609,26.847 0,7.195 -5.127,11.932 -12.722,11.932 -8.735,0 -12.913,-5.966 -13.672,-18.424 z"
             id="path1" /></g><path
           d="m 82.28,133.466 c 0,22.636 10.823,34.393 31.71,34.393 20.128,0 31.9,-11.932 31.9,-33.866 v -12.985 h -21.266 v 16.845 c 0,8.598 -3.608,12.985 -10.634,12.985 -7.026,0 -10.634,-4.387 -10.634,-12.985 V 68.716 c 0,-8.598 3.608,-12.81 10.634,-12.81 7.026,0 10.634,4.212 10.634,12.81 v 13.687 h 21.267 V 70.471 c 0,-20.004 -12.343,-31.76 -31.141,-31.76 -20.508,0 -32.47,11.932 -32.47,31.234 z"
           fill-opacity="0.994"
           id="path2" /></g><path
         d="m 616.425,464.014 v -36.066 h 31.744 L 700.664,354.435 648.169,286.6 h -29.576 v -36.067 h 110.719 v 34.071 h -20.596 l 32.055,39.75 29.112,-39.75 H 750.37 v -34.07 h 95.544 V 286.6 h -29.887 l -51.1,70.137 56.365,71.211 h 30.97 v 36.066 H 737.982 V 429.33 h 21.525 l -33.758,-43.74 -32.054,43.74 h 22.143 v 34.685 z m -219.935,0 v -36.066 h 28.803 V 286.6 H 396.49 v -36.067 h 90.279 l 79.439,133.215 V 286.6 H 538.18 v -36.067 h 96.627 V 286.6 H 604.61 v 178.949 h -48.004 l -92.911,-158.23 v 120.63 h 27.099 v 36.065 z m -153.355,0 v -36.066 h 30.196 V 370.242 L 214.952,286.6 H 188.628 V 250.533 H 296.404 V 286.6 H 275.19 l 31.59,52.18 32.054,-52.18 H 316.69 v -36.067 h 94.924 V 286.6 h -26.48 l -55.746,83.642 v 57.706 h 30.04 v 36.066 z m -204.028,0 V 427.948 H 69.922 V 286.6 H 39.107 V 250.533 H 157.413 V 286.6 H 125.98 v 141.348 h 63.644 v -65.993 h 41.964 v 102.06 z"
         fill-opacity="0.994"
         id="path3" /></g><path
       d="M 259.994,164.379 C 234.481,109.652 213.308,64.69 212.943,64.465 212.578,64.239 198.054,94.53 180.669,131.777 L 149.06,199.5 74.53,199.757 0,200.013 v -10 l 70.53,-0.256 70.528,-0.257 35.84,-76.781 35.84,-76.782 46.76,100.282 c 25.72,55.155 46.832,100.372 46.917,100.483 0.085,0.111 5.55,-11.364 12.145,-25.5 L 330.55,185.5 624.775,185.249 919,184.997 v 10 l -290.196,0.252 -290.195,0.251 -7.055,15.018 c -13.639,29.035 -17.335,37.097 -20.523,44.753 -1.769,4.249 -3.539,7.925 -3.933,8.169 -0.394,0.244 -21.591,-44.334 -47.104,-99.061 z M 1075,190 v -5 h 246 v 10 h -246 z m 402,0 v -5 h 15 v 10 h -15 z"
       fill="#fefefe"
       id="path4" /><g
       opacity="0.98"
       id="g6"><path
         d="m 1042.086,33.379 h 102.173 v 102.717 h -102.173 z"
         fill="#fef100"
         id="path5" /><path
         d="m 1042.066,24.213 v 9.3 h 102.288 v 102.3 h -102.3 V 33.549 h -9.3 v 102.288 h 9.312 v 9.276 h 102.276 v -9.276 h 9.312 V 33.549 h -9.282 v -9.336 z m -0.012,9.336 h 0.012 v -0.036 h -0.012 z"
         fill="#ffffff"
         id="path6" /></g><g
       opacity="0.98"
       id="g8"><path
         d="m 946.59,182.004 v 102.3 h 102.3 v -102.3 z"
         fill="#ec1b23"
         id="path7" /><path
         d="m 946.602,172.704 v 9.3 h 102.288 v 102.3 H 946.59 V 182.04 h -9.3 v 102.288 h 9.312 v 9.276 h 102.276 v -9.276 h 9.312 V 182.04 h -9.282 v -9.336 z m -0.012,9.336 h 0.012 v -0.036 h -0.012 z"
         fill="#ffffff"
         id="path8" /></g><g
       opacity="0.98"
       id="g10"><path
         d="m 1203.987,12.963 v 102.3 h 102.3 v -102.3 z"
         fill="#fe7e26"
         id="path9" /><path
         d="m 1203.999,3.663 v 9.3 h 102.288 v 102.3 h -102.3 V 13 h -9.3 v 102.288 h 9.312 v 9.276 h 102.276 v -9.276 h 9.312 V 13 h -9.276 V 3.663 Z m -0.013,9.336 h 0.013 v -0.036 h -0.013 z"
         fill="#ffffff"
         id="path10" /></g><g
       opacity="0.98"
       id="g12"><path
         d="m 1346.714,116.68 v 102.294 h 102.3 V 116.68 Z"
         fill="#21b04b"
         id="path11" /><path
         d="m 1346.726,107.374 v 9.306 h 102.288 v 102.294 h -102.3 V 116.716 h -9.3 v 102.282 h 9.312 v 9.282 h 102.276 v -9.282 h 9.312 V 116.716 h -9.282 v -9.342 z m -0.012,9.342 h 0.012 v -0.036 h -0.012 z"
         fill="#ffffff"
         id="path12" /></g><g
       opacity="0.98"
       id="g14"><path
         d="m 1089.99,252.36 v 221.43 h 220.65 V 252.36 Z"
         fill="#3e47ca"
         id="path13" /><path
         d="m 1090.044,243.041 v 9.318 h 220.542 v -9.318 z m 229.878,9.367 h -9.282 v 221.347 h 9.282 z m -9.336,230.702 v -9.319 h -220.542 v 9.319 z m -229.885,-9.355 h 9.288 V 252.408 h -9.288 z m 9.288,-221.347 h 0.055 v -0.049 h -0.055 z m 0,221.347 v 0.036 h 0.055 v -0.036 z m 220.597,0.036 h 0.054 v -0.036 h -0.054 z m 0.054,-221.383 v -0.049 h -0.054 v 0.049 z"
         fill="#ffffff"
         id="path14-0" /></g></g></svg>
