<?xml version="1.0" encoding="UTF-8" standalone="no"?>
<svg
   enable-background="new 0 0 1258.437 856.457"
   height="743.89191"
   viewBox="0 0 1170 743.89193"
   width="1170"
   version="1.1"
   id="svg128"
   sodipodi:docname="cdi.svg"
   inkscape:version="1.4.2 (f4327f4, 2025-05-13)"
   xmlns:inkscape="http://www.inkscape.org/namespaces/inkscape"
   xmlns:sodipodi="http://sodipodi.sourceforge.net/DTD/sodipodi-0.dtd"
   xmlns="http://www.w3.org/2000/svg"
   xmlns:svg="http://www.w3.org/2000/svg">
  <defs
     id="defs128" />
  <sodipodi:namedview
     id="namedview128"
     pagecolor="#ffffff"
     bordercolor="#000000"
     borderopacity="0.25"
     inkscape:showpageshadow="2"
     inkscape:pageopacity="0.0"
     inkscape:pagecheckerboard="0"
     inkscape:deskcolor="#d1d1d1"
     inkscape:zoom="0.50759832"
     inkscape:cx="423.56326"
     inkscape:cy="460.0094"
     inkscape:window-width="1920"
     inkscape:window-height="1009"
     inkscape:window-x="-8"
     inkscape:window-y="-8"
     inkscape:window-maximized="1"
     inkscape:current-layer="svg128" />
  <g
     transform="translate(-42.378,-62.638)"
     id="g95">
    <path
       d="m 1200.378,797.221 c 0,0.782 -0.635,1.417 -1.417,1.417 h -191.166 c -0.782,0 -1.417,-0.635 -1.417,-1.417 V 606.055 c 0,-0.782 0.635,-1.417 1.417,-1.417 h 191.166 c 0.782,0 1.417,0.635 1.417,1.417 z"
       fill="#61615b"
       stroke="#000000"
       stroke-miterlimit="10"
       stroke-width="2"
       id="path1" />
    <path
       d="m 1200.378,256.221 c 0,0.782 -0.635,1.417 -1.417,1.417 h -191.166 c -0.782,0 -1.417,-0.635 -1.417,-1.417 V 65.055 c 0,-0.782 0.635,-1.417 1.417,-1.417 h 191.166 c 0.782,0 1.417,0.635 1.417,1.417 z"
       fill="#61615b"
       stroke="#000000"
       stroke-miterlimit="10"
       stroke-width="2"
       id="path2" />
    <path
       d="m 237.378,797.221 c 0,0.782 -0.635,1.417 -1.417,1.417 H 44.795 c -0.782,0 -1.417,-0.635 -1.417,-1.417 V 606.055 c 0,-0.782 0.635,-1.417 1.417,-1.417 h 191.166 c 0.782,0 1.417,0.635 1.417,1.417 z"
       fill="#61615b"
       stroke="#000000"
       stroke-miterlimit="10"
       stroke-width="2"
       id="path3" />
    <path
       d="m 237.378,256.221 c 0,0.782 -0.635,1.417 -1.417,1.417 H 44.795 c -0.782,0 -1.417,-0.635 -1.417,-1.417 V 65.055 c 0,-0.782 0.635,-1.417 1.417,-1.417 h 191.166 c 0.782,0 1.417,0.635 1.417,1.417 z"
       fill="#61615b"
       stroke="#000000"
       stroke-miterlimit="10"
       stroke-width="2"
       id="path4" />
    <path
       d="m 1188.378,783.694 c 0,0.781 -0.635,1.416 -1.417,1.416 H 56.963 c -0.783,0 -1.417,-0.635 -1.417,-1.416 V 78.195 c 0,-0.783 0.635,-1.417 1.417,-1.417 h 1129.999 c 0.782,0 1.417,0.635 1.417,1.417 v 705.499 z"
       fill="#61615b"
       stroke="#000000"
       stroke-miterlimit="10"
       stroke-width="4"
       id="path5" />
    <path
       d="m 1188.378,783.694 c 0,0.781 -0.635,1.416 -1.417,1.416 H 56.963 c -0.783,0 -1.417,-0.635 -1.417,-1.416 V 78.195 c 0,-0.783 0.635,-1.417 1.417,-1.417 h 1129.999 c 0.782,0 1.417,0.635 1.417,1.417 v 705.499 z"
       fill="#61615b"
       id="path6" />
    <path
       d="M 134.37801,149.22099 H 1108.378 V 717.88798 H 134.37801 Z"
       id="path7" />
    <path
       d="m 104.878,433.555 c 0,157.032 13.208,284.333 29.5,284.333 H 549.877 V 149.221 H 134.378 c -16.292,0 -29.5,127.3 -29.5,284.334 z"
       fill="#6b6d65"
       stroke="#000000"
       stroke-miterlimit="10"
       stroke-width="6"
       id="path8" />
    <path
       d="M 1108.378,149.221 H 555.211 v 568.667 h 553.167 c 16.293,0 29.5,-127.301 29.5,-284.333 0,-157.034 -13.207,-284.334 -29.5,-284.334 z"
       fill="#6b6d65"
       stroke="#000000"
       stroke-miterlimit="10"
       stroke-width="6"
       id="path9" />
    <path
       d="m 104.878,433.555 c 0,157.032 13.208,284.333 29.5,284.333 H 549.877 V 149.221 H 134.378 c -16.292,0 -29.5,127.3 -29.5,284.334 z"
       fill="#6b6d65"
       id="path10" />
    <path
       d="M 1108.378,149.221 H 555.211 v 568.667 h 553.167 c 16.293,0 29.5,-127.301 29.5,-284.333 0,-157.034 -13.207,-284.334 -29.5,-284.334 z"
       fill="#6b6d65"
       id="path11" />
    <circle
       cx="196.545"
       cy="402.55499"
       r="3.8329999"
       id="circle11" />
    <circle
       cx="196.545"
       cy="435.05499"
       r="3.8329999"
       id="circle12" />
    <circle
       cx="196.545"
       cy="467.55499"
       r="3.8329999"
       id="circle13" />
    <path
       d="m 413.37799,646.138 h 128 v 5 h -128 z"
       fill="#494944"
       id="path13" />
    <path
       d="m 413.37799,599.138 h 128 v 5 h -128 z"
       fill="#494944"
       id="path14" />
    <path
       d="m 412.37799,552.138 h 128 v 5 h -128 z"
       fill="#494944"
       id="path15" />
    <path
       d="m 411.37799,505.138 h 128 v 5 h -128 z"
       fill="#494944"
       id="path16" />
    <path
       d="m 411.37799,457.138 h 128 v 5 h -128 z"
       fill="#494944"
       id="path17" />
    <path
       d="m 411.37799,409.138 h 128 v 5 h -128 z"
       fill="#494944"
       id="path18" />
    <path
       d="m 412.37799,360.138 h 128 v 5 h -128 z"
       fill="#494944"
       id="path19" />
    <path
       d="m 412.37799,312.138 h 128 v 5 h -128 z"
       fill="#494944"
       id="path20" />
    <path
       d="m 412.37799,265.138 h 128 v 5 h -128 z"
       fill="#494944"
       id="path21" />
    <path
       d="m 413.37799,218.138 h 128 v 5 h -128 z"
       fill="#494944"
       id="path22" />
    <path
       d="m 411.37799,644.138 h 128 v 5 h -128 z"
       id="path23" />
    <path
       d="m 411.37799,597.138 h 128 v 5 h -128 z"
       id="path24" />
    <path
       d="m 410.37799,550.138 h 128 v 5 h -128 z"
       id="path25" />
    <path
       d="m 409.37799,503.138 h 128 v 5 h -128 z"
       id="path26" />
    <path
       d="m 409.37799,455.138 h 128 v 5 h -128 z"
       id="path27" />
    <path
       d="m 409.37799,407.138 h 128 v 5 h -128 z"
       id="path28" />
    <path
       d="m 410.37799,358.138 h 128 v 5 h -128 z"
       id="path29" />
    <path
       d="m 410.37799,310.138 h 128 v 5 h -128 z"
       id="path30" />
    <path
       d="m 410.37799,263.138 h 128 v 5 h -128 z"
       id="path31" />
    <path
       d="m 411.37799,216.138 h 128 v 5 h -128 z"
       id="path32" />
    <path
       d="m 925.212,437.138 h 213.999 v -4 H 925.212 V 411.221 H 771.545 v 21.917 H 555.378 v 4 h 216.167 v 23.25 h 153.667 z"
       fill="#83847b"
       id="path33" />
    <circle
       cx="776.50299"
       cy="702.513"
       fill="#83847b"
       r="2.125"
       id="circle33" />
    <circle
       cx="807.50299"
       cy="702.513"
       fill="#83847b"
       r="2.125"
       id="circle34" />
    <circle
       cx="838.50299"
       cy="702.513"
       fill="#83847b"
       r="2.125"
       id="circle35" />
    <circle
       cx="869.50299"
       cy="702.513"
       fill="#83847b"
       r="2.125"
       id="circle36" />
    <circle
       cx="900.50299"
       cy="702.513"
       fill="#83847b"
       r="2.125"
       id="circle37" />
    <path
       d="m 831.04498,732.05499 h 8.334 v 53.056 h -8.334 z"
       fill="#6b6d65"
       id="path37" />
    <path
       d="m 831.04498,732.05499 h 8.334 v 13.345 h -8.334 z"
       fill="#494944"
       id="path38" />
    <path
       d="m 816.408,447.397 c -0.273,0.052 -0.426,0.104 -0.577,0.104 -1.967,0.006 -3.933,0.004 -6.009,0.004 0,-7.618 0,-15.171 0,-22.797 h 6.532 v 8.909 h 6.802 c 0,-2.943 0,-5.864 0,-8.881 h 6.62 v 22.675 c -2.162,0 -4.301,0 -6.563,0 0,-2.936 0,-5.849 0,-8.838 -2.308,0 -4.49,0 -6.805,0 z"
       style="clip-rule:evenodd;fill:#f7f8f5;fill-rule:evenodd;stroke:#000000;stroke-width:2;stroke-miterlimit:10"
       id="path39" />
    <path
       d="m 879.555,442.001 v 5.419 c -2.241,0 -4.382,0 -6.594,0 0,-7.568 0,-15.098 0,-22.765 4.318,-0.397 8.625,-0.989 12.914,0.07 3.743,0.924 5.663,3.295 6.021,7.177 0.374,4.074 -1.378,7.583 -4.741,9.039 -1.341,0.58 -2.845,0.807 -4.298,1.029 -1.016,0.156 -2.071,0.031 -3.302,0.031 z m 0.084,-4.07 c 2.063,-0.055 4.029,-0.053 5.063,-2.135 0.916,-1.843 1.039,-3.852 -0.146,-5.607 -1.186,-1.756 -3.042,-1.709 -4.917,-1.554 z"
       style="clip-rule:evenodd;fill:#f7f8f5;fill-rule:evenodd;stroke:#000000;stroke-width:2;stroke-miterlimit:10"
       id="path40" />
    <path
       d="m 788.308,424.627 c 4.098,-0.315 8.131,-0.9 12.17,-0.041 4.565,0.971 6.775,3.72 6.743,8.337 -0.03,4.584 -2.631,7.96 -6.936,8.772 -1.719,0.324 -3.495,0.314 -5.404,0.471 v 5.251 c -2.259,0 -4.364,0 -6.573,0 0,-7.522 0,-15.078 0,-22.79 z m 6.61,13.085 c 1.802,0.498 3.872,-0.127 4.819,-1.435 1.029,-1.422 1.175,-4.345 0.291,-5.861 -0.873,-1.495 -2.803,-2.146 -5.11,-1.682 z"
       style="clip-rule:evenodd;fill:#f7f8f5;fill-rule:evenodd;stroke:#000000;stroke-width:2;stroke-miterlimit:10"
       id="path41" />
    <path
       d="m 909.368,429.636 c -1.689,-0.307 -3.218,-0.646 -4.763,-0.839 -0.822,-0.103 -1.72,-0.111 -2.496,0.135 -0.598,0.189 -1.287,0.736 -1.528,1.31 -0.354,0.84 0.283,1.515 0.994,1.906 0.741,0.406 1.535,0.711 2.309,1.051 1.253,0.553 2.553,1.012 3.756,1.664 2.093,1.137 3.204,2.952 3.188,5.484 -0.017,2.688 -0.905,4.979 -3.302,6.082 -1.758,0.81 -3.748,1.393 -5.652,1.448 -2.369,0.071 -4.763,-0.469 -7.132,-0.846 -0.348,-0.057 -0.796,-0.633 -0.882,-1.04 -0.29,-1.378 -0.437,-2.789 -0.643,-4.224 1.878,0.477 3.663,1.076 5.494,1.348 1.319,0.193 2.721,0.081 4.042,-0.161 0.494,-0.09 1.16,-0.896 1.211,-1.433 0.059,-0.609 -0.333,-1.463 -0.799,-1.882 -0.61,-0.553 -1.475,-0.81 -2.25,-1.147 -0.85,-0.37 -1.736,-0.65 -2.58,-1.034 -3.505,-1.591 -4.891,-3.973 -4.44,-7.568 0.353,-2.824 2.724,-5.156 6.12,-5.435 2.653,-0.218 5.351,0.085 8.022,0.243 0.316,0.02 0.804,0.554 0.867,0.917 0.234,1.308 0.318,2.646 0.464,4.021 z"
       style="clip-rule:evenodd;fill:#f7f8f5;fill-rule:evenodd;stroke:#000000;stroke-width:2;stroke-miterlimit:10"
       id="path42" />
    <path
       d="m 852.696,442.816 h 6.352 c -0.338,1.618 -0.641,3.073 -0.961,4.607 -3.946,0 -7.863,0 -11.879,0 0,-7.533 0,-15.085 0,-22.711 h 6.488 z"
       style="clip-rule:evenodd;fill:#f7f8f5;fill-rule:evenodd;stroke:#000000;stroke-width:2;stroke-miterlimit:10"
       id="path43" />
    <path
       d="m 861.391,424.708 h 6.564 v 22.724 c -2.21,0 -4.353,0 -6.564,0 0,-7.595 0,-15.121 0,-22.724 z"
       style="clip-rule:evenodd;fill:#f7f8f5;fill-rule:evenodd;stroke:#000000;stroke-width:2;stroke-miterlimit:10"
       id="path44" />
    <path
       d="m 834.713,424.694 h 6.483 v 22.709 c -2.109,0 -4.249,0 -6.483,0 0,-7.54 0,-15.094 0,-22.709 z"
       style="clip-rule:evenodd;fill:#f7f8f5;fill-rule:evenodd;stroke:#000000;stroke-width:2;stroke-miterlimit:10"
       id="path45" />
    <path
       clip-rule="evenodd"
       d="m 816.408,447.397 c -0.273,0.052 -0.426,0.104 -0.577,0.104 -1.967,0.006 -3.933,0.004 -6.009,0.004 0,-7.618 0,-15.171 0,-22.797 h 6.532 v 8.909 h 6.802 c 0,-2.943 0,-5.864 0,-8.881 h 6.62 v 22.675 c -2.162,0 -4.301,0 -6.563,0 0,-2.936 0,-5.849 0,-8.838 -2.308,0 -4.49,0 -6.805,0 z"
       fill="#f7f8f5"
       fill-rule="evenodd"
       id="path46" />
    <path
       clip-rule="evenodd"
       d="m 879.555,442.001 v 5.419 c -2.241,0 -4.382,0 -6.594,0 0,-7.568 0,-15.098 0,-22.765 4.318,-0.397 8.625,-0.989 12.914,0.07 3.743,0.924 5.663,3.295 6.021,7.177 0.374,4.074 -1.378,7.583 -4.741,9.039 -1.341,0.58 -2.845,0.807 -4.298,1.029 -1.016,0.156 -2.071,0.031 -3.302,0.031 z m 0.084,-4.07 c 2.063,-0.055 4.029,-0.053 5.063,-2.135 0.916,-1.843 1.039,-3.852 -0.146,-5.607 -1.186,-1.756 -3.042,-1.709 -4.917,-1.554 z"
       fill="#f7f8f5"
       fill-rule="evenodd"
       id="path47" />
    <path
       clip-rule="evenodd"
       d="m 788.308,424.627 c 4.098,-0.315 8.131,-0.9 12.17,-0.041 4.565,0.971 6.775,3.72 6.743,8.337 -0.03,4.584 -2.631,7.96 -6.936,8.772 -1.719,0.324 -3.495,0.314 -5.404,0.471 v 5.251 c -2.259,0 -4.364,0 -6.573,0 0,-7.522 0,-15.078 0,-22.79 z m 6.61,13.085 c 1.802,0.498 3.872,-0.127 4.819,-1.435 1.029,-1.422 1.175,-4.345 0.291,-5.861 -0.873,-1.495 -2.803,-2.146 -5.11,-1.682 z"
       fill="#f7f8f5"
       fill-rule="evenodd"
       id="path48" />
    <path
       clip-rule="evenodd"
       d="m 909.368,429.636 c -1.689,-0.307 -3.218,-0.646 -4.763,-0.839 -0.822,-0.103 -1.72,-0.111 -2.496,0.135 -0.598,0.189 -1.287,0.736 -1.528,1.31 -0.354,0.84 0.283,1.515 0.994,1.906 0.741,0.406 1.535,0.711 2.309,1.051 1.253,0.553 2.553,1.012 3.756,1.664 2.093,1.137 3.204,2.952 3.188,5.484 -0.017,2.688 -0.905,4.979 -3.302,6.082 -1.758,0.81 -3.748,1.393 -5.652,1.448 -2.369,0.071 -4.763,-0.469 -7.132,-0.846 -0.348,-0.057 -0.796,-0.633 -0.882,-1.04 -0.29,-1.378 -0.437,-2.789 -0.643,-4.224 1.878,0.477 3.663,1.076 5.494,1.348 1.319,0.193 2.721,0.081 4.042,-0.161 0.494,-0.09 1.16,-0.896 1.211,-1.433 0.059,-0.609 -0.333,-1.463 -0.799,-1.882 -0.61,-0.553 -1.475,-0.81 -2.25,-1.147 -0.85,-0.37 -1.736,-0.65 -2.58,-1.034 -3.505,-1.591 -4.891,-3.973 -4.44,-7.568 0.353,-2.824 2.724,-5.156 6.12,-5.435 2.653,-0.218 5.351,0.085 8.022,0.243 0.316,0.02 0.804,0.554 0.867,0.917 0.234,1.308 0.318,2.646 0.464,4.021 z"
       fill="#f7f8f5"
       fill-rule="evenodd"
       id="path49" />
    <path
       clip-rule="evenodd"
       d="m 852.696,442.816 h 6.352 c -0.338,1.618 -0.641,3.073 -0.961,4.607 -3.946,0 -7.863,0 -11.879,0 0,-7.533 0,-15.085 0,-22.711 h 6.488 z"
       fill="#f7f8f5"
       fill-rule="evenodd"
       id="path50" />
    <path
       clip-rule="evenodd"
       d="m 861.391,424.708 h 6.564 v 22.724 c -2.21,0 -4.353,0 -6.564,0 0,-7.595 0,-15.121 0,-22.724 z"
       fill="#f7f8f5"
       fill-rule="evenodd"
       id="path51" />
    <path
       clip-rule="evenodd"
       d="m 834.713,424.694 h 6.483 v 22.709 c -2.109,0 -4.249,0 -6.483,0 0,-7.54 0,-15.094 0,-22.709 z"
       fill="#f7f8f5"
       fill-rule="evenodd"
       id="path52" />
    <path
       d="m 174.872,587.059 c -0.665,0.286 -2.162,0.593 -4.11,0.593 -5.536,0 -8.387,-2.962 -8.387,-6.885 0,-4.699 3.896,-7.314 8.743,-7.314 1.877,0 3.303,0.326 3.944,0.612 l -0.736,2.473 c -0.736,-0.266 -1.758,-0.511 -3.041,-0.511 -2.875,0 -5.108,1.491 -5.108,4.556 0,2.759 1.9,4.495 5.132,4.495 1.093,0 2.304,-0.204 3.017,-0.449 z"
       id="path53" />
    <path
       d="m 177.25,573.86 c 1.331,-0.184 3.065,-0.286 4.895,-0.286 3.041,0 5.013,0.47 6.557,1.471 1.663,1.063 2.708,2.759 2.708,5.19 0,2.635 -1.116,4.454 -2.661,5.577 -1.687,1.206 -4.253,1.777 -7.389,1.777 -1.877,0 -3.208,-0.102 -4.11,-0.204 z m 3.636,11.238 c 0.309,0.062 0.808,0.062 1.259,0.062 3.278,0.021 5.417,-1.532 5.417,-4.822 0.024,-2.86 -1.924,-4.372 -5.037,-4.372 -0.808,0 -1.331,0.062 -1.639,0.122 z"
       id="path54" />
    <path
       d="m 197.425,573.677 v 13.771 h -3.635 v -13.771 z"
       id="path55" />
    <path
       d="m 211.183,587.447 v -3.167 h -6.842 v -2.022 l 5.845,-8.091 h 4.419 v 7.784 h 1.853 v 2.329 h -1.853 v 3.167 z m 0,-5.496 v -2.942 c 0,-0.797 0.047,-1.614 0.119,-2.472 h -0.095 c -0.499,0.857 -0.903,1.634 -1.426,2.472 l -2.067,2.901 v 0.041 z"
       id="path56" />
    <path
       d="m 228.292,576.721 h -5.987 l -0.333,2.043 c 0.333,-0.041 0.618,-0.041 0.998,-0.041 1.473,0 2.97,0.286 4.063,0.961 1.164,0.674 1.876,1.777 1.876,3.33 0,2.472 -2.471,4.658 -6.628,4.658 -1.877,0 -3.445,-0.367 -4.3,-0.756 l 0.641,-2.329 c 0.689,0.286 2.091,0.653 3.493,0.653 1.497,0 3.088,-0.612 3.088,-2.022 0,-1.369 -1.259,-2.206 -4.348,-2.206 -0.855,0 -1.449,0.04 -2.091,0.122 l 1.021,-6.967 h 8.505 v 2.554 z"
       id="path57" />
    <path
       d="m 242.573,580.746 c 0,4.106 -1.925,6.926 -5.869,6.926 -3.991,0 -5.749,-3.085 -5.773,-6.845 0,-3.841 1.901,-6.885 5.892,-6.885 4.135,0 5.75,3.167 5.75,6.804 z m -8.007,0.081 c -0.023,3.045 0.832,4.495 2.233,4.495 1.401,0 2.162,-1.512 2.162,-4.536 0,-2.941 -0.737,-4.494 -2.186,-4.494 -1.329,0 -2.232,1.45 -2.209,4.535 z"
       id="path58" />
    <g
       fill="#ffffff"
       id="g78">
      <path
         d="m 167.594,599.958 c -0.295,0.152 -0.886,0.306 -1.644,0.306 -1.754,0 -3.074,-1.146 -3.074,-3.258 0,-2.015 1.32,-3.381 3.25,-3.381 0.775,0 1.265,0.172 1.477,0.286 l -0.194,0.679 c -0.305,-0.153 -0.739,-0.268 -1.256,-0.268 -1.458,0 -2.428,0.965 -2.428,2.655 0,1.576 0.877,2.589 2.391,2.589 0.489,0 0.988,-0.105 1.311,-0.268 z"
         id="path59" />
      <path
         d="m 168.597,593.815 c 0.489,-0.076 1.071,-0.133 1.708,-0.133 1.154,0 1.975,0.276 2.52,0.802 0.554,0.525 0.877,1.271 0.877,2.312 0,1.051 -0.314,1.91 -0.896,2.503 -0.582,0.602 -1.542,0.927 -2.751,0.927 -0.572,0 -1.052,-0.029 -1.458,-0.077 z m 0.803,5.694 c 0.203,0.038 0.499,0.048 0.812,0.048 1.717,0 2.65,-0.993 2.65,-2.731 0.009,-1.52 -0.822,-2.484 -2.521,-2.484 -0.416,0 -0.729,0.039 -0.941,0.086 z"
         id="path60" />
      <path
         d="m 176.727,597.273 v 0.621 h -2.28 v -0.621 z"
         id="path61" />
      <path
         d="m 178.507,593.729 v 6.438 h -0.803 v -6.438 z"
         id="path62" />
      <path
         d="m 179.973,596.796 c 0,-0.478 -0.009,-0.869 -0.037,-1.251 h 0.72 l 0.046,0.764 h 0.019 c 0.221,-0.439 0.738,-0.869 1.477,-0.869 0.618,0 1.579,0.383 1.579,1.968 v 2.761 h -0.813 v -2.665 c 0,-0.745 -0.268,-1.366 -1.034,-1.366 -0.535,0 -0.951,0.392 -1.089,0.86 -0.037,0.104 -0.055,0.248 -0.055,0.392 v 2.779 h -0.813 z"
         id="path63" />
      <path
         d="m 186.036,594.217 v 1.328 h 1.163 v 0.64 h -1.163 v 2.493 c 0,0.573 0.157,0.898 0.609,0.898 0.212,0 0.369,-0.029 0.471,-0.058 l 0.037,0.63 c -0.157,0.067 -0.406,0.115 -0.72,0.115 -0.378,0 -0.683,-0.124 -0.877,-0.354 -0.231,-0.248 -0.314,-0.659 -0.314,-1.204 v -2.521 h -0.692 v -0.64 h 0.692 v -1.108 z"
         id="path64" />
      <path
         d="m 188.508,598.009 c 0.018,1.137 0.72,1.605 1.532,1.605 0.582,0 0.933,-0.105 1.237,-0.239 l 0.139,0.602 c -0.286,0.134 -0.775,0.287 -1.486,0.287 -1.375,0 -2.197,-0.937 -2.197,-2.331 0,-1.394 0.794,-2.493 2.096,-2.493 1.458,0 1.846,1.328 1.846,2.178 0,0.172 -0.018,0.306 -0.027,0.392 h -3.14 z m 2.382,-0.602 c 0.009,-0.535 -0.212,-1.365 -1.126,-1.365 -0.822,0 -1.182,0.783 -1.247,1.365 z"
         id="path65" />
      <path
         d="m 192.678,596.987 c 0,-0.545 -0.009,-1.013 -0.037,-1.442 h 0.71 l 0.028,0.907 h 0.037 c 0.203,-0.621 0.692,-1.013 1.237,-1.013 0.092,0 0.157,0.01 0.231,0.029 v 0.792 c -0.083,-0.019 -0.167,-0.028 -0.277,-0.028 -0.573,0 -0.979,0.449 -1.089,1.079 -0.019,0.115 -0.037,0.249 -0.037,0.392 v 2.465 h -0.803 z"
         id="path66" />
      <path
         d="m 198.124,600.168 -0.064,-0.583 h -0.028 c -0.25,0.363 -0.729,0.688 -1.366,0.688 -0.905,0 -1.366,-0.659 -1.366,-1.328 0,-1.117 0.96,-1.729 2.686,-1.72 v -0.095 c 0,-0.383 -0.102,-1.07 -1.015,-1.07 -0.416,0 -0.85,0.134 -1.163,0.344 l -0.185,-0.554 c 0.37,-0.248 0.905,-0.411 1.468,-0.411 1.366,0 1.698,0.965 1.698,1.892 v 1.729 c 0,0.401 0.019,0.793 0.074,1.108 z m -0.121,-2.359 c -0.886,-0.02 -1.893,0.144 -1.893,1.041 0,0.545 0.351,0.803 0.767,0.803 0.582,0 0.951,-0.382 1.08,-0.773 0.027,-0.087 0.046,-0.182 0.046,-0.268 z"
         id="path67" />
      <path
         d="m 203.282,599.996 c -0.212,0.114 -0.683,0.268 -1.283,0.268 -1.348,0 -2.225,-0.946 -2.225,-2.359 0,-1.424 0.942,-2.455 2.4,-2.455 0.48,0 0.905,0.124 1.126,0.239 l -0.185,0.649 c -0.194,-0.115 -0.499,-0.22 -0.942,-0.22 -1.025,0 -1.579,0.783 -1.579,1.748 0,1.069 0.665,1.729 1.551,1.729 0.462,0 0.767,-0.124 0.997,-0.229 z"
         id="path68" />
      <path
         d="m 205.329,594.217 v 1.328 h 1.163 v 0.64 h -1.163 v 2.493 c 0,0.573 0.157,0.898 0.609,0.898 0.212,0 0.369,-0.029 0.471,-0.058 l 0.037,0.63 c -0.157,0.067 -0.406,0.115 -0.72,0.115 -0.378,0 -0.683,-0.124 -0.877,-0.354 -0.231,-0.248 -0.314,-0.659 -0.314,-1.204 v -2.521 h -0.692 v -0.64 h 0.692 v -1.108 z"
         id="path69" />
      <path
         d="m 208.309,594.246 c 0.009,0.286 -0.194,0.516 -0.517,0.516 -0.286,0 -0.489,-0.229 -0.489,-0.516 0,-0.297 0.212,-0.525 0.508,-0.525 0.304,0 0.498,0.228 0.498,0.525 z m -0.905,5.922 v -4.623 h 0.813 v 4.623 z"
         id="path70" />
      <path
         d="m 209.877,595.545 0.877,2.598 c 0.148,0.421 0.268,0.803 0.36,1.185 h 0.028 c 0.102,-0.382 0.231,-0.764 0.378,-1.185 l 0.868,-2.598 h 0.85 l -1.754,4.623 h -0.775 l -1.699,-4.623 z"
         id="path71" />
      <path
         d="m 214.362,598.009 c 0.018,1.137 0.72,1.605 1.532,1.605 0.582,0 0.933,-0.105 1.237,-0.239 l 0.139,0.602 c -0.286,0.134 -0.775,0.287 -1.486,0.287 -1.375,0 -2.197,-0.937 -2.197,-2.331 0,-1.394 0.794,-2.493 2.096,-2.493 1.458,0 1.846,1.328 1.846,2.178 0,0.172 -0.018,0.306 -0.027,0.392 h -3.14 z m 2.381,-0.602 c 0.009,-0.535 -0.212,-1.365 -1.126,-1.365 -0.822,0 -1.182,0.783 -1.247,1.365 z"
         id="path72" />
      <path
         d="m 220.488,597.054 c 0,-0.592 -0.019,-1.069 -0.037,-1.509 h 0.729 l 0.037,0.793 h 0.019 c 0.332,-0.563 0.858,-0.898 1.587,-0.898 1.08,0 1.893,0.946 1.893,2.35 0,1.662 -0.979,2.484 -2.031,2.484 -0.591,0 -1.108,-0.268 -1.375,-0.727 h -0.019 v 2.513 h -0.803 z m 0.803,1.232 c 0,0.124 0.019,0.239 0.037,0.344 0.147,0.583 0.637,0.984 1.218,0.984 0.859,0 1.357,-0.727 1.357,-1.786 0,-0.927 -0.471,-1.72 -1.329,-1.72 -0.554,0 -1.071,0.411 -1.228,1.041 -0.027,0.105 -0.055,0.229 -0.055,0.344 z"
         id="path73" />
      <path
         d="m 225.738,593.386 h 0.813 v 6.782 h -0.813 z"
         id="path74" />
      <path
         d="m 230.389,600.168 -0.064,-0.583 h -0.028 c -0.25,0.363 -0.729,0.688 -1.366,0.688 -0.905,0 -1.366,-0.659 -1.366,-1.328 0,-1.117 0.96,-1.729 2.686,-1.72 v -0.095 c 0,-0.383 -0.102,-1.07 -1.015,-1.07 -0.416,0 -0.85,0.134 -1.163,0.344 l -0.185,-0.554 c 0.37,-0.248 0.905,-0.411 1.468,-0.411 1.366,0 1.698,0.965 1.698,1.892 v 1.729 c 0,0.401 0.019,0.793 0.074,1.108 z m -0.12,-2.359 c -0.886,-0.02 -1.893,0.144 -1.893,1.041 0,0.545 0.351,0.803 0.767,0.803 0.582,0 0.951,-0.382 1.08,-0.773 0.027,-0.087 0.046,-0.182 0.046,-0.268 z"
         id="path75" />
      <path
         d="m 232.584,595.545 0.979,2.731 c 0.102,0.306 0.212,0.669 0.286,0.946 h 0.019 c 0.083,-0.277 0.175,-0.631 0.286,-0.965 l 0.886,-2.713 h 0.858 l -1.218,3.295 c -0.582,1.586 -0.979,2.397 -1.533,2.895 -0.397,0.363 -0.794,0.507 -0.997,0.545 l -0.203,-0.707 c 0.203,-0.067 0.471,-0.201 0.71,-0.411 0.222,-0.182 0.499,-0.506 0.683,-0.936 0.037,-0.086 0.065,-0.153 0.065,-0.201 0,-0.048 -0.019,-0.114 -0.056,-0.22 l -1.652,-4.26 h 0.887 z"
         id="path76" />
      <path
         d="m 236.995,598.009 c 0.018,1.137 0.72,1.605 1.532,1.605 0.582,0 0.933,-0.105 1.237,-0.239 l 0.139,0.602 c -0.286,0.134 -0.775,0.287 -1.486,0.287 -1.375,0 -2.197,-0.937 -2.197,-2.331 0,-1.394 0.794,-2.493 2.096,-2.493 1.458,0 1.846,1.328 1.846,2.178 0,0.172 -0.018,0.306 -0.027,0.392 h -3.14 z m 2.381,-0.602 c 0.009,-0.535 -0.212,-1.365 -1.126,-1.365 -0.822,0 -1.182,0.783 -1.247,1.365 z"
         id="path77" />
      <path
         d="m 241.165,596.987 c 0,-0.545 -0.009,-1.013 -0.037,-1.442 h 0.71 l 0.028,0.907 h 0.037 c 0.203,-0.621 0.692,-1.013 1.237,-1.013 0.092,0 0.157,0.01 0.231,0.029 v 0.792 c -0.083,-0.019 -0.167,-0.028 -0.277,-0.028 -0.573,0 -0.979,0.449 -1.089,1.079 -0.019,0.115 -0.037,0.249 -0.037,0.392 v 2.465 h -0.803 z"
         id="path78" />
    </g>
    <path
       d="m 174.241,634.583 c -0.47,0.205 -1.409,0.409 -2.613,0.409 -2.789,0 -4.888,-1.533 -4.888,-4.355 0,-2.694 2.099,-4.521 5.167,-4.521 1.233,0 2.011,0.23 2.349,0.384 l -0.308,0.906 c -0.484,-0.204 -1.174,-0.357 -1.997,-0.357 -2.319,0 -3.86,1.29 -3.86,3.551 0,2.107 1.395,3.461 3.802,3.461 0.778,0 1.571,-0.141 2.084,-0.357 z"
       id="path79" />
    <path
       d="m 175.839,626.371 c 0.778,-0.103 1.703,-0.179 2.715,-0.179 1.835,0 3.142,0.37 4.007,1.073 0.881,0.702 1.395,1.698 1.395,3.09 0,1.405 -0.499,2.555 -1.424,3.347 -0.925,0.805 -2.451,1.238 -4.374,1.238 -0.91,0 -1.674,-0.038 -2.319,-0.102 z m 1.277,7.612 c 0.323,0.051 0.793,0.063 1.292,0.063 2.73,0 4.213,-1.328 4.213,-3.652 0.015,-2.031 -1.307,-3.321 -4.007,-3.321 -0.661,0 -1.16,0.052 -1.498,0.115 z"
       id="path80" />
    <path
       d="m 191.676,630.994 v 0.83 h -3.625 v -0.83 z"
       id="path81" />
    <path
       d="m 197.943,632.156 -1.028,2.708 h -1.321 l 3.361,-8.608 h 1.541 l 3.376,8.608 h -1.365 l -1.057,-2.708 z m 3.244,-0.868 -0.969,-2.478 c -0.22,-0.562 -0.367,-1.073 -0.514,-1.571 h -0.029 c -0.147,0.511 -0.308,1.035 -0.499,1.559 l -0.969,2.49 z"
       id="path82" />
    <path
       d="m 211.05,633.179 c 0,0.639 0.015,1.2 0.059,1.686 h -1.145 l -0.073,-1.009 h -0.029 c -0.338,0.498 -1.086,1.149 -2.349,1.149 -1.116,0 -2.452,-0.536 -2.452,-2.708 v -3.614 h 1.292 v 3.423 c 0,1.175 0.411,1.967 1.585,1.967 0.866,0 1.468,-0.523 1.703,-1.021 0.073,-0.166 0.117,-0.37 0.117,-0.575 v -3.793 h 1.292 z"
       id="path83" />
    <path
       d="m 219.328,625.797 v 7.471 c 0,0.55 0.015,1.175 0.059,1.597 h -1.16 l -0.059,-1.073 h -0.029 c -0.396,0.69 -1.263,1.214 -2.422,1.214 -1.717,0 -3.039,-1.265 -3.039,-3.142 -0.015,-2.057 1.454,-3.321 3.186,-3.321 1.086,0 1.82,0.447 2.143,0.945 h 0.029 v -3.69 h 1.292 z m -1.292,5.402 c 0,-0.141 -0.015,-0.332 -0.059,-0.473 -0.191,-0.716 -0.896,-1.303 -1.864,-1.303 -1.336,0 -2.128,1.021 -2.128,2.388 0,1.252 0.705,2.286 2.099,2.286 0.866,0 1.659,-0.498 1.894,-1.341 0.044,-0.153 0.059,-0.307 0.059,-0.485 v -1.072 z"
       id="path84" />
    <path
       d="m 222.908,626.946 c 0.015,0.383 -0.309,0.689 -0.822,0.689 -0.455,0 -0.778,-0.307 -0.778,-0.689 0,-0.396 0.337,-0.703 0.807,-0.703 0.485,0 0.793,0.307 0.793,0.703 z m -1.438,7.918 v -6.182 h 1.292 v 6.182 z"
       id="path85" />
    <path
       d="m 231.333,631.723 c 0,2.286 -1.82,3.282 -3.538,3.282 -1.923,0 -3.406,-1.227 -3.406,-3.181 0,-2.068 1.556,-3.282 3.523,-3.282 2.041,0 3.421,1.29 3.421,3.181 z m -5.637,0.063 c 0,1.354 0.896,2.376 2.158,2.376 1.233,0 2.158,-1.009 2.158,-2.401 0,-1.047 -0.602,-2.376 -2.128,-2.376 -1.527,0 -2.188,1.226 -2.188,2.401 z"
       id="path86" />
    <path
       d="m 242.311,634.864 c -0.279,-0.242 -0.543,-0.485 -0.925,-0.843 -0.851,0.689 -1.806,0.983 -2.892,0.983 -1.923,0 -3.039,-1.124 -3.039,-2.414 0,-1.175 0.807,-1.979 1.938,-2.516 v -0.039 c -0.514,-0.562 -0.822,-1.188 -0.822,-1.801 0,-1.047 0.866,-2.12 2.51,-2.12 1.233,0 2.188,0.716 2.188,1.827 0,0.906 -0.602,1.622 -2.173,2.299 v 0.038 c 0.837,0.843 1.776,1.788 2.408,2.401 0.455,-0.601 0.763,-1.431 0.954,-2.517 h 1.174 c -0.264,1.354 -0.69,2.427 -1.424,3.181 0.528,0.485 1.042,0.971 1.629,1.52 h -1.526 z m -1.556,-1.481 c -0.587,-0.562 -1.688,-1.609 -2.789,-2.708 -0.529,0.294 -1.277,0.844 -1.277,1.75 0,0.983 0.837,1.737 2.026,1.737 0.851,0 1.571,-0.332 2.04,-0.779 z m -3.009,-5.249 c 0,0.613 0.323,1.085 0.749,1.545 0.998,-0.498 1.644,-0.958 1.644,-1.686 0,-0.523 -0.338,-1.111 -1.145,-1.111 -0.823,0 -1.248,0.588 -1.248,1.252 z"
       id="path87" />
    <path
       d="m 167.709,640.271 c 0.828,-0.093 1.913,-0.172 3.292,-0.172 1.695,0 2.938,0.265 3.726,0.74 0.729,0.424 1.163,1.072 1.163,1.865 0,0.808 -0.355,1.442 -1.025,1.905 -0.907,0.648 -2.386,0.979 -4.062,0.979 -0.512,0 -0.985,-0.014 -1.38,-0.08 v 3.572 h -1.715 v -8.809 z m 1.716,4.299 c 0.375,0.065 0.848,0.092 1.419,0.092 2.07,0 3.332,-0.675 3.332,-1.904 0,-1.178 -1.242,-1.747 -3.135,-1.747 -0.749,0 -1.321,0.04 -1.617,0.093 v 3.466 z"
       id="path88" />
    <path
       d="m 178.037,639.688 h 1.735 v 3.995 h 0.04 c 0.276,-0.331 0.71,-0.622 1.242,-0.82 0.513,-0.198 1.124,-0.331 1.774,-0.331 1.281,0 3.332,0.529 3.332,2.738 v 3.811 h -1.735 v -3.678 c 0,-1.032 -0.572,-1.905 -2.208,-1.905 -1.124,0 -2.011,0.529 -2.326,1.164 -0.099,0.159 -0.119,0.331 -0.119,0.556 v 3.863 h -1.735 z"
       id="path89" />
    <path
       d="m 197.609,645.826 c 0,2.368 -2.445,3.4 -4.751,3.4 -2.583,0 -4.574,-1.27 -4.574,-3.294 0,-2.144 2.09,-3.4 4.731,-3.4 2.741,0 4.594,1.337 4.594,3.294 z m -7.57,0.067 c 0,1.402 1.203,2.461 2.898,2.461 1.656,0 2.898,-1.045 2.898,-2.487 0,-1.085 -0.808,-2.461 -2.859,-2.461 -2.05,-10e-4 -2.937,1.27 -2.937,2.487 z"
       id="path90" />
    <path
       d="m 201.883,640.839 v 1.839 h 2.484 v 0.887 h -2.484 v 3.453 c 0,0.794 0.335,1.243 1.301,1.243 0.453,0 0.789,-0.04 1.005,-0.079 l 0.079,0.873 c -0.335,0.093 -0.867,0.158 -1.538,0.158 -0.808,0 -1.458,-0.172 -1.873,-0.489 -0.493,-0.344 -0.67,-0.912 -0.67,-1.667 v -3.492 h -1.479 v -0.887 h 1.479 v -1.534 z"
       id="path91" />
    <path
       d="m 214.833,645.826 c 0,2.368 -2.445,3.4 -4.751,3.4 -2.583,0 -4.574,-1.27 -4.574,-3.294 0,-2.144 2.09,-3.4 4.731,-3.4 2.741,0 4.594,1.337 4.594,3.294 z m -7.57,0.067 c 0,1.402 1.202,2.461 2.898,2.461 1.656,0 2.898,-1.045 2.898,-2.487 0,-1.085 -0.809,-2.461 -2.858,-2.461 -2.051,-10e-4 -2.938,1.27 -2.938,2.487 z"
       id="path92" />
    <path
       d="m 221.335,645.072 v 0.86 h -4.87 v -0.86 z"
       id="path93" />
    <path
       d="m 232.983,648.79 c -0.631,0.212 -1.893,0.423 -3.509,0.423 -3.746,0 -6.564,-1.587 -6.564,-4.511 0,-2.791 2.819,-4.684 6.939,-4.684 1.656,0 2.701,0.238 3.154,0.397 l -0.414,0.939 c -0.651,-0.212 -1.577,-0.371 -2.681,-0.371 -3.115,0 -5.185,1.337 -5.185,3.678 0,2.184 1.873,3.586 5.106,3.586 1.045,0 2.109,-0.146 2.799,-0.371 z"
       id="path94" />
    <path
       d="m 235.128,640.283 c 1.044,-0.105 2.287,-0.185 3.647,-0.185 2.464,0 4.219,0.384 5.382,1.111 1.183,0.728 1.873,1.759 1.873,3.201 0,1.455 -0.67,2.646 -1.913,3.466 -1.242,0.834 -3.292,1.283 -5.875,1.283 -1.222,0 -2.248,-0.039 -3.115,-0.105 v -8.771 z m 1.715,7.885 c 0.434,0.053 1.064,0.066 1.735,0.066 3.667,0 5.658,-1.376 5.658,-3.783 0.02,-2.104 -1.755,-3.44 -5.382,-3.44 -0.887,0 -1.557,0.054 -2.011,0.119 z"
       id="path95" />
  </g>
</svg>
