<svg height="462.78622" viewBox="0 0 795.87502 462.78623" width="795.87506" xmlns="http://www.w3.org/2000/svg"><g transform="matrix(1.020328 0 0 1.020328 -36.384896 -45.747927)"><path d="m35.66 480.61c0 10.3 0 17.59 10.98 17.59 12.74 0 148.19.35 218.37.13 32.34.11 239.25-.01 255.12-.01 11.51 0 11.44-3.55 11.44-13.85 0-8.92-4.46-185.6-5.66-221.99h-485.15c-1.15 36.23-5.1 209.21-5.1 218.13z" fill="#6a6760"/><path d="m488.74 482.89h-409.78c-12.1 0-21.85-9.9-21.67-22l1.76-141.89c.17-11.85 9.83-21.36 21.67-21.36h406.33c11.85 0 21.51 9.52 21.67 21.37l1.69 141.9c.18 12.09-9.58 21.98-21.67 21.98z" fill="none" stroke="#31271d" stroke-miterlimit="10" stroke-width="3"/><path d="m465.96 472.89h-364.7c-5.17 0-9.37-4.19-9.37-9.37v-146.46c0-5.17 4.19-9.37 9.37-9.37h364.7c5.17 0 9.37 4.19 9.37 9.37v146.47c0 5.17-4.19 9.36-9.37 9.36z" fill="#282725"/><path d="m515.89 83.52h-16.65c-1.38 0-2.49-1.11-2.49-2.49s1.11-2.49 2.49-2.49h16.65s5.51.1 9.74.94v-2.72c-4.42-.8-9.74-1.03-9.74-1.03h-16.65c-1.38 0-2.49-1.11-2.49-2.49s1.11-2.49 2.49-2.49h16.65s5.51.1 9.74.94v-14.61c0-5.34-3.7-9.68-8.26-9.68h-468.07c-4.56 0-8.26 4.33-8.26 9.68v14.54c4.17-.77 9.34-.86 9.34-.86h16.65c1.38 0 2.49 1.11 2.49 2.49s-1.11 2.49-2.49 2.49h-16.66s-5 .21-9.34.96v2.71c4.17-.77 9.34-.86 9.34-.86h16.65c1.38 0 2.49 1.11 2.49 2.49s-1.11 2.49-2.49 2.49h-16.65s-5 .21-9.34.96v2.71c4.17-.77 9.34-.86 9.34-.86h16.65c1.38 0 2.49 1.11 2.49 2.49s-1.11 2.49-2.49 2.49h-16.65s-5 .21-9.34.96v2.71c4.17-.77 9.34-.86 9.34-.86h16.65c1.38 0 2.49 1.11 2.49 2.49s-1.11 2.49-2.49 2.49h-16.65s-5 .21-9.34.96v2.71c4.17-.77 9.34-.86 9.34-.86h16.65c1.38 0 2.49 1.11 2.49 2.49s-1.11 2.49-2.49 2.49h-16.65s-5 .21-9.34.96v2.71c4.17-.77 9.34-.86 9.34-.86h16.65c1.38 0 2.49 1.11 2.49 2.49s-1.11 2.49-2.49 2.49h-16.65s-5 .21-9.34.96v2.71c4.17-.77 9.34-.86 9.34-.86h16.65c1.38 0 2.49 1.11 2.49 2.49s-1.11 2.49-2.49 2.49h-16.65s-5 .21-9.34.96v2.71c4.17-.77 9.34-.86 9.34-.86h16.65c1.38 0 2.49 1.11 2.49 2.49s-1.11 2.49-2.49 2.49h-16.65s-5 .21-9.34.96v2.71c4.17-.77 9.34-.86 9.34-.86h16.65c1.38 0 2.49 1.11 2.49 2.49s-1.11 2.49-2.49 2.49h-16.65s-5 .21-9.34.96v2.71c4.17-.77 9.34-.86 9.34-.86h16.65c1.38 0 2.49 1.11 2.49 2.49s-1.11 2.49-2.49 2.49h-16.65s-5 .21-9.34.96v2.71c4.17-.77 9.34-.86 9.34-.86h16.65c1.38 0 2.49 1.11 2.49 2.49s-1.11 2.49-2.49 2.49h-16.65s-5 .21-9.34.96v2.71c4.17-.77 9.34-.86 9.34-.86h16.65c1.38 0 2.49 1.11 2.49 2.49s-1.11 2.49-2.49 2.49h-16.65s-5 .21-9.34.96v2.71c4.17-.77 9.34-.86 9.34-.86h16.65c1.38 0 2.49 1.11 2.49 2.49s-1.11 2.49-2.49 2.49h-16.65s-5 .21-9.34.96v2.71c4.17-.77 9.34-.86 9.34-.86h16.65c1.38 0 2.49 1.11 2.49 2.49s-1.11 2.49-2.49 2.49h-16.65s-5 .21-9.34.96v2.71c4.17-.77 9.34-.86 9.34-.86h16.65c1.38 0 2.49 1.11 2.49 2.49s-1.11 2.49-2.49 2.49h-16.65s-5 .21-9.34.96v2.71c4.17-.77 9.34-.86 9.34-.86h16.65c1.38 0 2.49 1.11 2.49 2.49s-1.11 2.49-2.49 2.49h-16.65s-5 .21-9.34.96v2.71c4.17-.77 9.34-.86 9.34-.86h16.65c1.38 0 2.49 1.11 2.49 2.49s-1.11 2.49-2.49 2.49h-16.65s-5 .21-9.34.96v2.71c4.17-.77 9.34-.86 9.34-.86h16.65c1.38 0 2.49 1.11 2.49 2.49s-1.11 2.49-2.49 2.49h-16.65s-5 .21-9.34.96v2.71c4.17-.77 9.34-.86 9.34-.86h16.65c1.38 0 2.49 1.11 2.49 2.49s-1.11 2.49-2.49 2.49h-16.65s-5 .21-9.34.96v2.71c4.17-.77 9.34-.86 9.34-.86h16.65c1.38 0 2.49 1.11 2.49 2.49s-1.11 2.49-2.49 2.49h-16.65s-5 .21-9.34.96v31.12h484.59v-31.05c-4.42-.8-9.74-1.03-9.74-1.03h-16.65c-1.38 0-2.49-1.11-2.49-2.49s1.11-2.49 2.49-2.49h16.65s5.51.1 9.74.94v-2.72c-4.42-.8-9.74-1.03-9.74-1.03h-16.65c-1.38 0-2.49-1.11-2.49-2.49s1.11-2.49 2.49-2.49h16.65s5.51.1 9.74.94v-2.72c-4.42-.8-9.74-1.03-9.74-1.03h-16.65c-1.38 0-2.49-1.11-2.49-2.49s1.11-2.49 2.49-2.49h16.65s5.51.1 9.74.94v-2.72c-4.42-.8-9.74-1.03-9.74-1.03h-16.65c-1.38 0-2.49-1.11-2.49-2.49s1.11-2.49 2.49-2.49h16.65s5.51.1 9.74.94v-2.72c-4.42-.8-9.74-1.03-9.74-1.03h-16.65c-1.38 0-2.49-1.11-2.49-2.49s1.11-2.49 2.49-2.49h16.65s5.51.1 9.74.94v-2.72c-4.42-.8-9.74-1.03-9.74-1.03h-16.65c-1.38 0-2.49-1.11-2.49-2.49s1.11-2.49 2.49-2.49h16.65s5.51.1 9.74.94v-2.72c-4.42-.8-9.74-1.03-9.74-1.03h-16.65c-1.38 0-2.49-1.11-2.49-2.49s1.11-2.49 2.49-2.49h16.65s5.51.1 9.74.94v-2.72c-4.42-.8-9.74-1.03-9.74-1.03h-16.65c-1.38 0-2.49-1.11-2.49-2.49s1.11-2.49 2.49-2.49h16.65s5.51.1 9.74.94v-2.72c-4.42-.8-9.74-1.03-9.74-1.03h-16.65c-1.38 0-2.49-1.11-2.49-2.49s1.11-2.49 2.49-2.49h16.65s5.51.1 9.74.94v-2.72c-4.42-.8-9.74-1.03-9.74-1.03h-16.65c-1.38 0-2.49-1.11-2.49-2.49s1.11-2.49 2.49-2.49h16.65s5.51.1 9.74.94v-2.72c-4.42-.8-9.74-1.03-9.74-1.03h-16.65c-1.38 0-2.49-1.11-2.49-2.49s1.11-2.49 2.49-2.49h16.65s5.51.1 9.74.94v-2.72c-4.42-.8-9.74-1.03-9.74-1.03h-16.65c-1.38 0-2.49-1.11-2.49-2.49s1.11-2.49 2.49-2.49h16.65s5.51.1 9.74.94v-2.72c-4.42-.8-9.74-1.03-9.74-1.03h-16.65c-1.38 0-2.49-1.11-2.49-2.49s1.11-2.49 2.49-2.49h16.65s5.51.1 9.74.94v-2.72c-4.42-.8-9.74-1.03-9.74-1.03h-16.65c-1.38 0-2.49-1.11-2.49-2.49s1.11-2.49 2.49-2.49h16.65s5.51.1 9.74.94v-2.72c-4.42-.8-9.74-1.03-9.74-1.03h-16.65c-1.38 0-2.49-1.11-2.49-2.49s1.11-2.49 2.49-2.49h16.65s5.51.1 9.74.94v-2.72c-4.42-.8-9.74-1.03-9.74-1.03h-16.65c-1.38 0-2.49-1.11-2.49-2.49s1.11-2.49 2.49-2.49h16.65s5.51.1 9.74.94v-2.72c-4.42-.8-9.74-1.03-9.74-1.03h-16.65c-1.38 0-2.49-1.11-2.49-2.49s1.11-2.49 2.49-2.49h16.65s5.51.1 9.74.94v-2.72c-4.42-.8-9.74-1.03-9.74-1.03h-16.65c-1.38 0-2.49-1.11-2.49-2.49s1.11-2.49 2.49-2.49h16.65s5.51.1 9.74.94v-2.72c-4.41-.81-9.73-1.04-9.73-1.04z" fill="#605c50"/><g fill="#31271d"><path d="m499.23 218.72c-1.38 0-2.49 1.11-2.49 2.49s1.11 2.49 2.49 2.49h16.65s5.32.23 9.74 1.03v-5.07c-4.24-.84-9.74-.94-9.74-.94z"/><path d="m499.23 210.93c-1.38 0-2.49 1.11-2.49 2.49s1.11 2.49 2.49 2.49h16.65s5.32.23 9.74 1.03v-5.07c-4.24-.84-9.74-.94-9.74-.94z"/><path d="m499.23 203.14c-1.38 0-2.49 1.11-2.49 2.49s1.11 2.49 2.49 2.49h16.65s5.32.23 9.74 1.03v-5.07c-4.24-.84-9.74-.94-9.74-.94z"/><path d="m499.23 195.36c-1.38 0-2.49 1.11-2.49 2.49s1.11 2.49 2.49 2.49h16.65s5.32.23 9.74 1.03v-5.07c-4.24-.84-9.74-.94-9.74-.94z"/><path d="m499.23 187.57c-1.38 0-2.49 1.11-2.49 2.49s1.11 2.49 2.49 2.49h16.65s5.32.23 9.74 1.03v-5.07c-4.24-.84-9.74-.94-9.74-.94z"/><path d="m499.23 179.78c-1.38 0-2.49 1.11-2.49 2.49s1.11 2.49 2.49 2.49h16.65s5.32.23 9.74 1.03v-5.07c-4.24-.84-9.74-.94-9.74-.94z"/><path d="m499.23 171.99c-1.38 0-2.49 1.11-2.49 2.49s1.11 2.49 2.49 2.49h16.65s5.32.23 9.74 1.03v-5.07c-4.24-.84-9.74-.94-9.74-.94z"/><path d="m499.23 164.21c-1.38 0-2.49 1.11-2.49 2.49s1.11 2.49 2.49 2.49h16.65s5.32.23 9.74 1.03v-5.07c-4.24-.84-9.74-.94-9.74-.94z"/><path d="m499.23 156.42c-1.38 0-2.49 1.11-2.49 2.49s1.11 2.49 2.49 2.49h16.65s5.32.23 9.74 1.03v-5.07c-4.24-.84-9.74-.94-9.74-.94z"/><path d="m499.23 148.63c-1.38 0-2.49 1.11-2.49 2.49s1.11 2.49 2.49 2.49h16.65s5.32.23 9.74 1.03v-5.07c-4.24-.84-9.74-.94-9.74-.94z"/><path d="m499.23 140.84c-1.38 0-2.49 1.11-2.49 2.49s1.11 2.49 2.49 2.49h16.65s5.32.23 9.74 1.03v-5.07c-4.24-.84-9.74-.94-9.74-.94z"/><path d="m499.23 133.06c-1.38 0-2.49 1.11-2.49 2.49s1.11 2.49 2.49 2.49h16.65s5.32.23 9.74 1.03v-5.07c-4.24-.84-9.74-.94-9.74-.94z"/><path d="m499.23 125.27c-1.38 0-2.49 1.11-2.49 2.49s1.11 2.49 2.49 2.49h16.65s5.32.23 9.74 1.03v-5.07c-4.24-.84-9.74-.94-9.74-.94z"/><path d="m499.23 117.48c-1.38 0-2.49 1.11-2.49 2.49s1.11 2.49 2.49 2.49h16.65s5.32.23 9.74 1.03v-5.07c-4.24-.84-9.74-.94-9.74-.94z"/><path d="m499.23 109.69c-1.38 0-2.49 1.11-2.49 2.49s1.11 2.49 2.49 2.49h16.65s5.32.23 9.74 1.03v-5.07c-4.24-.84-9.74-.94-9.74-.94z"/><path d="m499.23 101.91c-1.38 0-2.49 1.11-2.49 2.49s1.11 2.49 2.49 2.49h16.65s5.32.23 9.74 1.03v-5.07c-4.24-.84-9.74-.94-9.74-.94z"/><path d="m499.23 94.12c-1.38 0-2.49 1.11-2.49 2.49s1.11 2.49 2.49 2.49h16.65s5.32.23 9.74 1.03v-5.07c-4.24-.84-9.74-.94-9.74-.94z"/><path d="m499.23 86.33c-1.38 0-2.49 1.11-2.49 2.49s1.11 2.49 2.49 2.49h16.65s5.32.23 9.74 1.03v-5.07c-4.24-.84-9.74-.94-9.74-.94z"/><path d="m499.23 78.54c-1.38 0-2.49 1.11-2.49 2.49s1.11 2.49 2.49 2.49h16.65s5.32.23 9.74 1.03v-5.07c-4.24-.84-9.74-.94-9.74-.94z"/><path d="m499.23 70.76c-1.38 0-2.49 1.11-2.49 2.49s1.11 2.49 2.49 2.49h16.65s5.32.23 9.74 1.03v-5.07c-4.24-.84-9.74-.94-9.74-.94z"/><path d="m67.03 223.7c1.38 0 2.49-1.11 2.49-2.49s-1.11-2.49-2.49-2.49h-16.66s-5.16.1-9.34.86v5.08c4.33-.74 9.34-.96 9.34-.96z"/><path d="m67.03 215.91c1.38 0 2.49-1.11 2.49-2.49s-1.11-2.49-2.49-2.49h-16.66s-5.16.1-9.34.86v5.08c4.33-.74 9.34-.96 9.34-.96z"/><path d="m67.03 208.12c1.38 0 2.49-1.11 2.49-2.49s-1.11-2.49-2.49-2.49h-16.66s-5.16.1-9.34.86v5.08c4.33-.74 9.34-.96 9.34-.96z"/><path d="m67.03 200.34c1.38 0 2.49-1.11 2.49-2.49s-1.11-2.49-2.49-2.49h-16.66s-5.16.1-9.34.86v5.08c4.33-.74 9.34-.96 9.34-.96z"/><path d="m67.03 192.55c1.38 0 2.49-1.11 2.49-2.49s-1.11-2.49-2.49-2.49h-16.66s-5.16.1-9.34.86v5.08c4.33-.74 9.34-.96 9.34-.96z"/><path d="m67.03 184.76c1.38 0 2.49-1.11 2.49-2.49s-1.11-2.49-2.49-2.49h-16.66s-5.16.1-9.34.86v5.08c4.33-.74 9.34-.96 9.34-.96z"/><path d="m67.03 176.97c1.38 0 2.49-1.11 2.49-2.49s-1.11-2.49-2.49-2.49h-16.66s-5.16.1-9.34.86v5.08c4.33-.74 9.34-.96 9.34-.96z"/><path d="m67.03 169.19c1.38 0 2.49-1.11 2.49-2.49s-1.11-2.49-2.49-2.49h-16.66s-5.16.1-9.34.86v5.08c4.33-.74 9.34-.96 9.34-.96z"/><path d="m67.03 161.4c1.38 0 2.49-1.11 2.49-2.49s-1.11-2.49-2.49-2.49h-16.66s-5.16.1-9.34.86v5.08c4.33-.74 9.34-.96 9.34-.96z"/><path d="m67.03 153.61c1.38 0 2.49-1.11 2.49-2.49s-1.11-2.49-2.49-2.49h-16.66s-5.16.1-9.34.86v5.08c4.33-.74 9.34-.96 9.34-.96z"/><path d="m67.03 145.82c1.38 0 2.49-1.11 2.49-2.49s-1.11-2.49-2.49-2.49h-16.66s-5.16.1-9.34.86v5.08c4.33-.74 9.34-.96 9.34-.96z"/><path d="m67.03 138.04c1.38 0 2.49-1.11 2.49-2.49s-1.11-2.49-2.49-2.49h-16.66s-5.16.1-9.34.86v5.08c4.33-.74 9.34-.96 9.34-.96z"/><path d="m67.03 130.25c1.38 0 2.49-1.11 2.49-2.49s-1.11-2.49-2.49-2.49h-16.66s-5.16.1-9.34.86v5.08c4.33-.74 9.34-.96 9.34-.96z"/><path d="m67.03 122.46c1.38 0 2.49-1.11 2.49-2.49s-1.11-2.49-2.49-2.49h-16.66s-5.16.1-9.34.86v5.08c4.33-.74 9.34-.96 9.34-.96z"/><path d="m67.03 114.67c1.38 0 2.49-1.11 2.49-2.49s-1.11-2.49-2.49-2.49h-16.66s-5.16.1-9.34.86v5.08c4.33-.74 9.34-.96 9.34-.96z"/><path d="m67.03 106.89c1.38 0 2.49-1.11 2.49-2.49s-1.11-2.49-2.49-2.49h-16.66s-5.16.1-9.34.86v5.08c4.33-.74 9.34-.96 9.34-.96z"/><path d="m67.03 99.1c1.38 0 2.49-1.11 2.49-2.49s-1.11-2.49-2.49-2.49h-16.66s-5.16.1-9.34.86v5.08c4.33-.74 9.34-.96 9.34-.96z"/><path d="m67.03 91.31c1.38 0 2.49-1.11 2.49-2.49s-1.11-2.49-2.49-2.49h-16.66s-5.16.1-9.34.86v5.08c4.33-.74 9.34-.96 9.34-.96z"/><path d="m67.03 83.52c1.38 0 2.49-1.11 2.49-2.49s-1.11-2.49-2.49-2.49h-16.66s-5.16.1-9.34.86v5.08c4.33-.74 9.34-.96 9.34-.96z"/><path d="m67.03 75.74c1.38 0 2.49-1.11 2.49-2.49s-1.11-2.49-2.49-2.49h-16.66s-5.16.1-9.34.86v5.08c4.33-.74 9.34-.96 9.34-.96z"/></g><path d="m41.040001 245.73h484.589999v10.35h-484.589999z" fill="#463e33"/><path d="m41.040001 245.73h484.589999v6.7h-484.589999z" fill="#8d8b7e"/><path d="m41.040001 255.61h484.589999v7.71h-484.589999z" fill="#565044"/><path d="m41.040001 248.03999h484.589999v3.99h-484.589999z" fill="#31271d"/><path d="m373.49 290.44h-179.75c-.9 0-1.63-.73-1.63-1.63v-18.55c0-.9.73-1.63 1.63-1.63h179.74c.9 0 1.63.73 1.63 1.63v18.55c0 .91-.73 1.63-1.62 1.63z" fill="#31271d"/><path d="m371.89 287.97h-176.5c-.9 0-1.63-.73-1.63-1.63v-13.78c0-.9.73-1.63 1.63-1.63h176.5c.9 0 1.63.73 1.63 1.63v13.78c0 .9-.73 1.63-1.63 1.63z" fill="#dfe6d6"/><path d="m260.23 286.44h-63.47c-.9 0-1.63-.73-1.63-1.63v-10.64c0-.9.73-1.63 1.63-1.63h63.47c.9 0 1.63.73 1.63 1.63v10.64c0 .9-.73 1.63-1.63 1.63z" fill="#2a2927"/><path d="m370.11 286.44h-63.44c-.9 0-1.63-.73-1.63-1.63v-10.64c0-.9.73-1.63 1.63-1.63h63.44c.9 0 1.63.73 1.63 1.63v10.64c0 .9-.73 1.63-1.63 1.63z" fill="#2a2927"/><g fill="#dfe6d6"><path d="m205.84 276.33c.26.04.52.07.77.12.57.12 1.06.37 1.31.93.35.79.29 1.93-.67 2.56-.11.07-.21.14-.34.22.43.92.86 1.83 1.31 2.78-.23 0-.44 0-.64 0-.46 0-.92 0-1.38 0-.1 0-.15-.03-.19-.13-.14-.34-.29-.68-.45-1.03-.04-.08-.07-.18-.14-.24-.06-.05-.16-.1-.23-.09-.06.01-.13.12-.13.19-.02.3-.02.6-.03.9v.38c-.63 0-1.24 0-1.87 0 0-.08 0-.15 0-.22 0-2.06 0-4.12 0-6.19 0-.06-.01-.12-.01-.18zm.27 3.43c0-.46-.36-.82-.82-.83-.47 0-.85.37-.84.83 0 .47.37.83.85.83.45.01.8-.36.81-.83z"/><path d="m218.41 276.33c.01.08.02.16.02.24v6.13c0 .07-.01.14-.01.23-.07 0-.13 0-.19 0-.76 0-1.52.01-2.28 0-.46-.01-.91-.07-1.35-.24-1.15-.43-1.57-1.37-1.49-2.45.1-1.49 1.26-2.27 2.38-2.4.22-.03.45-.04.68-.04.13 0 .17-.04.17-.17-.01-.35 0-.71 0-1.06 0-.08.01-.16.02-.24zm-2.56 4.03c-.49 0-.84.34-.84.82 0 .47.36.82.85.82.45 0 .81-.36.82-.81.01-.46-.36-.83-.83-.83z"/><path d="m228.54 281.17c.13-.01.26-.02.38-.02.57-.01.87-.29.91-.86.03-.48.03-.97.08-1.44.06-.64.21-1.26.66-1.75.4-.43.93-.57 1.49-.61.38-.02.77 0 1.17 0v1.92c-.11 0-.21 0-.31 0-.62.01-.89.26-.93.88-.04.59-.07 1.18-.1 1.77-.06 1-.71 1.75-1.72 1.9-.46.07-.93.06-1.39.08-.08 0-.16 0-.24.01 0-.63 0-1.25 0-1.88z"/><path d="m233.45 276.49h2.06v1.35c.1.01.18.01.25.01.38.01.77-.01 1.15.05.78.12 1.16.49 1.19 1.27.05 1.27.04 2.54.05 3.81 0 .01-.01.02-.02.04-.68 0-1.37 0-2.1 0 0-.07 0-.14 0-.21 0-.91 0-1.82 0-2.73 0-.13 0-.26-.05-.38-.03-.08-.15-.17-.22-.17-.09 0-.19.09-.25.17-.05.07-.04.18-.04.27v2.83.23c-.68 0-1.35 0-2.03 0 .01-2.18.01-4.35.01-6.54z"/><path d="m226.86 280.24c0 1.5-1.24 2.73-2.76 2.73-1.51 0-2.74-1.23-2.74-2.74 0-1.46 1.26-2.7 2.73-2.7 1.51-.01 2.77 1.22 2.77 2.71zm-3.57.76c0 .47.34.82.82.83.46.01.83-.36.82-.83 0-.47-.36-.82-.82-.83-.47.01-.82.36-.82.83z"/><path d="m250.88 276.49v3.06c.07-.07.1-.12.14-.16.21-.28.42-.57.64-.85.04-.05.13-.1.19-.1.68-.01 1.36 0 2.07 0-.04.07-.07.12-.1.16-.31.44-.61.88-.93 1.32-.07.1-.08.18-.02.3.43.85.85 1.71 1.27 2.56.04.08.07.16.12.27-.38 0-.73 0-1.08 0-.32 0-.65-.01-.97 0-.14 0-.2-.05-.25-.17-.18-.46-.38-.91-.58-1.37-.06-.15-.12-.34-.34-.3-.21.05-.16.25-.16.4-.01.47 0 .94 0 1.42-.55 0-1.08 0-1.63 0 0-2.18 0-4.35 0-6.54z"/><path d="m248.96 280.9c-.25 0-.5 0-.75 0-.34 0-.67-.01-1.01 0-.14 0-.22-.04-.28-.17-.18-.37-.49-.49-.89-.4-.36.08-.61.39-.63.76-.02.39.2.72.56.84.36.11.77-.02.99-.33.06-.09.13-.13.24-.12.52.01 1.04 0 1.56 0-.56 1.21-1.84 1.93-3.25 1.54-1.39-.39-2.26-1.83-1.93-3.2.36-1.48 1.79-2.39 3.27-2.08 1.64.34 2.3 1.99 2.12 3.16z"/><path d="m243.13 283.04c-.63 0-1.24 0-1.85 0-.5-.01-.99-.01-1.49-.04-.21-.02-.43-.09-.63-.18-.54-.24-.74-.7-.75-1.26-.02-.76.5-1.43 1.25-1.57.23-.04.46-.02.7-.02.07 0 .14.01.2 0 .13-.02.24-.07.23-.23 0-.16-.13-.17-.23-.17-.4-.01-.81-.01-1.21-.01-.15 0-.29 0-.46 0 0-.51 0-1 0-1.52.05 0 .1-.01.15-.01.83 0 1.67-.01 2.5 0 .22 0 .45.03.67.08.56.12.89.52.9 1.16.02 1.22.02 2.43.03 3.65.01.02 0 .06-.01.12zm-2.62-2.57c-.47 0-.84.36-.84.83 0 .46.38.83.85.83.45 0 .82-.37.82-.83 0-.47-.36-.84-.83-.83z"/><path d="m212.84 282.93c-.06 0-.12 0-.19 0-.88 0-1.76.01-2.64 0-.24 0-.49-.03-.73-.09-1.16-.26-1.28-1.24-1.05-1.94.23-.73.89-1.13 1.69-1.06.12.01.23.02.35 0 .13-.02.27-.05.26-.22-.01-.18-.15-.17-.27-.17-.47-.01-.94 0-1.41 0-.07 0-.13 0-.23 0 0-.26 0-.51 0-.76s0-.5 0-.76c.05-.01.08-.02.12-.02.92 0 1.84 0 2.75.01.14 0 .28.02.42.05.6.13.93.49.95 1.18.03 1.24.01 2.48.01 3.72-.01.01-.02.02-.03.06zm-2.6-2.57c-.49 0-.84.34-.84.82 0 .47.36.82.85.82.45 0 .82-.36.82-.81 0-.46-.37-.83-.83-.83z"/><path d="m218.99 277.81c.04 0 .07-.01.11-.01h1.98v5.12c-.7 0-1.39 0-2.09 0 0-1.69 0-3.39 0-5.11z"/></g><path d="m268.59 274.70001h30.88v2.98h-30.88z" fill="#2a2927"/><path d="m326.26001 274.70001h23.81v3.35h-23.81z" fill="#dfe6d6"/><path d="m317.45001 280.13h41.44v2.9h-41.44z" fill="#dfe6d6"/><path d="m273.13 285.23h-6.5c-.79 0-1.43-.64-1.43-1.43v-2.27c0-.79.64-1.43 1.43-1.43h6.5c.79 0 1.43.64 1.43 1.43v2.27c0 .79-.64 1.43-1.43 1.43z" fill="#df432d"/><path d="m286.8 285.23h-6.5c-.79 0-1.43-.64-1.43-1.43v-2.27c0-.79.64-1.43 1.43-1.43h6.5c.79 0 1.43.64 1.43 1.43v2.27c0 .79-.64 1.43-1.43 1.43z" fill="#176c17"/><path d="m300.48 285.23h-6.5c-.79 0-1.43-.64-1.43-1.43v-2.27c0-.79.64-1.43 1.43-1.43h6.5c.79 0 1.43.64 1.43 1.43v2.27c-.01.79-.64 1.43-1.43 1.43z" fill="#034a98"/><path d="m349.4 464.71h-133.95c-2.17 0-3.93-1.76-3.93-3.93v-16.37c0-2.17 1.76-3.93 3.93-3.93h133.95c2.17 0 3.93 1.76 3.93 3.93v16.37c0 2.17-1.76 3.93-3.93 3.93z" fill="#141312"/><path d="m346.69 461.31h-128.7c-2.17 0-3.93-1.76-3.93-3.93v-9.36c0-2.17 1.76-3.93 3.93-3.93h128.7c2.17 0 3.93 1.76 3.93 3.93v9.36c0 2.17-1.76 3.93-3.93 3.93z" fill="#8d8b7e"/><path d="m147.02 434.15h-26.7c-2.17 0-3.93-1.76-3.93-3.93v-16.37c0-2.17 1.76-3.93 3.93-3.93h26.7c2.17 0 3.93 1.76 3.93 3.93v16.37c0 2.17-1.76 3.93-3.93 3.93z" fill="#141312"/><path d="m143.88 430.75h-20.47c-2.17 0-3.93-1.76-3.93-3.93v-9.36c0-2.17 1.76-3.93 3.93-3.93h20.47c2.17 0 3.93 1.76 3.93 3.93v9.36c0 2.17-1.76 3.93-3.93 3.93z" fill="#d6cbb5"/><path d="m435.78 434.15h-26.03c-2.17 0-3.93-1.76-3.93-3.93v-16.37c0-2.17 1.76-3.93 3.93-3.93h26.03c2.17 0 3.93 1.76 3.93 3.93v16.37c0 2.17-1.76 3.93-3.93 3.93z" fill="#141312"/><path d="m432.71 430.75h-19.92c-2.17 0-3.93-1.76-3.93-3.93v-9.36c0-2.17 1.76-3.93 3.93-3.93h19.92c2.17 0 3.93 1.76 3.93 3.93v9.36c-.01 2.17-1.76 3.93-3.93 3.93z" fill="#d6cbb5"/><path d="m435.26 404.52h-38.11c-2.17 0-3.93-1.76-3.93-3.93v-16.37c0-2.17 1.76-3.93 3.93-3.93h38.11c2.17 0 3.93 1.76 3.93 3.93v16.37c0 2.17-1.76 3.93-3.93 3.93z" fill="#141312"/><path d="m432.78 401.12h-32.31c-2.17 0-3.93-1.76-3.93-3.93v-9.36c0-2.17 1.76-3.93 3.93-3.93h32.31c2.17 0 3.93 1.76 3.93 3.93v9.36c0 2.17-1.76 3.93-3.93 3.93z" fill="#d6cbb5"/><path d="m171.85 434.15h-14.45c-2.17 0-3.93-1.76-3.93-3.93v-16.37c0-2.17 1.76-3.93 3.93-3.93h14.45c2.17 0 3.93 1.76 3.93 3.93v16.37c-.01 2.17-1.77 3.93-3.93 3.93z" fill="#141312"/><path d="m169.08 430.75h-8.94c-2.17 0-3.93-1.76-3.93-3.93v-9.36c0-2.17 1.76-3.93 3.93-3.93h8.94c2.17 0 3.93 1.76 3.93 3.93v9.36c-.01 2.17-1.76 3.93-3.93 3.93z" fill="#8d8b7e"/><path d="m159.27 403.99h-14.45c-2.17 0-3.93-1.76-3.93-3.93v-16.37c0-2.17 1.76-3.93 3.93-3.93h14.45c2.17 0 3.93 1.76 3.93 3.93v16.37c0 2.17-1.76 3.93-3.93 3.93z" fill="#141312"/><path d="m156.5 400.6h-8.94c-2.17 0-3.93-1.76-3.93-3.93v-9.36c0-2.17 1.76-3.93 3.93-3.93h8.94c2.17 0 3.93 1.76 3.93 3.93v9.36c0 2.17-1.76 3.93-3.93 3.93z" fill="#8d8b7e"/><path d="m184.47 403.99h-14.45c-2.17 0-3.93-1.76-3.93-3.93v-16.37c0-2.17 1.76-3.93 3.93-3.93h14.45c2.17 0 3.93 1.76 3.93 3.93v16.37c0 2.17-1.76 3.93-3.93 3.93z" fill="#141312"/><path d="m181.7 400.6h-8.94c-2.17 0-3.93-1.76-3.93-3.93v-9.36c0-2.17 1.76-3.93 3.93-3.93h8.94c2.17 0 3.93 1.76 3.93 3.93v9.36c0 2.17-1.76 3.93-3.93 3.93z" fill="#8d8b7e"/><path d="m209.67 403.99h-14.45c-2.17 0-3.93-1.76-3.93-3.93v-16.37c0-2.17 1.76-3.93 3.93-3.93h14.45c2.17 0 3.93 1.76 3.93 3.93v16.37c0 2.17-1.76 3.93-3.93 3.93z" fill="#141312"/><path d="m206.9 400.6h-8.94c-2.17 0-3.93-1.76-3.93-3.93v-9.36c0-2.17 1.76-3.93 3.93-3.93h8.94c2.17 0 3.93 1.76 3.93 3.93v9.36c0 2.17-1.76 3.93-3.93 3.93z" fill="#8d8b7e"/><path d="m234.87 403.99h-14.45c-2.17 0-3.93-1.76-3.93-3.93v-16.37c0-2.17 1.76-3.93 3.93-3.93h14.45c2.17 0 3.93 1.76 3.93 3.93v16.37c0 2.17-1.76 3.93-3.93 3.93z" fill="#141312"/><path d="m232.11 400.6h-8.94c-2.17 0-3.93-1.76-3.93-3.93v-9.36c0-2.17 1.76-3.93 3.93-3.93h8.94c2.17 0 3.93 1.76 3.93 3.93v9.36c-.01 2.17-1.77 3.93-3.93 3.93z" fill="#8d8b7e"/><path d="m260.08 403.99h-14.45c-2.17 0-3.93-1.76-3.93-3.93v-16.37c0-2.17 1.76-3.93 3.93-3.93h14.45c2.17 0 3.93 1.76 3.93 3.93v16.37c-.01 2.17-1.77 3.93-3.93 3.93z" fill="#141312"/><path d="m257.31 400.6h-8.94c-2.17 0-3.93-1.76-3.93-3.93v-9.36c0-2.17 1.76-3.93 3.93-3.93h8.94c2.17 0 3.93 1.76 3.93 3.93v9.36c-.01 2.17-1.76 3.93-3.93 3.93z" fill="#8d8b7e"/><path d="m285.28 403.99h-14.45c-2.17 0-3.93-1.76-3.93-3.93v-16.37c0-2.17 1.76-3.93 3.93-3.93h14.45c2.17 0 3.93 1.76 3.93 3.93v16.37c-.01 2.17-1.76 3.93-3.93 3.93z" fill="#141312"/><path d="m282.51 400.6h-8.94c-2.17 0-3.93-1.76-3.93-3.93v-9.36c0-2.17 1.76-3.93 3.93-3.93h8.94c2.17 0 3.93 1.76 3.93 3.93v9.36c0 2.17-1.76 3.93-3.93 3.93z" fill="#8d8b7e"/><path d="m310.48 403.99h-14.45c-2.17 0-3.93-1.76-3.93-3.93v-16.37c0-2.17 1.76-3.93 3.93-3.93h14.45c2.17 0 3.93 1.76 3.93 3.93v16.37c0 2.17-1.76 3.93-3.93 3.93z" fill="#141312"/><path d="m307.71 400.6h-8.94c-2.17 0-3.93-1.76-3.93-3.93v-9.36c0-2.17 1.76-3.93 3.93-3.93h8.94c2.17 0 3.93 1.76 3.93 3.93v9.36c0 2.17-1.76 3.93-3.93 3.93z" fill="#8d8b7e"/><path d="m335.68 403.99h-14.45c-2.17 0-3.93-1.76-3.93-3.93v-16.37c0-2.17 1.76-3.93 3.93-3.93h14.45c2.17 0 3.93 1.76 3.93 3.93v16.37c0 2.17-1.76 3.93-3.93 3.93z" fill="#141312"/><path d="m332.91 400.6h-8.94c-2.17 0-3.93-1.76-3.93-3.93v-9.36c0-2.17 1.76-3.93 3.93-3.93h8.94c2.17 0 3.93 1.76 3.93 3.93v9.36c0 2.17-1.76 3.93-3.93 3.93z" fill="#8d8b7e"/><path d="m360.88 403.99h-14.45c-2.17 0-3.93-1.76-3.93-3.93v-16.37c0-2.17 1.76-3.93 3.93-3.93h14.45c2.17 0 3.93 1.76 3.93 3.93v16.37c0 2.17-1.76 3.93-3.93 3.93z" fill="#141312"/><path d="m358.11 400.6h-8.94c-2.17 0-3.93-1.76-3.93-3.93v-9.36c0-2.17 1.76-3.93 3.93-3.93h8.94c2.17 0 3.93 1.76 3.93 3.93v9.36c0 2.17-1.76 3.93-3.93 3.93z" fill="#8d8b7e"/><path d="m386.08 403.99h-14.45c-2.17 0-3.93-1.76-3.93-3.93v-16.37c0-2.17 1.76-3.93 3.93-3.93h14.45c2.17 0 3.93 1.76 3.93 3.93v16.37c0 2.17-1.76 3.93-3.93 3.93z" fill="#141312"/><path d="m383.31 400.6h-8.94c-2.17 0-3.93-1.76-3.93-3.93v-9.36c0-2.17 1.76-3.93 3.93-3.93h8.94c2.17 0 3.93 1.76 3.93 3.93v9.36c0 2.17-1.76 3.93-3.93 3.93z" fill="#8d8b7e"/><path d="m397.11 374.46h-14.45c-2.17 0-3.93-1.76-3.93-3.93v-16.37c0-2.17 1.76-3.93 3.93-3.93h14.45c2.17 0 3.93 1.76 3.93 3.93v16.37c0 2.18-1.76 3.93-3.93 3.93z" fill="#141312"/><path d="m394.34 371.07h-8.94c-2.17 0-3.93-1.76-3.93-3.93v-9.36c0-2.17 1.76-3.93 3.93-3.93h8.94c2.17 0 3.93 1.76 3.93 3.93v9.36c0 2.17-1.76 3.93-3.93 3.93z" fill="#8d8b7e"/><path d="m372 374.46h-14.45c-2.17 0-3.93-1.76-3.93-3.93v-16.37c0-2.17 1.76-3.93 3.93-3.93h14.45c2.17 0 3.93 1.76 3.93 3.93v16.37c0 2.18-1.76 3.93-3.93 3.93z" fill="#141312"/><path d="m369.23 371.07h-8.94c-2.17 0-3.93-1.76-3.93-3.93v-9.36c0-2.17 1.76-3.93 3.93-3.93h8.94c2.17 0 3.93 1.76 3.93 3.93v9.36c0 2.17-1.76 3.93-3.93 3.93z" fill="#8d8b7e"/><path d="m346.89 374.46h-14.45c-2.17 0-3.93-1.76-3.93-3.93v-16.37c0-2.17 1.76-3.93 3.93-3.93h14.45c2.17 0 3.93 1.76 3.93 3.93v16.37c0 2.18-1.76 3.93-3.93 3.93z" fill="#141312"/><path d="m344.12 371.07h-8.94c-2.17 0-3.93-1.76-3.93-3.93v-9.36c0-2.17 1.76-3.93 3.93-3.93h8.94c2.17 0 3.93 1.76 3.93 3.93v9.36c0 2.17-1.76 3.93-3.93 3.93z" fill="#8d8b7e"/><path d="m321.79 374.46h-14.45c-2.17 0-3.93-1.76-3.93-3.93v-16.37c0-2.17 1.76-3.93 3.93-3.93h14.45c2.17 0 3.93 1.76 3.93 3.93v16.37c-.01 2.18-1.76 3.93-3.93 3.93z" fill="#141312"/><path d="m319.02 371.07h-8.94c-2.17 0-3.93-1.76-3.93-3.93v-9.36c0-2.17 1.76-3.93 3.93-3.93h8.94c2.17 0 3.93 1.76 3.93 3.93v9.36c-.01 2.17-1.76 3.93-3.93 3.93z" fill="#8d8b7e"/><path d="m296.68 374.46h-14.45c-2.17 0-3.93-1.76-3.93-3.93v-16.37c0-2.17 1.76-3.93 3.93-3.93h14.45c2.17 0 3.93 1.76 3.93 3.93v16.37c0 2.18-1.76 3.93-3.93 3.93z" fill="#141312"/><path d="m293.91 371.07h-8.94c-2.17 0-3.93-1.76-3.93-3.93v-9.36c0-2.17 1.76-3.93 3.93-3.93h8.94c2.17 0 3.93 1.76 3.93 3.93v9.36c0 2.17-1.76 3.93-3.93 3.93z" fill="#8d8b7e"/><path d="m271.57 374.46h-14.45c-2.17 0-3.93-1.76-3.93-3.93v-16.37c0-2.17 1.76-3.93 3.93-3.93h14.45c2.17 0 3.93 1.76 3.93 3.93v16.37c0 2.18-1.76 3.93-3.93 3.93z" fill="#141312"/><path d="m268.8 371.07h-8.94c-2.17 0-3.93-1.76-3.93-3.93v-9.36c0-2.17 1.76-3.93 3.93-3.93h8.94c2.17 0 3.93 1.76 3.93 3.93v9.36c0 2.17-1.76 3.93-3.93 3.93z" fill="#8d8b7e"/><path d="m246.46 374.46h-14.45c-2.17 0-3.93-1.76-3.93-3.93v-16.37c0-2.17 1.76-3.93 3.93-3.93h14.45c2.17 0 3.93 1.76 3.93 3.93v16.37c0 2.18-1.76 3.93-3.93 3.93z" fill="#141312"/><path d="m243.69 371.07h-8.94c-2.17 0-3.93-1.76-3.93-3.93v-9.36c0-2.17 1.76-3.93 3.93-3.93h8.94c2.17 0 3.93 1.76 3.93 3.93v9.36c0 2.17-1.76 3.93-3.93 3.93z" fill="#8d8b7e"/><path d="m221.36 374.46h-14.46c-2.17 0-3.93-1.76-3.93-3.93v-16.37c0-2.17 1.76-3.93 3.93-3.93h14.45c2.17 0 3.93 1.76 3.93 3.93v16.37c.01 2.18-1.75 3.93-3.92 3.93z" fill="#141312"/><path d="m218.59 371.07h-8.94c-2.17 0-3.93-1.76-3.93-3.93v-9.36c0-2.17 1.76-3.93 3.93-3.93h8.94c2.17 0 3.93 1.76 3.93 3.93v9.36c0 2.17-1.76 3.93-3.93 3.93z" fill="#8d8b7e"/><path d="m196.25 374.46h-14.45c-2.17 0-3.93-1.76-3.93-3.93v-16.37c0-2.17 1.76-3.93 3.93-3.93h14.45c2.17 0 3.93 1.76 3.93 3.93v16.37c0 2.18-1.76 3.93-3.93 3.93z" fill="#141312"/><path d="m193.48 371.07h-8.94c-2.17 0-3.93-1.76-3.93-3.93v-9.36c0-2.17 1.76-3.93 3.93-3.93h8.94c2.17 0 3.93 1.76 3.93 3.93v9.36c0 2.17-1.76 3.93-3.93 3.93z" fill="#8d8b7e"/><path d="m171.14 374.46h-14.45c-2.17 0-3.93-1.76-3.93-3.93v-16.37c0-2.17 1.76-3.93 3.93-3.93h14.45c2.17 0 3.93 1.76 3.93 3.93v16.37c0 2.18-1.76 3.93-3.93 3.93z" fill="#141312"/><path d="m168.37 371.07h-8.94c-2.17 0-3.93-1.76-3.93-3.93v-9.36c0-2.17 1.76-3.93 3.93-3.93h8.94c2.17 0 3.93 1.76 3.93 3.93v9.36c0 2.17-1.76 3.93-3.93 3.93z" fill="#8d8b7e"/><path d="m146.04 374.46h-14.45c-2.17 0-3.93-1.76-3.93-3.93v-16.37c0-2.17 1.76-3.93 3.93-3.93h14.45c2.17 0 3.93 1.76 3.93 3.93v16.37c-.01 2.18-1.77 3.93-3.93 3.93z" fill="#141312"/><path d="m143.27 371.07h-8.94c-2.17 0-3.93-1.76-3.93-3.93v-9.36c0-2.17 1.76-3.93 3.93-3.93h8.94c2.17 0 3.93 1.76 3.93 3.93v9.36c-.01 2.17-1.76 3.93-3.93 3.93z" fill="#8d8b7e"/><path d="m120.93 374.46h-14.45c-2.17 0-3.93-1.76-3.93-3.93v-16.37c0-2.17 1.76-3.93 3.93-3.93h14.45c2.17 0 3.93 1.76 3.93 3.93v16.37c0 2.18-1.76 3.93-3.93 3.93z" fill="#141312"/><path d="m118.16 371.07h-8.94c-2.17 0-3.93-1.76-3.93-3.93v-9.36c0-2.17 1.76-3.93 3.93-3.93h8.94c2.17 0 3.93 1.76 3.93 3.93v9.36c0 2.17-1.76 3.93-3.93 3.93z" fill="#8d8b7e"/><path d="m134.59 403.99h-14.45c-2.17 0-3.93-1.76-3.93-3.93v-16.37c0-2.17 1.76-3.93 3.93-3.93h14.45c2.17 0 3.93 1.76 3.93 3.93v16.37c0 2.17-1.76 3.93-3.93 3.93z" fill="#141312"/><path d="m131.83 400.6h-8.94c-2.17 0-3.93-1.76-3.93-3.93v-9.36c0-2.17 1.76-3.93 3.93-3.93h8.94c2.17 0 3.93 1.76 3.93 3.93v9.36c-.01 2.17-1.77 3.93-3.93 3.93z" fill="#d6cbb5"/><path d="m159.27 346.07h-14.45c-2.17 0-3.93-1.76-3.93-3.93v-16.37c0-2.17 1.76-3.93 3.93-3.93h14.45c2.17 0 3.93 1.76 3.93 3.93v16.37c0 2.18-1.76 3.93-3.93 3.93z" fill="#141312"/><path d="m156.5 342.68h-8.94c-2.17 0-3.93-1.76-3.93-3.93v-9.36c0-2.17 1.76-3.93 3.93-3.93h8.94c2.17 0 3.93 1.76 3.93 3.93v9.36c0 2.17-1.76 3.93-3.93 3.93z" fill="#8d8b7e"/><path d="m184.47 346.07h-14.45c-2.17 0-3.93-1.76-3.93-3.93v-16.37c0-2.17 1.76-3.93 3.93-3.93h14.45c2.17 0 3.93 1.76 3.93 3.93v16.37c0 2.18-1.76 3.93-3.93 3.93z" fill="#141312"/><path d="m181.7 342.68h-8.94c-2.17 0-3.93-1.76-3.93-3.93v-9.36c0-2.17 1.76-3.93 3.93-3.93h8.94c2.17 0 3.93 1.76 3.93 3.93v9.36c0 2.17-1.76 3.93-3.93 3.93z" fill="#8d8b7e"/><path d="m209.67 346.07h-14.45c-2.17 0-3.93-1.76-3.93-3.93v-16.37c0-2.17 1.76-3.93 3.93-3.93h14.45c2.17 0 3.93 1.76 3.93 3.93v16.37c0 2.18-1.76 3.93-3.93 3.93z" fill="#141312"/><path d="m206.9 342.68h-8.94c-2.17 0-3.93-1.76-3.93-3.93v-9.36c0-2.17 1.76-3.93 3.93-3.93h8.94c2.17 0 3.93 1.76 3.93 3.93v9.36c0 2.17-1.76 3.93-3.93 3.93z" fill="#8d8b7e"/><path d="m234.87 346.07h-14.45c-2.17 0-3.93-1.76-3.93-3.93v-16.37c0-2.17 1.76-3.93 3.93-3.93h14.45c2.17 0 3.93 1.76 3.93 3.93v16.37c0 2.18-1.76 3.93-3.93 3.93z" fill="#141312"/><path d="m232.11 342.68h-8.94c-2.17 0-3.93-1.76-3.93-3.93v-9.36c0-2.17 1.76-3.93 3.93-3.93h8.94c2.17 0 3.93 1.76 3.93 3.93v9.36c-.01 2.17-1.77 3.93-3.93 3.93z" fill="#8d8b7e"/><path d="m260.08 346.07h-14.45c-2.17 0-3.93-1.76-3.93-3.93v-16.37c0-2.17 1.76-3.93 3.93-3.93h14.45c2.17 0 3.93 1.76 3.93 3.93v16.37c-.01 2.18-1.77 3.93-3.93 3.93z" fill="#141312"/><path d="m257.31 342.68h-8.94c-2.17 0-3.93-1.76-3.93-3.93v-9.36c0-2.17 1.76-3.93 3.93-3.93h8.94c2.17 0 3.93 1.76 3.93 3.93v9.36c-.01 2.17-1.76 3.93-3.93 3.93z" fill="#8d8b7e"/><path d="m285.28 346.07h-14.45c-2.17 0-3.93-1.76-3.93-3.93v-16.37c0-2.17 1.76-3.93 3.93-3.93h14.45c2.17 0 3.93 1.76 3.93 3.93v16.37c-.01 2.18-1.76 3.93-3.93 3.93z" fill="#141312"/><path d="m282.51 342.68h-8.94c-2.17 0-3.93-1.76-3.93-3.93v-9.36c0-2.17 1.76-3.93 3.93-3.93h8.94c2.17 0 3.93 1.76 3.93 3.93v9.36c0 2.17-1.76 3.93-3.93 3.93z" fill="#8d8b7e"/><path d="m310.48 346.07h-14.45c-2.17 0-3.93-1.76-3.93-3.93v-16.37c0-2.17 1.76-3.93 3.93-3.93h14.45c2.17 0 3.93 1.76 3.93 3.93v16.37c0 2.18-1.76 3.93-3.93 3.93z" fill="#141312"/><path d="m307.71 342.68h-8.94c-2.17 0-3.93-1.76-3.93-3.93v-9.36c0-2.17 1.76-3.93 3.93-3.93h8.94c2.17 0 3.93 1.76 3.93 3.93v9.36c0 2.17-1.76 3.93-3.93 3.93z" fill="#8d8b7e"/><path d="m335.68 346.07h-14.45c-2.17 0-3.93-1.76-3.93-3.93v-16.37c0-2.17 1.76-3.93 3.93-3.93h14.45c2.17 0 3.93 1.76 3.93 3.93v16.37c0 2.18-1.76 3.93-3.93 3.93z" fill="#141312"/><path d="m332.91 342.68h-8.94c-2.17 0-3.93-1.76-3.93-3.93v-9.36c0-2.17 1.76-3.93 3.93-3.93h8.94c2.17 0 3.93 1.76 3.93 3.93v9.36c0 2.17-1.76 3.93-3.93 3.93z" fill="#8d8b7e"/><path d="m360.88 346.07h-14.45c-2.17 0-3.93-1.76-3.93-3.93v-16.37c0-2.17 1.76-3.93 3.93-3.93h14.45c2.17 0 3.93 1.76 3.93 3.93v16.37c0 2.18-1.76 3.93-3.93 3.93z" fill="#141312"/><path d="m358.11 342.68h-8.94c-2.17 0-3.93-1.76-3.93-3.93v-9.36c0-2.17 1.76-3.93 3.93-3.93h8.94c2.17 0 3.93 1.76 3.93 3.93v9.36c0 2.17-1.76 3.93-3.93 3.93z" fill="#8d8b7e"/><path d="m386.08 346.07h-14.45c-2.17 0-3.93-1.76-3.93-3.93v-16.37c0-2.17 1.76-3.93 3.93-3.93h14.45c2.17 0 3.93 1.76 3.93 3.93v16.37c0 2.18-1.76 3.93-3.93 3.93z" fill="#141312"/><path d="m383.31 342.68h-8.94c-2.17 0-3.93-1.76-3.93-3.93v-9.36c0-2.17 1.76-3.93 3.93-3.93h8.94c2.17 0 3.93 1.76 3.93 3.93v9.36c0 2.17-1.76 3.93-3.93 3.93z" fill="#8d8b7e"/><path d="m411.98 346.07h-14.45c-2.17 0-3.93-1.76-3.93-3.93v-16.37c0-2.17 1.76-3.93 3.93-3.93h14.45c2.17 0 3.93 1.76 3.93 3.93v16.37c-.01 2.18-1.77 3.93-3.93 3.93z" fill="#141312"/><path d="m409.21 342.68h-8.94c-2.17 0-3.93-1.76-3.93-3.93v-9.36c0-2.17 1.76-3.93 3.93-3.93h8.94c2.17 0 3.93 1.76 3.93 3.93v9.36c-.01 2.17-1.76 3.93-3.93 3.93z" fill="#8d8b7e"/><path d="m437.87 346.07h-14.45c-2.17 0-3.93-1.76-3.93-3.93v-16.37c0-2.17 1.76-3.93 3.93-3.93h14.45c2.17 0 3.93 1.76 3.93 3.93v16.37c0 2.18-1.76 3.93-3.93 3.93z" fill="#141312"/><path d="m435.1 342.68h-8.94c-2.17 0-3.93-1.76-3.93-3.93v-9.36c0-2.17 1.76-3.93 3.93-3.93h8.94c2.17 0 3.93 1.76 3.93 3.93v9.36c0 2.17-1.76 3.93-3.93 3.93z" fill="#df432d"/><path d="m134.59 346.07h-14.45c-2.17 0-3.93-1.76-3.93-3.93v-16.37c0-2.17 1.76-3.93 3.93-3.93h14.45c2.17 0 3.93 1.76 3.93 3.93v16.37c0 2.18-1.76 3.93-3.93 3.93z" fill="#141312"/><path d="m131.83 342.68h-8.94c-2.17 0-3.93-1.76-3.93-3.93v-9.36c0-2.17 1.76-3.93 3.93-3.93h8.94c2.17 0 3.93 1.76 3.93 3.93v9.36c-.01 2.17-1.77 3.93-3.93 3.93z" fill="#8d8b7e"/><path d="m460.75 403.99h-14.45c-2.17 0-3.93-1.76-3.93-3.93v-16.37c0-2.17 1.76-3.93 3.93-3.93h14.45c2.17 0 3.93 1.76 3.93 3.93v16.37c0 2.17-1.76 3.93-3.93 3.93z" fill="#141312"/><path d="m457.98 400.6h-8.94c-2.17 0-3.93-1.76-3.93-3.93v-9.36c0-2.17 1.76-3.93 3.93-3.93h8.94c2.17 0 3.93 1.76 3.93 3.93v9.36c0 2.17-1.76 3.93-3.93 3.93z" fill="#d6cbb5"/><path d="m446.58 374.46h-14.45c-2.17 0-3.93-1.76-3.93-3.93v-16.37c0-2.17 1.76-3.93 3.93-3.93h14.45c2.17 0 3.93 1.76 3.93 3.93v16.37c0 2.18-1.76 3.93-3.93 3.93z" fill="#141312"/><path d="m443.81 371.07h-8.94c-2.17 0-3.93-1.76-3.93-3.93v-9.36c0-2.17 1.76-3.93 3.93-3.93h8.94c2.17 0 3.93 1.76 3.93 3.93v9.36c0 2.17-1.76 3.93-3.93 3.93z" fill="#d6cbb5"/><path d="m421.75 374.46h-14.45c-2.17 0-3.93-1.76-3.93-3.93v-16.37c0-2.17 1.76-3.93 3.93-3.93h14.45c2.17 0 3.93 1.76 3.93 3.93v16.37c0 2.18-1.76 3.93-3.93 3.93z" fill="#141312"/><path d="m418.98 371.07h-8.94c-2.17 0-3.93-1.76-3.93-3.93v-9.36c0-2.17 1.76-3.93 3.93-3.93h8.94c2.17 0 3.93 1.76 3.93 3.93v9.36c0 2.17-1.76 3.93-3.93 3.93z" fill="#d6cbb5"/><path d="m197.05 434.15h-14.45c-2.17 0-3.93-1.76-3.93-3.93v-16.37c0-2.17 1.76-3.93 3.93-3.93h14.45c2.17 0 3.93 1.76 3.93 3.93v16.37c-.01 2.17-1.76 3.93-3.93 3.93z" fill="#141312"/><path d="m194.28 430.75h-8.94c-2.17 0-3.93-1.76-3.93-3.93v-9.36c0-2.17 1.76-3.93 3.93-3.93h8.94c2.17 0 3.93 1.76 3.93 3.93v9.36c0 2.17-1.76 3.93-3.93 3.93z" fill="#8d8b7e"/><path d="m222.25 434.15h-14.45c-2.17 0-3.93-1.76-3.93-3.93v-16.37c0-2.17 1.76-3.93 3.93-3.93h14.45c2.17 0 3.93 1.76 3.93 3.93v16.37c0 2.17-1.76 3.93-3.93 3.93z" fill="#141312"/><path d="m219.48 430.75h-8.94c-2.17 0-3.93-1.76-3.93-3.93v-9.36c0-2.17 1.76-3.93 3.93-3.93h8.94c2.17 0 3.93 1.76 3.93 3.93v9.36c0 2.17-1.76 3.93-3.93 3.93z" fill="#8d8b7e"/><path d="m247.45 434.15h-14.45c-2.17 0-3.93-1.76-3.93-3.93v-16.37c0-2.17 1.76-3.93 3.93-3.93h14.45c2.17 0 3.93 1.76 3.93 3.93v16.37c0 2.17-1.76 3.93-3.93 3.93z" fill="#141312"/><path d="m244.68 430.75h-8.94c-2.17 0-3.93-1.76-3.93-3.93v-9.36c0-2.17 1.76-3.93 3.93-3.93h8.94c2.17 0 3.93 1.76 3.93 3.93v9.36c0 2.17-1.76 3.93-3.93 3.93z" fill="#8d8b7e"/><path d="m272.65 434.15h-14.45c-2.17 0-3.93-1.76-3.93-3.93v-16.37c0-2.17 1.76-3.93 3.93-3.93h14.45c2.17 0 3.93 1.76 3.93 3.93v16.37c0 2.17-1.76 3.93-3.93 3.93z" fill="#141312"/><path d="m269.88 430.75h-8.94c-2.17 0-3.93-1.76-3.93-3.93v-9.36c0-2.17 1.76-3.93 3.93-3.93h8.94c2.17 0 3.93 1.76 3.93 3.93v9.36c0 2.17-1.76 3.93-3.93 3.93z" fill="#8d8b7e"/><path d="m297.85 434.15h-14.45c-2.17 0-3.93-1.76-3.93-3.93v-16.37c0-2.17 1.76-3.93 3.93-3.93h14.45c2.17 0 3.93 1.76 3.93 3.93v16.37c0 2.17-1.76 3.93-3.93 3.93z" fill="#141312"/><path d="m295.08 430.75h-8.94c-2.17 0-3.93-1.76-3.93-3.93v-9.36c0-2.17 1.76-3.93 3.93-3.93h8.94c2.17 0 3.93 1.76 3.93 3.93v9.36c0 2.17-1.76 3.93-3.93 3.93z" fill="#8d8b7e"/><path d="m323.05 434.15h-14.45c-2.17 0-3.93-1.76-3.93-3.93v-16.37c0-2.17 1.76-3.93 3.93-3.93h14.45c2.17 0 3.93 1.76 3.93 3.93v16.37c0 2.17-1.76 3.93-3.93 3.93z" fill="#141312"/><path d="m320.28 430.75h-8.94c-2.17 0-3.93-1.76-3.93-3.93v-9.36c0-2.17 1.76-3.93 3.93-3.93h8.94c2.17 0 3.93 1.76 3.93 3.93v9.36c0 2.17-1.76 3.93-3.93 3.93z" fill="#8d8b7e"/><path d="m348.25 434.15h-14.45c-2.17 0-3.93-1.76-3.93-3.93v-16.37c0-2.17 1.76-3.93 3.93-3.93h14.45c2.17 0 3.93 1.76 3.93 3.93v16.37c0 2.17-1.76 3.93-3.93 3.93z" fill="#141312"/><path d="m345.48 430.75h-8.94c-2.17 0-3.93-1.76-3.93-3.93v-9.36c0-2.17 1.76-3.93 3.93-3.93h8.94c2.17 0 3.93 1.76 3.93 3.93v9.36c0 2.17-1.76 3.93-3.93 3.93z" fill="#8d8b7e"/><path d="m373.46 434.15h-14.46c-2.17 0-3.93-1.76-3.93-3.93v-16.37c0-2.17 1.76-3.93 3.93-3.93h14.45c2.17 0 3.93 1.76 3.93 3.93v16.37c0 2.17-1.76 3.93-3.92 3.93z" fill="#141312"/><path d="m370.69 430.75h-8.94c-2.17 0-3.93-1.76-3.93-3.93v-9.36c0-2.17 1.76-3.93 3.93-3.93h8.94c2.17 0 3.93 1.76 3.93 3.93v9.36c-.01 2.17-1.76 3.93-3.93 3.93z" fill="#8d8b7e"/><path d="m398.66 434.15h-14.46c-2.17 0-3.93-1.76-3.93-3.93v-16.37c0-2.17 1.76-3.93 3.93-3.93h14.45c2.17 0 3.93 1.76 3.93 3.93v16.37c0 2.17-1.75 3.93-3.92 3.93z" fill="#141312"/><path d="m395.89 430.75h-8.94c-2.17 0-3.93-1.76-3.93-3.93v-9.36c0-2.17 1.76-3.93 3.93-3.93h8.94c2.17 0 3.93 1.76 3.93 3.93v9.36c0 2.17-1.76 3.93-3.93 3.93z" fill="#8d8b7e"/></g><g transform="matrix(.58694176 0 0 .58694176 591.81285 335.47598)"><path d="m95.717697 216.67099c-26.265856-.11631-61.090432-.35337-77.38792-.52682-33.129821-.3526-62.831432-.40223-77.100248-.12885-10.510202.20135-13.151493-.0482-16.049078-1.51654-2.802507-1.42014-5.024651-4.06427-5.888349-7.00658-1.201587-4.09335-1.27366-5.0769-1.172508-16.00059.0865-9.34081.157027-10.71821.589408-11.51062.270136-.49507.675625-.97091.901086-1.05743.225462-.0866 1.768528-.24831 3.429035-.35953l3.019102-.20225.197773-15.85774c.108787-8.72175.156379-18.90003.105797-22.61839l-.09199-6.76065-2.589183-.21841c-3.134708-.26443-3.705522-.48776-4.373396-1.71102-.484988-.88828-.52367-2.58231-.619447-27.12701-.108395-27.779281.412156-125.305614.811123-151.96457l.237778-15.888406.856785-1.804379c1.224392-2.578553 2.388956-4.036196 3.990866-4.995193l1.39779-.836814h195.195969 195.19594l1.32629.613336c1.93039.892682 4.46774 3.563222 5.53718 5.827876l.89811 1.901728.22221 15.678965c.12223 8.623436.18832 52.3806938.14686 97.238366l-.0754 81.559401-.60263 1.15075c-.51964.99235-.79683 1.19644-2.01381 1.48274-.77615.1826-2.20412.34443-3.17327.35961-1.73556.0272-1.76479.0411-1.94189.92664-.24229 1.21148-.18882 41.47875.0573 43.11716l.19444 1.29459 2.88271.1754c3.31221.20154 4.019.37341 4.35188 1.05823.13168.27087.28107 5.86506.33194 12.43153.09 11.60889.075 11.99869-.54218 14.09668-.84393 2.86882-1.97226 4.80624-3.81295 6.54707-2.59529 2.4545-2.63649 2.46563-9.97205 2.69395-8.25416.2569-151.81015.21524-214.471025-.0622z" fill="#1a1a1a" stroke-width=".287687"/><g fill-rule="evenodd"><g stroke-width="1.7"><path d="m-682.75434-512.81111-232.02067 2.74797-237.47319-.0169 113.6305-202.30978 118.75126-205.64939 118.39015 199.56181z" transform="matrix(.25612641 0 0 .13421231 356.31804 74.929929)"/><path d="m-682.75434-512.81111-232.02067 2.74797-237.47319-.0169 113.6305-202.30978 118.75126-205.64939 118.39015 199.56181z" fill="#4d4d4d" transform="matrix(.2391043 0 0 .12529258 340.70022 69.136163)"/><path d="m-682.75434-512.81111-232.02067 2.74797-237.47319-.0169 113.6305-202.30978 118.75126-205.64939 118.39015 199.56181z" fill="#1a1a1a" transform="matrix(.22906056 0 0 .12002957 331.48509 65.598782)"/></g><rect height="183.88162" ry="13.98178" stroke-width=".408768" width="351.16684" x="-54.2617" y="31.958941"/><path d="m-54.261688 52.672455h351.166838v163.168115h-351.166838z" stroke-width=".385057"/><rect fill="#1a1a1a" height="179.7617" ry="13.668513" stroke-width=".401487" width="346.53375" x="-51.945156" y="34.384964"/><path d="m-51.492713 51.218016h345.628883v162.095944h-345.628883z" fill="#1a1a1a" stroke-width=".380751"/><rect fill="#b3b3b3" height="174.30316" ry="13.253462" stroke-width=".389295" width="336.01111" x="-46.683819" y="39.843517"/><path d="m-46.541298 56.364201h335.708798v159.694499h-335.708798z" fill="#b3b3b3" stroke-width=".372459"/></g><g stroke-width=".029644" transform="matrix(13.271652 0 0 13.271652 -790.34191 -4648.4882)"><path d="m57.389595 360.51324h7.113798v1.58085h-7.113798z" fill="#ce2027"/><path d="m65.135638 360.51324h7.113767v1.58085h-7.113767z" fill="#0f7c3e"/><path d="m72.881739 360.51324h7.113768v1.58085h-7.113768z" fill="#233d98"/></g><g transform="matrix(.39342365744 0 0 .39342365744 -425.37900502668 50.8352232196)"><path d="m1141.032 112.394h78.116v15.623h-31.246v54.682h-15.624v-54.682h-31.246z"/><path d="m1254.104 155.357v27.341h-15.623v-70.305h54.681c15.624 0 23.436 7.135 23.436 21.404 0 6.771-1.12 11.744-3.358 14.92 2.238 3.698 3.358 8.515 3.358 14.452v19.529h-15.623v-19.529c0-5.208-2.604-7.812-7.813-7.812zm0-15.623h46.869v-11.718h-46.869z"/><path d="m1431.596 155.357v-11.717h26.988v11.717z"/><path d="m1553.785 128.017h-62.025v11.718h39.061c15.623 0 23.435 7.161 23.435 21.482 0 14.322-7.812 21.482-23.435 21.482h-31.247c-13.228 0-20.856-5.207-22.888-15.624h61.945v-11.717h-39.059c-15.623 0-23.436-7.056-23.436-21.169 0-14.53 7.813-21.794 23.436-21.794h31.247c13.331-.001 20.988 5.207 22.966 15.622zm-77.099 39.058c-.366-1.875-.547-3.931-.547-6.171 0-5.52 1.196-9.972 3.592-13.358 3.75 5.208 10.363 7.812 19.843 7.812h-7.813v11.717zm73.897-19.529c2.446-3.437 3.671-7.993 3.671-13.67 0-2.083-.156-4.036-.469-5.859h-15.154v11.718h-7.813c9.427-.001 16.015 2.603 19.765 7.811z"/><path d="m1566.867 159.264v-23.435c0-15.624 7.812-23.435 23.435-23.435h23.437c15.623 0 23.435 7.812 23.435 23.435v23.435c0 15.623-7.812 23.435-23.435 23.435h-23.437c-15.623-.001-23.435-7.812-23.435-23.435zm46.87 7.811c5.204 0 7.811-2.603 7.811-7.811v-23.435c0-5.208-2.604-7.812-7.811-7.812h-23.437c-5.209 0-7.812 2.604-7.812 7.812v23.435c0 5.208 2.603 7.811 7.812 7.811z"/><path d="m1333.125 159.36h20.171c0 5.042 2.837 8.51 6.775 8.51h36.327c2.836 0 3.781-2.049 3.781-4.886 0-2.836 1.26-8.981-4.412-8.981-5.674 0-38.848 0-44.363 0s-18.437-4.57-18.437-20.013 10.085-21.116 17.177-21.116h53.576c6.461 0 12.447 2.994 12.447 19.54-4.727 0-19.064 0-19.064 0 0-3.624-1.893-6.183-8.511-6.183-6.616 0-23.719 0-28.445 0-4.728 0-6.46.353-6.46 7.759s4.254 6.813 7.404 6.813h44.992c7.721 0 14.971 7.841 14.971 19.975 0 12.133-5.832 22.458-18.278 22.458-12.449 0-47.116 0-53.421 0-6.301.001-16.23-3.075-16.23-23.876z"/></g></g></svg>