<?xml version="1.0" encoding="UTF-8" standalone="no"?>
<svg
   enable-background="new 0 0 501 278.5"
   viewBox="0 0 501 278.5"
   version="1.1"
   id="svg190"
   sodipodi:docname="electron.svg"
   xml:space="preserve"
   inkscape:version="1.4.2 (f4327f4, 2025-05-13)"
   xmlns:inkscape="http://www.inkscape.org/namespaces/inkscape"
   xmlns:sodipodi="http://sodipodi.sourceforge.net/DTD/sodipodi-0.dtd"
   xmlns:xlink="http://www.w3.org/1999/xlink"
   xmlns="http://www.w3.org/2000/svg"
   xmlns:svg="http://www.w3.org/2000/svg"><defs
     id="defs190"><linearGradient
       id="linearGradient306"><stop
         offset="0"
         stop-color="#131313"
         id="stop305"
         style="stop-color:#cabfa3;stop-opacity:1;" /><stop
         offset="1"
         id="stop306"
         style="stop-color:#cabfa3;stop-opacity:1;" /></linearGradient><linearGradient
       id="linearGradient304"><stop
         offset="0"
         stop-color="#131313"
         id="stop303"
         style="stop-color:#cabfa3;stop-opacity:1;" /><stop
         offset="1"
         id="stop304"
         style="stop-color:#cabfa3;stop-opacity:1;" /></linearGradient><linearGradient
       id="linearGradient302"><stop
         offset="0"
         stop-color="#131313"
         id="stop301"
         style="stop-color:#cabfa3;stop-opacity:1;" /><stop
         offset="1"
         id="stop302"
         style="stop-color:#cabfa3;stop-opacity:1;" /></linearGradient></defs><sodipodi:namedview
     id="namedview190"
     pagecolor="#ffffff"
     bordercolor="#000000"
     borderopacity="0.25"
     inkscape:showpageshadow="2"
     inkscape:pageopacity="0.0"
     inkscape:pagecheckerboard="0"
     inkscape:deskcolor="#d1d1d1"
     inkscape:zoom="1.4142136"
     inkscape:cx="156.62415"
     inkscape:cy="86.62058"
     inkscape:window-width="1920"
     inkscape:window-height="1009"
     inkscape:window-x="-8"
     inkscape:window-y="-8"
     inkscape:window-maximized="1"
     inkscape:current-layer="svg190" /><linearGradient
     id="a"
     gradientUnits="userSpaceOnUse"
     x1="0"
     x2="501"
     y1="31"
     y2="31"
     gradientTransform="translate(0.47335945,0.9361799)"><stop
       offset="0"
       stop-color="#131313"
       id="stop1"
       style="stop-color:#cabfa3;stop-opacity:1;" /><stop
       offset="0.1284"
       stop-color="#141414"
       id="stop2"
       style="stop-color:#cabfa3;stop-opacity:1;" /><stop
       offset="0.2757"
       stop-color="#181616"
       id="stop3"
       style="stop-color:#cabfa3;stop-opacity:1;" /><stop
       offset="0.43239999"
       stop-color="#1c1919"
       id="stop4"
       style="stop-color:#cabfa3;stop-opacity:1;" /><stop
       offset="0.59549999"
       stop-color="#1f1d1d"
       id="stop5"
       style="stop-color:#cabfa3;stop-opacity:1;" /><stop
       offset="0.76380002"
       stop-color="#211f20"
       id="stop6"
       style="stop-color:#cabfa3;stop-opacity:1;" /><stop
       offset="0.93379998"
       stop-color="#121112"
       id="stop7"
       style="stop-color:#cabfa3;stop-opacity:1;" /><stop
       offset="1"
       id="stop8"
       style="stop-color:#cabfa3;stop-opacity:1;" /></linearGradient><linearGradient
     id="b"><stop
       offset="0"
       stop-color="#131313"
       id="stop9" /><stop
       offset="1"
       id="stop10" /></linearGradient><linearGradient
     id="c"
     gradientUnits="userSpaceOnUse"
     x1="0"
     x2="501"
     xlink:href="#linearGradient304"
     y1="143.2196"
     y2="143.2196"
     gradientTransform="translate(0.36829057,1.1054325)" /><linearGradient
     id="d"
     gradientUnits="userSpaceOnUse"
     x1="74.0259"
     x2="88.5741"
     xlink:href="#b"
     y1="149.6759"
     y2="135.1277"
     gradientTransform="translate(-39.59798,0.7426407)" /><linearGradient
     id="e"
     gradientUnits="userSpaceOnUse"
     x1="40.7708"
     x2="40.7708"
     xlink:href="#linearGradient302"
     y1="224"
     y2="62.3889"
     gradientTransform="translate(-0.49626049,-25.517333)" /><linearGradient
     id="f"
     gradientUnits="userSpaceOnUse"
     x1="3.5016"
     x2="497.4984"
     xlink:href="#linearGradient306"
     y1="251.4722"
     y2="251.4722"
     gradientTransform="translate(0.33147481,-1.3000801)" /><linearGradient
     id="g"><stop
       offset="0"
       stop-color="#131212"
       id="stop11" /><stop
       offset="1"
       stop-color="#1e1b1c"
       id="stop12" /></linearGradient><linearGradient
     id="h"
     gradientUnits="userSpaceOnUse"
     x1="96.2256"
     x2="119.9411"
     xlink:href="#g"
     y1="89.1911"
     y2="65.4756" /><linearGradient
     id="i"
     gradientUnits="userSpaceOnUse"
     x1="98.2685"
     x2="121.984"
     xlink:href="#g"
     y1="141.8853"
     y2="118.1698" /><linearGradient
     id="j"
     gradientUnits="userSpaceOnUse"
     x1="106.3519"
     x2="130.0674"
     xlink:href="#g"
     y1="167.6906"
     y2="143.9751" /><linearGradient
     id="k"
     gradientUnits="userSpaceOnUse"
     x1="106.3519"
     x2="130.0674"
     xlink:href="#g"
     y1="219.3013"
     y2="195.5858" /><linearGradient
     id="l"
     gradientUnits="userSpaceOnUse"
     x1="136.144"
     x2="159.5141"
     xlink:href="#g"
     y1="89.0184"
     y2="65.6483" /><linearGradient
     id="m"
     gradientUnits="userSpaceOnUse"
     x1="175.3714"
     x2="198.7415"
     xlink:href="#g"
     y1="89.0184"
     y2="65.6483" /><linearGradient
     id="n"
     gradientUnits="userSpaceOnUse"
     x1="214.5988"
     x2="237.9689"
     xlink:href="#g"
     y1="89.0184"
     y2="65.6483" /><linearGradient
     id="o"
     gradientUnits="userSpaceOnUse"
     x1="253.8262"
     x2="277.1963"
     xlink:href="#g"
     y1="89.0184"
     y2="65.6483" /><linearGradient
     id="p"
     gradientUnits="userSpaceOnUse"
     x1="293.0536"
     x2="316.4237"
     xlink:href="#g"
     y1="89.0184"
     y2="65.6483" /><linearGradient
     id="q"
     gradientUnits="userSpaceOnUse"
     x1="332.2809"
     x2="355.6511"
     xlink:href="#g"
     y1="89.0184"
     y2="65.6483" /><linearGradient
     id="r"
     gradientUnits="userSpaceOnUse"
     x1="371.5083"
     x2="394.8784"
     xlink:href="#g"
     y1="89.0184"
     y2="65.6483" /><linearGradient
     id="s"
     gradientUnits="userSpaceOnUse"
     x1="410.7357"
     x2="434.1058"
     xlink:href="#g"
     y1="89.0184"
     y2="65.6483" /><linearGradient
     id="t"
     gradientUnits="userSpaceOnUse"
     x1="453.1983"
     x2="481.0928"
     y1="91.2806"
     y2="63.3861"
     gradientTransform="translate(19.445436,-0.35355339)"><stop
       offset="0"
       stop-color="#9f1e22"
       id="stop13" /><stop
       offset="1"
       stop-color="#771215"
       id="stop14" /></linearGradient><linearGradient
     id="u"
     gradientUnits="userSpaceOnUse"
     x1="93.1025"
     x2="112.0084"
     xlink:href="#g"
     y1="113.6751"
     y2="94.7692" /><linearGradient
     id="v"
     gradientUnits="userSpaceOnUse"
     x1="102.3525"
     x2="121.2584"
     xlink:href="#g"
     y1="191.0911"
     y2="172.1852" /><linearGradient
     id="w"
     gradientUnits="userSpaceOnUse"
     x1="128.0361"
     x2="146.942"
     xlink:href="#g"
     y1="191.0911"
     y2="172.1852" /><linearGradient
     id="x"
     gradientUnits="userSpaceOnUse"
     x1="140.6609"
     x2="159.5668"
     xlink:href="#g"
     y1="216.8965"
     y2="197.9906" /><linearGradient
     id="y"
     gradientUnits="userSpaceOnUse"
     x1="374.9839"
     x2="398.6995"
     xlink:href="#g"
     y1="219.3014"
     y2="195.5859" /><linearGradient
     id="z"
     gradientUnits="userSpaceOnUse"
     x1="460.3643"
     x2="484.0798"
     xlink:href="#g"
     y1="116.0799"
     y2="92.3644" /><linearGradient
     id="A"
     gradientUnits="userSpaceOnUse"
     x1="454.6589"
     x2="478.3744"
     xlink:href="#g"
     y1="167.6905"
     y2="143.975" /><linearGradient
     id="B"
     gradientUnits="userSpaceOnUse"
     x1="468.6581"
     x2="487.564"
     xlink:href="#g"
     y1="139.4806"
     y2="120.5747" /><linearGradient
     id="C"
     gradientUnits="userSpaceOnUse"
     x1="436.8225"
     x2="455.7284"
     xlink:href="#g"
     y1="191.0912"
     y2="172.1853" /><linearGradient
     id="D"
     gradientUnits="userSpaceOnUse"
     x1="436.8225"
     x2="455.7284"
     xlink:href="#g"
     y1="216.8965"
     y2="197.9906" /><linearGradient
     id="E"
     gradientUnits="userSpaceOnUse"
     x1="403.5987"
     x2="435.4073"
     xlink:href="#g"
     y1="210.4453"
     y2="178.6367" /><linearGradient
     id="F"
     gradientUnits="userSpaceOnUse"
     x1="456.5013"
     x2="488.3099"
     xlink:href="#g"
     y1="210.4453"
     y2="178.6367" /><path
     d="m 3.5153595,62.936184 v -5.264 c 0,-0.568 -0.46,-1.028 -1.028,-1.028 H 0.47335945 V 6.1861799 c 0,-2.899 2.35100005,-5.25 5.25000005,-5.25 H 496.22336 c 2.9,0 5.25,2.351 5.25,5.25 V 62.936184 Z"
     fill="url(#a)"
     id="path14"
     style="fill:url(#a)" /><path
     d="m 501.36829,63.100432 c -7.184,0 -500.99999943,0.005 -500.99999943,0.005 0,0 3.50200003,149.555998 3.50200003,162.443998 H 497.86729 l 3.501,-155.887998 v -6.556 z"
     fill="url(#c)"
     id="path16"
     style="fill:url(#c)" /><path
     d="m 43.25302,156.77064 h -2.473 l -0.629,-27.252 h 2.473 z"
     fill="url(#d)"
     id="path18"
     style="fill:url(#d)" /><path
     d="M 80.628742,198.48266 H 3.5017395 L -0.07926049,38.635666 c -0.022,-0.968 0.751,-1.764 1.71199999,-1.764 H 77.046742 Z"
     fill="url(#e)"
     id="path19"
     style="fill:url(#e)" /><path
     d="M 489.04047,277.19992 H 12.629475 c -2.128,0 -3.853,-1.725 -3.853,-3.853 l -4.9430002,-50.202 H 497.83047 l -4.943,50.209 c 0,2.124 -1.723,3.846 -3.847,3.846 z"
     fill="url(#f)"
     id="path21"
     style="fill:url(#f)" /><path
     d="m 62.741054,223.46657 c -2.211407,0 -4.009938,-1.79853 -4.009938,-4.00993 v -73.94922 h -4.13078 c -2.211407,0 -4.009937,-1.74818 -4.009937,-3.89816 V 91.939206 C 49.348748,91.248393 48.533065,89.926181 48.533065,88.433783 V 68.25721 c 0,-2.211407 1.799538,-4.009937 4.009938,-4.009937 H 450.15823 c 2.39368,0 4.34226,1.947569 4.34226,4.341246 v 73.358091 c 0,1.96368 -1.59814,3.56182 -3.56182,3.56182 h -2.18422 v 74.39733 c 0,1.96369 -1.59712,3.56182 -3.5608,3.56182 H 62.741054 Z"
     fill="#0d0d0d"
     id="path22"
     style="stroke-width:1.00702" /><path
     d="M 77.98502,115.47564 V 94.454641 c 0,-1.099 0.891,-1.99 1.99,-1.99 h 19.148 c 1.099,0 1.99,0.891 1.99,1.99 v 21.019999 c 0,1.099 -0.891,1.99 -1.99,1.99 h -19.149 c -1.098,0 -1.989,-0.89 -1.989,-1.989 z"
     fill="#cabfa3"
     id="path55" /><path
     d="m 97.51702,114.63464 h -15.936 c -1.099,0 -1.99,-0.891 -1.99,-1.99 v -15.36 c 0,-1.098999 0.891,-1.989999 1.99,-1.989999 h 15.936 c 1.099,0 1.99,0.891 1.99,1.989999 v 15.36 c 0,1.099 -0.891,1.99 -1.99,1.99 z"
     fill="#ddd6ba"
     id="path56" /><path
     d="M 51.599535,115.46766 V 94.446661 c 0,-1.099 0.891,-1.99 1.99,-1.99 H 72.73754 c 1.099,0 1.99,0.891 1.99,1.99 v 21.019999 c 0,1.099 -0.891,1.99 -1.99,1.99 H 53.588535 c -1.098,0 -1.989,-0.89 -1.989,-1.989 z"
     fill="#cabfa3"
     id="path55-2" /><path
     d="M 71.13154,114.62666 H 55.195535 c -1.099,0 -1.99,-0.891 -1.99,-1.99 v -15.36 c 0,-1.098999 0.891,-1.989999 1.99,-1.989999 H 71.13154 c 1.099,0 1.99,0.891 1.99,1.989999 v 15.36 c 0,1.099 -0.891,1.99 -1.99,1.99 z"
     fill="#ddd6ba"
     id="path56-4" /><path
     d="m 446.09353,87.818662 h -32.41489 c -2.23545,0 -4.0478,-0.912911 -4.0478,-2.038936 V 70.042013 c 0,-1.126025 1.81235,-2.038935 4.0478,-2.038935 h 32.41489 c 2.23544,0 4.04779,0.91291 4.04779,2.038935 v 15.737713 c 0,1.126025 -1.81235,2.038936 -4.04779,2.038936 z"
     fill="#ddd6ba"
     id="path56-1-1-5-5"
     style="stroke-width:1.44363" /><path
     d="M 103.89802,115.47564 V 94.454641 c 0,-1.099 0.891,-1.99 1.99,-1.99 h 19.148 c 1.099,0 1.99,0.891 1.99,1.99 v 21.019999 c 0,1.099 -0.891,1.99 -1.99,1.99 h -19.149 c -1.098,0 -1.989,-0.89 -1.989,-1.989 z"
     fill="#cabfa3"
     id="path57" /><path
     d="m 123.43002,114.63464 h -15.936 c -1.099,0 -1.99,-0.891 -1.99,-1.99 v -15.36 c 0,-1.098999 0.891,-1.989999 1.99,-1.989999 h 15.936 c 1.099,0 1.99,0.891 1.99,1.989999 v 15.36 c 0,1.099 -0.891,1.99 -1.99,1.99 z"
     fill="#ddd6ba"
     id="path58" /><path
     d="M 129.81102,115.47564 V 94.454641 c 0,-1.099 0.891,-1.99 1.99,-1.99 h 19.148 c 1.099,0 1.99,0.891 1.99,1.99 v 21.019999 c 0,1.099 -0.891,1.99 -1.99,1.99 h -19.149 c -1.098,0 -1.989,-0.89 -1.989,-1.989 z"
     fill="#cabfa3"
     id="path59" /><path
     d="m 149.34302,114.63464 h -15.936 c -1.099,0 -1.99,-0.891 -1.99,-1.99 v -15.36 c 0,-1.098999 0.891,-1.989999 1.99,-1.989999 h 15.936 c 1.099,0 1.99,0.891 1.99,1.989999 v 15.36 c 0,1.099 -0.891,1.99 -1.99,1.99 z"
     fill="#ddd6ba"
     id="path60" /><path
     d="M 155.72402,115.47564 V 94.454641 c 0,-1.099 0.891,-1.99 1.99,-1.99 h 19.148 c 1.099,0 1.99,0.891 1.99,1.99 v 21.019999 c 0,1.099 -0.891,1.99 -1.99,1.99 h -19.149 c -1.098,0 -1.989,-0.89 -1.989,-1.989 z"
     fill="#cabfa3"
     id="path61" /><path
     d="m 175.25602,114.63464 h -15.936 c -1.099,0 -1.99,-0.891 -1.99,-1.99 v -15.36 c 0,-1.098999 0.891,-1.989999 1.99,-1.989999 h 15.936 c 1.099,0 1.99,0.891 1.99,1.989999 v 15.36 c 0,1.099 -0.891,1.99 -1.99,1.99 z"
     fill="#ddd6ba"
     id="path62" /><path
     d="M 181.63702,115.47564 V 94.454641 c 0,-1.099 0.891,-1.99 1.99,-1.99 h 19.148 c 1.099,0 1.99,0.891 1.99,1.99 v 21.019999 c 0,1.099 -0.891,1.99 -1.99,1.99 h -19.149 c -1.098,0 -1.989,-0.89 -1.989,-1.989 z"
     fill="#cabfa3"
     id="path63" /><path
     d="m 201.16902,114.63464 h -15.936 c -1.099,0 -1.99,-0.891 -1.99,-1.99 v -15.36 c 0,-1.098999 0.891,-1.989999 1.99,-1.989999 h 15.936 c 1.099,0 1.99,0.891 1.99,1.989999 v 15.36 c 0,1.099 -0.891,1.99 -1.99,1.99 z"
     fill="#ddd6ba"
     id="path64" /><path
     d="M 207.55002,115.47564 V 94.454641 c 0,-1.099 0.891,-1.99 1.99,-1.99 h 19.148 c 1.099,0 1.99,0.891 1.99,1.99 v 21.019999 c 0,1.099 -0.891,1.99 -1.99,1.99 h -19.149 c -1.098,0 -1.989,-0.89 -1.989,-1.989 z"
     fill="#cabfa3"
     id="path65" /><path
     d="m 227.08202,114.63464 h -15.936 c -1.099,0 -1.99,-0.891 -1.99,-1.99 v -15.36 c 0,-1.098999 0.891,-1.989999 1.99,-1.989999 h 15.936 c 1.099,0 1.99,0.891 1.99,1.989999 v 15.36 c 0,1.099 -0.891,1.99 -1.99,1.99 z"
     fill="#ddd6ba"
     id="path66" /><path
     d="M 233.46302,115.47564 V 94.454641 c 0,-1.099 0.891,-1.99 1.99,-1.99 h 19.148 c 1.099,0 1.99,0.891 1.99,1.99 v 21.019999 c 0,1.099 -0.891,1.99 -1.99,1.99 h -19.149 c -1.098,0 -1.989,-0.89 -1.989,-1.989 z"
     fill="#cabfa3"
     id="path67" /><path
     d="m 252.99502,114.63464 h -15.936 c -1.099,0 -1.99,-0.891 -1.99,-1.99 v -15.36 c 0,-1.098999 0.891,-1.989999 1.99,-1.989999 h 15.936 c 1.099,0 1.99,0.891 1.99,1.989999 v 15.36 c 0,1.099 -0.891,1.99 -1.99,1.99 z"
     fill="#ddd6ba"
     id="path68" /><path
     d="M 259.37602,115.47564 V 94.454641 c 0,-1.099 0.891,-1.99 1.99,-1.99 h 19.148 c 1.099,0 1.99,0.891 1.99,1.99 v 21.019999 c 0,1.099 -0.891,1.99 -1.99,1.99 h -19.149 c -1.098,0 -1.989,-0.89 -1.989,-1.989 z"
     fill="#cabfa3"
     id="path69" /><path
     d="m 278.90802,114.63464 h -15.936 c -1.099,0 -1.99,-0.891 -1.99,-1.99 v -15.36 c 0,-1.098999 0.891,-1.989999 1.99,-1.989999 h 15.936 c 1.099,0 1.99,0.891 1.99,1.989999 v 15.36 c 0,1.099 -0.891,1.99 -1.99,1.99 z"
     fill="#ddd6ba"
     id="path70" /><path
     d="M 285.28902,115.47564 V 94.454641 c 0,-1.099 0.891,-1.99 1.99,-1.99 h 19.148 c 1.099,0 1.99,0.891 1.99,1.99 v 21.019999 c 0,1.099 -0.891,1.99 -1.99,1.99 h -19.149 c -1.098,0 -1.989,-0.89 -1.989,-1.989 z"
     fill="#cabfa3"
     id="path71" /><path
     d="m 304.82102,114.63464 h -15.936 c -1.099,0 -1.99,-0.891 -1.99,-1.99 v -15.36 c 0,-1.098999 0.891,-1.989999 1.99,-1.989999 h 15.936 c 1.099,0 1.99,0.891 1.99,1.989999 v 15.36 c 0,1.099 -0.891,1.99 -1.99,1.99 z"
     fill="#ddd6ba"
     id="path72" /><path
     d="M 311.20202,115.47564 V 94.454641 c 0,-1.099 0.891,-1.99 1.99,-1.99 h 19.148 c 1.099,0 1.99,0.891 1.99,1.99 v 21.019999 c 0,1.099 -0.891,1.99 -1.99,1.99 h -19.149 c -1.098,0 -1.989,-0.89 -1.989,-1.989 z"
     fill="#cabfa3"
     id="path73" /><path
     d="m 330.73402,114.63464 h -15.936 c -1.099,0 -1.99,-0.891 -1.99,-1.99 v -15.36 c 0,-1.098999 0.891,-1.989999 1.99,-1.989999 h 15.936 c 1.099,0 1.99,0.891 1.99,1.989999 v 15.36 c 0,1.099 -0.891,1.99 -1.99,1.99 z"
     fill="#ddd6ba"
     id="path74" /><path
     d="M 337.11502,115.47564 V 94.454641 c 0,-1.099 0.891,-1.99 1.99,-1.99 h 19.148 c 1.099,0 1.99,0.891 1.99,1.99 v 21.019999 c 0,1.099 -0.891,1.99 -1.99,1.99 h -19.149 c -1.099,0 -1.989,-0.89 -1.989,-1.989 z"
     fill="#cabfa3"
     id="path75" /><path
     d="m 356.64702,114.63464 h -15.936 c -1.099,0 -1.99,-0.891 -1.99,-1.99 v -15.36 c 0,-1.098999 0.891,-1.989999 1.99,-1.989999 h 15.936 c 1.099,0 1.99,0.891 1.99,1.989999 v 15.36 c 0,1.099 -0.891,1.99 -1.99,1.99 z"
     fill="#ddd6ba"
     id="path76" /><path
     d="M 363.02802,115.47564 V 94.454641 c 0,-1.099 0.891,-1.99 1.99,-1.99 h 19.148 c 1.099,0 1.99,0.891 1.99,1.99 v 21.019999 c 0,1.099 -0.891,1.99 -1.99,1.99 h -19.149 c -1.099,0 -1.989,-0.89 -1.989,-1.989 z"
     fill="#cabfa3"
     id="path77" /><path
     d="m 382.56002,114.63464 h -15.936 c -1.099,0 -1.99,-0.891 -1.99,-1.99 v -15.36 c 0,-1.098999 0.891,-1.989999 1.99,-1.989999 h 15.936 c 1.099,0 1.99,0.891 1.99,1.989999 v 15.36 c 0,1.099 -0.891,1.99 -1.99,1.99 z"
     fill="#ddd6ba"
     id="path78" /><path
     d="M 388.94102,115.47564 V 94.454641 c 0,-1.099 0.891,-1.99 1.99,-1.99 h 19.148 c 1.099,0 1.99,0.891 1.99,1.99 v 21.019999 c 0,1.099 -0.891,1.99 -1.99,1.99 h -19.149 c -1.099,0 -1.989,-0.89 -1.989,-1.989 z"
     fill="#cabfa3"
     id="path79" /><path
     d="m 408.47302,114.63464 h -15.936 c -1.099,0 -1.99,-0.891 -1.99,-1.99 v -15.36 c 0,-1.098999 0.891,-1.989999 1.99,-1.989999 h 15.936 c 1.099,0 1.99,0.891 1.99,1.989999 v 15.36 c -10e-4,1.099 -0.891,1.99 -1.99,1.99 z"
     fill="#ddd6ba"
     id="path80" /><path
     d="m 90.69402,141.28064 v -21.021 c 0,-1.099 0.891,-1.99 1.99,-1.99 h 19.148 c 1.099,0 1.99,0.891 1.99,1.99 v 21.021 c 0,1.099 -0.891,1.99 -1.99,1.99 h -19.149 c -1.098,0 -1.989,-0.891 -1.989,-1.99 z"
     fill="#cabfa3"
     id="path81" /><path
     d="m 110.22602,140.43964 h -15.936 c -1.099,0 -1.99,-0.891 -1.99,-1.99 v -15.36 c 0,-1.099 0.891,-1.99 1.99,-1.99 h 15.936 c 1.099,0 1.99,0.891 1.99,1.99 v 15.36 c 0,1.1 -0.891,1.99 -1.99,1.99 z"
     fill="#ddd6ba"
     id="path82" /><path
     d="m 116.60702,141.28064 v -21.021 c 0,-1.099 0.891,-1.99 1.99,-1.99 h 19.148 c 1.099,0 1.99,0.891 1.99,1.99 v 21.021 c 0,1.099 -0.891,1.99 -1.99,1.99 h -19.149 c -1.098,0 -1.989,-0.891 -1.989,-1.99 z"
     fill="#cabfa3"
     id="path83" /><path
     d="m 136.13902,140.43964 h -15.936 c -1.099,0 -1.99,-0.891 -1.99,-1.99 v -15.36 c 0,-1.099 0.891,-1.99 1.99,-1.99 h 15.936 c 1.099,0 1.99,0.891 1.99,1.99 v 15.36 c 0,1.1 -0.891,1.99 -1.99,1.99 z"
     fill="#ddd6ba"
     id="path84" /><path
     d="m 142.52002,141.28064 v -21.021 c 0,-1.099 0.891,-1.99 1.99,-1.99 h 19.148 c 1.099,0 1.99,0.891 1.99,1.99 v 21.021 c 0,1.099 -0.891,1.99 -1.99,1.99 h -19.149 c -1.098,0 -1.989,-0.891 -1.989,-1.99 z"
     fill="#cabfa3"
     id="path85" /><path
     d="m 162.05202,140.43964 h -15.936 c -1.099,0 -1.99,-0.891 -1.99,-1.99 v -15.36 c 0,-1.099 0.891,-1.99 1.99,-1.99 h 15.936 c 1.099,0 1.99,0.891 1.99,1.99 v 15.36 c 0,1.1 -0.891,1.99 -1.99,1.99 z"
     fill="#ddd6ba"
     id="path86" /><path
     d="m 168.43302,141.28064 v -21.021 c 0,-1.099 0.891,-1.99 1.99,-1.99 h 19.148 c 1.099,0 1.99,0.891 1.99,1.99 v 21.021 c 0,1.099 -0.891,1.99 -1.99,1.99 h -19.149 c -1.098,0 -1.989,-0.891 -1.989,-1.99 z"
     fill="#cabfa3"
     id="path87" /><path
     d="m 187.96502,140.43964 h -15.936 c -1.099,0 -1.99,-0.891 -1.99,-1.99 v -15.36 c 0,-1.099 0.891,-1.99 1.99,-1.99 h 15.936 c 1.099,0 1.99,0.891 1.99,1.99 v 15.36 c 0,1.1 -0.891,1.99 -1.99,1.99 z"
     fill="#ddd6ba"
     id="path88" /><path
     d="m 194.34602,141.28064 v -21.021 c 0,-1.099 0.891,-1.99 1.99,-1.99 h 19.148 c 1.099,0 1.99,0.891 1.99,1.99 v 21.021 c 0,1.099 -0.891,1.99 -1.99,1.99 h -19.149 c -1.099,0 -1.989,-0.891 -1.989,-1.99 z"
     fill="#cabfa3"
     id="path89" /><path
     d="m 213.87802,140.43964 h -15.936 c -1.099,0 -1.99,-0.891 -1.99,-1.99 v -15.36 c 0,-1.099 0.891,-1.99 1.99,-1.99 h 15.936 c 1.099,0 1.99,0.891 1.99,1.99 v 15.36 c 0,1.1 -0.891,1.99 -1.99,1.99 z"
     fill="#ddd6ba"
     id="path90" /><path
     d="m 220.25902,141.28064 v -21.021 c 0,-1.099 0.891,-1.99 1.99,-1.99 h 19.148 c 1.099,0 1.99,0.891 1.99,1.99 v 21.021 c 0,1.099 -0.891,1.99 -1.99,1.99 h -19.149 c -1.099,0 -1.989,-0.891 -1.989,-1.99 z"
     fill="#cabfa3"
     id="path91" /><path
     d="m 239.79102,140.43964 h -15.936 c -1.099,0 -1.99,-0.891 -1.99,-1.99 v -15.36 c 0,-1.099 0.891,-1.99 1.99,-1.99 h 15.936 c 1.099,0 1.99,0.891 1.99,1.99 v 15.36 c 0,1.1 -0.891,1.99 -1.99,1.99 z"
     fill="#ddd6ba"
     id="path92" /><path
     d="m 246.17202,141.28064 v -21.021 c 0,-1.099 0.891,-1.99 1.99,-1.99 h 19.148 c 1.099,0 1.99,0.891 1.99,1.99 v 21.021 c 0,1.099 -0.891,1.99 -1.99,1.99 h -19.149 c -1.099,0 -1.989,-0.891 -1.989,-1.99 z"
     fill="#cabfa3"
     id="path93" /><path
     d="m 265.70402,140.43964 h -15.936 c -1.099,0 -1.99,-0.891 -1.99,-1.99 v -15.36 c 0,-1.099 0.891,-1.99 1.99,-1.99 h 15.936 c 1.099,0 1.99,0.891 1.99,1.99 v 15.36 c -0.001,1.1 -0.891,1.99 -1.99,1.99 z"
     fill="#ddd6ba"
     id="path94" /><path
     d="m 272.08502,141.28064 v -21.021 c 0,-1.099 0.891,-1.99 1.99,-1.99 h 19.148 c 1.099,0 1.99,0.891 1.99,1.99 v 21.021 c 0,1.099 -0.891,1.99 -1.99,1.99 h -19.149 c -1.099,0 -1.989,-0.891 -1.989,-1.99 z"
     fill="#cabfa3"
     id="path95" /><path
     d="m 291.61702,140.43964 h -15.936 c -1.099,0 -1.99,-0.891 -1.99,-1.99 v -15.36 c 0,-1.099 0.891,-1.99 1.99,-1.99 h 15.936 c 1.099,0 1.99,0.891 1.99,1.99 v 15.36 c -10e-4,1.1 -0.892,1.99 -1.99,1.99 z"
     fill="#ddd6ba"
     id="path96" /><path
     d="m 297.99802,141.28064 v -21.021 c 0,-1.099 0.891,-1.99 1.99,-1.99 h 19.148 c 1.099,0 1.99,0.891 1.99,1.99 v 21.021 c 0,1.099 -0.891,1.99 -1.99,1.99 h -19.149 c -1.099,0 -1.989,-0.891 -1.989,-1.99 z"
     fill="#cabfa3"
     id="path97" /><path
     d="m 317.52902,140.43964 h -15.936 c -1.099,0 -1.99,-0.891 -1.99,-1.99 v -15.36 c 0,-1.099 0.891,-1.99 1.99,-1.99 h 15.936 c 1.099,0 1.99,0.891 1.99,1.99 v 15.36 c 0,1.1 -0.891,1.99 -1.99,1.99 z"
     fill="#ddd6ba"
     id="path98" /><path
     d="m 323.91002,141.28064 v -21.021 c 0,-1.099 0.891,-1.99 1.99,-1.99 h 19.148 c 1.099,0 1.99,0.891 1.99,1.99 v 21.021 c 0,1.099 -0.891,1.99 -1.99,1.99 h -19.149 c -1.098,0 -1.989,-0.891 -1.989,-1.99 z"
     fill="#cabfa3"
     id="path99" /><path
     d="m 343.44202,140.43964 h -15.936 c -1.099,0 -1.99,-0.891 -1.99,-1.99 v -15.36 c 0,-1.099 0.891,-1.99 1.99,-1.99 h 15.936 c 1.099,0 1.99,0.891 1.99,1.99 v 15.36 c 0,1.1 -0.891,1.99 -1.99,1.99 z"
     fill="#ddd6ba"
     id="path100" /><path
     d="m 349.82302,141.28064 v -21.021 c 0,-1.099 0.891,-1.99 1.99,-1.99 h 19.148 c 1.099,0 1.99,0.891 1.99,1.99 v 21.021 c 0,1.099 -0.891,1.99 -1.99,1.99 h -19.149 c -1.098,0 -1.989,-0.891 -1.989,-1.99 z"
     fill="#cabfa3"
     id="path101" /><path
     d="m 369.35502,140.43964 h -15.936 c -1.099,0 -1.99,-0.891 -1.99,-1.99 v -15.36 c 0,-1.099 0.891,-1.99 1.99,-1.99 h 15.936 c 1.099,0 1.99,0.891 1.99,1.99 v 15.36 c 0,1.1 -0.891,1.99 -1.99,1.99 z"
     fill="#ddd6ba"
     id="path102" /><path
     d="m 375.73602,141.28064 v -21.021 c 0,-1.099 0.891,-1.99 1.99,-1.99 h 19.148 c 1.099,0 1.99,0.891 1.99,1.99 v 21.021 c 0,1.099 -0.891,1.99 -1.99,1.99 h -19.149 c -1.098,0 -1.989,-0.891 -1.989,-1.99 z"
     fill="#cabfa3"
     id="path103" /><path
     d="m 395.26802,140.43964 h -15.936 c -1.099,0 -1.99,-0.891 -1.99,-1.99 v -15.36 c 0,-1.099 0.891,-1.99 1.99,-1.99 h 15.936 c 1.099,0 1.99,0.891 1.99,1.99 v 15.36 c 0,1.1 -0.891,1.99 -1.99,1.99 z"
     fill="#ddd6ba"
     id="path104" /><path
     d="m 401.64902,141.28064 v -21.021 c 0,-1.099 0.891,-1.99 1.99,-1.99 h 19.148 c 1.099,0 1.99,0.891 1.99,1.99 v 21.021 c 0,1.099 -0.891,1.99 -1.99,1.99 h -19.149 c -1.098,0 -1.989,-0.891 -1.989,-1.99 z"
     fill="#cabfa3"
     id="path105" /><path
     d="m 421.18102,140.43964 h -15.936 c -1.099,0 -1.99,-0.891 -1.99,-1.99 v -15.36 c 0,-1.099 0.891,-1.99 1.99,-1.99 h 15.936 c 1.099,0 1.99,0.891 1.99,1.99 v 15.36 c 0,1.1 -0.891,1.99 -1.99,1.99 z"
     fill="#ddd6ba"
     id="path106" /><path
     d="m 428.15202,141.25364 v -21.021 c 0,-1.099 0.891,-1.99 1.99,-1.99 h 19.148 c 1.099,0 1.99,0.891 1.99,1.99 v 21.021 c 0,1.099 -0.891,1.99 -1.99,1.99 h -19.149 c -1.098,0 -1.989,-0.891 -1.989,-1.99 z"
     fill="#cabfa3"
     id="path105-6" /><path
     d="m 447.68402,140.41264 h -15.936 c -1.099,0 -1.99,-0.891 -1.99,-1.99 v -15.36 c 0,-1.099 0.891,-1.99 1.99,-1.99 h 15.936 c 1.099,0 1.99,0.891 1.99,1.99 v 15.36 c 0,1.1 -0.891,1.99 -1.99,1.99 z"
     fill="#ddd6ba"
     id="path106-1" /><path
     d="m 98.50702,167.08664 v -21.021 c 0,-1.099 0.891,-1.99 1.99,-1.99 h 19.148 c 1.099,0 1.99,0.891 1.99,1.99 v 21.02 c 0,1.099 -0.891,1.99 -1.99,1.99 h -19.149 c -1.098,0 -1.989,-0.891 -1.989,-1.989 z"
     fill="#cabfa3"
     id="path107" /><path
     d="m 118.03902,166.24564 h -15.936 c -1.099,0 -1.99,-0.891 -1.99,-1.99 v -15.36 c 0,-1.099 0.891,-1.99 1.99,-1.99 h 15.936 c 1.099,0 1.99,0.891 1.99,1.99 v 15.36 c 0,1.099 -0.891,1.99 -1.99,1.99 z"
     fill="#ddd6ba"
     id="path108" /><path
     d="m 124.42002,167.08664 v -21.021 c 0,-1.099 0.891,-1.99 1.99,-1.99 h 19.148 c 1.099,0 1.99,0.891 1.99,1.99 v 21.02 c 0,1.099 -0.891,1.99 -1.99,1.99 h -19.149 c -1.098,0 -1.989,-0.891 -1.989,-1.989 z"
     fill="#cabfa3"
     id="path109" /><path
     d="m 143.95202,166.24564 h -15.936 c -1.099,0 -1.99,-0.891 -1.99,-1.99 v -15.36 c 0,-1.099 0.891,-1.99 1.99,-1.99 h 15.936 c 1.099,0 1.99,0.891 1.99,1.99 v 15.36 c 0,1.099 -0.891,1.99 -1.99,1.99 z"
     fill="#ddd6ba"
     id="path110" /><path
     d="m 150.33302,167.08664 v -21.021 c 0,-1.099 0.891,-1.99 1.99,-1.99 h 19.148 c 1.099,0 1.99,0.891 1.99,1.99 v 21.02 c 0,1.099 -0.891,1.99 -1.99,1.99 h -19.149 c -1.098,0 -1.989,-0.891 -1.989,-1.989 z"
     fill="#cabfa3"
     id="path111" /><path
     d="m 169.86502,166.24564 h -15.936 c -1.099,0 -1.99,-0.891 -1.99,-1.99 v -15.36 c 0,-1.099 0.891,-1.99 1.99,-1.99 h 15.936 c 1.099,0 1.99,0.891 1.99,1.99 v 15.36 c 0,1.099 -0.891,1.99 -1.99,1.99 z"
     fill="#ddd6ba"
     id="path112" /><path
     d="m 176.24602,167.08664 v -21.021 c 0,-1.099 0.891,-1.99 1.99,-1.99 h 19.148 c 1.099,0 1.99,0.891 1.99,1.99 v 21.02 c 0,1.099 -0.891,1.99 -1.99,1.99 h -19.149 c -1.098,0 -1.989,-0.891 -1.989,-1.989 z"
     fill="#cabfa3"
     id="path113" /><path
     d="m 195.77802,166.24564 h -15.936 c -1.099,0 -1.99,-0.891 -1.99,-1.99 v -15.36 c 0,-1.099 0.891,-1.99 1.99,-1.99 h 15.936 c 1.099,0 1.99,0.891 1.99,1.99 v 15.36 c 0,1.099 -0.891,1.99 -1.99,1.99 z"
     fill="#ddd6ba"
     id="path114" /><path
     d="m 202.15902,167.08664 v -21.021 c 0,-1.099 0.891,-1.99 1.99,-1.99 h 19.148 c 1.099,0 1.99,0.891 1.99,1.99 v 21.02 c 0,1.099 -0.891,1.99 -1.99,1.99 h -19.149 c -1.098,0 -1.989,-0.891 -1.989,-1.989 z"
     fill="#cabfa3"
     id="path115" /><path
     d="m 221.69102,166.24564 h -15.936 c -1.099,0 -1.99,-0.891 -1.99,-1.99 v -15.36 c 0,-1.099 0.891,-1.99 1.99,-1.99 h 15.936 c 1.099,0 1.99,0.891 1.99,1.99 v 15.36 c 0,1.099 -0.891,1.99 -1.99,1.99 z"
     fill="#ddd6ba"
     id="path116" /><path
     d="m 228.07202,167.08664 v -21.021 c 0,-1.099 0.891,-1.99 1.99,-1.99 h 19.148 c 1.099,0 1.99,0.891 1.99,1.99 v 21.02 c 0,1.099 -0.891,1.99 -1.99,1.99 h -19.149 c -1.098,0 -1.989,-0.891 -1.989,-1.989 z"
     fill="#cabfa3"
     id="path117" /><path
     d="m 247.60402,166.24564 h -15.936 c -1.099,0 -1.99,-0.891 -1.99,-1.99 v -15.36 c 0,-1.099 0.891,-1.99 1.99,-1.99 h 15.936 c 1.099,0 1.99,0.891 1.99,1.99 v 15.36 c 0,1.099 -0.891,1.99 -1.99,1.99 z"
     fill="#ddd6ba"
     id="path118" /><path
     d="m 253.98502,167.08664 v -21.021 c 0,-1.099 0.891,-1.99 1.99,-1.99 h 19.148 c 1.099,0 1.99,0.891 1.99,1.99 v 21.02 c 0,1.099 -0.891,1.99 -1.99,1.99 h -19.149 c -1.099,0 -1.989,-0.891 -1.989,-1.989 z"
     fill="#cabfa3"
     id="path119" /><path
     d="m 273.51702,166.24564 h -15.936 c -1.099,0 -1.99,-0.891 -1.99,-1.99 v -15.36 c 0,-1.099 0.891,-1.99 1.99,-1.99 h 15.936 c 1.099,0 1.99,0.891 1.99,1.99 v 15.36 c 0,1.099 -0.891,1.99 -1.99,1.99 z"
     fill="#ddd6ba"
     id="path120" /><path
     d="m 279.89802,167.08664 v -21.021 c 0,-1.099 0.891,-1.99 1.99,-1.99 h 19.148 c 1.099,0 1.99,0.891 1.99,1.99 v 21.02 c 0,1.099 -0.891,1.99 -1.99,1.99 h -19.149 c -1.099,0 -1.989,-0.891 -1.989,-1.989 z"
     fill="#cabfa3"
     id="path121" /><path
     d="m 299.43002,166.24564 h -15.936 c -1.099,0 -1.99,-0.891 -1.99,-1.99 v -15.36 c 0,-1.099 0.891,-1.99 1.99,-1.99 h 15.936 c 1.099,0 1.99,0.891 1.99,1.99 v 15.36 c 0,1.099 -0.891,1.99 -1.99,1.99 z"
     fill="#ddd6ba"
     id="path122" /><path
     d="m 305.81102,167.08664 v -21.021 c 0,-1.099 0.891,-1.99 1.99,-1.99 h 19.148 c 1.099,0 1.99,0.891 1.99,1.99 v 21.02 c 0,1.099 -0.891,1.99 -1.99,1.99 h -19.149 c -1.099,0 -1.989,-0.891 -1.989,-1.989 z"
     fill="#cabfa3"
     id="path123" /><path
     d="m 325.34302,166.24564 h -15.936 c -1.099,0 -1.99,-0.891 -1.99,-1.99 v -15.36 c 0,-1.099 0.891,-1.99 1.99,-1.99 h 15.936 c 1.099,0 1.99,0.891 1.99,1.99 v 15.36 c -10e-4,1.099 -0.891,1.99 -1.99,1.99 z"
     fill="#ddd6ba"
     id="path124" /><path
     d="m 331.72402,167.08664 v -21.021 c 0,-1.099 0.891,-1.99 1.99,-1.99 h 19.148 c 1.099,0 1.99,0.891 1.99,1.99 v 21.02 c 0,1.099 -0.891,1.99 -1.99,1.99 h -19.149 c -1.099,0 -1.989,-0.891 -1.989,-1.989 z"
     fill="#cabfa3"
     id="path125" /><path
     d="m 351.25602,166.24564 h -15.936 c -1.099,0 -1.99,-0.891 -1.99,-1.99 v -15.36 c 0,-1.099 0.891,-1.99 1.99,-1.99 h 15.936 c 1.099,0 1.99,0.891 1.99,1.99 v 15.36 c -10e-4,1.099 -0.891,1.99 -1.99,1.99 z"
     fill="#ddd6ba"
     id="path126" /><path
     d="m 357.63702,167.08664 v -21.021 c 0,-1.099 0.891,-1.99 1.99,-1.99 h 19.148 c 1.099,0 1.99,0.891 1.99,1.99 v 21.02 c 0,1.099 -0.891,1.99 -1.99,1.99 h -19.149 c -1.099,0 -1.989,-0.891 -1.989,-1.989 z"
     fill="#cabfa3"
     id="path127" /><path
     d="m 377.16802,166.24564 h -15.936 c -1.099,0 -1.99,-0.891 -1.99,-1.99 v -15.36 c 0,-1.099 0.891,-1.99 1.99,-1.99 h 15.936 c 1.099,0 1.99,0.891 1.99,1.99 v 15.36 c 0,1.099 -0.891,1.99 -1.99,1.99 z"
     fill="#ddd6ba"
     id="path128" /><path
     d="m 383.55002,167.08664 v -21.021 c 0,-1.099 0.891,-1.99 1.99,-1.99 h 19.148 c 1.099,0 1.99,0.891 1.99,1.99 v 21.02 c 0,1.099 -0.891,1.99 -1.99,1.99 h -19.149 c -1.099,0 -1.989,-0.891 -1.989,-1.989 z"
     fill="#cabfa3"
     id="path129" /><path
     d="m 403.08102,166.24564 h -15.936 c -1.099,0 -1.99,-0.891 -1.99,-1.99 v -15.36 c 0,-1.099 0.891,-1.99 1.99,-1.99 h 15.936 c 1.099,0 1.99,0.891 1.99,1.99 v 15.36 c 0,1.099 -0.891,1.99 -1.99,1.99 z"
     fill="#ddd6ba"
     id="path130" /><path
     d="m 307.56345,247.67724 h 19.21966 c 1.10309,0 1.99689,-0.91514 1.99689,-2.04391 V 224.04391 C 328.78,222.91514 327.8862,222 326.78311,222 H 307.56345 125.49689 c -1.10309,0 -1.99689,0.91514 -1.99689,2.04391 v 21.59045 c 0,1.12877 0.8938,2.04288 1.99689,2.04288 z"
     fill="#cabfa3"
     id="path131-5"
     style="fill:#0d0d0d;fill-opacity:1;stroke-width:1.01905" /><path
     d="m 111.46402,192.90164 v -21.041 c 0,-1.093 0.886,-1.98 1.98,-1.98 h 18.937 c 1.093,0 1.98,0.886 1.98,1.98 v 21.04 c 0,1.093 -0.886,1.98 -1.98,1.98 h -18.937 c -1.094,0 -1.98,-0.886 -1.98,-1.979 z"
     fill="#cabfa3"
     id="path133" /><path
     d="m 130.79002,192.05064 h -15.757 c -1.093,0 -1.98,-0.886 -1.98,-1.98 v -15.38 c 0,-1.093 0.886,-1.98 1.98,-1.98 h 15.757 c 1.093,0 1.98,0.886 1.98,1.98 v 15.38 c 0,1.094 -0.886,1.98 -1.98,1.98 z"
     fill="#ddd6ba"
     id="path134" /><path
     d="m 137.11702,192.90164 v -21.041 c 0,-1.093 0.886,-1.98 1.98,-1.98 h 18.937 c 1.093,0 1.98,0.886 1.98,1.98 v 21.04 c 0,1.093 -0.886,1.98 -1.98,1.98 h -18.937 c -1.093,0 -1.98,-0.886 -1.98,-1.979 z"
     fill="#cabfa3"
     id="path135" /><path
     d="m 156.44402,192.05064 h -15.757 c -1.093,0 -1.98,-0.886 -1.98,-1.98 v -15.38 c 0,-1.093 0.886,-1.98 1.98,-1.98 h 15.757 c 1.093,0 1.98,0.886 1.98,1.98 v 15.38 c 0,1.094 -0.887,1.98 -1.98,1.98 z"
     fill="#ddd6ba"
     id="path136" /><path
     d="m 162.77102,192.90164 v -21.041 c 0,-1.093 0.886,-1.98 1.98,-1.98 h 18.937 c 1.093,0 1.98,0.886 1.98,1.98 v 21.04 c 0,1.093 -0.886,1.98 -1.98,1.98 h -18.937 c -1.094,0 -1.98,-0.886 -1.98,-1.979 z"
     fill="#cabfa3"
     id="path137" /><path
     d="m 182.09802,192.05064 h -15.757 c -1.093,0 -1.98,-0.886 -1.98,-1.98 v -15.38 c 0,-1.093 0.886,-1.98 1.98,-1.98 h 15.757 c 1.093,0 1.98,0.886 1.98,1.98 v 15.38 c 0,1.094 -0.887,1.98 -1.98,1.98 z"
     fill="#ddd6ba"
     id="path138" /><path
     d="m 188.42502,192.90164 v -21.041 c 0,-1.093 0.886,-1.98 1.98,-1.98 h 18.937 c 1.093,0 1.98,0.886 1.98,1.98 v 21.04 c 0,1.093 -0.886,1.98 -1.98,1.98 h -18.937 c -1.094,0 -1.98,-0.886 -1.98,-1.979 z"
     fill="#cabfa3"
     id="path139" /><path
     d="m 207.75102,192.05064 h -15.757 c -1.093,0 -1.98,-0.886 -1.98,-1.98 v -15.38 c 0,-1.093 0.886,-1.98 1.98,-1.98 h 15.757 c 1.093,0 1.98,0.886 1.98,1.98 v 15.38 c 0,1.094 -0.886,1.98 -1.98,1.98 z"
     fill="#ddd6ba"
     id="path140" /><path
     d="m 214.07902,192.90164 v -21.041 c 0,-1.093 0.886,-1.98 1.98,-1.98 h 18.937 c 1.093,0 1.98,0.886 1.98,1.98 v 21.04 c 0,1.093 -0.886,1.98 -1.98,1.98 h -18.937 c -1.094,0 -1.98,-0.886 -1.98,-1.979 z"
     fill="#cabfa3"
     id="path141" /><path
     d="m 233.40502,192.05064 h -15.757 c -1.093,0 -1.98,-0.886 -1.98,-1.98 v -15.38 c 0,-1.093 0.886,-1.98 1.98,-1.98 h 15.757 c 1.093,0 1.98,0.886 1.98,1.98 v 15.38 c 0,1.094 -0.886,1.98 -1.98,1.98 z"
     fill="#ddd6ba"
     id="path142" /><path
     d="m 239.73202,192.90164 v -21.041 c 0,-1.093 0.886,-1.98 1.98,-1.98 h 18.937 c 1.093,0 1.98,0.886 1.98,1.98 v 21.04 c 0,1.093 -0.886,1.98 -1.98,1.98 h -18.937 c -1.094,0 -1.98,-0.886 -1.98,-1.979 z"
     fill="#cabfa3"
     id="path143" /><path
     d="m 259.05902,192.05064 h -15.757 c -1.093,0 -1.98,-0.886 -1.98,-1.98 v -15.38 c 0,-1.093 0.886,-1.98 1.98,-1.98 h 15.757 c 1.093,0 1.98,0.886 1.98,1.98 v 15.38 c 0,1.094 -0.887,1.98 -1.98,1.98 z"
     fill="#ddd6ba"
     id="path144" /><path
     d="m 265.38602,192.90164 v -21.041 c 0,-1.093 0.886,-1.98 1.98,-1.98 h 18.937 c 1.093,0 1.98,0.886 1.98,1.98 v 21.04 c 0,1.093 -0.886,1.98 -1.98,1.98 h -18.937 c -1.094,0 -1.98,-0.886 -1.98,-1.979 z"
     fill="#cabfa3"
     id="path145" /><path
     d="m 284.71302,192.05064 h -15.757 c -1.093,0 -1.98,-0.886 -1.98,-1.98 v -15.38 c 0,-1.093 0.886,-1.98 1.98,-1.98 h 15.757 c 1.093,0 1.98,0.886 1.98,1.98 v 15.38 c 0,1.094 -0.887,1.98 -1.98,1.98 z"
     fill="#ddd6ba"
     id="path146" /><path
     d="m 291.04002,192.90164 v -21.041 c 0,-1.093 0.886,-1.98 1.98,-1.98 h 18.937 c 1.093,0 1.98,0.886 1.98,1.98 v 21.04 c 0,1.093 -0.886,1.98 -1.98,1.98 h -18.937 c -1.094,0 -1.98,-0.886 -1.98,-1.979 z"
     fill="#cabfa3"
     id="path147" /><path
     d="m 310.36602,192.05064 h -15.757 c -1.093,0 -1.98,-0.886 -1.98,-1.98 v -15.38 c 0,-1.093 0.886,-1.98 1.98,-1.98 h 15.757 c 1.093,0 1.98,0.886 1.98,1.98 v 15.38 c 0,1.094 -0.886,1.98 -1.98,1.98 z"
     fill="#ddd6ba"
     id="path148" /><path
     d="m 316.69302,192.90164 v -21.041 c 0,-1.093 0.886,-1.98 1.98,-1.98 h 18.937 c 1.093,0 1.98,0.886 1.98,1.98 v 21.04 c 0,1.093 -0.886,1.98 -1.98,1.98 h -18.937 c -1.093,0 -1.98,-0.886 -1.98,-1.979 z"
     fill="#cabfa3"
     id="path149" /><path
     d="m 336.02002,192.05064 h -15.757 c -1.093,0 -1.98,-0.886 -1.98,-1.98 v -15.38 c 0,-1.093 0.886,-1.98 1.98,-1.98 h 15.757 c 1.093,0 1.98,0.886 1.98,1.98 v 15.38 c 0,1.094 -0.886,1.98 -1.98,1.98 z"
     fill="#ddd6ba"
     id="path150" /><path
     d="M 124.25,219.021 V 197.98 c 0,-1.093 0.886,-1.98 1.98,-1.98 h 18.937 c 1.093,0 1.98,0.886 1.98,1.98 v 21.04 c 0,1.093 -0.886,1.98 -1.98,1.98 H 126.23 c -1.093,0 -1.98,-0.886 -1.98,-1.979 z"
     fill="#cabfa3"
     id="path135-1" /><path
     d="M 143.577,218.17 H 127.82 c -1.093,0 -1.98,-0.886 -1.98,-1.98 v -15.38 c 0,-1.093 0.886,-1.98 1.98,-1.98 h 15.757 c 1.093,0 1.98,0.886 1.98,1.98 v 15.38 c 0,1.094 -0.887,1.98 -1.98,1.98 z"
     fill="#ddd6ba"
     id="path136-20" /><path
     d="M 149.904,219.021 V 197.98 c 0,-1.093 0.886,-1.98 1.98,-1.98 h 18.937 c 1.093,0 1.98,0.886 1.98,1.98 v 21.04 c 0,1.093 -0.886,1.98 -1.98,1.98 h -18.937 c -1.094,0 -1.98,-0.886 -1.98,-1.979 z"
     fill="#cabfa3"
     id="path137-0" /><path
     d="m 169.231,218.17 h -15.757 c -1.093,0 -1.98,-0.886 -1.98,-1.98 v -15.38 c 0,-1.093 0.886,-1.98 1.98,-1.98 h 15.757 c 1.093,0 1.98,0.886 1.98,1.98 v 15.38 c 0,1.094 -0.887,1.98 -1.98,1.98 z"
     fill="#ddd6ba"
     id="path138-1" /><path
     d="M 175.558,219.021 V 197.98 c 0,-1.093 0.886,-1.98 1.98,-1.98 h 18.937 c 1.093,0 1.98,0.886 1.98,1.98 v 21.04 c 0,1.093 -0.886,1.98 -1.98,1.98 h -18.937 c -1.094,0 -1.98,-0.886 -1.98,-1.979 z"
     fill="#cabfa3"
     id="path139-4" /><path
     d="m 194.884,218.17 h -15.757 c -1.093,0 -1.98,-0.886 -1.98,-1.98 v -15.38 c 0,-1.093 0.886,-1.98 1.98,-1.98 h 15.757 c 1.093,0 1.98,0.886 1.98,1.98 v 15.38 c 0,1.094 -0.886,1.98 -1.98,1.98 z"
     fill="#ddd6ba"
     id="path140-6" /><path
     d="M 201.212,219.021 V 197.98 c 0,-1.093 0.886,-1.98 1.98,-1.98 h 18.937 c 1.093,0 1.98,0.886 1.98,1.98 v 21.04 c 0,1.093 -0.886,1.98 -1.98,1.98 h -18.937 c -1.094,0 -1.98,-0.886 -1.98,-1.979 z"
     fill="#cabfa3"
     id="path141-0" /><path
     d="m 220.538,218.17 h -15.757 c -1.093,0 -1.98,-0.886 -1.98,-1.98 v -15.38 c 0,-1.093 0.886,-1.98 1.98,-1.98 h 15.757 c 1.093,0 1.98,0.886 1.98,1.98 v 15.38 c 0,1.094 -0.886,1.98 -1.98,1.98 z"
     fill="#ddd6ba"
     id="path142-7" /><path
     d="M 226.865,219.021 V 197.98 c 0,-1.093 0.886,-1.98 1.98,-1.98 h 18.937 c 1.093,0 1.98,0.886 1.98,1.98 v 21.04 c 0,1.093 -0.886,1.98 -1.98,1.98 h -18.937 c -1.094,0 -1.98,-0.886 -1.98,-1.979 z"
     fill="#cabfa3"
     id="path143-1" /><path
     d="m 246.192,218.17 h -15.757 c -1.093,0 -1.98,-0.886 -1.98,-1.98 v -15.38 c 0,-1.093 0.886,-1.98 1.98,-1.98 h 15.757 c 1.093,0 1.98,0.886 1.98,1.98 v 15.38 c 0,1.094 -0.887,1.98 -1.98,1.98 z"
     fill="#ddd6ba"
     id="path144-7" /><path
     d="M 252.519,219.021 V 197.98 c 0,-1.093 0.886,-1.98 1.98,-1.98 h 18.937 c 1.093,0 1.98,0.886 1.98,1.98 v 21.04 c 0,1.093 -0.886,1.98 -1.98,1.98 h -18.937 c -1.094,0 -1.98,-0.886 -1.98,-1.979 z"
     fill="#cabfa3"
     id="path145-7" /><path
     d="m 271.846,218.17 h -15.757 c -1.093,0 -1.98,-0.886 -1.98,-1.98 v -15.38 c 0,-1.093 0.886,-1.98 1.98,-1.98 h 15.757 c 1.093,0 1.98,0.886 1.98,1.98 v 15.38 c 0,1.094 -0.887,1.98 -1.98,1.98 z"
     fill="#ddd6ba"
     id="path146-7" /><path
     d="M 278.173,219.021 V 197.98 c 0,-1.093 0.886,-1.98 1.98,-1.98 h 18.937 c 1.093,0 1.98,0.886 1.98,1.98 v 21.04 c 0,1.093 -0.886,1.98 -1.98,1.98 h -18.937 c -1.094,0 -1.98,-0.886 -1.98,-1.979 z"
     fill="#cabfa3"
     id="path147-7" /><path
     d="m 297.499,218.17 h -15.757 c -1.093,0 -1.98,-0.886 -1.98,-1.98 v -15.38 c 0,-1.093 0.886,-1.98 1.98,-1.98 h 15.757 c 1.093,0 1.98,0.886 1.98,1.98 v 15.38 c 0,1.094 -0.886,1.98 -1.98,1.98 z"
     fill="#ddd6ba"
     id="path148-3" /><path
     d="M 303.826,219.021 V 197.98 c 0,-1.093 0.886,-1.98 1.98,-1.98 h 18.937 c 1.093,0 1.98,0.886 1.98,1.98 v 21.04 c 0,1.093 -0.886,1.98 -1.98,1.98 h -18.937 c -1.093,0 -1.98,-0.886 -1.98,-1.979 z"
     fill="#cabfa3"
     id="path149-3" /><path
     d="m 323.153,218.17 h -15.757 c -1.093,0 -1.98,-0.886 -1.98,-1.98 v -15.38 c 0,-1.093 0.886,-1.98 1.98,-1.98 h 15.757 c 1.093,0 1.98,0.886 1.98,1.98 v 15.38 c 0,1.094 -0.886,1.98 -1.98,1.98 z"
     fill="#ddd6ba"
     id="path150-5" /><path
     d="m 342.34702,192.90164 v -21.041 c 0,-1.093 0.886,-1.98 1.98,-1.98 h 18.937 c 1.093,0 1.98,0.886 1.98,1.98 v 21.04 c 0,1.093 -0.886,1.98 -1.98,1.98 h -18.937 c -1.094,0 -1.98,-0.886 -1.98,-1.979 z"
     fill="#cabfa3"
     id="path151" /><path
     d="m 361.67402,192.05064 h -15.757 c -1.093,0 -1.98,-0.886 -1.98,-1.98 v -15.38 c 0,-1.093 0.886,-1.98 1.98,-1.98 h 15.757 c 1.093,0 1.98,0.886 1.98,1.98 v 15.38 c 0,1.094 -0.887,1.98 -1.98,1.98 z"
     fill="#ddd6ba"
     id="path152" /><path
     style="opacity:0.999;fill:#cabfa3;fill-opacity:1;stroke-width:0.0883883"
     d="m 408.53095,90.161486 c -0.60115,-0.28519 -1.12203,-0.81177 -1.40208,-1.417426 l -0.18891,-0.408566 V 77.994057 67.65262 l 0.21052,-0.465816 c 0.27373,-0.605678 1.00389,-1.277728 1.62251,-1.493382 0.44595,-0.155458 1.31888,-0.162122 21.23632,-0.162122 h 20.77127 l 0.50561,0.236978 c 0.66357,0.311015 1.24603,0.917399 1.47881,1.539556 0.18207,0.486614 0.1831,0.556297 0.16007,10.802911 l -0.0232,10.313137 -0.2044,0.414972 c -0.26089,0.529642 -0.79553,1.064292 -1.32518,1.325172 l -0.41497,0.2044 -20.94804,0.0223 -20.94803,0.0223 z m 38.04887,-2.405463 c 1.49925,-0.187989 2.5645,-0.720901 2.92353,-1.462549 0.19448,-0.401756 0.20637,-0.549603 0.27953,-3.475627 0.042,-1.680813 0.0649,-5.144198 0.0509,-7.696411 l -0.0255,-4.640389 -0.23434,-0.49987 c -0.27659,-0.589967 -0.80676,-1.132909 -1.3838,-1.417138 l -0.41479,-0.204312 -17.85444,0.0016 -17.85445,0.0016 -0.44194,0.235725 c -0.66867,0.356657 -1.42183,1.105553 -1.53755,1.528846 -0.11987,0.438492 -0.13305,15.385545 -0.014,15.898604 0.19233,0.82896 1.38114,1.524887 2.95588,1.730356 0.8503,0.110946 32.66597,0.110537 33.55096,-4.31e-4 z"
     id="path226" /><path
     d="M 398.46658,88.036914 H 369.4154 c -2.00348,0 -3.62776,-0.912909 -3.62776,-2.038934 V 70.260267 c 0,-1.126025 1.62428,-2.038935 3.62776,-2.038935 h 29.05118 c 2.00347,0 3.62775,0.91291 3.62775,2.038935 V 85.99798 c 0,1.126025 -1.62428,2.038934 -3.62775,2.038934 z"
     fill="#ddd6ba"
     id="path56-1-1-5-5-6"
     style="stroke-width:1.36668" /><path
     style="opacity:0.999;fill:#cabfa3;fill-opacity:1;stroke-width:0.0836767"
     d="m 364.80189,90.379744 c -0.53877,-0.28519 -1.0056,-0.81177 -1.25659,-1.41743 l -0.1693,-0.40857 V 78.212311 67.870874 l 0.18867,-0.465816 c 0.24532,-0.605678 0.89972,-1.277728 1.45414,-1.493382 0.39967,-0.155458 1.18202,-0.162122 19.03262,-0.162122 h 18.61582 l 0.45314,0.236978 c 0.59471,0.311015 1.11673,0.917399 1.32536,1.539556 0.16317,0.486614 0.1641,0.556297 0.14346,10.802911 l -0.0208,10.313135 -0.18319,0.41497 c -0.23381,0.52965 -0.71297,1.0643 -1.18766,1.32518 l -0.37191,0.2044 -18.77425,0.0223 -18.77424,0.0223 z m 34.10052,-2.40547 c 1.34367,-0.18799 2.29838,-0.720898 2.62015,-1.462546 0.1743,-0.401756 0.18495,-0.549603 0.25052,-3.475627 0.0376,-1.680813 0.0582,-5.144198 0.0456,-7.696411 l -0.0229,-4.640389 -0.21003,-0.49987 c -0.24788,-0.589967 -0.72304,-1.132909 -1.2402,-1.417138 l -0.37174,-0.204312 -16.00168,0.0016 -16.00168,0.0016 -0.39608,0.235725 c -0.59929,0.356657 -1.27429,1.105553 -1.378,1.528846 -0.10743,0.438492 -0.11924,15.385545 -0.0125,15.898604 0.17237,0.82896 1.23782,1.524888 2.64915,1.730358 0.76206,0.11094 29.2762,0.11054 30.06936,-4.3e-4 z"
     id="path226-1" /><path
     d="m 447.19917,114.78 h -25.70366 c -1.77262,0 -3.20974,-0.91291 -3.20974,-2.03893 V 97.00335 c 0,-1.126021 1.43712,-2.038931 3.20974,-2.038931 h 25.70366 c 1.77261,0 3.20973,0.91291 3.20973,2.038931 v 15.73772 c 0,1.12602 -1.43712,2.03893 -3.20973,2.03893 z"
     fill="#ddd6ba"
     id="path56-1-1-5-5-6-9"
     style="stroke-width:1.28553" /><path
     style="opacity:0.999;fill:#cabfa3;fill-opacity:1;stroke-width:0.0787082"
     d="m 417.41361,117.12283 c -0.47669,-0.28519 -0.88973,-0.81177 -1.1118,-1.41743 l -0.14979,-0.40857 V 104.9554 94.613961 l 0.16693,-0.465816 c 0.21705,-0.605678 0.79605,-1.277728 1.28658,-1.493382 0.35362,-0.155458 1.04582,-0.162122 16.83952,-0.162122 h 16.47075 l 0.40093,0.236978 c 0.52618,0.311015 0.98805,0.917399 1.17264,1.539556 0.14437,0.486614 0.14519,0.556297 0.12693,10.802905 l -0.0184,10.31314 -0.16208,0.41497 c -0.20687,0.52965 -0.63081,1.0643 -1.05081,1.32518 l -0.32905,0.2044 -16.61092,0.0223 -16.61092,0.0223 z m 30.17117,-2.40547 c 1.18884,-0.18799 2.03354,-0.7209 2.31823,-1.46255 0.15422,-0.40175 0.16364,-0.5496 0.22165,-3.47562 0.0333,-1.68082 0.0515,-5.1442 0.0403,-7.69641 l -0.0203,-4.64039 -0.18583,-0.49987 c -0.21932,-0.589969 -0.63973,-1.132911 -1.09729,-1.41714 l -0.32891,-0.204312 -14.15783,0.0016 -14.15783,0.0016 -0.35044,0.235725 c -0.53024,0.356657 -1.12746,1.105557 -1.21922,1.528847 -0.0951,0.43849 -0.1055,15.38554 -0.0111,15.8986 0.15251,0.82896 1.09519,1.52489 2.3439,1.73036 0.67425,0.11094 25.90275,0.11054 26.60451,-4.3e-4 z"
     id="path226-1-0" /><path
     d="m 355.40752,88.120098 h -25.12685 c -1.73284,0 -3.13771,-0.91291 -3.13771,-2.03893 V 70.343451 c 0,-1.126025 1.40487,-2.038935 3.13771,-2.038935 h 25.12685 c 1.73283,0 3.1377,0.91291 3.1377,2.038935 v 15.737717 c 0,1.12602 -1.40487,2.03893 -3.1377,2.03893 z"
     fill="#ddd6ba"
     id="path56-1-1-5-5-9"
     style="stroke-width:1.27102" /><path
     style="opacity:0.999;fill:#cabfa3;fill-opacity:1;stroke-width:0.0778201"
     d="m 326.29037,90.462928 c -0.46599,-0.28519 -0.86976,-0.81177 -1.08684,-1.41743 l -0.14644,-0.40857 V 78.295495 67.954058 l 0.16319,-0.465816 c 0.21218,-0.605678 0.77818,-1.277728 1.25771,-1.493382 0.34568,-0.155458 1.02235,-0.162122 16.46163,-0.162122 h 16.10113 l 0.39193,0.236978 c 0.51438,0.311015 0.96588,0.917399 1.14632,1.539556 0.14114,0.486614 0.14194,0.556297 0.12408,10.802911 l -0.018,10.313135 -0.15844,0.41497 c -0.20223,0.52965 -0.61667,1.0643 -1.02723,1.32518 l -0.32167,0.2044 -16.23817,0.0223 -16.23815,0.0223 z m 29.49411,-2.40547 c 1.16216,-0.18799 1.9879,-0.7209 2.26621,-1.46255 0.15076,-0.40175 0.15997,-0.5496 0.21668,-3.475623 0.0326,-1.680813 0.0503,-5.144198 0.0395,-7.696411 l -0.0198,-4.640389 -0.18165,-0.49987 c -0.2144,-0.589967 -0.62537,-1.132909 -1.07267,-1.417138 l -0.32153,-0.204312 -13.84012,0.0016 -13.84012,0.0016 -0.34258,0.235725 c -0.51833,0.356657 -1.10215,1.105553 -1.19185,1.528846 -0.0929,0.438492 -0.10314,15.385542 -0.0109,15.898602 0.14908,0.82896 1.07061,1.52489 2.29129,1.73036 0.65912,0.11094 25.32148,0.11054 26.00749,-4.3e-4 z"
     id="path226-2" /><path
     d="m 317.06749,88.016099 h -25.99893 c -1.79298,0 -3.2466,-0.91291 -3.2466,-2.03893 V 70.239452 c 0,-1.126025 1.45362,-2.038935 3.2466,-2.038935 h 25.99893 c 1.79297,0 3.2466,0.91291 3.2466,2.038935 v 15.737717 c 0,1.12602 -1.45363,2.03893 -3.2466,2.03893 z"
     fill="#ddd6ba"
     id="path56-1-1-5-5-95"
     style="stroke-width:1.29289" /><path
     style="opacity:0.999;fill:#cabfa3;fill-opacity:1;stroke-width:0.079159"
     d="m 286.93977,90.358929 c -0.48216,-0.28519 -0.89994,-0.81177 -1.12456,-1.41743 l -0.15152,-0.40857 v -10.34143 -10.34144 l 0.16885,-0.465816 c 0.21955,-0.605678 0.80519,-1.277728 1.30136,-1.493382 0.35769,-0.155458 1.05783,-0.162122 17.03296,-0.162122 h 16.65996 l 0.40553,0.236978 c 0.53223,0.311015 0.9994,0.917399 1.18611,1.539556 0.14603,0.486614 0.14686,0.556297 0.12838,10.802916 l -0.0186,10.31313 -0.16395,0.41497 c -0.20925,0.52965 -0.63807,1.0643 -1.06288,1.32518 l -0.33283,0.2044 -16.80174,0.0223 -16.80173,0.0223 z m 30.51776,-2.40547 c 1.2025,-0.18799 2.0569,-0.7209 2.34486,-1.46255 0.15599,-0.40175 0.16553,-0.5496 0.22421,-3.47562 0.0337,-1.68082 0.0521,-5.1442 0.0408,-7.696414 l -0.0204,-4.640389 -0.18796,-0.49987 c -0.22184,-0.589967 -0.64707,-1.132909 -1.1099,-1.417138 l -0.33269,-0.204312 -14.32046,0.0016 -14.32047,0.0016 -0.35447,0.235725 c -0.53632,0.356657 -1.1404,1.105553 -1.23322,1.528846 -0.0961,0.438492 -0.10671,15.385542 -0.0112,15.898602 0.15427,0.82896 1.10777,1.52489 2.37082,1.73036 0.682,0.11094 26.20031,0.11054 26.91013,-4.3e-4 z"
     id="path226-4" /><path
     d="m 277.40182,88.061147 h -25.68747 c -1.77151,0 -3.20772,-0.91291 -3.20772,-2.03893 v -15.73772 c 0,-1.12602 1.43621,-2.03893 3.20772,-2.03893 h 25.68747 c 1.77149,0 3.2077,0.91291 3.2077,2.03893 v 15.73772 c 0,1.12602 -1.43621,2.03893 -3.2077,2.03893 z"
     fill="#ddd6ba"
     id="path56-1-1-5-5-1"
     style="stroke-width:1.28512" /><path
     style="opacity:0.999;fill:#cabfa3;fill-opacity:1;stroke-width:0.0786834"
     d="m 247.63501,90.403977 c -0.47638,-0.28519 -0.88916,-0.81177 -1.11109,-1.41743 l -0.1497,-0.40857 v -10.34143 -10.34144 l 0.16683,-0.465816 c 0.21692,-0.605678 0.79554,-1.277728 1.28577,-1.493382 0.3534,-0.155458 1.04516,-0.162122 16.82891,-0.162122 h 16.46038 l 0.40068,0.236978 c 0.52585,0.311015 0.98742,0.917399 1.17189,1.539556 0.14429,0.486616 0.1451,0.556296 0.12685,10.802906 l -0.0184,10.31314 -0.16198,0.41497 c -0.20675,0.52965 -0.63043,1.0643 -1.05015,1.32518 l -0.32885,0.2044 -16.60046,0.0223 -16.60045,0.0223 z m 30.15217,-2.40547 c 1.1881,-0.18799 2.03226,-0.7209 2.31678,-1.46255 0.15412,-0.40175 0.16354,-0.5496 0.22151,-3.47562 0.0333,-1.68082 0.0514,-5.1442 0.0403,-7.69641 l -0.0202,-4.64039 -0.1857,-0.49987 c -0.21919,-0.58997 -0.63933,-1.13291 -1.09661,-1.41714 l -0.3287,-0.20431 -14.14891,0.002 -14.14892,0.002 -0.35022,0.23572 c -0.52989,0.35666 -1.12674,1.10556 -1.21844,1.52885 -0.095,0.43849 -0.10544,15.38554 -0.0111,15.8986 0.15242,0.82896 1.0945,1.52489 2.34242,1.73036 0.67382,0.11094 25.88644,0.11054 26.58775,-4.3e-4 z"
     id="path226-23" /><path
     d="m 238.40531,88.109691 h -25.68747 c -1.77151,0 -3.20772,-0.91291 -3.20772,-2.03893 V 70.333044 c 0,-1.126025 1.43621,-2.038935 3.20772,-2.038935 h 25.68747 c 1.77149,0 3.2077,0.91291 3.2077,2.038935 v 15.737717 c 0,1.12602 -1.43621,2.03893 -3.2077,2.03893 z"
     fill="#ddd6ba"
     id="path56-1-1-5-5-4"
     style="stroke-width:1.28512" /><path
     style="opacity:0.999;fill:#cabfa3;fill-opacity:1;stroke-width:0.0786834"
     d="m 208.6385,90.452521 c -0.47638,-0.28519 -0.88916,-0.81177 -1.11109,-1.41743 l -0.1497,-0.40857 V 78.285088 67.943651 l 0.16683,-0.465816 c 0.21692,-0.605678 0.79554,-1.277728 1.28577,-1.493382 0.3534,-0.155458 1.04516,-0.162122 16.82891,-0.162122 h 16.46038 l 0.40068,0.236978 c 0.52585,0.311015 0.98742,0.917399 1.17189,1.539556 0.14429,0.486614 0.1451,0.556297 0.12685,10.802911 l -0.0184,10.313135 -0.16198,0.41497 c -0.20675,0.52965 -0.63043,1.0643 -1.05015,1.32518 l -0.32885,0.2044 -16.60046,0.0223 -16.60045,0.0223 z m 30.15217,-2.40547 c 1.1881,-0.18799 2.03226,-0.7209 2.31678,-1.46255 0.15412,-0.40175 0.16354,-0.5496 0.22151,-3.47562 0.0333,-1.68082 0.0514,-5.144201 0.0403,-7.696414 l -0.0202,-4.640389 -0.1857,-0.49987 c -0.21919,-0.589967 -0.63933,-1.132909 -1.09661,-1.417138 l -0.3287,-0.204312 -14.14891,0.0016 -14.14892,0.0016 -0.35022,0.235725 c -0.52989,0.356657 -1.12674,1.105553 -1.21844,1.528846 -0.095,0.438492 -0.10544,15.385542 -0.0111,15.898602 0.15242,0.82896 1.0945,1.52489 2.34242,1.73036 0.67382,0.11094 25.88644,0.11054 26.58775,-4.3e-4 z"
     id="path226-11" /><path
     d="m 199.37604,88.081963 h -26.31038 c -1.81446,0 -3.2855,-0.91291 -3.2855,-2.03893 V 70.305316 c 0,-1.126025 1.47104,-2.038935 3.2855,-2.038935 h 26.31038 c 1.81445,0 3.28549,0.91291 3.28549,2.038935 v 15.737717 c 0,1.12602 -1.47104,2.03893 -3.28549,2.03893 z"
     fill="#ddd6ba"
     id="path56-1-1-5-5-8"
     style="stroke-width:1.30061" /><path
     style="opacity:0.999;fill:#cabfa3;fill-opacity:1;stroke-width:0.0796317"
     d="m 168.88741,90.424793 c -0.48794,-0.28519 -0.91073,-0.81177 -1.13804,-1.41743 l -0.15333,-0.40857 V 78.25736 67.915923 l 0.17087,-0.465816 c 0.22218,-0.605678 0.81484,-1.277728 1.31695,-1.493382 0.36197,-0.155458 1.07051,-0.162122 17.23701,-0.162122 h 16.85953 l 0.4104,0.236978 c 0.5386,0.311015 1.01137,0.917399 1.20031,1.539556 0.14778,0.486614 0.14862,0.556297 0.12992,10.802911 l -0.0188,10.313135 -0.1659,0.41497 c -0.21176,0.52965 -0.64572,1.0643 -1.07562,1.32518 l -0.33682,0.2044 -17.00302,0.0223 -17.003,0.0223 z m 30.88334,-2.40547 c 1.2169,-0.18799 2.08154,-0.7209 2.37296,-1.46255 0.15785,-0.40175 0.1675,-0.5496 0.22689,-3.47562 0.0341,-1.68082 0.0527,-5.144201 0.0413,-7.696414 l -0.0207,-4.640389 -0.19021,-0.49987 c -0.2245,-0.589967 -0.65482,-1.132909 -1.12319,-1.417138 l -0.33668,-0.204312 -14.49201,0.0016 -14.49203,0.0016 -0.35871,0.235725 c -0.54274,0.356657 -1.15406,1.105553 -1.24799,1.528846 -0.0973,0.438492 -0.10799,15.385542 -0.0114,15.898602 0.15611,0.82896 1.12103,1.52489 2.39921,1.73036 0.69017,0.11094 26.51418,0.11054 27.2325,-4.3e-4 z"
     id="path226-7" /><path
     d="m 159.84333,88.036914 h -24.44165 c -1.68559,0 -3.05215,-0.912909 -3.05215,-2.038934 V 70.260267 c 0,-1.126025 1.36656,-2.038935 3.05215,-2.038935 h 24.44165 c 1.68558,0 3.05213,0.91291 3.05213,2.038935 V 85.99798 c 0,1.126025 -1.36655,2.038934 -3.05213,2.038934 z"
     fill="#ddd6ba"
     id="path56-1-1-5-5-3"
     style="stroke-width:1.25357" /><path
     style="opacity:0.999;fill:#cabfa3;fill-opacity:1;stroke-width:0.0767517"
     d="m 131.52019,90.379744 c -0.45329,-0.28519 -0.84604,-0.81177 -1.05721,-1.41743 l -0.14244,-0.40857 V 78.212311 67.870874 l 0.15874,-0.465816 c 0.2064,-0.605678 0.75696,-1.277728 1.22341,-1.493382 0.33626,-0.155458 0.99447,-0.162122 16.01273,-0.162122 h 15.66206 l 0.38124,0.236978 c 0.50035,0.311015 0.93954,0.917399 1.11506,1.539556 0.13729,0.486614 0.13807,0.556297 0.1207,10.802911 l -0.0175,10.313135 -0.15412,0.41497 c -0.19672,0.52965 -0.59985,1.0643 -0.99922,1.32518 l -0.3129,0.2044 -15.79536,0.0223 -15.79534,0.0223 z M 160.21,87.974274 c 1.13047,-0.18799 1.9337,-0.720898 2.20442,-1.462546 0.14664,-0.401756 0.15561,-0.549603 0.21077,-3.475627 0.0317,-1.680813 0.0489,-5.144198 0.0384,-7.696411 l -0.0192,-4.640389 -0.1767,-0.49987 c -0.20855,-0.589967 -0.60831,-1.132909 -1.04342,-1.417138 l -0.31276,-0.204312 -13.4627,0.0016 -13.46271,0.0016 -0.33323,0.235725 c -0.5042,0.356657 -1.0721,1.105553 -1.15935,1.528846 -0.0904,0.438492 -0.10033,15.385545 -0.0106,15.898604 0.14502,0.82896 1.04141,1.524888 2.22881,1.730358 0.64115,0.11094 24.63097,0.11054 25.29827,-4.3e-4 z"
     id="path226-19" /><path
     d="M 121.64181,88.125302 H 94.8331 c -1.84883,0 -3.34773,-0.912909 -3.34773,-2.038934 V 70.348655 c 0,-1.126025 1.4989,-2.038935 3.34773,-2.038935 h 26.80871 c 1.84882,0 3.34772,0.91291 3.34772,2.038935 v 15.737713 c 0,1.126025 -1.4989,2.038934 -3.34772,2.038934 z"
     fill="#ddd6ba"
     id="path56-1-1-5-5-65"
     style="stroke-width:1.31287" /><path
     style="opacity:0.999;fill:#cabfa3;fill-opacity:1;stroke-width:0.0803823"
     d="m 90.57571,90.468132 c -0.49718,-0.28519 -0.92798,-0.81177 -1.15959,-1.41743 l -0.15624,-0.40857 V 78.300699 67.959262 l 0.17411,-0.465816 c 0.22639,-0.605678 0.83027,-1.277728 1.3419,-1.493382 0.36882,-0.155458 1.09078,-0.162122 17.56348,-0.162122 h 17.17886 l 0.41816,0.236978 c 0.54881,0.311015 1.03053,0.917399 1.22305,1.539556 0.15058,0.486614 0.15143,0.556297 0.13239,10.802911 l -0.0192,10.313135 -0.16905,0.41497 c -0.21577,0.52965 -0.65794,1.0643 -1.09599,1.32518 l -0.3432,0.2044 -17.32506,0.0223 -17.32505,0.0223 z m 31.46828,-2.40547 c 1.23996,-0.18799 2.12097,-0.720898 2.41791,-1.462546 0.16084,-0.401756 0.17067,-0.549603 0.23118,-3.475627 0.0347,-1.680813 0.0537,-5.144198 0.0421,-7.696411 l -0.0211,-4.640389 -0.19381,-0.49987 c -0.22876,-0.589967 -0.66723,-1.132909 -1.14447,-1.417138 l -0.34306,-0.204312 -14.76649,0.0016 -14.76651,0.0016 -0.36551,0.235725 c -0.55302,0.356657 -1.17592,1.105553 -1.27163,1.528846 -0.0991,0.438492 -0.11004,15.385545 -0.0116,15.898604 0.15907,0.82896 1.14228,1.524888 2.44466,1.730358 0.70324,0.11094 27.01636,0.11054 27.74829,-4.3e-4 z"
     id="path226-0" /><path
     d="M 81.25813,88.203283 H 56.006687 c -1.741435,0 -3.153266,-0.91291 -3.153266,-2.03893 V 70.426636 c 0,-1.126025 1.411831,-2.038935 3.153266,-2.038935 H 81.25813 c 1.74142,0 3.15325,0.91291 3.15325,2.038935 v 15.737717 c 0,1.12602 -1.41183,2.03893 -3.15325,2.03893 z"
     fill="#ddd6ba"
     id="path56-1-1-5-5-65-8"
     style="stroke-width:1.27417" /><path
     style="opacity:0.999;fill:#cabfa3;fill-opacity:1;stroke-width:0.0780127"
     d="m 51.996601,90.546113 c -0.468299,-0.28519 -0.874075,-0.81177 -1.092231,-1.41743 l -0.147164,-0.40857 V 78.37868 68.037243 l 0.163996,-0.465816 c 0.213239,-0.605678 0.782041,-1.277728 1.263951,-1.493382 0.347396,-0.155458 1.027419,-0.162122 16.543247,-0.162122 h 16.18097 l 0.39387,0.236978 c 0.51693,0.311015 0.97067,0.917399 1.15201,1.539556 0.14183,0.486614 0.14263,0.556297 0.1247,10.802911 l -0.0181,10.313135 -0.15923,0.41497 c -0.20324,0.52965 -0.61972,1.0643 -1.03232,1.32518 l -0.32327,0.2044 -16.31867,0.0223 -16.318674,0.0223 z m 29.640339,-2.40547 c 1.16794,-0.18799 1.99777,-0.7209 2.27746,-1.46255 0.1515,-0.40175 0.16076,-0.5496 0.21775,-3.47562 0.0327,-1.680816 0.0506,-5.144201 0.0397,-7.696414 L 84.15195,70.86567 83.9694,70.3658 c -0.21547,-0.589967 -0.62847,-1.132909 -1.07799,-1.417138 l -0.32313,-0.204312 -13.90873,0.0016 -13.908751,0.0016 -0.344278,0.235725 c -0.520896,0.356657 -1.107613,1.105553 -1.197763,1.528846 -0.09334,0.438492 -0.103648,15.385542 -0.01093,15.898602 0.14983,0.82896 1.075927,1.52489 2.302654,1.73036 0.66239,0.11094 25.447028,0.11054 26.136448,-4.3e-4 z"
     id="path226-0-6" /><path
     d="m 442.19917,166.53 h -25.70366 c -1.77262,0 -3.20974,-0.91291 -3.20974,-2.03893 v -15.73772 c 0,-1.12602 1.43712,-2.03893 3.20974,-2.03893 h 25.70366 c 1.77261,0 3.20973,0.91291 3.20973,2.03893 v 15.73772 c 0,1.12602 -1.43712,2.03893 -3.20973,2.03893 z"
     fill="#ddd6ba"
     id="path56-1-1-5-5-6-9-8"
     style="stroke-width:1.28553" /><path
     style="opacity:0.999;fill:#cabfa3;fill-opacity:1;stroke-width:0.0787082"
     d="m 412.41361,168.87283 c -0.47669,-0.28519 -0.88973,-0.81177 -1.1118,-1.41743 l -0.14979,-0.40857 V 156.7054 146.36396 l 0.16693,-0.46582 c 0.21705,-0.60567 0.79605,-1.27772 1.28658,-1.49338 0.35362,-0.15546 1.04582,-0.16212 16.83952,-0.16212 h 16.47075 l 0.40093,0.23698 c 0.52618,0.31101 0.98805,0.9174 1.17264,1.53955 0.14437,0.48662 0.14519,0.5563 0.12693,10.80291 l -0.0184,10.31314 -0.16208,0.41497 c -0.20687,0.52965 -0.63081,1.0643 -1.05081,1.32518 l -0.32905,0.2044 -16.61092,0.0223 -16.61092,0.0223 z m 30.17117,-2.40547 c 1.18884,-0.18799 2.03354,-0.7209 2.31823,-1.46255 0.15422,-0.40175 0.16364,-0.5496 0.22165,-3.47562 0.0333,-1.68082 0.0515,-5.1442 0.0403,-7.69641 l -0.0203,-4.64039 -0.18583,-0.49987 c -0.21932,-0.58997 -0.63973,-1.13291 -1.09729,-1.41714 l -0.32891,-0.20431 -14.15783,0.002 -14.15783,0.002 -0.35044,0.23572 c -0.53024,0.35666 -1.12746,1.10556 -1.21922,1.52885 -0.0951,0.43849 -0.1055,15.38554 -0.0111,15.8986 0.15251,0.82896 1.09519,1.52489 2.3439,1.73036 0.67425,0.11094 25.90275,0.11054 26.60451,-4.3e-4 z"
     id="path226-1-0-9" /><path
     d="m 444.75419,177.91638 -0.0173,35.4094 c -0.001,2.44195 -0.91507,4.4212 -2.0411,4.42054 l -15.7377,-0.009 c -1.12603,-6.7e-4 -2.03797,-1.98097 -2.03678,-4.42293 l 0.0173,-35.40941 c 0.001,-2.44194 0.91508,-4.42119 2.04109,-4.42052 l 15.73771,0.009 c 1.12603,6.6e-4 2.03797,1.98095 2.03678,4.42292 z"
     fill="#ddd6ba"
     id="path56-1-1-5-5-18"
     style="stroke-width:1.50884" /><path
     style="opacity:0.999;fill:#cabfa3;fill-opacity:1;stroke-width:0.0923808"
     d="m 447.07695,218.95037 c -0.28551,0.65652 -0.81235,1.22522 -1.41817,1.53079 l -0.40867,0.20611 -10.34143,-0.007 -10.34143,-0.007 -0.46572,-0.23023 c -0.60553,-0.29937 -1.27717,-1.09737 -1.49251,-1.77328 -0.15522,-0.48723 -0.16141,-1.44081 -0.15077,-23.19823 l 0.0111,-22.69014 0.23724,-0.55217 c 0.31137,-0.7247 0.91807,-1.36061 1.54035,-1.61454 0.48672,-0.19861 0.55639,-0.19969 10.80299,-0.16855 l 10.31313,0.0314 0.41486,0.22353 c 0.52949,0.28529 1.06386,0.86963 1.32446,1.44837 l 0.20419,0.45342 0.0111,22.88324 0.0111,22.88325 z m -2.38514,-41.56524 c -0.18719,-1.63787 -0.71953,-2.80184 -1.46099,-3.19447 -0.40165,-0.21268 -0.54949,-0.22575 -3.47547,-0.30738 -1.68079,-0.0469 -5.14416,-0.0739 -7.69638,-0.0601 l -4.6404,0.0251 -0.5,0.25569 c -0.59012,0.3018 -1.13334,0.88063 -1.41788,1.51082 l -0.20452,0.45298 -0.008,19.50384 -0.008,19.50387 0.23548,0.4829 c 0.3563,0.73065 1.10479,1.55383 1.52803,1.68048 0.43842,0.1312 15.38546,0.15432 15.89859,0.0246 0.82905,-0.20961 1.52563,-1.50784 1.73193,-3.22793 0.1114,-0.92879 0.12798,-35.68362 0.0175,-36.65043 z"
     id="path226-49" /><path
     d="m 389.9513,177.47784 -0.0173,35.4094 c -0.001,2.44195 -0.91507,4.4212 -2.0411,4.42054 l -15.7377,-0.009 c -1.12603,-6.7e-4 -2.03797,-1.98097 -2.03678,-4.42293 l 0.0173,-35.40941 c 0.001,-2.44194 0.91508,-4.42119 2.04109,-4.42052 l 15.73771,0.009 c 1.12603,6.6e-4 2.03797,1.98095 2.03678,4.42292 z"
     fill="#ddd6ba"
     id="path56-1-1-5-5-18-3"
     style="stroke-width:1.50884" /><path
     style="opacity:0.999;fill:#cabfa3;fill-opacity:1;stroke-width:0.0923808"
     d="m 392.27406,218.51183 c -0.28551,0.65652 -0.81235,1.22522 -1.41817,1.53079 l -0.40867,0.20611 -10.34143,-0.007 -10.34143,-0.007 -0.46572,-0.23023 c -0.60553,-0.29937 -1.27717,-1.09737 -1.49251,-1.77328 -0.15522,-0.48723 -0.16141,-1.44081 -0.15077,-23.19823 l 0.0111,-22.69014 0.23724,-0.55217 c 0.31137,-0.7247 0.91807,-1.36061 1.54035,-1.61454 0.48672,-0.19861 0.55639,-0.19969 10.80299,-0.16855 l 10.31313,0.0314 0.41486,0.22353 c 0.52949,0.28529 1.06386,0.86963 1.32446,1.44837 l 0.20419,0.45342 0.0111,22.88324 0.0111,22.88325 z m -2.38514,-41.56524 c -0.18719,-1.63787 -0.71953,-2.80184 -1.46099,-3.19447 -0.40165,-0.21268 -0.54949,-0.22575 -3.47547,-0.30738 -1.68079,-0.0469 -5.14416,-0.0739 -7.69638,-0.0601 l -4.6404,0.0251 -0.5,0.25569 c -0.59012,0.3018 -1.13334,0.88063 -1.41788,1.51082 l -0.20452,0.45298 -0.008,19.50384 -0.008,19.50387 0.23548,0.4829 c 0.3563,0.73065 1.10479,1.55383 1.52803,1.68048 0.43842,0.1312 15.38546,0.15432 15.89859,0.0246 0.82905,-0.20961 1.52563,-1.50784 1.73193,-3.22793 0.1114,-0.92879 0.12798,-35.68362 0.0175,-36.65043 z"
     id="path226-49-7" /><path
     d="m 359.98636,217.78 h -25.52748 c -1.76047,0 -3.18774,-0.91291 -3.18774,-2.03893 v -15.73771 c 0,-1.12603 1.42727,-2.03894 3.18774,-2.03894 h 25.52748 c 1.76046,0 3.18772,0.91291 3.18772,2.03894 v 15.73771 c 0,1.12602 -1.42726,2.03893 -3.18772,2.03893 z"
     fill="#ddd6ba"
     id="path56-1-1-5-5-6-8"
     style="stroke-width:1.28112" /><path
     style="opacity:0.999;fill:#cabfa3;fill-opacity:1;stroke-width:0.078438"
     d="m 330.40496,220.12283 c -0.47342,-0.28519 -0.88363,-0.81177 -1.10417,-1.41743 l -0.14877,-0.40857 V 207.9554 197.61396 l 0.16579,-0.46581 c 0.21556,-0.60568 0.79059,-1.27773 1.27776,-1.49339 0.35119,-0.15545 1.03865,-0.16212 16.72409,-0.16212 h 16.35785 l 0.39818,0.23698 c 0.52258,0.31102 0.98128,0.9174 1.1646,1.53956 0.14338,0.48661 0.1442,0.55629 0.12606,10.80291 l -0.0183,10.31313 -0.16098,0.41497 c -0.20545,0.52965 -0.62649,1.0643 -1.0436,1.32518 l -0.3268,0.2044 -16.49706,0.0223 -16.49706,0.0223 z m 29.96436,-2.40547 c 1.18069,-0.18799 2.0196,-0.7209 2.30235,-1.46254 0.15315,-0.40176 0.16251,-0.54961 0.22013,-3.47563 0.033,-1.68081 0.0511,-5.1442 0.0401,-7.69641 l -0.0201,-4.64039 -0.18456,-0.49987 c -0.21781,-0.58997 -0.63534,-1.13291 -1.08977,-1.41714 l -0.32665,-0.20431 -14.06079,0.002 -14.06079,0.002 -0.34803,0.23572 c -0.5266,0.35666 -1.11973,1.10556 -1.21086,1.52885 -0.0944,0.43849 -0.10478,15.38555 -0.011,15.8986 0.15147,0.82896 1.08769,1.52489 2.32783,1.73036 0.66963,0.11094 25.7252,0.11054 26.42216,-4.3e-4 z"
     id="path226-1-2" /><path
     d="m 395.34702,193.76364 v -21.041 c 0,-1.093 0.886,-1.98 1.98,-1.98 h 18.937 c 1.093,0 1.98,0.886 1.98,1.98 v 21.04 c 0,1.093 -0.886,1.98 -1.98,1.98 h -18.937 c -1.094,0 -1.98,-0.886 -1.98,-1.979 z"
     fill="#cabfa3"
     id="path151-1" /><path
     d="m 414.67402,192.91264 h -15.757 c -1.093,0 -1.98,-0.886 -1.98,-1.98 v -15.38 c 0,-1.093 0.886,-1.98 1.98,-1.98 h 15.757 c 1.093,0 1.98,0.886 1.98,1.98 v 15.38 c 0,1.094 -0.887,1.98 -1.98,1.98 z"
     fill="#ddd6ba"
     id="path152-3" /><path
     d="m 414.95731,218.642 h -16.18965 c -1.1165,0 -2.02168,-0.91291 -2.02168,-2.03893 v -15.73771 c 0,-1.12603 0.90518,-2.03894 2.02168,-2.03894 h 16.18965 c 1.11649,0 2.02167,0.91291 2.02167,2.03894 v 15.73771 c 0,1.12602 -0.90518,2.03893 -2.02167,2.03893 z"
     fill="#ddd6ba"
     id="path56-1-1-5-5-6-8-5"
     style="stroke-width:1.02025" /><path
     style="opacity:0.999;fill:#cabfa3;fill-opacity:1;stroke-width:0.0624657"
     d="m 396.19664,220.98483 c -0.30024,-0.28519 -0.5604,-0.81177 -0.70027,-1.41743 l -0.0944,-0.40857 V 208.8174 198.47596 l 0.10514,-0.46581 c 0.13671,-0.60568 0.5014,-1.27773 0.81037,-1.49339 0.22272,-0.15545 0.65871,-0.16212 10.6065,-0.16212 h 10.37422 l 0.25253,0.23698 c 0.33142,0.31102 0.62233,0.9174 0.7386,1.53956 0.0909,0.48661 0.0915,0.55629 0.0799,10.80291 l -0.0116,10.31313 -0.1021,0.41497 c -0.13029,0.52965 -0.39732,1.0643 -0.66185,1.32518 l -0.20726,0.2044 -10.46252,0.0223 -10.46251,0.0223 z m 19.00354,-2.40547 c 0.7488,-0.18799 1.28084,-0.7209 1.46017,-1.46254 0.0971,-0.40176 0.10306,-0.54961 0.1396,-3.47563 0.0209,-1.68081 0.0324,-5.1442 0.0254,-7.69641 l -0.0127,-4.64039 -0.11705,-0.49987 c -0.13814,-0.58997 -0.40294,-1.13291 -0.69114,-1.41714 l -0.20716,-0.20431 -8.91742,0.002 -8.91743,0.002 -0.22072,0.23572 c -0.33397,0.35666 -0.71014,1.10556 -0.76793,1.52885 -0.0599,0.43849 -0.0665,15.38555 -0.007,15.8986 0.0961,0.82896 0.68982,1.52489 1.47632,1.73036 0.42469,0.11094 16.31505,0.11054 16.75707,-4.3e-4 z"
     id="path226-1-2-9" /><path
     d="M 82.90294,141.03 H 57.651501 c -1.741435,0 -3.153266,-0.91291 -3.153266,-2.03893 v -15.73772 c 0,-1.12602 1.411831,-2.03893 3.153266,-2.03893 H 82.90294 c 1.74142,0 3.15325,0.91291 3.15325,2.03893 v 15.73772 c 0,1.12602 -1.41183,2.03893 -3.15325,2.03893 z"
     fill="#ddd6ba"
     id="path56-1-1-5-5-65-8-4"
     style="stroke-width:1.27417" /><path
     style="opacity:0.999;fill:#cabfa3;fill-opacity:1;stroke-width:0.0780127"
     d="m 53.641415,143.37283 c -0.468299,-0.28519 -0.874075,-0.81177 -1.092231,-1.41743 L 52.40202,141.54683 V 131.2054 120.86396 l 0.163996,-0.46582 c 0.213239,-0.60567 0.782041,-1.27772 1.263951,-1.49338 0.347396,-0.15546 1.027419,-0.16212 16.543243,-0.16212 h 16.18097 l 0.39387,0.23698 c 0.51693,0.31101 0.97067,0.9174 1.15201,1.53955 0.14183,0.48662 0.14263,0.5563 0.1247,10.80291 l -0.0181,10.31314 -0.15923,0.41497 c -0.20324,0.52965 -0.61972,1.0643 -1.03232,1.32518 l -0.32327,0.2044 -16.31867,0.0223 -16.31867,0.0223 z m 29.640335,-2.40547 c 1.16794,-0.18799 1.99777,-0.7209 2.27746,-1.46255 0.1515,-0.40175 0.16076,-0.5496 0.21775,-3.47562 0.0327,-1.68082 0.0506,-5.1442 0.0397,-7.69641 l -0.0199,-4.64039 -0.18255,-0.49987 c -0.21547,-0.58997 -0.62847,-1.13291 -1.07799,-1.41714 l -0.32313,-0.20431 -13.90873,0.002 -13.908747,0.002 -0.344278,0.23572 c -0.520896,0.35666 -1.107613,1.10556 -1.197763,1.52885 -0.09334,0.43849 -0.103648,15.38554 -0.01093,15.8986 0.14983,0.82896 1.075927,1.52489 2.302654,1.73036 0.66239,0.11094 25.447024,0.11054 26.136444,-4.3e-4 z"
     id="path226-0-6-0" /><path
     d="M 90.40294,166.53 H 65.1515 c -1.74143,0 -3.15327,-0.91291 -3.15327,-2.03893 v -15.73772 c 0,-1.12602 1.41184,-2.03893 3.15327,-2.03893 h 25.25144 c 1.74142,0 3.15325,0.91291 3.15325,2.03893 v 15.73772 c 0,1.12602 -1.41183,2.03893 -3.15325,2.03893 z"
     fill="#ddd6ba"
     id="path56-1-1-5-5-65-8-6"
     style="stroke-width:1.27417" /><path
     style="opacity:0.999;fill:#cabfa3;fill-opacity:1;stroke-width:0.0780127"
     d="m 61.14142,168.87283 c -0.4683,-0.28519 -0.87408,-0.81177 -1.09224,-1.41743 l -0.14716,-0.40857 V 156.7054 146.36396 l 0.164,-0.46582 c 0.21324,-0.60567 0.78204,-1.27772 1.26395,-1.49338 0.34739,-0.15546 1.02742,-0.16212 16.54324,-0.16212 h 16.18097 l 0.39387,0.23698 c 0.51693,0.31101 0.97067,0.9174 1.15201,1.53955 0.14183,0.48662 0.14263,0.5563 0.1247,10.80291 l -0.0181,10.31314 -0.15923,0.41497 c -0.20324,0.52965 -0.61972,1.0643 -1.03232,1.32518 l -0.32327,0.2044 -16.31867,0.0223 -16.31867,0.0223 z m 29.64033,-2.40547 c 1.16794,-0.18799 1.99777,-0.7209 2.27746,-1.46255 0.1515,-0.40175 0.16076,-0.5496 0.21775,-3.47562 0.0327,-1.68082 0.0506,-5.1442 0.0397,-7.69641 l -0.0199,-4.64039 -0.18255,-0.49987 c -0.21547,-0.58997 -0.62847,-1.13291 -1.07799,-1.41714 l -0.32313,-0.20431 -13.90873,0.002 -13.90875,0.002 -0.34428,0.23572 c -0.52089,0.35666 -1.10761,1.10556 -1.19776,1.52885 -0.0933,0.43849 -0.10365,15.38554 -0.0109,15.8986 0.14983,0.82896 1.07593,1.52489 2.30266,1.73036 0.66239,0.11094 25.44702,0.11054 26.13644,-4.3e-4 z"
     id="path226-0-6-3" /><path
     d="m 61.14035,192.77405 v -21.041 c 0,-1.093 0.886,-1.98 1.98,-1.98 h 18.937 c 1.093,0 1.98,0.886 1.98,1.98 v 21.04 c 0,1.093 -0.886,1.98 -1.98,1.98 h -18.937 c -1.094,0 -1.98,-0.886 -1.98,-1.979 z"
     fill="#cabfa3"
     id="path133-1" /><path
     d="m 80.46635,191.92305 h -15.757 c -1.093,0 -1.98,-0.886 -1.98,-1.98 v -15.38 c 0,-1.093 0.886,-1.98 1.98,-1.98 h 15.757 c 1.093,0 1.98,0.886 1.98,1.98 v 15.38 c 0,1.094 -0.886,1.98 -1.98,1.98 z"
     fill="#ddd6ba"
     id="path134-5" /><path
     d="m 86.79335,192.77405 v -21.041 c 0,-1.093 0.886,-1.98 1.98,-1.98 h 18.937 c 1.093,0 1.98,0.886 1.98,1.98 v 21.04 c 0,1.093 -0.886,1.98 -1.98,1.98 h -18.937 c -1.093,0 -1.98,-0.886 -1.98,-1.979 z"
     fill="#cabfa3"
     id="path135-4" /><path
     d="m 106.12035,191.92305 h -15.757 c -1.093,0 -1.98,-0.886 -1.98,-1.98 v -15.38 c 0,-1.093 0.886,-1.98 1.98,-1.98 h 15.757 c 1.093,0 1.98,0.886 1.98,1.98 v 15.38 c 0,1.094 -0.887,1.98 -1.98,1.98 z"
     fill="#ddd6ba"
     id="path136-2" /><path
     d="m 98.86649,219.6215 v -21.041 c 0,-1.093 0.886,-1.98 1.98,-1.98 h 18.937 c 1.093,0 1.98,0.886 1.98,1.98 v 21.04 c 0,1.093 -0.886,1.98 -1.98,1.98 h -18.937 c -1.093,0 -1.98,-0.886 -1.98,-1.979 z"
     fill="#cabfa3"
     id="path135-4-0" /><path
     d="m 118.19349,218.7705 h -15.757 c -1.093,0 -1.98,-0.886 -1.98,-1.98 v -15.38 c 0,-1.093 0.886,-1.98 1.98,-1.98 h 15.757 c 1.093,0 1.98,0.886 1.98,1.98 v 15.38 c 0,1.094 -0.887,1.98 -1.98,1.98 z"
     fill="#ddd6ba"
     id="path136-2-1" /><path
     d="M 92.09012,218.43381 H 66.83868 c -1.74143,0 -3.15327,-0.91291 -3.15327,-2.03893 v -15.73772 c 0,-1.12602 1.41184,-2.03893 3.15327,-2.03893 h 25.25144 c 1.74142,0 3.15325,0.91291 3.15325,2.03893 v 15.73772 c 0,1.12602 -1.41183,2.03893 -3.15325,2.03893 z"
     fill="#ddd6ba"
     id="path56-1-1-5-5-65-8-6-9"
     style="stroke-width:1.27417" /><path
     style="opacity:0.999;fill:#cabfa3;fill-opacity:1;stroke-width:0.0780127"
     d="m 62.8286,220.77664 c -0.4683,-0.28519 -0.87408,-0.81177 -1.09224,-1.41743 l -0.14716,-0.40857 v -10.34143 -10.34144 l 0.164,-0.46582 c 0.21324,-0.60567 0.78204,-1.27772 1.26395,-1.49338 0.34739,-0.15546 1.02742,-0.16212 16.54324,-0.16212 h 16.18097 l 0.39387,0.23698 c 0.51693,0.31101 0.97067,0.9174 1.15201,1.53955 0.14183,0.48662 0.14263,0.5563 0.1247,10.80291 l -0.0181,10.31314 -0.15923,0.41497 c -0.20324,0.52965 -0.61972,1.0643 -1.03232,1.32518 l -0.32327,0.2044 -16.31867,0.0223 -16.31867,0.0223 z m 29.64033,-2.40547 c 1.16794,-0.18799 1.99777,-0.7209 2.27746,-1.46255 0.1515,-0.40175 0.16076,-0.5496 0.21775,-3.47562 0.0327,-1.68082 0.0506,-5.1442 0.0397,-7.69641 l -0.0199,-4.64039 -0.18255,-0.49987 c -0.21547,-0.58997 -0.62847,-1.13291 -1.07799,-1.41714 l -0.32313,-0.20431 -13.90873,0.002 -13.90875,0.002 -0.34428,0.23572 c -0.52089,0.35666 -1.10761,1.10556 -1.19776,1.52885 -0.0933,0.43849 -0.10365,15.38554 -0.0109,15.8986 0.14983,0.82896 1.07593,1.52489 2.30266,1.73036 0.66239,0.11094 25.44702,0.11054 26.13644,-4.3e-4 z"
     id="path226-0-6-3-7" /><rect
     style="opacity:0.999;fill:#ddd6ba;fill-opacity:1"
     id="rect306"
     width="2"
     height="274"
     x="455"
     y="2" /><rect
     style="opacity:0.999;fill:#ddd6ba;fill-opacity:1"
     id="rect306-5"
     width="2"
     height="274"
     x="47"
     y="1" /><rect
     style="opacity:0.999;fill:#595542;fill-opacity:1"
     id="rect307"
     width="405"
     height="57"
     x="49.5"
     y="4" /><path
     d="m 306.71602,246.68664 h 19.009 c 1.091,0 1.975,-0.85536 1.975,-1.9104 v -20.1792 c 0,-1.05504 -0.884,-1.9104 -1.975,-1.9104 h -19.009 -180.071 c -1.091,0 -1.975,0.85536 -1.975,1.9104 v 20.18016 c 0,1.05504 0.884,1.90944 1.975,1.90944 z"
     fill="#cabfa3"
     id="path131"
     style="stroke-width:0.979796" /><path
     d="m 308.31102,243.85564 h 15.82 c 1.091,0 1.975,-0.891 1.975,-1.99 v -15.36 c 0,-1.099 -0.884,-1.99 -1.975,-1.99 h -15.82 -180.071 c -1.091,0 -1.975,0.891 -1.975,1.99 v 15.36 c 0,1.099 0.884,1.99 1.975,1.99 z"
     fill="#ddd6ba"
     id="path132" /><g
     id="g307"
     transform="matrix(0.61587367,0,0,0.53020433,60.611883,14.827379)"><g
       fill="#ffffff"
       fill-opacity="0.5"
       stroke-width="0.238"
       id="g1"><path
         d="m 71.721,12.797 q 0,0.057 -0.014,0.096 -0.02,0.059 -0.065,0.059 -0.03,0 -0.063,-0.014 -0.04,-0.017 -0.044,-0.041 0.014,0 0.032,0.005 0.042,0.01 0.052,0.01 0.04,0 0.061,-0.04 0.016,-0.032 0.016,-0.077 0,-0.032 -0.02,-0.091 -0.021,-0.06 -0.021,-0.083 0,-0.007 0.004,-0.012 0.004,-0.005 0.011,-0.005 0.019,0 0.037,0.086 0.014,0.072 0.014,0.107 z m 0.183,0.049 q 0,0.048 -0.028,0.076 -0.028,0.028 -0.077,0.028 -0.027,0 -0.042,-0.013 -0.015,-0.013 -0.015,-0.04 0,-0.037 0.05,-0.076 0.046,-0.036 0.085,-0.036 0.018,0 0.024,0.023 0.003,0.013 0.003,0.038 z m -0.029,0.013 v -0.01 L 71.87,12.835 q -0.008,0.005 -0.025,0.026 -0.009,0.01 -0.016,0.015 0,-0.009 0.002,-0.015 l 0.006,-0.013 q -0.02,0 -0.043,0.017 -0.023,0.018 -0.023,0.038 0,0.014 0.015,0.014 0.03,0 0.057,-0.014 0.033,-0.017 0.033,-0.044 z m 0.225,0.006 q 0,0.024 -0.017,0.053 -0.02,0.033 -0.041,0.033 -0.006,0 -0.01,-0.007 -0.005,-0.007 -0.005,-0.014 0,-0.01 0.018,-0.027 0.019,-0.018 0.019,-0.025 l -10e-4,-0.01 -0.002,-0.005 q -0.036,0.008 -0.073,0.04 -0.037,0.034 -0.056,0.038 -0.004,-0.01 -0.004,-0.021 0,-0.014 0.006,-0.028 0.004,-0.011 0.015,-0.026 l 0.035,-0.057 0.033,-0.057 0.034,-0.058 q 0.006,-0.01 0.01,-0.013 0.006,-0.006 0.015,-0.008 0.006,0.002 0.008,0.007 0.003,0.005 0.003,0.012 0,0.016 -0.02,0.044 l -0.04,0.051 q -0.021,0.033 -0.021,0.059 v 0.005 l 0.032,-0.015 q 0.02,-0.008 0.033,-0.008 0.015,0 0.022,0.01 0.007,0.01 0.007,0.026 z m 0.222,-0.028 q 0,0.033 -0.016,0.07 -0.017,0.04 -0.042,0.055 l -0.01,-0.014 -0.002,-0.015 q 0,-0.008 0.023,-0.048 0.01,-0.018 0.01,-0.031 v -0.006 q -0.018,0.005 -0.061,0.032 l -0.087,0.053 q -0.007,0 -0.012,-0.005 -0.005,-0.005 -0.005,-0.011 0,-0.01 0.032,-0.067 l 0.034,-0.06 q 0.008,0.01 0.01,0.022 0.002,0.012 0.002,0.029 v 0.011 l 0.069,-0.04 q 0.027,-0.014 0.037,-0.014 0.007,0 0.012,0.015 0.006,0.015 0.006,0.024 z m 0.414,0.093 q 0,0.009 -0.008,0.013 -0.007,0.004 -0.017,0.004 l -0.02,-0.002 -0.036,-0.004 -0.057,0.003 -0.034,0.002 q -0.029,0 -0.029,-0.03 0,-0.027 0.018,-0.078 0.01,-0.03 0.038,-0.095 0.025,-0.06 0.031,-0.084 0.002,-0.008 0.004,-0.01 0.004,-0.006 0.01,-0.006 0.01,0 0.015,0.013 0.006,0.013 0.006,0.023 0,0.017 -0.02,0.057 L 72.6,12.812 q -0.02,0.045 -0.02,0.068 0,0.012 0.01,0.017 0.006,0.003 0.02,0.003 l 0.037,-0.002 0.034,-0.003 q 0.021,0 0.035,0.006 0.02,0.009 0.02,0.028 z m 0.177,-0.084 q 0,0.048 -0.028,0.076 -0.029,0.028 -0.078,0.028 -0.027,0 -0.042,-0.013 -0.015,-0.013 -0.015,-0.04 0,-0.037 0.05,-0.076 0.046,-0.036 0.086,-0.036 0.018,0 0.023,0.023 0.003,0.013 0.003,0.038 z m -0.03,0.013 v -0.01 l -0.004,-0.014 q -0.008,0.005 -0.026,0.026 l -0.015,0.015 q 0,-0.009 0.002,-0.015 l 0.006,-0.013 q -0.021,0 -0.044,0.017 -0.022,0.018 -0.022,0.038 0,0.014 0.015,0.014 0.029,0 0.056,-0.014 0.033,-0.017 0.033,-0.044 z m 0.23,-0.023 q 0,0.015 -0.008,0.032 -0.008,0.017 -0.02,0.029 V 12.89 l 0.001,-0.018 0.001,-0.017 q 0,-0.008 -0.002,-0.012 -0.002,-0.004 -0.01,-0.004 -0.022,0 -0.055,0.034 l -0.072,0.076 h -0.006 l -0.01,-0.002 q 0,-0.017 0.012,-0.038 l 0.029,-0.06 0.006,-0.023 0.005,-0.015 0.009,-0.014 q 0.005,-0.007 0.013,-0.01 l 0.005,0.057 0.031,-0.026 q 0.021,-0.017 0.036,-0.017 0.016,0 0.025,0.01 0.01,0.01 0.01,0.025 z m 0.234,-0.056 q 0,0.02 -0.053,0.053 -0.052,0.032 -0.075,0.032 -0.011,0 -0.015,-0.008 -0.003,-0.008 -0.003,-0.022 v -0.012 q 0.032,0 0.058,-0.01 0.026,-0.01 0.046,-0.032 -0.014,-0.005 -0.03,-0.005 -0.034,0 -0.073,0.027 -0.043,0.029 -0.043,0.062 0,0.031 0.043,0.044 l 0.08,0.013 q 0.044,0.007 0.044,0.023 0,0.007 -0.016,0.012 -0.015,0.005 -0.04,0.005 -0.06,0 -0.096,-0.02 -0.047,-0.024 -0.047,-0.079 0,-0.057 0.058,-0.09 0.048,-0.03 0.11,-0.03 0.019,0 0.034,0.01 0.018,0.01 0.018,0.027 z m 0.19,-0.085 q 0,0.01 -0.026,0.044 -0.025,0.033 -0.025,0.051 0,0.01 0.01,0.018 0.024,0.021 0.024,0.026 0,0.006 -0.004,0.012 -0.004,0.006 -0.01,0.006 -0.005,0 -0.014,-0.006 l -0.026,-0.019 -0.01,0.021 q -0.014,0.025 -0.019,0.037 l -0.014,0.044 q -0.013,0.03 -0.031,0.03 v -0.012 q 0,-0.034 0.021,-0.08 l 0.024,-0.044 q -0.038,-0.02 -0.083,-0.02 0,-0.018 0.007,-0.026 0.008,-0.01 0.025,-0.01 0.016,0 0.04,0.007 l 0.024,0.006 q 0.01,-0.003 0.025,-0.031 0.039,-0.068 0.053,-0.078 l 0.006,0.012 q 0.003,0.006 0.003,0.012 z m 0.175,0.17 q 0,0.024 -0.017,0.053 -0.02,0.033 -0.042,0.033 -0.006,0 -0.01,-0.007 -0.004,-0.007 -0.004,-0.014 0,-0.01 0.018,-0.027 0.019,-0.018 0.019,-0.025 l -0.001,-0.01 -0.002,-0.005 q -0.036,0.008 -0.073,0.04 -0.037,0.034 -0.056,0.038 -0.004,-0.01 -0.004,-0.021 0,-0.014 0.006,-0.028 0.004,-0.011 0.014,-0.026 0.017,-0.025 0.035,-0.057 l 0.033,-0.057 0.035,-0.058 q 0.006,-0.01 0.01,-0.013 0.006,-0.006 0.015,-0.008 0.006,0.002 0.008,0.007 0.003,0.005 0.003,0.012 0,0.016 -0.021,0.044 l -0.04,0.051 q -0.02,0.033 -0.02,0.059 v 0.005 l 0.031,-0.015 q 0.02,-0.008 0.034,-0.008 0.015,0 0.022,0.01 0.007,0.01 0.007,0.026 z m 0.391,-0.155 q 0,0.022 -0.023,0.06 -0.016,0.024 -0.05,0.069 -0.035,0.044 -0.044,0.058 l 0.036,0.011 q 0.035,0.01 0.035,0.038 l -0.028,0.004 h -0.005 v -0.004 l -0.013,-0.002 -0.028,0.003 -0.03,0.003 q -0.013,0 -0.02,-0.005 -0.009,-0.005 -0.009,-0.017 0,-0.01 0.037,-0.057 l 0.069,-0.088 q 0.037,-0.05 0.037,-0.068 0,-0.007 -0.005,-0.01 -0.004,-0.003 -0.018,-0.003 -0.009,0 -0.037,0.018 -0.014,0.009 -0.023,0.009 L 73.976,12.728 73.97,12.721 q -0.003,-0.006 -0.003,-0.01 0,-0.02 0.039,-0.036 0.033,-0.014 0.057,-0.014 0.02,0 0.031,0.015 0.01,0.013 0.01,0.035 z m 0.287,0.086 q 0,0.057 -0.063,0.102 -0.057,0.04 -0.117,0.04 -0.03,0 -0.048,-0.015 -0.018,-0.015 -0.018,-0.044 0,-0.065 0.057,-0.113 0.054,-0.045 0.12,-0.045 0.034,0 0.052,0.02 0.017,0.02 0.017,0.055 z m -0.03,0.01 q 0,-0.021 -0.024,-0.032 -0.019,-0.008 -0.045,-0.008 -0.037,0 -0.078,0.037 -0.041,0.036 -0.041,0.073 0,0.016 0.008,0.022 0.008,0.006 0.024,0.006 0.047,0 0.097,-0.025 0.06,-0.03 0.06,-0.072 z m 0.248,-0.096 q 0,0.022 -0.024,0.06 -0.015,0.024 -0.05,0.069 -0.035,0.044 -0.043,0.058 l 0.035,0.011 q 0.035,0.01 0.035,0.038 l -0.028,0.004 h -0.005 v -0.004 l -0.012,-0.002 q -0.01,0 -0.029,0.003 l -0.03,0.003 q -0.012,0 -0.02,-0.005 -0.009,-0.005 -0.009,-0.017 0,-0.01 0.037,-0.057 l 0.07,-0.088 q 0.036,-0.05 0.036,-0.068 0,-0.007 -0.005,-0.01 -0.004,-0.003 -0.017,-0.003 -0.01,0 -0.038,0.018 -0.014,0.009 -0.022,0.009 l -0.008,-10e-4 -0.006,-0.007 q -0.003,-0.006 -0.003,-0.01 0,-0.02 0.038,-0.036 0.033,-0.014 0.057,-0.014 0.021,0 0.032,0.015 0.01,0.013 0.01,0.035 z m 0.219,0 q 0,0.022 -0.024,0.06 -0.015,0.024 -0.05,0.069 -0.035,0.044 -0.043,0.058 l 0.035,0.011 q 0.035,0.01 0.035,0.038 l -0.028,0.004 h -0.005 v -0.004 l -0.012,-0.002 q -0.01,0 -0.029,0.003 l -0.03,0.003 q -0.012,0 -0.02,-0.005 -0.008,-0.005 -0.008,-0.017 0,-0.01 0.036,-0.057 l 0.07,-0.088 q 0.037,-0.05 0.037,-0.068 0,-0.007 -0.005,-0.01 -0.004,-0.003 -0.018,-0.003 -0.01,0 -0.038,0.018 -0.013,0.009 -0.022,0.009 L 74.7,12.728 74.694,12.721 q -0.003,-0.006 -0.003,-0.01 0,-0.02 0.039,-0.036 0.032,-0.014 0.057,-0.014 0.02,0 0.031,0.015 0.01,0.013 0.01,0.035 z"
         id="path1" /></g><path
       d="m 64.794,26.552 c -0.285,-0.094 -1.624,-0.617 -2.976,-1.163 -1.352,-0.546 -3.173,-1.225 -4.045,-1.508 -1.514,-0.492 -2.3,-0.722 -6.385,-1.868 -1.644,-0.461 -1.75,-0.504 -1.33,-0.53 0.616,-0.04 4.903,0.879 6.763,1.449 0.15,0.045 0.164,-0.042 0.164,-0.97 v -1.02 l -0.87,-0.12 C 55.026,20.675 53.897,20.29 53.019,19.768 52.169,19.263 50.932,18.084 50.364,17.237 49.95,16.621 49.26,15.261 49.131,14.808 l -0.06,-0.211 h 16.458 l -0.054,0.211 c -0.03,0.117 -0.19,0.54 -0.359,0.941 -0.749,1.789 -2.25,3.457 -3.815,4.242 a 8.62,8.62 0 0 1 -3.018,0.876 l -0.64,0.06 v 2.215 l 0.448,0.142 c 0.246,0.078 1.097,0.34 1.892,0.582 3.602,1.097 6.092,2.239 5.911,2.71 -0.077,0.202 -0.438,0.194 -1.1,-0.024 z M 50.024,12.406 c 0,-0.067 0.062,-0.624 0.139,-1.24 0.765,-6.17 3.007,-10.196 6.13,-11.001 2.216,-0.57 4.444,0.37 5.862,2.474 1.353,2.007 2.337,5.419 2.602,9.019 l 0.064,0.87 h -7.399 c -5.972,0 -7.398,-0.023 -7.398,-0.121 z"
       fill="#32cb32"
       id="path2" /><g
       fill="#ffffff"
       stroke-width="0.265"
       id="g3"><path
         d="M 5.948,15.928 V 15.247 Q 5.174,14.78 4.64,14.594 4.106,14.407 3.59,14.407 q -0.8,0 -1.288,0.383 -0.488,0.373 -0.488,0.989 0,0.56 0.423,0.933 0.424,0.364 1.087,0.364 0.552,0 1.187,-0.28 0.645,-0.28 1.437,-0.868 z m 0,2.604 v -0.877 q -0.718,0.588 -1.427,0.868 -0.71,0.28 -1.501,0.28 -1.354,0 -2.191,-0.822 Q 0,17.161 0,15.835 q 0,-1.372 0.893,-2.212 0.902,-0.84 2.375,-0.84 0.507,0 1.151,0.168 0.654,0.159 1.464,0.495 v -0.55 q 0,-1.27 -0.47,-1.858 -0.469,-0.588 -1.472,-0.588 -0.71,0 -1.243,0.29 -0.534,0.289 -0.976,0.914 L 0.12,11.234 q 0.442,-1.082 1.464,-1.67 1.03,-0.588 2.495,-0.588 1.841,0 2.651,0.896 0.82,0.896 0.82,2.986 v 4.031 h 1.39 v 1.643 z M 16.904,12.68 Q 16.646,11.664 16.02,11.132 15.394,10.6 14.455,10.6 q -1.326,0 -2.09,0.877 -0.764,0.868 -0.764,2.389 0,1.493 0.755,2.352 0.764,0.858 2.071,0.858 0.93,0 1.685,-0.485 0.764,-0.485 1.225,-1.381 l 1.454,0.718 q -0.534,1.335 -1.703,2.11 -1.17,0.765 -2.66,0.765 -2.09,0 -3.389,-1.354 -1.298,-1.353 -1.298,-3.564 0,-2.147 1.252,-3.528 1.261,-1.381 3.195,-1.381 0.792,0 1.445,0.261 0.663,0.252 1.27,0.793 V 9.21 h 1.474 v 3.47 z m 7.522,4.396 q 1.298,0 2.035,-0.85 0.736,-0.848 0.736,-2.36 0,-1.512 -0.736,-2.361 -0.728,-0.85 -2.035,-0.85 -1.29,0 -2.035,0.86 -0.736,0.848 -0.736,2.35 0,1.494 0.745,2.353 0.746,0.858 2.026,0.858 z m 4.622,-3.191 q 0,2.202 -1.28,3.564 -1.28,1.354 -3.342,1.354 -2.053,0 -3.324,-1.354 -1.27,-1.353 -1.27,-3.564 0,-2.212 1.27,-3.556 1.27,-1.353 3.324,-1.353 2.062,0 3.342,1.362 1.28,1.354 1.28,3.547 z m 2.265,3.005 v -6.141 h -1.299 v -1.54 h 2.882 v 1.83 q 0.479,-1.065 1.16,-1.531 0.682,-0.476 1.768,-0.476 0.157,0 0.331,0.009 0.175,0 0.36,0.009 v 1.801 q -0.01,0 -0.056,-0.009 -0.423,-0.028 -0.635,-0.028 -1.482,0 -2.173,0.859 -0.681,0.858 -0.681,2.753 v 2.463 h 1.648 v 1.643 h -4.604 v -1.643 z m 6.785,0 V 10.749 H 36.8 v -1.54 h 2.882 v 1.428 q 0.92,-0.756 1.675,-1.101 0.765,-0.345 1.51,-0.345 1.206,0 1.704,0.69 0.506,0.681 0.506,2.65 v 4.358 h 1.353 v 1.643 h -3.01 v -5.31 q 0,-1.661 -0.258,-2.09 -0.249,-0.439 -0.912,-0.439 -0.598,0 -1.206,0.345 -0.598,0.346 -1.289,1.092 v 4.76 h 1.363 v 1.642 H 36.8 V 16.889 Z M 70.42,14.37 q 0.037,1.222 0.82,1.969 0.79,0.737 2.07,0.737 0.893,0 1.666,-0.43 0.773,-0.428 1.252,-1.212 l 1.454,0.765 q -0.709,1.278 -1.822,1.941 -1.114,0.663 -2.568,0.663 -2.154,0 -3.433,-1.335 -1.28,-1.344 -1.28,-3.583 0,-2.212 1.27,-3.556 1.27,-1.353 3.323,-1.353 2.126,0 3.295,1.418 1.178,1.41 1.178,3.976 z m 0.157,-1.381 h 5.218 q -0.138,-1.195 -0.81,-1.83 -0.672,-0.634 -1.813,-0.634 -1.132,0 -1.822,0.653 -0.681,0.644 -0.773,1.81 z M 79.9,6.82 H 78.584 V 5.271 h 2.973 V 16.89 h 1.344 v 1.643 H 78.584 V 16.89 H 79.9 Z m 5.771,7.55 q 0.037,1.222 0.82,1.969 0.79,0.737 2.07,0.737 0.893,0 1.666,-0.43 0.773,-0.428 1.252,-1.212 l 1.454,0.765 q -0.709,1.278 -1.822,1.941 -1.114,0.663 -2.568,0.663 -2.154,0 -3.433,-1.335 -1.28,-1.344 -1.28,-3.583 0,-2.212 1.27,-3.556 1.27,-1.353 3.323,-1.353 2.126,0 3.295,1.418 1.178,1.41 1.178,3.976 z m 0.157,-1.381 h 5.218 q -0.138,-1.195 -0.81,-1.83 -0.672,-0.634 -1.813,-0.634 -1.132,0 -1.822,0.653 -0.681,0.644 -0.773,1.81 z M 101.3,12.68 Q 101.042,11.664 100.416,11.132 99.79,10.6 98.851,10.6 q -1.325,0 -2.089,0.877 -0.764,0.868 -0.764,2.389 0,1.493 0.755,2.352 0.764,0.858 2.07,0.858 0.93,0 1.685,-0.485 0.764,-0.485 1.224,-1.381 l 1.454,0.718 q -0.533,1.335 -1.702,2.11 -1.17,0.765 -2.66,0.765 -2.09,0 -3.387,-1.354 -1.298,-1.353 -1.298,-3.564 0,-2.147 1.252,-3.528 1.26,-1.381 3.193,-1.381 0.792,0 1.445,0.261 0.663,0.252 1.27,0.793 V 9.21 h 1.473 v 3.47 z m 5.448,3.276 q 0,0.682 0.157,0.933 0.165,0.243 0.58,0.243 0.211,0 0.432,-0.056 0.23,-0.065 0.543,-0.205 v 1.624 q -0.35,0.149 -0.718,0.224 -0.359,0.084 -0.727,0.084 -1.067,0 -1.5,-0.514 -0.423,-0.513 -0.423,-2.053 V 10.75 h -1.206 V 9.21 h 1.206 V 7.96 l 1.656,-1.39 v 2.64 h 1.712 v 1.54 h -1.712 z m 3.672,0.934 v -6.141 h -1.297 v -1.54 h 2.88 v 1.83 q 0.48,-1.065 1.16,-1.531 0.682,-0.476 1.768,-0.476 0.156,0 0.331,0.009 0.175,0 0.359,0.01 v 1.8 q -0.009,0 -0.055,-0.009 -0.424,-0.028 -0.635,-0.028 -1.482,0 -2.172,0.859 -0.682,0.858 -0.682,2.753 v 2.463 h 1.648 v 1.643 h -4.602 v -1.643 z m 10.328,0.186 q 1.297,0 2.034,-0.85 0.736,-0.848 0.736,-2.36 0,-1.512 -0.736,-2.361 -0.727,-0.85 -2.034,-0.85 -1.289,0 -2.034,0.86 -0.737,0.848 -0.737,2.35 0,1.494 0.746,2.353 0.745,0.858 2.025,0.858 z m 4.62,-3.191 q 0,2.202 -1.28,3.564 -1.279,1.354 -3.34,1.354 -2.053,0 -3.323,-1.354 -1.27,-1.353 -1.27,-3.564 0,-2.212 1.27,-3.556 1.27,-1.353 3.323,-1.353 2.061,0 3.34,1.362 1.28,1.354 1.28,3.547 z m 2.264,3.005 v -6.141 h -1.298 v -1.54 h 2.881 v 1.428 q 0.92,-0.756 1.675,-1.101 0.764,-0.345 1.51,-0.345 1.206,0 1.703,0.69 0.506,0.681 0.506,2.65 v 4.358 h 1.353 v 1.643 h -3.01 v -5.31 q 0,-1.661 -0.258,-2.09 -0.248,-0.439 -0.91,-0.439 -0.6,0 -1.207,0.345 -0.598,0.346 -1.288,1.092 v 4.76 h 1.362 v 1.642 h -4.317 v -1.643 z"
         id="path3" /></g></g></svg>
