<svg height="150.86113" viewBox="0 0 268.62115 150.86113" width="268.62115" xmlns="http://www.w3.org/2000/svg" xmlns:xlink="http://www.w3.org/1999/xlink"><clipPath id="a"><circle cx="80.448997" cy="288.46701" r="58.417"/></clipPath><clipPath id="b"><path d="m62.033 224.716v45.25h-45.25v34.333h45.25v45.25h34.333v-45.25h45.25v-34.333h-45.25v-45.25z"/></clipPath><linearGradient id="c" gradientTransform="matrix(.75632525 .00271936 -.00271936 .75632525 381.39937 -258.90102)" gradientUnits="userSpaceOnUse" x1="320.23999" x2="328.66" y1="626.39001" y2="626.39001"><stop offset="0" stop-color="#bcbcbf"/><stop offset=".5" stop-color="#ababaf"/><stop offset=".75" stop-color="#8c8c92"/><stop offset=".875" stop-color="#c1c1c4"/><stop offset="1" stop-color="#403b30"/></linearGradient><linearGradient id="d" gradientUnits="userSpaceOnUse" x1="409.43735" x2="604.38202" xlink:href="#e" y1="216.52519" y2="216.52519"/><linearGradient id="e"><stop offset="0" stop-color="#aa8c38"/><stop offset=".23894" stop-color="#ceb469"/><stop offset="1" stop-color="#aa8c38"/></linearGradient><linearGradient id="f" gradientTransform="matrix(.73408644 -.18207795 -.18207795 -.73408644 136.09951 601.65152)" gradientUnits="userSpaceOnUse" x1="443.91" x2="701.65997" xlink:href="#e" y1="179.89999" y2="179.89999"/><linearGradient id="g" gradientTransform="matrix(1 0 0 -1 0 103.17)" gradientUnits="userSpaceOnUse" x1="691.21002" x2="691.21002" y1="16.75" y2="75.580002"><stop offset="0" stop-color="#f15822"/><stop offset="1" stop-color="#f6891f"/></linearGradient><linearGradient id="h" gradientUnits="userSpaceOnUse" x1="186.46001" x2="186.46001" y1="609" y2="521.84003"><stop offset="0" stop-opacity=".49057"/><stop offset=".5" stop-opacity=".8239"/><stop offset="1" stop-opacity=".36478"/></linearGradient><g transform="scale(.2982856)"><path d="m685.366 454.878c0 27.614-22.386 50-50 50h-585.366c-27.614 0-50-22.386-50-50v-254.878c0-27.614 22.386-50 50-50h585.366c27.614 0 50 22.386 50 50z" fill="#8d8d8d"/><path d="m152.439 150h378.04901v354.87799h-378.04901z" fill="#3d3d3d"/><path d="m569.366 248.717c-10.292 0-18.666-8.374-18.666-18.667s8.374-18.667 18.666-18.667c10.293 0 18.667 8.374 18.667 18.667s-8.374 18.667-18.667 18.667z" fill="#015c5d"/><path d="m569.366 213.384c9.19 0 16.667 7.477 16.667 16.667s-7.477 16.667-16.667 16.667c-9.189 0-16.666-7.477-16.666-16.667s7.476-16.667 16.666-16.667m0-4c-11.413 0-20.666 9.253-20.666 20.667s9.253 20.667 20.666 20.667c11.414 0 20.667-9.253 20.667-20.667s-9.253-20.667-20.667-20.667z" fill="#023a38"/><path d="m635.2 289.717c-13.143 0-23.834-10.691-23.834-23.833s10.691-23.833 23.834-23.833c13.142 0 23.833 10.692 23.833 23.833s-10.692 23.833-23.833 23.833z" fill="#333"/><path d="m635.2 244.05c12.039 0 21.833 9.794 21.833 21.833s-9.794 21.833-21.833 21.833-21.834-9.794-21.834-21.833 9.795-21.833 21.834-21.833m0-4c-14.268 0-25.834 11.566-25.834 25.833s11.566 25.833 25.834 25.833c14.267 0 25.833-11.565 25.833-25.833s-11.567-25.833-25.833-25.833z" fill="#525150"/><path d="m575.2 333.717c-13.143 0-23.834-10.691-23.834-23.833s10.691-23.833 23.834-23.833c13.142 0 23.833 10.691 23.833 23.833s-10.692 23.833-23.833 23.833z" fill="#333"/><path d="m575.2 288.051c12.039 0 21.833 9.794 21.833 21.833s-9.794 21.833-21.833 21.833-21.834-9.794-21.834-21.833 9.795-21.833 21.834-21.833m0-4c-14.268 0-25.834 11.565-25.834 25.833s11.566 25.833 25.834 25.833c14.267 0 25.833-11.565 25.833-25.833s-11.567-25.833-25.833-25.833z" fill="#525150"/><path d="m183.866 381.54901h37v23h-37z" fill="#aaaaab"/><path d="m218.866 383.549v19h-33v-19zm4-4h-41v27h41z" fill="#e2e2dc"/><path d="m239.866 381.54901h37v23h-37z" fill="#aaaaab"/><path d="m274.866 383.549v19h-33v-19zm4-4h-41v27h41z" fill="#e2e2dc"/><path d="m295.866 381.54901h37v23h-37z" fill="#aaaaab"/><path d="m330.866 383.549v19h-33v-19zm4-4h-41v27h41z" fill="#e2e2dc"/><path d="m351.866 381.54901h37v23h-37z" fill="#aaaaab"/><path d="m386.866 383.549v19h-33v-19zm4-4h-41v27h41z" fill="#e2e2dc"/><path d="m407.866 381.54901h37v23h-37z" fill="#aaaaab"/><path d="m442.866 383.549v19h-33v-19zm4-4h-41v27h41z" fill="#e2e2dc"/><path d="m463.866 381.54901h37v23h-37z" fill="#aaaaab"/><path d="m498.866 383.549v19h-33v-19zm4-4h-41v27h41z" fill="#e2e2dc"/><path d="m183.866 422.04901h37v23h-37z" fill="#aaaaab"/><path d="m218.866 424.049v19h-33v-19zm4-4h-41v27h41z" fill="#e2e2dc"/><path d="m239.866 422.04901h37v23h-37z" fill="#aaaaab"/><path d="m274.866 424.049v19h-33v-19zm4-4h-41v27h41z" fill="#e2e2dc"/><path d="m295.866 422.04901h37v23h-37z" fill="#aaaaab"/><path d="m330.866 424.049v19h-33v-19zm4-4h-41v27h41z" fill="#e2e2dc"/><path d="m351.866 422.04901h37v23h-37z" fill="#aaaaab"/><path d="m386.866 424.049v19h-33v-19zm4-4h-41v27h41z" fill="#e2e2dc"/><path d="m407.866 422.04901h37v23h-37z" fill="#aaaaab"/><path d="m442.866 424.049v19h-33v-19zm4-4h-41v27h41z" fill="#e2e2dc"/><path d="m463.866 422.04901h37v23h-37z" fill="#aaaaab"/><path d="m498.866 424.049v19h-33v-19zm4-4h-41v27h41z" fill="#e2e2dc"/><path d="m183.866 462.54901h37v23h-37z" fill="#aaaaab"/><path d="m218.866 464.549v19h-33v-19zm4-4h-41v27h41z" fill="#e2e2dc"/><path d="m239.866 462.54901h37v23h-37z" fill="#aaaaab"/><path d="m274.866 464.549v19h-33v-19zm4-4h-41v27h41z" fill="#e2e2dc"/><path d="m295.866 462.54901h37v23h-37z" fill="#aaaaab"/><path d="m330.866 464.549v19h-33v-19zm4-4h-41v27h41z" fill="#e2e2dc"/><path d="m351.866 462.54901h37v23h-37z" fill="#aaaaab"/><path d="m386.866 464.549v19h-33v-19zm4-4h-41v27h41z" fill="#e2e2dc"/><path d="m407.866 462.54901h37v23h-37z" fill="#aaaaab"/><path d="m442.866 464.549v19h-33v-19zm4-4h-41v27h41z" fill="#e2e2dc"/><path d="m463.866 462.54901h37v23h-37z" fill="#aaaaab"/><path d="m498.866 464.549v19h-33v-19zm4-4h-41v27h41z" fill="#e2e2dc"/><path d="m80.449 345.883c-31.66 0-57.417-25.757-57.417-57.416s25.758-57.417 57.417-57.417 57.417 25.757 57.417 57.417-25.757 57.416-57.417 57.416z" fill="#333"/><path d="m80.449 232.05c31.108 0 56.417 25.308 56.417 56.417 0 31.107-25.309 56.416-56.417 56.416s-56.417-25.309-56.417-56.416c.001-31.109 25.309-56.417 56.417-56.417m0-2c-32.263 0-58.417 26.154-58.417 58.417s26.154 58.416 58.417 58.416 58.417-26.153 58.417-58.416-26.154-58.417-58.417-58.417z" fill="#828181"/><g clip-path="url(#a)"><path d="m62.033 224.716v45.25h-45.25v34.333h45.25v45.25h34.333v-45.25h45.25v-34.333h-45.25v-45.25z" fill="#333"/><g clip-path="url(#b)"><path d="m80.449 344.883c-31.108 0-56.417-25.309-56.417-56.416 0-31.108 25.308-56.417 56.417-56.417s56.417 25.308 56.417 56.417c0 31.107-25.308 56.416-56.417 56.416z" fill="#333"/><path d="m80.449 234.05c30.005 0 54.417 24.411 54.417 54.417 0 30.005-24.411 54.416-54.417 54.416s-54.417-24.411-54.417-54.416c.001-30.006 24.412-54.417 54.417-54.417m0-4c-32.263 0-58.417 26.154-58.417 58.417s26.154 58.416 58.417 58.416 58.417-26.153 58.417-58.416-26.154-58.417-58.417-58.417z" fill="#525150"/></g><path d="m62.033 224.716v45.25h-45.25v34.333h45.25v45.25h34.333v-45.25h45.25v-34.333h-45.25v-45.25z" fill="none" stroke="#525150" stroke-miterlimit="10" stroke-width="4"/></g><path d="m177.439 353.049c-12.682 0-23-10.317-23-23v-305.049c0-12.682 10.318-23 23-23h328.049c12.683 0 23 10.318 23 23v305.049c0 12.683-10.317 23-23 23z" fill="#3b3b3b"/><path d="m505.488 4c11.579 0 21 9.42 21 21v305.049c0 11.579-9.421 21-21 21h-328.049c-11.58 0-21-9.421-21-21v-305.049c0-11.58 9.42-21 21-21zm0-4h-328.049c-13.807 0-25 11.193-25 25v305.049c0 13.807 11.193 25 25 25h328.049c13.808 0 25-11.193 25-25v-305.049c0-13.807-11.193-25-25-25z" fill="#5f5f5e"/><path d="m493.033 278.467c0 5.522-4.478 10-10 10h-279.667c-5.523 0-10-4.478-10-10v-231.085c0-5.523 4.477-10 10-10h279.667c5.522 0 10 4.477 10 10z" fill="#272727"/><path d="m220.69901 63.382h245.66701v197h-245.66701z" fill="#57bfcb"/><circle cx="53.991001" cy="405.75699" r="4.625"/><circle cx="69.490997" cy="405.75699" r="4.625"/><circle cx="84.990997" cy="405.75699" r="4.625"/><circle cx="100.491" cy="405.75699" r="4.625"/><circle cx="115.991" cy="405.75699" r="4.625"/><circle cx="69.490997" cy="390.42401" r="4.625"/><circle cx="84.990997" cy="390.42401" r="4.625"/><circle cx="100.491" cy="390.42401" r="4.625"/><circle cx="53.991001" cy="421.091" r="4.625"/><circle cx="69.490997" cy="421.091" r="4.625"/><circle cx="84.990997" cy="421.091" r="4.625"/><circle cx="100.491" cy="421.091" r="4.625"/><circle cx="115.991" cy="421.091" r="4.625"/><circle cx="69.490997" cy="436.42401" r="4.625"/><circle cx="84.990997" cy="436.42401" r="4.625"/><circle cx="100.491" cy="436.42401" r="4.625"/><circle cx="569.99103" cy="405.75699" r="4.625"/><circle cx="585.49103" cy="405.75699" r="4.625"/><circle cx="600.99103" cy="405.75699" r="4.625"/><circle cx="616.49103" cy="405.75699" r="4.625"/><circle cx="631.99103" cy="405.75699" r="4.625"/><circle cx="585.49103" cy="390.42401" r="4.625"/><circle cx="600.99103" cy="390.42401" r="4.625"/><circle cx="616.49103" cy="390.42401" r="4.625"/><circle cx="569.99103" cy="421.091" r="4.625"/><circle cx="585.49103" cy="421.091" r="4.625"/><circle cx="600.99103" cy="421.091" r="4.625"/><circle cx="616.49103" cy="421.091" r="4.625"/><circle cx="631.99103" cy="421.091" r="4.625"/><circle cx="585.49103" cy="436.42401" r="4.625"/><circle cx="600.99103" cy="436.42401" r="4.625"/><circle cx="616.49103" cy="436.42401" r="4.625"/></g><g transform="matrix(.21912376968 0 0 .21912376968 130.95171235888 59.12356017283)"><path d="m621.95478 202.02795s3.18113-.18138 3.95921.007c.77928.19831 2.27983.53141 2.33567 2.41826.0558 1.88686-.007 19.94379-.0177 21.69762-.0006 1.75263-.39879 3.38189-1.9604 3.37844-1.55287-.0146-4.35358-.02-4.35358-.02z" fill="url(#c)" fill-rule="evenodd"/><path d="m617.57975 131.2736c5.49103.014 9.9037 4.45867 9.88093 9.96082 0 0-.20362 58.15108-.20823 58.61496-.004.38325-.54259.9315-.88494.93241-.30263-.004-4.23205-.0145-4.23205-.0145l-.22197 60.25837s2.97189.005 4.27177.01c.41304.00066.84408.40204.84738.76424-.008 2.02548-.53551 146.95718-.53551 146.95718-.0128 5.50095-4.45747 9.91362-9.9497 9.88965l-68.2189-.25106c-.18312-.0988-.85668-3.60347-3.78886-3.6132-.82607-.001-15.70897-.0535-18.01603-.0579-.1116-.007-.27726 3.38741-.4385 3.38667-2.76101-.0102-11.66914-.0461-15.08505-.0581-.40311-.002-.71006-3.38945-.942-3.39176-2.33803-.0107-17.37224-.0648-18.33971-.0693-3.11328-.008-2.46748 3.60062-3.21413 3.58975l-66.70575-.23171c-5.49222-.024-9.91481-4.46741-9.89085-9.95963 0 0 .61701-171.47261.61972-172.87297.001-.49366.27654-.79877.79999-.80132 1.52189.008 5.26029.0217 5.26029.0217l.0478-13.66364-5.3-.0169c-.51471-.009-.7539-.32224-.74929-.78611-.005-1.04689.17896-51.15802.17797-51.75216.008-.35346-.16258-1.60205.7617-2.45862.38115-.34804 27.43544-27.79718 33.60986-33.98927.7726-.77789 1.55134-1.00254 2.14547-1.00354 2.47824.004 168.29857.60617 168.29857.60617z" fill="#666"/><path d="m495.87515 136.62115h17.55206v46.40716h-17.55206z" fill="#eff5ff" fill-opacity=".28037" transform="matrix(.99999353 .00359765 -.00359765 .99999353 0 0)"/><path d="m518.47528 136.62115h17.55206v46.40716h-17.55206z" fill="#eff5ff" fill-opacity=".28037" transform="matrix(.99999353 .00359765 -.00359765 .99999353 0 0)"/><g fill="url(#h)" transform="matrix(.75632525 .00271936 -.00271936 .75632525 381.39937 -258.90102)"><path d="m58.762 554.81 29.127-25.71v80.72h-29.127z"/><path d="m91.762001 521.02002h25.471999v68.504h-25.471999z"/><path d="m121.02 521.02002h25.472v68.504h-25.472z"/><path d="m211.59 521.02002h25.472v68.504h-25.472z"/><path d="m240.84 521.02002h25.472v68.504h-25.472z"/><path d="m270.26999 521.77002h43.884v67.756h-43.884z"/><path d="m150.89999 521.02002h25.472v68.504h-25.472z"/><path d="m180.77 521.02002h25.472v68.504h-25.472z"/></g><g transform="matrix(.99999353 .00359765 -.00359765 .99999353 0 0)"><g fill="#f5cd5b"><path d="m451.155 138.50116h17.55206v44.52315h-17.55206z"/><path d="m473.28513 138.50116h17.55206v44.52315h-17.55206z"/><path d="m541.78534 138.50116h17.55206v44.52315h-17.55206z"/><path d="m563.9054 138.50116h17.55206v44.52315h-17.55206z"/></g><path d="m426.87494 159.24123h18.83706v41.09914h-18.83706z" fill="url(#d)"/><path d="m451.155 138.50116h17.55206v44.52315h-17.55206z" fill="url(#d)"/><path d="m473.28513 138.50116h17.55206v44.52315h-17.55206z" fill="url(#d)"/></g><path d="m495.39004 138.60527-.16991 46.21149 17.55216.0533.16356-46.1805zm22.60275.0901-.17349 46.1817 17.55574.083.15998-46.21029z" fill="url(#f)"/><g fill="url(#d)" transform="matrix(.99999353 .00359765 -.00359765 .99999353 0 0)"><path d="m541.78534 138.50116h17.55206v44.52315h-17.55206z"/><path d="m563.9054 138.50116h17.55206v44.52315h-17.55206z"/><path d="m586.29547 139.30118h15.77105v43.54814h-15.77105z"/><path d="m604.65558 139.07117h11.06304v43.54814h-11.06304z"/></g><path d="m623.81222 133.51501c1.34295 1.70175 2.16657 3.8588 2.15584 6.19684 0 0-.21354 58.15227-.21815 58.61615.006.38205-.55133.94262-.89367.94353-.31256-.003-4.23206-.0145-4.23206-.0145l-.22316 60.24845s.97739.003 1.52189.008l.20381-58.73529s3.9195.0118 4.23206.0145c.34235-.00091.89817-.5714.9036-.94473.003-.4738.20823-58.61495.20823-58.61495.0168-3.1244-1.42419-5.89207-3.65839-7.71822zm-211.23264 85.63161c.004.0298-.005.71567-.002.73552.005.46268.24451.77635.75803.77499l3.7793.0186.009-1.51196zm212.95077 41.887c-.0147 3.47667-.52464 146.21053-.52464 146.21053-.0228 5.50215-4.4674 9.91482-9.96955 9.89205l-67.40276-.24856c.41569.7759.5998 1.46886.67647 1.52007l68.23876.24867c5.50095.0128 9.94559-4.39982 9.95962-9.89085l.53432-146.96711c-.003-.3622-.43434-.76358-.84738-.76423-.20096.004-.40311-.002-.66484-.00057zm-135.31451 152.03687c-3.12321-.007-2.48734 3.60301-3.2328 3.60207l-66.69701-.24284c-2.35789-.008-4.51232-.83687-6.20902-2.21402 1.81296 2.25959 4.57843 3.72971 7.72149 3.73421l66.69701.24283c.74546.00094.1084-3.61888 3.22287-3.60087.9067.002 13.63266.0415 17.20981.0542-.14283-.76844-.27216-1.50829-.37264-1.50627-2.33803-.0107-17.37225-.0648-18.33971-.0693zm34.814.12132c-.12034.004-.29473 3.40965-.4671 3.40018-2.56878-.003-10.22668-.0283-14.05682-.0509.14403.77837.30314 1.51464.48544 1.52291 3.41591.012 12.32284.038 15.08385.0481.16124.00074.33564-3.4045.45717-3.39898 2.30706.004 17.18995.0566 18.01722.0678.56436.003 1.04376.13627 1.46323.35774-.55394-.92041-1.45381-1.8697-2.9757-1.87792-.81615-.003-15.69904-.0547-18.00729-.069z" fill="#eff5ff" fill-opacity=".28037"/></g><rect fill="#0aa" height="41.34533501942" rx="0" ry="3.1899696903" stroke-width=".19721127875" width="39.95946111305" x="224.80543742627" y="105.84227934122"/><g transform="matrix(.10186053662 0 0 .10186053662 174.43845177731 124.68621030655)"><text style="font-size:1.23;font-family:ArialMT, Arial;fill:#ed1c24;stroke:#fff;stroke-width:7;stroke-linecap:round;stroke-linejoin:round" x="731.28003" y="76.32">I hate bugs!</text><path d="m632.43 89.92a3.5 3.5 0 0 1 -3.5-3.5v-58.84a3.5 3.5 0 0 1 3.5-3.5h117.57a3.5 3.5 0 0 1 3.5 3.5v17.72a3.46 3.46 0 0 1 -1 2.45l-5.5 5.56 5.49 5.57a3.46 3.46 0 0 1 1 2.46v25.08a3.5 3.5 0 0 1 -3.5 3.5z" fill="#222"/><path d="m750 27.58v17.72l-7.92 8 7.92 8v25.12h-117.57v-58.84zm0-7h-117.57a7 7 0 0 0 -7 7v58.84a7 7 0 0 0 7 7h117.57a7 7 0 0 0 7-7v-25.08a7 7 0 0 0 -2-4.92l-3.06-3.1 3.06-3.11a7 7 0 0 0 2-4.91v-17.72a7 7 0 0 0 -7-7z" fill="#fff"/><path d="m750 27.58h-117.57v58.84h117.57v-25.08l-7.92-8 7.92-8z" fill="url(#g)"/><path d="m669.13 34.94v14.78l-14.67-14.78h-14.68v44.12h14.68v-22.06l14.67 14.78v7.28h14.68v-44.12z" fill="#222"/><text fill="#ed1c24" font-family="ArialMT, Arial" font-size="1.23" x="731.28003" y="76.32">I hate bugs!</text><path d="m742.64 34.94h-14.64l-7.27 7.34-7.41-7.34h-14.7v7.34l11 11-11 11v14.7h14.67v-11.51l7.41-6.79 7.3 6.79v11.59h14.67v-14.7l-10.9-11 10.9-11z" fill="#222"/></g><g transform="matrix(.10186053662 0 0 .10186053662 201.48676848336 116.0244793058)"><path d="m408.76 89.92a3.5 3.5 0 0 1 -2.48-1l-9.19-9.19-9.19 9.19a3.5 3.5 0 0 1 -2.47 1h-135.43a3.5 3.5 0 0 1 -3.5-3.5v-58.84a3.5 3.5 0 0 1 3.5-3.5h29.42a3.5 3.5 0 0 1 2.48 1l14.67 14.71a3.53 3.53 0 0 1 1 2.47v18.59h7.75v-21.6a3.5 3.5 0 0 1 1-2.48l11.68-11.66a3.5 3.5 0 0 1 2.48-1h35.52a3.5 3.5 0 0 1 2.48 1l5.68 5.68v-3.21a3.5 3.5 0 0 1 3.5-3.5h106a3.5 3.5 0 0 1 2.47 1l5.75 5.74v-3.24a3.5 3.5 0 0 1 3.5-3.5h58.84a3.5 3.5 0 0 1 3.5 3.5v3.15l5.62-5.62a3.46 3.46 0 0 1 2.47-1h47.19a3.5 3.5 0 0 1 3.5 3.5v47.2a3.53 3.53 0 0 1 -1 2.47l-11.62 11.61a3.5 3.5 0 0 1 -2.48 1z" fill="#222"/><path d="m603 27.58v47.23l-11.6 11.61h-182.64l-11.67-11.67-11.66 11.67h-135.43v-58.84h29.42l14.67 14.71v22.06h14.75v-25.1l11.66-11.67h35.5l11.66 11.67v-11.67h106l11.7 11.66v-11.66h58.84v11.6l11.59-11.6zm0-7h-47.23a7 7 0 0 0 -4.95 2.05l-.92.92a7 7 0 0 0 -5.72-3h-58.84a7 7 0 0 0 -5.77 3.05l-1-1a7 7 0 0 0 -4.94-2.05h-105.96a7 7 0 0 0 -5.75 3l-.95-.95a7 7 0 0 0 -5-2.06h-35.47a7 7 0 0 0 -4.95 2.05l-11.66 11.71a7 7 0 0 0 -2.05 5v18.1h-.75v-15.11a7 7 0 0 0 -2-4.94l-14.72-14.71a7 7 0 0 0 -4.95-2.06h-29.42a7 7 0 0 0 -7 7v58.84a7 7 0 0 0 7 7h135.43a7 7 0 0 0 4.94-2l6.72-6.72 6.72 6.72a7 7 0 0 0 4.95 2h182.64a7 7 0 0 0 5-2l11.6-11.67a7 7 0 0 0 2-4.94v-47.23a7 7 0 0 0 -7-7z" fill="#fff"/><path d="m555.77 27.58-11.59 11.6v-11.6h-58.84v11.66l-11.7-11.66h-105.97v11.67l-11.67-11.67h-35.5l-11.66 11.67v25.1h-14.75v-22.06l-14.67-14.71h-29.42v58.84h135.43l11.66-11.67 11.67 11.67h182.64l11.6-11.61v-47.23z" fill="#fff"/><g fill="#222"><path d="m272.07 34.94h-14.72v44.12h44.13v-7.35h-29.41z"/><path d="m323.54 34.94-7.35 7.35v29.42l7.35 7.35h29.46l7.35-7.35v-29.42l-7.35-7.35zm22.07 36.77h-14.71v-29.42h14.71z"/><path d="m404.45 57-7.36-6.74-7.36 6.74v-22.06h-14.73v44.12h7.35l14.71-14.7 14.71 14.7h7.36v-44.12h-14.68z"/><path d="m448.47 34.94h-14.71v44.12h14.71v-18.48l18.42 18.48h11.11v-7.35l-14.72-14.71h7.3l7.42-7.35v-7.36l-7.38-7.35zm14.81 14.71h-14.81v-7.36h14.81z"/><path d="m495.35 34.94h-2.65v44.12h44.12v-7.35h-29.42v-14.71h14.71v-7.35h-14.71v-7.36h29.42v-7.35z"/><path d="m551.51 42.24v7.46l7.31 7.3h22.18v14.76h-29.49v7.3h36.84l7.31-7.3v-14.76l-7.41-7.3h-22.08v-7.46h29.49v-7.3h-36.84z"/></g></g></svg>