<svg version="1.1" id="Layer_1" xmlns="http://www.w3.org/2000/svg" x="0" y="0" viewBox="0 0 913.1 719.3" style="enable-background:new 0 0 913.1 719.3" xml:space="preserve">
    <style>
        .st4{fill:#ffe75a}.st5{fill:#25b6be}.st8{fill:#db324c}.st13{fill:#1ca4a9}.st15{fill:#fff}.st22{fill:#e8cd49}.st25{fill:#fcc927}.st26{fill:#fbc82a}.st30{fill:#2a7070}.st34{fill:#3b146c}.st35{fill:#fac367}.st37{fill:#d39a48}.st38{fill:#3762d1}
    </style>
    <path d="M537.3 255.5V58c0-6.7-2.2-12.9-6-17.8-.5-.6-1-1.3-1.5-1.8l-2.5-3c-10.7-12.9-25.9-21-42.6-22.6-35.6-3.5-98.6-9.4-129.4-10.6C330.7.8 302.7 0 271 0s-59.7.8-84.3 2.2C155.9 3.4 92.8 9.3 57.2 12.8c-16.6 1.6-31.9 9.8-42.6 22.6l-2.5 3c-.5.6-1 1.2-1.5 1.9-3.8 4.9-6 11.1-6 17.8v197.5c-2.8 2.3-4.7 5.9-4.7 9.8v88.1c0 18.9 15.6 34.2 34.8 34.2h472.4c19.2 0 34.8-15.3 34.8-34.2v-88.1c.1-4-1.7-7.6-4.6-9.9z" style="fill:#6c378b"/>
    <path d="M74.1 32.6H47.3c-14.9 0-27 11.4-27 25.4v275.5c0 16 13 29 29 29h443.4c16 0 29-13 29-29V61.8c0-16-13-29-29-29H260.8l-186.7-.2z" style="fill:none;stroke:#52277b;stroke-miterlimit:10"/>
    <path d="M489.2 356.4H52.8c-14.6 0-26.5-11.9-26.5-26.5v-23.2c0-14.6 11.9-26.5 26.5-26.5h436.3c14.6 0 26.5 11.9 26.5 26.5v23.2c.1 14.6-11.8 26.5-26.4 26.5z" style="fill:#663c88"/>
    <linearGradient id="SVGID_1_" gradientUnits="userSpaceOnUse" x1="271" y1="393.9" x2="271" y2="503.6" gradientTransform="matrix(1 0 0 -1 0 720)">
        <stop offset="0" style="stop-color:#3b1666"/>
        <stop offset=".332" style="stop-color:#53277b"/>
        <stop offset="1" style="stop-color:#3b146c"/>
    </linearGradient>
    <path d="M515.7 297.3v-80.9H26.3v80.9c0 15.9 10.3 28.8 23 28.8h443.4c12.7-.1 23-13 23-28.8" style="fill:url(#SVGID_1_)"/>
    <path class="st4" d="M392.2 702.8c-3.1 0-5.6-2.5-5.6-5.6v-7.9c0-3.1 2.5-5.6 5.6-5.6 3.1 0 5.6 2.5 5.6 5.6v7.9c0 3.1-2.5 5.6-5.6 5.6z"/>
    <linearGradient id="SVGID_00000016064105119493272510000012837435323896960136_" gradientUnits="userSpaceOnUse" x1="0" y1="166.7" x2="542" y2="166.7" gradientTransform="matrix(1 0 0 -1 0 720)">
        <stop offset="0" style="stop-color:#25b6be"/>
        <stop offset=".489" style="stop-color:#27c9c9"/>
        <stop offset="1" style="stop-color:#25b6be"/>
    </linearGradient>
    <path style="fill:url(#SVGID_00000016064105119493272510000012837435323896960136_)" d="M507.8 390.1H34.2C15.3 390.1 0 405.4 0 424.3v216.4c.3 41.9 33.5 75.8 74.5 75.8 21 0 40-8.9 53.6-23.3h285.8c13.6 14.4 32.5 23.3 53.6 23.3 41 0 74.2-33.9 74.5-75.8V424.3c0-18.9-15.3-34.2-34.2-34.2z"/>
    <linearGradient id="SVGID_00000057129017397379079480000003887345975786378126_" gradientUnits="userSpaceOnUse" x1="529.05" y1="564.9" x2="529.05" y2="500" gradientTransform="matrix(1 0 0 -1 0 720)">
        <stop offset="0" style="stop-color:#3b1666"/>
        <stop offset="1" style="stop-color:#794b9a"/>
    </linearGradient>
    <path style="fill:url(#SVGID_00000057129017397379079480000003887345975786378126_)" d="M537.3 155.1h-11.5c-2.8 0-5 2.1-5 4.7v55.5c0 2.6 2.2 4.7 5 4.7h11.5v-64.9z"/>
    <path class="st8" d="m545.3 189.7-3.1-5.4v-.7l3.1-5.4 1.9-3.3c.8-1.5.8-3.3 0-4.8l-1.9-3.3-3.2-5.7v1.4-1.9c0-1-.7-1.8-1.6-1.8h-9c-2.7 0-4.9 2.5-4.9 5.6v38.9c0 3.1 2.2 5.6 4.9 5.6h9.6c.6 0 1.2-.4 1.4-1.1V206l2.9-5 1.9-3.3c.8-1.5.8-3.3 0-4.8l-2-3.2z"/>
    <linearGradient id="SVGID_00000002356274483807882170000009458165419460633222_" gradientUnits="userSpaceOnUse" x1="26.3" y1="560.75" x2="72.8" y2="560.75" gradientTransform="matrix(1 0 0 -1 0 720)">
        <stop offset="0" style="stop-color:#3b1666"/>
        <stop offset=".332" style="stop-color:#53277b"/>
        <stop offset=".737" style="stop-color:#3b146c"/>
    </linearGradient>
    <path style="fill:url(#SVGID_00000002356274483807882170000009458165419460633222_)" d="M72.8 279.8H37.2c-6 0-10.9-4.5-10.9-10V58c0-10.6 9.4-19.3 21-19.3h20.9"/>
    <linearGradient id="SVGID_00000044874943095592339990000018174084488023047555_" gradientUnits="userSpaceOnUse" x1="515.95" y1="332.361" x2="515.95" y2="363.606" gradientTransform="matrix(1 0 0 -1 0 720)">
        <stop offset="0" style="stop-color:#3b1666"/>
        <stop offset="1" style="stop-color:#794b9a"/>
    </linearGradient>
    <path style="fill:url(#SVGID_00000044874943095592339990000018174084488023047555_)" d="M514.5 356.4h-12.7v31.2h12.7c8.6 0 15.6-7 15.6-15.6s-7-15.6-15.6-15.6z"/>
    <radialGradient id="SVGID_00000035518438738814463150000008647983160403576203_" cx="59.278" cy="-51.185" r="37.531" gradientTransform="matrix(.9998 .01972 .05925 -3.0033 9.667 386.606)" gradientUnits="userSpaceOnUse">
        <stop offset="0" style="stop-color:#25b6be"/>
        <stop offset="1" style="stop-color:#1ca4a9"/>
    </radialGradient>
    <path style="opacity:.5;fill:url(#SVGID_00000035518438738814463150000008647983160403576203_);enable-background:new" d="M65.9 657.7c20.8 0 37.6-16.8 37.6-37.6V462.9c0-20.8-16.8-37.6-37.6-37.6s-37.6 16.8-37.6 37.6v157.2c-.1 20.8 16.8 37.6 37.6 37.6z"/>
    <circle class="st8" cx="65.9" cy="534.2" r="30.6"/>
    <path d="M75.5 506.2c-.2-.1-.5-.1-.7-.2 13.9 5.3 21 20.8 16.1 34.8-5.1 14.3-20.8 21.8-35.1 16.7-14.1-5-21.6-20.3-17-34.4-.1.2-.2.4-.3.7-5.3 15.1 2.5 31.6 17.6 36.9 15.1 5.3 31.6-2.5 36.9-17.6 5.5-15-2.4-31.6-17.5-36.9z" style="fill:#e24b69"/>
    <circle transform="matrix(.9997 -.02379 .02379 .9997 -14.648 1.692)" class="st13" cx="63.8" cy="616.5" r="37.6"/>
    <circle cx="68" cy="624.5" r="37.6" style="fill:#35c9c9"/>
    <circle class="st5" cx="65.9" cy="620.3" r="37.6"/>
    <ellipse class="st13" cx="66.7" cy="604" rx="8" ry="11.8"/>
    <ellipse class="st13" cx="66.7" cy="640.5" rx="8" ry="11.8"/>
    <ellipse class="st13" cx="85" cy="622.2" rx="11.8" ry="8"/>
    <ellipse class="st13" cx="48.5" cy="622.2" rx="11.8" ry="8"/>
    <ellipse class="st15" cx="65.9" cy="602.1" rx="8" ry="11.8"/>
    <ellipse cx="65.9" cy="638.6" rx="8" ry="11.8" style="fill:#f98d14"/>
    <ellipse cx="84.1" cy="620.3" rx="11.8" ry="8" style="fill:#3fd174"/>
    <ellipse cx="47.6" cy="620.3" rx="11.8" ry="8" style="fill:#8250ad"/>
    <path class="st4" d="M143.3 654.4c-1.4 0-2.5-1.1-2.5-2.5V431.4c0-1.4 1.1-2.5 2.5-2.5H440c1.4 0 2.5 1.1 2.5 2.5v220.4c0 1.4-1.1 2.5-2.5 2.5H143.3v.1z"/>
    <path d="M440 429.4c1.1 0 2 .9 2 2v220.4c0 1.1-.9 2-2 2H143.3c-1.1 0-2-.9-2-2V431.4c0-1.1.9-2 2-2H440m0-1H143.3c-1.7 0-3 1.4-3 3v220.4c0 1.7 1.4 3 3 3H440c1.7 0 3-1.4 3-3V431.4c0-1.6-1.3-3-3-3z" style="fill:#1c7775"/>
    <circle class="st8" cx="170" cy="444.3" r="1.9"/>
    <circle class="st8" cx="218.6" cy="444.3" r="1.9"/>
    <circle class="st8" cx="267.3" cy="444.3" r="1.9"/>
    <circle class="st8" cx="316" cy="444.3" r="1.9"/>
    <circle class="st8" cx="364.7" cy="444.3" r="1.9"/>
    <circle class="st8" cx="413.4" cy="444.3" r="1.9"/>
    <circle class="st8" cx="170" cy="493" r="1.9"/>
    <circle class="st8" cx="218.6" cy="493" r="1.9"/>
    <circle class="st8" cx="267.3" cy="493" r="1.9"/>
    <circle class="st8" cx="316" cy="493" r="1.9"/>
    <circle class="st8" cx="364.7" cy="493" r="1.9"/>
    <circle class="st8" cx="413.4" cy="493" r="1.9"/>
    <circle class="st8" cx="170" cy="541.6" r="1.9"/>
    <circle class="st8" cx="218.6" cy="541.6" r="1.9"/>
    <circle class="st8" cx="267.3" cy="541.6" r="1.9"/>
    <circle class="st8" cx="316" cy="541.6" r="1.9"/>
    <circle class="st8" cx="364.7" cy="541.6" r="1.9"/>
    <circle class="st8" cx="413.4" cy="541.6" r="1.9"/>
    <circle class="st8" cx="170" cy="590.3" r="1.9"/>
    <circle class="st8" cx="218.6" cy="590.3" r="1.9"/>
    <circle class="st8" cx="267.3" cy="590.3" r="1.9"/>
    <circle class="st8" cx="316" cy="590.3" r="1.9"/>
    <circle class="st8" cx="364.7" cy="590.3" r="1.9"/>
    <circle class="st8" cx="413.4" cy="590.3" r="1.9"/>
    <circle class="st8" cx="170" cy="639" r="1.9"/>
    <circle class="st8" cx="218.6" cy="639" r="1.9"/>
    <circle class="st8" cx="267.3" cy="639" r="1.9"/>
    <circle class="st8" cx="316" cy="639" r="1.9"/>
    <circle class="st8" cx="364.7" cy="639" r="1.9"/>
    <circle class="st8" cx="413.4" cy="639" r="1.9"/>
    <path d="M492.7 38.8H61.2c-4 0-7.5 2.5-8.6 5.8h-.4v225.2c0 5.5 4.9 10 11 10h185.9c1.1 0 2 .9 2 2v32.3c0 6.6 5.3 11.9 11.9 11.9h37.8v7.8H467V326h36.8c6.6 0 11.9-5.3 11.9-11.9V61.8c0-12.7-10.3-23-23-23z" style="fill:#4e2478"/>
    <path style="fill:#411870" d="M300.8 330.3H467v3.5H300.8z"/>
    <path class="st4" d="M481 663.1c.9 1.6 1.8 3.1 2.8 4.7 1-.8 2.1-1.3 3.4-1.3s2.4.5 3.4 1.3c.9-1.4 1.8-2.9 2.6-4.3-1.8-1.2-4-2-6.4-2-2.1-.1-4.1.5-5.8 1.6z"/>
    <path class="st4" d="M478.8 658.9c.4.9.9 1.8 1.4 2.7 1.9-1.2 4.2-1.9 6.6-1.9 2.7 0 5.1.8 7.2 2.3.5-.9.9-1.8 1.4-2.7-2.5-1.6-5.4-2.5-8.6-2.5-2.9-.1-5.6.7-8 2.1z"/>
    <path class="st4" d="m476.9 654.4 1.2 3c2.6-1.5 5.5-2.4 8.7-2.4 3.4 0 6.6 1 9.3 2.8.4-1 .9-2 1.3-3-3.1-1.9-6.7-2.9-10.5-2.9-3.7-.1-7.1.8-10 2.5z"/>
    <path class="st4" d="M475.1 649.1c.4 1.2.8 2.5 1.2 3.7 3.1-1.8 6.7-2.7 10.5-2.7 4.1 0 7.9 1.1 11.1 3.1.4-1.2.9-2.5 1.2-3.7-3.7-2.1-7.9-3.2-12.4-3.2-4.1-.1-8.1 1-11.6 2.8z"/>
    <path class="st4" d="M499.4 648.6c1.3-4.5 2.1-9.1 2.4-13.8l-4-181.6c0-4.5-6.7-8.2-10.6-8.2s-10.6 3.7-10.6 8.2l-4 181.6c.3 4.6 1 9.1 2.3 13.4 3.6-1.9 7.7-2.9 12-2.9 4.5.1 8.8 1.3 12.5 3.3z"/>
    <path class="st22" d="M486.8 661.4c2.4 0 4.6.7 6.4 2 .3-.5.5-1 .8-1.4-2.1-1.4-4.5-2.3-7.2-2.3-2.4 0-4.7.7-6.6 1.9.3.5.5 1 .8 1.5 1.7-1.1 3.7-1.7 5.8-1.7zM486.8 656.7c3.1 0 6.1.9 8.6 2.5.2-.5.5-1 .7-1.5-2.7-1.7-5.9-2.8-9.3-2.8-3.2 0-6.1.9-8.7 2.4.2.5.5 1 .7 1.5 2.4-1.3 5.1-2.1 8-2.1zM486.8 651.8c3.8 0 7.4 1.1 10.5 2.9.2-.5.4-1 .6-1.6-3.3-2-7.1-3.1-11.1-3.1-3.8 0-7.4 1-10.5 2.7.2.5.4 1.1.6 1.6 2.9-1.6 6.3-2.5 9.9-2.5z"/>
    <path class="st4" d="M486.8 646.2c4.5 0 8.7 1.2 12.4 3.2.1-.3.2-.5.2-.8-3.8-2.1-8.1-3.3-12.6-3.3-4.3 0-8.4 1.1-12 2.9.1.3.2.5.2.8 3.6-1.7 7.6-2.8 11.8-2.8z"/>
    <path d="M486.8 646.2c4.5 0 8.7 1.2 12.4 3.2.1-.3.2-.5.2-.8-3.8-2.1-8.1-3.3-12.6-3.3-4.3 0-8.4 1.1-12 2.9.1.3.2.5.2.8 3.6-1.7 7.6-2.8 11.8-2.8z" style="opacity:.5;fill:#e8cd49;enable-background:new"/>
    <path class="st15" d="M487.2 671.4c.3 0 .9-.1 1.3-.7l2.1-3c-1-.8-2.1-1.3-3.4-1.3s-2.4.5-3.4 1.3c.7 1 1.3 2 2.1 3 .4.6 1 .7 1.3.7z"/>
    <path class="st8" d="M499.7 494.9h-25v-37.3c0-6.9 5.6-12.5 12.5-12.5s12.5 5.6 12.5 12.5v37.3z"/>
    <path class="st5" d="M487.2 635.6c-4 0-7.2-3.2-7.2-7.2v-57.2c0-4 3.2-7.2 7.2-7.2s7.2 3.2 7.2 7.2v57.2c0 3.9-3.2 7.2-7.2 7.2z"/>
    <path style="fill:#034e95" d="m491.6 611.5-1.6-7.4.1-10 1.1-9.8-1.3-4.6-6.2 1.9-1.3 7.2.8 7.4-.6 9-.1 11.4 7.3 3.2z"/>
    <path class="st25" d="M489.6 587.4c.3-.9.3-2.4.2-3.3 0-.3-.2-.7-.5-.8-.1-.1-.3 0-.4-.1s-.2-.2-.2-.3c0-.2-.2-.6-.6-.4 0 0-.6.4-1.5.6-.9.2-1.8.4-1.9 1.5s.2 1.5.8 1.3c.6-.2 1-.4 1 0-.1.4 0 1.5.5 2.2s.6.8 1.3.8c.7-.1 1-.6 1.3-1.5zm-1.9-1.6c-.1-.3 0-.6.3-.8l.2-.1c.1-.1.3-.1.4.1.4.7.2 1.6-.3 1.8-.3-.2-.5-.6-.6-1zM487.5 594.1c.1-.3.1-.9.1-.9 0-.5-.3-1-.9-1.1s-1.8-.2-2-.1c-.4.1-.7.6-.7 1.2 0 .5.4 1.1.9 1.2.5 0 2.4.3 2.6-.3zM486 604.6c.1-.2.1-.5.1-.7 0-.4-.1-.7-.2-1-.2-.4-.5-1.1-.4-1.7 0-1 .7-1.2 1-.9.4.3.7.8.8 2 .1.7.1 1 .2 1.2.1.3.4.4.6.1.2-.2.3-.5.3-.8 0-.8-.1-2.6-1.1-4.1-.7-1.3-1.7-.8-2-.5-.4.4-1 1.1-1 3.1 0 1.8.4 2.6.6 3.1.1.1.2.3.3.4l.1.1c.1.1.4 0 .4-.1l.3-.2zM486.7 613.1c-.1-.4 0-.9 0-1.2s0-.6.2-.9l.1-.1v-.2h-.2l-.1.1c-.2.4-.3.7-.3 1.1 0 .4 0 .9.1 1.2 0 .1.1.1.2 0-.1.2 0 .1 0 0z"/>
    <path class="st25" d="M488.4 614.8c.4-.7.6-2 .6-3.2 0 0 .1-1.1-.8-2.5s-1.8-.9-2.2-.6c-.4.4-1.2 1.9-1.1 3.8.2 1.8.7 2.8 1.5 2.9.9.3 1.6.2 2-.4zm-1.5-.7-.1-.1c-.8-.3-1-1.1-1-2.1 0-.9.2-1.4.5-1.8.3-.4.7-.5 1.1 0 .2.2.4.6.4.9-.3 0-.6.2-.5.5.2.6.3.3.3.3s0-.4.3-.1v.6c-.2-.1-.5-.1-.6.3-.2.6.1.5.1.5s.1-.3.4-.1c-.1.3-.2.5-.3.7 0 .3-.3.5-.6.4zM489.3 612.8c0 .6.6.9.9 1 .1.1.3 0 .3-.1 0-.4-.5-.8-.9-1-.2 0-.3 0-.3.1zM488.6 615.1c-.2.5.2 1.1.5 1.4.1.1.2.1.3.1.2-.4-.2-1-.4-1.3-.2-.2-.3-.3-.4-.2zM486.8 617.4c.5-.3.4-1 .3-1.4 0-.1-.1-.2-.2-.2-.3.2-.3.9-.3 1.3 0 .2.1.4.2.3zM485.4 615.2c0-.1 0-.3-.1-.3-.4.1-.7.7-.9 1.1-.1.2 0 .4.1.3.7 0 .9-.7.9-1.1zM484.7 613.2c-.4-.2-.9.1-1.3.3-.1.1-.2.3-.1.3.6.3 1.1-.1 1.3-.4.1-.1.2-.2.1-.2zM484.6 611.2c-.1-.4-.6-.7-1-.8-.2 0-.3 0-.3.1.1.6.7.8 1 .8.2.1.3 0 .3-.1zM485.1 609.2c.2-.4-.2-.9-.5-1.2-.1-.1-.3-.2-.3-.1-.2.6.3 1 .6 1.3.1.1.2.1.2 0zM486.4 608.1c.1 0 .1-.1.2-.2.1-.4.2-1.1-.2-1.4-.1-.1-.2.1-.2.3-.1.3-.2 1 .2 1.3zM488.5 607.1c-.3.3-.7.9-.6 1.2 0 .1.1 0 .3-.1.3-.3.8-.8.6-1.3 0 0-.1 0-.3.2zM489.3 610.6c0 .1.1.1.2 0 .3-.1.9-.5.8-1 0-.1-.2-.1-.3 0-.2.3-.7.7-.7 1zM491.2 592.6c-.3-.7-1-.8-1.4-.3-.2.2-.4.5-.7.7 0 0-.1.1-.3.1v-.2c-.2-.1-.2.1-.3.3h-.2c-.4 0-.3.3-.2.3h.2c-.1.2-.1.4.1.4.1 0 .2-.2.2-.3h.1c0 .1 0 .2.1.3.1 0 .1-.1.2-.2.1 0 .1.1.1.1.8.6 1.1.9 1.4.8.4.1 1.2-.7.7-2zm-1.8.9.8-.8c.3-.4.8-.2.9.3.1.6-.1 1.2-.4 1.3-.3 0-.6-.1-1.3-.8z"/>
    <path class="st26" d="M491.3 595.2c0-.1 0-.1 0 0l.1-.1v-.1c0-.1-.1-.1-.1-.1l-.1-.1h-.1v.1s0 .1.1.1c-.1.1 0 .2.1.2zM491.9 594.3c0-.1-.1-.2-.1-.2s-.1 0-.1-.1h-.1c-.1 0-.1.1-.1.1v.1l.1.1.1.1c.1 0 .1 0 .2-.1 0 .1 0 0 0 0zM491.9 593.1c.1 0 .1-.1 0-.2h-.2s-.1 0-.1.1v.1s0 .1.1.1c.1-.1.2-.1.2-.1zM491.6 592.1l.1-.1v-.1l-.1-.1h-.1l-.1.1-.1.1v.1s0 .1.1 0c.1.1.1 0 .2 0zM490.8 591.6c.1-.1.1-.2.1-.2h-.2c-.1 0-.1.1-.2.1s-.1.1-.1.1-.1.1 0 .2c0 .1.1.1.2 0 0-.1.1-.1.2-.2z"/>
    <radialGradient id="SVGID_00000150062051491250066120000016755129838551006633_" cx="755.152" cy="161.75" r="83.83" gradientTransform="matrix(.8421 0 0 -1 -148.761 720)" gradientUnits="userSpaceOnUse">
        <stop offset="0" style="stop-color:#25b6be"/>
        <stop offset="1" style="stop-color:#1ca4a9"/>
    </radialGradient>
    <path style="fill:url(#SVGID_00000150062051491250066120000016755129838551006633_)" d="M487.2 445h.8c2.7.2 5.2 1.4 7.2 3.4.8.8 1.6 1.6 2 2.5 1.6 2.5 2.5 5.6 2.5 9v45.3h-.8l2.9 129.7c-.3 4.7-1.1 9.3-2.4 13.8-.1.3-.2.5-.2.8-.4 1.2-.8 2.5-1.2 3.7-.2.5-.4 1-.6 1.6-.4 1-.8 2-1.3 3-.2.5-.5 1-.7 1.5-.4.9-.9 1.8-1.4 2.7-.3.5-.5 1-.8 1.4-.8 1.5-1.7 2.9-2.6 4.3-.7 1-1.3 2-2.1 3-.5.6-1 .7-1.3.7s-.9-.1-1.3-.7l-2.1-3c-1-1.5-1.9-3.1-2.8-4.7-.3-.5-.5-1-.8-1.5-.5-.9-.9-1.8-1.4-2.7-.2-.5-.5-1-.7-1.5l-1.2-3c-.2-.5-.4-1.1-.6-1.6-.4-1.2-.8-2.4-1.2-3.7-.1-.3-.2-.5-.2-.8-1.2-4.4-2-8.9-2.3-13.4l2.6-115.8c-.3-.3-.5-.8-.5-1.3v-57.9c0-3.4 1-6.5 2.5-9 .5-.9 1.2-1.8 2-2.5 2-1.9 4.5-3.2 7.2-3.4.3.1.5.1.8.1m0-3.5h-.1c-.3 0-.6 0-.9.1-3.2.2-6.3 1.7-8.8 4.1-1.1 1-2 2.1-2.6 3.3-2 3.2-3 6.9-3 10.9v57.9c0 .8.2 1.6.5 2.3l-2.6 114.7v.4c.3 4.8 1.1 9.6 2.4 14.3l.1.2c.1.2.1.5.2.7.4 1.3.8 2.6 1.3 3.9.2.6.4 1.1.6 1.7.4 1.1.9 2.1 1.3 3.1.2.5.5 1.1.7 1.6.5 1 .9 2 1.4 2.9.3.5.5 1 .8 1.5.9 1.6 1.9 3.3 3 4.9.8 1.2 1.5 2.2 2.1 3.1.9 1.2 2.2 1.9 3.5 1.9 1.4 0 2.7-.7 3.5-1.9.7-.9 1.4-1.9 2.1-3.1 1-1.5 1.9-3 2.8-4.5.3-.5.6-1 .8-1.5.5-.9.9-1.8 1.5-2.9v-.1c.2-.5.5-1 .7-1.5.4-1 .9-2 1.3-3.1.2-.6.4-1.1.6-1.7.5-1.2.9-2.6 1.3-3.9l.1-.2c.1-.2.1-.4.2-.6 1.4-4.8 2.2-9.7 2.5-14.6v-.4l-2.8-126.1h.7v-48.8c0-3.9-1.1-7.7-3-10.9-.6-1.2-1.5-2.3-2.6-3.3-2.5-2.4-5.5-3.8-8.8-4.1-.2-.2-.5-.3-.8-.3z"/>
    <path class="st5" d="M499.7 358.8h2.1v26.5h-2.1z"/>
    <linearGradient id="SVGID_00000080201884933199319080000018364992080354726810_" gradientUnits="userSpaceOnUse" x1="26.15" y1="332.361" x2="26.15" y2="363.606" gradientTransform="matrix(1 0 0 -1 0 720)">
        <stop offset="0" style="stop-color:#3b1666"/>
        <stop offset="1" style="stop-color:#794b9a"/>
    </linearGradient>
    <path style="fill:url(#SVGID_00000080201884933199319080000018364992080354726810_)" d="M27.6 387.6h12.7v-31.2H27.6c-8.6 0-15.6 7-15.6 15.6s7 15.6 15.6 15.6z"/>
    <path class="st5" d="M40.2 358.7h2.1v26.5h-2.1z"/>
    <linearGradient id="SVGID_00000078007540557304934410000007164512337544042663_" gradientUnits="userSpaceOnUse" x1="271.15" y1="319.152" x2="271.15" y2="339.217" gradientTransform="matrix(1 0 0 -1 0 720)">
        <stop offset=".101" style="stop-color:#25b6be"/>
        <stop offset=".55" style="stop-color:#85bfce"/>
        <stop offset=".796" style="stop-color:#32b8c1"/>
    </linearGradient>
    <path style="fill:url(#SVGID_00000078007540557304934410000007164512337544042663_)" d="M71.7 400.8c-3.5 0-6.3-2.8-6.3-6.3v-13.8h411.5v13.8c0 3.5-2.8 6.3-6.3 6.3H71.7z"/>
    <path class="st30" d="M476.4 381.3v13.3c0 3.2-2.6 5.8-5.8 5.8H71.7c-3.2 0-5.8-2.6-5.8-5.8v-13.3h410.5m1-1H64.9v14.3c0 3.7 3.1 6.8 6.8 6.8h398.9c3.7 0 6.8-3.1 6.8-6.8v-14.3z"/>
    <linearGradient id="SVGID_00000030487199961043374090000001306850040248888761_" gradientUnits="userSpaceOnUse" x1="271.05" y1="324.8" x2="271.05" y2="364.1" gradientTransform="matrix(1 0 0 -1 0 720)">
        <stop offset=".101" style="stop-color:#25b6be"/>
        <stop offset=".55" style="stop-color:#85bfce"/>
        <stop offset=".796" style="stop-color:#32b8c1"/>
    </linearGradient>
    <path style="fill:url(#SVGID_00000030487199961043374090000001306850040248888761_)" d="M481.6 395.2c-2.6 0-4.7-1.6-4.7-3.7v-9.3c0-.8-1-1.5-2.2-1.5H68c-1.2 0-2.2.7-2.2 1.5v9.3c0 2-2.1 3.7-4.7 3.7H47c-2.6 0-4.7-1.6-4.7-3.7v-35.6h457.5v35.6c0 2-2.1 3.7-4.7 3.7h-13.5z"/>
    <path class="st30" d="M499.4 356.4v35.1c0 1.8-1.9 3.2-4.2 3.2h-13.6c-2.3 0-4.2-1.4-4.2-3.2v-9.3c0-1.1-1.2-2-2.7-2H68c-1.5 0-2.7.9-2.7 2v9.3c0 1.8-1.9 3.2-4.2 3.2H47c-2.3 0-4.2-1.4-4.2-3.2v-35h456.6m1-1.1H41.9v36c0 2.3 2.3 4.2 5.2 4.2h14.1c2.9 0 5.2-1.9 5.2-4.2v-9.3c0-.5.7-1 1.7-1h406.7c1 0 1.7.6 1.7 1v9.3c0 2.3 2.3 4.2 5.2 4.2h13.6c2.9 0 5.2-1.9 5.2-4.2v-36h-.1z"/>
    <linearGradient id="SVGID_00000107587404576633031900000000962783286075115183_" gradientUnits="userSpaceOnUse" x1="271.05" y1="688.1" x2="271.05" y2="720.014" gradientTransform="matrix(1 0 0 -1 0 720)">
        <stop offset="0" style="stop-color:#3b1666"/>
        <stop offset="1" style="stop-color:#794b9a"/>
    </linearGradient>
    <path style="fill:url(#SVGID_00000107587404576633031900000000962783286075115183_)" d="M452.6 9.7c-8.2.7-20.9 3.8-36.5 16 0 0-69.7 5.9-142.5 6.2h-5.2c-72.8-.3-142.5-6.2-142.5-6.2-15.6-12.2-28.2-15.3-36.4-16 0 0 84.9-9.7 178-9.7 92.4-.9 185.1 9.7 185.1 9.7z"/>
    <linearGradient id="SVGID_00000134937156911058471870000000183403829428989604_" gradientUnits="userSpaceOnUse" x1="353.4" y1="696.658" x2="353.4" y2="699.572" gradientTransform="matrix(1 0 0 -1 0 720)">
        <stop offset="0" style="stop-color:#3b1666"/>
        <stop offset="1" style="stop-color:#794b9a"/>
    </linearGradient>
    <path style="fill:url(#SVGID_00000134937156911058471870000000183403829428989604_)" d="M368.4 23.3h-30c-.8 0-1.5-.7-1.5-1.5s.7-1.5 1.5-1.5h30c.8 0 1.5.7 1.5 1.5 0 .9-.6 1.5-1.5 1.5z"/>
    <path class="st34" d="M331.4 1.1h.9v29.6h-.9zM374.6 3.2h.9v25.3h-.9z"/>
    <path class="st35" d="M860.4 719.3H670.9c-.6 0-1.2-.5-1.2-1.2v-42.2c0-.6.5-1.2 1.2-1.2h189.5c.6 0 1.2.5 1.2 1.2v42.2c0 .7-.5 1.2-1.2 1.2z"/>
    <g style="opacity:.25">
        <path class="st37" d="M671.2 674.7h1v44.6h-1zM673.7 674.7h1v44.6h-1zM676.3 674.7h1v44.6h-1zM678.8 674.7h1v44.6h-1zM681.4 674.7h1v44.6h-1zM683.9 674.7h1v44.6h-1zM686.4 674.7h1v44.6h-1zM689 674.7h1v44.6h-1zM691.5 674.7h1v44.6h-1zM694.1 674.7h1v44.6h-1zM696.6 674.7h1v44.6h-1zM699.1 674.7h1v44.6h-1zM701.7 674.7h1v44.6h-1zM704.2 674.7h1v44.6h-1zM706.8 674.7h1v44.6h-1zM709.3 674.7h1v44.6h-1zM711.8 674.7h1v44.6h-1zM714.4 674.7h1v44.6h-1zM716.9 674.7h1v44.6h-1zM719.4 674.7h1v44.6h-1zM722 674.7h1v44.6h-1zM724.5 674.7h1v44.6h-1zM727.1 674.7h1v44.6h-1zM729.6 674.7h1v44.6h-1zM732.1 674.7h1v44.6h-1zM734.7 674.7h1v44.6h-1zM737.2 674.7h1v44.6h-1zM739.8 674.7h1v44.6h-1zM742.3 674.7h1v44.6h-1zM744.8 674.7h1v44.6h-1zM747.4 674.7h1v44.6h-1zM749.9 674.7h1v44.6h-1zM752.5 674.7h1v44.6h-1zM755 674.7h1v44.6h-1zM757.5 674.7h1v44.6h-1zM760.1 674.7h1v44.6h-1zM762.6 674.7h1v44.6h-1zM765.1 674.7h1v44.6h-1zM767.7 674.7h1v44.6h-1zM770.2 674.7h1v44.6h-1zM772.8 674.7h1v44.6h-1zM775.3 674.7h1v44.6h-1zM777.8 674.7h1v44.6h-1zM780.4 674.7h1v44.6h-1zM782.9 674.7h1v44.6h-1zM785.5 674.7h1v44.6h-1zM788 674.7h1v44.6h-1zM790.5 674.7h1v44.6h-1zM793.1 674.7h1v44.6h-1zM795.6 674.7h1v44.6h-1zM798.1 674.7h1v44.6h-1zM800.7 674.7h1v44.6h-1zM803.2 674.7h1v44.6h-1zM805.8 674.7h1v44.6h-1zM808.3 674.7h1v44.6h-1zM810.8 674.7h1v44.6h-1zM813.4 674.7h1v44.6h-1zM815.9 674.7h1v44.6h-1zM818.5 674.7h1v44.6h-1zM821 674.7h1v44.6h-1zM823.5 674.7h1v44.6h-1zM826.1 674.7h1v44.6h-1zM828.6 674.7h1v44.6h-1zM831.2 674.7h1v44.6h-1zM833.7 674.7h1v44.6h-1zM836.2 674.7h1v44.6h-1zM838.8 674.7h1v44.6h-1zM841.3 674.7h1v44.6h-1zM843.8 674.7h1v44.6h-1zM846.4 674.7h1v44.6h-1zM848.9 674.7h1v44.6h-1zM851.5 674.7h1v44.6h-1zM854 674.7h1v44.6h-1zM856.5 674.7h1v44.6h-1zM859.1 674.7h1v44.6h-1z"/>
    </g>
    <path class="st37" d="M671.9 672.3h187.5v2.4H671.9z"/>
    <path class="st35" d="M904.4 672.3H626.9c-4.8 0-8.7-3.9-8.7-8.7V357.5c0-3.5 2.8-6.2 6.2-6.2h267.2c11.9 0 21.5 9.6 21.5 21.5v290.8c0 4.8-3.9 8.7-8.7 8.7z"/>
    <path class="st37" d="M890.9 624.2H618.2v-265h269.7c9.2 0 16.7 7.5 16.7 16.7v234.5c0 7.6-6.2 13.8-13.7 13.8zM785.3 706.2H746c-3.8 0-6.9-3.1-6.9-6.9v-4.5c0-3.8 3.1-6.9 6.9-6.9h39.3c3.8 0 6.9 3.1 6.9 6.9v4.5c0 3.8-3.1 6.9-6.9 6.9z"/>
    <path class="st35" d="M745.4 703.1h5.4c2.2 0 4-1.8 4-4s-1.8-4-4-4h-1.4c-.1 0-.2-.1-.2-.2s.1-.2.2-.2h5.3V693h-5.4c-1 0-1.9.8-1.9 1.9 0 1 .8 1.9 1.9 1.9h1.4c1.3 0 2.3 1 2.3 2.3s-1 2.3-2.3 2.3h-5.4l.1 1.7"/>
    <path class="st35" d="M745.4 701h5.4c1 0 1.9-.8 1.9-1.9 0-1-.8-1.9-1.9-1.9h-1.4c-1.3 0-2.3-1-2.3-2.3 0-1.2 1-2.3 2.3-2.3h5.4v-1.7h-5.3c-2.2 0-4 1.8-4 4s1.8 4 4 4h1.4c.1 0 .2.1.2.2s-.1.2-.2.2h-5.4l-.1 1.7M758.8 701.4c-.9 0-1.7-.7-1.7-1.7v-5.4c0-.9.8-1.7 1.7-1.7h5.7v-1.7h-5.7c-1.9 0-3.4 1.5-3.4 3.4v5.3c0 1.9 1.5 3.4 3.4 3.4h5.7v-1.7l-5.7.1"/>
    <path class="st35" d="M757.6 694.4c0-.7.6-1.3 1.3-1.3h5.7v1.7h-4.9c-.4 0-.4.4-.4.4h4.1v1.7h-5.8v-2.5M758.8 701c-.7 0-1.3-.6-1.3-1.3v-2.5h5.8v1.7h-4.1c0 .4.4.4.4.4h4.9v1.7h-5.7M768.6 701.4c-.9 0-1.7-.8-1.7-1.7v-5.3c0-.9.8-1.7 1.7-1.7h5.5V691h-5.6c-1.9 0-3.4 1.5-3.4 3.4v5.3c0 1.9 1.5 3.4 3.4 3.4h5.5v-7.9h-4.8v1.7h3.1v4.5h-3.7"/>
    <path class="st35" d="M767.3 699.8c0 .7.6 1.3 1.3 1.3h3.5v-3.8h-2.7v1.7h1v.4h-1c-.2 0-.4-.2-.4-.4v-3.8s0-.4.4-.4h4.8v-1.7h-5.5c-.7 0-1.3.6-1.3 1.3l-.1 5.4M779.3 693.1c.1-.2.3-.4.5-.4s.4.2.5.4l2.7 7.9h-3.9v-1.9h1.3l-.6-1.8-1.9 5.7h-2l3.4-9.9"/>
    <path class="st35" d="M783.6 701.4h-4.5v1.7h6.8l-3.5-10.5c-.3-1-1.3-1.8-2.5-1.8s-2.2.7-2.5 1.8l-3.6 10.5h1.8l3.5-10.2c.1-.3.5-.6.9-.6s.7.2.9.6l2.7 8.5"/>
    <path class="st38" d="M894.5 405.6h-21v-41.1h12.9c6.4 0 11.5 5.1 11.5 11.5v26.1c0 1.9-1.5 3.5-3.4 3.5z"/>
    <path d="M894.5 446.6h-21v-41.1h21c1.9 0 3.4 1.5 3.4 3.4v34.2c0 2-1.5 3.5-3.4 3.5z" style="fill:#f9e469"/>
    <path d="M894.5 487.7h-21v-41.1h21c1.9 0 3.4 1.5 3.4 3.4v34.2c0 2-1.5 3.5-3.4 3.5z" style="fill:#47af52"/>
    <path d="M894.5 528.8h-21v-41.1h21c1.9 0 3.4 1.5 3.4 3.4v34.2c0 1.9-1.5 3.5-3.4 3.5z" style="fill:#f9413f"/>
    <path d="M894.5 569.8h-21v-41.1h21c1.9 0 3.4 1.5 3.4 3.4v34.2c0 2-1.5 3.5-3.4 3.5z" style="fill:#6bb1f7"/>
    <path class="st38" d="M883.9 619.3H638.6c-2.6 0-4.7-2.1-4.7-4.7V369.2c0-2.6 2.1-4.7 4.7-4.7h245.3c2.6 0 4.7 2.1 4.7 4.7v245.3c.1 2.7-2.1 4.8-4.7 4.8z"/>
    <linearGradient id="SVGID_00000077308944478586634090000006866592233067275956_" gradientUnits="userSpaceOnUse" x1="622.847" y1="331.8" x2="644.924" y2="331.8" gradientTransform="matrix(1 0 0 -1 0 720)">
        <stop offset="0" style="stop-color:#fac367"/>
        <stop offset="1" style="stop-color:#d39a48"/>
    </linearGradient>
    <path style="fill:url(#SVGID_00000077308944478586634090000006866592233067275956_)" d="M625.4 399.2h17c1.4 0 2.5-1.1 2.5-2.5v-17c0-1.4-1.1-2.5-2.5-2.5h-17c-1.4 0-2.5 1.1-2.5 2.5v17c-.1 1.3 1.1 2.5 2.5 2.5z"/>
    <path class="st37" d="M641.6 377.1c1.8 0 3.3 1.5 3.3 3.3v15.5c0 1.8-1.5 3.3-3.3 3.3h-15.5c-1.8 0-3.3-1.5-3.3-3.3v-15.5c0-1.8 1.5-3.3 3.3-3.3h15.5m0-1.3h-15.5c-2.5 0-4.6 2.1-4.6 4.6v15.5c0 2.5 2.1 4.6 4.6 4.6h15.5c2.5 0 4.6-2.1 4.6-4.6v-15.5c0-2.5-2-4.6-4.6-4.6z"/>
    <linearGradient id="SVGID_00000171693119035848919900000014344239627866086275_" gradientUnits="userSpaceOnUse" x1="622.847" y1="232.3" x2="644.924" y2="232.3" gradientTransform="matrix(1 0 0 -1 0 720)">
        <stop offset="0" style="stop-color:#fac367"/>
        <stop offset="1" style="stop-color:#d39a48"/>
    </linearGradient>
    <path style="fill:url(#SVGID_00000171693119035848919900000014344239627866086275_)" d="M625.4 498.7h17c1.4 0 2.5-1.1 2.5-2.5v-17c0-1.4-1.1-2.5-2.5-2.5h-17c-1.4 0-2.5 1.1-2.5 2.5v17c-.1 1.4 1.1 2.5 2.5 2.5z"/>
    <path class="st37" d="M641.6 476.7c1.8 0 3.3 1.5 3.3 3.3v15.5c0 1.8-1.5 3.3-3.3 3.3h-15.5c-1.8 0-3.3-1.5-3.3-3.3V480c0-1.8 1.5-3.3 3.3-3.3h15.5m0-1.3h-15.5c-2.5 0-4.6 2.1-4.6 4.6v15.5c0 2.5 2.1 4.6 4.6 4.6h15.5c2.5 0 4.6-2.1 4.6-4.6V480c0-2.6-2-4.6-4.6-4.6z"/>
    <linearGradient id="SVGID_00000027591586430257678720000010864398250267439262_" gradientUnits="userSpaceOnUse" x1="622.847" y1="132.7" x2="644.924" y2="132.7" gradientTransform="matrix(1 0 0 -1 0 720)">
        <stop offset="0" style="stop-color:#fac367"/>
        <stop offset="1" style="stop-color:#d39a48"/>
    </linearGradient>
    <path style="fill:url(#SVGID_00000027591586430257678720000010864398250267439262_)" d="M625.4 598.3h17c1.4 0 2.5-1.1 2.5-2.5v-17c0-1.4-1.1-2.5-2.5-2.5h-17c-1.4 0-2.5 1.1-2.5 2.5v17c-.1 1.4 1.1 2.5 2.5 2.5z"/>
    <path class="st37" d="M641.6 576.2c1.8 0 3.3 1.5 3.3 3.3V595c0 1.8-1.5 3.3-3.3 3.3h-15.5c-1.8 0-3.3-1.5-3.3-3.3v-15.5c0-1.8 1.5-3.3 3.3-3.3h15.5m0-1.3h-15.5c-2.5 0-4.6 2.1-4.6 4.6V595c0 2.5 2.1 4.6 4.6 4.6h15.5c2.5 0 4.6-2.1 4.6-4.6v-15.5c0-2.5-2-4.6-4.6-4.6z"/>
    <path style="fill:#8da4ce" d="M658.5 389.2H864v205.5H658.5z"/>
    <linearGradient id="SVGID_00000039117178228085944680000018088353186835689143_" gradientUnits="userSpaceOnUse" x1="765.7" y1="82.728" x2="765.7" y2="60.768" gradientTransform="matrix(1 0 0 -1 0 720)">
        <stop offset="0" style="stop-color:#fac367"/>
        <stop offset="1" style="stop-color:#d39a48"/>
    </linearGradient>
    <path style="fill:url(#SVGID_00000039117178228085944680000018088353186835689143_)" d="M667.6 659.2c-4.5 0-8.2-3.7-8.2-8.2v-5.5c0-4.5 3.7-8.2 8.2-8.2h196.2c4.5 0 8.2 3.7 8.2 8.2v5.5c0 4.5-3.7 8.2-8.2 8.2H667.6z"/>
    <path d="M863.8 637.8c4.3 0 7.7 3.5 7.7 7.7v5.5c0 4.3-3.5 7.7-7.7 7.7H667.6c-4.3 0-7.7-3.5-7.7-7.7v-5.5c0-4.3 3.5-7.7 7.7-7.7h196.2m0-1H667.6c-4.8 0-8.7 3.9-8.7 8.7v5.5c0 4.8 3.9 8.7 8.7 8.7h196.2c4.8 0 8.7-3.9 8.7-8.7v-5.5c0-4.8-3.9-8.7-8.7-8.7z" style="fill:#d29946"/>
    <path class="st15" d="M827.9 588c.6.6 1.4.9 2.3.9h13.9l-3-9c-.4-1-1.4-1.6-2.5-1.6-1.2 0-2.1.7-2.5 1.6l-1 2.9v-4.4h-4.9c-.9 0-1.7.3-2.2.9v-.9h-5c-.9 0-1.8.4-2.4 1v-1h-4.7c-2 0-3.7 1.6-3.7 3.7 0 1 .4 1.8 1 2.5h-1.1v4.3h4.7c1.3 0 2.6-.8 3.1-1.8.5 1.1 1.6 1.8 2.9 1.8h5l.1-.9"/>
    <path class="st38" d="M812.9 588.2h4c1.6 0 3-1.3 3-2.9 0-1.6-1.3-2.9-3-2.9h-1c-.1 0-.1-.1-.1-.1 0-.1.1-.1.1-.1h4V581h-4c-.8 0-1.4.6-1.4 1.4 0 .8.6 1.4 1.4 1.4h1c.9 0 1.7.8 1.7 1.7s-.8 1.7-1.7 1.7h-4v1"/>
    <path class="st38" d="M812.9 586.6h4c.8 0 1.4-.6 1.4-1.4 0-.8-.6-1.4-1.4-1.4h-1c-.9 0-1.7-.8-1.7-1.7s.8-1.7 1.7-1.7h4v-1.3h-4c-1.6 0-3 1.3-3 2.9 0 1.6 1.3 2.9 3 2.9h1c.1 0 .1.1.1.1 0 .1-.1.1-.1.1h-4v1.5M822.9 586.9c-.7 0-1.3-.6-1.3-1.3v-4c0-.7.6-1.2 1.3-1.2h4.3v-1.2h-4.3c-1.4 0-2.5 1.1-2.5 2.5v4c0 1.4 1.1 2.5 2.5 2.5h4.2V587l-4.2-.1"/>
    <path class="st38" d="M822 581.7c0-.5.4-1 1-1h4.3v1.3h-3.7c-.3 0-.3.3-.3.3h3.1v1.2H822v-1.8M822.9 586.6c-.5 0-1-.4-1-1v-1.8h4.3v1.2h-3.1c0 .3.3.3.3.3h3.6v1.2l-4.1.1M830.2 586.9c-.7 0-1.3-.6-1.3-1.3v-4c0-.7.6-1.2 1.2-1.2h4.1v-1.2h-4.1c-1.4 0-2.5 1.1-2.5 2.5v4c0 1.4 1.1 2.5 2.5 2.5h4.1v-5.9h-3.5v1.2h2.3v3.4h-2.8"/>
    <path class="st38" d="M829.2 585.7c0 .5.4 1 1 1h2.6v-2.8h-2v1.2h.7v.3h-.7c-.2 0-.3-.1-.3-.3v-2.8s0-.3.3-.3h3.5v-1.2h-4.1c-.5 0-1 .4-1 1v3.9M838.1 580.8c.1-.2.2-.3.4-.3s.3.1.4.3l2 5.9H838v-1.4h1l-.4-1.3-1.4 4.2h-1.5l2.4-7.4"/>
    <path class="st38" d="M841.3 586.9H838v1.2h5.1l-2.6-7.8c-.2-.8-1-1.3-1.9-1.3s-1.7.6-1.9 1.3l-2.7 7.8h1.3l2.6-7.6c.1-.3.4-.4.6-.4.3 0 .5.2.6.4l2.2 6.4"/>
</svg>
