<!DOCTYPE svg PUBLIC "-//W3C//DTD SVG 20010904//EN" "http://www.w3.org/TR/2001/REC-SVG-20010904/DTD/svg10.dtd">
<svg version="1.0" xmlns="http://www.w3.org/2000/svg" width="656px" height="450px" viewBox="0 0 6560 4500" preserveAspectRatio="xMidYMid meet">
<g id="layer101" fill="#2d1b2e" stroke="none">
<path d="M150 4480 l0 -20 -40 0 -40 0 0 -20 0 -20 -15 0 -15 0 0 -35 0 -35 -20 0 -20 0 0 -2100 0 -2100 20 0 20 0 0 -40 0 -40 15 0 15 0 0 -15 0 -15 40 0 40 0 0 -20 0 -20 2700 0 2700 0 0 20 0 20 35 0 35 0 0 15 0 15 20 0 20 0 0 40 0 40 20 0 20 0 0 225 0 225 205 0 205 0 0 35 0 35 95 0 95 0 0 135 0 135 -95 0 -95 0 0 35 0 35 205 0 205 0 0 20 0 20 20 0 20 0 0 1050 0 1050 -225 0 -225 0 0 35 0 35 95 0 95 0 0 135 0 135 -95 0 -95 0 0 55 0 55 -205 0 -205 0 0 375 0 375 -20 0 -20 0 0 35 0 35 -20 0 -20 0 0 20 0 20 -35 0 -35 0 0 20 0 20 -2700 0 -2700 0 0 -20z m190 -190 l0 -20 15 0 15 0 0 -15 0 -15 20 0 20 0 0 -40 0 -40 -35 0 -35 0 0 20 0 20 -20 0 -20 0 0 20 0 20 -20 0 -20 0 0 35 0 35 40 0 40 0 0 -20z m0 -3900 l0 -20 15 0 15 0 0 -15 0 -15 20 0 20 0 0 -40 0 -40 -35 0 -35 0 0 20 0 20 -20 0 -20 0 0 20 0 20 -20 0 -20 0 0 35 0 35 40 0 40 0 0 -20z m5060 0 l0 -20 20 0 20 0 0 -15 0 -15 15 0 15 0 0 -40 0 -40 -35 0 -35 0 0 20 0 20 -20 0 -20 0 0 20 0 20 -20 0 -20 0 0 35 0 35 40 0 40 0 0 -20z"/>
</g>
<g id="layer102" fill="#4a247c" stroke="none">
<path d="M190 4440 l0 -20 -40 0 -40 0 0 -15 0 -15 -20 0 -20 0 0 -40 0 -40 -15 0 -15 0 0 -2060 0 -2060 15 0 15 0 0 -40 0 -40 20 0 20 0 0 -20 0 -20 40 0 40 0 0 -15 0 -15 2660 0 2660 0 0 15 0 15 40 0 40 0 0 20 0 20 15 0 15 0 0 40 0 40 20 0 20 0 0 225 0 225 -20 0 -20 0 0 185 0 185 -390 0 -390 0 0 20 0 20 -20 0 -20 0 0 1030 0 1030 20 0 20 0 0 40 0 40 15 0 15 0 0 15 0 15 375 0 375 0 0 170 0 170 20 0 20 0 0 375 0 375 -20 0 -20 0 0 40 0 40 -15 0 -15 0 0 15 0 15 -40 0 -40 0 0 20 0 20 -2660 0 -2660 0 0 -20z m180 -110 l0 -20 20 0 20 0 0 -20 0 -20 20 0 20 0 0 -75 0 -75 -75 0 -75 0 0 20 0 20 -20 0 -20 0 0 20 0 20 -20 0 -20 0 0 75 0 75 75 0 75 0 0 -20z m2700 -190 l0 -20 20 0 20 0 0 -505 0 -505 -20 0 -20 0 0 -35 0 -35 -15 0 -15 0 0 -20 0 -20 -525 0 -525 0 0 20 0 20 -20 0 -20 0 0 525 0 525 20 0 20 0 0 15 0 15 35 0 35 0 0 20 0 20 505 0 505 0 0 -20z m-1680 -150 l0 -20 15 0 15 0 0 -1780 0 -1780 -15 0 -15 0 0 -35 0 -35 -20 0 -20 0 0 -20 0 -20 -40 0 -40 0 0 -55 0 -55 -15 0 -15 0 0 -20 0 -20 -245 0 -245 0 0 20 0 20 -20 0 -20 0 0 55 0 55 -35 0 -35 0 0 20 0 20 -20 0 -20 0 0 1760 0 1760 20 0 20 0 0 20 0 20 15 0 15 0 0 35 0 35 20 0 20 0 0 20 0 20 340 0 340 0 0 -20z m2850 -1500 l0 -20 15 0 15 0 0 -300 0 -300 20 0 20 0 0 -375 0 -375 -20 0 -20 0 0 -355 0 -355 -15 0 -15 0 0 -20 0 -20 -20 0 -20 0 0 -15 0 -15 -20 0 -20 0 0 -20 0 -20 -1050 0 -1050 0 0 20 0 20 -20 0 -20 0 0 15 0 15 -15 0 -15 0 0 360 0 360 -20 0 -20 0 0 375 0 375 20 0 20 0 0 300 0 300 15 0 15 0 0 15 0 15 20 0 20 0 0 20 0 20 1090 0 1090 0 0 -20z m-3870 -2060 l0 -20 20 0 20 0 0 -20 0 -20 20 0 20 0 0 -75 0 -75 -75 0 -75 0 0 20 0 20 -20 0 -20 0 0 20 0 20 -20 0 -20 0 0 75 0 75 75 0 75 0 0 -20z m5070 0 l0 -20 15 0 15 0 0 -20 0 -20 20 0 20 0 0 -75 0 -75 -75 0 -75 0 0 20 0 20 -20 0 -20 0 0 20 0 20 -15 0 -15 0 0 75 0 75 75 0 75 0 0 -20z"/>
<path d="M2060 2420 l0 -20 -20 0 -20 0 0 -300 0 -300 -15 0 -15 0 0 -340 0 -340 15 0 15 0 0 -355 0 -355 20 0 20 0 0 -20 0 -20 20 0 20 0 0 -15 0 -15 1010 0 1010 0 0 15 0 15 20 0 20 0 0 20 0 20 20 0 20 0 0 355 0 355 20 0 20 0 0 340 0 340 -20 0 -20 0 0 300 0 300 -20 0 -20 0 0 20 0 20 -1050 0 -1050 0 0 -20z m560 -940 l0 -20 20 0 20 0 0 -20 0 -20 40 0 40 0 0 40 0 40 110 0 110 0 0 -20 0 -20 20 0 20 0 0 20 0 20 335 0 335 0 0 -40 0 -40 20 0 20 0 0 -35 0 -35 20 0 20 0 0 -75 0 -75 -170 0 -170 0 0 -20 0 -20 -185 0 -185 0 0 20 0 20 -20 0 -20 0 0 -20 0 -20 -205 0 -205 0 0 20 0 20 -20 0 -20 0 0 35 0 35 -20 0 -20 0 0 40 0 40 -20 0 -20 0 0 75 0 75 75 0 75 0 0 -20z"/>
<path d="M5700 3540 l0 -20 -20 0 -20 0 0 -165 0 -165 -375 0 -375 0 0 -20 0 -20 -20 0 -20 0 0 -40 0 -40 -15 0 -15 0 0 -990 0 -990 15 0 15 0 0 -20 0 -20 395 0 395 0 0 -190 0 -190 20 0 20 0 0 -15 0 -15 185 0 185 0 0 1460 0 1460 -185 0 -185 0 0 -20z"/>
</g>
<g id="layer103" fill="#8e2b45" stroke="none">
<path d="M190 4440 l0 -20 -40 0 -40 0 0 -15 0 -15 -20 0 -20 0 0 -40 0 -40 -15 0 -15 0 0 -2060 0 -2060 15 0 15 0 0 -40 0 -40 20 0 20 0 0 -20 0 -20 40 0 40 0 0 -15 0 -15 2660 0 2660 0 0 15 0 15 40 0 40 0 0 20 0 20 15 0 15 0 0 40 0 40 20 0 20 0 0 225 0 225 -20 0 -20 0 0 185 0 185 -390 0 -390 0 0 20 0 20 -20 0 -20 0 0 1030 0 1030 20 0 20 0 0 40 0 40 15 0 15 0 0 15 0 15 375 0 375 0 0 170 0 170 20 0 20 0 0 375 0 375 -20 0 -20 0 0 40 0 40 -15 0 -15 0 0 15 0 15 -40 0 -40 0 0 20 0 20 -2660 0 -2660 0 0 -20z m180 -110 l0 -20 20 0 20 0 0 -20 0 -20 20 0 20 0 0 -75 0 -75 -75 0 -75 0 0 20 0 20 -20 0 -20 0 0 20 0 20 -20 0 -20 0 0 75 0 75 75 0 75 0 0 -20z m2700 -190 l0 -20 20 0 20 0 0 -505 0 -505 -20 0 -20 0 0 -35 0 -35 -15 0 -15 0 0 -20 0 -20 -525 0 -525 0 0 20 0 20 -20 0 -20 0 0 525 0 525 20 0 20 0 0 15 0 15 35 0 35 0 0 20 0 20 505 0 505 0 0 -20z m450 -110 l0 -20 -35 0 -35 0 0 20 0 20 35 0 35 0 0 -20z m150 -55 l0 -75 -15 0 -15 0 0 55 0 55 -40 0 -40 0 0 20 0 20 55 0 55 0 0 -75z m-2280 15 l0 -20 15 0 15 0 0 -1780 0 -1780 -15 0 -15 0 0 -35 0 -35 -20 0 -20 0 0 -20 0 -20 -40 0 -40 0 0 -55 0 -55 -15 0 -15 0 0 -20 0 -20 -245 0 -245 0 0 20 0 20 -20 0 -20 0 0 55 0 55 -35 0 -35 0 0 20 0 20 -20 0 -20 0 0 1760 0 1760 20 0 20 0 0 20 0 20 15 0 15 0 0 35 0 35 20 0 20 0 0 20 0 20 340 0 340 0 0 -20z m2130 -220 l0 -20 -35 0 -35 0 0 20 0 20 35 0 35 0 0 -20z m150 0 l0 -20 -15 0 -15 0 0 -55 0 -55 -20 0 -20 0 0 55 0 55 -20 0 -20 0 0 20 0 20 55 0 55 0 0 -20z m-150 -265 l0 -15 -35 0 -35 0 0 15 0 15 35 0 35 0 0 -15z m150 0 l0 -15 -55 0 -55 0 0 15 0 15 55 0 55 0 0 -15z m-110 -375 l0 -20 20 0 20 0 0 -35 0 -35 -20 0 -20 0 0 15 0 15 -20 0 -20 0 0 20 0 20 -55 0 -55 0 0 -20 0 -20 -20 0 -20 0 0 -15 0 -15 -15 0 -15 0 0 35 0 35 15 0 15 0 0 20 0 20 95 0 95 0 0 -20z m300 0 l0 -20 20 0 20 0 0 -35 0 -35 -20 0 -20 0 0 15 0 15 -20 0 -20 0 0 20 0 20 -55 0 -55 0 0 -20 0 -20 -20 0 -20 0 0 -15 0 -15 -15 0 -15 0 0 35 0 35 15 0 15 0 0 20 0 20 95 0 95 0 0 -20z m300 0 l0 -20 20 0 20 0 0 -35 0 -35 -20 0 -20 0 0 15 0 15 -20 0 -20 0 0 20 0 20 -55 0 -55 0 0 -20 0 -20 -20 0 -20 0 0 -15 0 -15 -15 0 -15 0 0 35 0 35 15 0 15 0 0 20 0 20 95 0 95 0 0 -20z m80 -640 l0 -20 15 0 15 0 0 -300 0 -300 20 0 20 0 0 -375 0 -375 -20 0 -20 0 0 -355 0 -355 -15 0 -15 0 0 -20 0 -20 -20 0 -20 0 0 -15 0 -15 -20 0 -20 0 0 -20 0 -20 -1050 0 -1050 0 0 20 0 20 -20 0 -20 0 0 15 0 15 -15 0 -15 0 0 360 0 360 -20 0 -20 0 0 375 0 375 20 0 20 0 0 300 0 300 15 0 15 0 0 15 0 15 20 0 20 0 0 20 0 20 1090 0 1090 0 0 -20z m410 -1800 l0 -20 -40 0 -40 0 0 20 0 20 40 0 40 0 0 -20z m150 -55 l0 -75 -20 0 -20 0 0 55 0 55 -35 0 -35 0 0 20 0 20 55 0 55 0 0 -75z m340 55 l0 -20 -40 0 -40 0 0 20 0 20 40 0 40 0 0 -20z m150 -55 l0 -75 -20 0 -20 0 0 55 0 55 -40 0 -40 0 0 20 0 20 60 0 60 0 0 -75z m-4920 -205 l0 -20 20 0 20 0 0 -20 0 -20 20 0 20 0 0 -75 0 -75 -75 0 -75 0 0 20 0 20 -20 0 -20 0 0 20 0 20 -20 0 -20 0 0 75 0 75 75 0 75 0 0 -20z m4280 0 l0 -20 -40 0 -40 0 0 20 0 20 40 0 40 0 0 -20z m150 -55 l0 -75 -20 0 -20 0 0 55 0 55 -35 0 -35 0 0 20 0 20 55 0 55 0 0 -75z m640 55 l0 -20 15 0 15 0 0 -20 0 -20 20 0 20 0 0 -75 0 -75 -75 0 -75 0 0 20 0 20 -20 0 -20 0 0 20 0 20 -15 0 -15 0 0 75 0 75 75 0 75 0 0 -20z"/>
</g>
<g id="layer104" fill="#574b67" stroke="none">
<path d="M2020 4070 l0 -20 -15 0 -15 0 0 -490 0 -490 15 0 15 0 0 -15 0 -15 490 0 490 0 0 15 0 15 20 0 20 0 0 490 0 490 -20 0 -20 0 0 20 0 20 -490 0 -490 0 0 -20z"/>
<path d="M670 3840 l0 -20 -15 0 -15 0 0 -15 0 -15 355 0 355 0 0 15 0 15 -20 0 -20 0 0 20 0 20 -320 0 -320 0 0 -20z"/>
<path d="M790 3580 l0 -20 -20 0 -20 0 0 -1670 0 -1670 20 0 20 0 0 -15 0 -15 205 0 205 0 0 15 0 15 20 0 20 0 0 1670 0 1670 -20 0 -20 0 0 20 0 20 -95 0 -95 0 0 -190 0 -190 -20 0 -20 0 0 190 0 190 -90 0 -90 0 0 -20z"/>
<path d="M2060 2420 l0 -20 -20 0 -20 0 0 -300 0 -300 -15 0 -15 0 0 -340 0 -340 15 0 15 0 0 -355 0 -355 20 0 20 0 0 -20 0 -20 20 0 20 0 0 -15 0 -15 1010 0 1010 0 0 15 0 15 20 0 20 0 0 20 0 20 20 0 20 0 0 355 0 355 20 0 20 0 0 340 0 340 -20 0 -20 0 0 300 0 300 -20 0 -20 0 0 20 0 20 -1050 0 -1050 0 0 -20z m1950 -245 l0 -35 20 0 20 0 0 -135 0 -135 20 0 20 0 0 -55 0 -55 -20 0 -20 0 0 -20 0 -20 -940 0 -940 0 0 210 0 210 20 0 20 0 0 15 0 15 20 0 20 0 0 20 0 20 880 0 880 0 0 -35z m-1390 -695 l0 -20 20 0 20 0 0 -20 0 -20 40 0 40 0 0 40 0 40 110 0 110 0 0 -20 0 -20 20 0 20 0 0 20 0 20 335 0 335 0 0 -40 0 -40 20 0 20 0 0 -35 0 -35 20 0 20 0 0 -75 0 -75 -170 0 -170 0 0 -20 0 -20 -185 0 -185 0 0 20 0 20 -20 0 -20 0 0 -20 0 -20 -205 0 -205 0 0 20 0 20 -20 0 -20 0 0 35 0 35 -20 0 -20 0 0 40 0 40 -20 0 -20 0 0 75 0 75 75 0 75 0 0 -20z"/>
<path d="M2290 2155 l0 -15 -20 0 -20 0 0 -20 0 -20 -20 0 -20 0 0 -170 0 -170 20 0 20 0 0 20 0 20 880 0 880 0 0 150 0 150 -20 0 -20 0 0 20 0 20 -15 0 -15 0 0 15 0 15 -825 0 -825 0 0 -15z"/>
</g>
<g id="layer105" fill="#218a91" stroke="none">
<path d="M190 4440 l0 -20 -40 0 -40 0 0 -15 0 -15 -20 0 -20 0 0 -40 0 -40 -15 0 -15 0 0 -2060 0 -2060 15 0 15 0 0 -40 0 -40 20 0 20 0 0 -20 0 -20 40 0 40 0 0 -15 0 -15 2660 0 2660 0 0 15 0 15 40 0 40 0 0 20 0 20 15 0 15 0 0 40 0 40 20 0 20 0 0 225 0 225 -20 0 -20 0 0 185 0 185 -390 0 -390 0 0 20 0 20 -20 0 -20 0 0 1030 0 1030 20 0 20 0 0 40 0 40 15 0 15 0 0 15 0 15 375 0 375 0 0 170 0 170 20 0 20 0 0 375 0 375 -20 0 -20 0 0 40 0 40 -15 0 -15 0 0 15 0 15 -40 0 -40 0 0 20 0 20 -2660 0 -2660 0 0 -20z m180 -110 l0 -20 20 0 20 0 0 -20 0 -20 20 0 20 0 0 -75 0 -75 -75 0 -75 0 0 20 0 20 -20 0 -20 0 0 20 0 20 -20 0 -20 0 0 75 0 75 75 0 75 0 0 -20z m2700 -190 l0 -20 20 0 20 0 0 -505 0 -505 -20 0 -20 0 0 -35 0 -35 -15 0 -15 0 0 -20 0 -20 -525 0 -525 0 0 20 0 20 -20 0 -20 0 0 525 0 525 20 0 20 0 0 15 0 15 35 0 35 0 0 20 0 20 505 0 505 0 0 -20z m450 -165 l0 -75 -15 0 -15 0 0 55 0 55 -20 0 -20 0 0 20 0 20 35 0 35 0 0 -75z m150 0 l0 -75 -15 0 -15 0 0 20 0 20 -20 0 -20 0 0 15 0 15 -20 0 -20 0 0 40 0 40 55 0 55 0 0 -75z m-2280 15 l0 -20 15 0 15 0 0 -1780 0 -1780 -15 0 -15 0 0 -35 0 -35 -20 0 -20 0 0 -20 0 -20 -40 0 -40 0 0 -55 0 -55 -15 0 -15 0 0 -20 0 -20 -245 0 -245 0 0 20 0 20 -20 0 -20 0 0 55 0 55 -35 0 -35 0 0 20 0 20 -20 0 -20 0 0 1760 0 1760 20 0 20 0 0 20 0 20 15 0 15 0 0 35 0 35 20 0 20 0 0 20 0 20 340 0 340 0 0 -20z m2130 -275 l0 -75 -15 0 -15 0 0 55 0 55 -20 0 -20 0 0 20 0 20 35 0 35 0 0 -75z m150 55 l0 -20 -15 0 -15 0 0 -55 0 -55 -20 0 -20 0 0 55 0 55 -20 0 -20 0 0 20 0 20 55 0 55 0 0 -20z m-150 -325 l0 -75 -15 0 -15 0 0 60 0 60 -20 0 -20 0 0 15 0 15 35 0 35 0 0 -75z m150 60 l0 -15 -15 0 -15 0 0 -40 0 -40 -20 0 -20 0 0 20 0 20 -20 0 -20 0 0 35 0 35 55 0 55 0 0 -15z m-110 -375 l0 -20 20 0 20 0 0 -35 0 -35 -20 0 -20 0 0 15 0 15 -20 0 -20 0 0 20 0 20 -55 0 -55 0 0 -20 0 -20 -20 0 -20 0 0 -15 0 -15 -15 0 -15 0 0 35 0 35 15 0 15 0 0 20 0 20 95 0 95 0 0 -20z m300 0 l0 -20 20 0 20 0 0 -35 0 -35 -20 0 -20 0 0 15 0 15 -20 0 -20 0 0 20 0 20 -55 0 -55 0 0 -20 0 -20 -20 0 -20 0 0 -15 0 -15 -15 0 -15 0 0 35 0 35 15 0 15 0 0 20 0 20 95 0 95 0 0 -20z m300 0 l0 -20 20 0 20 0 0 -35 0 -35 -20 0 -20 0 0 15 0 15 -20 0 -20 0 0 20 0 20 -55 0 -55 0 0 -20 0 -20 -20 0 -20 0 0 -15 0 -15 -15 0 -15 0 0 35 0 35 15 0 15 0 0 20 0 20 95 0 95 0 0 -20z m80 -640 l0 -20 15 0 15 0 0 -300 0 -300 20 0 20 0 0 -375 0 -375 -20 0 -20 0 0 -355 0 -355 -15 0 -15 0 0 -20 0 -20 -20 0 -20 0 0 -15 0 -15 -20 0 -20 0 0 -20 0 -20 -1050 0 -1050 0 0 20 0 20 -20 0 -20 0 0 15 0 15 -15 0 -15 0 0 360 0 360 -20 0 -20 0 0 375 0 375 20 0 20 0 0 300 0 300 15 0 15 0 0 15 0 15 20 0 20 0 0 20 0 20 1090 0 1090 0 0 -20z m410 -1855 l0 -75 -20 0 -20 0 0 55 0 55 -20 0 -20 0 0 20 0 20 40 0 40 0 0 -75z m150 0 l0 -75 -20 0 -20 0 0 20 0 20 -20 0 -20 0 0 20 0 20 -15 0 -15 0 0 35 0 35 55 0 55 0 0 -75z m340 0 l0 -75 -20 0 -20 0 0 55 0 55 -20 0 -20 0 0 20 0 20 40 0 40 0 0 -75z m150 0 l0 -75 -20 0 -20 0 0 20 0 20 -20 0 -20 0 0 20 0 20 -20 0 -20 0 0 35 0 35 60 0 60 0 0 -75z m-4920 -205 l0 -20 20 0 20 0 0 -20 0 -20 20 0 20 0 0 -75 0 -75 -75 0 -75 0 0 20 0 20 -20 0 -20 0 0 20 0 20 -20 0 -20 0 0 75 0 75 75 0 75 0 0 -20z m4280 -55 l0 -75 -20 0 -20 0 0 55 0 55 -20 0 -20 0 0 20 0 20 40 0 40 0 0 -75z m150 0 l0 -75 -20 0 -20 0 0 20 0 20 -20 0 -20 0 0 15 0 15 -15 0 -15 0 0 40 0 40 55 0 55 0 0 -75z m640 55 l0 -20 15 0 15 0 0 -20 0 -20 20 0 20 0 0 -75 0 -75 -75 0 -75 0 0 20 0 20 -20 0 -20 0 0 20 0 20 -15 0 -15 0 0 75 0 75 75 0 75 0 0 -20z"/>
<path d="M2060 2420 l0 -20 -20 0 -20 0 0 -265 0 -265 75 0 75 0 0 135 0 135 20 0 20 0 0 15 0 15 20 0 20 0 0 20 0 20 880 0 880 0 0 -35 0 -35 20 0 20 0 0 -135 0 -135 75 0 75 0 0 265 0 265 -20 0 -20 0 0 20 0 20 -1050 0 -1050 0 0 -20z"/>
<path d="M3340 1425 l0 -35 15 0 15 0 0 -40 0 -40 20 0 20 0 0 -35 0 -35 40 0 40 0 0 35 0 35 -20 0 -20 0 0 40 0 40 20 0 20 0 0 -40 0 -40 15 0 15 0 0 -35 0 -35 40 0 40 0 0 35 0 35 20 0 20 0 0 -35 0 -35 35 0 35 0 0 35 0 35 -20 0 -20 0 0 40 0 40 -15 0 -15 0 0 35 0 35 -40 0 -40 0 0 -35 0 -35 -20 0 -20 0 0 35 0 35 -35 0 -35 0 0 -35 0 -35 -20 0 -20 0 0 35 0 35 -35 0 -35 0 0 -35z m260 -75 l0 -40 -20 0 -20 0 0 40 0 40 20 0 20 0 0 -40z"/>
<path d="M5700 3540 l0 -20 -20 0 -20 0 0 -225 0 -225 -410 0 -410 0 0 -990 0 -990 15 0 15 0 0 -20 0 -20 395 0 395 0 0 -190 0 -190 20 0 20 0 0 -15 0 -15 130 0 130 0 0 1385 0 1385 -130 0 -130 0 0 55 0 55 150 0 150 0 0 -1425 0 -1425 35 0 35 0 0 1445 0 1445 -185 0 -185 0 0 -20z m-410 -690 l0 -150 -60 0 -60 0 0 150 0 150 60 0 60 0 0 -150z m0 -710 l0 -150 -60 0 -60 0 0 150 0 150 60 0 60 0 0 -150z m0 -720 l0 -150 -60 0 -60 0 0 150 0 150 60 0 60 0 0 -150z"/>
</g>
<g id="layer106" fill="#c5754a" stroke="none">
<path d="M190 4440 l0 -20 -40 0 -40 0 0 -15 0 -15 -20 0 -20 0 0 -40 0 -40 -15 0 -15 0 0 -2060 0 -2060 15 0 15 0 0 -40 0 -40 20 0 20 0 0 -20 0 -20 40 0 40 0 0 -15 0 -15 2660 0 2660 0 0 15 0 15 40 0 40 0 0 20 0 20 15 0 15 0 0 40 0 40 20 0 20 0 0 225 0 225 -20 0 -20 0 0 185 0 185 -390 0 -390 0 0 20 0 20 -20 0 -20 0 0 1030 0 1030 20 0 20 0 0 40 0 40 15 0 15 0 0 15 0 15 375 0 375 0 0 170 0 170 20 0 20 0 0 375 0 375 -20 0 -20 0 0 40 0 40 -15 0 -15 0 0 15 0 15 -40 0 -40 0 0 20 0 20 -2660 0 -2660 0 0 -20z m180 -110 l0 -20 20 0 20 0 0 -20 0 -20 20 0 20 0 0 -75 0 -75 -75 0 -75 0 0 20 0 20 -20 0 -20 0 0 20 0 20 -20 0 -20 0 0 75 0 75 75 0 75 0 0 -20z m2700 -190 l0 -20 20 0 20 0 0 -505 0 -505 -20 0 -20 0 0 -35 0 -35 -15 0 -15 0 0 -20 0 -20 -525 0 -525 0 0 20 0 20 -20 0 -20 0 0 525 0 525 20 0 20 0 0 15 0 15 35 0 35 0 0 20 0 20 505 0 505 0 0 -20z m450 -165 l0 -75 -15 0 -15 0 0 55 0 55 -20 0 -20 0 0 20 0 20 35 0 35 0 0 -75z m150 0 l0 -75 -15 0 -15 0 0 20 0 20 -20 0 -20 0 0 15 0 15 -20 0 -20 0 0 40 0 40 55 0 55 0 0 -75z m-2280 15 l0 -20 15 0 15 0 0 -1780 0 -1780 -15 0 -15 0 0 -35 0 -35 -20 0 -20 0 0 -20 0 -20 -40 0 -40 0 0 -55 0 -55 -15 0 -15 0 0 -20 0 -20 -245 0 -245 0 0 20 0 20 -20 0 -20 0 0 55 0 55 -35 0 -35 0 0 20 0 20 -20 0 -20 0 0 1760 0 1760 20 0 20 0 0 20 0 20 15 0 15 0 0 35 0 35 20 0 20 0 0 20 0 20 340 0 340 0 0 -20z m2130 -275 l0 -75 -15 0 -15 0 0 55 0 55 -20 0 -20 0 0 20 0 20 35 0 35 0 0 -75z m150 55 l0 -20 -15 0 -15 0 0 -55 0 -55 -40 0 -40 0 0 75 0 75 55 0 55 0 0 -20z m-150 -325 l0 -75 -15 0 -15 0 0 60 0 60 -20 0 -20 0 0 15 0 15 35 0 35 0 0 -75z m150 60 l0 -15 -15 0 -15 0 0 -40 0 -40 -20 0 -20 0 0 20 0 20 -20 0 -20 0 0 35 0 35 55 0 55 0 0 -15z m-110 -375 l0 -20 20 0 20 0 0 -110 0 -110 -20 0 -20 0 0 55 0 55 -20 0 -20 0 0 20 0 20 20 0 20 0 0 15 0 15 -35 0 -35 0 0 -15 0 -15 -75 0 -75 0 0 35 0 35 15 0 15 0 0 20 0 20 95 0 95 0 0 -20z m300 0 l0 -20 20 0 20 0 0 -110 0 -110 -20 0 -20 0 0 55 0 55 -20 0 -20 0 0 20 0 20 20 0 20 0 0 15 0 15 -35 0 -35 0 0 -15 0 -15 -75 0 -75 0 0 35 0 35 15 0 15 0 0 20 0 20 95 0 95 0 0 -20z m300 0 l0 -20 20 0 20 0 0 -110 0 -110 -20 0 -20 0 0 55 0 55 -20 0 -20 0 0 20 0 20 20 0 20 0 0 15 0 15 -35 0 -35 0 0 -15 0 -15 -75 0 -75 0 0 35 0 35 15 0 15 0 0 20 0 20 95 0 95 0 0 -20z m80 -640 l0 -20 15 0 15 0 0 -300 0 -300 20 0 20 0 0 -375 0 -375 -20 0 -20 0 0 -355 0 -355 -15 0 -15 0 0 -20 0 -20 -20 0 -20 0 0 -15 0 -15 -20 0 -20 0 0 -20 0 -20 -1050 0 -1050 0 0 20 0 20 -20 0 -20 0 0 15 0 15 -15 0 -15 0 0 360 0 360 -20 0 -20 0 0 375 0 375 20 0 20 0 0 300 0 300 15 0 15 0 0 15 0 15 20 0 20 0 0 20 0 20 1090 0 1090 0 0 -20z m410 -1855 l0 -75 -20 0 -20 0 0 55 0 55 -20 0 -20 0 0 20 0 20 40 0 40 0 0 -75z m150 0 l0 -75 -20 0 -20 0 0 20 0 20 -20 0 -20 0 0 20 0 20 -15 0 -15 0 0 35 0 35 55 0 55 0 0 -75z m340 0 l0 -75 -20 0 -20 0 0 55 0 55 -20 0 -20 0 0 20 0 20 40 0 40 0 0 -75z m150 0 l0 -75 -20 0 -20 0 0 20 0 20 -20 0 -20 0 0 20 0 20 -20 0 -20 0 0 35 0 35 60 0 60 0 0 -75z m-4920 -205 l0 -20 20 0 20 0 0 -20 0 -20 20 0 20 0 0 -75 0 -75 -75 0 -75 0 0 20 0 20 -20 0 -20 0 0 20 0 20 -20 0 -20 0 0 75 0 75 75 0 75 0 0 -20z m4280 -55 l0 -75 -20 0 -20 0 0 55 0 55 -20 0 -20 0 0 20 0 20 40 0 40 0 0 -75z m150 0 l0 -75 -20 0 -20 0 0 20 0 20 -20 0 -20 0 0 15 0 15 -15 0 -15 0 0 40 0 40 55 0 55 0 0 -75z m640 55 l0 -20 15 0 15 0 0 -20 0 -20 20 0 20 0 0 -75 0 -75 -75 0 -75 0 0 20 0 20 -20 0 -20 0 0 20 0 20 -15 0 -15 0 0 75 0 75 75 0 75 0 0 -20z"/>
<path d="M2020 4070 l0 -20 -15 0 -15 0 0 -490 0 -490 15 0 15 0 0 -15 0 -15 490 0 490 0 0 15 0 15 20 0 20 0 0 490 0 490 -20 0 -20 0 0 20 0 20 -490 0 -490 0 0 -20z m900 -135 l0 -35 -15 0 -15 0 0 -20 0 -20 -20 0 -20 0 0 -20 0 -20 -20 0 -20 0 0 -15 0 -15 -20 0 -20 0 0 -20 0 -20 -15 0 -15 0 0 -20 0 -20 -20 0 -20 0 0 -20 0 -20 -20 0 -20 0 0 -15 0 -15 -20 0 -20 0 0 -20 0 -20 -15 0 -15 0 0 -20 0 -20 -20 0 -20 0 0 -20 0 -20 -20 0 -20 0 0 -15 0 -15 -20 0 -20 0 0 -20 0 -20 -15 0 -15 0 0 -20 0 -20 -20 0 -20 0 0 -20 0 -20 -20 0 -20 0 0 -15 0 -15 -20 0 -20 0 0 -20 0 -20 -15 0 -15 0 0 -20 0 -20 -20 0 -20 0 0 -20 0 -20 -20 0 -20 0 0 -15 0 -15 -20 0 -20 0 0 -20 0 -20 -55 0 -55 0 0 395 0 395 20 0 20 0 0 15 0 15 410 0 410 0 0 -35z m40 -730 l0 -55 -20 0 -20 0 0 -20 0 -20 -55 0 -55 0 0 20 0 20 20 0 20 0 0 20 0 20 20 0 20 0 0 15 0 15 15 0 15 0 0 20 0 20 20 0 20 0 0 -55z"/>
<path d="M790 3580 l0 -20 -20 0 -20 0 0 -1670 0 -1670 20 0 20 0 0 -15 0 -15 205 0 205 0 0 15 0 15 20 0 20 0 0 1670 0 1670 -20 0 -20 0 0 20 0 20 -95 0 -95 0 0 -190 0 -190 -20 0 -20 0 0 190 0 190 -90 0 -90 0 0 -20z m330 -1255 l0 -35 -15 0 -15 0 0 -20 0 -20 -20 0 -20 0 0 -75 0 -75 -40 0 -40 0 0 -20 0 -20 -35 0 -35 0 0 -20 0 -20 -20 0 -20 0 0 115 0 115 20 0 20 0 0 20 0 20 35 0 35 0 0 15 0 15 40 0 40 0 0 20 0 20 35 0 35 0 0 -35z m0 -300 l0 -75 -15 0 -15 0 0 -20 0 -20 -20 0 -20 0 0 -20 0 -20 -20 0 -20 0 0 -15 0 -15 -20 0 -20 0 0 -20 0 -20 -15 0 -15 0 0 -20 0 -20 -20 0 -20 0 0 -20 0 -20 -20 0 -20 0 0 40 0 40 20 0 20 0 0 20 0 20 20 0 20 0 0 15 0 15 15 0 15 0 0 20 0 20 20 0 20 0 0 20 0 20 -35 0 -35 0 0 -20 0 -20 -40 0 -40 0 0 40 0 40 40 0 40 0 0 15 0 15 35 0 35 0 0 20 0 20 40 0 40 0 0 20 0 20 15 0 15 0 0 -75z m0 -300 l0 -115 -15 0 -15 0 0 -20 0 -20 -40 0 -40 0 0 -15 0 -15 -35 0 -35 0 0 -20 0 -20 -40 0 -40 0 0 95 0 95 20 0 20 0 0 15 0 15 35 0 35 0 0 20 0 20 20 0 20 0 0 20 0 20 20 0 20 0 0 20 0 20 35 0 35 0 0 -115z"/>
<path d="M1990 1460 l0 -340 15 0 15 0 0 -355 0 -355 20 0 20 0 0 -20 0 -20 20 0 20 0 0 -15 0 -15 1010 0 1010 0 0 15 0 15 20 0 20 0 0 20 0 20 20 0 20 0 0 355 0 355 20 0 20 0 0 340 0 340 -75 0 -75 0 0 -20 0 -20 -20 0 -20 0 0 -20 0 -20 -940 0 -940 0 0 20 0 20 -15 0 -15 0 0 20 0 20 -75 0 -75 0 0 -340z m630 20 l0 -20 20 0 20 0 0 -20 0 -20 40 0 40 0 0 40 0 40 110 0 110 0 0 -20 0 -20 20 0 20 0 0 20 0 20 335 0 335 0 0 -40 0 -40 20 0 20 0 0 -35 0 -35 20 0 20 0 0 -75 0 -75 -170 0 -170 0 0 -20 0 -20 -185 0 -185 0 0 20 0 20 -20 0 -20 0 0 -20 0 -20 -205 0 -205 0 0 20 0 20 -20 0 -20 0 0 35 0 35 -20 0 -20 0 0 40 0 40 -20 0 -20 0 0 75 0 75 75 0 75 0 0 -20z m-410 -675 l0 -205 20 0 20 0 0 -20 0 -20 20 0 20 0 0 -20 0 -20 825 0 825 0 0 20 0 20 15 0 15 0 0 20 0 20 20 0 20 0 0 185 0 185 -20 0 -20 0 0 -165 0 -165 -15 0 -15 0 0 -20 0 -20 -20 0 -20 0 0 -20 0 -20 -790 0 -790 0 0 20 0 20 -15 0 -15 0 0 20 0 20 -20 0 -20 0 0 185 0 185 900 0 900 0 0 -225 0 -225 -20 0 -20 0 0 -20 0 -20 -20 0 -20 0 0 -15 0 -15 -860 0 -860 0 0 15 0 15 -20 0 -20 0 0 20 0 20 -20 0 -20 0 0 225 0 225 20 0 20 0 0 -205z"/>
</g>
<g id="layer107" fill="#f04156" stroke="none">
<path d="M2020 3990 l0 -20 -15 0 -15 0 0 -450 0 -450 15 0 15 0 0 -15 0 -15 490 0 490 0 0 15 0 15 20 0 20 0 0 20 0 20 -20 0 -20 0 0 430 0 430 -20 0 -20 0 0 20 0 20 -470 0 -470 0 0 -20z m900 -55 l0 -35 -15 0 -15 0 0 -20 0 -20 -20 0 -20 0 0 -20 0 -20 -20 0 -20 0 0 -15 0 -15 -20 0 -20 0 0 -20 0 -20 -15 0 -15 0 0 -20 0 -20 -20 0 -20 0 0 -20 0 -20 -20 0 -20 0 0 -15 0 -15 -20 0 -20 0 0 -20 0 -20 -15 0 -15 0 0 -20 0 -20 -20 0 -20 0 0 -20 0 -20 -20 0 -20 0 0 -15 0 -15 -20 0 -20 0 0 -20 0 -20 -15 0 -15 0 0 -20 0 -20 -20 0 -20 0 0 -20 0 -20 -20 0 -20 0 0 -15 0 -15 -20 0 -20 0 0 -20 0 -20 -15 0 -15 0 0 -20 0 -20 -20 0 -20 0 0 -20 0 -20 -20 0 -20 0 0 -15 0 -15 -20 0 -20 0 0 -20 0 -20 -55 0 -55 0 0 395 0 395 20 0 20 0 0 15 0 15 410 0 410 0 0 -35z m40 -730 l0 -55 -20 0 -20 0 0 -20 0 -20 -55 0 -55 0 0 20 0 20 20 0 20 0 0 20 0 20 20 0 20 0 0 15 0 15 15 0 15 0 0 20 0 20 20 0 20 0 0 -55z"/>
<path d="M790 3240 l0 -20 -20 0 -20 0 0 -1310 0 -1310 245 0 245 0 0 1310 0 1310 -20 0 -20 0 0 20 0 20 -95 0 -95 0 0 -185 0 -185 -20 0 -20 0 0 185 0 185 -90 0 -90 0 0 -20z m330 -915 l0 -35 -15 0 -15 0 0 -20 0 -20 -20 0 -20 0 0 -75 0 -75 -40 0 -40 0 0 -20 0 -20 -35 0 -35 0 0 -20 0 -20 -20 0 -20 0 0 115 0 115 20 0 20 0 0 20 0 20 35 0 35 0 0 15 0 15 40 0 40 0 0 20 0 20 35 0 35 0 0 -35z m0 -300 l0 -75 -15 0 -15 0 0 -20 0 -20 -20 0 -20 0 0 -20 0 -20 -20 0 -20 0 0 -15 0 -15 -20 0 -20 0 0 -20 0 -20 -15 0 -15 0 0 -20 0 -20 -20 0 -20 0 0 -20 0 -20 -20 0 -20 0 0 40 0 40 20 0 20 0 0 20 0 20 20 0 20 0 0 15 0 15 15 0 15 0 0 20 0 20 20 0 20 0 0 20 0 20 -35 0 -35 0 0 -20 0 -20 -40 0 -40 0 0 40 0 40 40 0 40 0 0 15 0 15 35 0 35 0 0 20 0 20 40 0 40 0 0 20 0 20 15 0 15 0 0 -75z m0 -300 l0 -115 -15 0 -15 0 0 -20 0 -20 -40 0 -40 0 0 -15 0 -15 -35 0 -35 0 0 -20 0 -20 -40 0 -40 0 0 95 0 95 20 0 20 0 0 15 0 15 35 0 35 0 0 20 0 20 20 0 20 0 0 20 0 20 20 0 20 0 0 20 0 20 35 0 35 0 0 -115z"/>
<path d="M3340 1425 l0 -35 15 0 15 0 0 -40 0 -40 20 0 20 0 0 -35 0 -35 40 0 40 0 0 35 0 35 -20 0 -20 0 0 40 0 40 20 0 20 0 0 -40 0 -40 15 0 15 0 0 -35 0 -35 40 0 40 0 0 35 0 35 -20 0 -20 0 0 40 0 40 -20 0 -20 0 0 35 0 35 -35 0 -35 0 0 -35 0 -35 -20 0 -20 0 0 35 0 35 -35 0 -35 0 0 -35z"/>
</g>
<g id="layer108" fill="#8ae25d" stroke="none">
<path d="M2020 3990 l0 -20 -15 0 -15 0 0 -450 0 -450 15 0 15 0 0 -15 0 -15 490 0 490 0 0 15 0 15 20 0 20 0 0 20 0 20 -20 0 -20 0 0 430 0 430 -20 0 -20 0 0 20 0 20 -470 0 -470 0 0 -20z m900 -55 l0 -35 -15 0 -15 0 0 -20 0 -20 -20 0 -20 0 0 -20 0 -20 -20 0 -20 0 0 -15 0 -15 -20 0 -20 0 0 -20 0 -20 -15 0 -15 0 0 -20 0 -20 -20 0 -20 0 0 -20 0 -20 -20 0 -20 0 0 -15 0 -15 -20 0 -20 0 0 -20 0 -20 -15 0 -15 0 0 -20 0 -20 -20 0 -20 0 0 -20 0 -20 -20 0 -20 0 0 -15 0 -15 -20 0 -20 0 0 -20 0 -20 -15 0 -15 0 0 -20 0 -20 -20 0 -20 0 0 -20 0 -20 -20 0 -20 0 0 -15 0 -15 -20 0 -20 0 0 -20 0 -20 -15 0 -15 0 0 -20 0 -20 -20 0 -20 0 0 -20 0 -20 -20 0 -20 0 0 -15 0 -15 -20 0 -20 0 0 -20 0 -20 -55 0 -55 0 0 395 0 395 20 0 20 0 0 15 0 15 410 0 410 0 0 -35z m40 -615 l0 -170 -20 0 -20 0 0 -20 0 -20 -55 0 -55 0 0 20 0 20 -95 0 -95 0 0 20 0 20 20 0 20 0 0 15 0 15 20 0 20 0 0 20 0 20 20 0 20 0 0 20 0 20 15 0 15 0 0 20 0 20 20 0 20 0 0 15 0 15 20 0 20 0 0 20 0 20 20 0 20 0 0 20 0 20 15 0 15 0 0 20 0 20 20 0 20 0 0 -170z"/>
<path d="M790 3240 l0 -20 -20 0 -20 0 0 -1310 0 -1310 245 0 245 0 0 1310 0 1310 -20 0 -20 0 0 20 0 20 -95 0 -95 0 0 -185 0 -185 -20 0 -20 0 0 185 0 185 -90 0 -90 0 0 -20z m330 -915 l0 -35 -15 0 -15 0 0 -20 0 -20 -20 0 -20 0 0 -75 0 -75 -40 0 -40 0 0 -20 0 -20 -35 0 -35 0 0 -20 0 -20 -20 0 -20 0 0 115 0 115 20 0 20 0 0 20 0 20 35 0 35 0 0 15 0 15 40 0 40 0 0 20 0 20 35 0 35 0 0 -35z m0 -300 l0 -75 -15 0 -15 0 0 -20 0 -20 -20 0 -20 0 0 -20 0 -20 -20 0 -20 0 0 -15 0 -15 -20 0 -20 0 0 -20 0 -20 -15 0 -15 0 0 -20 0 -20 -20 0 -20 0 0 -20 0 -20 -20 0 -20 0 0 40 0 40 20 0 20 0 0 20 0 20 20 0 20 0 0 15 0 15 15 0 15 0 0 20 0 20 20 0 20 0 0 20 0 20 -35 0 -35 0 0 -20 0 -20 -40 0 -40 0 0 40 0 40 40 0 40 0 0 15 0 15 35 0 35 0 0 20 0 20 40 0 40 0 0 20 0 20 15 0 15 0 0 -75z m0 -300 l0 -115 -15 0 -15 0 0 -20 0 -20 -40 0 -40 0 0 -15 0 -15 -35 0 -35 0 0 -20 0 -20 -40 0 -40 0 0 95 0 95 20 0 20 0 0 15 0 15 35 0 35 0 0 20 0 20 20 0 20 0 0 20 0 20 20 0 20 0 0 20 0 20 35 0 35 0 0 -115z m0 -225 l0 -40 -35 0 -35 0 0 -20 0 -20 -40 0 -40 0 0 -15 0 -15 -35 0 -35 0 0 35 0 35 35 0 35 0 0 20 0 20 40 0 40 0 0 20 0 20 35 0 35 0 0 -40z"/>
<path d="M3450 1425 l0 -35 20 0 20 0 0 -40 0 -40 15 0 15 0 0 -35 0 -35 40 0 40 0 0 35 0 35 -20 0 -20 0 0 40 0 40 -20 0 -20 0 0 35 0 35 -35 0 -35 0 0 -35z"/>
<path d="M5660 2265 l0 -1105 -395 0 -395 0 0 940 0 940 -15 0 -15 0 0 -975 0 -975 15 0 15 0 0 -20 0 -20 395 0 395 0 0 -190 0 -190 20 0 20 0 0 -15 0 -15 130 0 130 0 0 75 0 75 -130 0 -130 0 0 1290 0 1290 -20 0 -20 0 0 -1105z"/>
</g>
<g id="layer109" fill="#937ac5" stroke="none">
<path d="M190 4370 l0 -20 -40 0 -40 0 0 -40 0 -40 -35 0 -35 0 0 -2040 0 -2040 15 0 15 0 0 -40 0 -40 20 0 20 0 0 -20 0 -20 40 0 40 0 0 -15 0 -15 2660 0 2660 0 0 15 0 15 20 0 20 0 0 40 0 40 20 0 20 0 0 430 0 430 -375 0 -375 0 0 20 0 20 -20 0 -20 0 0 1030 0 1030 20 0 20 0 0 40 0 40 15 0 15 0 0 15 0 15 40 0 40 0 0 20 0 20 20 0 20 0 0 20 0 20 300 0 300 0 0 470 0 470 -20 0 -20 0 0 35 0 35 -20 0 -20 0 0 20 0 20 -35 0 -35 0 0 20 0 20 -2625 0 -2625 0 0 -20z m180 -40 l0 -20 20 0 20 0 0 -20 0 -20 20 0 20 0 0 -75 0 -75 -20 0 -20 0 0 -15 0 -15 -20 0 -20 0 0 -20 0 -20 -75 0 -75 0 0 20 0 20 -15 0 -15 0 0 15 0 15 -20 0 -20 0 0 75 0 75 20 0 20 0 0 20 0 20 15 0 15 0 0 20 0 20 75 0 75 0 0 -20z m4990 -150 l0 -20 20 0 20 0 0 -170 0 -170 -20 0 -20 0 0 -15 0 -15 -635 0 -635 0 0 15 0 15 -20 0 -20 0 0 170 0 170 20 0 20 0 0 20 0 20 635 0 635 0 0 -20z m-2290 -40 l0 -20 20 0 20 0 0 -505 0 -505 -20 0 -20 0 0 -35 0 -35 -15 0 -15 0 0 -20 0 -20 -525 0 -525 0 0 20 0 20 -20 0 -20 0 0 525 0 525 20 0 20 0 0 15 0 15 35 0 35 0 0 20 0 20 505 0 505 0 0 -20z m720 -125 l0 -75 -20 0 -20 0 0 55 0 55 -40 0 -40 0 0 -75 0 -75 -55 0 -55 0 0 75 0 75 -20 0 -20 0 0 -75 0 -75 -15 0 -15 0 0 55 0 55 -20 0 -20 0 0 -20 0 -20 -20 0 -20 0 0 40 0 40 20 0 20 0 0 20 0 20 170 0 170 0 0 -75z m-2400 -25 l0 -20 15 0 15 0 0 -1780 0 -1780 -15 0 -15 0 0 -35 0 -35 -20 0 -20 0 0 -20 0 -20 -40 0 -40 0 0 -55 0 -55 -15 0 -15 0 0 -20 0 -20 -245 0 -245 0 0 20 0 20 -20 0 -20 0 0 55 0 55 -35 0 -35 0 0 20 0 20 -20 0 -20 0 0 1760 0 1760 20 0 20 0 0 20 0 20 15 0 15 0 0 35 0 35 20 0 20 0 0 20 0 20 340 0 340 0 0 -20z m2400 -245 l0 -75 -20 0 -20 0 0 60 0 60 -40 0 -40 0 0 -20 0 -20 -15 0 -15 0 0 -55 0 -55 -40 0 -40 0 0 75 0 75 -20 0 -20 0 0 -75 0 -75 -15 0 -15 0 0 55 0 55 -20 0 -20 0 0 -20 0 -20 -20 0 -20 0 0 40 0 40 20 0 20 0 0 15 0 15 170 0 170 0 0 -75z m0 -260 l0 -75 -20 0 -20 0 0 55 0 55 -40 0 -40 0 0 -15 0 -15 -15 0 -15 0 0 -60 0 -60 -40 0 -40 0 0 75 0 75 -20 0 -20 0 0 -75 0 -75 -15 0 -15 0 0 60 0 60 -20 0 -20 0 0 -20 0 -20 -20 0 -20 0 0 35 0 35 20 0 20 0 0 20 0 20 170 0 170 0 0 -75z m-150 -315 l0 -20 55 0 55 0 0 20 0 20 95 0 95 0 0 -20 0 -20 55 0 55 0 0 20 0 20 95 0 95 0 0 -20 0 -20 15 0 15 0 0 -115 0 -115 -15 0 -15 0 0 -15 0 -15 -40 0 -40 0 0 55 0 55 -20 0 -20 0 0 20 0 20 20 0 20 0 0 15 0 15 -35 0 -35 0 0 -15 0 -15 -75 0 -75 0 0 -75 0 -75 -40 0 -40 0 0 55 0 55 -20 0 -20 0 0 20 0 20 20 0 20 0 0 15 0 15 -35 0 -35 0 0 -15 0 -15 -75 0 -75 0 0 -75 0 -75 -40 0 -40 0 0 55 0 55 -20 0 -20 0 0 20 0 20 20 0 20 0 0 15 0 15 -35 0 -35 0 0 -15 0 -15 -75 0 -75 0 0 35 0 35 15 0 15 0 0 20 0 20 40 0 40 0 0 20 0 20 95 0 95 0 0 -20z m600 -680 l0 -20 15 0 15 0 0 -300 0 -300 20 0 20 0 0 -375 0 -375 -20 0 -20 0 0 -355 0 -355 -15 0 -15 0 0 -20 0 -20 -20 0 -20 0 0 -15 0 -15 -20 0 -20 0 0 -20 0 -20 -1050 0 -1050 0 0 20 0 20 -20 0 -20 0 0 15 0 15 -15 0 -15 0 0 360 0 360 -20 0 -20 0 0 375 0 375 20 0 20 0 0 300 0 300 15 0 15 0 0 15 0 15 20 0 20 0 0 20 0 20 1090 0 1090 0 0 -20z m670 -1815 l0 -75 -20 0 -20 0 0 55 0 55 -35 0 -35 0 0 -75 0 -75 -55 0 -55 0 0 75 0 75 -20 0 -20 0 0 -75 0 -75 -20 0 -20 0 0 55 0 55 -20 0 -20 0 0 -15 0 -15 -15 0 -15 0 0 35 0 35 15 0 15 0 0 20 0 20 170 0 170 0 0 -75z m490 0 l0 -75 -20 0 -20 0 0 55 0 55 -35 0 -35 0 0 -75 0 -75 -60 0 -60 0 0 75 0 75 -15 0 -15 0 0 -75 0 -75 -20 0 -20 0 0 55 0 55 -20 0 -20 0 0 -15 0 -15 -20 0 -20 0 0 35 0 35 20 0 20 0 0 20 0 20 170 0 170 0 0 -75z m-490 -260 l0 -75 -20 0 -20 0 0 55 0 55 -35 0 -35 0 0 -75 0 -75 -55 0 -55 0 0 75 0 75 -20 0 -20 0 0 -75 0 -75 -20 0 -20 0 0 55 0 55 -20 0 -20 0 0 -20 0 -20 -15 0 -15 0 0 40 0 40 15 0 15 0 0 20 0 20 170 0 170 0 0 -75z m-4540 15 l0 -20 20 0 20 0 0 -20 0 -20 20 0 20 0 0 -75 0 -75 -20 0 -20 0 0 -15 0 -15 -20 0 -20 0 0 -20 0 -20 -75 0 -75 0 0 20 0 20 -15 0 -15 0 0 15 0 15 -20 0 -20 0 0 75 0 75 20 0 20 0 0 20 0 20 15 0 15 0 0 20 0 20 75 0 75 0 0 -20z m5070 0 l0 -20 15 0 15 0 0 -20 0 -20 20 0 20 0 0 -75 0 -75 -20 0 -20 0 0 -15 0 -15 -15 0 -15 0 0 -20 0 -20 -75 0 -75 0 0 20 0 20 -20 0 -20 0 0 15 0 15 -20 0 -20 0 0 75 0 75 20 0 20 0 0 20 0 20 20 0 20 0 0 20 0 20 75 0 75 0 0 -20z"/>
<path d="M670 3730 l0 -20 -15 0 -15 0 0 -1670 0 -1670 15 0 15 0 0 -15 0 -15 20 0 20 0 0 1630 0 1630 20 0 20 0 0 20 0 20 245 0 245 0 0 -20 0 -20 15 0 15 0 0 -1630 0 -1630 20 0 20 0 0 15 0 15 20 0 20 0 0 1670 0 1670 -20 0 -20 0 0 20 0 20 -320 0 -320 0 0 -20z"/>
<path d="M2100 2340 l0 -20 -20 0 -20 0 0 -15 0 -15 -20 0 -20 0 0 -210 0 -210 75 0 75 0 0 135 0 135 20 0 20 0 0 15 0 15 20 0 20 0 0 20 0 20 880 0 880 0 0 -35 0 -35 20 0 20 0 0 -135 0 -135 75 0 75 0 0 210 0 210 -20 0 -20 0 0 15 0 15 -20 0 -20 0 0 20 0 20 -1010 0 -1010 0 0 -20z"/>
<path d="M3450 2005 l0 -95 55 0 55 0 0 55 0 55 -35 0 -35 0 0 40 0 40 -20 0 -20 0 0 -95z m70 -35 l0 -20 -15 0 -15 0 0 20 0 20 15 0 15 0 0 -20z"/>
<path d="M3640 2080 l0 -20 -20 0 -20 0 0 -75 0 -75 20 0 20 0 0 55 0 55 15 0 15 0 0 -55 0 -55 20 0 20 0 0 75 0 75 -20 0 -20 0 0 20 0 20 -15 0 -15 0 0 -20z"/>
<path d="M3750 2005 l0 -95 55 0 55 0 0 95 0 95 -55 0 -55 0 0 -95z m70 35 l0 -20 -15 0 -15 0 0 20 0 20 15 0 15 0 0 -20z m0 -70 l0 -20 -15 0 -15 0 0 20 0 20 15 0 15 0 0 -20z"/>
<path d="M2210 1950 l0 -110 20 0 20 0 0 110 0 110 -20 0 -20 0 0 -110z"/>
<path d="M1990 1420 l0 -300 15 0 15 0 0 -355 0 -355 20 0 20 0 0 -20 0 -20 20 0 20 0 0 -15 0 -15 1010 0 1010 0 0 15 0 15 20 0 20 0 0 20 0 20 20 0 20 0 0 355 0 355 20 0 20 0 0 300 0 300 -60 0 -60 0 0 -15 0 -15 -15 0 -15 0 0 -20 0 -20 -975 0 -975 0 0 20 0 20 -20 0 -20 0 0 15 0 15 -55 0 -55 0 0 -300z m1800 100 l0 -20 15 0 15 0 0 -170 0 -170 -15 0 -15 0 0 -20 0 -20 -675 0 -675 0 0 20 0 20 -20 0 -20 0 0 170 0 170 20 0 20 0 0 20 0 20 675 0 675 0 0 -20z m-1540 -170 l0 -40 35 0 35 0 0 -20 0 -20 -55 0 -55 0 0 60 0 60 20 0 20 0 0 -40z m1690 0 l0 -40 35 0 35 0 0 -20 0 -20 -55 0 -55 0 0 60 0 60 20 0 20 0 0 -40z m-1730 -545 l0 -205 20 0 20 0 0 -20 0 -20 20 0 20 0 0 -20 0 -20 825 0 825 0 0 20 0 20 15 0 15 0 0 20 0 20 20 0 20 0 0 185 0 185 -20 0 -20 0 0 -165 0 -165 -15 0 -15 0 0 -20 0 -20 -20 0 -20 0 0 -20 0 -20 -790 0 -790 0 0 20 0 20 -15 0 -15 0 0 20 0 20 -20 0 -20 0 0 185 0 185 900 0 900 0 0 -225 0 -225 -20 0 -20 0 0 -20 0 -20 -20 0 -20 0 0 -15 0 -15 -860 0 -860 0 0 15 0 15 -20 0 -20 0 0 20 0 20 -20 0 -20 0 0 225 0 225 20 0 20 0 0 -205z"/>
<path d="M5700 3540 l0 -20 150 0 150 0 0 -1425 0 -1425 35 0 35 0 0 1445 0 1445 -185 0 -185 0 0 -20z"/>
<path d="M6110 3355 l0 -95 75 0 75 0 0 95 0 95 -75 0 -75 0 0 -95z"/>
<path d="M6110 3000 l0 -110 205 0 205 0 0 90 0 90 -15 0 -15 0 0 20 0 20 -190 0 -190 0 0 -110z"/>
<path d="M6110 2080 l0 -770 205 0 205 0 0 770 0 770 -205 0 -205 0 0 -770z"/>
<path d="M6110 1160 l0 -110 190 0 190 0 0 20 0 20 15 0 15 0 0 90 0 90 -205 0 -205 0 0 -110z"/>
<path d="M6110 805 l0 -95 75 0 75 0 0 95 0 95 -75 0 -75 0 0 -95z"/>
</g>
<g id="layer110" fill="#f2a759" stroke="none">
<path d="M190 4370 l0 -20 -40 0 -40 0 0 -40 0 -40 -35 0 -35 0 0 -2040 0 -2040 15 0 15 0 0 -40 0 -40 20 0 20 0 0 -20 0 -20 40 0 40 0 0 -15 0 -15 2660 0 2660 0 0 15 0 15 20 0 20 0 0 40 0 40 20 0 20 0 0 430 0 430 -375 0 -375 0 0 20 0 20 -20 0 -20 0 0 1030 0 1030 20 0 20 0 0 40 0 40 15 0 15 0 0 15 0 15 40 0 40 0 0 20 0 20 20 0 20 0 0 20 0 20 300 0 300 0 0 470 0 470 -20 0 -20 0 0 35 0 35 -20 0 -20 0 0 20 0 20 -35 0 -35 0 0 20 0 20 -2625 0 -2625 0 0 -20z m180 -40 l0 -20 20 0 20 0 0 -20 0 -20 20 0 20 0 0 -75 0 -75 -20 0 -20 0 0 -15 0 -15 -20 0 -20 0 0 -20 0 -20 -75 0 -75 0 0 20 0 20 -15 0 -15 0 0 15 0 15 -20 0 -20 0 0 75 0 75 20 0 20 0 0 20 0 20 15 0 15 0 0 20 0 20 75 0 75 0 0 -20z m4990 -150 l0 -20 20 0 20 0 0 -170 0 -170 -20 0 -20 0 0 -15 0 -15 -635 0 -635 0 0 15 0 15 -20 0 -20 0 0 170 0 170 20 0 20 0 0 20 0 20 635 0 635 0 0 -20z m-2290 -40 l0 -20 20 0 20 0 0 -505 0 -505 -20 0 -20 0 0 -35 0 -35 -15 0 -15 0 0 -20 0 -20 -525 0 -525 0 0 20 0 20 -20 0 -20 0 0 525 0 525 20 0 20 0 0 15 0 15 35 0 35 0 0 20 0 20 505 0 505 0 0 -20z m720 -125 l0 -75 -20 0 -20 0 0 15 0 15 -20 0 -20 0 0 20 0 20 -20 0 -20 0 0 -55 0 -55 -55 0 -55 0 0 35 0 35 -20 0 -20 0 0 -35 0 -35 -15 0 -15 0 0 55 0 55 -20 0 -20 0 0 -20 0 -20 -20 0 -20 0 0 40 0 40 20 0 20 0 0 20 0 20 170 0 170 0 0 -75z m-2400 -25 l0 -20 15 0 15 0 0 -1780 0 -1780 -15 0 -15 0 0 -35 0 -35 -20 0 -20 0 0 -20 0 -20 -40 0 -40 0 0 -55 0 -55 -15 0 -15 0 0 -20 0 -20 -245 0 -245 0 0 20 0 20 -20 0 -20 0 0 55 0 55 -35 0 -35 0 0 20 0 20 -20 0 -20 0 0 1760 0 1760 20 0 20 0 0 20 0 20 15 0 15 0 0 35 0 35 20 0 20 0 0 20 0 20 340 0 340 0 0 -20z m2400 -245 l0 -75 -20 0 -20 0 0 20 0 20 -20 0 -20 0 0 20 0 20 -35 0 -35 0 0 -55 0 -55 -40 0 -40 0 0 35 0 35 -20 0 -20 0 0 -35 0 -35 -15 0 -15 0 0 55 0 55 -20 0 -20 0 0 -20 0 -20 -20 0 -20 0 0 40 0 40 20 0 20 0 0 15 0 15 170 0 170 0 0 -75z m0 -260 l0 -75 -20 0 -20 0 0 20 0 20 -20 0 -20 0 0 20 0 20 -35 0 -35 0 0 -60 0 -60 -40 0 -40 0 0 40 0 40 -20 0 -20 0 0 -40 0 -40 -15 0 -15 0 0 60 0 60 -20 0 -20 0 0 -20 0 -20 -20 0 -20 0 0 35 0 35 20 0 20 0 0 20 0 20 170 0 170 0 0 -75z m-150 -315 l0 -20 55 0 55 0 0 20 0 20 95 0 95 0 0 -20 0 -20 55 0 55 0 0 20 0 20 95 0 95 0 0 -20 0 -20 15 0 15 0 0 -115 0 -115 -15 0 -15 0 0 -15 0 -15 -40 0 -40 0 0 55 0 55 -20 0 -20 0 0 20 0 20 20 0 20 0 0 15 0 15 -35 0 -35 0 0 -15 0 -15 -75 0 -75 0 0 -75 0 -75 -40 0 -40 0 0 55 0 55 -20 0 -20 0 0 20 0 20 20 0 20 0 0 15 0 15 -35 0 -35 0 0 -15 0 -15 -75 0 -75 0 0 -75 0 -75 -40 0 -40 0 0 55 0 55 -20 0 -20 0 0 20 0 20 20 0 20 0 0 15 0 15 -35 0 -35 0 0 -15 0 -15 -75 0 -75 0 0 35 0 35 15 0 15 0 0 20 0 20 40 0 40 0 0 20 0 20 95 0 95 0 0 -20z m600 -680 l0 -20 15 0 15 0 0 -300 0 -300 20 0 20 0 0 -375 0 -375 -20 0 -20 0 0 -355 0 -355 -15 0 -15 0 0 -20 0 -20 -20 0 -20 0 0 -15 0 -15 -20 0 -20 0 0 -20 0 -20 -1050 0 -1050 0 0 20 0 20 -20 0 -20 0 0 15 0 15 -15 0 -15 0 0 360 0 360 -20 0 -20 0 0 375 0 375 20 0 20 0 0 300 0 300 15 0 15 0 0 15 0 15 20 0 20 0 0 20 0 20 1090 0 1090 0 0 -20z m670 -1815 l0 -75 -20 0 -20 0 0 20 0 20 -15 0 -15 0 0 15 0 15 -20 0 -20 0 0 -55 0 -55 -55 0 -55 0 0 40 0 40 -20 0 -20 0 0 -40 0 -40 -20 0 -20 0 0 55 0 55 -20 0 -20 0 0 -15 0 -15 -15 0 -15 0 0 35 0 35 15 0 15 0 0 20 0 20 170 0 170 0 0 -75z m490 0 l0 -75 -20 0 -20 0 0 20 0 20 -20 0 -20 0 0 15 0 15 -15 0 -15 0 0 -55 0 -55 -60 0 -60 0 0 40 0 40 -15 0 -15 0 0 -40 0 -40 -20 0 -20 0 0 55 0 55 -20 0 -20 0 0 -15 0 -15 -20 0 -20 0 0 35 0 35 20 0 20 0 0 20 0 20 170 0 170 0 0 -75z m-490 -260 l0 -75 -20 0 -20 0 0 15 0 15 -15 0 -15 0 0 20 0 20 -20 0 -20 0 0 -55 0 -55 -55 0 -55 0 0 35 0 35 -20 0 -20 0 0 -35 0 -35 -20 0 -20 0 0 55 0 55 -20 0 -20 0 0 -20 0 -20 -15 0 -15 0 0 40 0 40 15 0 15 0 0 20 0 20 170 0 170 0 0 -75z m-4540 15 l0 -20 20 0 20 0 0 -20 0 -20 20 0 20 0 0 -75 0 -75 -20 0 -20 0 0 -15 0 -15 -20 0 -20 0 0 -20 0 -20 -75 0 -75 0 0 20 0 20 -15 0 -15 0 0 15 0 15 -20 0 -20 0 0 75 0 75 20 0 20 0 0 20 0 20 15 0 15 0 0 20 0 20 75 0 75 0 0 -20z m5070 0 l0 -20 15 0 15 0 0 -20 0 -20 20 0 20 0 0 -75 0 -75 -20 0 -20 0 0 -15 0 -15 -15 0 -15 0 0 -20 0 -20 -75 0 -75 0 0 20 0 20 -20 0 -20 0 0 15 0 15 -20 0 -20 0 0 75 0 75 20 0 20 0 0 20 0 20 20 0 20 0 0 20 0 20 75 0 75 0 0 -20z"/>
<path d="M2020 3990 l0 -20 -15 0 -15 0 0 -450 0 -450 15 0 15 0 0 -15 0 -15 490 0 490 0 0 15 0 15 20 0 20 0 0 20 0 20 -20 0 -20 0 0 430 0 430 -20 0 -20 0 0 20 0 20 -470 0 -470 0 0 -20z m900 -55 l0 -35 -15 0 -15 0 0 -20 0 -20 -20 0 -20 0 0 -20 0 -20 -20 0 -20 0 0 -15 0 -15 -20 0 -20 0 0 -20 0 -20 -15 0 -15 0 0 -20 0 -20 -20 0 -20 0 0 -20 0 -20 -20 0 -20 0 0 -15 0 -15 -20 0 -20 0 0 -20 0 -20 -15 0 -15 0 0 -20 0 -20 -20 0 -20 0 0 -20 0 -20 -20 0 -20 0 0 -15 0 -15 -20 0 -20 0 0 -20 0 -20 -15 0 -15 0 0 -20 0 -20 -20 0 -20 0 0 -20 0 -20 -20 0 -20 0 0 -15 0 -15 -20 0 -20 0 0 -20 0 -20 -15 0 -15 0 0 -20 0 -20 -20 0 -20 0 0 -20 0 -20 -20 0 -20 0 0 -15 0 -15 -20 0 -20 0 0 -20 0 -20 95 0 95 0 0 -20 0 -20 -110 0 -110 0 0 20 0 20 -40 0 -40 0 0 395 0 395 20 0 20 0 0 15 0 15 410 0 410 0 0 -35z m40 -505 l0 -280 -20 0 -20 0 0 -20 0 -20 -55 0 -55 0 0 20 0 20 -205 0 -205 0 0 20 0 20 20 0 20 0 0 15 0 15 15 0 15 0 0 20 0 20 20 0 20 0 0 20 0 20 20 0 20 0 0 20 0 20 20 0 20 0 0 15 0 15 15 0 15 0 0 20 0 20 20 0 20 0 0 20 0 20 20 0 20 0 0 20 0 20 20 0 20 0 0 15 0 15 15 0 15 0 0 20 0 20 20 0 20 0 0 20 0 20 20 0 20 0 0 20 0 20 20 0 20 0 0 15 0 15 15 0 15 0 0 20 0 20 20 0 20 0 0 -280z"/>
<path d="M790 3240 l0 -20 -20 0 -20 0 0 -1310 0 -1310 245 0 245 0 0 1310 0 1310 -20 0 -20 0 0 20 0 20 -95 0 -95 0 0 -185 0 -185 -20 0 -20 0 0 185 0 185 -90 0 -90 0 0 -20z m330 -915 l0 -35 -15 0 -15 0 0 -20 0 -20 -20 0 -20 0 0 -75 0 -75 -40 0 -40 0 0 -20 0 -20 -35 0 -35 0 0 -20 0 -20 -20 0 -20 0 0 115 0 115 20 0 20 0 0 20 0 20 35 0 35 0 0 15 0 15 40 0 40 0 0 20 0 20 35 0 35 0 0 -35z m0 -300 l0 -75 -15 0 -15 0 0 -20 0 -20 -20 0 -20 0 0 -20 0 -20 -20 0 -20 0 0 -15 0 -15 -20 0 -20 0 0 -20 0 -20 -15 0 -15 0 0 -20 0 -20 -20 0 -20 0 0 -20 0 -20 -20 0 -20 0 0 40 0 40 20 0 20 0 0 20 0 20 20 0 20 0 0 15 0 15 15 0 15 0 0 20 0 20 20 0 20 0 0 20 0 20 -35 0 -35 0 0 -20 0 -20 -40 0 -40 0 0 40 0 40 40 0 40 0 0 15 0 15 35 0 35 0 0 20 0 20 40 0 40 0 0 20 0 20 15 0 15 0 0 -75z m0 -300 l0 -115 -15 0 -15 0 0 -20 0 -20 -40 0 -40 0 0 -15 0 -15 -35 0 -35 0 0 -20 0 -20 -40 0 -40 0 0 95 0 95 20 0 20 0 0 15 0 15 35 0 35 0 0 20 0 20 20 0 20 0 0 20 0 20 20 0 20 0 0 20 0 20 35 0 35 0 0 -115z m0 -225 l0 -40 -35 0 -35 0 0 -20 0 -20 -40 0 -40 0 0 -15 0 -15 -35 0 -35 0 0 35 0 35 35 0 35 0 0 20 0 20 40 0 40 0 0 20 0 20 35 0 35 0 0 -40z m0 -115 l0 -35 -35 0 -35 0 0 -20 0 -20 -40 0 -40 0 0 -20 0 -20 -35 0 -35 0 0 40 0 40 35 0 35 0 0 20 0 20 40 0 40 0 0 15 0 15 35 0 35 0 0 -35z"/>
<path d="M750 390 l0 -170 20 0 20 0 0 -15 0 -15 90 0 90 0 0 185 0 185 -110 0 -110 0 0 -170z"/>
<path d="M1010 375 l0 -185 95 0 95 0 0 15 0 15 20 0 20 0 0 170 0 170 -115 0 -115 0 0 -185z"/>
<path d="M1990 1420 l0 -300 15 0 15 0 0 -15 0 -15 40 0 40 0 0 -20 0 -20 20 0 20 0 0 -20 0 -20 975 0 975 0 0 20 0 20 15 0 15 0 0 20 0 20 40 0 40 0 0 15 0 15 20 0 20 0 0 300 0 300 -60 0 -60 0 0 -15 0 -15 -15 0 -15 0 0 -20 0 -20 -975 0 -975 0 0 20 0 20 -20 0 -20 0 0 15 0 15 -55 0 -55 0 0 -300z m1800 100 l0 -20 15 0 15 0 0 -170 0 -170 -15 0 -15 0 0 -20 0 -20 -675 0 -675 0 0 20 0 20 -20 0 -20 0 0 170 0 170 20 0 20 0 0 20 0 20 675 0 675 0 0 -20z m-1540 -170 l0 -40 35 0 35 0 0 -20 0 -20 -55 0 -55 0 0 60 0 60 20 0 20 0 0 -40z m1690 0 l0 -40 35 0 35 0 0 -20 0 -20 -55 0 -55 0 0 60 0 60 20 0 20 0 0 -40z"/>
<path d="M2020 635 l0 -225 20 0 20 0 0 -20 0 -20 20 0 20 0 0 -15 0 -15 1010 0 1010 0 0 15 0 15 20 0 20 0 0 20 0 20 20 0 20 0 0 40 0 40 -20 0 -20 0 0 -20 0 -20 -20 0 -20 0 0 -20 0 -20 -15 0 -15 0 0 -20 0 -20 -975 0 -975 0 0 20 0 20 -20 0 -20 0 0 20 0 20 -20 0 -20 0 0 205 0 205 -20 0 -20 0 0 -225z"/>
</g>
<g id="layer111" fill="#3cc2fa" stroke="none">
<path d="M190 4370 l0 -20 -40 0 -40 0 0 -40 0 -40 -35 0 -35 0 0 -2040 0 -2040 15 0 15 0 0 -40 0 -40 20 0 20 0 0 -20 0 -20 40 0 40 0 0 -15 0 -15 2660 0 2660 0 0 15 0 15 20 0 20 0 0 40 0 40 20 0 20 0 0 430 0 430 -375 0 -375 0 0 20 0 20 -20 0 -20 0 0 1030 0 1030 20 0 20 0 0 40 0 40 15 0 15 0 0 15 0 15 40 0 40 0 0 20 0 20 20 0 20 0 0 20 0 20 300 0 300 0 0 470 0 470 -20 0 -20 0 0 35 0 35 -20 0 -20 0 0 20 0 20 -35 0 -35 0 0 20 0 20 -2625 0 -2625 0 0 -20z m180 -40 l0 -20 20 0 20 0 0 -20 0 -20 20 0 20 0 0 -75 0 -75 -20 0 -20 0 0 -15 0 -15 -20 0 -20 0 0 -20 0 -20 -75 0 -75 0 0 20 0 20 -15 0 -15 0 0 15 0 15 -20 0 -20 0 0 75 0 75 20 0 20 0 0 20 0 20 15 0 15 0 0 20 0 20 75 0 75 0 0 -20z m4990 -150 l0 -20 20 0 20 0 0 -170 0 -170 -20 0 -20 0 0 -15 0 -15 -635 0 -635 0 0 15 0 15 -20 0 -20 0 0 170 0 170 20 0 20 0 0 20 0 20 635 0 635 0 0 -20z m-2290 -40 l0 -20 20 0 20 0 0 -505 0 -505 -20 0 -20 0 0 -35 0 -35 -15 0 -15 0 0 -20 0 -20 -525 0 -525 0 0 20 0 20 -20 0 -20 0 0 525 0 525 20 0 20 0 0 15 0 15 35 0 35 0 0 20 0 20 505 0 505 0 0 -20z m720 -125 l0 -75 -20 0 -20 0 0 15 0 15 -20 0 -20 0 0 -15 0 -15 -20 0 -20 0 0 -20 0 -20 -55 0 -55 0 0 35 0 35 -20 0 -20 0 0 -35 0 -35 -15 0 -15 0 0 55 0 55 -20 0 -20 0 0 -20 0 -20 -20 0 -20 0 0 40 0 40 20 0 20 0 0 20 0 20 170 0 170 0 0 -75z m-2400 -25 l0 -20 15 0 15 0 0 -1780 0 -1780 -15 0 -15 0 0 -35 0 -35 -20 0 -20 0 0 -20 0 -20 -40 0 -40 0 0 -55 0 -55 -15 0 -15 0 0 -20 0 -20 -245 0 -245 0 0 20 0 20 -20 0 -20 0 0 55 0 55 -35 0 -35 0 0 20 0 20 -20 0 -20 0 0 1760 0 1760 20 0 20 0 0 20 0 20 15 0 15 0 0 35 0 35 20 0 20 0 0 20 0 20 340 0 340 0 0 -20z m2400 -245 l0 -75 -20 0 -20 0 0 20 0 20 -55 0 -55 0 0 -35 0 -35 -40 0 -40 0 0 35 0 35 -20 0 -20 0 0 -35 0 -35 -15 0 -15 0 0 55 0 55 -20 0 -20 0 0 -20 0 -20 -20 0 -20 0 0 40 0 40 20 0 20 0 0 15 0 15 170 0 170 0 0 -75z m0 -260 l0 -75 -20 0 -20 0 0 20 0 20 -55 0 -55 0 0 -40 0 -40 -40 0 -40 0 0 40 0 40 -20 0 -20 0 0 -40 0 -40 -15 0 -15 0 0 60 0 60 -20 0 -20 0 0 -20 0 -20 -20 0 -20 0 0 35 0 35 20 0 20 0 0 20 0 20 170 0 170 0 0 -75z m-150 -315 l0 -20 55 0 55 0 0 20 0 20 95 0 95 0 0 -20 0 -20 55 0 55 0 0 20 0 20 95 0 95 0 0 -20 0 -20 15 0 15 0 0 -115 0 -115 -15 0 -15 0 0 -15 0 -15 -40 0 -40 0 0 55 0 55 -20 0 -20 0 0 20 0 20 20 0 20 0 0 15 0 15 -35 0 -35 0 0 -15 0 -15 -75 0 -75 0 0 -75 0 -75 -40 0 -40 0 0 55 0 55 -20 0 -20 0 0 20 0 20 20 0 20 0 0 15 0 15 -35 0 -35 0 0 -15 0 -15 -75 0 -75 0 0 -75 0 -75 -40 0 -40 0 0 55 0 55 -20 0 -20 0 0 20 0 20 20 0 20 0 0 15 0 15 -35 0 -35 0 0 -15 0 -15 -75 0 -75 0 0 35 0 35 15 0 15 0 0 20 0 20 40 0 40 0 0 20 0 20 95 0 95 0 0 -20z m600 -680 l0 -20 15 0 15 0 0 -300 0 -300 20 0 20 0 0 -375 0 -375 -20 0 -20 0 0 -355 0 -355 -15 0 -15 0 0 -20 0 -20 -20 0 -20 0 0 -15 0 -15 -20 0 -20 0 0 -20 0 -20 -1050 0 -1050 0 0 20 0 20 -20 0 -20 0 0 15 0 15 -15 0 -15 0 0 360 0 360 -20 0 -20 0 0 375 0 375 20 0 20 0 0 300 0 300 15 0 15 0 0 15 0 15 20 0 20 0 0 20 0 20 1090 0 1090 0 0 -20z m670 -1815 l0 -75 -20 0 -20 0 0 20 0 20 -15 0 -15 0 0 -20 0 -20 -20 0 -20 0 0 -20 0 -20 -55 0 -55 0 0 40 0 40 -20 0 -20 0 0 -40 0 -40 -20 0 -20 0 0 55 0 55 -20 0 -20 0 0 -15 0 -15 -15 0 -15 0 0 35 0 35 15 0 15 0 0 20 0 20 170 0 170 0 0 -75z m490 0 l0 -75 -20 0 -20 0 0 20 0 20 -20 0 -20 0 0 -20 0 -20 -15 0 -15 0 0 -20 0 -20 -60 0 -60 0 0 40 0 40 -15 0 -15 0 0 -40 0 -40 -20 0 -20 0 0 55 0 55 -20 0 -20 0 0 -15 0 -15 -20 0 -20 0 0 35 0 35 20 0 20 0 0 20 0 20 170 0 170 0 0 -75z m-490 -260 l0 -75 -20 0 -20 0 0 15 0 15 -15 0 -15 0 0 -15 0 -15 -20 0 -20 0 0 -20 0 -20 -55 0 -55 0 0 35 0 35 -20 0 -20 0 0 -35 0 -35 -20 0 -20 0 0 55 0 55 -20 0 -20 0 0 -20 0 -20 -15 0 -15 0 0 40 0 40 15 0 15 0 0 20 0 20 170 0 170 0 0 -75z m-4540 15 l0 -20 20 0 20 0 0 -20 0 -20 20 0 20 0 0 -75 0 -75 -20 0 -20 0 0 -15 0 -15 -20 0 -20 0 0 -20 0 -20 -75 0 -75 0 0 20 0 20 -15 0 -15 0 0 15 0 15 -20 0 -20 0 0 75 0 75 20 0 20 0 0 20 0 20 15 0 15 0 0 20 0 20 75 0 75 0 0 -20z m5070 0 l0 -20 15 0 15 0 0 -20 0 -20 20 0 20 0 0 -75 0 -75 -20 0 -20 0 0 -15 0 -15 -15 0 -15 0 0 -20 0 -20 -75 0 -75 0 0 20 0 20 -20 0 -20 0 0 15 0 15 -20 0 -20 0 0 75 0 75 20 0 20 0 0 20 0 20 20 0 20 0 0 20 0 20 75 0 75 0 0 -20z"/>
<path d="M2920 3920 l0 -20 -15 0 -15 0 0 -20 0 -20 -20 0 -20 0 0 -20 0 -20 -20 0 -20 0 0 -15 0 -15 -20 0 -20 0 0 -20 0 -20 -15 0 -15 0 0 -20 0 -20 -20 0 -20 0 0 -20 0 -20 -20 0 -20 0 0 -15 0 -15 -20 0 -20 0 0 -20 0 -20 -15 0 -15 0 0 -20 0 -20 -20 0 -20 0 0 -20 0 -20 -20 0 -20 0 0 -15 0 -15 -20 0 -20 0 0 -20 0 -20 -15 0 -15 0 0 -20 0 -20 -20 0 -20 0 0 -20 0 -20 -20 0 -20 0 0 -15 0 -15 -20 0 -20 0 0 -20 0 -20 -15 0 -15 0 0 -20 0 -20 -20 0 -20 0 0 -20 0 -20 -20 0 -20 0 0 -15 0 -15 -20 0 -20 0 0 -20 0 -20 95 0 95 0 0 -20 0 -20 225 0 225 0 0 20 0 20 -205 0 -205 0 0 20 0 20 20 0 20 0 0 15 0 15 15 0 15 0 0 20 0 20 20 0 20 0 0 20 0 20 20 0 20 0 0 20 0 20 20 0 20 0 0 15 0 15 15 0 15 0 0 20 0 20 20 0 20 0 0 20 0 20 20 0 20 0 0 20 0 20 20 0 20 0 0 15 0 15 15 0 15 0 0 20 0 20 20 0 20 0 0 20 0 20 20 0 20 0 0 20 0 20 20 0 20 0 0 15 0 15 15 0 15 0 0 20 0 20 20 0 20 0 0 115 0 115 -20 0 -20 0 0 -20z"/>
<path d="M750 1930 l0 -1290 245 0 245 0 0 1125 0 1125 -210 0 -210 0 0 165 0 165 -35 0 -35 0 0 -1290z m370 395 l0 -35 -15 0 -15 0 0 -20 0 -20 -20 0 -20 0 0 -75 0 -75 -40 0 -40 0 0 -20 0 -20 -35 0 -35 0 0 -20 0 -20 -20 0 -20 0 0 115 0 115 20 0 20 0 0 20 0 20 35 0 35 0 0 15 0 15 40 0 40 0 0 20 0 20 35 0 35 0 0 -35z m0 -300 l0 -75 -15 0 -15 0 0 -20 0 -20 -20 0 -20 0 0 -20 0 -20 -20 0 -20 0 0 -15 0 -15 -20 0 -20 0 0 -20 0 -20 -15 0 -15 0 0 -20 0 -20 -20 0 -20 0 0 -20 0 -20 -20 0 -20 0 0 40 0 40 20 0 20 0 0 20 0 20 20 0 20 0 0 15 0 15 15 0 15 0 0 20 0 20 20 0 20 0 0 20 0 20 -35 0 -35 0 0 -20 0 -20 -40 0 -40 0 0 40 0 40 40 0 40 0 0 15 0 15 35 0 35 0 0 20 0 20 40 0 40 0 0 20 0 20 15 0 15 0 0 -75z m0 -300 l0 -115 -15 0 -15 0 0 -20 0 -20 -40 0 -40 0 0 -15 0 -15 -35 0 -35 0 0 -20 0 -20 -40 0 -40 0 0 95 0 95 20 0 20 0 0 15 0 15 35 0 35 0 0 20 0 20 20 0 20 0 0 20 0 20 20 0 20 0 0 20 0 20 35 0 35 0 0 -115z m0 -225 l0 -40 -35 0 -35 0 0 -20 0 -20 -40 0 -40 0 0 -15 0 -15 -35 0 -35 0 0 35 0 35 35 0 35 0 0 20 0 20 40 0 40 0 0 20 0 20 35 0 35 0 0 -40z m0 -115 l0 -35 -35 0 -35 0 0 -20 0 -20 -40 0 -40 0 0 -20 0 -20 -35 0 -35 0 0 40 0 40 35 0 35 0 0 20 0 20 40 0 40 0 0 15 0 15 35 0 35 0 0 -35z"/>
</g>
<g id="layer112" fill="#f7db53" stroke="none">
<path d="M190 4370 l0 -20 -40 0 -40 0 0 -40 0 -40 -35 0 -35 0 0 -2040 0 -2040 15 0 15 0 0 -40 0 -40 20 0 20 0 0 -20 0 -20 40 0 40 0 0 -15 0 -15 2660 0 2660 0 0 15 0 15 20 0 20 0 0 40 0 40 20 0 20 0 0 430 0 430 -375 0 -375 0 0 20 0 20 -20 0 -20 0 0 1030 0 1030 20 0 20 0 0 40 0 40 15 0 15 0 0 15 0 15 40 0 40 0 0 20 0 20 20 0 20 0 0 20 0 20 300 0 300 0 0 470 0 470 -20 0 -20 0 0 35 0 35 -20 0 -20 0 0 20 0 20 -35 0 -35 0 0 20 0 20 -2625 0 -2625 0 0 -20z m180 -40 l0 -20 20 0 20 0 0 -20 0 -20 20 0 20 0 0 -75 0 -75 -20 0 -20 0 0 -15 0 -15 -20 0 -20 0 0 -20 0 -20 -75 0 -75 0 0 20 0 20 -15 0 -15 0 0 15 0 15 -20 0 -20 0 0 75 0 75 20 0 20 0 0 20 0 20 15 0 15 0 0 20 0 20 75 0 75 0 0 -20z m4990 -150 l0 -20 20 0 20 0 0 -170 0 -170 -20 0 -20 0 0 -15 0 -15 -635 0 -635 0 0 15 0 15 -20 0 -20 0 0 170 0 170 20 0 20 0 0 20 0 20 635 0 635 0 0 -20z m-2290 -40 l0 -20 20 0 20 0 0 -505 0 -505 -20 0 -20 0 0 -35 0 -35 -15 0 -15 0 0 -20 0 -20 -525 0 -525 0 0 20 0 20 -20 0 -20 0 0 525 0 525 20 0 20 0 0 15 0 15 35 0 35 0 0 20 0 20 505 0 505 0 0 -20z m720 -125 l0 -75 -20 0 -20 0 0 15 0 15 -20 0 -20 0 0 -15 0 -15 -20 0 -20 0 0 -20 0 -20 -55 0 -55 0 0 35 0 35 -20 0 -20 0 0 -35 0 -35 -15 0 -15 0 0 55 0 55 -20 0 -20 0 0 -20 0 -20 -20 0 -20 0 0 40 0 40 20 0 20 0 0 20 0 20 170 0 170 0 0 -75z m-2400 -25 l0 -20 15 0 15 0 0 -1780 0 -1780 -15 0 -15 0 0 -35 0 -35 -20 0 -20 0 0 -20 0 -20 -40 0 -40 0 0 -55 0 -55 -15 0 -15 0 0 -20 0 -20 -245 0 -245 0 0 20 0 20 -20 0 -20 0 0 55 0 55 -35 0 -35 0 0 20 0 20 -20 0 -20 0 0 1760 0 1760 20 0 20 0 0 20 0 20 15 0 15 0 0 35 0 35 20 0 20 0 0 20 0 20 340 0 340 0 0 -20z m2400 -245 l0 -75 -20 0 -20 0 0 20 0 20 -55 0 -55 0 0 -35 0 -35 -40 0 -40 0 0 35 0 35 -20 0 -20 0 0 -35 0 -35 -15 0 -15 0 0 55 0 55 -20 0 -20 0 0 -20 0 -20 -20 0 -20 0 0 40 0 40 20 0 20 0 0 15 0 15 170 0 170 0 0 -75z m0 -260 l0 -75 -20 0 -20 0 0 20 0 20 -55 0 -55 0 0 -40 0 -40 -40 0 -40 0 0 40 0 40 -20 0 -20 0 0 -40 0 -40 -15 0 -15 0 0 60 0 60 -20 0 -20 0 0 -20 0 -20 -20 0 -20 0 0 35 0 35 20 0 20 0 0 20 0 20 170 0 170 0 0 -75z m-150 -315 l0 -20 55 0 55 0 0 20 0 20 95 0 95 0 0 -20 0 -20 55 0 55 0 0 20 0 20 95 0 95 0 0 -20 0 -20 15 0 15 0 0 -115 0 -115 -15 0 -15 0 0 -15 0 -15 -20 0 -20 0 0 -20 0 -20 -20 0 -20 0 0 -20 0 -20 -95 0 -95 0 0 20 0 20 -15 0 -15 0 0 20 0 20 -20 0 -20 0 0 -20 0 -20 -20 0 -20 0 0 -20 0 -20 -95 0 -95 0 0 20 0 20 -15 0 -15 0 0 20 0 20 -20 0 -20 0 0 -20 0 -20 -20 0 -20 0 0 -20 0 -20 -95 0 -95 0 0 20 0 20 -15 0 -15 0 0 130 0 130 15 0 15 0 0 20 0 20 40 0 40 0 0 20 0 20 95 0 95 0 0 -20z m600 -680 l0 -20 15 0 15 0 0 -300 0 -300 20 0 20 0 0 -375 0 -375 -20 0 -20 0 0 -355 0 -355 -15 0 -15 0 0 -20 0 -20 -20 0 -20 0 0 -15 0 -15 -20 0 -20 0 0 -20 0 -20 -1050 0 -1050 0 0 20 0 20 -20 0 -20 0 0 15 0 15 -15 0 -15 0 0 360 0 360 -20 0 -20 0 0 375 0 375 20 0 20 0 0 300 0 300 15 0 15 0 0 15 0 15 20 0 20 0 0 20 0 20 1090 0 1090 0 0 -20z m670 -1815 l0 -75 -20 0 -20 0 0 20 0 20 -15 0 -15 0 0 -20 0 -20 -20 0 -20 0 0 -20 0 -20 -55 0 -55 0 0 40 0 40 -20 0 -20 0 0 -40 0 -40 -20 0 -20 0 0 55 0 55 -20 0 -20 0 0 -15 0 -15 -15 0 -15 0 0 35 0 35 15 0 15 0 0 20 0 20 170 0 170 0 0 -75z m490 0 l0 -75 -20 0 -20 0 0 20 0 20 -20 0 -20 0 0 -20 0 -20 -15 0 -15 0 0 -20 0 -20 -60 0 -60 0 0 40 0 40 -15 0 -15 0 0 -40 0 -40 -20 0 -20 0 0 55 0 55 -20 0 -20 0 0 -15 0 -15 -20 0 -20 0 0 35 0 35 20 0 20 0 0 20 0 20 170 0 170 0 0 -75z m-490 -260 l0 -75 -20 0 -20 0 0 15 0 15 -15 0 -15 0 0 -15 0 -15 -20 0 -20 0 0 -20 0 -20 -55 0 -55 0 0 35 0 35 -20 0 -20 0 0 -35 0 -35 -20 0 -20 0 0 55 0 55 -20 0 -20 0 0 -20 0 -20 -15 0 -15 0 0 40 0 40 15 0 15 0 0 20 0 20 170 0 170 0 0 -75z m-4540 15 l0 -20 20 0 20 0 0 -20 0 -20 20 0 20 0 0 -75 0 -75 -20 0 -20 0 0 -15 0 -15 -20 0 -20 0 0 -20 0 -20 -75 0 -75 0 0 20 0 20 -15 0 -15 0 0 15 0 15 -20 0 -20 0 0 75 0 75 20 0 20 0 0 20 0 20 15 0 15 0 0 20 0 20 75 0 75 0 0 -20z m5070 0 l0 -20 15 0 15 0 0 -20 0 -20 20 0 20 0 0 -75 0 -75 -20 0 -20 0 0 -15 0 -15 -15 0 -15 0 0 -20 0 -20 -75 0 -75 0 0 20 0 20 -20 0 -20 0 0 15 0 15 -20 0 -20 0 0 75 0 75 20 0 20 0 0 20 0 20 20 0 20 0 0 20 0 20 75 0 75 0 0 -20z"/>
<path d="M4120 4085 l0 -35 20 0 20 0 0 -40 0 -40 20 0 20 0 0 -35 0 -35 20 0 20 0 0 -20 0 -20 110 0 110 0 0 20 0 20 -20 0 -20 0 0 35 0 35 -15 0 -15 0 0 40 0 40 -75 0 -75 0 0 20 0 20 -20 0 -20 0 0 15 0 15 -40 0 -40 0 0 -35z m230 -130 l0 -15 20 0 20 0 0 -20 0 -20 -40 0 -40 0 0 20 0 20 -20 0 -20 0 0 15 0 15 40 0 40 0 0 -15z"/>
<path d="M4390 4105 l0 -15 15 0 15 0 0 -40 0 -40 20 0 20 0 0 -35 0 -35 20 0 20 0 0 -40 0 -40 35 0 35 0 0 40 0 40 -15 0 -15 0 0 35 0 35 15 0 15 0 0 -20 0 -20 20 0 20 0 0 -15 0 -15 20 0 20 0 0 -20 0 -20 20 0 20 0 0 -20 0 -20 35 0 35 0 0 20 0 20 20 0 20 0 0 -20 0 -20 95 0 95 0 0 40 0 40 -20 0 -20 0 0 35 0 35 -20 0 -20 0 0 40 0 40 -20 0 -20 0 0 15 0 15 -110 0 -110 0 0 -35 0 -35 20 0 20 0 0 -20 0 -20 15 0 15 0 0 -20 0 -20 20 0 20 0 0 -35 0 -35 -20 0 -20 0 0 20 0 20 -15 0 -15 0 0 15 0 15 -20 0 -20 0 0 20 0 20 -20 0 -20 0 0 20 0 20 -20 0 -20 0 0 20 0 20 -15 0 -15 0 0 15 0 15 -75 0 -75 0 0 -15z m410 -35 l0 -20 20 0 20 0 0 -20 0 -20 -40 0 -40 0 0 20 0 20 -20 0 -20 0 0 20 0 20 40 0 40 0 0 -20z m70 -115 l0 -15 20 0 20 0 0 -20 0 -20 -35 0 -35 0 0 20 0 20 -20 0 -20 0 0 15 0 15 35 0 35 0 0 -15z"/>
<path d="M4950 4085 l0 -35 20 0 20 0 0 -40 0 -40 15 0 15 0 0 -35 0 -35 40 0 40 0 0 35 0 35 20 0 20 0 0 -35 0 -35 35 0 35 0 0 35 0 35 20 0 20 0 0 -35 0 -35 35 0 35 0 0 35 0 35 -15 0 -15 0 0 40 0 40 -20 0 -20 0 0 35 0 35 -40 0 -40 0 0 -35 0 -35 20 0 20 0 0 -40 0 -40 -20 0 -20 0 0 40 0 40 -15 0 -15 0 0 35 0 35 -40 0 -40 0 0 -35 0 -35 -20 0 -20 0 0 35 0 35 -35 0 -35 0 0 -35z m150 -75 l0 -40 -20 0 -20 0 0 40 0 40 20 0 20 0 0 -40z"/>
<path d="M1990 3505 l0 -435 15 0 15 0 0 -15 0 -15 490 0 490 0 0 15 0 15 -470 0 -470 0 0 20 0 20 -20 0 -20 0 0 415 0 415 -15 0 -15 0 0 -435z"/>
<path d="M2140 3860 l0 -40 15 0 15 0 0 -15 0 -15 60 0 60 0 0 -190 0 -190 15 0 15 0 0 20 0 20 20 0 20 0 0 20 0 20 20 0 20 0 0 15 0 15 20 0 20 0 0 40 0 40 15 0 15 0 0 75 0 75 -15 0 -15 0 0 20 0 20 -40 0 -40 0 0 -20 0 -20 20 0 20 0 0 -20 0 -20 20 0 20 0 0 -35 0 -35 -20 0 -20 0 0 -20 0 -20 -20 0 -20 0 0 -20 0 -20 -20 0 -20 0 0 150 0 150 -15 0 -15 0 0 20 0 20 -75 0 -75 0 0 -40z"/>
<path d="M2360 3130 l0 -20 225 0 225 0 0 20 0 20 -225 0 -225 0 0 -20z"/>
<path d="M750 1930 l0 -1290 245 0 245 0 0 1125 0 1125 -210 0 -210 0 0 165 0 165 -35 0 -35 0 0 -1290z m370 395 l0 -35 -15 0 -15 0 0 -20 0 -20 -20 0 -20 0 0 -75 0 -75 -40 0 -40 0 0 -20 0 -20 -35 0 -35 0 0 -20 0 -20 -20 0 -20 0 0 115 0 115 20 0 20 0 0 20 0 20 35 0 35 0 0 15 0 15 40 0 40 0 0 20 0 20 35 0 35 0 0 -35z m0 -300 l0 -75 -15 0 -15 0 0 -20 0 -20 -20 0 -20 0 0 -20 0 -20 -20 0 -20 0 0 -15 0 -15 -20 0 -20 0 0 -20 0 -20 -15 0 -15 0 0 -20 0 -20 -20 0 -20 0 0 -20 0 -20 -20 0 -20 0 0 40 0 40 20 0 20 0 0 20 0 20 20 0 20 0 0 15 0 15 15 0 15 0 0 20 0 20 20 0 20 0 0 20 0 20 -35 0 -35 0 0 -20 0 -20 -40 0 -40 0 0 40 0 40 40 0 40 0 0 15 0 15 35 0 35 0 0 20 0 20 40 0 40 0 0 20 0 20 15 0 15 0 0 -75z m0 -300 l0 -115 -15 0 -15 0 0 -20 0 -20 -40 0 -40 0 0 -15 0 -15 -35 0 -35 0 0 -20 0 -20 -40 0 -40 0 0 95 0 95 20 0 20 0 0 15 0 15 35 0 35 0 0 20 0 20 20 0 20 0 0 20 0 20 20 0 20 0 0 20 0 20 35 0 35 0 0 -115z m0 -225 l0 -40 -35 0 -35 0 0 -20 0 -20 -40 0 -40 0 0 -15 0 -15 -35 0 -35 0 0 35 0 35 35 0 35 0 0 20 0 20 40 0 40 0 0 20 0 20 35 0 35 0 0 -40z m0 -115 l0 -35 -35 0 -35 0 0 -20 0 -20 35 0 35 0 0 -35 0 -35 -35 0 -35 0 0 -20 0 -20 -40 0 -40 0 0 -20 0 -20 -35 0 -35 0 0 40 0 40 35 0 35 0 0 15 0 15 40 0 40 0 0 20 0 20 -40 0 -40 0 0 -20 0 -20 -35 0 -35 0 0 40 0 40 35 0 35 0 0 20 0 20 40 0 40 0 0 15 0 15 35 0 35 0 0 -35z"/>
<path d="M750 410 l0 -110 35 0 35 0 0 110 0 110 -35 0 -35 0 0 -110z"/>
<path d="M820 240 l0 -20 -15 0 -15 0 0 -15 0 -15 90 0 90 0 0 35 0 35 -75 0 -75 0 0 -20z"/>
<path d="M1010 225 l0 -35 95 0 95 0 0 15 0 15 20 0 20 0 0 20 0 20 -115 0 -115 0 0 -35z"/>
<path d="M1990 1405 l0 -285 15 0 15 0 0 -15 0 -15 40 0 40 0 0 280 0 280 -20 0 -20 0 0 20 0 20 -35 0 -35 0 0 -285z"/>
<path d="M4160 1670 l0 -20 -20 0 -20 0 0 -280 0 -280 40 0 40 0 0 300 0 300 -20 0 -20 0 0 -20z"/>
<path d="M2140 1330 l0 -320 975 0 975 0 0 320 0 320 -975 0 -975 0 0 -320z m1650 190 l0 -20 15 0 15 0 0 -170 0 -170 -15 0 -15 0 0 -20 0 -20 -675 0 -675 0 0 20 0 20 -20 0 -20 0 0 170 0 170 20 0 20 0 0 20 0 20 675 0 675 0 0 -20z m-1470 -190 l0 -60 -55 0 -55 0 0 60 0 60 55 0 55 0 0 -60z m1690 0 l0 -60 -55 0 -55 0 0 60 0 60 55 0 55 0 0 -60z"/>
</g>
<g id="layer113" fill="#f272ce" stroke="none">
<path d="M2590 3130 l0 -20 110 0 110 0 0 20 0 20 -110 0 -110 0 0 -20z"/>
<path d="M2020 690 l0 -170 20 0 20 0 0 170 0 170 -20 0 -20 0 0 -170z"/>
<path d="M4160 470 l0 -20 -20 0 -20 0 0 -20 0 -20 -15 0 -15 0 0 -20 0 -20 -940 0 -940 0 0 -15 0 -15 955 0 955 0 0 15 0 15 20 0 20 0 0 20 0 20 20 0 20 0 0 40 0 40 -20 0 -20 0 0 -20z"/>
</g>
<g id="layer114" fill="#d3c0a8" stroke="none">
<path d="M3520 3935 l0 -35 20 0 20 0 0 35 0 35 -20 0 -20 0 0 -35z"/>
<path d="M3710 3955 l0 -15 -20 0 -20 0 0 -20 0 -20 40 0 40 0 0 35 0 35 -20 0 -20 0 0 -15z"/>
<path d="M3520 3675 l0 -35 20 0 20 0 0 35 0 35 -20 0 -20 0 0 -35z"/>
<path d="M3640 3675 l0 -35 55 0 55 0 0 35 0 35 -55 0 -55 0 0 -35z"/>
<path d="M3520 3410 l0 -40 20 0 20 0 0 40 0 40 -20 0 -20 0 0 -40z"/>
<path d="M3670 3410 l0 -40 40 0 40 0 0 40 0 40 -40 0 -40 0 0 -40z"/>
<path d="M6150 3315 l0 -55 55 0 55 0 0 55 0 55 -55 0 -55 0 0 -55z"/>
<path d="M3410 3020 l0 -20 -20 0 -20 0 0 -55 0 -55 20 0 20 0 0 -20 0 -20 55 0 55 0 0 20 0 20 20 0 20 0 0 55 0 55 -20 0 -20 0 0 20 0 20 -55 0 -55 0 0 -20z"/>
<path d="M3710 3020 l0 -20 -20 0 -20 0 0 -55 0 -55 20 0 20 0 0 -20 0 -20 55 0 55 0 0 20 0 20 20 0 20 0 0 55 0 55 -20 0 -20 0 0 20 0 20 -55 0 -55 0 0 -20z"/>
<path d="M4010 3020 l0 -20 -20 0 -20 0 0 -55 0 -55 20 0 20 0 0 -20 0 -20 55 0 55 0 0 20 0 20 20 0 20 0 0 55 0 55 -20 0 -20 0 0 20 0 20 -55 0 -55 0 0 -20z"/>
<path d="M6150 2080 l0 -770 150 0 150 0 0 20 0 20 20 0 20 0 0 20 0 20 15 0 15 0 0 730 0 730 -185 0 -185 0 0 -770z"/>
<path d="M2510 1425 l0 -35 20 0 20 0 0 -40 0 -40 20 0 20 0 0 -35 0 -35 15 0 15 0 0 -20 0 -20 115 0 115 0 0 20 0 20 -20 0 -20 0 0 35 0 35 -20 0 -20 0 0 40 0 40 -75 0 -75 0 0 15 0 15 -15 0 -15 0 0 20 0 20 -40 0 -40 0 0 -35z m230 -135 l0 -20 15 0 15 0 0 -15 0 -15 -35 0 -35 0 0 15 0 15 -20 0 -20 0 0 20 0 20 40 0 40 0 0 -20z"/>
<path d="M2770 1440 l0 -20 20 0 20 0 0 -35 0 -35 20 0 20 0 0 -40 0 -40 20 0 20 0 0 -35 0 -35 35 0 35 0 0 35 0 35 -20 0 -20 0 0 40 0 40 20 0 20 0 0 -20 0 -20 20 0 20 0 0 -20 0 -20 20 0 20 0 0 -15 0 -15 15 0 15 0 0 -20 0 -20 40 0 40 0 0 20 0 20 20 0 20 0 0 -20 0 -20 90 0 90 0 0 35 0 35 -15 0 -15 0 0 40 0 40 -20 0 -20 0 0 35 0 35 -20 0 -20 0 0 20 0 20 -110 0 -110 0 0 -35 0 -35 15 0 15 0 0 -20 0 -20 20 0 20 0 0 -20 0 -20 20 0 20 0 0 -35 0 -35 -20 0 -20 0 0 15 0 15 -20 0 -20 0 0 20 0 20 -15 0 -15 0 0 20 0 20 -20 0 -20 0 0 20 0 20 -20 0 -20 0 0 15 0 15 -20 0 -20 0 0 20 0 20 -75 0 -75 0 0 -20z m420 -35 l0 -15 15 0 15 0 0 -20 0 -20 -35 0 -35 0 0 20 0 20 -20 0 -20 0 0 15 0 15 40 0 40 0 0 -15z m70 -115 l0 -20 20 0 20 0 0 -15 0 -15 -40 0 -40 0 0 15 0 15 -15 0 -15 0 0 20 0 20 35 0 35 0 0 -20z"/>
<path d="M6150 765 l0 -55 55 0 55 0 0 55 0 55 -55 0 -55 0 0 -55z"/>
<path d="M2210 655 l0 -55 20 0 20 0 0 -20 0 -20 20 0 20 0 0 -20 0 -20 55 0 55 0 0 20 0 20 -40 0 -40 0 0 20 0 20 -15 0 -15 0 0 20 0 20 -20 0 -20 0 0 35 0 35 -20 0 -20 0 0 -55z"/>
<path d="M4650 600 l0 -40 20 0 20 0 0 40 0 40 -20 0 -20 0 0 -40z"/>
<path d="M4840 620 l0 -20 -20 0 -20 0 0 -20 0 -20 35 0 35 0 0 40 0 40 -15 0 -15 0 0 -20z"/>
<path d="M5140 600 l0 -40 15 0 15 0 0 40 0 40 -15 0 -15 0 0 -40z"/>
<path d="M5320 620 l0 -20 -15 0 -15 0 0 -20 0 -20 35 0 35 0 0 40 0 40 -20 0 -20 0 0 -20z"/>
<path d="M4650 335 l0 -35 20 0 20 0 0 35 0 35 -20 0 -20 0 0 -35z"/>
<path d="M4840 355 l0 -15 -20 0 -20 0 0 -20 0 -20 35 0 35 0 0 35 0 35 -15 0 -15 0 0 -15z"/>
</g>
<g id="layer115" fill="#f9f4ea" stroke="none">
<path d="M3340 3730 l0 -430 260 0 260 0 0 430 0 430 -260 0 -260 0 0 -430z m480 0 l0 -390 -225 0 -225 0 0 390 0 390 225 0 225 0 0 -390z"/>
<path d="M3410 3935 l0 -35 40 0 40 0 0 20 0 20 -20 0 -20 0 0 15 0 15 -20 0 -20 0 0 -35z"/>
<path d="M3410 3675 l0 -35 40 0 40 0 0 15 0 15 -20 0 -20 0 0 20 0 20 -20 0 -20 0 0 -35z"/>
<path d="M3410 3410 l0 -40 40 0 40 0 0 20 0 20 -20 0 -20 0 0 20 0 20 -20 0 -20 0 0 -40z"/>
<path d="M1720 3955 l0 -15 -15 0 -15 0 0 -95 0 -95 15 0 15 0 0 55 0 55 20 0 20 0 0 -35 0 -35 20 0 20 0 0 -20 0 -20 35 0 35 0 0 20 0 20 20 0 20 0 0 90 0 90 -20 0 -20 0 0 -55 0 -55 -15 0 -15 0 0 40 0 40 -20 0 -20 0 0 15 0 15 -40 0 -40 0 0 -15z"/>
<path d="M340 3840 l0 -20 -20 0 -20 0 0 -90 0 -90 35 0 35 0 0 75 0 75 40 0 40 0 0 -75 0 -75 35 0 35 0 0 90 0 90 -15 0 -15 0 0 20 0 20 -75 0 -75 0 0 -20z"/>
<path d="M1690 3635 l0 -35 15 0 15 0 0 -20 0 -20 20 0 20 0 0 -20 0 -20 -35 0 -35 0 0 -35 0 -35 110 0 110 0 0 35 0 35 -20 0 -20 0 0 20 0 20 -15 0 -15 0 0 20 0 20 35 0 35 0 0 35 0 35 -110 0 -110 0 0 -35z"/>
<path d="M340 3540 l0 -20 -20 0 -20 0 0 -75 0 -75 20 0 20 0 0 -15 0 -15 90 0 90 0 0 35 0 35 -35 0 -35 0 0 40 0 40 35 0 35 0 0 35 0 35 -90 0 -90 0 0 -20z m70 -90 l0 -40 -20 0 -20 0 0 40 0 40 20 0 20 0 0 -40z"/>
<path d="M3900 3465 l0 -55 55 0 55 0 0 20 0 20 -35 0 -35 0 0 35 0 35 -20 0 -20 0 0 -55z"/>
<path d="M1690 3280 l0 -90 15 0 15 0 0 -20 0 -20 75 0 75 0 0 20 0 20 20 0 20 0 0 90 0 90 -110 0 -110 0 0 -90z m150 -20 l0 -40 -40 0 -40 0 0 40 0 40 40 0 40 0 0 -40z"/>
<path d="M4570 3355 l0 -15 -15 0 -15 0 0 -1240 0 -1240 15 0 15 0 0 -20 0 -20 510 0 510 0 0 20 0 20 -490 0 -490 0 0 20 0 20 -20 0 -20 0 0 1200 0 1200 20 0 20 0 0 20 0 20 490 0 490 0 0 15 0 15 -510 0 -510 0 0 -15z"/>
<path d="M300 3165 l0 -95 20 0 20 0 0 -15 0 -15 35 0 35 0 0 15 0 15 20 0 20 0 0 -15 0 -15 35 0 35 0 0 35 0 35 -15 0 -15 0 0 20 0 20 -20 0 -20 0 0 20 0 20 35 0 35 0 0 35 0 35 -110 0 -110 0 0 -95z m110 -15 l0 -40 -20 0 -20 0 0 40 0 40 20 0 20 0 0 -40z"/>
<path d="M1990 3110 l0 -40 15 0 15 0 0 -15 0 -15 40 0 40 0 0 15 0 15 -20 0 -20 0 0 20 0 20 -20 0 -20 0 0 20 0 20 -15 0 -15 0 0 -40z"/>
<path d="M300 2850 l0 -110 35 0 35 0 0 35 0 35 75 0 75 0 0 40 0 40 -75 0 -75 0 0 35 0 35 -35 0 -35 0 0 -110z"/>
<path d="M790 2830 l0 -20 -20 0 -20 0 0 -1085 0 -1085 225 0 225 0 0 1105 0 1105 -205 0 -205 0 0 -20z m330 -505 l0 -35 -15 0 -15 0 0 -20 0 -20 -20 0 -20 0 0 -75 0 -75 -40 0 -40 0 0 -20 0 -20 -35 0 -35 0 0 -20 0 -20 -20 0 -20 0 0 115 0 115 20 0 20 0 0 20 0 20 35 0 35 0 0 15 0 15 40 0 40 0 0 20 0 20 35 0 35 0 0 -35z m0 -300 l0 -75 -15 0 -15 0 0 -20 0 -20 -20 0 -20 0 0 -20 0 -20 -20 0 -20 0 0 -15 0 -15 -20 0 -20 0 0 -20 0 -20 -15 0 -15 0 0 -20 0 -20 -20 0 -20 0 0 -20 0 -20 -20 0 -20 0 0 40 0 40 20 0 20 0 0 20 0 20 20 0 20 0 0 15 0 15 15 0 15 0 0 20 0 20 20 0 20 0 0 20 0 20 -35 0 -35 0 0 -20 0 -20 -40 0 -40 0 0 40 0 40 40 0 40 0 0 15 0 15 35 0 35 0 0 20 0 20 40 0 40 0 0 20 0 20 15 0 15 0 0 -75z m0 -300 l0 -115 -15 0 -15 0 0 -20 0 -20 -40 0 -40 0 0 -15 0 -15 -35 0 -35 0 0 -20 0 -20 -40 0 -40 0 0 95 0 95 20 0 20 0 0 15 0 15 35 0 35 0 0 20 0 20 20 0 20 0 0 20 0 20 20 0 20 0 0 20 0 20 35 0 35 0 0 -115z m0 -225 l0 -40 -35 0 -35 0 0 -20 0 -20 -40 0 -40 0 0 -15 0 -15 -35 0 -35 0 0 35 0 35 35 0 35 0 0 20 0 20 40 0 40 0 0 20 0 20 35 0 35 0 0 -40z m0 -115 l0 -35 -35 0 -35 0 0 -20 0 -20 35 0 35 0 0 -35 0 -35 -35 0 -35 0 0 -20 0 -20 -40 0 -40 0 0 -20 0 -20 -35 0 -35 0 0 40 0 40 35 0 35 0 0 15 0 15 40 0 40 0 0 20 0 20 -40 0 -40 0 0 -20 0 -20 -35 0 -35 0 0 40 0 40 35 0 35 0 0 20 0 20 40 0 40 0 0 15 0 15 35 0 35 0 0 -35z"/>
<path d="M940 2190 l0 -20 -20 0 -20 0 0 -35 0 -35 20 0 20 0 0 20 0 20 15 0 15 0 0 35 0 35 -15 0 -15 0 0 -20z"/>
<path d="M1050 1740 l0 -20 -20 0 -20 0 0 -35 0 -35 20 0 20 0 0 20 0 20 20 0 20 0 0 35 0 35 -20 0 -20 0 0 -20z"/>
<path d="M940 1670 l0 -20 -20 0 -20 0 0 -40 0 -40 20 0 20 0 0 20 0 20 15 0 15 0 0 40 0 40 -15 0 -15 0 0 -20z"/>
<path d="M6450 2830 l0 -20 20 0 20 0 0 -20 0 -20 15 0 15 0 0 40 0 40 -35 0 -35 0 0 -20z"/>
<path d="M1720 1825 l0 -15 -15 0 -15 0 0 -100 0 -100 35 0 35 0 0 81 0 82 31 -7 c17 -3 42 -6 55 -6 l24 0 0 -35 0 -35 -15 0 -15 0 0 15 0 15 -20 0 -20 0 0 -55 0 -55 35 0 35 0 0 20 0 20 20 0 20 0 0 75 0 75 -20 0 -20 0 0 20 0 20 -75 0 -75 0 0 -15z"/>
<path d="M2590 1555 l0 -15 600 0 600 0 0 -20 0 -20 15 0 15 0 0 -130 0 -130 20 0 20 0 0 150 0 150 -20 0 -20 0 0 15 0 15 -615 0 -615 0 0 -15z"/>
<path d="M1690 1450 l0 -90 15 0 15 0 0 -25 0 -25 40 0 40 0 0 20 0 20 20 0 20 0 0 55 0 55 35 0 35 0 0 40 0 40 -110 0 -110 0 0 -90z m110 -20 l0 -40 -20 0 -20 0 0 40 0 40 20 0 20 0 0 -40z"/>
<path d="M2250 1405 l0 -15 35 0 35 0 0 -40 0 -40 20 0 20 0 0 55 0 55 -55 0 -55 0 0 -15z"/>
<path d="M3940 1405 l0 -15 35 0 35 0 0 -40 0 -40 20 0 20 0 0 55 0 55 -55 0 -55 0 0 -15z"/>
<path d="M3410 1255 l0 -15 20 0 20 0 0 15 0 15 -20 0 -20 0 0 -15z"/>
<path d="M3520 1255 l0 -15 20 0 20 0 0 15 0 15 -20 0 -20 0 0 -15z"/>
<path d="M3640 1255 l0 -15 15 0 15 0 0 15 0 15 -15 0 -15 0 0 -15z"/>
<path d="M6150 1160 l0 -110 170 0 170 0 0 20 0 20 15 0 15 0 0 90 0 90 -185 0 -185 0 0 -110z"/>
<path d="M1690 1200 l0 -40 75 0 75 0 0 -35 0 -35 -75 0 -75 0 0 -40 0 -40 90 0 90 0 0 20 0 20 20 0 20 0 0 75 0 75 -20 0 -20 0 0 20 0 20 -90 0 -90 0 0 -40z"/>
<path d="M2170 1145 l0 -95 920 0 920 0 0 20 0 20 -900 0 -900 0 0 75 0 75 -20 0 -20 0 0 -95z"/>
<path d="M1990 1140 l0 -20 15 0 15 0 0 -15 0 -15 40 0 40 0 0 15 0 15 -20 0 -20 0 0 20 0 20 -35 0 -35 0 0 -20z"/>
<path d="M4120 1105 l0 -15 40 0 40 0 0 15 0 15 -40 0 -40 0 0 -15z"/>
<path d="M4540 600 l0 -40 35 0 35 0 0 20 0 20 -20 0 -20 0 0 20 0 20 -15 0 -15 0 0 -40z"/>
<path d="M5020 600 l0 -40 40 0 40 0 0 20 0 20 -20 0 -20 0 0 20 0 20 -20 0 -20 0 0 -40z"/>
<path d="M4540 335 l0 -35 35 0 35 0 0 20 0 20 -20 0 -20 0 0 15 0 15 -15 0 -15 0 0 -35z"/>
</g>


</svg>