<svg baseProfile="tiny" xmlns="http://www.w3.org/2000/svg" viewBox="0 0 130.2 157.3"><path fill="#4B5986" d="M3.3 37.8h123.6v80.9H3.3z"/><path fill="#1A1818" d="M127.2 119H3V37.6h124.1V119zm-123.7-.5h123.1V38.1H3.5v80.4z"/><path fill="#3D3C78" d="M3.3 1.6H127v26.3H3.3z"/><path fill="#3D3C78" d="M127.2 28.2H3V1.4h124.2v26.8zM3.5 27.7h123.2V1.9H3.5v25.8z"/><path fill="#8980AD" d="M3.3 27.9H127v1.7H3.3z"/><path d="M127.2 29.9H3v-2.2h124.2v2.2zM3.5 29.4h123.2v-1.2H3.5v1.2z"/><path fill="#8980AD" d="M3.3 29.6H127v8.2H3.3z"/><path d="M127.2 38.1H3v-8.7h124.2v8.7zM3.5 37.6h123.2v-7.7H3.5v7.7z"/><path fill="#9E3E7D" d="M3.3 131.4h123.6v24.1H3.3z"/><path d="M127.2 155.7H3v-24.6h124.1v24.6zm-123.7-.5h123.1v-23.6H3.5v23.6z"/><path fill="#1A1818" d="M8.9 155.5h7.6v1.9H8.9zM113.7 155.5h7.6v1.9h-7.6z"/><path fill="#8980AD" d="M3.3 128.1h123.6v3.2H3.3z"/><path d="M127.2 131.6H3v-3.7h124.1v3.7zm-123.7-.5h123.1v-2.7H3.5v2.7z"/><path fill="#D8B8C3" d="M3.3 118.7h123.6v9.4H3.3z"/><path fill="#1A1818" d="M127.2 128.4H3v-9.9h124.1v9.9zm-123.7-.5h123.1V119H3.5v8.9z"/><path d="M111.7 111.7H18.4c-.4 0-.7-.3-.7-.7V44.6c0-.4.3-.7.7-.7h93.3c.4 0 .7.3.7.7V111c.1.4-.3.7-.7.7z"/><path d="M112 111.9H18.2c-.4 0-.7-.3-.7-.7V44.4c0-.4.3-.7.7-.7H112c.4 0 .7.3.7.7v66.8c0 .4-.3.7-.7.7zm-93.3-.5h92.8c.4 0 .7-.3.7-.7V44.9c0-.4-.3-.7-.7-.7H18.7c-.4 0-.7.3-.7.7v65.9c-.1.3.3.6.7.6z"/><path fill="#7F1322" d="M88 123.2v-2c0 .4-1.4.6-3 .6s-3-.3-3-.6v2c.8.2 1.8.3 3 .3 1.1 0 2.2-.1 3-.3"/><path d="M84.9 123.7c-1.2 0-2.2-.1-3.1-.3v-.2h-.2v-2h.5c.1.1 1 .4 2.8.4s2.7-.3 2.8-.4h.5v2H88v.2c-.8.2-1.9.3-3.1.3zm-2.7-.7c.8.2 1.7.2 2.8.2 1 0 2-.1 2.8-.2v-1.3c-.8.3-2.4.4-2.8.4s-2 0-2.8-.4v1.3z"/><path fill="#30050C" d="M81.9 123.2v-1.3c-.8.2-1.2.4-1.2.6 0 .3.5.5 1.2.7"/><path d="M81.9 123.4c-1-.2-1.4-.5-1.4-.9s.5-.7 1.4-.9l.3-.1v1.6H82l-.1.3zm-.2-1.2c-.5.1-.7.3-.7.3s.2.2.7.3v-.6z"/><path fill="#30050C" d="M88 123.2v-1.3c.8.2 1.2.4 1.2.6s-.5.5-1.2.7z"/><path d="M87.7 123.5v-1.9l.3.1c1 .2 1.4.5 1.4.9s-.5.7-1.4.9h-.3zm.5-1.3v.6c.5-.1.7-.3.7-.3s-.1-.1-.7-.3z"/><ellipse fill="#750B17" cx="84.9" cy="121.2" rx="3" ry=".6"/><path d="M84.9 122.1c-.5 0-3.3 0-3.3-.9s2.7-.9 3.3-.9c.5 0 3.3 0 3.3.9s-2.7.9-3.3.9zm-2.7-.9c.2.2 1.2.4 2.7.4s2.5-.2 2.7-.4c-.2-.2-1.2-.4-2.7-.4s-2.4.2-2.7.4z"/><path fill="#8980AD" d="M.3.2h3v157.2h-3z"/><path d="M3.5 157.6H0V0h3.5v157.6zm-3-.5H3V.5H.5v156.6z"/><path fill="#7F1322" d="M48.4 123.2v-2c0 .4-1.4.6-3 .6s-3-.3-3-.6v2c.8.2 1.8.3 3 .3 1.1 0 2.2-.1 3-.3"/><path d="M45.3 123.7c-1.2 0-2.2-.1-3.1-.3v-.2H42v-2h.5c.1.1 1 .4 2.8.4s2.7-.3 2.8-.4h.5v2h-.2v.2c-.8.2-1.9.3-3.1.3zm-2.7-.7c.8.2 1.7.2 2.8.2 1 0 2-.1 2.8-.2v-1.3c-.8.3-2.4.4-2.8.4-.4 0-2 0-2.8-.4v1.3z"/><path fill="#30050C" d="M42.3 123.2v-1.3c-.8.2-1.2.4-1.2.6 0 .3.5.5 1.2.7"/><path d="M42.3 123.4c-1-.2-1.4-.5-1.4-.9s.5-.7 1.4-.9l.3-.1v1.6h-.2l-.1.3zm-.2-1.2c-.5.1-.7.3-.7.3s.2.2.7.3v-.6z"/><path fill="#30050C" d="M48.4 123.2v-1.3c.8.2 1.2.4 1.2.6s-.5.5-1.2.7z"/><path d="M48.1 123.5v-1.9l.3.1c1 .2 1.4.5 1.4.9s-.5.7-1.4.9h-.3zm.5-1.3v.6c.5-.1.7-.3.7-.3s-.1-.1-.7-.3z"/><ellipse fill="#750B17" cx="45.3" cy="121.2" rx="3" ry=".6"/><path d="M45.3 122.1c-.5 0-3.3 0-3.3-.9s2.7-.9 3.3-.9c.5 0 3.3 0 3.3.9s-2.7.9-3.3.9zm-2.7-.9c.2.2 1.2.4 2.7.4s2.5-.2 2.7-.4c-.2-.2-1.2-.4-2.7-.4-1.5 0-2.4.2-2.7.4z"/><path fill="#7F1322" d="M18.5 122v-2c0 .4-1.4.6-3 .6s-3-.3-3-.6v2c.8.2 1.8.3 3 .3 1.2-.1 2.2-.2 3-.3"/><path d="M15.5 122.5c-1.2 0-2.2-.1-3.1-.3v-.2h-.2v-2h.5c.1.1 1 .4 2.8.4 1.7 0 2.7-.3 2.8-.4h.5v2h-.2v.2c-.9.2-2 .3-3.1.3zm-2.8-.8c.8.2 1.7.2 2.8.2 1 0 2-.1 2.8-.2v-1.3c-.8.3-2.4.4-2.8.4-.4 0-2 0-2.8-.4v1.3z"/><path fill="#30050C" d="M12.5 121.9v-1.3c-.8.2-1.2.4-1.2.6-.1.4.4.6 1.2.7"/><path d="M12.4 122.2c-1-.2-1.4-.5-1.4-.9s.5-.7 1.4-.9l.3-.1v1.6h-.2l-.1.3zm-.2-1.2c-.5.1-.7.3-.7.3s.2.2.7.3v-.6z"/><path fill="#30050C" d="M18.5 121.9v-1.3c.8.2 1.2.4 1.2.6s-.4.6-1.2.7z"/><path d="M18.3 122.2v-1.9l.3.1c1 .2 1.4.5 1.4.9s-.5.7-1.4.9h-.3zm.5-1.2v.6c.5-.1.7-.3.7-.3s-.2-.2-.7-.3z"/><ellipse fill="#750B17" cx="15.5" cy="119.9" rx="3" ry=".6"/><path d="M15.5 120.8c-.5 0-3.3 0-3.3-.9s2.7-.9 3.3-.9c.5 0 3.3 0 3.3.9s-2.8.9-3.3.9zm-2.7-.9c.2.2 1.2.4 2.7.4 1.6 0 2.5-.2 2.7-.4-.2-.2-1.2-.4-2.7-.4-1.6 0-2.5.3-2.7.4z"/><path fill="#7F1322" d="M18.5 126.9v-2c0 .4-1.4.6-3 .6s-3-.3-3-.6v2c.8.2 1.8.3 3 .3s2.2-.1 3-.3"/><path d="M15.5 127.4c-1.2 0-2.2-.1-3.1-.3v-.2h-.2v-2h.5c.1.1 1 .4 2.8.4 1.7 0 2.7-.3 2.8-.4h.5v2h-.2v.2c-.9.2-2 .3-3.1.3zm-2.8-.7c.8.2 1.7.2 2.8.2 1 0 2-.1 2.8-.2v-1.3c-.8.3-2.4.4-2.8.4s-2 0-2.8-.4v1.3z"/><path fill="#30050C" d="M12.5 126.9v-1.3c-.8.2-1.2.4-1.2.6s.4.5 1.2.7"/><path d="M12.4 127.1c-1-.2-1.4-.5-1.4-.9s.5-.7 1.4-.9l.3-.1v1.6h-.2l-.1.3zm-.2-1.2c-.5.1-.7.3-.7.3s.2.2.7.3v-.6z"/><path fill="#30050C" d="M18.5 126.9v-1.3c.8.2 1.2.4 1.2.6 0 .3-.4.5-1.2.7z"/><path d="M18.3 127.2v-1.9l.3.1c1 .2 1.4.5 1.4.9s-.5.7-1.4.9h-.3zm.5-1.3v.6c.5-.1.7-.3.7-.3s-.2-.1-.7-.3z"/><ellipse fill="#750B17" cx="15.5" cy="124.9" rx="3" ry=".6"/><path d="M15.5 125.8c-.5 0-3.3 0-3.3-.9s2.7-.9 3.3-.9c.5 0 3.3 0 3.3.9s-2.8.9-3.3.9zm-2.7-.9c.2.2 1.2.4 2.7.4 1.6 0 2.5-.2 2.7-.4-.2-.2-1.2-.4-2.7-.4s-2.5.2-2.7.4z"/><path fill="#2A2237" d="M54.4 150.2v-11.8c0-1.7 1.3-3 3-3h16.3c1.7 0 3 1.3 3 3v11.8c0 1.7-1.3 3-3 3H57.5c-1.7 0-3.1-1.4-3.1-3z"/><path fill="#1A1818" d="M73.7 152.8H57.5c-1.4 0-2.6-1.1-2.6-2.6v-11.9c0-1.4 1.1-2.6 2.6-2.6h16.2c1.4 0 2.6 1.1 2.6 2.6v11.9c-.1 1.4-1.2 2.6-2.6 2.6z"/><path fill="#353434" d="M61.9 150.8H60c-.7 0-1.3-.6-1.3-1.3v-1.3h4.5v1.3c-.1.7-.6 1.3-1.3 1.3z"/><path d="M61.9 151.1H60c-.8 0-1.5-.7-1.5-1.5V148h4.9v1.5c0 .9-.7 1.6-1.5 1.6zm-3-2.6v1c0 .6.5 1 1 1h1.9c.6 0 1-.5 1-1v-1h-3.9z"/><path fill="#7E7683" d="M75.9 144.5c0 .9-.7 1.7-1.7 1.7-.9 0-1.7-.7-1.7-1.7 0-.9.7-1.7 1.7-1.7.9.1 1.7.8 1.7 1.7z"/><path d="M74.2 145.9c-.1 0-.2-.1-.2-.2v-2.2c0-.1.1-.2.2-.2s.2.1.2.2v2.2s-.1.2-.2.2zM62.4 141.1h-3c-.5 0-1-.4-1-1v-2.2c0-.5.4-1 1-1h3c.5 0 1 .4 1 1v2.2c0 .6-.4 1-1 1z"/><path fill="#9B1D33" d="M62.1 140.7h-2.4c-.4 0-.8-.3-.8-.8v-1.8c0-.4.3-.8.8-.8h2.4c.4 0 .8.3.8.8v1.8c0 .4-.4.8-.8.8z"/><path fill="#5D081F" d="M62.3 140.5c-.3 0-.6-.3-.6-.6v-1.7c0-.3.3-.6.6-.6s.6.3.6.6v1.7c0 .3-.3.6-.6.6z"/><path fill="#353434" d="M71.8 150.8h-1.9c-.7 0-1.3-.6-1.3-1.3v-1.3H73v1.3c0 .7-.5 1.3-1.2 1.3z"/><path d="M71.8 151.1h-1.9c-.8 0-1.5-.7-1.5-1.5V148h5v1.5c-.1.9-.8 1.6-1.6 1.6zm-3-2.6v1c0 .6.5 1 1 1h1.9c.6 0 1-.5 1-1v-1h-3.9zM72.3 141.1h-3c-.5 0-1-.4-1-1v-2.2c0-.5.4-1 1-1h3c.5 0 1 .4 1 1v2.2c0 .6-.4 1-1 1z"/><path fill="#9B1D33" d="M72 140.7h-2.4c-.4 0-.8-.3-.8-.8v-1.8c0-.4.3-.8.8-.8H72c.4 0 .8.3.8.8v1.8c0 .4-.4.8-.8.8z"/><path fill="#5D081F" d="M72.2 140.5c-.3 0-.6-.3-.6-.6v-1.7c0-.3.3-.6.6-.6s.6.3.6.6v1.7c0 .3-.3.6-.6.6z"/><path fill-rule="evenodd" fill="#E75F09" d="M52.3 5.4c-1.1-.6-1.7-.5-2.2-1.3-.1-.1-.3-.4-.3-.4-.1 0 .3.7.1 1.2-.2.5-.9.8-1.4.7-.5-.2-.5-.8-.9-.9-.6-.1-1.4 1-1.3 1.2.1.1.7-.5 1.1-.3.3.2.4.9.2 1.2-.4.6-1.4 0-2 .6s-.4 1.9.1 2.1c.4.1 1-.8 1.3-.7.2.1-.2.8.1 1.3.4.7 2 .1 2.5.7.4.5-.2 1.9-1.2 2.4-1.1.5-2.1-.5-2.8.1-.5.4-.5 1.4-.4 1.5.2.1.5-.8.9-.8.6 0 1.2 1.2 1.3 2.4.1 1.5-.7 2-.4 2.7.5.8 2.3.9 3.6.5.8-.3 1.2-.7 1.5-.5.5.3-.1 1.9.2 2 .4.2 1.9-3.5 2.8-3.3.7.1.9 2.3.7 2.4-.2.1-.5-1-1-1s-.9 1.1-.7 1.3c.2.2.7-.2.7-.1l-2.3 1.5s1.1-.8 2.5-.8c.6 0 .8.2.8.2.3.4-.6 1.1-.4 1.6.2.5 1 .5 1.8.6 2.6.5 3.9 2.5 4.4 2.1.3-.3-.7-1.4-.2-2.2.3-.6 1.4-.8 2.1-.6.9.3 1.2 1.4 1.6 1.3.3-.1.2-.6.7-1 .5-.4 1.2-.6 1.3-.4.3.5-2.5 2.9-2.3 3.1.2.2 2.2-.6 3.2-2.3.3-.4.3-.7.6-.9 1.1-.9 3.3-.1 3.3.4 0 .4-1.4.5-1.5.9 0 .5 1.5.9 3.1 1.3 3 .8 6.7 1.7 6.9 1.2.1-.4-2.4-1.2-2.3-2.1.1-.8 2.3-.7 2.4-1.5.1-.9-3.3-1.5-3.7-3.6-.1-.7.1-1.3.3-1.4.3 0 .4 1.3 1.5 2.2.7.6 1.5.8 1.6.6.1-.2-.8-.6-.8-1.2 0-1.2 3.3-1.9 3.2-2.3-.1-.3-1.7.2-3.3-.5-1-.4-1.7-1.2-1.6-1.4.2-.4 3.8 1.7 5 .6.4-.4.1-.8.6-1.8.6-1.1 1.2-1.1 1.9-2.2.4-.7.7-1.8.4-2.1-.5-.4-2.2 1.1-2.6.7-.3-.3.4-1 .3-2.2 0-.9-.4-1.9-.8-2-.4 0-.9.6-.9 1.2 0 .5.6.7.6 1.1 0 .5-.8 1-1.2.8-.7-.4.6-4.1.3-4.2-.2-.1-.7 1.8-1.3 1.7-.4 0-.5-.9-1.2-1.6-1.2-1.1-3.3-.9-3.6-.4-.2.5 1 1.2.8 1.6-.2.3-1 .3-1.6 0-.6-.4-.8-1.4-.5-2.1.3-.8 1-1.1.9-1.2-.1-.2-2.2.3-2.3 1.2-.1.5.6.7.5 1.2-.2.7-1.9 1.2-2.7.6-.6-.5-.2-1.3-.8-1.9-1-.9-3.1-.3-3.1-.2 0 0 .9-.2 1.2.2.2.3.1 1-.3 1.2-.7.4-1.6-1.2-2.6-.9-.9.2-.8 1.6-1.7 1.9-1 .3-2.4-.7-2.3-1.3.1-.6 1.5-.6 1.5-.8 0-.2-2.2-.3-2.5.4-.2.4.3.7.1 1.4-.1.5-.5 1-.9 1.1-.8.2-1.6-.7-2-1.6-.6-1.4 0-2.6-.3-2.7-.3-.1-1.6 1.2-1.4 2.4.1.7.5 1.1.3 1.3-.2.3-1.1.1-1.6 0-.7-.3-.6-.6-1.6-1.2z"/><path fill="#FCE916" d="M52.3 5.4l.1-.2c-.5-.3-1-.5-1.3-.6-.3-.1-.6-.3-.8-.6-.1-.1-.1-.2-.2-.3l-.1-.1-.1-.1s-.1-.1-.2-.1l-.1.1V3.8c0 .2.1.4.1.6 0 .1 0 .2-.1.3-.1.3-.6.6-.9.6h-.2c-.2-.1-.3-.2-.4-.4-.1-.1-.1-.2-.2-.3-.1-.1-.2-.2-.4-.2h-.1c-.4 0-.7.3-1 .6-.1.1-.2.3-.3.4-.1.1-.1.2-.1.4l.1.2.2-.1-.2.1.2.1c.1 0 .2 0 .2-.1.2-.1.5-.3.6-.3h.1c.1 0 .2.3.2.5s0 .3-.1.4l-.2.2H46.5c-.4 0-.8 0-1.1.3-.4.4-.5.9-.5 1.3 0 .3 0 .5.1.8.1.2.2.4.4.5h.2c.3 0 .5-.2.7-.4.1-.1.2-.2.3-.2l.2-.1v-.1.1-.1.1-.1h-.1l.1-.1h-.1c0 .1-.1.4-.1.7 0 .2 0 .3.1.5.1.3.4.4.6.4.4.1.8.1 1.1.1.2 0 .3 0 .4.1.1 0 .2.1.2.2s.1.2.1.3c0 .3-.1.6-.3 1-.2.3-.5.6-.8.8-.2.1-.4.1-.6.1-.5 0-1-.2-1.5-.2-.2 0-.5.1-.7.3-.4.3-.5.9-.5 1.3v.3c0 .1.1.2.2.3h.1c.1 0 .2-.1.2-.1.1-.1.2-.3.4-.5.1-.2.3-.3.3-.2.1 0 .2 0 .3.2.4.3.7 1.2.8 2.1v.2c0 .5-.1.9-.2 1.2-.1.3-.2.6-.2.9 0 .2 0 .3.1.5.2.3.5.5.9.6.4.1.8.2 1.3.2.6 0 1.1-.1 1.6-.3.3-.1.6-.3.8-.4l.4-.2h.1c.1 0 .1.2.1.5 0 .4-.1.8-.1 1.2v.2c0 .1.1.2.2.2h.1c.2 0 .3-.1.4-.2.3-.4.7-1.2 1.2-1.9.2-.4.5-.7.7-.9.2-.2.4-.3.5-.3l.2.2c.2.3.4 1.1.4 1.6v.2l.1.1V20h-.1l.1.1V20l.1.2-.1-.2.1.2V20h-.1l.1.2V20v.2l.1-.1h-.1v.2l.1-.1v.1-.1.1-.1c-.1-.1-.2-.3-.4-.5l-.3-.3c-.1-.1-.2-.1-.4-.1h-.1v.2-.2c-.3 0-.5.3-.7.5-.1.3-.2.5-.2.8 0 .1 0 .2.1.4l.3.1c.2 0 .3-.1.4-.1l.2-.1v-.2.2-.2.2-.2l-.1.2h.1v-.2l-.1.2.1-.2-.2.1.1.1.1-.2-.2.1.2-.1-.1-.2-2.9 1.5H52.5c.1 0 .3-.2.8-.4.4-.2 1-.4 1.6-.4.3 0 .5 0 .5.1l.1.1v.1c0 .1-.1.3-.2.5s-.2.5-.2.7v.3c.1.2.2.3.3.4.4.2 1.1.3 1.6.4 1.1.2 2 .7 2.7 1.2.3.2.6.5.9.6.2.2.4.3.7.3.1 0 .2 0 .3-.1.1-.1.1-.2.1-.3 0-.3-.1-.5-.2-.7-.1-.3-.2-.5-.2-.8 0-.1 0-.3.1-.4.2-.3.7-.6 1.3-.6.2 0 .4 0 .6.1.4.1.6.4.9.7.1.1.2.3.3.4.1.1.2.2.4.2h.1c.1 0 .2-.1.3-.2.2-.3.2-.6.5-.8.3-.2.7-.4.9-.4h.1v-.1h-.1v-.1H66.4s0 .1-.1.2c-.2.4-.8.9-1.3 1.5l-.7.7c-.1.1-.2.2-.2.3-.1.1-.1.2-.1.3l.1.2.2-.1.3.1c.1.1.2.1.3.1.2 0 .4-.1.6-.2.7-.3 1.9-1.1 2.6-2.3.1-.2.2-.4.3-.5.1-.1.1-.2.3-.3.3-.2.8-.3 1.2-.3.5 0 .9.1 1.3.2.2.1.3.1.4.2l.1.1h.2-.2.1-.1.1-.1s-.1.1-.2.1c-.2.1-.5.2-.7.3-.1.1-.2.1-.3.2-.1.1-.2.2-.2.4 0 .1 0 .2.1.3.2.3.6.4 1.2.6.6.2 1.2.4 2 .6 1.2.3 2.6.7 3.7.9 1.2.3 2.2.5 2.8.5h.3c.1 0 .2-.1.3-.2v-.1c0-.2-.1-.2-.2-.3-.3-.3-.8-.5-1.3-.8-.2-.2-.5-.3-.6-.5-.2-.2-.2-.3-.2-.4 0-.1.1-.2.3-.3.3-.2.8-.3 1.2-.4l.6-.3c.2-.1.3-.3.3-.5V23c0-.2-.1-.3-.2-.5-.4-.4-1.2-.8-1.9-1.3-.8-.5-1.4-1.1-1.6-1.9v-.4c0-.2 0-.4.1-.6l.1-.1-.2-.2v.1-.1.1-.1.1-.1.1-.1l-.1.1h.1V18l-.1.1v-.2c.1.1.2.4.4.8s.5.9 1 1.3c.3.2.6.4.9.5.3.1.5.2.7.2.1 0 .2 0 .3-.1v-.2c0-.1 0-.2-.1-.2-.1-.2-.3-.3-.4-.5-.2-.2-.3-.3-.3-.5h-.2.2-.2.2c0-.2.1-.4.4-.6.4-.3 1.1-.6 1.6-.9.3-.1.5-.2.7-.3.1-.1.2-.1.3-.2.1-.1.1-.1.2-.3v-.1l-.1-.2c-.2-.1-.3-.1-.5-.1h-.6c-.6 0-1.4-.1-2.3-.4-.4-.2-.8-.5-1.1-.7l-.3-.3-.1-.1h-.1l.1.1V15h-.1l.1.1-.1-.1v.1l.1-.1-.1-.1v.1c.1 0 .3.1.6.1.8.3 2.2.8 3.3.8.5 0 .9-.1 1.2-.4.3-.3.3-.6.3-.8 0-.3.1-.6.3-1 .3-.5.5-.7.9-1 .3-.3.7-.6 1-1.2.3-.5.5-1.2.5-1.7 0-.2 0-.5-.2-.6-.1-.1-.3-.1-.4-.1-.4 0-.8.2-1.2.5l-.6.3c-.2.1-.3.1-.4.1 0-.1.1-.3.2-.7.1-.3.2-.7.2-1.3v-.1c0-.5-.1-1-.3-1.4-.1-.2-.2-.4-.3-.5-.1-.1-.3-.3-.5-.3h-.1c-.3 0-.5.2-.7.4-.2.3-.3.6-.3 1h.2-.2c0 .4.2.6.4.7l.2.2.1.1h.2-.2c0 .1-.1.3-.3.4-.2.1-.4.2-.5.2h-.1l.1.3v-.4c0-.5.1-1.2.3-1.9.1-.7.3-1.2.3-1.5v-.1l-.2-.2h-.1c-.1 0-.2.1-.2.1l-.1.2c-.1.2-.3.6-.5.9-.1.2-.2.3-.3.4-.1.1-.2.1-.2.1v.2-.2l-.1-.1c-.1-.1-.2-.3-.3-.6-.1-.3-.3-.6-.6-.8-.7-.6-1.6-.9-2.4-.9-.3 0-.7 0-.9.1-.3.1-.5.2-.6.4v.2c0 .2.1.3.2.5s.3.4.4.6c.1.2.2.3.2.4l-.1.1h-.3c-.3 0-.6-.1-.8-.2-.5-.2-.7-.8-.7-1.3 0-.2 0-.5.1-.7.1-.3.3-.6.5-.8l.2-.2.1-.1c.1 0 .1-.1.1-.2v-.1c-.1-.1-.1-.1-.2-.1h-.2c-.3 0-.8.1-1.3.4-.5.2-.9.6-1 1.1v.1c0 .3.2.5.3.7.1.2.2.3.2.4 0 .1-.2.3-.5.5-.3.1-.7.2-1 .2-.3 0-.6-.1-.8-.2-.2-.2-.3-.4-.3-.8-.1-.3-.1-.8-.5-1.1-.5-.4-1.1-.6-1.7-.6-.4 0-.8.1-1.1.1-.2 0-.3.1-.4.1h-.1v.1l.1.2H67.1c.2 0 .5.1.5.2s.1.2.1.3c0 .2-.1.5-.3.6h-.1c-.2 0-.5-.2-.8-.4-.4-.2-.8-.5-1.3-.5h-.3c-.3.1-.5.2-.6.4-.2.3-.3.6-.5.9-.2.3-.3.5-.6.6h-.3c-.4 0-.8-.2-1.1-.4-.3-.2-.5-.6-.5-.7 0 0 0-.1.2-.2s.5-.2.7-.3c.1 0 .2-.1.3-.1l.1-.1.1-.1.1-.2h-.2.2-.2.2-.5c-.2-.1-.5-.1-.9-.1-.3 0-.7 0-1.1.1-.3.1-.7.3-.8.6 0 .1-.1.2-.1.3 0 .4.2.6.2.9V6c.1.4-.3.9-.6 1h-.1c-.3 0-.6-.2-.9-.4-.3-.3-.6-.7-.7-1-.3-.5-.3-.9-.3-1.3 0-.5.1-.9.1-1.2v-.2c0-.1-.1-.2-.2-.2h-.1c-.2 0-.3.1-.5.2-.5.4-1.1 1.3-1.1 2.2v.2c0 .3.1.6.2.8.1.2.1.3.1.4l.2.1-.2-.1s-.1.1-.3.1c-.3 0-.7-.1-1-.2-.4-.2-.5-.3-.7-.5-.2-.2-.4-.4-1-.7l-.2.2-.1.2c.5.3.7.5.9.7.2.2.4.4.9.6.3.1.8.2 1.2.2.3 0 .5 0 .7-.3.1-.1.1-.2.1-.3 0-.2-.1-.4-.2-.6-.1-.2-.2-.4-.2-.6v-.2c0-.5.2-1 .5-1.4.1-.2.3-.4.4-.5l.2-.1h.1v.1-.1.1-.1h-.1l.1.1v-.1h-.1c0 .2-.1.6-.1 1.2 0 .4.1.9.3 1.4.2.4.5.8.8 1.1.3.3.7.6 1.2.6h.2c.6-.2 1-.7 1.1-1.3v-.3c0-.5-.2-.8-.2-.9v-.1c.1-.1.2-.3.5-.3.3-.1.6-.1.9-.1h.6v-.1l-.1.1v-.1l-.1.1.1-.1h-.2v.1l.1-.1h-.2.2-.2.2-.2.2-.2.2l-.1-.1-.1.1h.2l-.1-.1.1.1-.1-.1.1.1-.1-.1c-.1 0-.4.1-.8.2-.2.1-.3.1-.5.2-.1.1-.3.2-.3.4h.2-.2v.1c0 .4.3.7.7 1 .4.3.9.5 1.4.5.1 0 .3 0 .4-.1.3-.1.5-.3.6-.5.2-.3.4-.6.5-.9.1-.3.3-.4.5-.5h.2c.3 0 .7.2 1 .4.4.2.7.5 1.1.5.1 0 .2 0 .3-.1 1 0 1.2-.4 1.2-.8 0-.2 0-.4-.2-.5-.2-.3-.6-.4-.9-.4h-.5V4v-.2.2-.2.2l.1-.2h-.1V4l.1-.2-.1.2h.2l-.1-.2-.1.2h.2-.2l.2.1V4h-.2l.2.1-.2-.1.1.2.1-.1-.2-.1.1.2s.2-.1.5-.1c.3-.1.6-.1 1-.1.5 0 1 .1 1.4.4.3.3.3.5.4.9.1.3.1.7.5 1 .3.2.7.3 1.1.3.4 0 .9-.1 1.2-.3.4-.2.7-.4.7-.8v-.1c0-.3-.2-.5-.3-.6-.1-.2-.2-.3-.2-.4 0-.2.3-.6.8-.8.4-.2.9-.3 1.1-.3h.1v-.1l-.1.1.1.1v-.1l-.1.1.1-.4-.2.1.1-.1h-.2v.1l.2-.1h-.2.1v.1h.1l-.1-.1-.4.4c-.2.2-.4.5-.5.9-.1.2-.1.5-.1.8 0 .6.2 1.3.8 1.7.3.1.7.2 1 .2.2 0 .3 0 .5-.1.1-.1.3-.1.3-.3l.1-.2c0-.2-.1-.3-.2-.4-.1-.2-.3-.4-.4-.5-.1-.2-.2-.3-.2-.4 0 0 .1-.1.3-.2.2-.1.5-.1.8-.1.7 0 1.6.2 2.1.7.3.3.5.7.7 1 .1.2.1.3.2.4.1.1.2.2.4.2.3 0 .5-.2.6-.4.2-.3.4-.7.5-1 .1-.2.1-.3.2-.4l.1-.1-.1-.1v.2h.1l-.1-.1v.2-.2l-.1.2h.1v-.2l-.1.2.1-.2-.2.1s0 .1.1.1l.1-.2-.2.1h.1-.1.1-.1c0 .2-.1.8-.3 1.4-.1.7-.3 1.4-.3 2 0 .2 0 .4.1.5 0 .1.1.3.3.4.1 0 .2.1.3.1.3 0 .5-.1.8-.3.2-.2.4-.4.4-.7 0-.2-.1-.3-.1-.4-.2-.3-.3-.4-.4-.5-.1-.1-.1-.2-.1-.3 0-.3.1-.5.2-.7.1-.2.3-.3.4-.3 0 0 .1 0 .2.1.2.3.5 1 .5 1.7v.1c0 .5-.1.8-.2 1.1-.1.3-.2.5-.2.8 0 .1 0 .3.1.3.1.1.2.1.3.1.2 0 .4-.1.6-.2.3-.1.6-.3.9-.5.3-.1.6-.3.7-.2h.1s.1.1.1.3c0 .4-.2 1.1-.5 1.5-.3.5-.6.8-.9 1-.3.3-.7.6-1 1.1-.3.5-.3.9-.4 1.2 0 .3 0 .4-.2.5-.2.2-.5.3-.9.3-.6 0-1.4-.2-2.2-.5-.4-.1-.7-.2-1-.3-.1.1-.4.1-.6.1h-.2l-.2.1.2.1-.2-.1v.2c0 .2.1.3.2.4.3.4.8.8 1.6 1.1.9.4 1.8.5 2.4.5h.8v-.1.1-.1.1l.1-.1h-.1v.1l.1-.1h-.1l.2-.1h-.2.1-.1.1-.1.1l-.1-.1v.1h.1l-.1-.1s-.3.2-.6.3c-.5.2-1.1.5-1.6.8-.3.2-.5.3-.7.5-.2.2-.3.4-.3.7h.2-.2c0 .4.2.7.4.9l.3.3.1.1.1-.1H80v.1l.1-.1H80h.2-.2v.1h.2l-.2-.1.2.1-.2-.1.1.1v-.1H80l.1.1v-.1c-.1 0-.3 0-.5-.2-.2-.1-.5-.3-.8-.5-.5-.4-.8-.9-1-1.3-.1-.2-.2-.4-.3-.5l-.1-.2c0-.1-.1-.1-.3-.1-.1 0-.2.1-.3.2-.2.2-.2.6-.2 1v.5c.2 1.1 1.2 1.8 2.1 2.4.4.3.9.5 1.2.7.1.1.3.2.3.3l.1.2c0 .1-.1.2-.3.3-.3.1-.8.3-1.2.4l-.6.3c-.2.1-.3.3-.4.5h.2-.2v.1c0 .3.2.6.4.8.3.3.8.6 1.2.8.2.1.4.2.5.3l.1.1h.1-.1.1-.1.1-.1.1-.1.1l-.1-.1v.1h.1l-.1-.1h-.2c-.5 0-1.5-.2-2.7-.4-1.2-.3-2.5-.6-3.7-.9-.8-.2-1.6-.4-2.1-.6-.3-.1-.5-.2-.6-.3l-.1-.1h-.2.2-.2.2s.1-.1.2-.1c.2-.1.5-.2.7-.3.1 0 .2-.1.3-.2.1-.1.2-.2.2-.4s-.1-.3-.3-.4c-.4-.3-1.1-.5-1.9-.5-.5 0-1.1.1-1.5.4-.2.1-.3.3-.4.5-.1.2-.2.3-.3.5-.4.7-1.1 1.3-1.6 1.7-.3.2-.6.3-.8.4-.2.1-.4.1-.4.1v.1l.1-.1-.1-.1v.1l.1-.1-.1.1h.2v-.1l-.1.1h.1-.1.1-.1.1s.2-.2.4-.5c.3-.4.8-.9 1.2-1.3.2-.2.4-.4.5-.6.1-.2.2-.4.2-.6l-.1-.2c-.1-.2-.3-.2-.4-.2-.4 0-.8.2-1.2.5-.3.3-.4.5-.5.7 0 .1-.1.2-.1.2-.1 0-.3-.3-.5-.6s-.5-.6-1-.7c-.2-.1-.5-.1-.7-.1-.7 0-1.3.3-1.7.8-.1.2-.2.4-.2.6 0 .3.1.7.2.9.1.3.2.5.2.6l-.4-.2c-.7-.5-1.9-1.6-3.8-1.9-.4-.1-.8-.1-1.1-.2-.2 0-.3-.1-.4-.1l-.1-.2v-.1c0-.1.1-.3.2-.5s.2-.4.2-.7c0-.1 0-.2-.1-.3 0-.1-.1-.2-.3-.2-.2-.1-.4-.1-.7-.1-.7 0-1.4.2-1.9.4l-.6.3-.2.1.1.1-.1-.2.1.1-.1-.2.1.2-.1-.2.1.2-.1-.2.1.2v-.2h-.1l.1.2v-.2.2l.1.2 2.4-1.6-.1-.2-.1-.1h-.2c-.1 0-.2.1-.3.1l-.2.1v.2l-.1.1h.1l-.1.1h.1v-.1c0-.1.1-.4.2-.6.1-.2.3-.3.3-.3l.2.1c.1.1.2.3.3.5l.2.2.1.1s.1.1.2.1h.1c.1 0 .1-.1.2-.1.1-.1.1-.3.1-.5 0-.4-.1-.8-.2-1.3l-.3-.6c-.1-.2-.3-.3-.5-.4h-.1c-.4 0-.6.3-.9.6-.4.5-.8 1.2-1.2 1.8-.2.3-.3.6-.5.7l-.2.2v.1-.1.1-.1l.1-.1h-.1v.1l.1-.1.3.1.1-.1h-.1v.1l.1-.1h-.1.1-.1.1v-.1c0-.2.1-.7.1-1.2 0-.3 0-.6-.3-.8-.1-.1-.2-.1-.3-.1-.2 0-.4.1-.6.2-.2.1-.5.2-.8.3-.5.2-1 .2-1.5.2-.4 0-.8-.1-1.1-.2-.3-.1-.5-.3-.6-.4-.2.1-.2 0-.2-.1 0-.2.1-.4.2-.8.1-.3.2-.8.2-1.3v-.3c0-.6-.2-1.3-.5-1.8-.1-.2-.3-.5-.4-.6-.2-.2-.4-.3-.6-.3-.2 0-.3.1-.5.2s-.3.3-.4.5l-.1.2.1.1v-.1h-.1l.1.1v-.1.2l.1-.2H45v.2l.1-.2v.1l.1-.1h-.1v.1l.1-.1v-.2c0-.3.1-.7.4-.9.1-.1.3-.1.5-.1.4 0 .9.2 1.5.2.3 0 .5 0 .8-.2.4-.2.8-.6 1-.9.2-.4.4-.8.4-1.2 0-.2 0-.4-.1-.5-.2-.2-.4-.3-.6-.4-.4-.1-.8 0-1.1-.1-.2 0-.3 0-.4-.1-.1 0-.2-.1-.2-.2-.4 0-.4-.1-.4-.2 0-.2.1-.5.1-.7v-.2l-.1-.2h-.2c-.2 0-.3.1-.4.1l-.4.4c-.1.1-.3.2-.3.2l-.2-.2c-.1-.2-.1-.4-.1-.6 0-.3.1-.7.3-.9.2-.2.5-.2.8-.2h.7c.2 0 .4-.1.5-.3.1-.2.2-.4.2-.6 0-.4-.1-.7-.4-.9-.1-.1-.2-.1-.3-.1-.2 0-.4.1-.6.2l-.2.1h-.1v.1-.3.1-.1.2l.1-.1-.1-.1v.2l.1-.1-.1.1h.2v-.1l-.1.1h.2c0-.1.2-.4.4-.6 0-.2.3-.3.4-.3l.2.1c.1.1.1.2.2.4s.3.3.5.4c.1 0 .2.1.4.1.5 0 1.1-.3 1.3-.8.1-.2.1-.3.1-.5s0-.4-.1-.6V3.7h-.1.1-.1.1-.2l.2.1v-.1h-.2l.2.1-.2-.1.1.2.1-.1-.2-.1.1.2-.1-.2v.2-.2l-.1.1h.1v-.1l-.1.1s.2.3.3.4c.3.4.6.6 1 .8.4.2.8.3 1.3.6v-.2z"/><path fill-rule="evenodd" fill="#FBE91D" d="M68.7 21.1zM80.1 15c-.4 0-.7-.1-1-.3l-.2-.2c-.3-.2-.6-.4-.9-.4-.1 0-.3 0-.4.1-.3.1-.5 0-.5-.1-.1-.1-.2-.3 0-.6l.1-.2.1-.2.1-.2c.1-.1.2-.3.2-.4l.1-.1.1-.2c.1-.1.2-.3.3-.4-.2-.3-.4-.6-.4-1.1 0-.5.3-1 .7-1.3.3-.3.8-.4 1.3-.5.5 0 1 .1 1.4.4.1.1.2.2.3.2h.1c.1 0 .3 0 .5.1l.3.2-.2.3c-.1.1-.1.3-.2.4 0 .1-.1.2-.1.3v.1c-.1.2-.2.5-.5.6.4.4.7.9.7 1.6 0 .6-.4 1.2-.9 1.5-.4.3-.7.4-1 .4zm-.2-.9c.2.1.5 0 .7-.1.3-.2.5-.4.5-.8 0-.5-.3-.9-.8-1.3-.3-.2-.6-.5-.8-.8-.1-.2-.4-.5-.2-1l.1-.2c-.4.1-.8.4-.8.9 0 .2.1.3.3.6.1.1.3.2.5.3.1.1.2.1.3.2.4.2.8.5 1 1 .2.5 0 .8-.1.9-.3.1-.5.2-.7.3zm-1.8-.8c.1 0 .2 0 .3.1-.1-.1-.1-.2-.2-.3l-.1.2zm.7-.9c.3.5.6.7.9.8v-.1c-.1-.3-.5-.5-.6-.6-.1 0-.2 0-.3-.1zm1 .8zm-2.1-1zm2.4-1.8l.1.1c.1.2.3.3.5.5-.1-.1-.1-.2-.2-.3l-.1-.1c-.2-.1-.2-.2-.3-.2zm.8.5z"/><path fill-rule="evenodd" fill="#100E0C" d="M76.5 23.4c-.3 0-.5 0-.8-.1-.1 0-.3-.1-.5-.1l-.2-.1-.6-.3c-.5-.3-.9-.6-1.2-1-.3-.4-.5-.9-.7-1.3 0-.1-.1-.2-.1-.3 0-.1-.1-.2-.1-.3-.1-.1-.1-.2-.2-.3H72v1c0 .2.1.4.2.5l.2.2.2.2v.2H69.4v-.2c0-.1.1-.2.2-.3l.2-.2h.2c.1-.1.3-.4.3-.6v-.8-.4-.5c0-.4 0-.7-.1-1.1 0-.2-.2-.4-.3-.7l-.2-.2h-.1c-.1-.1-.2-.1-.2-.2v-.2h2.2c.5 0 1 0 1.4.1.6.2 1.2.3 1.6.8.3.4.4 1.1.1 1.5-.1.2-.3.4-.6.5-.1 0-.2.1-.4.1h-.1c.1.1.1.2.2.3l.1.2c.1.1.2.2.3.4l.2.2.2.2c.3.4.7.7 1.2 1.1.5.3.9.5 1.3.7.3.1.7.1 1.1.1h.2v.2c0 .1-.1.2-.3.3-.1.1-.3.1-.3.1-.2.1-.5.2-.7.2-.3.1-.5.1-.6.1zm-1.2-.5c.2 0 .4.1.5.1.3.1.8.1 1.1.1.2 0 .4-.1.6-.2h.1c-.2 0-.4-.1-.6-.1-.5-.1-.9-.4-1.4-.7-.5-.3-.9-.7-1.2-1.1l-.1-.2-.3-.2c-.1-.1-.2-.3-.3-.4l-.2-.3c-.1-.1-.2-.3-.3-.4l-.1-.1v-.1c0-.1.2-.2.4-.2.1 0 .2-.1.3-.1.2-.1.4-.2.5-.4.2-.3.2-.9-.1-1.2-.3-.4-.8-.6-1.4-.7-.4-.1-.9-.1-1.4-.1h-1.5l.1.1c.2.3.3.5.4.8.1.4.1.8.1 1.2V20.4c-.1.3-.3.6-.4.7l-.1.1v.2h2c-.1-.1-.1-.2-.2-.3-.1-.2-.2-.4-.2-.6 0-.3-.1-.6 0-.8v-.4h.4c.2.1.3.3.4.4l.1.3c0 .1.1.2.2.3.2.4.4.9.7 1.3.3.4.6.7 1.1 1 .2.1.3.2.5.3h.3zm-5.5-1.3zM80.1 14.7c-.3 0-.6-.1-.9-.3l-.2-.1c-.4-.2-.7-.4-1.1-.4-.2 0-.3.1-.5.1h-.2v-.2l.1-.2.1-.2.1-.2c.1-.1.2-.3.2-.4l.1-.1.1-.2v-.1c.1-.1.1-.2.2-.3h.1v.1c.2.4.6 1.3 1.3 1.3.1 0 .3 0 .3-.1 0 0 .1-.1 0-.3-.1-.3-.5-.6-.7-.7-.1-.1-.2-.1-.3-.2-.2-.1-.5-.3-.7-.5-.2-.2-.4-.6-.4-1 0-1 1-1.4 1.7-1.5.5 0 .9.1 1.2.3.1.1.3.2.4.2H81.6l.4.2-.1.1c-.1.1-.2.3-.2.5 0 .1-.1.2-.1.3v.1c-.1.2-.2.4-.3.4h-.1v-.1c-.1-.3-.2-.5-.4-.7l-.1-.1c-.1-.2-.3-.3-.4-.3-.1 0-.3 0-.4.1-.1.1 0 .2.1.4.2.3.4.5.7.7.5.5 1.1 1 1.1 1.8 0 .5-.3 1-.8 1.3-.4.2-.6.3-.9.3zm-2.2-1.1c.5 0 .8.2 1.2.5l.2.1c.5.3.9.3 1.4 0 .4-.2.6-.6.6-1 0-.7-.4-1.1-1-1.6-.3-.2-.5-.5-.7-.7-.1-.2-.3-.4-.2-.7.1-.2.4-.4.7-.3.3 0 .5.2.6.4l.1.1c.1.2.3.3.3.5v-.2c0-.1.1-.2.1-.3l.1-.3h-.1c-.1 0-.2 0-.3-.1.1 0-.1-.1-.2-.2-.3-.2-.6-.3-1-.3-.6.1-1.4.4-1.5 1.2 0 .2.1.5.3.8.1.2.4.3.6.4.1.1.2.1.3.2.3.2.7.5.8.9.1.3.1.5 0 .6-.1.2-.4.2-.6.2-.7-.1-1.1-.8-1.4-1.3v.1l-.1.1-.1.1c-.1.1-.2.3-.2.4l-.1.3-.1.2c0-.1.2-.1.3-.1zm3.8-3.5z"/><path fill-rule="evenodd" fill="#100E0C" d="M77.5 9.8v-.2l.1-.2v-.1c0-.1 0-.2.1-.3 0-.2.1-.5 0-.7V8c0-.1 0-.3.2-.3s.4-.1.6 0c.1 0 .3 0 .4.1 0 0 .1.1 0 .3v.1c-.1.2-.1.4-.2.6-.1.2-.3.4-.5.6v.1c-.1.1-.2.3-.4.3h-.3zm.4-1.8v.4c0 .3 0 .5-.1.8v.1c.2-.2.3-.4.4-.5.1-.2.2-.3.2-.5v-.1h-.1c-.1-.2-.2-.2-.4-.2zM57.1 21.8c-.1 0-.2 0-.3-.1v-.1h.1c.1 0 .2-.1.3-.2l.2-.2c.1-.1.2-.3.3-.4.1-.3.2-.5.2-.7v-.3-.3V18 17.4v-.3-.4c0-.3-.1-.7-.5-.7-.4-.1-.9 0-1.3.2-.5.1-1 .4-1.4.6l-.2.1c-.2.1-.5.2-.7.4l-.1.1c-.1.1-.2.2-.4.2l-.1.1c-.1.1-.2.2-.3.2l-.2.1v-.2l.1-.2v-.1l.2-.5c.1-.2.2-.3.3-.5.1-.2.3-.5.4-.7.1-.2.2-.4.3-.5.1-.1.1-.2.2-.3v-.1c0-.1.1-.3.3-.3H58.4v-.1l-.1-.2-.3-.2c-.1-.1-.1-.2-.2-.3-.1-.1-.1-.2-.2-.3l-.3-.6c-.1-.2-.3-.5-.5-.6l-.2-.1v1.2c0 .1 0 .3.1.4.1.2.2.3.1.4l-.1.1h-2.3v-.1c0-.1 0-.1.3-.4.1-.1.1-.2.2-.3 0-.1.1-.3.1-.4l-.1.2-.1.2c-.2.2-.3.4-.5.6l-.1.2c-.2.3-.4.5-.6.8l-.1.2-.1.1c-.1.1-.2.3-.3.4l-.1.2h-.3v.1h-3.5c-.1 0-.2 0-.3-.1l-.1-.1.1-.1c.1-.1.2-.1.3-.2l.2-.1.2-.1c.2-.1.3-.2.5-.3l1.2-.9H49.5V14c0-.1.1-.2.2-.3.1-.1.3-.2.4-.4.3-.3.4-.6.6-1 .2-.5.2-1.2.2-1.9v-.2c0-.6 0-1.1-.4-1.2-.3-.1-.7-.1-1.1-.1H47.9v-.2l.1-.2.2-.2c.1-.1.2-.2.2-.3l.1-.2c.1-.2.3-.4.4-.5.1-.2.2-.3.4-.5v-.1l.1-.2.1-.1.1.1.1.1c.1.2.2.3.3.4.2.2.6.2.9.2h.4c.5 0 1.1 0 1.6.4.4.4.8.8 1.1 1.3l.2.1.2.2c.1.1.2.2.2.3l.1.2c0 .1.1.2.2.3v.1l-.1-.2-.1-.1-.1-.1-.1-.2v-.2H58l.2.1c.3.1.6.2.8.3.5.3.7.7.7 1.2 0 .6-.4.9-.8 1.2-.1.1-.2.1-.3.1h-.1c.1.1.2.3.3.4.1.1.1.2.2.3l.1.1.2.3v-.1c0-.2.1-.4.2-.5v-.2c0-.2.1-.3.2-.5.3-.6.7-1.2 1.1-1.7l-.3-.3-.3-.2h-.1c-.1 0-.2-.1-.3-.2v-.2h2.4c.1 0 .2 0 .3.1l.1.2.1.2.1.2v.1s0 .1.1.2l.1.3c0 .1 0 .2.1.3 0 .1 0 .2.1.3v.1l.3-.6c.2-.3.4-.5.7-.8.4-.3.8-.5 1.4-.7.5-.1 1 .1 1.4.5-.1.1 0 .2 0 .4v.1h-.1l-.1.1-.1.2-.1.1-.1.1-.1.2v-.1h-.3v.1l-.1-.1-.2-.2h-.2c-.1 0-.2 0-.3.1-.2.1-.3.3-.5.6-.1.2-.1.4-.1.7 0 .4.2.8.6 1 .1.1.5.3.7 0 .1-.1 0-.3 0-.3l-.1-.1c-.1 0-.1-.1-.2-.2v-.2h1.9v-.2c0-.1 0-.2.1-.3v-.1s.1-.2.2-.3c0-.1.1-.1.1-.2l.1-.1.2-.2.2-.2.1-.1c.2-.2.5-.4.7-.6.3-.2.6-.4 1-.4.5 0 .9.4 1.2.7l.2.2.5.5.2.2v-2h.1c.1 0 .2.1.4.3l.1.1.4.4.1.1c.1.2.3.3.5.5l.5.5.1.2c.2.2.4.4.6.7l.2.2.2.2v-.8-.4V10v-.3c.1-.2.3-.2.5-.1H77.1v.1c0 .1-.1.2-.2.3l-.2.2c-.1.1-.2.3-.2.5V15h-.1c-.1 0-.2-.1-.3-.2-.2-.1-.4-.3-.6-.5-.2-.2-.4-.3-.6-.5l-.3-.2-.3-.3-.5-.5-.2-.2-.1-.1-.1-.1-.2-.4V14.1l-.1.2-.2.1h-1.1c-.1 0-.2 0-.2-.1l.1-.2.3-.3.1-.1.1-.2v-.1c.1-.1.1-.3.1-.4v-.4l-.1.2c-.1.2-.3.4-.5.6-.4.4-.8.6-1.2.8-.5.2-1 0-1.2-.1-.3-.1-.6-.3-.8-.5l-.1-.1-.1-.1c-.1 0-.2-.1-.4-.4-.1-.1-.1-.2-.2-.3l-.1.2c-.1.2-.3.4-.4.7-.3.4-.8.7-1.2.7-.5.1-1-.1-1.6-.3-.3-.2-.5-.3-.7-.5 0 .1.1.2.2.4l.1.1.2.2v.2H62c-.1 0-.2 0-.2-.1v-.2c.1-.1.2-.4.2-.6v-.4c-.1.1-.3.2-.4.3-.2.2-.3.4-.4.5l-.3.1-.1.2c0 .1-.1.2-.2.2h-.2.1l.2.2.2.2c.6.4 1.4.7 2 .7h.1v.1c0 .1-.1.2-.6.4-.3.1-.5.2-.7.2-.2 0-.4.1-.6 0H61c-.2 0-.3 0-.5-.1l-.2-.1c-.2 0-.3-.1-.5-.2l-.2.2v.1c-.1.3-.1.7-.1 1.1v3H59.8c.2 0 .5-.1.6-.2l.1-.1.2-.1.1-.1.1-.2c.1-.1.2-.3.3-.5 0-.1.1-.2.1-.3v-.1h.1c.1-.1.2-.1.4 0h.4l.2-.2v-.1l.3-.3.2-.2.2-.2h.1c-.1-.1-.4-.3-.9-.7l-.1-.1-.1-.1.2-.1c.1-.1.2-.1.5 0H64.5c.1 0 .2 0 .3.2l.1.2c0 .1.1.2.1.3 0 .1.1.2.1.3l.1.2c0 .1.1.3.1.4l.1.2v.2l.1.2c0 .1.1.1.1.3.1.1.1.3.2.5 0 .1.1.2.1.2l.6 1.2.3.3.2-.2.1-.2v-.4-.8-.9-.4c0-.3 0-.5-.1-.7-.1-.2-.1-.3-.2-.4l-.2-.2h-.1c-.1 0-.2-.1-.2-.2l-.1-.1.2-.1h3l.3.1v.1l-.1.1c-.1 0-.2.1-.3.2-.2.2-.3.4-.4.7v2.8c0 .2.1.4.3.6l.1.1.1.1.2.2v.1h-4.7c-.1 0-.2 0-.3-.1V21.4c.1-.2.1-.5 0-.7v-.1c-.1 0-.2.1-.3.1-.3.2-.8.4-.9.8-.1.2-.1.2-.3.2H57.3l-.2.1zm.3-.3H63c.1-.5.7-.8 1-1 .1-.1.3-.2.5-.2h.2l.1.2v.1c.1.3.1.6 0 .8H68.6l-.1-.1c-.2-.3-.3-.5-.4-.8-.1-.4-.1-.7 0-1.1v-.3-1-.6c.1-.4.2-.6.4-.9l.1-.1h-2.1l.1.1c.1.1.2.3.3.5.1.3.1.6.1.9V20.8c0 .2-.2.4-.3.4h-.2c-.1-.1-.3-.2-.4-.4-.3-.4-.4-.8-.6-1.3 0 0 0-.1-.1-.2-.1-.2-.2-.5-.2-.6l-.1-.2V18.2L65 18c-.1-.1-.1-.3-.2-.5l-.1-.2c0-.1-.1-.2-.1-.3 0-.1-.1-.2-.1-.3l-.1-.2H62.7c.8.6.8.7.8.8v.1l-.1.1-.3.5-.1.1-.2.2v.1l-.2.3c-.1.1-.3.1-.6.1H61.7l-.1.2c-.1.2-.2.4-.3.5-.1.1-.1.2-.2.2h-.2v.3h-.1l-.1.1c-.2.1-.5.2-.8.2h-.1c-.2 0-.4 0-.5-.1l-.1-.2v-.1-.5-.5-.6-.5-.7c0-.4 0-.8.1-1.2 0-.2.1-.3.2-.3s.2 0 .3.1h.1c.1.1.3.1.4.1l.2.1h1.1c.2 0 .4-.1.7-.2h.1c-.5-.1-1.1-.4-1.6-.7-.1-.1-.2-.1-.3-.2l-.2-.1-.2-.2-.1-.1c-.1-.1-.1-.2-.1-.2.1-.1.2-.1.4-.1H60.6l.1-.2c0-.1.1-.2.1-.2.1-.2.3-.4.5-.6 0 0 .2-.2.3-.2.2-.2.4-.2.5-.1.1.1.1.2.1.3v.5c0 .2 0 .4-.1.6h1.5c-.1-.1-.1-.3-.2-.4v-.1c-.1-.2-.2-.4-.2-.7v-.1h.1c.1 0 .2.1.3.3v.1l.2.3c.2.2.4.3.6.5.5.3 1 .4 1.4.3.4 0 .8-.3 1-.6.2-.2.3-.4.4-.7V12.8l.1-.2H66l.1.1c.1.2.1.5 0 .7-.3.4-.8.3-1.1.1-.4-.3-.7-.7-.7-1.2 0-.3 0-.5.2-.8.1-.2.3-.5.6-.7.1-.1.3-.2.5-.1h.2l.1.1.2.2.1.1.1-.1.1-.1.1-.1.1-.1.1-.2-.1-.1c-.2-.3-.6-.6-1.1-.5-.5.1-.9.4-1.3.6l-.7.7-.3.6v.4l-.1.2-.1-.1-.1-.2c-.1-.3-.2-.6-.2-.8 0-.1 0-.2-.1-.3 0-.1-.1-.2-.1-.3 0 0-.1-.4-.1-.5v-.4c0-.2-.1-.2-.1-.3v-.1h-1.6l.2.1c.1.1.2.3.3.4.1.1.2.2 0 .4-.4.5-.8 1-1.1 1.6-.1.1-.1.2-.1.4l-.1.3c-.1.1-.1.3-.1.4v.2h-.1c0 .1 0 .2-.1.2l-.1.1h-.1l-.2-.2c-.1-.1-.1-.2-.3-.4l-.1-.1c-.1-.1-.2-.2-.2-.3-.1-.2-.2-.3-.3-.4 0 0-.1-.1-.1-.2s.1-.1.2-.2h.1l.2-.1c.3-.2.7-.5.6-.9 0-.4-.2-.7-.6-1-.2-.1-.5-.2-.8-.3l-.2-.1H54.8c0 .1.1.1.1.2.1.2.1.5.1.8v.2h-.2c-.1 0-.2-.1-.2-.2l-.2-.2-.2-.2-.2-.2c-.1-.1-.2-.3-.3-.4l.3-.1-.2-.2c-.3-.4-.7-.9-1.1-1.2-.4-.3-.9-.3-1.4-.3h-.4c-.3 0-.7 0-1-.3-.1-.1-.2-.2-.3-.4-.1.2-.2.3-.4.5-.1.2-.3.4-.4.5l-.1.2c-.1.1-.2.2-.2.3l-.1.2h1c.4 0 .8.1 1.2.1.7.2.7.9.7 1.5v.2c0 .7 0 1.5-.2 2s-.4.8-.7 1.1c-.1.1-.2.2-.4.3h1.5c.1 0 .2.1.2.1 0 .1-.1.3-.2.4l-1.2.9c-.2.1-.3.2-.5.3l-.1.1-.1.1h3.1l.1-.1.1-.2c.1-.1.2-.3.3-.4l.1-.1.1-.2c.2-.3.4-.5.6-.8l.1-.2c.2-.2.3-.5.5-.6l.1-.2c.1-.1.1-.2.2-.3l.1-.1c.1-.1.1-.2.2-.2h.2v.4c0 .2 0 .5-.1.8-.1.2-.1.3-.3.4h1.7l-.1-.1v-.1c-.1-.2-.1-.4-.1-.5v-.3-.7-.4h.1c.2 0 .4 0 .5.1.3.2.5.5.6.7l.3.6c.1.1.1.2.2.3.1.1.1.2.2.4l.1.2.1.2c.1.1.1.2.2.3l.1.3-.3-.1h-3.9l-.1.1v.1c-.1.1-.1.2-.2.3l-.3.6c-.1.2-.3.5-.4.7-.1.1-.1.2-.2.3l.2-.1.1-.1c.2-.1.5-.3.7-.4l.2-.1 1.5-.6c.5-.1 1-.3 1.5-.2.5.1.8.5.7 1.1V19.9c0 .2-.1.5-.3.8-.1.2-.2.3-.4.5l-.3.3zm9.6-.9zm-.5-4.1zm-2.8-2.2zm9.4-2.7c.1.2.2.3.3.3l.2.1.1.1.2.2c.2.2.4.3.5.5l.3.3.3.2c.2.2.4.3.6.5.2.2.4.3.5.4v-.1-.4-.9-.5-.8-.6-.5c0-.2.1-.4.2-.6l.2-.2h-.7v3.3l-.2-.1c-.1 0-.2-.1-.3-.2l-.1-.1-.2-.2-.2-.2c-.2-.2-.4-.4-.6-.7l-.1-.4-.5-.5-.5-.5H73c-.1-.1-.2-.3-.4-.4l-.1-.1V11.8l-.2-.1c-.1 0-.1-.1-.2-.3l-.1-.1v-.1l-.2-.2-.1-.1s-.1-.2-.4-.4l-.2-.2c-.3-.3-.6-.6-1-.6-.3 0-.5.2-.8.3-.2.2-.5.3-.7.5l-.1.1-.1.1-.2.3-.1.1-.1.2-.1.2-.1.2v.1l-.1.2v.4l.1.2v.1c.1.1.1.2.2.3.1.1.2.3.3.3l.3.2c.2.1.4.3.7.4.4.2.7.2 1 .1.4-.1.7-.4 1-.7.2-.2.4-.4.5-.6l.1-.2c.2-.4.3-.5.4-.5h.1v1.1c0 .2-.1.3-.2.5l-.1.1-.1.1.1.2-.1.1H72.9v-.7-.5-.4c0-.8 0-.9.1-1l.1.1zm-1.2 2.5zm0-.3zm-4.4-1.3zm-8 0zm3.7-.6zm9.3-.5zm-4.5-.1zm-1.9-.4zm-.5-.3zm-4.7-.4z"/><path fill-rule="evenodd" fill="#100E0C" d="M68.5 18.9c-.1 0-.2-.1-.2-.2v-.1h.1l.2.2-.1.1zm0-.3l-.1.1v.1l.1.1v-.1h.1c.1-.2 0-.2-.1-.2zM62.8 20.8l-.2-.1c-.1-.2.2-.9.2-.9.1-.2.2-.4.4-.6.1-.2.2-.3.4-.4.1-.1.2-.1.3-.2h.2c.1 0 .2 0 .4.8v.5c0 .2-.2.2-.5.4h-.2l-.2.1h-.1l-.1.1s-.1.1-.3.2H63s-.1.1-.2.1zm0-.3zm1.2-1.7l-.2.2-.3.3-.3.6c0 .1-.1.3-.1.5l.1-.1c.2-.1.3-.2.4-.2.1-.1.2-.1.3-.2h.1l.1-.1.3-.1V19.4c-.2-.2-.3-.5-.4-.6zM68.5 18c-.1 0-.2-.1-.2-.2v-.1h.1l.2.2-.1.1zm0-.2l-.1.1v.1l.1.1V18h.1c.1-.2 0-.2-.1-.2zM71.9 19h-.2l-.1-.2V18.5 17.8c0-.2 0-.5.1-.6h.2c.5 0 1 0 1.4.4.2.2.3.5.2.8-.1.3-.3.6-.6.8-.2-.2-.6-.2-1-.2zm0-1.7V18.9h.1c.3 0 .6 0 .8-.1.2-.1.4-.3.5-.6 0-.2 0-.4-.2-.5-.2-.4-.7-.4-1.2-.4zM66.3 12.2l.1-.1.1.1.1.1-.1.1zM60.3 13.4c-.2-.1-.2-.2-.2-.4 0-.3.1-.5.3-.8.1-.2.3-.4.5-.6l.1-.1.1-.1.2-.1.1-.1v-.1h.1c.2 0 .2.2.4.8.1.3 0 .4-.2.5-.3.2-.7.4-.9.7l-.1.1-.2.2h-.2zm1.2-1.9l-.1.1-.2.2-.1.1c-.2.2-.3.4-.4.6-.1.2-.2.4-.2.5l.1-.1c.3-.2.6-.5 1-.7l.1-.1V12c-.1-.3-.1-.5-.2-.5zM59.4 11.3c-.1 0-.2-.1-.2-.2V11h.1l.2.2-.1.1zm0-.3l-.1.1v.1l.1.1v-.1h.1c.1-.2 0-.2-.1-.2zM70.4 13.3c-.3 0-.6-.2-.9-.5l-.2-.2-.2-.2-.1-.1-.3-.3-.1-.2c-.1-.1-.2-.2-.2-.3-.1-.2 0-.4.1-.6.1-.1.2-.3.4-.4l.2-.1h.5c.1 0 .2.1.3.1l.3.3.1.1.8.8c.2.2.5.6.2 1.1-.1.2-.3.3-.5.4l-.2.1h-.2zm-1-2.7h-.1l-.1.1-.3.3c-.1.1-.1.2-.1.4l.1.2.1.2.2.3.1.1.2.2.2.2c.3.3.5.4.7.4l.2-.1c.2-.1.3-.2.4-.3.2-.2.1-.4-.2-.7-.3-.3-.5-.6-.7-.8V11l-.3-.3-.2-.1h-.2zM57.1 11.5h-.4l-.2-.1-.1-.2v-.4V9.7c0-.1.1-.2.1-.2h.2c.4 0 1 0 1.3.3.2.2.3.4.3.7 0 .3-.2.6-.4.7-.2.3-.6.3-.8.3zm-.4-.3h.4c.3 0 .5-.1.7-.2.1-.1.3-.3.3-.5 0-.1 0-.3-.2-.4-.3-.2-.7-.2-1.1-.2h-.1v1.3zM51.8 13.8h-.2v-.2V13v-.3-.3-.6-.7-.7V9.5v-.4-.4l.4-.2.1.1.3.3.1.1.3.3.1.1.5.5.1.1.3.3.2.2.1.1c.2.2.4.4.4.7 0 .3-.3.7-.6.9l-.1.1c-.2.1-.3.3-.5.4l-.1.1-.2.1-.1.1-.2.2-.2.1c-.1.1-.2.2-.3.2l-.1.1c0 .1-.1.2-.3.2zm0-.3zm.4-4.5v4.3l.2-.2.2-.2.2-.2.1-.1.1-.1.2-.2c.1-.1.3-.2.4-.4l.1-.1c.1-.1.5-.4.5-.6 0-.2-.2-.3-.3-.5l-.1-.1-.2-.2-.3-.3-.2-.1c-.1-.2-.3-.3-.4-.5l-.1-.1-.3-.3-.1-.1z"/><path fill-rule="evenodd" fill="#E75F09" d="M62.9 9.5zM73.1 9.2zM47.8 8.4zM77.7 12.2v.1zM57.2 10.2h-.1l-.1.3v.1s0 .2.1.2c.1.1.2.1.3 0 .1 0 .3-.1.3-.3l-.1-.2c0-.1-.2-.1-.4-.1zM70.1 18.1c0-.3-.1-1-.5-1h-.1l-.1.1c-.1.1-.2.2-.2.3-.1.2-.1.4-.1.6V20.4c0 .1.1.3.1.5 0 .1.1.2.2.2s.2-.1.3-.2c.3-.3.3-.6.3-.9v-.1-.9V18.4c.1-.1.1-.2.1-.3zM61.8 16.6h.1v.1z"/><path fill-rule="evenodd" fill="#E75F09" d="M59.9 19.2v.3l.2.1c.3 0 .6-.2.7-.4.2-.2.2-.4.3-.6v-.1c.1-.2.2-.4.3-.4h.2c.2 0 .5 0 .6-.2l.2-.2.1-.1.1-.1v-.1c0-.1-.1-.2-.2-.3-.1-.1-.2-.1-.3-.2l-.1-.1-.1-.2c-.1-.1-.3 0-.4 0h-1.1c-.1 0-.2-.1-.3-.1H60c0 .1-.1.2-.1.3v2.4zM69.2 11.6c.1.1.2.3.4.4l.2.2.2.2.1.1c.1.1.2.2.4.2h.1l.1-.1c.1-.1.2-.2 0-.5-.1-.2-.2-.3-.4-.4l-.3-.3v-.1c-.1-.1-.3-.2-.4-.3h-.1l-.1.1-.1.2-.1.3zM52.4 11.6v.7l.1.2c.1 0 .3-.1.4-.1.2-.1.4-.3.5-.4l.1-.1c.1-.1.3-.2.3-.4l-.1-.2-.1-.2-.3-.3-.1-.1-.1-.1v-.1c-.1-.2-.2-.3-.4-.3 0 .1-.1.2-.1.3v.7c-.2.1-.2.3-.2.4zM47.8 8.4zM72.5 17.6h-.1v.4l.1.2h.2c.1 0 .3-.1.4-.3v-.3c-.2.1-.5 0-.6 0z"/><path fill-rule="evenodd" fill="#FFED00" d="M82.3 10.6c.1-.2.2-.3.2-.5v-.2l-.1-.2c-.1-.1-.2-.2-.3-.2-.3-.1-.4 0-.7-.1-.3-.1-.3-.2-.7-.4 0 0-.5-.2-.8-.2h-.4c-.2 0-.2.1-.3 0 0 0 0-.1.1-.3 0-.1.1-.2.1-.3v-.4l-.1-.1c-.6-.4-1.3-.3-1.3-.3-.3 0-.4.1-.6.2-.1.2-.2.5-.1.7v.6h-.8c-.3 0-1.1 0-1.4.4-.1.1-.1.4 0 .9 0 .4.1.8 0 .8l-.1-.1-.1-.1c-.1-.1-.1-.2-.2-.2l-.5-.5c-1-1.1-.9-.9-1-1 0 0-.2-.3-.5-.4l-.2-.1c-.2 0-.4.1-.4.1l-.2.2s-.1.1-.1.2v.6l-.3-.3-.2-.2-.2-.1c-.1-.1-.6-.3-1.1-.3-.6 0-1 .4-1.9 1.2-.3.2-.6.6-.8.9l-.3.6v.1h-.5c-.6 0-.9-.1-1.1.1l-.2.2v-.1c0-.2.1-.4.1-.4.1-.2.2-.3.2-.3.1 0 .1.1.2.2.2.2.4.2.6.2.4 0 .8-.6 1-1 .1-.2.1-.3.1-.3.1-.5-.4-.8-.6-1-.6-.5-1.4-.5-1.4-.5-.6 0-1.2.3-1.5.6-.2.2-.5.4-.7.6h-.1c-.1 0-.1-.1-.1-.3 0 0 0-.1-.1-.4 0-.1-.1-.5-.4-.6-.1-.1-.3-.1-.7-.1H60.1c-.4 0-.6 0-.7.2-.1.1-.1.2-.2.3-.2-.2-1.1-.4-1.7-.5h-3l-.1-.1c-.1-.2-1.2-1.6-2.4-1.7h-.9c-.6 0-.7-.1-.8-.2-.2-.2-.2-.4-.5-.5 0 0-.2-.1-.4-.1-.1 0-.2.1-.3.1-.2.2-.4.4-.5.6-.1.2-.3.4-.6.8s-.4.5-.5.8c-.2.3-.2.5-.1.6 0 .2.2.3.2.3.2.2.4.1 1.2.1.5 0 1 0 1.4.1h.1v1.5c-.1.9-.1 1.4-.4 1.7l-.6.6c-.3.3-.5.3-.5.5-.1.2 0 .5.2.7.2.2.5.1.5.1s-.1.1-.3.2c-.2.1-.3.2-.5.3-.4.2-.6.4-.7.5-.1.2 0 .5.2.7.2.2.4.2.7.2H52.6s0 .1-.2.4c-.1.2-.1.2-.2.3v.2c0 .3.2.4.2.5 0 0 .2.2.4.2.1 0 .2-.1.3-.1.3-.2.5-.3.7-.5.2-.2.7-.4 1.6-.8.2-.1.6-.2 1.6-.4h.3c.1.1.1.3 0 .4V19c0 .7 0 .8-.1.9-.1.3-.3.6-.4.6-.3.3-.5.3-.6.5-.1.2-.1.5 0 .7l.2.2c.2.1.4.1.5.1h5.6c.4 0 .5 0 .7-.1.1 0 .2-.1.3-.2.1-.1 0-.2.1-.3l.2-.1v.2s0 .1.1.3c.1.2.5.2.6.3.9.1 3.2 0 4 0h2.8s.6.1.9 0c.3-.1.4-.1.4-.1h.1l.1.2c.1.2.8.8 1.3 1.1 1.3.8 2.8.6 3.2.5.3-.1.5-.2.9-.4.1-.1.2-.1.3-.3l.1-.2c0-.3-.3-.6-.6-.8l-.7-.1h-.1s-.6-.1-1-.4l-.2-.1-.1-.1-.2-.2c-.2-.2-.4-.3-.6-.6-.4-.4-.2-.4-.6-.7-.1-.1-.2-.2-.1-.3 0-.1.2-.1.2-.2.4-.1.9-1.8.3-2.8-.5-.8-1.5-.8-3.3-1-1.6-.1-2.1.2-3.4 0-.5-.1-1 0-1.5 0-.3 0-.6 0-.8.2-.1.2-.2.4-.1.6.1.2.3.2.5.5.1.2.2.4.2.6.1.3 0 .4 0 1s.1.9 0 1l-.2-.4c-.1-.3-.2-.4-.2-.6-.2-.6-.2-.6-.5-1.3-.3-.9-.2-.9-.4-1.1-.2-.2-.6-.5-1-.4h-.7v-.4c0-.1-.1-.3-.3-.4-.1 0-.1 0-.6-.1-.2 0-.3-.1-.3-.1H64c.2-.1.2-.2.3-.2.1 0 .2.1.3.1.2.1.4.1.7.1.8.1 1.4-.3 1.4-.4.3-.2.5-.3.6-.6.1-.1.1-.3.2-.3s.2.1.2.2c.3.4 1 .8 1.5.9.5.1 1.2 0 1.4-.1h.2l.1.1c0 .1.1.1.3.2.2.1.3.1.7.1h.8c.4 0 .6-.1.7-.2.2-.2.2-.4.2-.8v-.5-.3s.1 0 .2.2l.3.2c.2.2.2.2.6.5.8.7.8.8 1.1 1 .2.1.5.2.7.1l.2-.2c.1-.2.1-.4.1-.4v-.1H77.1c.1 0 .2 0 .3-.1 0 0 .4-.2.7-.1.1 0 .2.1.4.2s.3.2.3.2.3.2.7.3c.8.2 1.6-.3 1.6-.3.3-.2.5-.5.6-.6.2-.3.3-.6.3-.7.1-.4 0-1.1-.3-1.5-.1-.1-.2-.2-.2-.3 0-.1.1-.2.2-.3.4.1.3.1.6-.5zm-4.9-1c.1-.3.1-.5.2-.8.1-.3 0-.6 0-.8 0-.1.1-.2.2-.2h.3c.2 0 .5 0 .7.1.2.1.1.4 0 .6-.2.6-.5 1.1-1 1.4-.1.1-.2.2-.3.1-.1-.2-.1-.3-.1-.4zm-.7.2c-.3.3-.3.9-.3 1.3V14.2c0 .2.1.6-.2.7-.2 0-.5-.3-.6-.4-.2-.2-.5-.4-.6-.6l-.3-.3-.2-.2c-.2-.2-.5-.4-.7-.6l-.3-.3c-.1-.1-.1-.2-.2-.2-.1.1 0 .3 0 .4V14.5c-.1.2-.4.1-.6.1h-.9c-.1 0-.3 0-.4-.1v-.3l.3-.2c.1-.1.2-.2.2-.3.1-.2.3-.4.3-.7l-.2.2-.2.2c-.1.2-.3.4-.5.5-.4.3-.8.5-1.2.4-.5 0-1-.3-1.4-.6-.2-.1-.3-.3-.5-.4-.1-.1-.3-.3-.4-.5l-.2.3c-.1.2-.3.4-.4.6-.3.3-.6.5-1 .6-.4.1-.8.1-1.2-.1l-.6-.3c-.1 0-.2-.1-.3-.2l-.2-.1c0 .2.5.4.2.6-.1.1-.3 0-.5 0h-1.1c-.2 0-.5.1-.7 0-.3-.2.1-.5.1-.7V13c0-.1-.2 0-.2.1-.3.2-.5.5-.6.8-.1.2-.1.4-.4.4l.3.3c.1.1.2.2.4.2.2.1.5.2.8.3.3.1.5.1.8.2.2 0 .4.2.2.4-.1.2-.4.2-.6.3-.3.1-.5.2-.8.3-.5.1-1.1.1-1.5-.1-.1 0-.3-.1-.4-.1-.1 0-.1-.1-.1.1 0 .1 0 .2-.1.3v3.2c0 .1 0 .2.2.2s.5-.1.7-.2c.5-.2.8-.7.9-1.2.1-.3.3-.2.6-.2.2 0 .3 0 .4-.1l.3-.3c.1-.1.2-.2.4-.3.1-.1.2-.1.1-.2l-.5-.5c-.1-.1-.5-.2-.4-.5.1-.2.3-.1.5-.1H65c.2 0 .2.4.3.6l.6 1.8c.2.5.4 1.1.7 1.6.1.2.2.5.4.6l.2-.2c0-.1.1-.3.1-.4v-1.2-.8-.8c-.1-.2-.2-.5-.4-.6-.2-.1-.4-.2-.3-.5.1-.1.3-.1.4-.1h4.7c.6 0 1.2 0 1.8.1.6.1 1.1.3 1.5.7.4.3.5.8.5 1.3-.1.5-.5.9-.9 1.1l-.3.1v.1c.1.1.1.2.2.3.1.2.3.5.5.7.4.4.8.8 1.3 1.1.5.3 1 .5 1.6.7.2 0 .3.1.5.1h.3c.2.1.1.4 0 .4-.3.1-.5.2-.8.3-.3.1-.5.1-.8.1-.5.1-1.1-.1-1.6-.3-.5-.2-1-.5-1.4-.9-.4-.4-.7-.9-1-1.4-.1-.3-.3-.5-.4-.8-.1-.1-.1-.3-.2-.4-.1-.1-.1.1-.1.2 0 .3 0 .5.1.7.1.2.2.5.3.6.1.1.2.1.2.3 0 .1-.1.2-.1.2H69.8l-.2.1h-4.1c-.2 0-.7.1-.7-.2 0-.1.1-.2.1-.3v-.4c0-.1 0-.2-.2-.2-.1.1-.2.1-.4.2s-.4.2-.6.4c-.1.2-.1.5-.3.4H57.5c-.2 0-.5 0-.5-.3 0-.1.2-.2.2-.2l.3-.2c.2-.2.4-.4.5-.7.2-.5.1-1.2.1-1.7v-1.8-.8c-.1-.3-.3-.3-.5-.3-.3 0-.6 0-.9.1l-.9.3c-.8.4-1.3.7-1.8 1-.3.2-.5.4-.8.5-.1.1-.1.2-.2.2s-.2-.1-.2-.1c-.1-.1.1-.2.1-.4.1-.1.2-.3.2-.4.1-.3.3-.5.4-.8.2-.3.3-.6.5-.8.1-.2.2-.5.4-.6.1-.1.3 0 .4-.1h3.5l-.1-.3c-.1-.1-.1-.3-.2-.4-.3-.5-.5-1-.9-1.4-.1-.1-.2-.2-.2 0v1.2c0 .1.1.3.2.4.1.1.1.2.1.3 0 .2-.4.2-.5.2H54.8c-.3 0-.3-.3-.1-.4.2-.1.3-.4.4-.6l-.1.2c-.1.1-.1.2-.2.3-.1.2-.2.4-.4.5-.3.4-.6.8-.9 1.1-.2.2-.3.4-.5.6-.1.2-.3.2-.5.2h-3c-.2 0-.5.1-.7 0-.1-.1-.2-.3-.1-.4.2-.1.4-.2.5-.3.2-.1.4-.3.7-.4.2-.1.4-.3.6-.4.1-.1.4-.3.4-.4H49.7c-.1 0-.3 0-.4-.1-.2-.3.3-.5.4-.6.2-.2.5-.4.7-.7.4-.6.3-1.4.4-2.1v-.9c0-.3 0-.6-.3-.7-.3-.1-.6-.1-.8-.1H48.4c-.2 0-.5.1-.5-.2 0-.1.1-.3.2-.4.1-.1.2-.3.3-.4.1-.1.2-.2.2-.3l.2-.3.2-.2c-.1-.4 0-.5.1-.6.1-.2.3-.5.5-.5s.2.2.3.3c0 .1.1.2.2.3.2.2.5.1.7.2.5 0 1.1-.1 1.6.1s.9.6 1.2 1c.2.2.4.5.6.7l.3.3.2.2c-.1-.2-.4-.4-.2-.6.1-.1.3-.1.4-.1H57.1c.3-.1.7.1 1 .1.3 0 .7.2 1 .4.3.2.5.4.6.8.1.3.1.6 0 .9-.1.3-.3.5-.5.6-.1.1-.2.1-.3.2l-.2.2c0 .1.2.3.3.4l.3.3c.1.1.1.2.2 0 0-.1.1-.2.1-.4.2-.5.5-1 .8-1.5.1-.1.2-.3.3-.4l.2-.3-.3-.1-.3-.3c-.1-.1-.5-.2-.5-.4s.2-.3.4-.3h2.2c.3 0 .2.3.3.5.1.3.2.6.2.9l.2.6c.3-.6.8-1.1 1.5-1.5.6-.3 1.4-.6 2-.1.2.1.3.3.4.4.1.1.2.2.1.4-.2.3-.4.6-.6.8-.2.3-.5-.2-.7-.3-.3-.2-.6.2-.8.4-.2.4-.3.9-.1 1.3.1.2.3.4.5.5.1.1.6.1.6-.1 0-.1-.1-.2-.2-.3-.1-.1-.2-.1-.2-.2 0-.3.3-.2.5-.2h1.2c.1 0 .1-.1.1-.2.1-.6.6-1.1 1-1.4.4-.4.8-.7 1.3-1 .2-.1.6-.1.8-.1.2.1.4.3.6.4l.3.3.3.3c.1.1.2.2.2.3l.2.2V9.3c0-.1 0-.3.1-.3s.2 0 .3.1l.5.5c.4.5.9.9 1.4 1.4l.6.6.3.3.1.1c.1-.2 0-.5 0-.7 0-.2.1-.5 0-.7v-.4-.3-.6c0-.2.3-.2.4-.2h.6c.2 0 .7-.1.7.2.1.3-.2.4-.4.5zm-16.6 7.5c0-.2-.1-.4 0-.6.1 0 .3.1.4.1h1.3l.1.1.1.1c.1.1.3.2.4.3l.2.2-.1.1-.3.3c-.2.2-.5.1-.8.1-.2.1-.4.3-.5.5-.1.2-.1.5-.3.7-.1.1-.4.3-.6.3v-.7-.7c.1-.2.1-.5.1-.8zm0-7.2l.1.1-.1.1v-.2zm16.8 3v-.2-.5-.9-.7c0-.3 0-.5.2-.7l.1.1.2.1c.1.1.1.1.1.2v.2c0 .3 0 .5.1.8 0 .1.1.3.2.4 0 .1-.2.3-.2.4-.2.3-.4.6-.5.9-.1 0-.2.1-.2-.1zm4.5-1.8c0 .1-.2.2-.3.1-.1-.1-.1-.2-.2-.3-.1-.2-.3-.4-.4-.6-.1-.2-.5-.4-.7-.2-.2.2.1.4.2.5.4.4.9.7 1.2 1.2.3.4.5.9.4 1.4 0 .5-.4 1-.9 1.2-.5.2-1 .2-1.5 0s-.8-.6-1.4-.6c-.1 0-.3 0-.4.1-.1 0-.2.1-.3.1s-.1-.2-.1-.3c0-.1.1-.3.2-.3.3-.5.6-1 .9-1.4.1-.2.3-.1.4.1l.3.6c.2.3.7.9 1.1.6.2-.1 0-.5-.1-.6-.2-.2-.4-.4-.7-.5-.5-.3-1-.6-1.2-1.1-.2-.5 0-1 .3-1.4.1-.2.4-.4.6-.5.1-.1.3-.1.4-.1.1 0 .3 0 .4-.1.3 0 .5 0 .8.1l.6.3c.2.1.4.2.6.2.1 0 .4 0 .4.2 0 .1-.1.2-.1.3-.1.1-.1.2-.2.3-.1.2-.2.5-.3.7zm-27.8-.6c-.2-.2-.3-.4-.5-.6-.2-.2-.3-.4-.5-.5-.1-.1-.3-.4-.4-.4-.1.2 0 .4 0 .6v.5c0 .3-.1.7 0 1v1.5c0 .1-.1.3 0 .4l.2-.2.3-.2c.2-.2.4-.3.6-.5l.6-.6c.1-.1.4-.3.2-.5s-.3-.4-.5-.5zm-.3.9c-.1.1-.3.3-.5.4l-.2.1v-.4-.6-.6-.4l.3.3.2.2c.2.1.3.3.4.5.2.2-.1.4-.2.5zm16.8-.5c-.2-.1-.4-.3-.6-.4l-.3.1-.3.3c-.1.1-.2.2-.1.3.1.1.2.3.2.4.2.2.4.5.7.7.2.2.4.4.7.4.3 0 .6-.2.7-.5.1-.2-.2-.5-.4-.6-.1-.2-.3-.5-.6-.7zm.4 1.5c-.2 0-.3-.1-.4-.2l-.4-.4-.4-.4v-.2l.2-.1c.1 0 .3.1.4.2l.4.4.4.4c.1.1 0 .1-.2.3zM57 10h-.2v1.2h.3c.2 0 .4 0 .5-.1.3-.1.5-.5.4-.8-.1-.3-.7-.3-1-.3zm.4.7c-.1 0-.2 0-.2-.1v-.2c.1 0 .4 0 .4.1 0 .2-.1.2-.2.2zm14.7 8h.3c.2 0 .4-.1.6-.2.1-.2.2-.3.2-.5 0-.1-.1-.3-.2-.4-.3-.2-.7-.2-1-.2-.1 0-.1 0-.1.1v1c.1 0 .1.2.2.2zm.4-.9c.1 0 .3 0 .3.1.1.1-.1.3-.2.3s-.1.1-.2-.1c.1-.1 0-.2.1-.3zm-11-6.2c-.1.1-.2.2-.3.2l-.2.3c-.1.1-.2.2-.2.3l-.1.2c.1 0 .2-.2.3-.2.1-.1.2-.2.4-.2l.2-.1c.1-.1.1-.1.1-.2l-.2-.3zm7.9 9.8c.1.1.2 0 .3-.1l.3-.3c.1-.1.3-.3.3-.6.1-.5 0-1 0-1.4v-.7-.6c-.1-.4-.3-.9-.7-1l-.3.2c-.1.1-.2.2-.2.3-.1.2-.2.4-.2.6-.1.4 0 .8 0 1.2-.1.8-.3 1.9.5 2.4zm-.2-2.1v-1.2c0-.2 0-.4.1-.6l.3-.3c.3 0 .3.7.3.8v1.9c0 .3 0 .6-.3.8-.1.1-.2.2-.3 0-.1-.1-.1-.3-.1-.4v-1zm-5.3.5l.3-.1v-.2c0-.1-.1-.3-.1-.4 0-.1 0-.2-.2-.1l-.1.1-.3.3c-.2.2-.4.5-.4.8.1 0 .3-.1.4-.2.1-.1.3-.1.4-.2z"/><path fill-rule="evenodd" fill="#D90011" d="M68.7 16.5h-2.4l.2.1.2.2c.1.1.2.3.3.5.1.4 0 .8.1 1.2v2.1l-.1.2-.3.3c-.1-.1-.3-.2-.4-.4-.3-.4-.4-.8-.6-1.2 0-.1-.3-.9-.4-.9l-.1-.3-.1-.3c-.1-.2-.1-.4-.2-.6-.1-.2-.1-.4-.2-.6l-.1-.3c0-.1-.1-.1-.2-.1h-2.1l1.1 1-.2.1-.2.2c-.1.1-.3.2-.4.4-.1.1-.2.2-.2.3-.1.1-.4.1-.5 0h-.3c0 .1-.1.2-.1.3-.1.2-.2.3-.3.5l-.2.5-.1.1-.3.2c-.2.1-.5.2-.7.2-.1 0-.5.1-.5-.1v-.6-1.1-.6-.6c0-.4 0-.8.1-1.1l.1-.3.2.1c.2.1.4.1.6.2.2.1.4 0 .5.1h.6c.2 0 .5-.1.7-.2l.6-.3c-.7 0-1.5-.4-2-.8-.2-.1-.3-.2-.4-.4-.1-.1-.2-.2-.2-.3-.1-.1.2-.1.3-.1h.3l.2-.5c.1-.2.3-.4.4-.6.1-.1.5-.4.6-.3v.6c0 .2 0 .5-.2.7-.1.1 0 .1.1.1h1.9l-.2-.1c-.1-.1-.1-.3-.2-.4-.1-.2-.2-.5-.2-.8l.2.3c.1.1.2.2.2.3.2.2.4.4.7.5.5.2 1 .4 1.5.3.4-.1.9-.3 1.1-.7.2-.2.3-.4.4-.7l.1-.2c0-.1.1-.2.1-.3l.1.2c.1.1.1.2.2.3l.4.4.2.2c.2.2.5.3.7.4.3.1.7.2 1.1.1.4-.1.8-.4 1.1-.7.2-.2.4-.4.5-.6l.3-.6v.9c0 .2-.1.3-.2.5l-.1.2.1.4-.2.2c0 .1-.1.1 0 .1h1.1c.1 0 .2 0 .2-.1v-.7-.8c0-.1-.1-.9 0-1 .1.2.3.3.4.4l.3.3c.3.2.5.5.8.7.3.2.6.5.8.7.2.2.4.3.5.5l.2.2v-.4-.4-.9-1.3-1.2c0-.2.1-.4.2-.6l.3-.3.2-.2h-.8c-.1 0-.4-.1-.4 0v3c-.1 0-.2-.2-.3-.3l-.4-.4-.8-.8-1-1c-.1-.2-.3-.3-.5-.5-.1-.1-.3-.4-.4-.4v2.4l-.2-.3-.3-.3-.4-.5c-.4-.3-.8-.9-1.4-.9-.3 0-.6.2-.9.4-.2.2-.5.3-.7.6l-.3.3-.3.3-.1.2-.2.3c0 .1-.1.2-.1.3v.4h-1.8l.2.2.1.1c.1.2.1.3 0 .5-.2.3-.6.2-.9 0-.4-.3-.6-.6-.6-1.1 0-.3 0-.5.2-.8.1-.2.3-.5.5-.6.1-.1.2-.1.4-.1l.2.1c.1.1.2.1.3.2l.2.2.3-.3.2-.2.1-.2c0-.1-.1-.2-.2-.2-.3-.3-.7-.6-1.2-.5-.5.1-.9.3-1.3.7-.3.2-.5.5-.7.8l-.3.6c0 .1 0 .3-.1.4v.2c-.1-.3-.1-.5-.2-.8 0-.2-.1-.4-.1-.6l-.1-.6-.1-.6v-.2H60l.3.2c.1.1.2.1.3.2.1.1.2.2.3.4.1.1.2.2.1.2-.5.5-.8 1.1-1.1 1.7-.1.1-.1.3-.2.4l-.1.2c-.1.1-.1.3-.1.5l-.1.3-.1-.1-.3-.4c-.2-.3-.3-.5-.5-.8-.1-.1 0-.1.1-.2.1 0 .2-.1.4-.2.4-.3.7-.5.7-1s-.3-.8-.7-1.1c-.3-.2-.7-.3-1-.4-.1 0-.3 0-.5-.1H54.8l.2.3c0 .1.1.2.1.2.1.2.1.5.1.7H55l-.2-.2-.2-.3-.5-.6c-.4-.5-.8-1-1.3-1.4-.5-.4-1.3-.3-1.9-.3-.3 0-.7-.1-.9-.3-.1-.1-.3-.3-.3-.4l-.1-.1-.1.2c-.2.4-.5.7-.7 1.1-.1.2-.2.3-.3.5l-.2.2-.3.2c.2 0 .4 0 .7-.1h.6c.4 0 .8 0 1.1.1.7.2.5 1 .5 1.6 0 .6 0 1.4-.2 2-.1.4-.3.8-.6 1.1l-.4.4-.2.1h1.9c.2 0-.1.2-.2.3l-1.2.9c-.2.1-.4.3-.6.4l-.6.3H52.6c.1-.1.2-.2.3-.4.1-.2.3-.4.4-.5.3-.3.5-.6.7-.9.2-.3.4-.6.6-.8.1-.1.2-.3.3-.4.1-.1.1-.3.2-.3 0 .3 0 .6-.1.9 0 .1-.1.3-.2.4l-.3.3h2.2l-.1-.4c-.1-.1-.1-.3-.1-.5v-.8-.4c.1 0 .3 0 .4.1.2.1.4.4.6.7.2.3.3.6.5.9.1.2.2.4.3.5.1.2.2.3.3.5H54.6c-.1 0-.2.2-.2.3-.2.3-.3.6-.5.9-.1.2-.3.5-.4.7-.1.2-.2.3-.3.5l-.2.1-.1.2c.1 0 .2-.2.3-.2.1-.1.2-.2.4-.3.3-.2.5-.3.8-.5.6-.2 1.1-.5 1.7-.7.5-.1.9-.2 1.4-.2.4.1.6.5.6.9V20c0 .3-.1.5-.2.7-.1.2-.3.4-.5.6l-.3.3H63c.2 0 .2 0 .2-.1.1-.4.6-.7.9-.9.1-.1.3-.1.4-.2.1 0 .1.1.1.2.1.3.1.5 0 .8 0 .2-.1.2.1.2h4.6l-.1-.1-.2-.2c-.2-.2-.3-.4-.3-.7-.1-.4 0-.9 0-1.3v-.7-.8c.1-.3.2-.6.4-.8.1-.1.2-.2.3-.2l.2-.1c-.3-.1-.8-.2-.9-.2zm0-5.4c.1-.1.2-.3.3-.4l.2-.1.2-.1h.3l.2.1c.2.1.3.2.4.4.3.2.5.5.7.8.2.3.4.6.2.9-.1.2-.3.3-.4.4l-.3.1c-.3 0-.6-.2-.8-.4l-.4-.4c-.1-.1-.3-.2-.3-.4-.1-.2-.2-.3-.3-.4-.1-.2-.1-.4 0-.5zm-8.4 2c0-.3.1-.5.3-.7.1-.2.3-.4.5-.6l.3-.3.2-.2c.1 0 .2.6.2.7 0 .2 0 .2-.2.3-.4.2-.7.4-1 .7l-.3.3v-.2zm-6.6-1c-.2.2-.4.4-.6.5-.1.1-.2.2-.3.2l-.3.3c-.2.1-.3.3-.5.4-.1 0-.2.2-.3.2v-.6-.7c0-.4.1-.8.1-1.3V9.7v-1c.1.1.2.2.4.3l.4.4c.2.2.3.4.5.6.2.2.3.4.5.5.2.2.5.4.5.7.2.4-.2.7-.4.9zm4.2-.9c-.2.1-.5.2-.8.2h-.4c-.1 0-.2 0-.2-.1v-.9V9.8l.1-.1c.4 0 1-.1 1.4.3.4.3.3.9-.1 1.2zM64 20l-.4.2-.4.2-.3.2c-.1 0 .1-.7.2-.8l.3-.6c.1-.1.2-.3.4-.3l.3-.2.1-.1c.1 0 .2.6.3.7l.1.2v.2c-.1.1-.6.3-.6.3zm5.5-3.5zM78 9.4c.2-.2.3-.4.4-.6.1-.2.2-.4.3-.7.1-.2-.1-.2-.3-.2h-.6c-.1 0-.1.1-.1.2v.3c0 .2 0 .5-.1.7 0 .1 0 .2-.1.3l-.1.2c.4 0 .5-.1.6-.2zm1.8 1.4c-.1-.2-.3-.4-.2-.6.1-.2.4-.2.6-.2.3 0 .4.3.6.5.2.2.3.5.4.7l.2-.4c.1-.3.2-.5.4-.8h-.6c-.2-.1-.3-.2-.5-.3-.3-.2-.7-.3-1.1-.3-.8.1-1.6.5-1.6 1.4 0 .3.2.6.3.9.2.3.6.4.9.6.3.2.7.5.8.8.1.2.1.3 0 .5-.1.1-.3.2-.5.2-.7-.1-1.2-.9-1.4-1.4l-.2.3c-.1.1-.1.2-.2.3-.1.2-.3.4-.4.6-.1.1-.1.3-.2.4.2-.1.4-.1.6-.1.6 0 .9.3 1.4.6.5.3 1 .3 1.5 0 .4-.2.7-.7.7-1.1.3-1.3-.9-1.8-1.5-2.6zM75.7 22c-.4-.3-.9-.7-1.2-1.1-.1-.1-.2-.2-.3-.4-.1-.1-.2-.3-.3-.4-.1-.2-.3-.5-.4-.7l.3-.1c.1 0 .2-.1.4-.1.2-.1.4-.2.5-.5.3-.4.2-1-.1-1.4-.4-.5-.9-.6-1.5-.8-.5-.1-1.1-.1-1.6-.1h-1.8l.2.2.2.2c.2.2.3.4.4.7.1.5.1.9.1 1.4v1.5c0 .3-.2.5-.4.7l-.3.3-.2.2h2.8l-.2-.2c-.1-.1-.1-.2-.2-.3-.1-.2-.2-.4-.2-.6 0-.3-.1-.5 0-.8v-.2h.3c.2.1.2.2.3.4l.3.6c.2.5.4.9.7 1.3.3.4.7.7 1.1 1 .2.1.5.2.7.3.2 0 .4.1.5.1.3.1.8.1 1.2.1.2 0 .5-.1.7-.2l.5-.3c-.4 0-.7 0-1.1-.1-.5-.2-1-.4-1.4-.7zm-2.8-3.2c-.3.1-.6.1-.9.1-.1 0-.2 0-.2-.1v-.4-.7c0-.1-.1-.5 0-.6.5 0 1 0 1.4.3.5.5.2 1.1-.3 1.4z"/><path fill="#F4E400" d="M55.4 67.4l2.6-1 .8 1.4-.2 4.9-.4 3.6-5.5 2.3-1.9 1-.9-.1s-1.1-.1-1.3-.1c-.2 0-1.2.6-1.3.7-.1.1-.5.2-.5.2l-1.4 1.3-.1.6s-.3 2.7-3.6 2.6c-2.7-.1-2.6-.6-2.8-.7-.6-.3-.6-1.9-.4-1.9s.1 0 .2-.1l.3-.6s.5 1.1.9 1.4c.4.3 1.3 0 1.5-.1.2-.1.5-.1.7-.2.1-.1.4-1.8.4-2 0-.3-.6.7-1.5.6-.9-.1-2.2-.9-2.2-1.1 0-.2-.2-1-.2-1l-.1-.9.9-.9s-.5 1.4.2 1.7c.7.4 1.4.2 1.5 0 .1-.1.2-.4.2-.4s-.8-2-.9-2.2c-.1-.2-1.7-2.7-.4-3.6 1.3-.9 1.9-1 1.9-1s-.6-.6-.7-1 .1-2 1.6-2.6c1.4-.5 2 .4 2 .4l.1.3s-.8.2-.9.4c-.1.2 0 1.1.4 1.3.4.1 1.2 0 1.7.2.6.2 3.3 2.4 3.7 2.8.4.4 2.8-.3 3.8-1.6.2-.3.8-1.2 1.2-2.1.4-.9.5-1.9.5-1.9l.1-.6z"/><path fill="#F8BC77" d="M60.5 67.8s1.1-1.1 1.3-1.1c.2 0 1-.3 1.1-.4l.7-.5.4-.2-.1-.3-.7-1-1.9.7s-.3.6-.3.7c0 .1-.2.1-.2.1l-.1-.5v-.2l-.3-.8-.3-.1s-.5.3-.6.1.2-.8.2-.8l-.1-.4-.3-.2-.6.5c0 .1-.2.2-.2.3 0 .1-.1.2-.1.3 0 .1-.1.4-.1.4l-.3-.2-.8-.3-.4-.1s-.1-.1-.3 0c-.2.1.2 1.3.5 1.5.3.2 0 1.1.1 1.1l.4.3h.3l.3.5.2.6h2.2z"/><path fill="#F4E400" d="M61.1 65.1s.9-.3.9-.6-.1-1.3-.1-1.3l-.1-.1-.3.1v-.3-.7l-.3.3-.2 1.1c0 .1-.2.4-.5.3-.2-.1-.1-.2-.1-.4s-.3-1.7-.6-1.8-.5-.7-1.2-.9h-.7l-.4.2s-.1 0-.1-.1.2-.6.2-.6l1 .1v-.2l.7.2.1-.2.4.2v-.5l-1.4-1.2-1-.1-.7.1.1-.4-1 .7c0 .1-.4.8-.4 1.2s.8 1.5.8 1.5l-.6.4s-.4 1.2-.4 1.4c0 .2.4 2 .6 2.2.1.1-.4-.6-.4-.6l-.2.5c-.1 0 .5.7.2.6-.2 0-.3-.1-.3-.1h-.6l-.2.2.4.1.1.2.1.3.3.2s0 .1-.2 0c-.1-.1-.5-.1-.5-.1l-.1.1.7.7c.1.1.7.2 1 .1.3-.1.4 0 .5-.1.1-.1.4-.6.5-1 0-.4-.1-.8-.1-.8s-.6-1.6-.7-1.7V64l1.1.2s.5.3.6.4c0 .1.3-.3.3-.4l.1-.3.2-.2.1-.1.2-.1.2-.2.2-.1h.1l.2.5.2.1v.6l.3.1.5.9c.1-.2.3-.1.5-.3z"/><path fill="#F7F193" d="M55.5 65.9v-.4s-.5-2-.5-2.1c0-.1 0-.7.1-.7l.1-.2-.2-.2-.5.6-.1 1.3.8 1.4.3.3z"/><path fill="#F8BC77" d="M53.3 90.2l1.6-1.3 1.3-2.1 1.6-2.4.4-1v-.7l-.6-.4.4-2h-1.2l-.7.3-.9.8-3.4 6.6-1.3 1-1.8.8-.7.4-3.3 2.9s-.4.3-.5.2c-.1 0-.6-.3-.6-.3s0-.1-.1-.2c-.2 0-1.2.1-1.2.1l-.8.9-1.7.6-.8.2-.7 1 .1.4c.1 0 .2.2.3.3s.4.3.4.3h.4s.7-.6.7-.7c0-.1.1-.3.1-.3s2.8-.6 3.7-1c.9-.4 1-.6 1-.6l2.4-.8 1.2-.4s2.6-.9 2.7-1c.3-.3 2-1.6 2-1.6z"/><path fill="#F8BC77" d="M52.3 89.4s.8-.5 1.7-3.3c.9-2.7 1.5-5.4 1.5-5.4l.1-1.6.8-1.4-.4-1.6h-1.6s-2.3 1-2.6 3.6c-.4 2.6-.6 5.6-.6 5.6l-.1.7-.5-.5-2.4-2-.3-.4v-.2l.1-.3s-1.3-1.2-1.4-1.4c-.1-.2-.8-.7-.8-.7l-1.5-.8h-.6l-1 .9s0 .4.2.4.6-.2.6-.2l.7.2 1.8 1.8c.1.1 1.7 2.7 1.9 3 .1.3 1.8 2.2 2 2.4s.8 1.2 1.2 1.4c.5 0 1.2-.3 1.2-.2"/><path fill="#E03E0E" d="M58.6 92.2s.5.7 1 .9 1.4.4 1.8.4c.4.1.5.1.6.1h.5l-2 8.6s1.2 1.8 1.4 2c.2.2.9.7.9.8.1.1.8.5 1 .6.1.1.4.2.4.2s.9.1 1.1.2c.2.1.7.4.7.4l.4.8-.2.3s-4.8.6-6.5-.1c-2-.8-2.5-1.1-2.6-1.2l-.7-.7s-.8.1-1 0-.6-.4-.6-.4.6-2.9.9-3.3c.4-.4.4-.9.4-.9s.4-2.6.4-2.9 1.1-3.7 1.1-3.7l.8-2.3.2.2z"/><path fill="#EC9600" d="M59.4 102.2h1l1.9-7.8-.5.1-.4.7s-1.6 5.4-1.6 5.5c0 .1-.1.4-.3.7s-.4.8-.1.8z"/><path fill="#E03E0E" d="M69.9 90.9s.5.4 1.2.4 2.1-.3 2.3-.4c.3-.1.4-.2.4-.2l2 9.6 1.3 1.2 2.6 2.4 1.7 1.1.4.8s-.2.8-2.8.4c-.3 0-1.4 0-2.6-1.1-.1-.1-.1-.4-.4-.6-.4-.2-.5-.3-.5-.3l-.2.2-.4-.1-3-.7s.2-2 .3-2.3c0-.3.4-1.1.4-1.1l-1.7-4s-.7-1.4-.7-2.1-.5-3.1-.5-3.1l.2-.1z"/><path fill="#C20013" d="M66.9 84.6l1.6 1.3-1.1 3.5-2.1 7-.4 2.1s-1.1 1.1-1.7.3.4-3.1.4-3.1l3.3-11.1z"/><path fill="#510F0D" d="M68.2 86.4l-.2-.1-.9 2.8-1.6 5.5-1.1 3.3-.1.7h.2l.3-.4 1.4-5.2 1.2-4z"/><path fill="#D1CBD4" d="M73.6 90.7s0-1.6.1-1.9c.1-.2.1-1.3 0-1.4 0-.1-.4-.9-.4-.9s-.6-2.2-.7-2.4c-.1-.2-1.2-2.5-1.3-2.6-.1-.1-.3-.4-.3-.4l-.4.2c-.4.2-1 .2-1.2-.1-.2-.3-.3-.5-.3-.5h-.8s-2 1.4-2.8 1.8c-.4.2-.3.3-.2.5 0 .2 2.9 2.7 2.9 2.7s1.2 1.5 1.4 1.9c.2.3.1.9.1.9s-.1 2 0 2.2c.1.3.1.5 1.1.6 1 0 2.2-.2 2.8-.6zM58.1 82.4s1.4-.5 1.6-.5 2 .4 2.1.4c.1 0 1.1.3 1.2.4.1.1.7.4.7.4s.1 2.5 0 2.8c-.1.2-.3 1.8-.3 2.1s.2.9.2.9V91s-1 1.9-1 2c0 .1-.1.5-.1.5l-.3.1s-.6.3-1.5.1-2.1-.9-2-1.2c0-.3.2-1.4.2-1.4l.6-1 .3-.5-.1-1.3-.6-1.7-.2-.6s-.8-2.6-.8-3v-.6z"/><path fill="#FAFCFD" d="M62.6 92.6s.3-.5.4-.6c.1-.1.4-.9.4-1 0-.1.2-1 .2-1l-.2.1s-.6 1.7-.7 1.8c-.1.1-.2.4-.3.4l-.3.3v.2l.2.1.3-.3z"/><path fill="#F7A800" d="M79.2 78.4s-1-1.8-1.1-2.3c-.1-.5-.8-2.5-.8-2.5l-.1-1.4-.9-.3.3 2.5.7 1.7.8 2.2 1.1.1z"/><path fill="#F7BB81" d="M75.4 75.7l.4.6.2-.1.2.1.8.4.2.8v.3l-.3.1-.3.3-.3.1-.3-.2-.2.4-.3.3-.2.4-.4.4-.4.4-.3.2-.2.2-.2.1-.9.1-.3.2s-.4.1-.6 0-.8-.1-.8-.1-.3-.1-.5-.2-.9 0-.9 0l-.1-.2s-.3-.6-.2-1c.2-.4.2-.5.2-.5l.2-.1s.5-.1.8-.2.9-.4 1.3-.6c.3-.1.4-.6.5-.7l.3-.4h.7l.6-.6.2-.4h.2l.9-.1z"/><path fill="#F7BB81" d="M74.2 76.5l-.1-1.4v-.3l.1-.2s.6-.2.8-.2h.7l.2.1.4-.1h.2l.2.2v.2l-1 .9-.5-.3v.3l-.3.1-.2-.1s-.3.1-.3.2 0 .3.1.3v.2l-.3.1z"/><path fill="#D8D1D0" d="M76.4 74.2l-.2-.7-.5-1.7-1-2.6-.1-.2s-1 .2-1.2.2c-.1.1-1.6 1.4-1.6 1.4v1l.6 1.1 1 1-.3 2s.2.9.4 1.1c.1.1.3-.7.4-.9 0-.2 0-.5.1-.6.1-.3.1-.5.3-.6.6-.2 2.1-.2 2.1-.2v-.3z"/><path fill="#DA001B" d="M71.6 70.8c.9-.8 1.2-1.2 1.5-1.3.3-.1 1-.4 1-.4l.9-.3-.5-.8s-1-1.8-1.3-2-1-.6-1-.6l-1.5-.1h-.6l-.3-.1-.9.1-4.1.3-1.3.4s-2.7 1.7-2.8 1.8c-.1.2-1.1 2.6-1.1 2.6l-.1.3s-.3.4-.4.8c-.1.4-.2 2.1 0 2.1.4 0 1-.4 1-.4s1.4-.4 1.8-.4c.4 0 1.7.2 2 .5.3.3-2.6 2.2-2.6 2.2l-.6.4s-1.6 1.5-1.7 1.7c-.1.2-.5 1.8-.6 1.9l-.5 2.5.1.4s1.6-.4 2.5-.3 2.5.7 2.8.7c.3 0 .4.2.6.3.2 0 1 .3 2.8-.9 1-.7 1.5-1 1.8-1.3.2-.2.5-.1.6-.2.2-.2.9-1.5 1-1.6s.1-.4.1-.4-1.5-1.6-1.5-1.7c-.1-.1-.4-.7-.4-.7l-.4-.5s-.5-1-.3-1.3c.1-.3.2-.7.5-.9.3-.1 1.8-.8 1.8-.8l1.6-1.8.1-.2z"/><path fill="#D1CBD4" d="M69.8 80.5s-.4-.8-.3-1.1c.1-.3.3-.6.3-.6s-3.7-1.5-4-1.7c-.3-.2-.2-.8-.2-.8s-1-2.4-1.7-2.9-.4-.7-2.3-.7c-.3 0-.9.1-1 .1l-.4.4c-.1.1.3 1.8.4 2 .2.5 1.1 2.1 1.7 2.7.7.6.7.7 1.4 1.8.1.2 2.5.7 2.9.7s1.6.1 2 .1c.4.1 1 .1 1.2 0 .1.1 0 0 0 0z"/><path fill="#FAC77D" d="M67.8 66.5s1.9-.6 1.9-.8c0-.2-.4-.8-.4-.8l-.5-1.5-.2-.1.2-.2.1-.1v-.2l-.4-.2-.3-.3-.2-.2s.7-.7.7-.8c0-.1.3-.6.1-.6-.2-.1-.9.2-.9.2v-.3l-.4-.1-.3-.3h-.4l-2.2 1.4-.2.2.2 1s-.4.6.2 1.3c.6.7 1.8 1.8 1.9 1.9s.7.5 1.1.5z"/><path fill="#FFF" d="M66.1 61.9h.5l.2-.1.1-.1-.1-.2-.4-.1-.2.2z"/><path fill="#6A0D0E" d="M69 68.7s-.1.1 0 .2c0 .1.1.2.2.2h.1l.2-.1.1-.1v-.2l-.2-.1h-.2l-.2.1z"/><path fill="#F4AA77" d="M66.9 60.9l-.2-.3v-.1l.1-.1.1-.1h.2l.2.1v.5l-.2.1z"/><path fill="#FAC77D" d="M68.5 62.5v-.3l-.1-.1h-.2v.1l.3.3z"/><path fill="#D8D1D0" d="M68.2 68.9s.6-.1.7-.5c.1-.4.1-.6.1-.6v-.2l-1.9-1.5-2.4-2.2v-1.2c-.1-.2-.1-.7-.1-.7l-.1-.3s.7-.5 1-.6 1.3-.8 1.3-.8.3-.1.4-.2c.1-.2-.3-.4-.3-.4l-.5-.4-.8-.3H65s-.4-.1-.5-.1h-.8s-.3.1-.4.3l-.3.8-.4.3c-.1.7-.1.7-.1.9 0 .2 0 1.9.4 2.5.3.6.9 1.6 1 1.7s.2.3.2.3l-.6.3c0 .1.8.5.9.8.2.3 0 .1.2.3.1.1 0-.1 3.6 1.8z"/><path fill="#6A0D0E" d="M64 82.9l.9-.2s.2-.7.3-.7c.1-.1.6-.8.6-.8s0-.4.1-.4.5-.3.5-.3l-2.2-.5h-.3s0 .2-.2.3-.4.1-.4.1l-.5-.5s0-.1-.2-.3c-.2-.2-.2-.4-.3-.5s-.5-.4-.5-.4-.2-.2-.2.1c.1.3.7 1.4.7 1.5 0 .1.3.7.4.9l.3.3c.2.2.3.2.4.5.2-.1.6.9.6.9zM69.8 78.8l-.3-.4s-2.3-.5-3.1-1.1c-.8-.6-.7-.9-.7-1s.2-.5.2-.5l.4-.3h.4l.1-.4.2.1.6.5s-.1-.8-.1-.9c0-.1-.2-.4-.2-.4l-.6.6s-1 .8-1.1.9c-.1.1-.2 1.1.4 1.4.5.3 3.8 1.5 3.8 1.5z"/><path fill="#F2ABAA" d="M61 67.8s.4-.3.5-.3c.1 0 .4-.2.4-.2v-.1l-.2-.2-.7.5-.1.2.1.1zM63 66.4l.2.1.2-.1s-.1 0 0 .1.2.2.3.1v-.2l-.1-.1.1-.1v-.1l-.2-.2-.5.5zM69.2 68.7l-.1.2.2.1v-.1l.1-.1zM69.6 65.2l.3.1.2.3-.1.1c-.1 0-.1 0-.2-.1 0-.1-.2-.4-.2-.4zM70.4 65.4s.1.2.2.2.3-.1.4-.1h.5c.2 0 .4.1.6.2.2.1.2.1.3.2s.2.1.2.1l.1-.1-.2-.2s-.7-.3-.9-.3h-1.2zM74.1 67.4v.2c0 .1.1.2.1.3l.1.1.1.1-.3-.7"/><path fill="#6A0D0E" d="M67.7 73.1l.6-.4.2-.3h.3l.5.2-.3.3zM62.7 69.7h.5c.1 0 .1-.1.2 0s.2.5.2.5 0-.2.1-.3c.1-.2-.1-.3 0-.3s.3-.1.4-.1h.4c.3 0 .5-.4.5-.4l-2.3.6zM64.7 70.1l-.3.3v.4l.4-.1.4-.2.4-.3.7.1v-.5l-1.1-.1z"/><path fill="#6A0D0E" d="M65.9 70.1v2.7h.4s.4-1.3.4-1.4 0-.4.1-.5c.1-.1.1-.3.1-.3s.5 1.7.6 1.9c.1.1.4.2.4.2l.2-.5-.4-1.2v-.3s.6 1.3.7 1.4c.1.1.3 0 .3 0l.2-.3-.4-.9c0-.1.6.1.7.1.2 0 .2-.3.2-.3l-.8-1-.2-.3-.5-.1-2 .8zM69.3 67.4l.2.1.1-.1-.1-.1s-.1-.1 0-.1.2 0 .2.1v.3l-.1.1h-.2l-.1-.3z"/><path fill="#F2ABAA" d="M69.3 67.3l.2.1v-.2h-.1z"/><path fill="#6A0D0E" d="M68.4 69.1s.4-.2.5-.3.3-.5.3-.6l.1-.3.1-.1-.1-.2h-.2s.1.2.1.3v.3l-.3.5-.6.3h-.2l.2.7.1.2h.2l-.1-.1-.1-.7z"/><path fill="#F8BC77" d="M67.1 66.8s.7-.1.9-.2 1-.5 1.2-.5.1.2.1.5c0 .2-.5 1-.7 1s-.5.1-.5.2v.7c0 .1.3 1.1.3 1.2.1.3.5.7.6.7l.2.3-.2.1s-.5-.2-.5-.4c-.1-.1-.2-.4-.3-.5l-.1-.2s.3 1.1.3 1.2.3.7.3.8l-.2.3-.5-.8c-.1-.1-.3-.7-.3-.7l-.2-.6h-.1l.3 2.1v.4s-.2.3-.2.2-.2-.8-.2-.9l-.3-.9s0 .1-.3-.4l-.3 1.4-.2.7s-.2.6-.2-.1.2-2.4.2-2.4l-.1-.3-.3.2-.1.2-.8.5s-.4.2-.4 0 .3-.5.3-.5l.9-.8.6-1.1.8-1.4z"/><path fill="#F8BC77" d="M66.8 66.5s.4.2.3.4c-.1.2-.9 1.5-.9 1.5s-2 .9-2.3 1c-.3 0-4.1.8-4.2.9-.1.1-.4.8-.5 1.1s-.1 1.9-.1 1.9l.3.1h.5v.5s-1.1 1.8-2.1 1.9c-.4 0 .4-.7.3-1.1 0-.4-.8-3.1-.9-3.2-.1-.1-.7-1.8-.7-2.1 0-.3.4-1.3.6-1.3s2.1-.2 2.2-.2c.1 0 3.6-.4 3.7-.4h.3c.1 0 .2-.3.3-.3l3.2-.7"/><path fill="#FBEEBF" d="M56.9 71.1c0-.1-.1-1-.2-1.3s.1-.5.2-.6l.3-.3s.5-.3.7-.4.4-.3.7-.3h.9c.2 0 .8-.1.9-.1s1.8-.1 1.8-.1l-.4-.2s-4.6.3-4.9.4c-.3.1-.7 1-.7 1.3 0 .2.5 2 .5 2l.2-.4z"/><path fill="#FFF" d="M56.8 65.2l.1.5s.6.1.7.1c.1 0 .3-.1.3-.1l.1-.2.2-.2-.1-.2-.2-.2h-.7c-.1 0-.4.3-.4.3zM59.2 64.3l.1.2.2.1.2-.1.2-.4-.1-.4-.2-.2-.2.2s-.3.3-.2.6z"/><path fill="#F4A97A" d="M59.5 65.9l.2-.1v-.2h-.4l-.2.1v.2l.2.1h.2"/><path fill="#FBEEBF" d="M61.2 65.6l.7-.5.7-.2h.3l.2-.1h.1v-.2h-.7l-1.3.5-.1.1-.1.5z"/><path fill="#6A0D0E" d="M59.5 66.8l.3-.2.1-.1.2.3-.2.1-.2.1z"/><path fill="#0F0E0B" d="M59.9 67.4l.4-.5-.2-.5V66l-.3-.1-.5.3s-.1.6 0 .7l.5.5h.1z"/><path fill="#FFF" d="M59.5 66.3l.1-.2.1-.1h.1l.1.1h-.2v.1h-.1v.1h-.1"/><path fill="#6A0D0E" d="M59.9 66.9l-.1.1h-.1l-.1-.1-.1-.2v-.1l.4-.1.2.2v.1z"/><path fill="#FFF" d="M59.6 67h.3l.1-.2h.1v.1l-.1.1v-.1.1H59.7z"/><path fill="#645956" d="M73.6 76.2l-.1-.2-.1-.2v-.3l.1-.3v.2c0 .1 0 .2.1.3l.1.1.1.3-.1.2"/><path fill="#FAFCFD" d="M72.8 72.7s-.7-.9-.8-1.2c-.1-.3-.1-.6-.1-.6l.2-.3.6-.6c.1 0 1-.5 1.2-.5.1 0 .3-.1.3-.1s.7 1.3.8 1.4c.1.2.3 1 .4 1.2.1.2.2.5.3.6l.1.4h-.2l-.4-.2.2.4c.1.1.2.1.4.3.2.2.3.1.4.3.1.2.1.1.1.2v.2l.2.1.2-.1-.2-.9-.5-1.1-.5-1.2-.8-1.7-.3-.3s-1.1.1-1.6.4-1.1 1-1.1 1.2.1.8.1.8c0 .1.5 1.2.7 1.3.3.2.3 0 .3 0"/><path fill="#FFFCEC" d="M73.6 76.6l.2.6s.1.1.1-.1c.1-.2.1-.5.1-.5h.1l.1-.3v-.4-.5-.1l.2-.2V75h-.1l-.1.1c-.1.1-.2.1-.2.2l-.2.3v.5l.1-.1-.3.6zM74.1 76.9l.2.1.1-.1v-.1l-.1-.1h-.1zM73.2 80.5l-.3-.1v-.1H73.7l.1-.1.1-.1.1.1v.1l-.2.1v.1z"/><path fill="#FFFCEC" d="M69.9 79h.4l.3-.1h.4l.4-.4.4-.2.1-.1.1-.1h.2l.5-.4.3-.4h.3v.3l.1.4.1-.1s0-.3.1-.4c0-.1.1-.1.1-.2l.1-.2V77h-1s-.2.1-.2.2-.3.5-.3.5l-.1.1-1.2.6s-.4 0-.5.1c-.1.1-.3.1-.4.1l-.2.1s-.3.7-.2 1.4l.3.4h1.2c.1 0-.1-.1-.1-.1l-.2-.1H70l-.1-.2-.1-.5v-.3l.1-.3zM76.3 78.1l.1-.1h.2v-.1l.1-.1h.1l.1.1-.2.1-.2.1h-.1zM75 75.9h.2l.2.2.1.1h.1v-.1l-.2-.3-.1-.1-.2.1zM74.5 75.9v.1h.1l.1.1.2.2v-.1l-.1-.1-.1-.1v-.1h-.2zM72.7 79.9h.1l.3-.1h-.4zM71.7 80.7l.1-.1.1-.2.1.1.1.1-.1.1h-.1c-.2.1-.2 0-.2 0z"/><path fill="#BA4D13" d="M75.8 75.8l.1.5h.3s.4.2.5.3c.1 0 .4.1.4.1v-1.1l-.1-.4-.2-.4-1 1zM77.3 76.2l.8 2.2h1.1l-.3.5-1.1-.2-.5-1-.2-1.3zM76.7 74.6l-.4-2.8-.3.2-.1.3.5 2.1zM69.3 80.6h1.5l.3.1v.4s-1.3.6-1.4.3-.4-.8-.4-.8z"/><path fill="#D6D6D6" d="M77.3 73.6l-.1.6-.1.1s-.1.2 0 .4c.2.9.8 1.2.8 1.2l6.3-4.8 8.3-6.5 3.6-3.5 1.2-2.1v-.4l-3.6 1.5-2.7 2L80.3 71l-3 2.6z"/><path fill="#FAFCFD" d="M65.5 76.5s.1-1.4-1.9-3.3c-.5-.5-2.4-.3-2.4-.3l-1.1.3.1.2c.4-.4 1.5-.4 1.8-.4 2.1 0 2.4 1.5 2.7 1.9.2.3.7 1.5.8 1.6zM62.1 74.8l-.9-.1-.6-.3.1.6.6 1.4.9 1.4s.7.7.9.8c.2.1.4.5.6.7.2.3.1.5.6.5.4.1.7.1.7.1s.1.1 0 .1-.5-.1-.6-.1h-.5l-.7-1.1-.2-.2s-1.2-1.1-1.5-1.6c-.3-.5-.9-1.7-1-2.3-.1-.6-.2-.7-.2-.7l1.8.8zM64.6 76.6v.4l.6.3c0 .1.4.2.5.3s.2-.1.2-.1l.4.3s1.4.7 1.6.7c.2.1 1.8.5 1.8.5l.1-.1s-3.9-1.5-4.2-1.8c-.3-.3-.6-.3-.6-.3l-.4-.2M69.8 80.5s-2.2-.1-2.5 0h-1.1l-1.1-.3.1-.1s4.1.2 4.3.3h.3v.1z"/><path fill="#C4B1B1" d="M58.5 82.7v-.3s.9-.4 1.9-.2c1 .2 1.9.4 1.9.4l1 .4c0 .1.1.7.1.8v1.4s-.3-1.3-.3-1.5c0-.2-.3-.4-.3-.4s-1.1-.4-1.5-.6c-.4-.2-1.6-.5-2.1-.4s-.7.4-.7.4zM62.5 92.4s.6-.8.7-.9c.1-.1.2-.4.2-.4V91s-.7.8-.8.9c-.1.1-.1.1-.1.2v.3zM63.4 90v-1.2s-.2-.4-.2-.6.1-1 .1-1l.1-.3-.4 1.2v1l.1.7.3.2z"/><path fill="#FAFCFD" d="M60.3 89.2l.3-.7-.8-2.6-.6-1.2c-.1-.2-.1-.6-.1-.6l-.3-.1-.1.2s-.1.1-.1.3c0 .2.1.5.1.5s.7 1.5.7 1.7c0 .2.7 2.6.7 2.6l.2-.1z"/><path fill="#0F0E0B" d="M61.3 82.3l1.9.6.2.2v.4l.1-.3v-.3l-2.2-.7"/><path fill="#C4B1B1" d="M66.7 83.7l.1-.6-.1-.6.3-.4.6-.5s.7-.3.8-.4l.5-.5S66 82.5 66 82.6v.4l.7.7zM71.3 89.1l-1.1-1.3-.2-.5s.8.8.9 1c.1.1.7.6.7.6l-.3.2z"/><path fill="#FAFCFD" d="M70.2 88.6v-.8s-1.1-2.2-1.2-2.3l-1.4-1.4c-.1-.1-.5-.7-.5-.7l-.2-.4s-.1.5-.1.8c0 .3.5 1.1.5 1.1s1 .7 1.1 1c.1.3 1.1 1.4 1.2 1.6.1.3.6 1.1.6 1.1z"/><path fill="#B72614" d="M63.6 96.3l.3-.9 1.5-.6.4-.1-.1.9-2.1.8zM65.2 90.7l.2-1 2-.5-.1.7z"/><path fill="#D90011" d="M72.9 99.7s-.9-3-1.1-3.3c-.2-.3-.3-.6-.3-.9 0-.3.1-.6.1-.6l.2.6v-2s-.2-1.1-.3-1.2l-.5-.5s-.4-.1-.5-.1h-.4s.1 2.4.4 3.2c.2.8.9 2.2 1 2.5.1.4.7 1.8.8 2s.2.3.3.4c.1 0 .3-.1.3-.1zM72.8 101.5l-.2-.2-.2-.5.1-.2s.1-.1.1-.2l.2-.2-.2.6c0 .1.1.2.1.3 0 .1.1.4.1.4zM74.8 97.3l-1-3.4-.5-2.2.4-.2zM71.8 103l3.1 1.1v.1l-3.1-1zM76.3 104.9s.4.5 1.2.7c.8.2 1.3.3 1.7.3h1.9l.2-.2s-2.6-.1-3-.1c-.2 0-1.6-.5-2-.7zM59.2 102s.5 0 .7-.4 1.2-4.9 1.4-5.2.4-1.7.4-1.7l.1-.5-.4.1-.3 1.2s-1.2 4-1.2 4.2c-.1.2-.4.6-.4.7 0 .1-.6 1.3-.6 1.3l.3.3zM56.9 99.7s-.2-2.1.1-2.8c.3-.7.8-2.8.9-2.9.1-.1.4-.8.4-.8l.4.2s.2.9.1.9-.9 1-.9 1-.3 1-.4 1.1c-.1 0-.7 2.6-.6 3.3zM55.5 104.2l.4-.3-.1-.2v-.3s.2-.1.2-.2v-.5l.2-.6v-.2s-.5.5-.5.7-.2.7-.2.7v.9z"/><path fill="#EC9600" d="M60.3 102.7l1.3 1.4s.5.6.6.7c.1 0 .5.2.5.2l.2.3s-.9-.4-1.1-.6c-.2-.2-.3-.4-.4-.5s-1-1.1-1-1.1l-.2-.2c-.1-.1-.2-.1-.2-.1h-.6c-.2 0-.4 0-.4-.1s-.1-.3 0-.4h1.1l.2.4zM59.5 105.7s.2-.4.3-.4 1.1-.1 1.1-.1l.3-.2h.3l.5.1.7.2.5.1.5.3s.3.1.4.1c.1 0 2 .7 2 .7v.4s-.6-.4-.8-.5c-.2-.1-.9-.3-1-.3s-1-.1-1-.1h-.6c-.1 0-.3.1-.5.1h-1.5s-.1-.2 0-.3c.1-.1.6-.2.6-.2s-1.7.5-1.8.5-.2-.2-.2-.2l.2-.2zM75.7 100.3l-.2-.1-.5.1s-.2.1-.3.2c-.1.1-.1.3-.1.3h.5c.1 0 .2-.1.2-.1h.1c-.1.1-.1.2-.1.2s-.1.1-.1.2 0 .1.2.1h.7c.1 0 .1-.1.2-.1h.2l-.8-.8zM69.8 91.2l.1.2.1 2.4s.6 1.7.7 1.8 1 2.4 1 2.5c0 .1.3 1 .4 1.1.1.1.2.4.3.6.1.2.1.8.1.9v.3l-.5-.3.2-.6s-1.6-3.8-1.8-4.2-.7-2-.7-2l.1-2.7z"/><path fill="#1F1F64" d="M55.7 81.1l2.2-.6s1.2-3.2 1.2-3.3c.1-.1.9-1 1-1l.6-.5-.6-2.1-.6.5s-.8 1.7-2.2 1.8c-1.2 0-1.3.1-1.3.1s.4.6.4.9c0 .3-.1 1.1-.2 1.4s-.5.2-.5.9v1.9z"/><path fill="#151328" d="M58.3 77l.1-.1s-.4-.6-.6-.7l-.2-.2h-.2s.3.5.4.5c.1 0 .2 0 .2.1.1.2.3.4.3.4zM55.3 75.4l.6-.4.2.9-.4-.1z"/><path fill="#1F1F64" d="M48 82.3l.1-.9-1.1-1.3-.8-.6s.4.5.4.7v.5l.1.3s.6 1 .8 1.1c.2.2.5.2.5.2zM44.4 80.6s.1-.2.3-.2c.2 0 1 .2 1 .2l-.7-.8-.6-.2-.5.3-.2.5-.4.4h.7l.2.1.2-.1v-.2zM42.8 80.7l.1-.3.1-.1.1-.2h.1l.1-.2.1-.2h.7c.1 0 .1-.2.1-.2l-.9.1-.8.9.3.2zM40.1 93.4l.1-.3s.6-.1.7-.1.6 0 .7-.1 1-.3 1-.3h.2l.4.1-.4.3-1.3.8-.2.2.1-.3-.8-.3h-.5zM39.3 94.3h.7s-.1.8.1 1c.1.2.4.3.4.3v.2s-.8.8-.8.7v-.8s-.4-.7-.6-.7.2-.7.2-.7zM38.5 96s.2-.2.3-.1c.1.1.3.5.3.5v.1s-.5.2-.6 0c-.1-.3 0-.5 0-.5z"/><path fill="#FCE8DB" d="M51 87.4s.7-2.7.8-3.2c.1-.5.5-2.7.5-2.9s.2-.9.4-1.6c.2-.6.1-.7.5-1.3.4-.6.6-.9.9-1 .3-.1.8-.6 1-.7s.6-.1.7-.2.1-.4.1-.4-1.7-.1-2.7 1.1c-.7.8-1.5 2.1-1.7 4.2 0 .3-.4 4.6-.4 5.1 0 .4-.2 1-.2 1l.1-.1zM50.8 87.3l-.1-.6v-.8l-.7-.6-1.5-1.1-.8-.8-.1-.3-.1-.2-.1-.2-.4-.1s-.3 0-.5-.1c-.1-.1-.2-.3-.2-.2l.5.1H47.1l-.4-.8-.4-.5-.9-.4-.6-.1H44.5l-.1-.1.1-.2s1.6.2 1.7.3c.1.1.5.7.5.7s.6.5.7.6l.5.5.1.2-.2.2.6.7 2.4 2 .2.7-.2 1.1zM43.5 80.2l.2-.1.1-.2-.3.1-.1.1zM43.2 80.4h.2v-.1h-.2z"/><path fill="#FCE8DB" d="M45.3 81.9h.1l.8.8.8 1.1 1.1 1.8.7 1 1.4 1.6.9 1s.1.2.3.2c.2 0 .3.1.7-.1.4-.2.5-.6.5-.6l.7-1.5.5-1.6.5-1.1.2-.7.4-1.3.2-.8.2-.2.1.1-1 3.2-1.1 3.2s-.8 1.8-1.6 1.6c-.8-.2-1.4-1.1-1.4-1.1l-1.9-2.2-.6-.9-.8-1.2-.9-1.4-.8-.9z"/><path fill="#FCE8DB" d="M44.9 93.2s.8-.8 1-.9.9-.8.9-.8 1-.8 1.2-.8c.1-.1.8-.6.8-.6l1.4-.7c.2-.1.5-.1.5-.1l.4.4h.2v-.2l-.6-.5-1.6.6-.5.4-2.4 2-1.4 1v.4l.3.4.1-.1v-.2l-.3-.3zM53.7 89.3v-.2s.6-.3.7-.4c.2-.1.8-1.1.8-1.1s.4-.8.6-.9c.2-.2.5-.8.5-.8l.3-.4h.2L56 87l-.6 1-.2.6-1.5.7zM57.4 82.3l-.2-.1.2-1.1v-.2l-1.5.5-.2 1s-.8 2.4-.8 2.7c0 .2-.4 1.3-.6 1.4s-.5 1.3-.6 1.7-.8 1.2-.8 1.2-.7.4-.8.4h-.2s.3-.4.4-.5c.1 0 .8-.6.8-.7s1.3-3.2 1.8-4.6c.4-1.4.8-3.1.8-3.1l.3.1 1.4-.4h.6l-.6 1.7zM40.2 94.6l1.1-.4.8-.4s.2-.1.3-.2c.1 0 .4-.2.4-.2h1v-.1l-.3-.3H43s-.4.1-.6.2c-.2.1-.8.6-.8.6l-.8.2-.4.1-.4.3s-.1.9.2 1c.3.2.6 0 .6 0s2.9-.7 3.4-1c.5-.2.8-.4.8-.4l-.1-.2h-.2s-.5.4-.9.5c-.4.1-2.4.7-2.7.8-.3 0-.5.1-.7 0-.2-.1-.3-.4-.3-.4l.1-.1z"/><path fill="#FCE8DB" d="M44.1 93.6l-.1-.3h.5l.2.1.3.4-.2.3-.2-.3-.1-.3h-.3z"/><path fill="#D73111" d="M55.3 62.3l1-.5-.8-1.4s-.1-.1-.1-.2-.1-.2-.1-.2l-.1-.3V59.4h-.1l-.1.2-.3.3-.1-.1-.1-.3-.1-.1h-.1v.1l.2.5-.2.2H54l-.2-.1-.2-.1.1.3.1.3-.1.1-.3-.1s0 .1.1.2 1 .7 1.1.8c.1.1.5.7.7.7z"/><path fill="#151328" d="M56.3 66s-.9-.9-.9-1.7c-.1-1 .1-1.6.1-1.7 0-.1.4-.6.4-.6l.1-.2-.8.5s-.3.9-.3 1v.6c0 .1.5 1.8 1.1 2.1.1.1.1 0 .2 0h.1z"/><path fill="#FBEEBF" d="M56.9 64.7l-.3-.5.3-.1.6.1.2.2.3.3v.1l-.3-.1-.2-.1-.2-.1-.1.1-.3.1zM58.4 64.5l.1-.3.3-.3.3-.4.2-.1.1-.1v-.2h-.2s-.1-.1-.1 0-.1.2-.1.3l-.3.3-.2.2-.1.3v.3zM57.2 65.9l.1.2v.4h.2l-.1-.3V66h.3l.3-.2c.2 0-.5.2-.8.1zM60.3 66.7l.1-.2-.1-.3V66l-.2.1.1.1zM60.1 64.3l-.1.2.1.2h.1V64.4l-.1-.1zM57.9 66.9c.1.1.5.5.9.6.4.2.5.1.6.1.2 0 .3-.1.3-.1l.2-.1.1-.1v-.1h.1v.3s-1 .2-1.3.1-1-.5-1.1-.6l.2-.1zM58.2 67.6l.3.2v.1h-.3z"/><path fill="#FCBE00" d="M57.4 61.1s-.3.3-.4 0-.1-.6-.1-.7c0-.1.2-.4.2-.5l.4-.2c.1 0 .3-.1.4-.1h.4v.1l-.2.3H58s-.3-.1 0 0 .4.1.5.1c0 0 0 .1-.1.1h-.3l-.2-.1-.2.1c-.1.1-.2.2-.2.3s.1.2.1.3c-.1.1-.2.3-.2.3zM57.1 68.2c.2-.1.8-.2.8-.3l.1-.2-.2-.4h-.2l-.2.1h-.2l-.1.4-.1.1-.1.2s-.2.1.2.1M56.3 69.6s-.2.2-.2.4c-.1.1-.1.4-.1.5l.2.2.1.2v.3c0 .1-.1.9-.1 1 0 .1.1.2.1.2l.1-.4s0 .2.1.4.2.2.2.1v-.4-.2-.4-.5l-.4-1.4zM57.3 75.6s.2-.2.2-.3c.1-.2.1-.5.1-.5l.1.2.2.2s.1-.1.1-.3c0-.2-.3-1-.3-1l-.1.1s-.1 0-.1-.1-.1-.3-.1-.3v1.3c0 .2-.1.7-.1.7zM51.7 77.4s1-.3 1.3-.6.9-1 .9-1l.1-.3-1 1c-.2.2-.8.4-.9.5l-.4.4z"/><path fill="#FCBE00" d="M54.3 75.2l.6-1.3.1-.6.2-.6-.1-.1-1.4 2.8-.4.5.1.4zM49.5 79.3H50.7s.3-.1.4-.1.3-.2.3-.2v-.2h-.2c.2 0-1.2.6-1.7.5zM42.4 79.2s.1-1 .2-1.1.4-.8.4-.9c.1 0 1.1-.7 1.6-.6.5 0 1.3.1 1.5.2l.4.2c0-.1-.8-.5-1-.5h-1.1c-.2 0-1.1.3-1.2.4-.2.1-.1.1-.3.3l-.3.3s.4-.5.7-.7 1.1-.4 1.2-.4c.1 0 .8-.1.9-.1.1 0 .2 0 .3.1.1 0 .3 0 .5.2.2.1.6.7.9.9.3.1.9.1 1.2.2.3.1.9.2 1 .2.1 0 .3-.1.2-.1-.1 0-2.3-.8-2.4-.9-.1-.1-.4-.4-.6-.5-.2-.1-1.6-.3-1.9-.3-.3.1-1.1.3-1.2.3l-.7.7c-.2.2-.4.9-.4 1s-.2 1.1.1 1.1zM42 77.2l.1-.9-.6-.8c-.1-.1-.4-.7-.2-1.2s.7-.9.7-.9-1.1.7-1 1.1c0 .5.5 2.3 1 2.7zM43.4 84.2s.9-.5 1.1-1c.1-.5.4-.8.4-.8l-.1-.2c0-.1-.6 1.4-1.4 2zM39.4 83.5l-.6-.6v-.4l.1.2.3.4.4.3z"/><path fill="#F7F193" d="M44.8 70.7s.6.2.7.3c.1 0 .5.1.6.1l.9.4.5.3.5.4.3.2v-.2L47 71.1l-1-.5-.5-.1c0 .1-.7.1-.7.2zM50.3 73.5c0 .2.4.2.8.2h.4l.1-.1-.1-.1-.3-.1c.1 0-.7.1-.9.1M42.8 72H41s-.9.4-1 .5 0 .3-.1.5-.3.7-.3.8l-.1.7v.1-1.4l.3-.5s1.1-1.2 2.3-1c1.1.1.7.3.7.3zM44.6 68.5l-.3-.3-.3-.1h-1.3l-.8.5-.1.3s.3-.3.5-.4c.1-.1.8-.3 1-.3h.7l.2.2.2.1h.2zM38.8 81.6l-.1.5.2.4.2.4c.1.1.4.3.5.3l.2-.1V83s-.7-.5-.7-.6-.2-.7-.2-.7l-.1-.1z"/><path fill="#FFFCEC" d="M75.1 79.3H75h-.8l.1-.1H75.3l-.2.1z"/><path fill="#FFF" d="M57 67.1l.3-.4h.2l.3.4-.2.2-.3.1zM60.7 65.3l.2-.1.1.3-.2.4s-.1 0-.1-.2v-.4"/><path fill="#866D6F" d="M62.9 60.6v1.1l.4-.3V60.5l.3.4.4-.3-.1-.3-.4-.3-.1.2s0 .1-.1 0c-.1 0-.2-.1-.2-.1l-.2.5M64.3 60l.2-.1.2-.1.1-.1h.2l.1.1-.3-.3-.2-.2h-.3l-.1.1v.1zM62.7 62.4l1.1-1.2.2.2-.7.9-.4.3z"/><path fill="#0F0E0B" d="M75.7 74.8l.2-.1.1-.1.1-.2h-1.2l-.2.1h.2l.2.1v.1l.1-.1.2-.1h.2l.1.2zM58.2 68v-.2l.8.1.9-.1h.5v.1zM77.5 75.2l2.2-2.1s3.5-2.9 6.9-5.8c6.4-5.3 7-5.7 7-5.8.2 0 1.8-1.5 2.7-2.4l.9-.5.1.1-.9.5c-1.1 1.1-2.5 2.3-2.8 2.4-.3.1-9.2 7.6-13.9 11.5l-2.2 2.1z"/><path fill="#0F0E0B" d="M77.4 74.6c-.2-.1-.2-.7-.2-1h.1c0 .5 0 .9.1.9.2-.1 2.1-1.5 3.2-2.4l5.4-4.2 5.5-4.4.1.1-5.5 4.4-5.4 4.2c-1.4 1-3.1 2.4-3.3 2.4z"/><path fill="#0F0E0B" d="M77.7 75.9s-.3-.3-.6-.8c-.2-.5.1-1 .1-1.1l.1.1s-.3.5-.1 1c.3.4.6.7.5.8zM73.5 77.9s-.1-.3 0-.4H74.1l.3.2-.1.1c-.1-.1-.2-.2-.3-.2h-.4l-.1.3z"/><path fill="#0F0E0B" d="M74.4 79c-.1 0-.2-.2-.3-.4v-.1s-.4-.4-.6-.7l.1-.1.6.7v.1c.1.2.2.3.2.3.1 0 .2 0 .3-.1l.2-.1v-.1l-.1-.2c-.1-.1-.2-.3-.2-.3l.1-.1.1.1.1.2.3.3H75.5c.1 0 .3-.1.3-.2v-.5l.1-.1v.4h.4l.2-.1v-.1L75 77c-.1 0-.4-.1-.4-.3h.1c0 .1.2.2.4.2l1.6 1 .2.1-.3.1H76V78v.3c0 .1-.3.2-.4.2h-.1c-.1 0-.2.1-.3 0l-.2.1v.1l-.1.1h-.1c-.1.1-.3.2-.4.2z"/><path fill="#0F0E0B" d="M75.6 78.1l-.8-.6.1-.1.8.6zM75.2 76.8c-.1-.2.1-.5.1-.6l.1.1c-.1.1-.2.3-.2.4v.1zM76.5 77.5l.4-.6v.4l-.1.2-.1.1z"/><path fill="#0F0E0B" d="M76.8 77.9v-.1l.2-.1h.1v-.2c0-.1-.2-.7-.2-.8h-.1c-.1-.1-.2-.1-.3-.1l-.2-.1-.2-.1-.3.1-.4-.5h-.2l-.2-.1-.1.1h-.1l-.1-.1h-.2c-.1 0-.1 0-.1.2s.1.4.1.4l.1.1h-.4v.4l-.2.2h-.1l-.1.1-.1.2-.1.2h-.1l.1-.2.1-.1.1-.2h.1l.1-.1v-.4l.1-.1h.2c0-.1-.1-.2 0-.3 0-.2 0-.3.2-.3h.2l.2.1.1-.1.2-.1h.2l.4.5.3-.1.2.1c.1 0 .2 0 .3.1l.3.1h.1c.1 0 .3.8.3.9 0 .2 0 .3-.1.3l-.4.1z"/><path fill="#0F0E0B" d="M73.7 77.2l-.1-.6c.1-.2.2-.5.2-.5 0-.1.1-.4.1-.6v-.2c0-.1 0-.1.1-.3.1-.3.2-.4.2-.4l.2-.1s.5-.2.7-.2H75.9c.2 0 .4-.1.4-.1l.3.1c.1 0 .2.2.2.3v.1s-.4.4-.5.6l-.4.3s-.1.1-.2.1h-.5l-.3-.2s-.1-.1-.1-.2v-.1l-.1-.2h.1V75.3c0 .1.1.1.1.2l.2.1h.4c.1 0 .1-.1.1-.1l.4-.3.5-.6-.1-.2-.3-.1c-.1 0-.2.1-.4.1H75c-.2 0-.7.2-.7.2l-.1.1s-.1.1-.2.3v.4c0 .3-.1.5-.1.6 0 .1-.2.4-.2.5l.1.6-.1.1zM71.8 80.3s0 .1.3.2c.2 0 .4.1.4.1s.2.1.1.1-.2.1-.3.1c-.1 0-.3-.1-.4-.2-.1-.2-.1-.3-.1-.3zM72.5 79.8l.1.4.2.1.3-.1V80h-.2c0-.1-.3-.1-.4-.2zM73.3 79.2l.3.1h.2l-.2.2v.1l-.2-.1-.3-.2v-.2l.1-.1zM74 79.6l.1-.2.2-.1h.4l.1.1.1.1-.1.2h-.2zM73.6 80.2h-.2v-.1l.1-.1h.2l.2-.1.1.1.5-.1-.2.3-.2.1-.1-.2h-.2zM74.6 100.8c-.1-.1.5-.6.9-.6v.1c-.4 0-.9.5-.9.5zM74.9 101.4c0-.1.6-.5 1-.5v.1c-.3.1-1 .4-1 .4zM81.1 105.9h-1c-.6 0-1.4 0-1.6-.1-.1 0-.2 0-.3-.1-.5-.1-1.4-.3-1.9-.8-.6-.7-1.9-1.4-1.9-1.4l.1-.1c.1 0 1.4.8 2 1.5.5.5 1.3.7 1.9.8.1 0 .2 0 .3.1.2.1 1 .1 1.6.1h.9c.3 0 .6-.1.6-.1l.1.1c-.2-.1-.5 0-.8 0zM74.9 104.1h-.3l-.4-.2c-.2-.1-2.5-.9-2.5-.9l.1-.1s2.3.8 2.5.9c.2.1.4.1.4.2h.3l-.1.1zM77.6 104.4s1-.2 1.1-.2h.9v-.2h-.8s-1.2.3-1.2.4zM78 103.9h1.3l-.1-.1c0-.1-1.1-.1-1.2.1zM63.7 107.5c-.6 0-1.5 0-2.3-.1-1.5-.2-3.6-1.1-3.6-1.1l-1.4-1-1.6-.8.1-.1 1.6.8 1.4 1s2.1.9 3.5 1.1c1.5.2 3 .2 3.2.1.1-.1.4-.1.7-.2.3-.1.7-.2.8-.2l.1.1c-.1.1-.4.1-.8.2-.3.1-.6.1-.7.2h-1z"/><path fill="#0F0E0B" d="M59.3 106s1.6-.5 1.9-.5h.9l.1.1-1.4.5s1.2-.3 1.4-.3h1.1l.4.1-.1-.3-.3-.2-.3-.1s-1.1 0-1.5.1c-.5-.1-2.7.3-2.2.6z"/><path fill="#0F0E0B" d="M60.8 106.1l1.3-.6h-.9c-.2 0-1.3.4-1.9.5-.1-.1-.1-.1-.1-.2.1-.4 1.9-.7 2.2-.7.3 0 1.5-.1 1.5-.1l.3.1.3.3.2.4-.4-.1h-1c-.2.1-1 .3-1.5.4zm2-.8s-1.1 0-1.5.1c-.4 0-2 .4-2.1.6v.1c.2-.1 1.6-.5 1.9-.5h.9l.1.2-.4.1H63.4l-.1-.2-.3-.2-.2-.2zM59.1 103l1-.3h.5l-.2-.5s-1.6 0-1.7.1c0 .1.1.2.2.2s.7-.1.9-.2c.1-.1.2.1.2.1s-1.1.3-.9.6z"/><path fill="#0F0E0B" d="M59 103v-.2c.1-.2.7-.4.9-.4h-.1c-.1.1-.8.2-.9.2l-.2-.1v-.2s0-.1 1.7-.1l.2.6H60l-1 .2zm.8-.7c.1 0 .2.1.2.1v.1h-.1c-.4.1-.9.3-.9.4l.9-.3h.4l-.1-.4c-.7 0-1.5 0-1.6.1v.1l.1.1c.3 0 .9-.2 1.1-.2zM61.2 93.1l.2-.1v-.4l.1-.3v-.2l-.3.3v.6z"/><path fill="#0F0E0B" d="M61.2 93.2l-.1-.2v-.6l.4-.5v.4l-.1.3v.4l-.2.2zm0-.2l.1-.4.1-.3v-.1l-.2.2v.6zM62.3 92.8l.1-.4-.1-.2v-.4l-.1-.2-.7-.6s-.1.4-.1.5c0 .1.2.3.2.3l.2.4c0 .1.2.7.5.6z"/><path fill="#0F0E0B" d="M62.2 92.9h-.1c-.2-.1-.3-.5-.3-.6l-.2-.4s-.2-.2-.2-.3c0-.1 0-.5.1-.6v-.1l.1.1.7.7c.1.1.1.1.1.2v.3l.1.2-.3.5zm-.7-1.8c0 .2-.1.4 0 .4l.2.3.2.4c0 .1.1.4.3.5h.1l.1-.4-.1-.2V91.5c-.2.1-.5-.2-.8-.4zM59.2 91.1s-.3 1.4-.3 1.5c0 .1 1.2 1.1 2.3 1s.4-.1.4-.1.3-.1.4-.1h.4l-.1.3s.2.5-2.5-.2c-.5-.1-1.3-1.1-1.3-1.1l.1-.5.6-.8z"/><path fill="#0F0E0B" d="M61.8 93.9c-.4 0-1.1-.1-2-.4-.5-.1-1.3-1.1-1.3-1.2l.1-.5.5-.8h.1c-.1.6-.3 1.4-.3 1.5.1.1 1.2 1 2.2.9h.4s.3-.1.4-.1h.5l-.1.3v.1c0 .2-.2.2-.5.2zm-3.2-1.6c.1.1.8 1 1.2 1.1 1.9.5 2.3.4 2.4.3l.1-.2h-.5c0 .1 0 .1-.7.1-.9.1-1.9-.6-2.2-.9-.1-.1-.1-.1-.1-.2s.1-.8.2-1.2l-.4.6v.4zM72 88.3s.3.2.3.4c0 .1.2.2.2.2l.2.1-.1-.4-.5-.4-.1-.1v.2z"/><path fill="#0F0E0B" d="M72.7 89.1l-.3-.2s-.2-.2-.2-.3c0 0-.1-.2-.3-.3V88l.3.1.5.4v.6zm-.7-.8c.1.1.3.3.3.4l.1.2.1.1-.1-.3-.4-.4zM70 80.7l-3.7-.1-2.4-.6s-.2-.1-.3-.2c0 0-.1-.1-.2-.3-.2-.3-.5-.9-.6-.9-.9-.6-2.3-2.8-2.4-3.5-.1-.7-.4-1.3-.4-1.3l.1-.5c.1-.1.7-.3.9-.3h2c1 .1 2.2 2.4 2.2 2.5 0 0 0 .1.1.2.1.3.3.7.3.9 0 .2.2.6.2.7.1.1 1.7.9 2.4 1.2.2.1 1.6.5 1.6.5-.1.4-.2 1-.2 1l.1.2v.1s.2.2.3.4zm-6.1-.8l2.4.6 3.5.1c-.1-.1-.2-.3-.2-.3v-.1l-.1-.2c-.1-.1.1-.8.2-1.1-.2-.1-1.3-.4-1.5-.5-.7-.2-2.4-1.1-2.5-1.3 0 0-.2-.5-.2-.8 0-.2-.2-.6-.3-.8 0-.1-.1-.2-.1-.2 0-.1-1.2-2.3-2.1-2.4-.4-.1-1.3 0-1.8 0H61c-.2 0-.7.2-.8.3 0 0-.1.3-.1.5 0 .1.3.6.4 1.3.1.8 1.5 2.9 2.4 3.5.1.1.4.5.6 1 .1.1.1.2.1.3l.3.1z"/><path fill="#0F0E0B" d="M65.8 77.3L65 77l-.2-.2-.2-.3.2-.1.2-.2h.1l.2.1.2.1z"/><path fill="#0F0E0B" d="M65.9 77.4L65 77l-.3-.2-.2-.4.3-.1.2-.3h.2l.2.1.2.1.3 1.2zm-1.1-.6l.2.2.7.3-.2-.7-.2-.1-.2-.1H65l-.2.2-.2.1.2.1zM60.2 74s1.2.6 1.4.6c.2 0 .7.2.7.2l.1-.1-1.2-.6-.7-.6-.4-.3-.4.2c0-.1.5.5.5.6z"/><path fill="#0F0E0B" d="M62.3 74.9s-.5-.1-.7-.2c-.2 0-1.3-.6-1.4-.7 0-.1-.3-.4-.6-.6l-.1-.1.5-.2.5.3.7.6 1.2.6-.1.3zm-2-1c.3.2 1.2.6 1.3.6.2 0 .5.1.6.2l-1.1-.6-.7-.6-.4-.3-.3.1.6.6zM64.5 78.7l.3.2h.7c.3 0 .3-.2.3-.2l-.3-.1-1 .1z"/><path fill="#0F0E0B" d="M64.8 78.9h-.1l-.3-.2-.1-.1 1.2-.2.4.2c0 .1-.1.2-.4.2h-.4l-.3.1zm-.2-.2l.1.1h.7c.1 0 .2 0 .2-.1l-.2-.1-.8.1zM61.3 75.8l.3.2c.1.1.2.1.3.1s.5.1.5.1l-.1-.2h-.4l-.6-.2z"/><path fill="#0F0E0B" d="M62.6 76.3h-.1c-.1 0-.4-.1-.5-.1-.1 0-.2 0-.3-.1l-.3-.2v-.1l.6.2h.4l.2.3zm-1.1-.3c.2.1.2.1.4.1.1 0 .3 0 .4.1l-.1-.1h-.4l-.3-.1zM61.4 76.4l.6.2c.1.1.2.1.4.2l.1.1"/><path fill="#0F0E0B" d="M62.5 76.9l-.1-.1c-.1-.1-.3-.1-.4-.2-.1 0-.4-.1-.6-.2v-.1l.6.2c.1.1.2.1.3.2l.2.2zM73.6 76.9c-.4-.7-.4-.8-.5-1.1-.1-.2.3-1.6.3-1.6s.3-.6.3-.7-.2-.3-.2-.3-.2-.2-.3-.2c-.1-.1-.3-.2-.3-.2l-.2.1s-.8-1-.8-1.3v-.5s-.1 0-.1-.1v-.2l-.2-.2-.2.1c-.1-.2.9 4 2.2 6.2z"/><path fill="#0F0E0B" d="M73.6 76.9c-.1-.2-.2-.3-.2-.4-1.2-2.2-2.1-5.9-2.1-6l.3-.1.2.3v.8c0 .2.6 1 .8 1.3l.2-.1s.2.1.3.2c.1.1.4.3.4.3s.2.2.2.3c0 .1-.2.5-.3.7-.1.5-.3 1.5-.3 1.6v.1c0 .1.1.3.2.5.2.2.3.3.3.5zm-2.2-6.3c.1.4.8 3.1 1.7 5.2 0-.3.2-1.4.3-1.6.2-.3.3-.6.3-.6l-.2-.3-.3-.3c-.1 0-.3-.1-.3-.2l-.3.1s-.8-1-.8-1.4V71l-.1-.2v-.2l-.1-.2-.2.2z"/><path fill="#0F0E0B" d="M76.5 74.4h-.2v-.2l-.8-2.4-1.1-2.6c-.1 0-.4.1-.8.2-.6.2-1.8 1.4-1.8 1.5l-.2-.1c0-.1 1.2-1.4 1.9-1.5.7-.2.9-.2.9-.2h.1l1.2 2.8.8 2.5z"/><path fill="#0F0E0B" d="M76.3 73.7s-.5-.2-.8-.5c-.3-.3-.2-.4-.2-.4s.6.6.8.7.2.2.2.2z"/><path fill="#0F0E0B" d="M76.3 73.8c-.1 0-.6-.2-.9-.6-.3-.3-.2-.4-.2-.5v-.1c.2.2.6.6.8.7.3.2.4.3.3.5zm-.9-.9l.1.2c.2.2.5.4.7.5l-.1-.1c-.2-.1-.5-.4-.7-.6zM64.9 74.6s1.6-.2 2-.4c.4-.2.6-.4.7-.5.1-.1.6-.5.6-.5l.3-.3.1-.3-.6.2-1.4 1.1-.8.2-.8.3-.1.2zM63.8 72.9l.2-1.6-.1-.3-.4-.6s-.3.1-.3.2.1.3.1.4 0 .2-.1.2-.3-.2-.3-.2.9 1.6.9 1.9z"/><path fill="#0F0E0B" d="M63.9 72.9h-.1c0-.1-.5-1.3-.8-1.9l.1-.1.2.2.1-.1v-.5c0-.2.3-.3.3-.3.1.2.3.6.4.6l.1.4-.3 1.7zm-.8-1.8c.2.4.5 1.1.7 1.5l.2-1.3c0-.1-.1-.3-.1-.3 0-.1-.3-.5-.3-.6-.1 0-.2.1-.2.2v.2c0 .1.1.2 0 .3 0 .1 0 .2-.2.2l-.1-.2zM71.1 70.4H71c0-.2.1-1.2.2-1.4 0-.1 0-.4-.1-.8 0-.4-.1-.7-.1-.9 0-.2-.6-1.5-.8-1.9h.1c.1.2.8 1.7.8 2 0 .1.1.5.1.8.1.4.1.7.1.8-.1.2-.2 1.3-.2 1.4z"/><path fill="#0F0E0B" d="M71 71s.5-.6.5-.7.3-.5.3-.6c0-.1.1-.6 0-.5-.1.1-.1-.1-.1-.2v-.3s0 .2-.1.1c-.1 0-.3-.1-.3-.1l-.1-.2s-.1 1.2-.1 1.4-.1.6-.1.6l-.4.8c0 .1-1.4 1.4-1.5 1.4-.1.2-.6.3-.6.3l-1 1.2s2.7-1.9 3-2.3c.4-.4.5-.9.5-.9z"/><path fill="#0F0E0B" d="M67.5 74.3l1-1.3c.2-.1.5-.2.6-.2 0 0 .2-.3.6-.6.4-.3.8-.8.9-.9 0-.1.3-.7.4-.8 0-.1.1-.5.1-.6 0-.1.1-.9.1-1.4h.1l.1.2s.1.1.2.1v-.1h.1v.4h.1c.1 0 .1.1 0 .4v.2c0 .1-.2.5-.3.6l-.5.7c0 .1-.2.5-.5.9s-2.9 2.3-3 2.4zm1.1-1.2l-.7.8c.8-.5 2.4-1.7 2.7-2 .2-.4.4-.9.4-.9s.5-.6.5-.7c.1-.1.3-.5.3-.5v-.5h-.1l-.1-.2V69h-.1c-.1 0-.3-.1-.3-.2 0 .4-.1 1-.1 1.1 0 .1-.1.6-.1.6-.1.3-.3.8-.4.8l-.9.9c-.3.3-.6.5-.6.6 0 .1-.4.3-.5.3zM65.6 75.9v-.1s.9-.3 1.3-.9l.1-.2c.1-.3.3-.6.3-.7v-.4h.1v.4c0 .1-.1.3-.3.7l-.2.3c-.4.7-1.3.9-1.3.9z"/><path fill="#0F0E0B" d="M67.5 76.4c-.1 0-.7-.4-.8-.6-.1-.3-.2-.4-.2-.5l.2-.2.4.2s.2.2.2.3l.2.2-.1.1s-.2-.1-.2-.2l-.2-.3-.3-.2-.1.2.2.4c.1.1.5.3.7.6zM63.9 82.9s-3.1-1.1-3.8-1-1.6.1-1.8.2-.5.1-.5 0 .9-4 .9-4.2c.1-.2 1.2-1.5 1.2-1.5l.8-.5-.1-.2s-1.5 1-1.9 1.7c-.4.7-.8 2.9-1 3.3s-.4 1.8-.4 1.8l.7.5.1.8s.9 2.9.9 3c0 .1.6 1.7.6 1.7s.1.5.1.6c0 .1.2.6.2.6v.5l.3.3s.1-1 0-1.5-.3-1.4-.5-1.8c-.1-.4-.4-.9-.4-.9s-.2.1-.2.2-.1-.2-.1-.2-.8-2.3-.8-2.7c0-.5-.1-1-.1-1.1s.1-.2.4-.3 1.1-.3 2-.1c.9.2 1.9.4 2.2.5.4.2 1 .4 1 .5.1.2.2-.2.2-.2z"/><path fill="#0F0E0B" d="M60.2 90.6l-.4-.4v-.5c0-.1-.1-.5-.2-.6 0-.1-.1-.6-.1-.6-.2-.6-.6-1.7-.6-1.7 0-.1-.8-2.7-.9-3l-.1-.8-.6-.5c0-.1.3-1.3.4-1.8.1-.2.1-.5.3-.9.2-.8.5-2 .8-2.4.4-.7 1.8-1.7 1.9-1.7h.1l.2.3-1 .4c-.4.5-1.2 1.4-1.2 1.5-.1.2-.9 4-.9 4.2h.4c.1-.1.6-.1 1.5-.2h.3c.8-.1 3.7 1 3.8 1 0 .4-.1.4-.1.4l-.1-.1c0-.1-.4-.2-.7-.4-.1 0-.2-.1-.3-.1-.3-.1-.9-.3-1.6-.4-.2 0-.4-.1-.6-.1-.8-.2-1.4 0-1.8 0h-.1c-.3 0-.3.2-.3.2 0 .1 0 .6.1 1.1 0 .5.8 2.7.8 2.7v.1l.1-.1h.1v.1s.2.5.4.9c.1.2.2.7.3 1.1.1.3.1.5.2.7.1.5 0 1.5 0 1.5l-.1.1zm-.2-.5l.2.2c0-.3.1-.9 0-1.3-.1-.2-.1-.5-.2-.7-.1-.4-.2-.8-.3-1.1-.1-.3-.3-.7-.4-.8l-.1.1v.1s-.1 0-.1-.2c0-.1-.8-2.3-.8-2.7 0-.5-.1-1-.1-1.1 0-.1.1-.3.4-.3h.1c.4-.1 1.1-.2 1.8 0 .2 0 .4.1.6.1.7.1 1.3.3 1.6.4.1 0 .2.1.3.1.3.1.6.3.7.3V83c-.3-.1-3.1-1.1-3.8-1h-.3c-.6.1-1.3.1-1.4.2-.1.1-.4.1-.5 0v-.1s.8-4 1-4.2c.1-.2 1.2-1.4 1.2-1.5l.7-.4-.1-.1c-.3.2-1.5 1.1-1.8 1.7-.2.5-.5 1.6-.7 2.4-.1.4-.2.8-.3.9-.1.4-.4 1.5-.4 1.7l.7.4.1.8c.3 1.2.9 2.9.9 3 0 .1.6 1.6.6 1.7 0 0 .1.5.1.6 0 .1.2.6.2.6l.1.4z"/><path fill="#0F0E0B" d="M63.8 82.7s1.2.2 1.3.1c.2-.1 2.4-1.5 2.4-1.5l.8-.6h.9v.1h-.8L66.7 82l-.7.5.1.4s.8 1 .9 1.1c.1.1.4.6.4.6l.3.3-1.5-1.6-.3-.5-.1-.1h-.2l-.2.3-1.4-.1-.3-.1.1-.1z"/><path fill="#0F0E0B" d="M67.6 85c-.6-.6-1.5-1.5-1.5-1.6l-.3-.5-.1-.1h-.1l-.1.3L64 83l-.3-.1-.1-.1.1-.2c.4.1 1.2.1 1.3.1.2-.1 2.3-1.5 2.4-1.5l.8-.6h1l-.1.2h-.8L66.6 82c-.2.2-.6.5-.7.6 0 .1 0 .2.1.4.5.3 1 1 1 1 .1.1.4.5.4.6l.2.4zm-2-2.3l.2.1c.1.2.3.5.3.5s.5.5.9 1v-.2c-.1-.1-.8-1-.9-1.2-.2-.5-.1-.5 0-.5l.6-.6c-.6.4-1.4.9-1.5.9-.2.1-1.1 0-1.3 0l.2.1 1.3.1.1-.3.1.1z"/><path fill="#0F0E0B" d="M63.8 82.6l-.2-.4s-.7-1.3-.7-1.4c0-.1.1-.3 0-.5s-.1-.4-.3-.4-.2-.2-.3-.3c-.1-.1-.1-.2-.2-.3l-.2-.4.7.5.4.2s0 .5.1.6l.3.3s.2.1.2.3c.1.2.1.4.2.4l.2.2.2.4v.9l-.4-.1z"/><path fill="#0F0E0B" d="M64.1 82.8h-.4l-.1-.1-.2-.4c-.1-.2-.7-1.4-.7-1.5v-.1-.3l-.1-.1c-.1-.1-.1-.2-.2-.3-.1 0-.2-.1-.2-.2l-.1-.1s-.1-.2-.2-.3l-.2-.4.1-.1.7.5.4.2c0 .2 0 .5.1.6.1.1.2.3.2.3s.2.1.2.3c.1.3.2.4.2.4l.2.2v.1c.1.1.1.3.1.3V82.1c.2.3.2.6.2.7zm-.3-.1h.2v-.8l-.1-.3v-.1l-.2-.2c-.1-.1-.1-.2-.2-.5-.1-.2-.2-.2-.2-.2l-.3-.3c-.1-.1-.1-.5-.1-.6l-.4-.2-.5-.3.1.2c.1.2.2.3.2.3l.1.1.2.2c.1.1.2.2.2.3l.1.1c.1.1.1.3 0 .4v.1c0 .1.5.9.7 1.4l.2.4zM68.1 67.4l-.1.3h-.1l-.2-.2v.2l.4 1.4.1.4-.2-1.2v-.2s.5-.2.6-.3c.1-.1.7-.6.7-.7v-.5l.1-.3.3-.6-.1-.1-.3.3-.2.1s-1.2.6-1.5.4l-1.5-1.5-.7-.6-.5-.5-.2-.3v-1.2s0-.3-.1-.4c0-.1-.2-.3-.2-.3l.1.5v.7s.1 1 .2 1.2c.1.2.7.6.9.8.2.3 1.5 1.6 1.5 1.6H66.5l-.1.1.3.1.2.1.1.1v.2l.2-.2s.8 0 .9-.1c.1-.1.8-.3.8-.3l.3-.1-.2.8-.7.6-.1.1-.1-.4z"/><path fill="#0F0E0B" d="M68.2 69.6l-.1-.4-.4-1.4v-.3l.3.2h.1l.1-.4.1.5h.1c0-.1.6-.5.7-.6l.2-.7H69c-.2.1-.7.3-.8.3-.1.1-.7.1-.9.1l-.3.2-.1-.3-.1-.1-.2-.1-.2-.1h-.1l.1-.2h.6c-.3-.3-1.2-1.3-1.4-1.5-.1-.1-.3-.3-.5-.4-.3-.2-.4-.3-.5-.4 0-.1-.1-.2-.1-.4v-.1c0-.3-.1-.6-.1-.6v-.7l-.1-.5h.1s.2.2.2.3c0 .1.1.4.1.4V63.6l.2.3.5.5.7.6s1.2 1.3 1.5 1.5c.2.2 1.1-.2 1.4-.4l.2-.2.3-.3.2.1-.3.7-.1.2v.5c0 .2-.6.7-.7.8-.1.1-.5.2-.6.3v.2l.3 1.2h-.1zm-.4-1.9l.2.6v-.2s.5-.2.6-.3c.2-.1.6-.5.6-.7v-.5l.1-.3.2-.6h-.1l-.3.2-.3.2c-.1.1-1.2.6-1.6.4 0-.3-1.2-1.5-1.2-1.6l-.7-.5-.5-.5v.1c0 .1.2.2.4.4s.4.3.5.4c.2.2 1.5 1.6 1.5 1.6l.1.1h-.8l.2.1.2.1.1.1v.1l.2-.1c.3 0 .8 0 .9-.1.1-.1.8-.3.8-.4l.4-.1-.2.9c-.3.3-.7.6-.7.6-.1.1-.2.1-.2.1l-.1-.2-.1.1h-.2zM64.5 62V62.9 62z"/><path fill="#0F0E0B" d="M66.1 72.8c-.1-.1-.1-1.1 0-1.6l.2-1.2-.1-.1-.2.1-.2.2s-.6.4-1 .5h-.2c-.1-.1.1-.4.2-.6l.8-.7.3-.6.2-.4c.1-.1.6-1 .9-1.6l.1.1c-.3.6-.9 1.6-1 1.7 0 0-.1.2-.2.3l-.3.6-.8.7c-.1.2-.3.4-.2.5h.1c.3-.1.9-.5 1-.5.1-.1.2-.3.3-.3l.1-.1v-.1l.1-.1.2.3-.2 1.2c0 .6-.1 1.3 0 1.5 0-.1.1-.2.2-.4l.4-1.7v-.3l.5.5c.2.7.4 1.7.5 1.8l.1-.2-.2-1.2-.2-1.4h.1c.2.6.3 1 .3 1.1 0 .1.6.9.7 1.1l.1-.1-.3-1-.4-.8v-.3h.1l.2.3.3.5c.2.2.4.3.5.3l.1-.1-.6-.6c-.1 0-.2-.4-.2-.6h.1c.1.2.2.5.2.5.1 0 .6.6.7.7l-.4.2s-.1 0-.6-.4l-.3-.5.2.8.3 1v.2h-.1s-.8-1-.7-1.2c0 0-.1-.2-.1-.5l.1.8.2 1.2s-.1.2-.2.2c0 0-.2 0-.6-1.9l-.3-.3v.1l-.4 1.7c-.1.3-.2.7-.4.7z"/><path fill="#0F0E0B" d="M67 67l-.9 1.6s-1.2.8-2.7 1c-1 .1-5 1.1-5 1.1l-.5.2-.1.1h.2l-.1.2h.2c.1-.1.9-.6 1-.6h.3l.3-.2s3.3-.7 3.8-.8c.5-.1 1.7-.5 2-.6.3-.2 1.4-1.2 1.5-2z"/><path fill="#0F0E0B" d="M58 71.3h-.1l.1-.2h-.2l.1-.3.6-.2s3.9-.9 5-1.1c1.2-.2 2.3-.7 2.6-.9l.1-.1.9-1.5h.1c-.1.5-.5 1.1-.9 1.5l-.1.1H66c-.2.2-.4.4-.5.4-.2.1-1.5.5-2 .6-.4.1-3.7.8-3.8.8l-.4.2H59c-.2 0-.9.5-1 .6v.1zm.1-.4l-.1.3c.1-.1.9-.6 1.1-.6h.3l.3-.2s3.3-.7 3.8-.8h.1-.3c-1 .1-4.9 1.1-5 1.1l-.5.2v.1l.3-.1zm7.5-2c-.1.1-.3.2-.5.2.2-.1.3-.1.4-.2h.1zm1.2-1.6l-.4.6c.2-.2.4-.4.4-.6z"/><path fill="#0F0E0B" d="M64.1 68.9s-.2.2-.3.1c0-.1.2-.3.2-.3l.3-.3.3-.2.2-.1-.2.5v.4h-.3s0-.3-.2-.1z"/><path fill="#0F0E0B" d="M63.9 69.1c-.1-.2.1-.4.1-.5l.3-.3.3-.2.3-.1-.2.6v.4h-.4v-.2l-.1.1-.3.2zm.7-.9l-.2.2-.3.3-.2.3.2-.1.2-.1.1.1h.2v-.7zM58.9 73.6c0-.2 0-1.8.1-2.2.1-.4.4-.8.4-.9l.1.1c-.1.1-.3.5-.4.9-.1.3-.1 1.6-.1 2l.3-.2.5-.2s.8-.2 1.1-.3c.3-.1 1.7 0 1.7 0v.1c-.4 0-1.5-.1-1.7 0-.3.1-1.1.3-1.1.3l-.5.2-.4.2z"/><path fill="#0F0E0B" d="M59.4 74.5s-.1 0-.4-.1c-.2-.1-.2-.1-.3-.1l-.1-.1c-.1-.1-.4-.4-.5-.8-.1-.3 0-1.6 0-1.7h.2c0 .4-.1 1.4 0 1.7.1.3.3.6.5.7l.1.1s.1 0 .2.1c.2.1.4.1.4.1l-.1.1z"/><path fill="#0F0E0B" d="M57 76.1h-.9v-.2c.5 0 1.3.1 1.5 0 .3-.1 1-.5 1.1-.7.1-.1.2-.3.3-.5.2-.3.5-.7.6-.8 0-.1.3-.4.3-.5l.2.1c-.1.2-.3.5-.3.5 0 .1-.2.3-.6.8-.1.2-.3.4-.3.5-.2.2-1 .6-1.2.7-.1.1-.4.1-.7.1z"/><path fill="#0F0E0B" d="M57.4 76.1l-.1-.2s.6-.5.6-1.1c-.1-.6-.8-2.7-.9-3.1l-.1-.2c-.5-1.5-.6-1.9-.6-2 0-.2.3-1.5 1.1-1.5.2 0 .5 0 .9-.1.7-.1 1.5-.1 1.8-.1.5 0 2.3-.2 2.3-.2l.7-.1h.2v-.2h.1c.3-.1 2.9-.9 3.2-1v.2c-.1 0-1.9.6-3.1.9l-.1.3H63l-.7.1c-.1 0-1.9.2-2.3.2-.3 0-1.1.1-1.8.1-.4 0-.7.1-.9.1-.5 0-.8.9-.9 1.4 0 .1.5 1.4.6 1.8l.1.2c.1.3.9 2.6.9 3.2.1.7-.6 1.3-.6 1.3z"/><path fill="#0F0E0B" d="M64.5 67.1l-.1-.2-.2-.2-.1-.1-.4-.3c-.2-.1-.3-.2-.3-.2V66l.3-.1.2-.3h.1l-.2.4-.2.1.2.1.4.3.1.1.2.3.1.2h-.1z"/><path fill="#0F0E0B" d="M64.7 65H64l-.4-.3-.3-.3.3.6s.5.4.6.4c.1.1.3.1.3.1l.2.1.5.6H65l-.2-.2-.3-.1.1.3v.2l-.2-.1V65.7l-.4-.1-.2.3-.1.1.2-.5-.2-.2s-.5-.6-.6-.8c0-.1-.4-.9-.4-.9v.1-.2l.4.3s.2.5.4.6c.2.1.6.2.7.2h.4l.1.4z"/><path fill="#0F0E0B" d="M64.7 66.5l-.3-.1v-.2l-.1-.3-.3-.2-.1.2-.2.1h-.1l.2-.4-.1-.2c-.1-.1-.5-.7-.6-.8 0-.1-.4-.9-.4-.9v-.1h.1l.4.3c.1.1.3.5.4.6.1.1.6.2.7.2h.4v.3H64l-.5-.4.1.2.6.4.3.1.2.1.5.6-.2.3-.2-.2-.2-.1.1.2v.3zm-.2-.2l.1-.1-.1-.4.4.2.2.2-.4-.5-.2-.1c-.1 0-.2 0-.3-.1-.2-.2-.6-.5-.6-.5l-.3-.6.1-.1.3.3.4.3h.6v-.1h-.3c-.1 0-.5-.1-.7-.2-.2-.1-.4-.6-.4-.7l-.3-.3v.1c.1.2.3.6.3.8 0 .1.3.5.5.8l.2.2-.1.1.1-.1.4.2.1.4v.2zM66.6 70.1h.3l-.1-.3h-.1z"/><path fill="#0F0E0B" d="M66.9 70.2h-.3l.1-.5.3.1-.1.4zm-.2-.1h.1v-.2h-.1v.2zM63.1 63.1c0-.2 1-1.3 1.2-1.4 0 0 .1-.1.3-.2 1.7-1 2.4-1.4 2.5-1.4l-.1-.2-.4-.3h-.5v.4h-.2l-.1-.1h-.2l-1.3.6c-.1.1-1.5 1.6-1.7 1.8l-.1-.1c.2-.3 1.7-1.8 1.8-1.8l1.4-.6h.3l.1.1h.1v-.2s.1 0 .2-.1h.4l.4.3.1.2-.1.1c-.1 0-1.9 1.1-2.5 1.4-.2.1-.3.2-.3.2-.2 0-.9.8-1.3 1.3z"/><path fill="#0F0E0B" d="M66.7 60.6l.2.2.2.1v.2l-.1.1-.1.1.1.2-.1.2-.2-.1-.1-.1h-.1l-.2-.1h-.6l-.5.3-.2.1.1-.2.3-.3.2-.2 1-.1.3-.1z"/><path fill="#0F0E0B" d="M64.9 61.9l.1-.3.4-.3.2-.2 1-.1.2-.1-.1-.3.1-.1.2.2.2.2.1.2s0 .1-.1.2l-.1.1.1.1-.1.2-.3-.1-.1-.1h-.2l-.1-.1h-.6l-.5.3-.4.2zm.2-.3l.6-.3h.7l.1.1h.2l.1.1.1.1v-.1l-.1-.2.2-.1.1-.1V61l-.1-.1v.1l-.3.1c-.1 0-.7 0-1 .1l-.2.2-.4.2zM66 62s.3-.6.5-.6"/><path fill="#0F0E0B" d="M66 62c0-.2.3-.7.5-.7v.1c-.1 0-.3.4-.5.6zM67.3 60.7v.2l.3-.3-.1-.1V60.2l.3.3.1.1v.4l-.2.1h-.3s-.1-.1-.1-.4z"/><path fill="#0F0E0B" d="M67.4 61.1s-.1-.1-.1-.2v-.3h.1v.1l.2-.2V60l.5.5v.4l-.2.1-.5.1zm0-.2l.1.2h.3l.1-.1v-.2l-.1-.1-.2-.2v.1l.1.2-.3.1zM67.3 63.7l-.1-1.2v-.3l.2.1-.2-.3v-.3s-.5.3-.7.3h.5s-.1.4-.1.5c0 .1.2 1 .4 1.2z"/><path fill="#0F0E0B" d="M67.4 63.9l-.1-.1c-.2-.2-.4-1.1-.4-1.2 0-.1 0-.3.1-.5h-.5l-.1-.1.1-.1c.1 0 .4-.2.6-.3h.1V61.9l.2.4-.1.1-.1-.1v.2l.2 1.4zm-.3-2c-.1.2-.1.5-.1.6 0 .1.1.6.3.9l-.1-.9.1-.4-.2-.2v-.1c-.1 0-.1.1-.2.1h.2zM67.7 62.1h-.3l.3-.3.1-.1.2.1v.2h-.1z"/><path fill="#0F0E0B" d="M68.8 63.3c-.1.1.1.2.3.9.2.7.8 1.5.6 1.5 0 0 0 .1-.2-.1-.4-.5-.7-1.5-.7-1.7-.1-.4-.1-.3-.1-.3l-.2.1h-.2v-.2s.2-.2.3-.2.2-.1.2-.1V63H68.5v.1l-.3.2H68l.2-.3.2-.2v-.2l-.2-.3h-.3v-.1s.8-.7.8-.8c0-.1.2-.4.2-.4v-.3h-.2l-.7.2v-.2s.9-.2.9-.1.1.6 0 .7c-.1.1-.6.6-.6.7v.1l.3.3.2.2s.4.2.4.3c-.2.1-.1.3-.4.4zM64.2 61v-.2h-.1v.4h.3l.1-.1v-.3l-.1-.2h-.2l-.1.1s.2.2.2.3c0 .1-.1.1-.1.1V61zM62.8 63.8c-.2-.4-.4-1.6-.4-1.6v-1.1c0-1 .8-1.7.8-1.8l.1-.1V59.5H63.6v.1l-.2.1v.4H63.1l-.1.1-.2.1c0 .2.1.9.1 1h-.1l-.1-1v-.1l.1-.1.1-.2.2.1v-.3l.1-.1c-.1 0-.2.1-.3 0v-.2c-.2.2-.7.8-.7 1.6v1.1c.3.1.5 1.3.6 1.7z"/><path fill="#0F0E0B" d="M66.8 59.7c-.4-.2-1-.6-1-.6h-.3l-.1.1c.1.1.1.2.1.2h-.1c-.1 0-.1 0-.2-.1l-.1-.2-.1.1H64.4l-.1-.2h-.6l-.2.2-.1.1-.1-.1.1-.1.3-.2h.7l.1.1h.7l.1.1.1.1h.1l-.1-.1s.1-.1.2-.1c0 0 .2-.1.4 0-.1 0 .6.5.8.7zM62.5 60.8l.1-.3.1-.2h.1l.2.8.1-.3-.1-.6.2-.2.3.1v-.2l.1-.2.1-.2h-.5c-.1 0-.7 1-.7 1.3z"/><path fill="#0F0E0B" d="M63 61.2l-.2-.8h-.1v.1s-.1.2-.1.3h-.1c0-.3.5-1.3.6-1.3h.5v.1l-.1.2v.4l-.3-.2-.2.2s0 .3.1.6l-.1.3v.1zm-.2-.9h.1l.1.6v-.1l-.1-.6.2-.3.2.1v-.2l.1-.2v-.1H63c0 .2-.1.5-.2.8zM64 58.9h.4c.5 0 1.2 0 1.5.1.4.2-.4.1-.4.1v.3h-.2l-.2-.2h-.6l-.5-.3z"/><path fill="#0F0E0B" d="M65.4 59.4l-.2-.1-.2-.2h-.6s-.3-.1-.5-.1v-.1h.4c.4 0 1.2 0 1.5.1l.1.1s0 .1-.5 0v.3zm-.1-.1l.1-.2h.5c-.3-.1-1-.1-1.4-.1h.7l.1.3zM71.1 91.4c-.9 0-1.4-.4-1.4-.4l.1-.2s.6.5 1.8.3c1-.1 1.7-.3 1.9-.4v-.1c0-.2.1-1.9.2-2.3.1-.4-.2-1.1-.2-1.1l-.3-.6V86l-.3-1.1-.6-1.6-.9-1.7-.4-.3v-.6h.2v.5l.3.3.9 1.8.6 1.6.3 1.1v.6c.1.2.2.5.3.5.1.1.4.9.3 1.3-.1.4-.2 2.3-.2 2.3l-.1.2s-.8.2-2 .4c-.1.1-.3.1-.5.1z"/><path fill="#0F0E0B" d="M69.9 81.6c-.5 0-.7-.9-.7-1h.2c0 .2.2.8.5.8.4 0 .7-.1.9-.2.1 0 .2-.2.3-.3l.2.1s-.2.3-.4.4c-.3.1-.6.2-1 .2zM69.9 90.9h-.2l.1-2.1v-.9l-.2-.3c-.5-.7-1.3-1.9-1.6-2-.4-.2-2.5-2.3-2.6-2.5-.1-.2-.1-.4 0-.5l.3-.2.1.2-.2.1v.2c.1.2 2.2 2.2 2.5 2.4.4.2 1.6 1.9 1.7 2.1l.6 1.4-.2.2-.3-.4v2.3z"/><path fill="#0F0E0B" d="M65.2 90.8l-.1-.2c.2-.1 1.8-.7 1.9-.7l.1-.1.2-.8.9-3 .2.1-.9 3-.2.8c0 .1-.1.3-.3.3 0 0-1.1.4-1.8.6z"/><path fill="#0F0E0B" d="M63.5 96.7l-.1-.1.1-.1v-.1c.2-.2.8-.5 2.1-1 0-.1.1-.3.1-.4v-.2-.2l1.3-4.7.2.1-1.3 4.6v.5c-.1.3-.1.5-.2.6-1.5.5-2 .8-2.2 1z"/><path fill="#0F0E0B" d="M65.7 95.6l-.4 1.2-.4 1.5s-.4.3-.4.2c0-.1 0-.5.1-.8.1-.3.3-1.1.3-1.1s.2-.2.1-.3V96l.7-.4zM60.4 68.1l-.1-.2c.5-.5 1.5-1.3 1.7-1.3 0 0 .3-.1.8-.3.2-.1.3-.2.3-.2l.1-.1.2-.1s.2-.1.3-.2l.1.2c-.3.2-.4.2-.4.2l-.1.1-.1.1s-.2.1-.3.2c-.4.3-.7.4-.9.4-.2 0-.9.6-1.6 1.2zM68.2 69.1c0-.1.4-.2.5-.4.1-.2.2-.5.2-.5V68l-.1-.3h.1l.1.3v.3l-.2.6c-.2 0-.6.2-.6.2zM68.5 70.1V70c.4-.1.7-.2.8-.3.1-.1.4-.6.4-.6l.2-.4v-.3h.1v.3l-.2.4s-.3.5-.4.6c-.1.2-.8.3-.9.4zM69.8 67.6c-.1-.5-.3-1.1-.3-1.2l.1-.1c.2.1.3 1.1.4 1.3h-.2zM61 65.3v-.1c.3-.2 1.1-.5 1.2-.5.1 0 .4-.1.6-.2l.5-.1.1.2-.5.1c-.1 0-.5.2-.7.2-.1 0-.6.2-1.2.4zM60.1 67.9c0-.1.3-.3.3-.5v-.1c0-.2 0-.5.1-.6l.1-.5v-1.1l-.3-.6-.1-.1-.1-.1-.1-.1c-.1.3-.1.3-.3.5l-.1-.1c.1-.1.1-.1.3-.5V64l.2.1.1.1.1.2.3.7v1.1c0 .1 0 .4-.1.5-.1.2-.1.4 0 .6v.1c0 .3-.4.5-.4.5z"/><path fill="#0F0E0B" d="M59.7 68H59c-.1 0-.2-.1-.3-.1-.1-.1-.9-.6-.9-.6l-.2-.3-.2-.2s-.2.1-.3.2l-.1-.1c.1-.1.3-.3.4-.2.1 0 .2.3.2.3l.1.2c.1.1.8.5.9.6l.3.1h.7s.3-.1.5-.2v.1c0 .1-.3.2-.4.2z"/><path fill="#0F0E0B" d="M58.4 68.1c-.1-.1-.3-.1-.3-.1l-.1-.3-.1-.2v-.1l-.1-.2h-.1l-.1.1s-.1.1-.2.1c-.2 0-.4-.3-.4-.4.1.1.2.3.3.3.1 0 .1 0 .2-.1h.1l.1-.1h.2s.1.1.1.2V67.6l.1.2c.1.1.3.2.3.3zM57.2 66.7l-.1-.3-.1-.1v-.6h.1l.4.1h.3l.2-.1.1.1-.2.1h-.3c-.1 0-.3 0-.4-.1v.2l.1.2.1.1.1.3-.3.1zM56.9 65.2l.2-.3.4-.1h.5l.2.1-.1.1H57.5s-.2.1-.3.1l-.3.1z"/><path fill="#0F0E0B" d="M56.8 65.1l-.1-.1.2-.3.2-.1.1-.1.2.1h.2l.1-.1.1.1-.1.1h-.4l-.1-.1-.1.1-.1.1zM59.2 65c-.2 0-.3-.2-.3-.2l-.1-.7h.1l.1.7s0 .2.2.2zM59.2 64.5l-.1-.1V64l.1-.2.1-.2.1-.2.2-.1v-.2l-.2-.1-.2-.2.1-.1.2.2.2.1v.3l-.2.2-.2.3-.1.3z"/><path fill="#0F0E0B" d="M59.7 63.5l.3.1-.1.2-.2-.2h-.2"/><path fill="#0F0E0B" d="M59.9 63.8l-.2-.1-.2-.1.1-.1.1.1.2.1-.2-.1v-.1l.3.1zM59.3 65.3l-.1-.1.2-.2v.1zM59.6 65.6h.2v-.5l-.2.1zM58.9 65.7h.2l.1-.1.1.1-.2.2h-.2zM59.9 67.4c-.2 0-.6-.4-.7-.5v-.7s0-.1.4-.4c.1-.1.3 0 .4.1 0 0 .1.2.1.3l.1.3.1.4c0 .1-.2.5-.4.5zm-.6-.6c.2.3.5.5.6.5.1 0 .3-.3.4-.4l-.1-.4s-.1-.2-.1-.3L60 66c-.1-.1-.3-.1-.3-.1-.4.2-.4.3-.4.3v.6zM56.6 67.8h-.9s-.5-.2-.7-.4l-.4-.4v-.2h.1c.1 0 .5.1.6.1h.1v-.1l-.3-.2c-.1-.1-.1-.2-.1-.2v-.1c-.1 0-.4-.1-.4-.1h-.1l.1-.3c.1 0 .6 0 .8.1.1.1.2.1.3.1h.5l.2-.1.2-.1-.1-.1h.1v.1c0 .1-.1.1-.2.1l-.2.1-.2.2h-.6s-.1-.1-.3-.1c-.1 0-.5-.1-.7-.1v.1c.1 0 .2.1.3.1.1 0 .1.1.1.1v.1l.1.1.1.1.2.2s.1.1.1.2v.1h-.2c-.1 0-.4-.1-.5-.1v.1s.1.2.4.4c.2.2.6.3.7.4h.8c.2-.2.3-.4.3-.4l.1-.3v-1.1s-.3-1-.4-1.2c-.1-.2-.2-.5-.2-.5l.1-.4.3.1.5.1h.3l.2.1c.1.1.4.3.5.4 0-.1.1-.2.1-.3v-.4l-.1-.3-.2-.5.1-.1.2.3.1.3v.4c-.1.4-.1.4-.2.4h-.1s-.3-.2-.5-.4l-.2-.2h-.3l-.5-.1-.2-.1v.2c0 .1.1.3.2.5s.4 1.2.4 1.2v1.1c0 .1-.1.3-.1.3.1.2-.1.4-.3.7z"/><path fill="#0F0E0B" d="M57.9 64.4c0-.2-.4-.6-.6-.8l.1-.1s.6.5.6.9h-.1zM58.4 64l.2-.4.1-.8-.1-.3-.3-.4v.1l.1.3.1.6v.5z"/><path fill="#0F0E0B" d="M58.4 64v-1-.5l-.2-.3v-.3l.4.5.1.4-.1.7-.2.5zm-.1-1.7l.1.2v1.1l.1-.7-.1-.4-.1-.2z"/><path fill="#0F0E0B" d="M58.6 63.6h.2l.3-.4.2-.3.2.1V62.7l-.1-.7-.5-.8-.6-.2h-1l.1.1s1.1.1 1.2.1.5.7.5.7l.1.9-.2.4-.2.1-.2.3z"/><path fill="#0F0E0B" d="M58.9 63.6h-.3l.2-.3.2-.1.1-.4-.1-.9c-.2-.2-.4-.6-.4-.6-.1 0-.6-.1-1.1-.1l-.3-.2.1-.1.2.1h.8l.6.3.5.8.1.7v.1l.1.3-.3-.2-.1.2-.3.4zm-.2-.1h.1l.3-.3.2-.3.2.1v-.2l-.1-.7-.5-.8-.1-.1c.1.2.4.5.4.6l.1.9-.3.5-.2.1-.1.2zm-1.3-2.4c.2 0 .8 0 1 .1l-.1-.2-.9.1zM57.3 68.2l.5-.3.2-.2-.1-.2-.1-.3s.1-.1.4.6c0 .1.2.3.2.3l-1.1.1z"/><path fill="#0F0E0B" d="M57.3 68.2l.4-.4.2-.2-.1-.2-.2-.3h.1c.1 0 .3.3.4.6l.2.2.1.1-1.1.2zm.6-.8l.2.4-.3.2-.3.1.7-.1-.1-.2c-.1-.2-.2-.3-.2-.4zM55.3 62.5l-.1-.2.9-.5c-.2-.3-.7-1-.7-1.5-.1-.6.4-1.5.5-1.5.1-.1.9-.6.9-.6h.3l-.2.6-.5.2c-.1.1-.3.2-.3.3l-.1.3-.2-.1c.1-.1.1-.2.1-.3 0 0 0-.1.4-.4l.5-.3.1-.2c-.2.1-.7.5-.8.5-.1.1-.5.8-.4 1.3.1.5.8 1.5.8 1.5l.1.1-1.3.8z"/><path fill="#0F0E0B" d="M57.5 61l-.2-.1.3-.7h1l-.1-.1-.3-.1-.2-.2.1-.2c.1.1.8.4.9.5l.2.1h.1l-.3-.4.2-.1.7.6v-.1l-.1-.3c-.5-.5-1.3-1.2-1.6-1.2-.4 0-1.1 0-1.3.1l-.1-.2c.3-.1.9-.2 1.4-.2.5 0 1.6 1.2 1.7 1.3l.1.4-.1.5-.2-.2-.2.1s-.1-.1-.3-.2h-.1c-.1 0-.2 0-.2-.1l-.1-.1.2.3-.7-.1h-.6l-.2.7z"/><path fill="#0F0E0B" d="M60.7 66h-.1v-.8h.2v.6h.1v-.6l.3-.2.4-.1.3-.1s.1-.2.1-.3c0-.2-.1-1-.1-1.2l-.1.1c-.1 0-.2 0-.3-.1 0 0-.1-.1 0-.9-.1.1-.1.3-.2.3v.5c0 .1-.2.7-.4.8h-.4l-.1-.2v-.5c0-.1-.1-.3-.1-.5 0-.1 0-.2-.1-.2-.1-.6-.5-1.1-.8-1.4l-.2-.2c-.1-.1-.5-.2-1.4-.2-.1 0-.3.2-.4.3l-.1-.1s.3-.4.5-.4c.9 0 1.4.1 1.5.3l.2.2c.3.3.7.8.8 1.5v.2c.1.3.1.5.1.6v.4h.2c.1 0 .2-.4.3-.6V63v-.3c0-.1.2-.4.2-.4h.4v.1c0 .3-.1.8 0 .9h.1v-.4l.2-.1s.2.3.2.4c.1.1.1 1.2.1 1.3 0 .2-.1.4-.1.4l-.3.1-.4.1-.1.1c0 .6-.1.6-.1.7-.2.1-.3.1-.4.1z"/><path fill="#0F0E0B" d="M61 65.4l-.1-.1-.2.1-.1-.1s.2-.1.3-.1c.1 0 .2.1.1.2zM57 67.1l.1-.1.2-.2-.1-.3-.1-.6z"/><path fill="#0F0E0B" d="M56.9 67.2l.1-1.3h.1l.2.6v.4l-.2.2-.2.1zm.2-1l-.1.8.2-.2v-.3l-.1-.3zM59.2 64.3v-.5l.3-.1.2-.2.2.3s-.3 0-.4.2c-.2 0-.3.3-.3.3z"/><path fill="#0F0E0B" d="M59.1 64.5v-.8l.3-.1.3-.3.3.4h-.1s-.3 0-.4.2c-.2.2-.3.4-.3.4l-.1.2zm.1-.7V64.1l.2-.3c.1-.1.3-.2.4-.2l-.1-.2-.2.2-.3.2zM59.4 64.7l.1.1M59.5 64.9c-.1 0-.2-.1-.2-.1l.1-.1.2.1-.1.1zM57.9 65.3c0 .1-.1.1-.2.1s-.2-.1-.2-.1.1-.1.2-.1c.1-.1.2 0 .2.1z"/><path fill="#0F0E0B" d="M59.7 64.1l-.1.1-.2-.1.2-.1zM55.2 62.4s-.2-.2-.5-.6c-.3-.4-1-.8-1.1-.8l-.2-.4v-.1l.2.1h.1l-.1-.2-.3-.5.4.1.2.2h.1l.1-.2-.1-.2c-.1-.2-.1-.2-.1-.3l.1-.2h.2s.1 0 .1.2l.1.2.1-.1.1-.2.1-.1h.2l.1.2V59.8l.3.3-.1.1-.3-.3v-.5h-.1v.1l-.1.3-.2.1h-.1l-.1-.2-.1-.1h-.1l-.1.1.1.2c.1.1.1.2.1.3 0 .1-.1.2-.1.3h-.2l-.3-.2h-.1l.1.2.1.2-.1.1H53.3l.1.3s.8.4 1.1.9c.2.3.4.5.4.5l.2-.1v.1l.1-.1zM59 73.5l.4.1h.3l.3.1.1-.2v-.3l1-.4h1.3l-1-.1H61l-1.3.5-.7.3"/><path fill="#0F0E0B" d="M60 73.8l-.3-.1-.3-.1H59v-.1l.7-.3 1.3-.4h.5l.9.1v.1h-1.2c-.4.1-.9.3-1 .3V73.6c0-.1-.1 0-.2.2zm-.9-.3l.3.1.3.1.2.1.1-.2v-.1-.3s0-.1 1-.4h-.1l-1.3.4-.5.3zm2.3-.8h-.3.5-.2zM55.6 81.3v-.2l-.1-1.1c0-.1.2-1.1.3-1.2 0-.1.4-.8.5-1.1.1-.2-.2-1.1-.4-1.7l.2-.1c.1.2.5 1.5.3 1.8-.1.3-.5 1.1-.6 1.1 0 .1-.3 1-.3 1.1v1c.3-.1.9-.4 1.1-.4.3-.1.6-.1.6-.1l.3-.1v.2l-.3.1s-.4.1-.6.1c-.2 0-1 .4-1.2.5l.2.1z"/><path fill="#0F0E0B" d="M51.7 89.7c-.3 0-.6-.1-.9-.4-.2-.2-.4-.5-.7-.7-.9-1-2-2.2-2.4-3-.6-1-1.6-2.6-1.8-2.8-.2-.2-1.5-1.5-1.6-1.7-.1-.1-.1-.4 0-.6 0-.1.1-.2.1-.2.2-.1.7 0 1 0l1 .3c.1.1.7.9.7 1l.3.3.5.4v.7c.2.2 2.8 2.4 3 2.6l.1.2v-.5c0-.4.3-3.8.4-4.2s.6-2.5.9-3c.2-.4 1.3-1.9 2.4-2.1 1-.2 1.4-.1 1.5-.1v.2s-.5 0-1.4.1c-.9.2-2 1.5-2.2 2-.2.4-.8 2.5-.8 2.9-.1.4-.4 3.8-.3 4.2 0 .1 0 .5-.1.8v.6c0 .2-.2.7-.2.8l-.2-.1s.1-.7.2-1.3c-.1-.1-.2-.3-.2-.3l-3-2.6V83l.2-.2V82.5l-.4-.3c-.1 0-.4-.3-.4-.4 0-.1-.5-.7-.7-1l-.9-.3c-.3 0-.8-.1-.9 0-.1 0-.1.4 0 .5.1.1 1.3 1.5 1.6 1.6.3.2 1.4 1.9 1.9 2.8.4.8 1.5 2 2.4 2.9.2.3.5.5.7.7.2.2.5.4.7.4.5 0 1-.5 1.1-.6l.5-1.1 1.1-2.9c0-.1.7-2.3.8-2.6.1-.2.3-1.3.3-1.7h.2c0 .1-.2 1.5-.3 1.7-.1.3-.8 2.5-.8 2.6L54 87.7 52.9 89s-.5.7-1.2.7z"/><path fill="#0F0E0B" d="M55.8 78s-.2.5-.1.7c.1.2.1.5.1.5v1.1s0 .3-.1.2-.1-1.3-.1-1.4.2-1.1.2-1.1z"/><path fill="#0F0E0B" d="M55.6 80.6c-.1-.2-.1-.6-.2-1.1v-.4c0-.1.2-.8.3-1V78h.1c0 .1-.1.4-.1.6.1.2.1.5.1.5v1.1c-.1.3-.1.4-.2.4zm0-1.9c-.1.2-.1.3-.1.3v.4c0 .2 0 .5.1.7v-1-.4zM53.5 89.6l-.1-.2.6-.3.3-.1c.3-.2.6-.4.7-.5 0-.1.4-.8.4-.9l2.6-3.8.2.1-2.6 3.8c-.1.3-.4.8-.4.9 0 0 0 .1-.8.6l-.3.1-.6.3zM53.8 88.7l-.2-.1.1-.4.2-.2.1-.2.1.1-.1.2-.1.2z"/><path fill="#0F0E0B" d="M45 94l-.5-.8.2-.3c.7-.7.9-.8 1-.8.1-.1.7-.5 1-.9.4-.4.7-.6.7-.6.1-.1.4-.3.8-.6l.2-.2c.5-.4 2.1-1 2.2-1l.1.2s-1.7.6-2.1 1l-.2.2c-.4.3-.7.5-.8.6-.1 0-.4.3-.7.6-.9.8-1.1.9-1.1.9-.1 0-.5.4-.8.8l-.1.1.4.5c.9-.3 3.3-1.2 3.5-1.2.2 0 2.6-.9 3-1.2.4-.2 2.5-1.9 2.7-2.1.2-.2.4-.5.4-.5l.2.1s-.2.3-.4.5-2.3 1.9-2.7 2.2c-.3.2-2.8 1.2-3.1 1.2-.5.1-2.6.8-3.9 1.3z"/><path fill="#0F0E0B" d="M40.4 95.6c-.2 0-.3-.1-.4-.2-.3-.3-.1-1-.1-1.1v-.1l.5-.1 1.1-.4 1.4-.9s.3-.1.5-.2c.2 0 .4.2.6.4h.7v.2h-.8l-.4-.4c-.1 0-.4.2-.4.2l-1.6 1-1.1.4-.4.1c0 .2-.1.6.1.8.1.1.1.1.2.1.6 0 3-.7 3.6-1 .5-.2 1-.6 1-.6l.1.2s-.5.4-1.1.6c-.3.2-2.8 1-3.5 1z"/><path fill="#0F0E0B" d="M42.6 93.9l-.1-.1c.2-.2.4-.3.5-.3.1 0 .2 0 .3-.1.1 0 .2-.1.2-.1l.1.2s-.1 0-.2.1c-.1 0-.2.1-.4.1-.1-.1-.3.1-.4.2zM74.4 69.1v-.2l.3-.1.1-.1c-.2-.4-1-1.9-1.8-2.7-.9-.8-2.3-.6-2.3-.6h-.4l-.9-.2V65l.9.2h.3c.2 0 1.6-.2 2.5.7.9.9 1.8 2.7 1.9 2.8v.1l-.3.2-.3.1zM79.2 78.4c0-.1-1.1-1.9-1.1-2.2 0-.3-.4-.3-.4-.3v-.1s.4.1.5.4c0 .3.8 1.7 1 2.2zM77.3 73.5l-.2-1.3-.9-.3v-.1l1 .3.2 1.3z"/><path fill="#0F0E0B" d="M79 79l-.6-.1-.6-.1-.6-1.1.1-.1.6 1.1.5.1h.5l.2-.3h-1l-1.5-3.9-.4-2.7h.1l.4 2.7 1.4 3.8h1.2z"/><path fill="#0F0E0B" d="M74.9 75.5l.2-.1.1-.1.2.3.2.1.3-.2.1-.1.3-.1.2-.3.1-.2h.1l-.2.4-.7.6v.4l-.3-.3-.2-.2h-.2z"/><path fill="#0F0E0B" d="M75.8 76.3l-.3-.4-.3-.2H75l-.3-.2.3-.2.1-.2.2.3.2.1.4-.3.3-.1.1-.3.1-.2h.2l-.2.5-.7.6.1.6zm-.5-.7l.3.2.1.2v-.3l.3-.3-.5.3-.2-.1-.1-.3-.1.1-.1.1.2.1h.1zm1.3-.8l-.1.2-.1.2.1-.1.1-.3zM72.5 80.9h-.6c-.1 0-.5-.1-.6-.1-.2 0-.4-.1-.5-.1h-.9v-.1c.1 0 .8-.1 1 0 .1 0 .3.1.4.1.1 0 .6.1.7.1h.6c.1 0 .2-.1.3-.2l.9-.1.2-.2v-.2l.2-.2.3-.1.3-.2.4-.4.2-.3v-.2l.4-.3.1-.2s0-.1.2-.1c.1 0 .3-.1.4-.1v.1s-.3.1-.4.1H76l-.1.3-.4.3v.2l-.2.4-.7.6-.3.1-.1.1v.2l-.3.3-.9.1c-.1 0-.3.1-.5.1zM69.9 78.8s-.1 0-.2-.1c-.2-.1-.5-.2-1.2-.4-1.1-.3-3.1-1.5-3.1-1.5l.1-.1s1.9 1.2 3.1 1.5c.7.2 1.1.4 1.3.4l.1.1c.1 0 .6-.2 1-.3l.8-.4.4-.2.2-.3.1-.3c.1-.2.3-.5.3-.5h.8v.1h-.7c-.1.1-.2.3-.3.4l-.1.3-.3.5-.5.2-.8.4c-.2 0-.9.2-1 .2z"/><path fill="#0F0E0B" d="M69.9 78.8l-.5-.7c-.3-.4-.7-.9-.7-1-.1 0-.3-.2-.4-.4l-.1-.4-.3-.4-.3-.2-.3-.7-.3-.6.2-.1.3.6.2.7.2.2.4.5.1.4.3.3s.1 0 .8 1l.5.7-.1.1z"/><path fill="#0F0E0B" d="M67.4 73.7c.1-.1.4-.5.5-.5.1-.1.7-.2.7-.2l-.5.4-.1.1-.3.5-.5.4.2-.7z"/><path fill="#0F0E0B" d="M67 74.8l.4-1.2.2-.2c.1-.2.3-.3.3-.4.2-.1.6-.2.7-.2l.3-.1-.2.3c-.1.1-.4.4-.5.4l-.2.1-.3.6-.7.7zm.5-1.1l-.1.4.2-.2.3-.5s.1-.2.3-.2l.1-.1c-.1 0-.2.1-.3.1-.1 0-.2.2-.3.3-.1.1-.1.2-.2.2zM54.1 75.8v-.2c.1 0 .4-.5.5-.7.1-.1.2-.2.2-.3.2-.3.5-.9.6-1.2.1-.3.2-.9.2-1.1 0-.2-.1-1.4-.1-1.4l-.2-3.3h.2l.2 3.3s.1 1.2.1 1.4c0 .2-.1.8-.2 1.2-.1.3-.4.9-.6 1.2-.1.1-.1.2-.2.3-.5.7-.6.8-.7.8z"/><path fill="#0F0E0B" d="M53.2 75.9l-.1-.2c.8-.6 1.5-2.3 1.8-2.9.1-.2.1-.3.1-.3 0-.1.1-.5.1-.9h.2c0 .3-.1.9-.2 1 0 0-.1.1-.1.3-.2.7-.9 2.4-1.8 3zM39.9 84.1c-.5 0-.8-.2-1.2-.7l.2-.1c.3.4.6.6 1 .6.9 0 1.7-1.1 1.8-1.2l.2-.6.1-1.4c0-.3-.5-4 1-4.8 1.6-.9 2.6-.5 5.2.7 2.7 1.3 4.2-.2 4.3-.3l.1.1s-1.7 1.7-4.5.3c-2.6-1.3-3.5-1.6-5-.7-1.4.8-.9 4.6-.9 4.6l-.1 1.5-.2.6c-.1.2-1 1.4-2 1.4zM47.1 80.4l-.1-.2c.1-.1 1.3-.7 1.5-.7.2-.1 1-.2 1.3-.2.2 0 .2 0 .4-.1s.5-.2.5-.2l.1.2s-.3.1-.5.2-.3.1-.5.1-1 .1-1.2.2c-.2 0-1 .4-1.5.7z"/><path fill="#0F0E0B" d="M41.6 85.1c-.5 0-.7-.1-.7-.2-.5.1-1.1.1-1.6-.2-1.5-.8-1.2-1.9-1.1-2.1l.2-1.1.2.4.1-.4.3-.3v.2c0 .3.2 1.1.6 1.3.5.2 1.1.2 1.3.1.3-.1.5-.2.6-.2l.4-.3.1.2-.4.3c-.1.1-.4.2-.6.3-.2.1-1 .2-1.5-.1-.4-.2-.6-.9-.7-1.3l-.2.7h-.2v-.1l-.1.4s-.4 1.1 1 1.8c.6.3 1.3.2 1.9.1l.7-.2.1.2s-.3.1-.7.2h.5c1.2 0 2.1-.6 2.8-1.5.4-.5.7-1.4.7-1.4l.2.1s-.3 1-.7 1.5c-.7 1-1.7 1.5-3 1.5l-.2.1zM50.6 79.8c-.1 0-.6 0-1-.1-.2-.1-.9 0-1.1 0v-.2s.9-.1 1.2 0c.3.1.8.1.9.1.1 0 .3-.1.4-.2.1-.1.2-.1.2-.1h.1l.2-.1.5-.5.2.1-.5.5c-.1.1-.2.1-.3.1h-.1l-.2.1c-.2.2-.4.3-.5.3zM39.1 80c-.1-.1-.8-.7-.9-1.1-.1-.4 0-.8 0-.9l.3-.3.3-.3.4-.4v.3c0 .3-.1 1.4.3 1.5.5.3.9.3 1.1.3.2-.1.4-.2.4-.4 0-.3-.5-1.7-.9-2.3-.4-.6-1.3-2.3-.6-3.4.7-1.1 1.8-1.3 2.2-1.3H43c.2.1 1.2.3 1.3.4.1.1 1.8 1.2 2.6 2.1.5.6 1.5 1.2 2.6 1.2.9 0 1.3-.1 1.7-.2l.3-.1c.4-.1.6-.4.6-.4l.2.1s-.3.3-.7.4l-.2.1c-.4.1-.8.3-1.7.2-1.1 0-2.2-.7-2.8-1.3-.8-.9-2.4-2-2.6-2.1-.1 0-.7-.2-1.3-.4h-1.3c-.3 0-1.3.2-2 1.2-.6 1 .2 2.7.6 3.2.4.5.9 2.1.9 2.4 0 .3-.2.5-.6.6-.2.1-.7 0-1.3-.3-.4-.2-.4-1-.4-1.5l-.3.3-.2.3v.8c.1.3.6.8.8 1l-.1.3z"/><path fill="#0F0E0B" d="M42.6 76.5h-.2s0-1 .1-1.3v-.1c.1-.2.1-.4.4-.6l.3-.3c.2-.2.3-.3.4-.3h.1c.1 0 .2-.1.4-.1h.5c.1 0 .2.1.4.2v.1c-.1-.1-.2-.1-.3-.1H44.4h-.2c-.2 0-.3 0-.4.1h-.1c-.1 0-.2.1-.4.3l-.3.3c-.2.2-.3.3-.3.5v.1c-.1.2-.1.9-.1 1.2zM40.8 81.3c-.1 0-.9 0-1.8-.7-.9-.6-.8-1.8-.8-1.8h.2s-.1 1.1.7 1.6c.9.6 1.6.7 1.7.7.2 0 1-.5 1.1-.7.1-.1.1-.3.2-.4v-.3l-.6.6c-.2.1-.3.1-.4.1H41v-.2h.4c.2-.1.6-.6.7-.8l.1-.2.1.8s-.1.3-.2.5c-.2.2-1 .8-1.3.8zM50.8 73.9c-.5 0-.8-.2-.9-.3-.1 0-.3-.1-.6-.3l-.2-.2c-.1-.1-.3-.2-.5-.6-.3-.5-1.6-1.6-2.8-1.9H45c-.5 0-.9 0-1-.1-.5-.3-.5-.8-.4-1.1v-.2c0-.3.6-.4.9-.5v-.2c0-.1-.3-.3-.5-.4-.1 0-.5 0-1.2.1-.6.1-1.1.6-1.7 1.6-.5.9.6 2 .6 2l-.2.1s-1.1-1.2-.6-2.2c.3-.7.9-1.5 1.8-1.7.8-.1 1.2-.1 1.2-.1.1 0 .5.3.6.5.1.2 0 .4 0 .4v.1h-.1c-.4 0-.8.2-.8.3v.2c0 .3-.1.7.3.9.1.1.6.1.9.1.3 0 .7 0 .9.1 1.2.3 2.5 1.4 2.9 1.9.2.3.4.4.5.5l.2.2c.2.2.5.3.5.3s.3.3 1.1.2c.9-.1 1.2-.3 1.3-.4 0 0 .2-.2.3-.4l.2.1c-.1.1-.3.4-.4.4-.1.1-.5.3-1.4.4.2.2.1.2-.1.2z"/><path fill="#0F0E0B" d="M43.4 71.2c0-.1-1.1-1.5-.4-2.1.7-.6 1.5-.7 1.7-.4l-.1.1c-.1-.1-.7-.1-1.4.5-.5.4.1 1.5.4 1.8l-.2.1zM50.5 73.9l-.7-.4.3-.1s.5-.1.8-.1c.1 0 1-.3 1.3-.6 1.6-1 2-2.1 2.3-3 .3-.8.4-1.7.4-1.7l.2-.6.3.1v.1s.2 3.1.3 3.5h-.2c-.1-.4-.2-2.6-.3-3.3l-.1.2s-.1.9-.4 1.7c-.3 1-.8 2.1-2.4 3.1-.3.2-1.3.6-1.4.6-.2 0-.4 0-.5.1l.2.1-.1.3zM48.1 82.6l-.2-.1c.1-.5.2-.9.1-1-.1-.1-.8-.8-.8-.9l-.9-.9c.6.8.5.9.4 1-.2.1-.6 0-.8-.1L45 80c-.1-.1-.4-.3-.8-.3s-.5.1-.7.2h-.1c-.3.2-.6.6-.6.7l.1.1.1.1h.2c.1-.1.2-.1.3 0h.5l.4.2-.1.2-.3-.3h-.6l-.2.1c-.2.1-.3 0-.3-.1l-.1-.1c-.1 0-.2-.1-.2-.2v-.2c.1-.2.5-.6.7-.8h.1c.2-.1.4-.3.9-.2.4 0 .8.3.9.3l.8.5c.2.1.5.2.6.2-.1-.2-.4-.7-.7-1.1v-.1l.2-.3 1.5 1.4s.7.7.8.9c0 .3-.2 1-.3 1.4z"/><path fill="#0F0E0B" d="M42.8 80.8v-.3l.1-.1.1-.1v.1c0 .1.1.2.1.2h.1l.1.1h.1l.2-.2-.2-.1s-.2-.1-.2-.2V79.9l.1-.1h.8l-.1.1-.1.1-.1.1s-.1.2-.1.3c-.2.3-.3.3-.3.3l-.2-.1h-.1l-.1-.1v-.1.3l-.2.1zm.7-.5l.2.1v-.2l.1-.2.1-.1.1-.1h-.4V80.1l-.1.2zM55.5 66.3c-.1-.2-1.1-1.6-1.2-2.1-.1-.5.1-1.4.2-1.5.1-.1.4-.5.5-.6l.2.1-.5.5c-.1.1-.2 1-.1 1.4.1.3.8 1.5 1.1 2l-.2.2z"/><path fill="#0F0E0B" d="M55.9 66.3l-.3-.1v-.1l.2.1h.1s-1-.9-1.2-2.5c0-.3.3-1.4.3-1.4l.9-.4.1.1-.2.2-.1.1c-.1.1-.1.2-.1.2-.1 0-.2.2-.2 1.4 0 1.3.9 2 .9 2.1l-.1.1s-.9-.8-.9-2.1c0-1.2.2-1.4.3-1.5l.1-.2c.1-.1.1-.2.1-.2l-.6.3c-.1.3-.4 1.1-.3 1.3.2 1.3.9 2.2 1.2 2.4l.1.1-.3.1zM43.1 80.4c-.1-.1 0-.3.1-.3s.2.2.2.2l-.1.1-.2-.1c.1-.1 0 0 0 .1zM47.4 82.6l-.1-.1-.2-.1h-.4l-.3-.1v-.1l.4.1h.3l.2.1.2.1zM38.9 96.6h-.5c-.1 0-.2-.1-.1-1.1l.4-.6.5-.7h.8l1-.2.1-.1.1-.1-.3-.1-.3-.1h-.7l.1-.6h1.3c.5-.1 1.2-.4 1.3-.4.1 0 .3 0 .4.1 0 0 .3.1.5.2l-.1.1-.5-.2c-.1-.1-.2-.1-.2-.1-.1 0-1.2.4-1.3.4h-.7-.5v.2h.5c.1 0 .3.1.3.1l.6.2-.1.1-.2.3s-.1.1-.3.2l-1 .2h-.7l-.4.6-.4.5v.9h.9l.7-.5.1-.1.1-.2.2.1-.1.2v.1l-.1.1c-.1.1-.7.6-.8.6 0-.1-.3-.1-.6-.1z"/><path fill="#0F0E0B" d="M39.3 96.5h-.2l-.2-.2-.1-.3H38.5l-.1-.1v-.1c0-.2 0-.4.1-.5l.2-.2.1-.1.1-.1.1-.2c.1.1.5.3.5.5 0 .1.2.3.2.3.1.1.1.2.1.2s0 .1-.1.4v.3h-.1c-.2.1-.3.1-.3.1zm-.1-.2h.2v-.1c0-.1.1-.3.1-.3l-.1-.1s-.2-.3-.2-.4c0 0-.1-.1-.3-.2v.1l-.1.1-.1.2v.3h.1c.1 0 .2.1.2.1.1 0 .1.1.2.3z"/><path fill="#0F0E0B" d="M39.1 96.1l.1-.5v-.1l.1-.1c.1 0 .1-.1.1-.1l.1.1-.2.1v.1c-.1.1-.2.4-.2.5zM38.9 95.8c-.1-.1 0-.3.1-.4l.1-.1.1-.1v.1h-.1l-.1.1-.1.4zM63.4 108h-1c-3-.1-4.6-1.1-4.7-1.1l-1.4-1.2h-.5l-1-.3v-1.3l.6-1.8.6-1.3c0-.2.4-3.1.8-4.2.3-1.2 1.5-4.4 1.7-4.6.1-.2 1.4-2.3 1.4-2.4l.2.1c-.5.8-1.3 2.2-1.4 2.4-.1.2-1.3 3.4-1.6 4.6-.3 1.2-.8 4.2-.8 4.2l-.6 1.4-.6 1.8v1.1l.9.3h.5l1.5 1.2s1.7.9 4.6 1.1c2.5.1 3.5-.2 3.8-.3l-.2-.8c-.5-.3-1-.5-1.1-.6-.1 0-.7-.1-.8-.1l-.5-.3-1.7-1.2-1.1-1.4-.5-.7 2-8.7.6-1.5.5-.9.3-1.3c0-.1-.1-.2-.1-.3v-.5-.3-.3c0-.1-.1-.5-.1-.5l.1-.7.2-1 .2-3.4h.2l-.2 3.4-.2 1-.1.6c0 .1.1.4.1.5v1.2l.1.3-.3 1.5-.5.9-.6 1.5-2 8.6.4.6 1.1 1.4 1.7 1.2.5.3c.3 0 .7.1.8.1.1 0 .5.2 1.2.6l.2 1.1h-.1c-.2-.4-.9 0-3.1 0zM79.9 106.4h-.7c-1.8-.1-3.2-1.1-3.2-1.3 0 0-.3-.2-.5-.2-.2-.1-.3-.1-.4-.2-.1-.1-.6-.2-.7-.2-.1 0-1.9-.4-2.7-.6h-.1v-.1s0-1 .1-1.3c.1-.3.3-1.5.3-1.5l.3-.6c-.2-.5-2.1-5-2.3-5.7-.2-.7-.3-4.1-.3-4.2h.2s0 3.5.3 4.1c.2.7 2.3 5.7 2.3 5.7l-.3.7c0 .1-.2 1.2-.3 1.5 0 .2-.1.8-.1 1.2 1 .2 2.5.6 2.6.6.1 0 .7.1.8.2 0 0 .2.1.3.2.4.2.5.3.6.4.1.1 1.4 1 3.1 1.2 1.6.1 2.1-.2 2.2-.3l.1-.2c-.1-.2-.4-.7-.8-.9-.5-.3-.9-.5-.9-.5l-.7-.6-.4-.4-.1-.2-2.3-2.1s-.2-.1-.3-.2c-.1-.1-.4-.7-.5-.8L74 92l-.3-1.3-.1-.7h.2l.1.8.3 1.2 1.6 8c.1.3.4.7.5.7.1.1.3.2.3.2l2.3 2.1.1.2.3.3.7.5c.1 0 .5.2.9.5.6.3.9 1 .9 1.1v.1l-.2.3c0 .1-.4.4-1.7.4z"/><path fill="#0F0E0B" d="M75.1 104.5l-.2-.3v-.2l-.2-.2.2-.1 1.1.9.1.4z"/><path fill="#0F0E0B" d="M76.2 105.1l-1.1-.5c-.1-.1-.2-.3-.2-.3v-.2c-.1 0-.2-.2-.2-.3v-.1H75s.1 0 1.2.9v.5zm-1-.7l.8.4v-.2c-.3-.3-.7-.5-.9-.7v.1l.1.4zM74.9 101.4l.8-.4h.4l.1-.1-.2-.2-.1.1-.5.2z"/><path fill="#0F0E0B" d="M75 101.4l.4-.5c.2-.1.5-.2.5-.2l.1-.1.2.3-.2.1h-.4l-.6.4zm.4-.3l-.2.1.5-.2h.4l-.1-.1-.1.1c0-.1-.4 0-.5.1zM74.6 100.7l.4-.2h.8l-.1-.2h-.6l-.4.2z"/><path fill="#0F0E0B" d="M74.5 100.8l.2-.3.4-.2c.1-.1.5-.1.7-.1l.1.3H75.6 75l-.4.2-.1.1zm.3-.2c.1 0 .2-.1.2-.1H75.8v-.1c-.2 0-.5 0-.6.1l-.4.1zM56 76l-.5-.2-.5-.4 1-.7.1.4.1.8-.2.1zm-.4-.4l.4.1-.1-.7-.5.3.2.3zM63.6 67.3c-.1-.1-.2-.3-.2-.3-.1 0-.2-.2-.3-.3l-.1-.1-.2-.2.1-.1.2.2.1.1c.1.1.2.3.3.3-.1 0 .1.2.1.4zM63 67.7s-.2-.1-.3-.2l-.2-.1h-.1c-.1 0-.4-.3-.6-.6l.1-.1c.3.3.5.6.6.6h.1l.2.1c0 .1.3.2.2.3zM78.1 76.1l-.1-.2 15.8-12.3 2.8-3.1.8-1.6-.2-.2-3.4 1.5-2.8 2.1-13.6 11.4-.2-.2 13.7-11.3 2.8-2.2 3.6-1.6.3.5-.8 1.7-2.8 3.2z"/><path fill="#0F0E0B" d="M78 76h-.1c-.1 0-.1-.1-.2-.2-.2-.2-.1-.6-.1-.6h.1s0 .4.1.5l.1.1H78.2v.1l-.2.1zM77.4 77.8v-.2l.2-.2V77s-.1.3-.2.2v-.5h-.2s.1-.3 0-.4-.2-.6-.2-.6v-.3l-.1-.1-.1.5c0 .1.1.2.1.3v.3l.1.3.2.6.1.1.1.4z"/><path fill="#0F0E0B" d="M77.3 77.8c0-.1-.1-.3-.1-.4l-.1-.1-.1-.6-.1-.3V76c0-.1-.1-.2-.1-.3 0-.1 0-.4.1-.6V75l.2.3.1.3s.1.5.2.7v.4h.2v.4l.1-.1h.1v.4l-.1.1v.2l-.4.1zm-.1-.5l.1.1v.1l.1-.1.1-.1v-.2h-.1l-.1-.1v-.5h-.2c0-.1.1-.3 0-.4 0-.1-.2-.6-.2-.7l-.1-.3c0 .2-.1.3 0 .4 0 .1.1.2.1.3v.3l.1.3.2.9zM76 72.4l-.1-.1.1-.3.2-.2.1.1-.3.1zM63.6 99.3h-.2c-.2 0-.4-.1-.5-.3-.3-.5.1-1.7.1-1.7l1.6-5.3 2.2-7.4.2.1-2.2 7.3-1.6 5.3c-.1.3-.4 1.2-.1 1.6.1.1.2.2.3.2.9.1 1.2-.6 1.2-.7l2.8-9.9.9-2.7.2.1-.9 2.7-2.8 9.9c.1 0-.2.8-1.2.8z"/><path fill="#9B3383" d="M60 64.3v-.1l.1-.1V64"/><path fill="#0F0E0B" d="M60 64.3h-.1l.1-.1V64h.1v.2zM59.1 64.9c-.2 0-.3-.3-.3-.4v-.2l.1.2v.1l.1.1.1.2zM74.5 76.8l-.2-.1h-.2l-.1-.1.1-.1h.1V76l.2.2V76.5l.1.3zm-.2-.2h.1-.1zM74.5 75.8H74.8l.1.1.1-.1v.3l-.1-.1h-.1v-.1l-.1-.1zM75.8 78.4l.1-.3V77.8h.2l.2.1v.4h-.1l-.2-.1-.1.2s-.1.1-.1 0zM76.8 77.7v-.1l.1-.2.1-.1-.1-.1V77l-.3.2-.1.1-.1.1zM74.3 78.9l.2.1h.3l.1-.1.2.1-.1-.1h-.1l-.1-.1z"/><path fill="#0F0E0B" d="M74.8 78.8l.1-.1h.2l.3.1.1-.1.1-.1v-.1h-.5l-.1.2H74.7l-.1.1-.1.1h-.2s-.1.1 0 .1h.3l.2-.2zM63.5 79v.1l.3.5.2.2.1.1.1.1h.1l.1-.1h.1c-.1-.2-.8-.6-1-.9z"/><path fill="#0F0E0B" d="M64.1 79.9l-.1-.1-.1-.1-.2-.2-.3-.5.1-.3.1.1c.2.3.9.7.9.7l.1.1h-.3l-.1.1-.1.2zm-.2-.2l.1.1.1.1.1-.1c-.2-.1-.5-.3-.7-.5l.2.3.2.1zM66.4 80.5l-.1-.2h-.1l-.3-.1-.1-.1h.5l.2.2H66.8c.1 0 .3-.1.4-.1h.2l.1.1-.2.1-.3.1h-.6z"/><path fill="#0F0E0B" d="M66.6 80.6h-.3l-.1-.2h-.1l-.3-.1-.2-.1-.1-.1h.5l.2.1.2.2h.8l.1.1h-.1l-.2.1-.1.1h-.1c.1-.1-.1-.1-.2-.1zm-.2-.1h.6l.1-.1h-.7l-.1-.1.1.2zm-.5-.3l.3.1h.1l-.1-.1H65.9z"/><path fill="#848383" d="M70.4 122.6c0 1.3-2.4 2.4-5.3 2.4s-5.3-1.1-5.3-2.4"/><path d="M65.1 125.2c-3.1 0-5.5-1.2-5.5-2.6h.5c0 1.2 2.3 2.2 5 2.2s5-1 5-2.2h.5c.1 1.4-2.4 2.6-5.5 2.6z"/><path fill="#666565" d="M70.4 122.6c0 .8-2.4 1.5-5.3 1.5s-5.3-.7-5.3-1.5 2.4-1.5 5.3-1.5c3 0 5.3.6 5.3 1.5z"/><path d="M65.1 124.3c-2.7 0-5.5-.6-5.5-1.7s2.8-1.7 5.5-1.7 5.5.6 5.5 1.7c.1 1.1-2.7 1.7-5.5 1.7zm0-3c-3.1 0-5 .7-5 1.2s2 1.2 5 1.2c3.1 0 5-.7 5-1.2.1-.5-1.9-1.2-5-1.2z"/><path fill="#B2AAAB" d="M63.9 113.9h2.5v7.8h-2.5z"/><path d="M63.7 113.7h.5v7.9h-.5zM66.1 113.7h.5v7.9h-.5z"/><path fill="#1A1818" d="M69.7 109.3c0 2.5-2.1 4.6-4.6 4.6-2.5 0-4.6-2-4.6-4.6 0-2.5 2.1-4.6 4.6-4.6 2.6 0 4.6 2.1 4.6 4.6z"/><path d="M65.1 114.1c-2.7 0-4.8-2.2-4.8-4.8s2.2-4.8 4.8-4.8c2.7 0 4.8 2.2 4.8 4.8s-2.1 4.8-4.8 4.8zm0-9.1c-2.4 0-4.3 1.9-4.3 4.3s1.9 4.3 4.3 4.3 4.3-1.9 4.3-4.3c.1-2.4-1.9-4.3-4.3-4.3z"/><path fill="#8980AD" d="M127 .2h3v157.2h-3z"/><path d="M130.3 157.6h-3.5V0h3.5v157.6zm-3.1-.5h2.5V.5h-2.5v156.6z"/></svg>