<svg enable-background="new 0 0 223.659 238.667" viewBox="0 0 223.659 238.667" xmlns="http://www.w3.org/2000/svg" xmlns:xlink="http://www.w3.org/1999/xlink"><linearGradient id="a"><stop offset="0" stop-color="#414143"/><stop offset=".4938" stop-color="#686a6b"/><stop offset="1" stop-color="#414243"/></linearGradient><linearGradient id="b" gradientTransform="matrix(1.05 0 0 1.3968 -3.5389 -46.5653)" gradientUnits="userSpaceOnUse" x1="20.1112" x2="121.4445" xlink:href="#a" y1="117.637" y2="117.637"/><linearGradient id="c" gradientTransform="matrix(11.7117 0 0 1.3968 -199.3592 -46.5653)" gradientUnits="userSpaceOnUse" x1="18.4405" x2="27.6905" xlink:href="#a" y1="118.512" y2="118.512"/><linearGradient id="d" gradientTransform="matrix(1.05 0 0 1.3968 -3.5389 -46.5653)" gradientUnits="userSpaceOnUse" x1="20.1112" x2="121.4445" xlink:href="#a" y1="119.387" y2="119.387"/><linearGradient id="e" gradientTransform="matrix(11.7117 0 0 1.3968 -199.3592 -46.5653)" gradientUnits="userSpaceOnUse" x1="18.4405" x2="27.6905" xlink:href="#a" y1="120.262" y2="120.262"/><linearGradient id="f" gradientTransform="matrix(1.05 0 0 1.3968 -3.5389 -46.5653)" gradientUnits="userSpaceOnUse" x1="20.1112" x2="121.4445" xlink:href="#a" y1="121.137" y2="121.137"/><linearGradient id="g" gradientTransform="matrix(11.7117 0 0 1.3968 -199.3592 -46.5653)" gradientUnits="userSpaceOnUse" x1="18.4405" x2="27.6905" xlink:href="#a" y1="122.012" y2="122.012"/><linearGradient id="h" gradientTransform="matrix(1.05 0 0 1.3968 -3.5389 -46.5653)" gradientUnits="userSpaceOnUse" x1="20.1112" x2="121.4445" xlink:href="#a" y1="122.887" y2="122.887"/><linearGradient id="i" gradientTransform="matrix(11.7117 0 0 1.3968 -199.3592 -46.5653)" gradientUnits="userSpaceOnUse" x1="18.4405" x2="27.6905" xlink:href="#a" y1="123.762" y2="123.762"/><linearGradient id="j" gradientTransform="matrix(1.05 0 0 1.3968 -3.5389 -46.5653)" gradientUnits="userSpaceOnUse" x1="20.1112" x2="121.4445" xlink:href="#a" y1="124.637" y2="124.637"/><linearGradient id="k" gradientTransform="matrix(11.7117 0 0 1.3968 -199.3592 -46.5653)" gradientUnits="userSpaceOnUse" x1="18.4405" x2="27.6905" xlink:href="#a" y1="125.512" y2="125.512"/><linearGradient id="l" gradientTransform="matrix(1.05 0 0 1.3968 -3.5389 -46.5653)" gradientUnits="userSpaceOnUse" x1="20.1112" x2="121.4445" xlink:href="#a" y1="126.387" y2="126.387"/><linearGradient id="m" gradientTransform="matrix(11.7117 0 0 1.3968 -199.3592 -46.5653)" gradientUnits="userSpaceOnUse" x1="18.4405" x2="27.6905" xlink:href="#a" y1="127.262" y2="127.262"/><linearGradient id="n" gradientTransform="matrix(1.05 0 0 1.3968 -3.5389 -46.5653)" gradientUnits="userSpaceOnUse" x1="20.1112" x2="121.4445" xlink:href="#a" y1="128.137" y2="128.137"/><linearGradient id="o" gradientTransform="matrix(11.7117 0 0 1.3968 -199.3592 -46.5653)" gradientUnits="userSpaceOnUse" x1="18.4405" x2="27.6905" xlink:href="#a" y1="129.012" y2="129.012"/><radialGradient id="p" cx="115.903" cy="64.8195" gradientUnits="userSpaceOnUse" r="1.7083"><stop offset="0" stop-color="#ec7baa"/><stop offset=".44" stop-color="#ed578f"/><stop offset=".7896" stop-color="#ed3981"/><stop offset="1" stop-color="#ee2a7b"/></radialGradient><linearGradient id="q"><stop offset="0" stop-color="#54c5cd"/><stop offset=".5364" stop-color="#54c3cb"/><stop offset=".7296" stop-color="#52bdc5"/><stop offset=".8668" stop-color="#4eb4bc"/><stop offset=".9775" stop-color="#47a9b0"/><stop offset="1" stop-color="#45a6ad"/></linearGradient><radialGradient id="r" cx="83.8185" cy="182.8482" gradientUnits="userSpaceOnUse" r="8.5148" xlink:href="#q"/><radialGradient id="s" cx="108.2084" cy="169.6528" gradientUnits="userSpaceOnUse" r="8.5148" xlink:href="#q"/><linearGradient id="t"><stop offset="0"/><stop offset=".3975" stop-color="#020202"/><stop offset=".5406" stop-color="#0c0c0c"/><stop offset=".6427" stop-color="#181718"/><stop offset=".7253" stop-color="#222122"/><stop offset=".796" stop-color="#292829"/><stop offset=".8586" stop-color="#2b2829"/><stop offset=".9152" stop-color="#292728"/><stop offset=".9656" stop-color="#252424"/><stop offset="1" stop-color="#202021"/></linearGradient><linearGradient id="u" gradientUnits="userSpaceOnUse" x1="73.3107" x2="73.3107" xlink:href="#t" y1="151.7778" y2="148.0278"/><linearGradient id="v" gradientUnits="userSpaceOnUse" x1="97.9357" x2="97.9357" xlink:href="#t" y1="151.7778" y2="148.0278"/><linearGradient id="w" gradientUnits="userSpaceOnUse" x1="31.3703" x2="51.7594" y1="185.3675" y2="164.9783"><stop offset="0"/><stop offset=".1082" stop-color="#0b0a0b"/><stop offset=".2712" stop-color="#1d1d1d"/><stop offset=".4687" stop-color="#2a2829"/><stop offset=".6931" stop-color="#2a2828"/><stop offset=".9374" stop-color="#232223"/><stop offset="1" stop-color="#202021"/></linearGradient><linearGradient id="x" gradientUnits="userSpaceOnUse" x1="38.1433" x2="44.9864" xlink:href="#t" y1="175.1729" y2="175.1729"/><linearGradient id="y" gradientUnits="userSpaceOnUse" x1="41.5648" x2="41.5648" xlink:href="#t" y1="178.5945" y2="171.7513"/><radialGradient id="z" cx="41.5648" cy="175.1729" fx="44.3893" fy="172.0285" gradientUnits="userSpaceOnUse" r="4.2267"><stop offset=".0708" stop-color="#1d1d1e"/><stop offset=".8739"/></radialGradient><linearGradient id="A"><stop offset="0" stop-color="#717774"/><stop offset=".4887" stop-color="#737976"/><stop offset=".6648" stop-color="#79807c"/><stop offset=".7902" stop-color="#848b88"/><stop offset=".891" stop-color="#969e9a"/><stop offset=".9222" stop-color="#9fa8a4"/></linearGradient><linearGradient id="B" gradientUnits="userSpaceOnUse" x1="105.9723" x2="105.9723" xlink:href="#A" y1="201.6217" y2="198.9445"/><linearGradient id="C" gradientUnits="userSpaceOnUse" x1="102.4306" x2="102.4306" xlink:href="#A" y1="205.3744" y2="202.6972"/><linearGradient id="D" gradientUnits="userSpaceOnUse" x1="98.8889" x2="98.8889" xlink:href="#A" y1="209.127" y2="206.4499"/><linearGradient id="E" gradientUnits="userSpaceOnUse" x1="189.7142" x2="189.7142" y1="182.1334" y2="167.9491"><stop offset="0" stop-color="#6b6b6b"/><stop offset=".2802" stop-color="#6a6a6a"/><stop offset=".4589" stop-color="#656565"/><stop offset=".6091" stop-color="#5d5d5c"/><stop offset=".7437" stop-color="#525151"/><stop offset=".8678" stop-color="#434342"/><stop offset=".9826" stop-color="#333332"/><stop offset="1" stop-color="#30302f"/></linearGradient><linearGradient id="F" gradientUnits="userSpaceOnUse" x1="159.7667" x2="219.6617" y1="203.9757" y2="203.9757"><stop offset="0" stop-color="#bddeb1"/><stop offset="1" stop-color="#91c2e8"/></linearGradient><path d="m17.578 117.111h106.4v1.28h-106.4z" fill="url(#b)"/><path d="m124.364 119.556h-107.172c-.321 0-.581-.26-.581-.581v-.003c0-.321.26-.581.581-.581h107.172c.321 0 .581.26.581.581v.003c-.001.321-.26.581-.581.581z" fill="url(#c)"/><path d="m17.578 119.556h106.4v1.28h-106.4z" fill="url(#d)"/><path d="m124.364 122h-107.172c-.321 0-.581-.26-.581-.581v-.003c0-.321.26-.581.581-.581h107.172c.321 0 .581.26.581.581v.003c-.001.321-.26.581-.581.581z" fill="url(#e)"/><path d="m17.578 122h106.4v1.28h-106.4z" fill="url(#f)"/><path d="m124.364 124.445h-107.172c-.321 0-.581-.26-.581-.581v-.003c0-.321.26-.581.581-.581h107.172c.321 0 .581.26.581.581v.003c-.001.321-.26.581-.581.581z" fill="url(#g)"/><path d="m17.578 124.445h106.4v1.28h-106.4z" fill="url(#h)"/><path d="m124.364 126.889h-107.172c-.321 0-.581-.26-.581-.581v-.003c0-.321.26-.581.581-.581h107.172c.321 0 .581.26.581.581v.003c-.001.321-.26.581-.581.581z" fill="url(#i)"/><path d="m17.578 126.889h106.4v1.28h-106.4z" fill="url(#j)"/><path d="m124.364 129.333h-107.172c-.321 0-.581-.26-.581-.581v-.003c0-.321.26-.581.581-.581h107.172c.321 0 .581.26.581.581v.003c-.001.322-.26.581-.581.581z" fill="url(#k)"/><path d="m17.578 129.333h106.4v1.28h-106.4z" fill="url(#l)"/><path d="m124.364 131.778h-107.172c-.321 0-.581-.26-.581-.581v-.003c0-.321.26-.581.581-.581h107.172c.321 0 .581.26.581.581v.003c-.001.321-.26.581-.581.581z" fill="url(#m)"/><path d="m17.578 131.778h106.4v1.28h-106.4z" fill="url(#n)"/><path d="m124.364 134.222h-107.172c-.321 0-.581-.26-.581-.581v-.003c0-.321.26-.581.581-.581h107.172c.321 0 .581.26.581.581v.003c-.001.321-.26.581-.581.581z" fill="url(#o)"/><path d="m14.445 117.111c-7.978 0-14.445-6.467-14.445-14.444v-88.222c0-7.978 6.467-14.445 14.445-14.445h112.667c7.978 0 14.445 6.467 14.445 14.445v88.223c0 7.977-6.467 14.444-14.444 14.444h-112.668z" fill="#717a76"/><path d="m123.667 107.111h-105.778c-4.357 0-7.889-3.532-7.889-7.889v-81.333c0-4.357 3.532-7.889 7.889-7.889h105.778c4.357 0 7.889 3.532 7.889 7.889v81.333c0 4.357-3.532 7.889-7.889 7.889z" fill="#0b0f0d"/><path d="m34.056 21.833h73.444v73.444h-73.444z" fill="#68bd45"/><path d="m13.125 17.528h30.889" fill="none" stroke="#64b0a6" stroke-miterlimit="10" stroke-width="1.2"/><path d="m97.542 17.528h30.889" fill="none" stroke="#64b0a6" stroke-miterlimit="10" stroke-width="1.2"/><g fill="#63b0a6"><path d="m48.415 16.383c.064 0 .097.035.097.104v3.008h-.328c-.03 0-.053-.009-.071-.027s-.026-.043-.026-.077v-1.293h-1.039v1.396h-.328c-.064 0-.097-.034-.097-.104v-3.008h.327c.03 0 .053.009.071.027s.026.043.026.077v1.217h1.039v-1.32z"/><path d="m49.175 19.495c-.064 0-.097-.034-.097-.104v-3.008h.327c.065 0 .097.035.097.104v3.008z"/><path d="m51.775 17.852c.065 0 .097.035.097.104v1.455c-.1.042-.211.075-.333.099-.123.024-.255.036-.398.036-.21 0-.388-.03-.532-.09s-.26-.155-.348-.285c-.087-.13-.151-.295-.19-.496s-.059-.443-.059-.728c0-.299.021-.551.062-.756s.107-.371.196-.496c.089-.126.202-.216.339-.272.138-.055.303-.083.498-.083.137 0 .258.011.362.034.104.022.18.046.229.07.032.015.053.033.062.054s.014.052.014.094v.202c-.078-.012-.173-.023-.285-.034-.112-.01-.216-.016-.313-.016-.138 0-.253.016-.348.047-.094.032-.169.091-.226.178s-.098.207-.124.359c-.025.153-.039.351-.039.593 0 .264.015.476.045.635.029.16.074.285.133.373s.134.147.224.177.196.045.317.045c.062 0 .121-.002.176-.007.055-.004.104-.011.147-.02v-.885h-.348c-.024 0-.044-.009-.061-.027s-.024-.043-.024-.076v-.283h.727z"/><path d="m54.172 16.383c.064 0 .097.035.097.104v3.008h-.328c-.03 0-.053-.009-.071-.027s-.026-.043-.026-.077v-1.293h-1.039v1.396h-.328c-.064 0-.097-.034-.097-.104v-3.008h.327c.03 0 .053.009.071.027s.026.043.026.077v1.217h1.039v-1.32z"/><path d="m57.621 17.941c0 .207-.009.388-.028.543-.019.156-.046.292-.083.409s-.081.215-.134.294c-.052.08-.111.145-.176.195.067.084.142.187.225.31.082.123.156.25.22.381h-.368c-.038 0-.064-.009-.079-.027s-.033-.043-.055-.076c-.041-.075-.089-.155-.146-.24s-.106-.153-.149-.205c-.038.009-.078.015-.12.018s-.083.004-.123.004c-.151 0-.289-.021-.413-.065s-.23-.124-.319-.24-.158-.28-.206-.489c-.049-.209-.073-.48-.073-.813 0-.332.024-.603.073-.812.048-.209.117-.373.206-.49s.195-.197.319-.24.262-.065.413-.065.289.022.415.065c.125.043.232.124.321.24.089.117.158.28.206.49.05.21.074.481.074.813zm-1.593 0c0 .23.009.423.026.577s.048.278.093.373.104.162.178.202.168.061.281.061.207-.02.281-.061.134-.108.178-.202.076-.218.095-.373c.019-.154.028-.347.028-.577s-.009-.423-.028-.577-.05-.279-.095-.373-.104-.162-.178-.202-.167-.061-.281-.061-.207.021-.281.061c-.074.041-.133.108-.178.202s-.076.219-.093.373c-.017.155-.026.347-.026.577z"/><path d="m59.962 18.395c0 .395-.072.686-.216.871s-.381.278-.709.278c-.151 0-.285-.019-.402-.056s-.216-.1-.295-.188c-.08-.088-.141-.206-.182-.353-.042-.146-.062-.331-.062-.552v-2.012h.327c.065 0 .097.035.097.104v1.958c0 .108.007.205.022.292s.041.161.079.222c.038.062.089.108.156.139.066.032.151.047.257.047.102 0 .186-.016.25-.047.065-.031.116-.077.154-.137s.064-.133.079-.22.022-.187.022-.301v-2.057h.327c.03 0 .053.009.071.027s.026.043.026.077v1.908z"/><path d="m61.863 19.392c-.019-.134-.039-.264-.059-.388-.021-.124-.042-.249-.063-.375h-.902c-.027.144-.052.289-.074.436s-.042.291-.062.431h-.311c-.06 0-.088-.038-.085-.112.008-.09.021-.178.037-.265.049-.291.103-.568.162-.833.06-.265.121-.514.183-.746s.125-.445.189-.64c.063-.195.124-.367.181-.517h.404c.033 0 .057.008.073.022.016.015.03.039.041.072.057.153.119.335.187.548.067.213.134.449.2.709.066.261.129.54.188.837.06.298.111.605.154.923h-.344c-.059.001-.091-.033-.099-.102zm-.576-2.622c-.064.212-.131.442-.199.689s-.133.514-.195.801h.796c-.062-.287-.128-.555-.197-.801-.069-.247-.138-.477-.205-.689z"/><path d="m62.792 19.495c-.064 0-.097-.034-.097-.104v-3.008h.327c.03 0 .053.009.071.027s.026.043.026.077v2.613h.995c.065 0 .097.034.097.103v.292z"/><path d="m64.701 19.495c-.064 0-.097-.034-.097-.104v-3.008h.327c.065 0 .097.035.097.104v3.008z"/><path d="m66.161 16.778h-.643c-.064 0-.097-.034-.097-.103v-.292h1.811c.03 0 .053.009.071.027s.026.043.026.077v.292h-.744v2.717h-.327c-.065 0-.097-.034-.097-.104z"/><path d="m68.441 19.495c-.065 0-.097-.034-.097-.104v-1.078c-.092-.17-.175-.334-.25-.491-.076-.157-.145-.314-.207-.472s-.119-.315-.172-.474c-.052-.159-.1-.323-.144-.494h.368c.041 0 .067.01.079.029.012.02.024.05.035.092.024.096.054.199.089.31s.073.227.115.348c.041.121.088.245.14.373.051.127.107.254.169.379.062-.128.122-.266.18-.411.058-.146.11-.288.158-.427.047-.139.088-.27.123-.391s.06-.222.073-.303h.315c.038 0 .065.014.081.043.016.028.018.063.004.105-.048.17-.098.331-.149.48s-.106.295-.166.438c-.059.143-.123.284-.192.424-.069.141-.144.288-.225.44v1.181h-.327z"/><path d="m70.628 17.196c0-.285.073-.499.219-.642.146-.144.371-.216.675-.216.113 0 .227.008.34.025s.201.037.263.061c.043.021.069.044.079.07.009.025.014.054.014.087v.207c-.1-.015-.202-.028-.308-.038-.105-.011-.213-.016-.323-.016-.105 0-.193.01-.263.029-.07.02-.126.047-.168.083s-.071.081-.089.135-.026.117-.026.189c0 .081.009.147.028.2s.051.098.095.137.102.074.174.105c.071.032.16.068.265.11.108.045.206.09.293.135.088.044.163.101.227.168s.112.15.146.247.051.221.051.371c0 .323-.078.554-.234.694-.157.139-.383.208-.68.208-.129 0-.254-.01-.376-.029-.121-.02-.215-.042-.283-.069-.035-.015-.06-.035-.073-.059-.014-.024-.021-.054-.021-.09v-.224c.094.015.199.03.313.045s.236.022.366.022c.113 0 .207-.011.281-.034s.132-.054.174-.095c.042-.04.071-.09.087-.15s.024-.127.024-.202c0-.084-.009-.153-.026-.207-.018-.054-.048-.1-.091-.137-.043-.038-.1-.072-.171-.105-.072-.033-.161-.07-.269-.112-.113-.045-.214-.091-.301-.139-.088-.048-.162-.105-.222-.173-.061-.067-.107-.148-.14-.243-.033-.094-.05-.21-.05-.348z"/><path d="m73.305 16.778h-.643c-.064 0-.097-.034-.097-.103v-.292h1.811c.03 0 .053.009.071.027s.026.043.026.077v.292h-.744v2.717h-.327c-.065 0-.097-.034-.097-.104z"/><path d="m76.35 16.383c.062 0 .093.035.093.104v.283h-1.156v.957h.958c.062 0 .093.034.093.103v.288h-1.051v.992h1.108c.03 0 .053.009.071.027s.026.043.026.077v.283h-1.533c-.064 0-.097-.034-.097-.104v-3.008h1.488z"/><path d="m77.033 19.495c-.064 0-.097-.034-.097-.104v-2.954c.119-.024.252-.044.4-.061.148-.016.298-.024.449-.024.323 0 .558.079.703.236.146.157.219.394.219.711 0 .225-.047.407-.14.548s-.216.241-.37.301c.065.087.13.188.196.306.066.117.128.236.186.359s.11.244.158.364c.047.12.084.226.111.319h-.351c-.038 0-.065-.008-.083-.025-.018-.016-.032-.041-.042-.074-.024-.075-.058-.161-.099-.258-.042-.097-.088-.198-.138-.301-.05-.104-.104-.207-.164-.31s-.12-.197-.182-.28h-.433v1.248h-.323zm.323-1.612h.445c.07 0 .135-.008.196-.025s.113-.045.158-.087.079-.101.103-.177c.024-.077.037-.173.037-.29s-.011-.212-.032-.287c-.022-.075-.053-.135-.095-.18s-.095-.076-.16-.092c-.064-.017-.14-.025-.227-.025-.091 0-.174.003-.247.009s-.132.014-.178.022z"/><path d="m80.716 16.383c.062 0 .093.035.093.104v.283h-1.156v.957h.958c.062 0 .093.034.093.103v.288h-1.051v.992h1.108c.03 0 .053.009.071.027s.026.043.026.077v.283h-1.533c-.064 0-.097-.034-.097-.104v-3.008h1.488z"/><path d="m83.227 17.941c0 .333-.024.604-.073.813-.048.209-.117.373-.206.489s-.196.197-.321.24-.264.065-.415.065-.289-.021-.413-.065c-.124-.043-.23-.124-.319-.24s-.158-.28-.206-.489c-.049-.209-.073-.48-.073-.813 0-.332.024-.603.073-.812.048-.209.117-.373.206-.49s.195-.197.319-.24.262-.065.413-.065.289.022.415.065c.125.043.232.124.321.24.089.117.158.28.206.49.049.209.073.48.073.812zm-1.593 0c0 .23.009.423.026.577s.048.278.093.373.104.162.178.202.168.061.281.061.207-.02.281-.061.134-.108.178-.202.076-.218.095-.373c.019-.154.028-.347.028-.577s-.009-.423-.028-.577-.05-.279-.095-.373-.104-.162-.178-.202-.167-.061-.281-.061-.207.021-.281.061c-.074.041-.133.108-.178.202s-.076.219-.093.373c-.017.155-.026.347-.026.577z"/><path d="m84.464 17.196c0-.285.073-.499.219-.642.146-.144.371-.216.675-.216.113 0 .227.008.34.025s.201.037.263.061c.043.021.069.044.079.07.009.025.014.054.014.087v.207c-.1-.015-.202-.028-.308-.038-.105-.011-.213-.016-.323-.016-.105 0-.193.01-.263.029-.07.02-.126.047-.168.083s-.071.081-.089.135-.026.117-.026.189c0 .081.009.147.028.2s.051.098.095.137.102.074.174.105c.071.032.16.068.265.11.108.045.206.09.293.135.088.044.163.101.227.168s.112.15.146.247.051.221.051.371c0 .323-.078.554-.234.694-.157.139-.383.208-.68.208-.129 0-.254-.01-.376-.029-.121-.02-.215-.042-.283-.069-.035-.015-.06-.035-.073-.059-.014-.024-.021-.054-.021-.09v-.224c.094.015.199.03.313.045s.236.022.366.022c.113 0 .207-.011.281-.034s.132-.054.174-.095c.042-.04.071-.09.087-.15s.024-.127.024-.202c0-.084-.009-.153-.026-.207-.018-.054-.048-.1-.091-.137-.043-.038-.1-.072-.171-.105-.072-.033-.161-.07-.269-.112-.113-.045-.214-.091-.301-.139-.088-.048-.162-.105-.222-.173-.061-.067-.107-.148-.14-.243-.033-.094-.05-.21-.05-.348z"/><path d="m88.604 17.941c0 .333-.024.604-.073.813-.048.209-.117.373-.206.489s-.196.197-.321.24-.264.065-.415.065-.289-.021-.413-.065-.23-.124-.319-.24-.158-.28-.206-.489c-.049-.209-.073-.48-.073-.813 0-.332.024-.603.073-.812.048-.209.117-.373.206-.49s.195-.197.319-.24.262-.065.413-.065.289.022.415.065c.125.043.232.124.321.24.089.117.158.28.206.49.05.209.073.48.073.812zm-1.592 0c0 .23.009.423.026.577s.048.278.093.373.104.162.178.202.168.061.281.061.207-.02.281-.061.134-.108.178-.202.076-.218.095-.373c.019-.154.028-.347.028-.577s-.009-.423-.028-.577-.05-.279-.095-.373c-.044-.094-.104-.162-.178-.202s-.167-.061-.281-.061-.207.021-.281.061c-.074.041-.133.108-.178.202s-.076.219-.093.373c-.017.155-.026.347-.026.577z"/><path d="m90.946 18.395c0 .395-.072.686-.216.871s-.381.278-.709.278c-.151 0-.285-.019-.402-.056s-.216-.1-.295-.188c-.08-.088-.141-.206-.182-.353-.042-.146-.062-.331-.062-.552v-2.012h.327c.065 0 .097.035.097.104v1.958c0 .108.007.205.022.292s.041.161.079.222c.038.062.089.108.156.139.066.032.151.047.257.047.102 0 .186-.016.25-.047.065-.031.116-.077.154-.137s.064-.133.079-.22.022-.187.022-.301v-2.057h.327c.03 0 .053.009.071.027s.026.043.026.077v1.908z"/><path d="m93.408 19.495h-.335c-.046 0-.082-.034-.109-.104-.043-.102-.095-.218-.154-.35-.06-.131-.123-.27-.19-.413s-.136-.29-.207-.438c-.07-.148-.137-.289-.202-.422-.064-.133-.124-.254-.178-.364-.054-.109-.099-.198-.133-.267v2.357h-.308c-.064 0-.097-.034-.097-.104v-3.008h.339c.03 0 .053.01.069.029s.032.044.048.074c.035.069.079.156.131.26.053.105.111.22.174.346s.128.259.196.4.134.28.2.419c.066.14.129.274.19.404s.114.248.16.353v-2.286h.308c.064 0 .097.035.097.104v3.01z"/><path d="m94.071 19.495c-.064 0-.097-.034-.097-.104v-2.954c.062-.012.128-.023.2-.034.071-.011.144-.02.218-.027s.146-.013.216-.018.136-.007.198-.007c.191 0 .356.027.494.081.137.054.25.143.339.265s.154.284.196.485.062.446.062.736c0 .291-.021.536-.062.736-.042.201-.106.363-.192.487-.086.125-.198.214-.334.27-.136.055-.298.083-.487.083h-.751zm.72-2.766c-.062 0-.13.003-.206.009s-.138.013-.186.022v2.357h.384c.116 0 .217-.014.303-.043.086-.028.158-.086.214-.173s.098-.21.125-.371c.027-.16.041-.372.041-.635 0-.233-.011-.426-.034-.577s-.061-.271-.113-.359-.122-.149-.208-.182c-.087-.031-.193-.048-.32-.048z"/></g><circle cx="115.903" cy="64.819" fill="url(#p)" r="1.708"/><path d="m84.444 238.667h-27.333c-27.062 0-49-21.938-49-49v-49.306c0-3.39 2.748-6.139 6.139-6.139h113.056c3.39 0 6.139 2.748 6.139 6.139v49.306c0 27.062-21.939 49-49.001 49z" fill="#7c827f"/><path d="m82.834 233.445h-24.113c-24.269 0-43.943-19.674-43.943-43.943v-44.552c0-3.041 2.465-5.505 5.505-5.505h100.989c3.041 0 5.505 2.465 5.505 5.505v44.551c.001 24.269-19.673 43.944-43.943 43.944z" fill="#787f7c"/><path d="m8.111 165.778h6.667v23.723c0 24.269 19.674 43.943 43.943 43.943h24.113c24.269 0 43.943-19.674 43.943-43.943v-23.723h6.667" fill="none" stroke="#717774" stroke-miterlimit="10" stroke-width="1.2"/><path d="m76.785 208.034h1.453v-4.69l3.754 4.69h1.091v-7.173h-1.453v4.81l-3.755-4.81h-1.09z" fill="#010101"/><path d="m72.697 203.019 2.607 4.982h-5.213z" fill="#53c5ce"/><path d="m69.094 204.75c0 .933.302 1.79.805 2.46l.908-1.735c-.09-.263-.138-.547-.138-.846 0-1.275.895-2.309 1.998-2.309 1.104 0 1.998 1.034 1.998 2.309 0 .272-.04.533-.115.774l.92 1.759c.482-.663.769-1.501.769-2.412 0-2.148-1.6-3.889-3.573-3.889-1.972 0-3.572 1.741-3.572 3.889z" fill="#010101"/><path d="m66.974 200.861h1.453v7.171h-1.453z" fill="#010101"/><path d="m28.337 205.89-.848.863c1.493 2.016 4.538 1.603 4.538-.924 0-1.375-.929-1.828-2.121-2.275-1.752-.659-.351-2.374 1.095-1.074l.714-.874c-.486-.452-1.245-.777-1.925-.743-1.273.064-2.116.754-2.116 2.079 0 2.181 3.021 1.719 3.021 3.002.001 1.217-1.611 1.092-2.358-.054z" fill="#010101"/><path d="m59.586 200.861h1.453v7.171h-1.453z" fill="#010101"/><path d="m59.344 200.861h-1.575l-1.635 4.61-1.635-4.61h-1.574l2.785 7.171h.849z" fill="#010101"/><path d="m51.454 205.269c.644-.219 1.188-.817 1.319-1.482.02-.1.084-.439.084-.677s-.065-.571-.086-.669c-.182-.842-1.103-1.58-1.958-1.58h-2.37v7.171h1.453v-2.674h.139l1.557 2.674h1.817zm-1.073-1.127h-.485v-2.066h.485c.602 0 1.09.368 1.09.972 0 .605-.488 1.094-1.09 1.094z" fill="#010101"/><path d="m43.841 200.861v7.171h3.754v-1.216h-2.301v-1.944h2.18v-1.216h-2.18v-1.579h2.18v-1.216z" fill="#010101"/><path d="m38.875 200.861v7.171h1.453v-2.674h1.038c.852 0 1.674-.733 1.839-1.571.02-.1.085-.439.085-.677s-.065-.571-.086-.669c-.182-.842-1.103-1.58-1.958-1.58zm1.453 3.281v-2.066h.484c.602 0 1.09.368 1.09.972s-.488 1.094-1.09 1.094z" fill="#010101"/><path d="m62.597 205.89-.848.863c1.493 2.016 4.538 1.603 4.538-.924 0-1.375-.929-1.828-2.121-2.275-1.752-.659-.351-2.374 1.095-1.074l.714-.874c-.486-.452-1.245-.777-1.925-.743-1.273.064-2.116.754-2.116 2.079 0 2.181 3.021 1.719 3.021 3.002.001 1.217-1.611 1.092-2.358-.054z" fill="#010101"/><path d="m36.525 200.861v4.636c0 .689-.558 1.247-1.247 1.247-.689 0-1.247-.558-1.247-1.247v-4.636h-1.453v4.469c0 1.492 1.209 2.701 2.701 2.701s2.701-1.209 2.701-2.701v-4.469z" fill="#010101"/><path d="m85.13 201.111h-.504v1.271h-.355v-1.271h-.504v-.241h1.363z"/><path d="m87.269 202.382h-.332v-1.257l-.433 1.257h-.341l-.433-1.257v1.257h-.33v-1.512h.568l.367 1.093.367-1.102h.568v1.521z"/><circle cx="83.819" cy="182.848" fill="url(#r)" r="8.515"/><circle cx="108.208" cy="169.653" fill="url(#s)" r="8.515"/><path d="m78.458 151.778h-10.295c-1.036 0-1.875-.839-1.875-1.875 0-1.036.839-1.875 1.875-1.875h10.295c1.036 0 1.875.839 1.875 1.875 0 1.035-.839 1.875-1.875 1.875z" fill="url(#u)"/><path d="m103.083 151.778h-10.295c-1.036 0-1.875-.839-1.875-1.875 0-1.036.839-1.875 1.875-1.875h10.295c1.036 0 1.875.839 1.875 1.875 0 1.035-.839 1.875-1.875 1.875z" fill="url(#v)"/><path d="m57.915 179.212-12.312 12.312c-2.231 2.23-5.847 2.23-8.077 0l-12.312-12.312c-2.231-2.231-2.231-5.847 0-8.077l12.312-12.312c2.231-2.23 5.847-2.23 8.077 0l12.312 12.312c2.231 2.23 2.231 5.846 0 8.077z" fill="url(#w)"/><path d="m38.143 175.173v15.812c0 .69.365 1.296.913 1.633 1.579.772 3.441.771 5.019-.001.547-.338.911-.942.911-1.632v-15.812-15.812c0-.69-.364-1.294-.911-1.632-1.579-.773-3.44-.773-5.019-.001-.548.337-.913.943-.913 1.633z" fill="url(#x)"/><path d="m41.565 178.594h15.812c.69 0 1.296-.365 1.633-.913.772-1.579.771-3.441-.001-5.019-.338-.547-.942-.911-1.632-.911h-15.812-15.812c-.69 0-1.294.364-1.632.911-.773 1.579-.773 3.44-.001 5.019.337.548.943.913 1.633.913z" fill="url(#y)"/><circle cx="41.565" cy="175.173" fill="url(#z)" r="3.079"/><path d="m114.161 201.622h-16.378c-.739 0-1.339-.599-1.339-1.339 0-.739.599-1.339 1.339-1.339h16.378c.739 0 1.339.599 1.339 1.339 0 .739-.599 1.339-1.339 1.339z" fill="url(#B)"/><path d="m110.62 205.374h-16.379c-.739 0-1.339-.599-1.339-1.339 0-.739.599-1.339 1.339-1.339h16.378c.739 0 1.339.599 1.339 1.339 0 .74-.599 1.339-1.338 1.339z" fill="url(#C)"/><path d="m107.078 209.127h-16.378c-.739 0-1.339-.599-1.339-1.339 0-.739.599-1.339 1.339-1.339h16.378c.739 0 1.339.599 1.339 1.339 0 .74-.6 1.339-1.339 1.339z" fill="url(#D)"/><path d="m91.944 155.013c-.029.005-.056.016-.081.03s-.045.034-.06.058-.023.055-.023.093.008.068.023.093c.015.024.035.043.06.058s.052.024.081.03c.03.005.057.008.083.008h.989c.073 0 .153.01.24.03s.168.052.242.097c.074.044.136.103.186.174.049.072.074.16.074.264s-.024.191-.074.263-.111.13-.186.174c-.074.045-.155.077-.242.097s-.167.03-.24.03h-1.483c-.071 0-.13-.018-.177-.054s-.071-.081-.071-.134.023-.099.071-.134c.047-.036.106-.054.177-.054h1.483c.026 0 .053-.003.083-.008.029-.005.056-.015.081-.029.024-.015.044-.034.06-.058.015-.024.023-.055.023-.092s-.008-.069-.023-.093c-.016-.024-.036-.043-.06-.058-.025-.014-.052-.024-.081-.029-.03-.005-.057-.008-.083-.008h-.989c-.075 0-.156-.01-.242-.029s-.166-.052-.24-.097-.136-.103-.186-.175c-.049-.071-.074-.159-.074-.263s.025-.191.074-.263.111-.13.186-.175c.074-.044.154-.077.24-.097s.167-.029.242-.029h1.483c.071 0 .129.018.177.054.047.036.07.081.07.134s-.023.098-.07.134-.106.054-.177.054h-1.483c-.026-.004-.053-.002-.083.004z" fill="#161b1a"/><path d="m96.442 154.683c.047.036.07.081.07.134s-.023.098-.07.134-.106.054-.177.054h-.742v1.316c0 .054-.023.099-.07.134-.047.036-.106.054-.177.054s-.129-.018-.177-.054c-.047-.036-.07-.081-.07-.134v-1.316h-.742c-.071 0-.13-.018-.177-.054s-.071-.081-.071-.134.023-.099.071-.134c.047-.036.106-.054.177-.054h1.978c.071 0 .13.017.177.054z" fill="#161b1a"/><path d="m98.667 154.658c.087.02.168.052.242.097s.136.103.186.175c.049.072.074.159.074.263v1.128c0 .054-.023.099-.07.134-.047.036-.106.054-.177.054s-.129-.018-.176-.054-.071-.081-.071-.134v-.564h-1.483v.564c0 .054-.023.099-.071.134-.047.036-.106.054-.176.054-.071 0-.13-.018-.177-.054s-.071-.081-.071-.134v-1.128c0-.056.013-.116.039-.183s.068-.127.127-.184.136-.104.229-.141c.094-.038.21-.056.346-.056h.989c.073 0 .153.01.24.029zm.007.723v-.188c0-.038-.008-.068-.023-.093-.016-.024-.036-.043-.06-.058-.025-.014-.052-.024-.081-.03-.03-.005-.057-.008-.083-.008h-.989c-.049 0-.09.006-.122.018s-.057.027-.076.045c-.019.019-.032.04-.039.062s-.011.043-.011.063v.188h1.484z" fill="#161b1a"/><path d="m101.83 155.481c-.062.076-.139.137-.228.182.097.073.174.164.233.27s.088.236.088.388c0 .054-.023.099-.07.134-.047.036-.106.054-.177.054s-.129-.018-.176-.054-.071-.081-.071-.134c0-.088-.016-.163-.046-.226-.031-.063-.07-.115-.118-.157s-.102-.075-.161-.1c-.059-.024-.115-.042-.169-.054s-.104-.019-.148-.023c-.044-.003-.078-.005-.099-.005h-.742v.564c0 .054-.023.099-.071.134-.047.036-.106.054-.176.054-.071 0-.13-.018-.177-.054s-.071-.081-.071-.134v-1.504c0-.054.023-.099.071-.134.047-.036.106-.054.177-.054h1.483c.073 0 .153.01.24.029.087.02.168.052.242.097s.136.103.186.175c.049.072.074.159.074.263-.001.117-.032.214-.094.289zm-.648-.1c.026 0 .053-.002.083-.008.029-.005.056-.015.081-.03.024-.014.044-.034.06-.058.015-.024.023-.055.023-.093s-.008-.068-.023-.093c-.016-.024-.036-.043-.06-.058-.025-.014-.052-.024-.081-.03-.03-.005-.057-.008-.083-.008h-1.236v.376h1.236z" fill="#161b1a"/><path d="m104.516 154.683c.047.036.07.081.07.134s-.023.098-.07.134-.106.054-.177.054h-.742v1.316c0 .054-.023.099-.07.134-.047.036-.106.054-.177.054s-.129-.018-.177-.054c-.047-.036-.07-.081-.07-.134v-1.316h-.742c-.071 0-.13-.018-.177-.054s-.071-.081-.071-.134.023-.099.071-.134c.047-.036.106-.054.177-.054h1.978c.071 0 .129.017.177.054z" fill="#161b1a"/><path d="m93.161 144.365c.087.02.168.052.242.097s.136.103.186.175c.049.072.074.159.074.263s-.024.192-.074.263c-.05.072-.111.13-.186.175s-.155.077-.242.097-.167.029-.24.029h-1.236v.564c0 .054-.023.099-.071.134-.047.036-.106.054-.176.054-.071 0-.13-.018-.177-.054s-.071-.081-.071-.134v-1.504c0-.054.023-.099.071-.134.047-.036.106-.054.177-.054h1.483c.073-.001.153.009.24.029zm-.157.715c.029-.005.056-.015.081-.03.024-.014.044-.034.06-.058.015-.024.023-.055.023-.093s-.008-.068-.023-.093c-.016-.024-.036-.043-.06-.058-.025-.014-.052-.024-.081-.03-.03-.005-.057-.008-.083-.008h-1.236v.376h1.236c.026.001.053-.001.083-.006z" fill="#161b1a"/><path d="m95.916 144.365c.087.02.168.052.242.097s.136.103.186.175c.049.072.074.159.074.263v1.128c0 .054-.023.099-.07.134-.047.036-.106.054-.177.054s-.129-.018-.176-.054-.071-.081-.071-.134v-.564h-1.484v.564c0 .054-.023.099-.071.134-.047.036-.106.054-.176.054-.071 0-.13-.018-.177-.054s-.071-.081-.071-.134v-1.128c0-.056.013-.116.039-.183s.068-.127.127-.184.136-.104.229-.141c.094-.038.21-.056.346-.056h.989c.074-.001.154.009.241.029zm.007.722v-.188c0-.038-.008-.068-.023-.093-.016-.024-.036-.043-.06-.058-.025-.014-.052-.024-.081-.03-.03-.005-.057-.008-.083-.008h-.989c-.049 0-.09.006-.122.018s-.057.027-.076.045c-.019.019-.032.04-.039.062s-.011.043-.011.063v.188h1.484z" fill="#161b1a"/><path d="m99.102 144.389c.047.036.07.081.07.134v1.128c0 .104-.024.191-.074.263s-.111.13-.186.174c-.074.045-.155.077-.242.097s-.167.03-.24.03h-.989c-.136 0-.252-.019-.346-.057s-.17-.084-.229-.141-.101-.118-.127-.183-.039-.126-.039-.184v-1.128c0-.054.023-.099.071-.134.047-.036.106-.054.177-.054.07 0 .129.018.176.054s.071.081.071.134v1.128c0 .02.003.041.011.063.007.022.02.043.039.062s.044.034.076.046.072.018.122.018h.989c.026 0 .053-.003.083-.008.029-.005.056-.015.081-.029.024-.015.044-.034.06-.058.015-.024.023-.055.023-.092v-1.128c0-.054.023-.099.071-.134.047-.036.105-.054.176-.054s.128.017.176.053z" fill="#161b1a"/><path d="m100.113 144.719c-.029.005-.056.016-.081.03s-.045.034-.06.058-.023.055-.023.093.008.068.023.093c.015.024.035.043.06.058s.052.024.081.03c.03.005.057.008.083.008h.989c.073 0 .153.01.24.03s.168.052.242.097c.074.044.136.103.186.174.049.072.074.16.074.264s-.024.191-.074.263-.111.13-.186.174c-.074.045-.155.077-.242.097s-.167.03-.24.03h-1.483c-.071 0-.13-.018-.177-.054s-.071-.081-.071-.134.023-.099.071-.134c.047-.036.106-.054.177-.054h1.483c.026 0 .053-.003.083-.008.029-.005.056-.015.081-.029.024-.015.044-.034.06-.058.015-.024.023-.055.023-.092s-.008-.069-.023-.093c-.016-.024-.036-.043-.06-.058-.025-.014-.052-.024-.081-.029-.03-.005-.057-.008-.083-.008h-.989c-.075 0-.156-.01-.242-.029s-.166-.052-.24-.097-.136-.103-.186-.175c-.049-.071-.074-.159-.074-.263s.025-.191.074-.263.111-.13.186-.175c.074-.044.154-.077.24-.097s.167-.029.242-.029h1.483c.071 0 .129.018.177.054.047.036.07.081.07.134s-.023.098-.07.134-.106.054-.177.054h-1.483c-.026-.004-.053-.001-.083.004z" fill="#161b1a"/><path d="m102.829 144.729c-.032.012-.057.027-.076.045-.019.019-.032.04-.039.062s-.011.043-.011.063v.188h.742c.071 0 .129.018.177.054.047.036.07.081.07.134s-.023.099-.07.134c-.047.036-.106.054-.177.054h-.742v.188c0 .038.008.068.023.092s.035.043.06.058c.025.014.052.024.081.029.03.005.057.008.083.008h1.483c.071 0 .129.018.177.054.047.036.07.081.07.134s-.023.099-.07.134c-.047.036-.106.054-.177.054h-1.483c-.075 0-.156-.01-.242-.03s-.166-.052-.24-.097c-.074-.044-.136-.103-.186-.174s-.074-.16-.074-.263v-.752c0-.056.013-.116.039-.183s.068-.127.127-.184.136-.104.229-.141c.094-.038.21-.056.346-.056h1.483c.071 0 .129.018.177.054.047.036.07.081.07.134s-.023.098-.07.134-.106.054-.177.054h-1.483c-.047.001-.088.007-.12.019z" fill="#161b1a"/><path d="m66.403 154.428c-.027.005-.053.016-.076.03s-.042.034-.056.058c-.015.024-.021.055-.021.093s.007.068.021.093c.014.024.033.043.056.058s.048.024.076.03.053.008.078.008h.921c.068 0 .143.01.224.03s.156.052.225.097c.069.044.127.103.173.174.046.072.069.16.069.264s-.023.191-.069.263-.104.13-.173.174c-.069.045-.144.077-.225.097-.082.02-.156.03-.224.03h-1.382c-.066 0-.121-.018-.165-.054s-.065-.081-.065-.134.021-.099.065-.134c.044-.036.099-.054.165-.054h1.382c.024 0 .05-.003.078-.008s.053-.015.076-.029c.023-.015.042-.034.056-.058s.021-.055.021-.092-.007-.069-.021-.093-.033-.043-.056-.058c-.023-.014-.048-.024-.076-.029s-.053-.008-.078-.008h-.922c-.07 0-.146-.01-.226-.029s-.155-.052-.224-.097-.127-.103-.173-.175c-.046-.071-.069-.159-.069-.263s.023-.191.069-.263.104-.13.173-.175c.069-.044.144-.077.224-.097s.155-.029.226-.029h1.382c.066 0 .121.018.165.054s.065.081.065.134-.021.098-.065.134-.099.054-.165.054h-1.382c-.024-.004-.05-.002-.077.004z" fill="#161b1a"/><path d="m68.933 154.438c-.029.012-.053.027-.071.045-.018.019-.029.04-.036.062-.006.022-.01.043-.01.063v.188h.691c.066 0 .121.018.165.054s.066.081.066.134-.022.099-.066.134c-.044.036-.099.054-.165.054h-.691v.188c0 .038.007.068.021.092s.033.043.056.058c.023.014.048.024.076.029s.053.008.078.008h1.382c.066 0 .121.018.165.054s.065.081.065.134-.021.099-.065.134-.099.054-.165.054h-1.382c-.07 0-.146-.01-.226-.03s-.155-.052-.224-.097c-.069-.044-.127-.103-.173-.174s-.069-.16-.069-.263v-.752c0-.056.012-.116.036-.183.024-.066.063-.127.118-.184s.126-.104.214-.141c.088-.038.195-.056.323-.056h1.382c.066 0 .121.018.165.054s.065.081.065.134-.021.098-.065.134-.099.054-.165.054h-1.382c-.046.001-.083.007-.113.019z" fill="#161b1a"/><path d="m73.16 155.602c.044.036.065.081.065.134s-.021.099-.065.134-.099.054-.165.054h-1.843c-.066 0-.121-.018-.165-.054s-.065-.081-.065-.134v-1.504c0-.054.021-.099.065-.134.044-.036.099-.054.165-.054s.121.018.165.054.066.081.066.134v1.316h1.612c.066 0 .121.018.165.054z" fill="#161b1a"/><path d="m73.974 154.438c-.029.012-.053.027-.071.045-.018.019-.029.04-.036.062-.006.022-.01.043-.01.063v.188h.691c.066 0 .121.018.165.054s.066.081.066.134-.022.099-.066.134c-.044.036-.099.054-.165.054h-.691v.188c0 .038.007.068.021.092s.033.043.056.058c.023.014.048.024.076.029s.053.008.078.008h1.382c.066 0 .121.018.165.054s.065.081.065.134-.021.099-.065.134-.099.054-.165.054h-1.382c-.07 0-.146-.01-.226-.03s-.155-.052-.224-.097c-.069-.044-.127-.103-.173-.174s-.069-.16-.069-.263v-.752c0-.056.012-.116.036-.183.024-.066.063-.127.118-.184s.126-.104.214-.141c.088-.038.195-.056.323-.056h1.382c.066 0 .121.018.165.054s.065.081.065.134-.021.098-.065.134-.099.054-.165.054h-1.382c-.046.001-.084.007-.113.019z" fill="#161b1a"/><path d="m76.54 154.438c-.029.012-.053.027-.071.045-.018.019-.029.04-.036.062-.006.022-.01.043-.01.063v.752c0 .038.007.068.021.092s.033.043.056.058c.023.014.048.024.076.029s.053.008.078.008h1.382c.066 0 .121.018.165.054s.065.081.065.134-.021.099-.065.134-.099.054-.165.054h-1.382c-.07 0-.146-.01-.226-.03s-.155-.052-.224-.097c-.069-.044-.127-.103-.173-.174s-.069-.16-.069-.263v-.752c0-.056.012-.116.036-.183.024-.066.063-.127.118-.184s.126-.104.214-.141c.088-.038.195-.056.323-.056h1.382c.066 0 .121.018.165.054s.065.081.065.134-.021.098-.065.134-.099.054-.165.054h-1.382c-.046.001-.083.007-.113.019z" fill="#161b1a"/><path d="m80.767 154.098c.044.036.065.081.065.134s-.021.098-.065.134-.099.054-.165.054h-.691v1.316c0 .054-.022.099-.066.134-.044.036-.099.054-.165.054s-.121-.018-.165-.054-.066-.081-.066-.134v-1.316h-.691c-.066 0-.121-.018-.165-.054s-.065-.081-.065-.134.021-.099.065-.134c.044-.036.099-.054.165-.054h1.843c.067 0 .122.018.166.054z" fill="#161b1a"/><path d="m108.847 181.349c.119.029.229.077.329.144.101.067.185.153.252.26s.101.237.101.391v1.677c0 .08-.032.146-.096.2s-.144.08-.24.08-.176-.026-.241-.08c-.064-.053-.096-.12-.096-.2v-.838h-2.02v.838c0 .08-.032.146-.096.2s-.144.08-.24.08-.176-.026-.24-.08c-.064-.053-.096-.12-.096-.2v-1.677c0-.083.018-.173.053-.271s.093-.189.173-.273.184-.154.312-.21.285-.083.471-.083h1.346c.101-.002.21.013.328.042zm.01 1.074v-.28c0-.056-.011-.102-.031-.138-.021-.036-.048-.064-.082-.086-.034-.021-.07-.036-.11-.044s-.078-.012-.113-.012h-1.346c-.067 0-.123.009-.166.026s-.078.04-.104.068-.043.059-.053.092-.015.064-.015.094v.28z" fill="#161b1a"/><path d="m84.948 195.493c.119.029.229.077.329.144.101.067.185.153.252.26s.101.237.101.391c0 .123-.022.23-.067.322s-.101.171-.168.237c.067.067.123.146.168.238s.067.199.067.321c0 .155-.034.285-.101.392s-.151.193-.252.26c-.101.066-.21.114-.329.144s-.228.044-.327.044h-2.019c-.096 0-.176-.026-.24-.08-.064-.053-.096-.12-.096-.2v-2.236c0-.08.032-.146.096-.2.064-.053.144-.08.24-.08h2.019c.099-.001.208.013.327.043zm-.022.656c-.021-.036-.048-.064-.082-.086-.034-.021-.07-.036-.11-.044s-.078-.012-.113-.012h-1.683v.559h1.683c.039 0 .078-.004.118-.012s.076-.022.108-.044c.032-.021.059-.05.08-.086s.031-.082.031-.138c0-.055-.011-.1-.032-.137zm-.192 1.524c.04-.008.077-.022.11-.044.034-.021.061-.05.082-.085.021-.036.031-.082.031-.138s-.011-.102-.031-.138c-.021-.036-.048-.064-.082-.086-.034-.021-.07-.036-.11-.044s-.078-.012-.113-.012h-1.683v.559h1.683c.035 0 .073-.004.113-.012z" fill="#161b1a"/><path d="m193.514 225.439h-7.538c-.403 0-.563.52-.231.747l3.769 2.574c.139.095.322.095.462 0l3.769-2.574c.333-.227.172-.747-.231-.747z" fill="none" stroke="#000" stroke-miterlimit="10" stroke-width=".0773"/><path d="m160.214 232.078h-1.428c-.143 0-.259.116-.259.259v5.096c0 .681.552 1.234 1.234 1.234h59.908c.681 0 1.234-.552 1.234-1.234v-5.096c0-.143-.116-.259-.259-.259h-1.428v-1.472h-59c-.002 0-.002 1.472-.002 1.472z" fill="#715853"/><path d="m160.756 230.606h1.535v7.229h-1.535z" fill="#523e38"/><path d="m163.766 230.606h1.535v7.229h-1.535z" fill="#523e38"/><path d="m166.776 230.606h1.535v7.229h-1.535z" fill="#523e38"/><path d="m169.786 230.606h1.535v7.229h-1.535z" fill="#523e38"/><path d="m172.797 230.606h1.535v7.229h-1.535z" fill="#523e38"/><path d="m175.807 230.606h1.535v7.229h-1.535z" fill="#523e38"/><path d="m178.817 230.606h1.535v7.229h-1.535z" fill="#523e38"/><path d="m181.827 230.606h1.535v7.229h-1.535z" fill="#523e38"/><path d="m184.837 230.606h1.535v7.229h-1.535z" fill="#523e38"/><path d="m187.848 230.606h1.535v7.229h-1.535z" fill="#523e38"/><path d="m190.858 230.606h1.535v7.229h-1.535z" fill="#523e38"/><path d="m193.868 230.606h1.535v7.229h-1.535z" fill="#523e38"/><path d="m196.878 230.606h1.535v7.229h-1.535z" fill="#523e38"/><path d="m199.888 230.606h1.535v7.229h-1.535z" fill="#523e38"/><path d="m202.899 230.606h1.535v7.229h-1.535z" fill="#523e38"/><path d="m205.909 230.606h1.535v7.229h-1.535z" fill="#523e38"/><path d="m208.919 230.606h1.535v7.229h-1.535z" fill="#523e38"/><path d="m211.929 230.606h1.535v7.229h-1.535z" fill="#523e38"/><path d="m214.939 230.606h1.535v7.229h-1.535z" fill="#523e38"/><path d="m219.214 230.606h-1.264v7.229h1.535v-5.757h-.271z" fill="#523e38"/><path d="m159.464 232.078h-.678c-.143 0-.259.116-.259.259v5.096c0 .141.024.276.067.402h.871s-.001-5.757-.001-5.757z" fill="#397466"/><path d="m219.964 232.078h.678c.143 0 .259.116.259.259v5.096c0 .141-.024.276-.067.402h-.871s.001-5.757.001-5.757z" fill="#397466"/><path d="m155.77 182.133h6.222c.512 0 .889-.256 1.181-.694.314-.472.497-.771.75-1.083.637-.785 1.389-1.372 1.722-1.556.916-.506 1.424-.569 2.431-.569h21.639 21.639c1.007 0 1.514.064 2.431.569.333.184 1.086.771 1.722 1.556.253.312.436.611.75 1.083.292.438.668.694 1.181.694h6.222v47.213c0 .695-.564 1.259-1.259 1.259h-65.371c-.695 0-1.259-.564-1.259-1.259-.001.001-.001-47.213-.001-47.213z" fill="#5f6060"/><path d="m223.659 182.133h-6.049v-1.757c0-3.555-2.882-6.438-6.438-6.438h-42.917c-3.555 0-6.438 2.882-6.438 6.438v1.757s-6.049 0-6.049 0v-12.925c0-.695.564-1.259 1.259-1.259h65.373c.695 0 1.259.564 1.259 1.259z" fill="url(#E)"/><path d="m217.61 182.133v-1.757c0-3.555-2.882-6.438-6.438-6.438h-42.917c-3.555 0-6.438 2.882-6.438 6.438v1.757h.174c.512 0 .889-.256 1.181-.694.314-.472.497-.771.75-1.083.637-.785 1.389-1.372 1.722-1.556.916-.506 1.424-.569 2.431-.569h21.639 21.639c1.007 0 1.514.064 2.431.569.333.184 1.086.771 1.722 1.556.253.312.436.611.75 1.083.292.438.668.694 1.181.694z" fill="#696969"/><path d="m207.479 176.207h-35.167c-.23 0-.417-.187-.417-.417 0-.23.187-.417.417-.417h35.167c.23 0 .417.187.417.417-.001.23-.187.417-.417.417z" fill="#575757"/><path d="m207.353 176.106h-35.167c-.23 0-.417-.187-.417-.417 0-.23.187-.417.417-.417h35.167c.23 0 .417.187.417.417 0 .23-.187.417-.417.417z" fill="#6d6d6d"/><path d="m207.479 177.925h-35.167c-.23 0-.417-.187-.417-.417 0-.23.187-.417.417-.417h35.167c.23 0 .417.187.417.417-.001.231-.187.417-.417.417z" fill="#575757"/><path d="m207.353 177.824h-35.167c-.23 0-.417-.187-.417-.417 0-.23.187-.417.417-.417h35.167c.23 0 .417.187.417.417 0 .231-.187.417-.417.417z" fill="#6d6d6d"/><path d="m215.652 223.772h-51.875c-2.382 0-4.312-1.931-4.312-4.312v-31.458c0-2.382 1.931-4.312 4.312-4.312h51.875c2.382 0 4.312 1.931 4.312 4.312v31.458c0 2.382-1.931 4.312-4.312 4.312z" fill="#4f4e4f"/><path d="m215.414 223.617h-51.399c-2.346 0-4.248-1.902-4.248-4.248v-30.786c0-2.346 1.902-4.248 4.248-4.248h51.399c2.346 0 4.248 1.902 4.248 4.248v30.786c0 2.346-1.902 4.248-4.248 4.248z" fill="url(#F)"/></svg>