<?xml version="1.0" encoding="UTF-8" standalone="no"?>
<!-- Created with Inkscape (http://www.inkscape.org/) -->

<svg
   width="230mm"
   height="265mm"
   viewBox="0 0 230 265"
   version="1.1"
   id="svg1"
   xml:space="preserve"
   inkscape:version="1.4.2 (f4327f4, 2025-05-13)"
   sodipodi:docname="supracan.svg"
   xmlns:inkscape="http://www.inkscape.org/namespaces/inkscape"
   xmlns:sodipodi="http://sodipodi.sourceforge.net/DTD/sodipodi-0.dtd"
   xmlns="http://www.w3.org/2000/svg"
   xmlns:svg="http://www.w3.org/2000/svg"><sodipodi:namedview
     id="namedview1"
     pagecolor="#ffffff"
     bordercolor="#000000"
     borderopacity="0.25"
     inkscape:showpageshadow="2"
     inkscape:pageopacity="0.0"
     inkscape:pagecheckerboard="0"
     inkscape:deskcolor="#d1d1d1"
     inkscape:document-units="mm"
     inkscape:zoom="0.52221046"
     inkscape:cx="211.60051"
     inkscape:cy="583.09824"
     inkscape:window-width="1920"
     inkscape:window-height="1009"
     inkscape:window-x="-8"
     inkscape:window-y="-8"
     inkscape:window-maximized="1"
     inkscape:current-layer="layer1" /><defs
     id="defs1"><linearGradient
       id="a"
       gradientUnits="userSpaceOnUse"
       x1="220.724"
       y1="344.811"
       x2="220.724"
       y2="340.246"
       gradientTransform="matrix(-0.01032461,0.72244209,-0.72244209,-0.01032461,279.77436,27.327783)"><stop
         offset="0"
         id="stop21" /><stop
         offset="1"
         stop-color="#fff"
         id="stop22" /></linearGradient></defs><g
     inkscape:label="Camada 1"
     inkscape:groupmode="layer"
     id="layer1"><path
       d="m 225.35985,39.494011 0.34959,61.474979 c 0.003,0.6004 -0.48079,1.09014 -1.08118,1.09356 l -12.5116,0.0712 -0.36193,-63.646129 12.51521,-0.0712 a 1.0837739,1.0837739 0 0 1 1.08991,1.0776 z"
       fill="#b5b5b5"
       id="path31"
       style="fill:#232326;fill-opacity:1;stroke-width:0.722514" /><path
       d="m 225.35984,79.25975 0.12641,22.22784 -13.59897,0.0773 -0.13255,-23.31016 12.51737,-0.0712 c 0.59751,-0.003 1.08435,0.47865 1.08774,1.07617 z"
       fill="#c1c1c1"
       id="path32"
       style="fill:#030405;fill-opacity:1;stroke-width:0.722514" /><path
       d="M 3.2370549,101.05604 2.8874709,39.58106 c -0.0034,-0.6004 0.480784,-1.090142 1.081172,-1.093556 l 12.5116041,-0.07115 0.36193,63.646126 -12.5152077,0.0712 a 1.0837739,1.0837739 0 0 1 -1.0899144,-1.0776 z"
       fill="#b5b5b5"
       id="path1"
       style="fill:#232326;fill-opacity:1;stroke-width:0.722514" /><path
       d="m 3.2370629,101.05749 -0.126401,-22.227839 13.5989601,-0.07733 0.132555,23.310159 -12.5173647,0.0712 c -0.5975164,0.003 -1.0843514,-0.47865 -1.0877494,-1.07617 z"
       fill="#c1c1c1"
       id="path2"
       style="fill:#030405;fill-opacity:1;stroke-width:0.722514" /><path
       d="m 217.47611,20.404827 c 0,-13.5059999 -8.19187,-17.4906836 -14.83398,-17.4906836 -1.74993,0 -7.81182,0.016386 -16.02251,0.038233 v 3.115479 H 183.416 V 2.9610331 l -3.51939,0.010977 v 3.0966921 h -3.20363 v -3.08803 l -3.5194,0.010977 v 3.077904 h -3.20361 V 3.0010479 l -3.51937,0.010977 v 3.05841 h -3.20366 V 3.0206855 l -3.51936,0.010977 v 3.0396183 h -3.20363 V 3.0403247 l -3.51938,0.010977 V 6.072133 h -3.20363 V 3.0599591 l -3.51938,0.0082 v 3.0020708 h -3.20363 V 3.0768472 l -3.51937,0.0082 v 2.9847027 h -3.20365 V 3.0937041 l -3.51936,0.0082 v 2.9673624 h -3.20363 V 3.109851 l -3.51939,0.0082 V 6.0695201 H 122.9089 V 3.1252597 l -3.51939,0.00542 v 2.9377554 h -3.20363 V 3.1350192 l -1.75932,7.38e-4 -1.76006,-7.38e-4 V 6.068438 h -3.20145 V 3.1306776 l -3.51938,-0.00542 v 2.9442575 h -3.20363 V 3.117723 l -3.519374,-0.0082 V 6.0689387 H 96.019044 V 3.1015763 l -3.519362,-0.0082 V 6.069422 H 89.296049 V 3.0847193 l -3.519377,-0.0082 V 6.0699066 H 82.573039 V 3.0678358 l -3.519378,-0.0082 V 6.07181 H 75.850027 V 3.0510097 L 72.330651,3.0400323 V 6.0709887 H 69.127017 V 3.0313705 L 65.60764,3.0203932 V 6.070138 H 62.404006 V 3.0117329 L 58.884632,3.0007555 V 6.0692609 H 55.680994 V 2.9913572 L 52.161622,2.9803799 V 6.0684101 H 48.957985 V 2.971718 L 45.438611,2.9607406 V 6.067558 H 42.234973 V 2.9523747 c -8.21067,-0.021847 -14.272577,-0.038233 -16.022512,-0.038233 -6.642087,0 -14.833973,3.9854217 -14.833973,17.4906843 0,13.505972 -2.4645021,208.562884 -0.692892,220.297974 1.770885,13.72709 8.412974,18.81939 20.148075,18.81939 11.735107,0 83.593599,-0.48192 83.593599,-0.48192 0,0 71.85855,0.48192 83.59293,0.48192 11.73439,0 18.37647,-5.0923 20.14807,-18.81939 1.77232,-11.73436 -0.69216,-206.792002 -0.69216,-220.297973 z"
       fill="#d9d9d9"
       id="path3"
       style="fill:#2f3033;fill-opacity:1;stroke-width:0.722514" /><path
       d="M 203.62839,254.46456 H 25.980535 c -5.997605,0 -10.90421,-4.90732 -10.90421,-10.9042 V 18.205494 c 0,-5.997615 4.907329,-10.9042329 10.90421,-10.9042329 H 203.62839 c 5.99758,0 10.9042,4.9066179 10.9042,10.9042329 V 243.55966 c 0,5.99758 -4.90662,10.9049 -10.9042,10.9049 z"
       fill="#4c4c4c"
       id="path4"
       style="stroke-width:0.722514" /><path
       d="M 202.89501,253.74132 H 26.561437 c -5.964368,0.25943 -11.209834,-4.95501 -10.836294,-10.83629 V 18.707628 C 15.351603,12.685462 20.91353,7.5021362 26.561437,7.8713365 H 202.89501 c 5.95788,-0.3374149 11.23584,4.7505545 10.83631,10.8362915 V 242.90577 c 0.43062,5.78589 -4.91023,11.15852 -10.83631,10.83555 z"
       fill="#c3c2c7"
       id="path5"
       style="fill:#323335;fill-opacity:1;stroke-width:0.722514" /><rect
       style="fill:#292a2d;fill-opacity:1;stroke-width:0.260999"
       id="rect32"
       width="155.48615"
       height="185.5802"
       x="36.454193"
       y="27.227985" /><path
       d="M 144.31211,198.08449 H 93.100238 c -2.361181,0 -4.293189,-1.93199 -4.293189,-4.29319 v -23.0468 c 0,-2.3612 1.932008,-4.29322 4.293189,-4.29322 h 51.211872 c 2.3612,0 4.29322,1.93202 4.29322,4.29322 v 23.0468 c 0,2.3619 -1.93202,4.29319 -4.29322,4.29319 z"
       fill="#505656"
       stroke="#272828"
       stroke-miterlimit="10"
       id="path7"
       style="stroke-width:0.722514" /><rect
       style="fill:#232326;fill-opacity:1;stroke-width:0.276092"
       id="rect33"
       width="186.47588"
       height="70.219543"
       x="21.94454"
       y="26.153196" /><path
       d="m 114.42727,72.275212 c 9.63839,0 51.57103,-1.80415 58.82726,-2.40167 7.25623,-0.59752 10.11665,-2.8431 11.69537,-5.20716 1.71019,-2.56132 1.8778,-7.42673 1.53679,-10.75682 -0.34176,-3.32936 -4.26863,-3.841622 -5.71942,-3.841622 h -66.34 0.002 -66.339937 c -1.451534,0 -5.378408,0.512262 -5.719437,3.841622 -0.341748,3.32935 -0.173403,8.1955 1.536793,10.75682 1.578698,2.36406 4.439138,4.60964 11.695365,5.20716 7.256228,0.59752 49.188856,2.40167 58.827216,2.40167"
       fill="#464749"
       id="path8"
       style="stroke-width:0.722514" /><path
       d="m 179.36555,199.04326 h -18.04049 c -2.3612,0 -4.29318,-1.93199 -4.29318,-4.29318 v -22.89509 c 0,-2.36119 1.93198,-4.29319 4.29318,-4.29319 h 18.04049 c 2.3612,0 4.29322,1.932 4.29322,4.29319 v 22.89509 c 0,2.36119 -1.93202,4.29318 -4.29322,4.29318 z"
       fill="#505656"
       id="path10"
       style="stroke-width:0.722514" /><path
       d="M 76.774203,198.99847 H 58.733705 c -2.361184,0 -4.293189,-1.93202 -4.293189,-4.29319 v -22.89437 c 0,-2.36119 1.932005,-4.29318 4.293189,-4.29318 h 18.040498 c 2.361181,0 4.29319,1.93199 4.29319,4.29318 v 22.89437 c 0,2.36117 -1.932009,4.29319 -4.29319,4.29319 z"
       fill="#6e7270"
       id="path12"
       style="stroke-width:0.722514" /><path
       d="m 55.697615,67.651832 h -0.505763 a 0.86051645,0.86051645 0 0 1 -0.85835,-0.85837 v -13.96406 c 0,-0.47253 0.386547,-0.85836 0.85835,-0.85836 h 0.505763 c 0.472523,0 0.85907,0.38657 0.85907,0.85836 v 13.96406 c 0,0.4718 -0.386547,0.85837 -0.85907,0.85837 z m 117.461525,0 h 0.5065 c 0.4725,0 0.85835,-0.38657 0.85835,-0.85837 v -13.96406 c 0,-0.47253 -0.38654,-0.85836 -0.85835,-0.85836 h -0.5065 c -0.47251,0 -0.85834,0.38657 -0.85834,0.85836 v 13.96406 c 0,0.4718 0.38583,0.85837 0.85834,0.85837 z m -56.59537,0.0391 a 2.9890481,2.9890481 0 0 1 -4.26863,0 l -4.26862,-4.34665 c -1.1741,-1.19504 -0.21382,-2.17334 2.13431,-2.17334 h 8.53796 c 2.34819,0 3.30841,0.9783 2.13432,2.17334 z"
       fill="#444343"
       id="path13"
       style="stroke-width:0.722514" /><path
       fill="#4c4c4c"
       d="m 39.269768,7.7174302 h 0.445073 V 32.106689 h -0.445073 z m 149.872162,0 h 0.44505 V 32.106689 h -0.44505 z m 3.08948,204.3405098 h 0.44506 v 41.69277 h -0.44506 z m -156.053287,0.001 h 0.445072 v 41.69058 h -0.445072 z"
       id="path18"
       style="stroke-width:0.722514" /><path
       d="m 107.51832,158.45763 c -0.13791,0.14664 -0.21601,0.35475 -0.23266,0.62498 l 2.11407,-0.005 v 0.63221 h -2.11913 c 0,0.1286 0.0136,0.25149 0.0434,0.36993 0.0289,0.11767 0.0868,0.22611 0.17423,0.32297 0.0773,0.091 0.16985,0.148 0.276,0.16985 0.10623,0.0219 0.21463,0.0325 0.32586,0.0325 h 0.0456 l 1.25427,-0.005 v 0.63221 h -1.28969 c -0.2059,0 -0.40388,-0.0192 -0.59462,-0.0557 a 1.2318896,1.2318896 0 0 1 -0.53827,-0.25723 1.3185915,1.3185915 0 0 1 -0.42485,-0.60473 2.4767845,2.4767845 0 0 1 -0.13135,-0.73119 1.4262464,1.4262464 0 0 1 -0.002,-0.15674 c 0.001,-0.0505 0.003,-0.10109 0.008,-0.15184 0.0369,-0.57294 0.1928,-0.9949 0.46746,-1.2644 0.27458,-0.26952 0.68711,-0.40458 1.23624,-0.40458 l 1.26946,-0.005 v 0.63219 h -1.25438 c -0.2796,0.005 -0.48913,0.0795 -0.6264,0.2261 z m 3.05406,2.17262 c 0.38078,0.003 0.61486,-0.086 0.70085,-0.26817 0.086,-0.18214 0.12944,-0.4364 0.12944,-0.7637 v -1.99849 h 0.79405 v 2.15959 c 0,0.0404 -7.4e-4,0.0781 -0.002,0.11333 -0.001,0.0361 -0.002,0.0723 -0.002,0.10925 -0.0109,0.15839 -0.0391,0.31358 -0.086,0.46533 -0.047,0.15182 -0.12426,0.28825 -0.23267,0.40965 a 0.93927067,0.93927067 0 0 1 -0.52815,0.31646 3.2368712,3.2368712 0 0 1 -0.61921,0.0578 h -1.04766 v -0.60187 h 0.89376 z m 3.18702,-2.17262 c -0.1379,0.14664 -0.216,0.35475 -0.23266,0.62498 l 2.11408,-0.005 v 0.63221 h -2.11913 c 0,0.1286 0.0136,0.25149 0.0434,0.36993 0.0289,0.11767 0.0868,0.22611 0.17422,0.32297 0.0773,0.091 0.16986,0.148 0.276,0.16985 0.10622,0.0219 0.21464,0.0325 0.32587,0.0325 h 0.0456 l 1.25427,-0.005 v 0.63221 h -1.28969 c -0.2059,0 -0.40388,-0.0192 -0.59462,-0.0557 a 1.2318896,1.2318896 0 0 1 -0.53827,-0.25723 1.3185915,1.3185915 0 0 1 -0.42485,-0.60473 2.4767845,2.4767845 0 0 1 -0.13135,-0.73119 1.4262464,1.4262464 0 0 1 -0.002,-0.15674 c 0.001,-0.0505 0.003,-0.10109 0.008,-0.15184 0.0369,-0.57294 0.19279,-0.9949 0.46748,-1.2644 0.27455,-0.26952 0.68709,-0.40458 1.23622,-0.40458 l 1.26945,-0.005 v 0.63219 h -1.2543 c -0.2796,0.005 -0.4884,0.0795 -0.62641,0.2261 z m 3.33225,0.12938 c -0.10704,0.23921 -0.1663,0.51806 -0.17641,0.83452 v 0.16467 a 1.7022476,1.7022476 0 0 0 0.0707,0.51516 c 0.0339,0.1128 0.0888,0.21327 0.16631,0.30058 a 0.50937372,0.50937372 0 0 0 0.28108,0.16986 c 0.10622,0.0219 0.21518,0.0325 0.32583,0.0325 h 0.0456 l 1.25429,-0.005 v 0.6322 h -1.28969 c -0.20508,0 -0.40461,-0.0191 -0.59462,-0.0557 a 1.2261095,1.2261095 0 0 1 -0.53755,-0.25726 c -0.2029,-0.16548 -0.34465,-0.36701 -0.42556,-0.60472 -0.0808,-0.23784 -0.12507,-0.48119 -0.13163,-0.73118 a 1.4262464,1.4262464 0 0 1 -0.002,-0.15676 c 10e-4,-0.0506 0.003,-0.10109 0.008,-0.15183 0.0369,-0.57293 0.19361,-0.9949 0.46748,-1.2644 0.27385,-0.26952 0.68638,-0.40459 1.23696,-0.40459 l 1.26945,-0.005 v 0.62208 h -1.2543 c -0.36704,0.005 -0.60472,0.12636 -0.71311,0.36559 z m 2.15455,-0.34897 v -0.63219 h 3.13572 v 0.63219 h -1.17844 v 2.99411 h -0.78898 v -2.99411 z m 44.62835,-0.68205 c 0.0376,0.003 0.0738,0.005 0.10832,0.005 0.0348,0 0.0716,0.001 0.10833,0.005 0.13794,0.005 0.27456,0.0282 0.40677,0.066 0.13383,0.0376 0.25068,0.10543 0.35115,0.20726 0.0917,0.0874 0.15975,0.19087 0.20453,0.30852 0.0455,0.11767 0.0737,0.23922 0.0837,0.36416 0,0.0246 7.3e-4,0.047 0.001,0.0707 0.001,0.0246 0.003,0.047 0.003,0.0716 0.003,0.25288 -0.0549,0.47108 -0.17421,0.65462 -0.11991,0.18432 -0.30637,0.30634 -0.55923,0.36704 l 0.90603,1.51222 h -0.8598 l -0.79912,-1.42626 h -0.8995 v 1.42626 h -0.76444 v -3.63138 h 1.88216 z m -0.18215,0.64808 h -0.93564 v 0.91544 h 0.93564 a 0.04190591,0.04190591 0 0 0 0.0192,0.005 h 0.0191 c 0.16247,0 0.30922,-0.0246 0.4429,-0.0729 0.13296,-0.0492 0.19717,-0.17777 0.19498,-0.38727 0,-0.21601 -0.0707,-0.34608 -0.21027,-0.38944 -0.13954,-0.0434 -0.29624,-0.0659 -0.46748,-0.0659 z m 2.96376,0.20945 c -0.13792,0.14665 -0.21599,0.35476 -0.23265,0.625 l 2.11408,-0.005 v 0.63219 h -2.11986 c 0,0.1286 0.0132,0.25152 0.044,0.36994 0.0282,0.11767 0.0859,0.22612 0.1734,0.32296 a 0.48408564,0.48408564 0 0 0 0.27674,0.16986 c 0.10543,0.0219 0.21464,0.0325 0.32583,0.0325 h 0.0447 l 1.25425,-0.005 v 0.63221 h -1.28968 a 3.0562422,3.0562422 0 0 1 -0.59388,-0.0557 1.3243716,1.3243716 0 0 1 -0.96387,-0.86194 2.499905,2.499905 0 0 1 -0.13163,-0.73121 c -0.003,-0.0536 -0.005,-0.10543 -0.003,-0.15674 0.001,-0.0515 0.005,-0.10108 0.009,-0.15182 0.0376,-0.57296 0.19279,-0.9949 0.46747,-1.26442 0.27457,-0.26952 0.6871,-0.40458 1.23622,-0.40458 l 1.27016,-0.005 v 0.6322 h -1.25427 c -0.27889,0.005 -0.48842,0.0795 -0.62644,0.2261 z m 3.73182,-0.20945 c -0.16549,0.003 -0.30418,0.0382 -0.41691,0.10411 -0.1128,0.0657 -0.16902,0.19142 -0.16902,0.37643 0,0.14174 0.0478,0.24277 0.14364,0.30347 0.0961,0.0607 0.20808,0.091 0.33597,0.091 l 1.01154,-0.005 c 0.0376,0.003 0.0758,0.005 0.11622,0.005 0.0404,0 0.0808,0.001 0.12122,0.005 0.11768,0.009 0.23485,0.0274 0.34898,0.0584 a 0.70228547,0.70228547 0 0 1 0.30345,0.17421 c 0.0803,0.0745 0.14087,0.16412 0.18214,0.26816 0.0413,0.10411 0.066,0.21245 0.076,0.32296 0.003,0.0338 0.005,0.0673 0.009,0.0988 0.001,0.0325 0.003,0.065 0.003,0.0991 -0.009,0.42123 -0.12281,0.70736 -0.349,0.85764 -0.2261,0.15018 -0.53247,0.22528 -0.92048,0.22528 h -2.03243 v -0.64739 h 1.91178 a 0.97539647,0.97539647 0 0 0 0.43711,-0.0803 c 0.12373,-0.0571 0.17341,-0.18706 0.14964,-0.38943 -0.0164,-0.15894 -0.0758,-0.25588 -0.17694,-0.29335 a 1.1386851,1.1386851 0 0 0 -0.35911,-0.0607 l -0.90025,-0.005 c -0.37427,0.003 -0.67047,-0.0723 -0.88795,-0.22528 -0.21738,-0.15319 -0.32441,-0.43061 -0.32082,-0.8316 0.005,-0.42122 0.12425,-0.7088 0.35185,-0.86198 0.22695,-0.15401 0.53467,-0.22964 0.9227,-0.22964 l 1.99773,-0.005 v 0.64735 h -1.8872 z m 3.50564,0.20945 c -0.13792,0.14665 -0.21599,0.35476 -0.23265,0.625 l 2.11483,-0.005 v 0.63219 h -2.11989 c 0,0.1286 0.0132,0.25152 0.0434,0.36994 0.0289,0.11767 0.0869,0.22612 0.17423,0.32296 0.0773,0.091 0.16901,0.14803 0.27598,0.16986 0.10701,0.0219 0.2152,0.0325 0.32586,0.0325 h 0.0455 l 1.25429,-0.005 v 0.63221 h -1.28969 a 3.0634674,3.0634674 0 0 1 -0.59463,-0.0557 1.228277,1.228277 0 0 1 -0.53829,-0.25723 1.3135339,1.3135339 0 0 1 -0.42482,-0.60471 2.453664,2.453664 0 0 1 -0.13164,-0.73121 c -0.005,-0.0536 -0.005,-0.10543 -0.003,-0.15674 10e-4,-0.0515 0.005,-0.10108 0.009,-0.15182 0.0376,-0.57296 0.1936,-0.9949 0.4682,-1.26442 0.27455,-0.26952 0.6864,-0.40458 1.23621,-0.40458 l 1.2702,-0.005 v 0.6322 h -1.25429 c -0.28034,0.005 -0.48985,0.0795 -0.62714,0.2261 z m 2.17476,-0.21955 v -0.6322 h 3.13573 v 0.6322 h -1.17841 v 2.9941 h -0.78901 v -2.9941 z"
       fill="#dcdbe1"
       id="path19"
       style="stroke-width:0.722514" /><path
       d="m 27.800225,180.02301 a 2.2600297,2.2600297 0 0 1 2.27086,-2.24403 2.2607522,2.2607522 0 0 1 2.24405,2.27156 l -0.0392,6.43244 a 2.2600297,2.2600297 0 0 1 -2.27158,2.24333 2.2600297,2.2600297 0 0 1 -2.24332,-2.27086 z"
       fill="#c95b5b"
       id="path21"
       style="stroke-width:0.722514" /><path
       d="m 28.342735,186.50072 0.0935,-6.54461 a 1.59676,1.59676 0 0 1 1.61502,-1.56949 l 0.11331,0.002 a 1.59676,1.59676 0 0 1 1.56951,1.615 l -0.0935,6.54461 a 1.59676,1.59676 0 0 1 -1.61502,1.5695 l -0.11331,-0.002 a 1.59676,1.59676 0 0 1 -1.56951,-1.61501 z"
       fill="url(#a)"
       id="path22"
       style="fill:url(#a);stroke-width:0.722514" /><path
       d="m 28.362015,186.51071 0.0548,-6.54505 a 1.59676,1.59676 0 0 1 1.60569,-1.57903 l 0.11332,9.4e-4 a 1.59676,1.59676 0 0 1 1.57904,1.60568 l -0.0548,6.54505 a 1.59676,1.59676 0 0 1 -1.60569,1.57904 l -0.11332,-9.4e-4 a 1.59676,1.59676 0 0 1 -1.57904,-1.60569 z"
       fill="#c11b25"
       id="path23"
       style="stroke-width:0.722514" /><path
       d="m 324.71117,236.03545 a 0.0093927,0.0093927 0 0 0 0.009,0.003 h 0.11714 c 0.0361,0 0.0738,10e-4 0.10978,0.005 0.065,0.005 0.1307,0.0132 0.19498,0.0275 0.065,0.0165 0.12505,0.0382 0.18051,0.0716 a 0.49709093,0.49709093 0 0 1 0.21818,0.24578 c 0.044,0.10411 0.0663,0.213 0.0686,0.32657 0.001,0.10411 -0.0165,0.20371 -0.0536,0.30057 a 0.53827434,0.53827434 0 0 1 -0.1865,0.23977 0.62353121,0.62353121 0 0 1 -0.23841,0.10266 1.8460281,1.8460281 0 0 1 -0.26161,0.0303 h -0.13955 l -0.52815,-0.003 v 0.72542 h -0.43641 v -2.07508 h 0.94722 z m -0.005,0.3692 h -0.50577 v 0.61342 h 0.53177 a 0.57873524,0.57873524 0 0 0 0.27455,-0.0623 c 0.0765,-0.0417 0.11491,-0.12215 0.11491,-0.24141 0.005,-0.13355 -0.0369,-0.21736 -0.12281,-0.25368 a 0.76008671,0.76008671 0 0 0 -0.29261,-0.0536 z m 1.12712,0.2089 c 0.0497,-0.15182 0.12346,-0.27599 0.22119,-0.37138 0.0975,-0.0953 0.2253,-0.16329 0.38294,-0.20371 a 1.7123627,1.7123627 0 0 1 0.56355,-0.0348 c 0.0673,0.009 0.13223,0.0192 0.1936,0.0376 0.15457,0.0391 0.28035,0.10543 0.3786,0.20234 0.0983,0.0966 0.16985,0.22118 0.21683,0.3728 a 1.7990646,1.7990646 0 0 1 0.0605,0.45086 c 0,0.083 -0.005,0.16412 -0.0164,0.24276 a 1.3922881,1.3922881 0 0 1 -0.0455,0.22611 c -0.0461,0.15593 -0.11938,0.28179 -0.21955,0.37644 a 0.80488271,0.80488271 0 0 1 -0.38725,0.19797 1.3756703,1.3756703 0 0 1 -0.19143,0.0334 1.82074,1.82074 0 0 1 -0.1988,0.0105 c -0.06,0 -0.11991,-0.003 -0.17913,-0.0105 a 1.7629388,1.7629388 0 0 1 -0.17641,-0.0316 0.8142754,0.8142754 0 0 1 -0.38438,-0.19798 0.83522838,0.83522838 0 0 1 -0.21956,-0.37644 1.6560064,1.6560064 0 0 1 -0.0607,-0.45954 c 0,-0.0808 0.005,-0.16192 0.0132,-0.24138 a 1.228277,1.228277 0 0 1 0.0461,-0.21902 z m 0.45085,0.14747 a 1.0765487,1.0765487 0 0 0 -0.029,0.15757 1.4616497,1.4616497 0 0 0 0.001,0.31862 c 0.005,0.0528 0.0165,0.1049 0.0275,0.15456 a 0.61702856,0.61702856 0 0 0 0.10543,0.2313 0.42628437,0.42628437 0 0 0 0.20672,0.14438 0.59968818,0.59968818 0 0 0 0.1049,0.0246 0.6184736,0.6184736 0 0 0 0.219,0 0.64448417,0.64448417 0 0 0 0.10398,-0.0246 c 0.0887,-0.0312 0.1581,-0.0786 0.20808,-0.14438 0.0499,-0.0657 0.0846,-0.14234 0.10491,-0.2313 a 1.3099213,1.3099213 0 0 0 0,-0.62786 0.5866829,0.5866829 0 0 0 -0.10491,-0.23185 0.40605392,0.40605392 0 0 0 -0.20808,-0.14306 0.71023313,0.71023313 0 0 0 -0.32296,-0.0273 0.60041073,0.60041073 0 0 0 -0.10491,0.0273 0.41400162,0.41400162 0 0 0 -0.20507,0.14452 0.67627488,0.67627488 0 0 0 -0.10635,0.23049 v -0.003 z m 2.09311,-0.7254 0.47976,1.59531 0.4046,-1.59531 h 0.51445 l 0.466,1.59531 0.44724,-1.59531 h 0.44795 l -0.64159,2.07506 h -0.53464 l -0.44145,-1.54907 -0.38731,1.54907 h -0.53175 l -0.68783,-2.07506 z m 3.45869,0.48914 c -0.0787,0.0838 -0.12281,0.20317 -0.13297,0.35693 l 1.20802,-0.003 v 0.36125 h -1.21092 c 0,0.0737 0.009,0.14364 0.0246,0.2111 a 0.41183406,0.41183406 0 0 0 0.0998,0.18486 0.27816861,0.27816861 0 0 0 0.15756,0.0969 c 0.0607,0.0132 0.12281,0.0191 0.18651,0.0191 h 0.0274 l 0.71674,-0.003 v 0.36124 h -0.73698 a 1.8062898,1.8062898 0 0 1 -0.3403,-0.0316 0.7586417,0.7586417 0 0 1 -0.55057,-0.49276 1.4002358,1.4002358 0 0 1 -0.0752,-0.41761 c -10e-4,-0.0312 -0.003,-0.0607 -10e-4,-0.0896 l 0.005,-0.0866 c 0.0218,-0.32728 0.10977,-0.5686 0.26734,-0.7225 0.15675,-0.15457 0.39232,-0.2313 0.7066,-0.2313 l 0.72542,-0.003 v 0.36124 h -0.71673 c -0.15974,0.003 -0.27962,0.0455 -0.35839,0.1286 z m 2.53169,-0.48914 a 0.60546832,0.60546832 0 0 0 0.0623,0.003 c 0.0191,0 0.0413,0.001 0.0623,0.003 0.0786,0.005 0.15674,0.0165 0.23185,0.0382 a 0.45590754,0.45590754 0 0 1 0.20098,0.11767 0.48336315,0.48336315 0 0 1 0.11715,0.17616 0.74419137,0.74419137 0 0 1 0.0492,0.2493 l 10e-4,0.0404 a 0.65532192,0.65532192 0 0 1 -0.10043,0.3743 0.49853597,0.49853597 0 0 1 -0.31863,0.20945 l 0.51733,0.86411 h -0.49131 l -0.45734,-0.815 h -0.51444 v 0.815 h -0.43641 v -2.07508 h 1.0759 z m -0.10398,0.3692 h -0.53466 v 0.52382 h 0.53466 c 0.005,0.001 0.009,0.003 0.0105,0.003 h 0.0105 c 0.0925,0 0.17612,-0.0132 0.25287,-0.0426 0.0758,-0.0275 0.11333,-0.10188 0.11149,-0.22119 0,-0.12347 -0.0404,-0.19716 -0.11991,-0.22257 a 0.88146938,0.88146938 0 0 0 -0.26734,-0.0382 v -0.001 z"
       fill="#707175"
       id="path24"
       style="stroke-width:0.722514" /><path
       d="M 77.17881,194.66338 H 58.448311 c -2.171883,0 -3.948551,-1.77666 -3.948551,-3.94855 v -18.73052 c 0,-2.17185 1.776668,-3.94854 3.948551,-3.94854 H 77.17881 c 2.171884,0 3.94855,1.77669 3.94855,3.94854 v 18.73052 c -7.2e-4,2.17189 -1.777388,3.94855 -3.94855,3.94855 z m -39.9992,-16.40834 c 0.07514,-0.22748 0.185693,-0.41328 0.331635,-0.55706 0.145961,-0.14364 0.337414,-0.24495 0.574399,-0.30563 0.0867,-0.0191 0.176298,-0.0361 0.268762,-0.0478 0.09248,-0.0105 0.184956,-0.0165 0.277446,-0.0165 a 2.0859034,2.0859034 0 0 1 0.589573,0.0694 c 0.231215,0.0578 0.420506,0.15894 0.567899,0.30347 0.147406,0.14438 0.255765,0.33092 0.325132,0.55922 a 2.6444082,2.6444082 0 0 1 0.06937,1.03972 c -0.01528,0.11846 -0.03758,0.23128 -0.06937,0.33811 -0.07006,0.23403 -0.179193,0.42269 -0.329469,0.56573 -0.150273,0.14306 -0.344638,0.24195 -0.581623,0.29698 -0.09248,0.0219 -0.18785,0.0395 -0.286116,0.0496 a 2.9189643,2.9189643 0 0 1 -0.299123,0.0165 2.2369093,2.2369093 0 0 1 -0.533215,-0.0644 c -0.234082,-0.0549 -0.426288,-0.15401 -0.57657,-0.29694 -0.150274,-0.14306 -0.260106,-0.33165 -0.329466,-0.56573 a 2.3265011,2.3265011 0 0 1 -0.06721,-0.32947 c -0.01585,-0.11846 -0.02375,-0.2384 -0.02375,-0.35981 0,-0.12149 0.007,-0.24194 0.02157,-0.36198 0.01449,-0.11938 0.03758,-0.2283 0.06937,-0.32658 v -0.005 z m 0.676996,0.22119 a 1.6393886,1.6393886 0 0 0 -0.04408,0.2362 2.1639351,2.1639351 0 0 0 -0.01318,0.23567 c 0,0.0808 0.0051,0.16193 0.01528,0.24058 0.01093,0.0795 0.02374,0.15758 0.04192,0.23184 0.03179,0.13354 0.0838,0.2485 0.158221,0.34683 a 0.64087159,0.64087159 0 0 0 0.309959,0.21681 0.96672629,0.96672629 0 0 0 0.321521,0.0526 1.0555957,1.0555957 0 0 0 0.320798,-0.0526 0.65170934,0.65170934 0 0 0 0.312848,-0.21681 c 0.07514,-0.0988 0.127175,-0.21384 0.156063,-0.34683 0.0172,-0.0752 0.03108,-0.15237 0.04117,-0.23184 a 1.770164,1.770164 0 0 0 0,-0.47614 2.1249193,2.1249193 0 0 0 -0.04117,-0.23184 0.88363694,0.88363694 0 0 0 -0.156063,-0.34897 0.62136365,0.62136365 0 0 0 -0.312848,-0.21462 1.0483706,1.0483706 0 0 0 -0.486256,-0.0391 c -0.05418,0.009 -0.106207,0.0219 -0.156063,0.0391 a 0.62353121,0.62353121 0 0 0 -0.30779,0.21681 c -0.07226,0.0988 -0.125727,0.21465 -0.160405,0.34682 z m 3.615471,-1.0881 1.274516,2.23691 -0.03034,-2.23691 h 0.667605 v 3.11261 h -0.758643 l -1.339543,-2.35398 0.03034,2.35398 h -0.672661 v -3.11261 z m -4.292467,9.5372 c 0.07514,-0.22747 0.185693,-0.41327 0.331635,-0.55704 0.145961,-0.14394 0.337414,-0.24495 0.574399,-0.30563 0.0867,-0.0192 0.176298,-0.0361 0.268762,-0.0478 0.09248,-0.0105 0.184956,-0.0165 0.277446,-0.0165 a 2.0859034,2.0859034 0 0 1 0.589573,0.0694 c 0.231215,0.0578 0.420506,0.15894 0.567899,0.30349 0.147406,0.14437 0.255765,0.33091 0.325132,0.5592 a 2.6444082,2.6444082 0 0 1 0.06937,1.03972 c -0.01528,0.11846 -0.03758,0.23128 -0.06937,0.33812 -0.07006,0.23402 -0.179193,0.4227 -0.329469,0.56573 -0.150273,0.14306 -0.344638,0.24194 -0.581623,0.29697 -0.09248,0.0219 -0.18785,0.0395 -0.286116,0.0496 a 2.9189643,2.9189643 0 0 1 -0.299123,0.0165 2.2369093,2.2369093 0 0 1 -0.533215,-0.0644 c -0.234082,-0.0549 -0.426288,-0.15401 -0.57657,-0.29694 -0.150274,-0.14306 -0.260106,-0.33165 -0.329466,-0.56573 a 2.3265011,2.3265011 0 0 1 -0.06721,-0.32947 c -0.01585,-0.11846 -0.02375,-0.23839 -0.02375,-0.3598 0,-0.12149 0.007,-0.24195 0.02157,-0.36199 0.01449,-0.11938 0.03758,-0.2283 0.06937,-0.32658 v -0.005 z m 0.676996,0.22119 a 1.6393886,1.6393886 0 0 0 -0.04408,0.23621 2.1639351,2.1639351 0 0 0 -0.01318,0.23566 c 0,0.0808 0.0051,0.16194 0.01528,0.2406 0.01093,0.0795 0.02374,0.15756 0.04192,0.23184 0.03179,0.13383 0.0838,0.2485 0.158221,0.3468 a 0.64087159,0.64087159 0 0 0 0.309959,0.21684 0.96672629,0.96672629 0 0 0 0.321521,0.0526 1.0555957,1.0555957 0 0 0 0.320798,-0.0526 0.65170934,0.65170934 0 0 0 0.312848,-0.21684 c 0.07514,-0.0988 0.127175,-0.21382 0.156063,-0.3468 0.0172,-0.0752 0.03108,-0.15238 0.04117,-0.23184 a 1.770164,1.770164 0 0 0 0,-0.47614 2.1249193,2.1249193 0 0 0 -0.04117,-0.23184 0.88363694,0.88363694 0 0 0 -0.156063,-0.34897 0.62136365,0.62136365 0 0 0 -0.312848,-0.21464 1.0483706,1.0483706 0 0 0 -0.486256,-0.0391 c -0.05418,0.009 -0.106207,0.0219 -0.156063,0.0391 a 0.62353121,0.62353121 0 0 0 -0.30779,0.21682 c -0.07226,0.0988 -0.125727,0.21464 -0.160405,0.34682 z m 3.049018,-0.69361 c 0.189298,-0.25997 0.604744,-0.39015 1.247063,-0.39015 l 0.997073,-0.005 v 0.54191 h -1.053431 c -0.275277,0.005 -0.476137,0.065 -0.604745,0.17775 -0.129319,0.11201 -0.200138,0.30779 -0.215321,0.58524 l 1.873485,-0.005 v 0.53755 h -1.873485 v 1.27454 h -0.653877 v -1.4306 c 0,-0.59823 0.09465,-1.02743 0.283227,-1.28753 z m 2.939918,0 c 0.189297,-0.25997 0.604746,-0.39015 1.24634,-0.39015 l 0.997072,-0.005 v 0.54191 h -1.05343 c -0.274554,0.005 -0.476136,0.065 -0.604745,0.17775 -0.128622,0.11201 -0.200137,0.30779 -0.214584,0.58524 l 1.872761,-0.005 v 0.53755 h -1.872761 v 1.27454 h -0.6546 v -1.4306 c -7.22e-4,-0.59823 0.09394,-1.02743 0.28395,-1.28753 z"
       fill="#505656"
       id="path25"
       style="stroke-width:0.722514" /><path
       d="M 80.232166,180.53097 H 55.275743 a 0.83811843,0.83811843 0 0 1 -0.835227,-0.83524 v -1.54401 c 0,-0.45952 0.375708,-0.83524 0.835227,-0.83524 h 24.956423 c 0.459519,0 0.835227,0.37572 0.835227,0.83524 v 1.54401 a 0.83811843,0.83811843 0 0 1 -0.835227,0.83524 z"
       fill="#494747"
       id="path26"
       style="stroke-width:0.722514" /><path
       d="m 55.282246,177.31576 c -0.434231,0 -0.782486,0.3562 -0.825114,0.80344 0.04263,0.44726 0.390883,0.80344 0.825114,0.80344 h 24.944139 c 0.434233,0 0.782484,-0.35618 0.825111,-0.80344 -0.04262,-0.44724 -0.390878,-0.80344 -0.825111,-0.80344 z"
       fill="#666666"
       id="path27"
       style="stroke-width:0.722514" /><path
       d="m 59.031699,157.6415 a 0.01806289,0.01806289 0 0 0 0.0132,0.005 h 0.20586 c 0.0636,0 0.12787,0.003 0.19219,0.0105 0.11414,0.009 0.22832,0.0219 0.34175,0.0478 0.11345,0.0246 0.21819,0.0663 0.31646,0.12412 0.17846,0.1049 0.30563,0.24793 0.38149,0.42989 0.0751,0.18214 0.11559,0.37284 0.11849,0.57153 0.004,0.18213 -0.0274,0.35691 -0.0932,0.52596 -0.0658,0.16904 -0.17485,0.30925 -0.32658,0.41981 a 1.0548732,1.0548732 0 0 1 -0.41689,0.17996 3.3163479,3.3163479 0 0 1 -0.45808,0.0528 h -0.24277 l -0.92482,-0.005 v 1.26944 h -0.76442 v -3.63135 h 1.65745 z m -0.0101,0.64738 h -0.88508 v 1.0715 h 0.92988 c 0.18569,0 0.34608,-0.0361 0.48047,-0.10832 0.13513,-0.0724 0.2023,-0.21302 0.2023,-0.42197 0.007,-0.23266 -0.065,-0.38005 -0.21459,-0.44217 a 1.3207591,1.3207591 0 0 0 -0.51371,-0.094 v -0.005 z m 1.97247,0.36416 c 0.0881,-0.26597 0.21674,-0.48337 0.38727,-0.64955 0.1698,-0.16684 0.39377,-0.28612 0.66977,-0.3562 a 2.8785034,2.8785034 0 0 1 0.63798,-0.0758 2.3626269,2.3626269 0 0 1 0.68711,0.0808 c 0.27022,0.0673 0.49131,0.18569 0.66255,0.35331 0.17196,0.16821 0.2984,0.38655 0.37932,0.65243 a 3.0381794,3.0381794 0 0 1 0.10621,0.789 c 0,0.14526 -0.009,0.28685 -0.0254,0.42483 a 2.4225959,2.4225959 0 0 1 -0.0809,0.39522 c -0.0809,0.27311 -0.20879,0.49275 -0.38438,0.65966 -0.17485,0.16684 -0.401,0.28249 -0.67772,0.34609 a 2.3843025,2.3843025 0 0 1 -0.3338,0.0578 3.2802222,3.2802222 0 0 1 -0.34898,0.0191 c -0.10476,0 -0.20879,-0.009 -0.31357,-0.0191 a 3.3307984,3.3307984 0 0 1 -0.30924,-0.0557 c -0.27311,-0.0644 -0.49709,-0.17915 -0.67266,-0.3461 -0.17556,-0.16686 -0.30346,-0.38655 -0.38438,-0.65966 -0.034,-0.11846 -0.06,-0.2463 -0.078,-0.38437 -0.018,-0.13793 -0.0274,-0.27819 -0.0274,-0.41978 0,-0.14173 0.009,-0.28253 0.0254,-0.42267 0.0159,-0.13954 0.0441,-0.26652 0.0802,-0.38148 v -0.005 z m 0.78899,0.2586 a 1.8062898,1.8062898 0 0 0 -0.0506,0.27528 2.4254858,2.4254858 0 0 0 0.0506,0.82727 c 0.0368,0.15537 0.0983,0.28972 0.18424,0.40534 0.086,0.11411 0.20664,0.19879 0.36198,0.25286 0.0571,0.0191 0.11778,0.0354 0.18209,0.0455 a 1.2239419,1.2239419 0 0 0 0.56717,-0.0455 c 0.15462,-0.0536 0.276,-0.13793 0.36415,-0.25286 a 1.0187474,1.0187474 0 0 0 0.18206,-0.40534 c 0.0194,-0.0874 0.0361,-0.17778 0.0477,-0.27035 a 2.2759251,2.2759251 0 0 0 -0.0477,-0.82729 1.0339203,1.0339203 0 0 0 -0.18206,-0.40676 0.73046357,0.73046357 0 0 0 -0.36415,-0.25069 1.2239419,1.2239419 0 0 0 -0.56717,-0.0455 1.0823288,1.0823288 0 0 0 -0.18209,0.0455 0.71962584,0.71962584 0 0 0 -0.35909,0.25287 1.1755334,1.1755334 0 0 0 -0.18714,0.40534 z m 3.66171,-1.27019 0.83956,2.79181 0.70807,-2.79181 h 0.90025 l 0.81428,2.79181 0.78393,-2.79181 h 0.78393 l -1.12352,3.63138 h -0.93565 l -0.77309,-2.7109 -0.67772,2.7109 h -0.93061 l -1.20371,-3.63138 z m 6.05396,0.85692 c -0.13801,0.14663 -0.21603,0.35475 -0.23266,0.62496 l 2.1148,-0.005 v 0.6322 h -2.11986 c 0,0.1286 0.0145,0.25151 0.0433,0.3699 0.0289,0.11767 0.0867,0.22612 0.17411,0.32299 a 0.48553068,0.48553068 0 0 0 0.27601,0.16984 c 0.1062,0.0219 0.21532,0.0325 0.32585,0.0325 h 0.0455 l 1.25429,-0.005 v 0.6322 h -1.28969 a 3.0634674,3.0634674 0 0 1 -0.59463,-0.0557 1.2318896,1.2318896 0 0 1 -0.53828,-0.25725 c -0.20229,-0.16548 -0.34392,-0.36704 -0.42484,-0.60475 -0.0809,-0.23785 -0.12499,-0.48118 -0.1315,-0.7312 -0.004,-0.0536 -0.004,-0.10543 -0.003,-0.15673 0.001,-0.0515 0.004,-0.10109 0.008,-0.15184 0.0368,-0.57296 0.1929,-0.99491 0.46747,-1.2644 0.27455,-0.26953 0.68639,-0.40461 1.23622,-0.40461 l 1.27018,-0.005 v 0.63219 h -1.25421 c -0.28034,0.005 -0.48915,0.0795 -0.62715,0.22611 z m 4.42974,-0.85692 c 0.0376,0.003 0.0737,0.005 0.1084,0.005 0.0347,0 0.0723,0.001 0.10839,0.005 0.13798,0.005 0.27456,0.0282 0.40677,0.0659 0.13368,0.0377 0.25071,0.10543 0.35187,0.20726 0.0911,0.0874 0.15896,0.19089 0.20448,0.30852 a 1.2694604,1.2694604 0 0 1 0.086,0.43496 c 0.001,0.0246 0.002,0.047 0.002,0.0716 0.004,0.25286 -0.0542,0.47109 -0.17414,0.65462 -0.11994,0.18433 -0.30635,0.30633 -0.55851,0.36701 l 0.90532,1.51224 h -0.85979 l -0.79838,-1.42512 h -0.90025 v 1.42626 h -0.7637 v -3.63137 h 1.88143 z m -0.18208,0.64739 h -0.93567 v 0.91544 h 0.93566 a 0.04335095,0.04335095 0 0 0 0.0202,0.005 h 0.0194 c 0.16256,0 0.30996,-0.0246 0.44291,-0.0729 0.13292,-0.0492 0.19724,-0.17777 0.19508,-0.38725 0,-0.216 -0.0708,-0.3461 -0.21024,-0.38943 -0.13943,-0.0434 -0.29551,-0.0659 -0.46747,-0.0659 z"
       fill="#dcdbe1"
       id="path28"
       style="stroke-width:0.722514" /><circle
       cx="49.973198"
       cy="178.95082"
       r="0.95877862"
       fill="#505656"
       id="circle28"
       style="stroke-width:0.722514" /><circle
       cx="49.973198"
       cy="187.62103"
       r="0.95877862"
       fill="#505656"
       id="circle29"
       style="stroke-width:0.722514" /><path
       style="fill:#292a2d;fill-opacity:1;stroke-width:0.358289"
       id="path40"
       sodipodi:type="arc"
       sodipodi:cx="170.28871"
       sodipodi:cy="233.29459"
       sodipodi:rx="16.466461"
       sodipodi:ry="16.466461"
       sodipodi:start="3.1415927"
       sodipodi:end="3.1415732"
       sodipodi:arc-type="slice"
       d="m 153.82225,233.29459 a 16.466461,16.466461 0 0 1 16.46638,-16.46646 16.466461,16.466461 0 0 1 16.46654,16.4663 16.466461,16.466461 0 0 1 -16.46622,16.46662 16.466461,16.466461 0 0 1 -16.4667,-16.46614 l 16.46646,-3.2e-4 z" /><path
       style="fill:#323335;fill-opacity:1;stroke-width:0.12511"
       d="m 167.5713,240.54048 c -1.7564,-0.30285 -2.58834,-0.62997 -3.83363,-1.50734 -2.44982,-1.72607 -3.84686,-4.90335 -3.43514,-7.81238 0.60569,-4.2795 3.99724,-7.25939 8.24445,-7.24377 2.55443,0.009 4.45562,0.85433 6.18453,2.74866 1.45883,1.59839 2.11137,3.31777 2.11261,5.56659 5.8e-4,1.22548 -0.048,1.53373 -0.44452,2.81494 -0.34685,1.12076 -0.44535,1.65171 -0.44566,2.40223 -3.2e-4,0.86908 0.22679,2.13605 0.44671,2.4919 0.058,0.0937 -0.009,0.10695 -0.21249,0.0421 -1.82692,-0.58362 -3.32155,-0.56495 -4.80106,0.0599 -0.79646,0.33645 -2.9614,0.58442 -3.8158,0.4371 z"
       id="path49" /><path
       style="fill:#323335;fill-opacity:1;stroke-width:0.12511"
       d="m 173.28145,222.37739 c -0.1625,-0.24582 -0.22785,-0.58343 -0.22887,-1.18245 -7.6e-4,-0.74961 0.0389,-0.88842 0.381,-1.31086 0.58786,-0.72629 1.42369,-0.80768 2.12307,-0.2067 0.32395,0.27836 0.36309,0.39105 0.36309,1.04553 0,0.66816 -0.0389,0.77413 -0.43788,1.18904 -0.85895,0.89354 -1.78755,1.08993 -2.20041,0.46544 z"
       id="path50" /><path
       style="fill:#323335;fill-opacity:1;stroke-width:0.12511"
       d="m 176.43284,224.00378 c 0.1162,-0.62994 0.71821,-2.48698 0.98762,-3.04665 0.56573,-1.17513 2.29011,-1.14606 2.85682,0.0482 0.25965,0.54717 0.26075,0.72316 0.008,1.25348 -0.23723,0.49745 -1.04127,1.05201 -2.50749,1.72939 -1.34644,0.62207 -1.45695,0.62334 -1.34483,0.0157 z"
       id="path51" /><path
       style="fill:#323335;fill-opacity:1;stroke-width:0.12511"
       d="m 178.7219,227.81553 c -0.26725,-0.17952 -0.49068,-0.47379 -0.60172,-0.7924 -0.16041,-0.46023 -0.15465,-0.55184 0.0626,-0.99678 0.1598,-0.32739 0.40176,-0.56933 0.72915,-0.72915 0.44495,-0.21721 0.53656,-0.22296 0.99679,-0.0626 0.86049,0.29989 1.32156,1.30178 0.93311,2.02764 -0.45197,0.84448 -1.34096,1.0765 -2.11988,0.55326 z"
       id="path52" /><path
       style="fill:#323335;fill-opacity:1;stroke-width:0.12511"
       d="m 176.17261,245.74974 c -0.0422,-0.13303 0.0431,-0.71009 0.1898,-1.28236 0.14661,-0.57225 0.32897,-1.28572 0.40523,-1.58549 l 0.13866,-0.54499 0.75781,0.0785 c 0.41679,0.0431 1.13909,0.0734 1.60512,0.0675 1.0748,-0.0141 1.65085,0.29493 1.8367,0.98509 0.13639,0.5065 -0.0357,1.38244 -0.41579,2.1172 -0.18887,0.36506 -0.26648,0.40661 -0.75972,0.40661 -0.32212,0 -0.57047,-0.0634 -0.6004,-0.15319 -0.0279,-0.0842 0.0827,-0.54807 0.24586,-1.03076 0.45117,-1.33358 0.22179,-1.70929 -0.90042,-1.47483 -0.55121,0.11517 -0.60502,0.21147 -1.01367,1.81429 l -0.21532,0.84449 h -0.59855 c -0.4818,0 -0.61352,-0.0472 -0.67531,-0.24187 z"
       id="path53" /><path
       style="fill:#323335;fill-opacity:1;stroke-width:0.12511"
       d="m 172.20133,245.89609 c -0.11847,-0.0512 -0.41404,-0.28028 -0.65684,-0.50928 -0.3772,-0.35578 -0.44144,-0.49774 -0.44144,-0.97543 0,-0.71382 0.25871,-1.20898 0.83696,-1.6019 0.41738,-0.28364 0.56439,-0.30942 1.62507,-0.2851 0.64139,0.0148 1.16616,-0.0154 1.16614,-0.0671 0,-0.12505 1.14586,-0.11708 1.34497,0.009 0.12213,0.0777 0.096,0.31741 -0.11853,1.09279 -0.15124,0.54639 -0.28577,1.19049 -0.2989,1.43133 -0.0131,0.24083 -0.0303,0.53193 -0.0378,0.64688 -0.0209,0.31513 -0.66914,0.40977 -1.13975,0.1664 -0.29669,-0.15343 -0.43524,-0.16877 -0.56349,-0.0624 -0.20843,0.17299 -1.42041,0.28199 -1.71632,0.15438 z m 1.65283,-0.98702 c 0.22172,-0.13096 0.37611,-0.34889 0.42103,-0.59428 0.0389,-0.2131 0.10784,-0.51411 0.15297,-0.66895 0.0741,-0.25429 0.0393,-0.2815 -0.36024,-0.2815 -0.64604,0 -0.82101,0.10178 -1.09355,0.63601 -0.2835,0.55564 -0.30324,0.75691 -0.0948,0.9654 0.20809,0.20806 0.56112,0.18756 0.97456,-0.0568 z"
       id="path54" /><path
       style="fill:#323335;fill-opacity:1;stroke-width:0.12511"
       d="m 168.09648,245.78996 c -0.33401,-0.0974 -0.74075,-0.34726 -0.99907,-0.61379 -0.37617,-0.38813 -0.43569,-0.53264 -0.43569,-1.05797 0,-0.52091 0.0539,-0.65481 0.37516,-0.93081 0.64312,-0.55262 1.05857,-0.68896 2.0019,-0.65697 0.61403,0.0208 1.05508,0.11663 1.4758,0.32064 0.77607,0.37635 0.70604,0.57012 -0.19102,0.52858 -1.15036,-0.0533 -1.84889,0.5017 -1.64648,1.30812 0.0966,0.38501 0.55679,0.51122 1.21929,0.33438 0.60538,-0.16159 0.85697,-0.0823 0.80671,0.25412 -0.0722,0.48307 -1.64715,0.79348 -2.6066,0.5137 z"
       id="path55" /><path
       style="fill:#323335;fill-opacity:1;stroke-width:0.12511"
       d="m 166.70227,242.50872 c -0.0911,-0.11423 -0.23652,-0.33448 -0.32311,-0.48929 -0.13986,-0.25004 -0.12986,-0.2815 0.0896,-0.2815 0.267,0 1.1318,0.37662 1.1305,0.49234 -4.8e-4,0.0388 -0.16516,0.16416 -0.36605,0.27845 -0.34036,0.19362 -0.37648,0.19362 -0.53091,0 z"
       id="path56" /><path
       style="fill:#323335;fill-opacity:1;stroke-width:0.12511"
       d="m 159.86776,245.83347 c -0.10277,-0.12394 -0.0822,-0.25118 0.081,-0.50014 0.77173,-1.17642 2.49888,-2.94377 3.19627,-3.27065 0.72731,-0.34089 1.37295,-0.38904 2.00098,-0.14919 0.30066,0.11481 0.63473,0.3061 0.74237,0.42507 0.32041,0.35403 0.45487,1.22189 0.3214,2.07438 -0.19349,1.23603 -0.3386,1.57869 -0.66852,1.57869 -0.34235,0 -0.62493,-0.29837 -0.52622,-0.55558 0.0563,-0.14666 -0.0833,-0.19089 -0.69545,-0.22053 -0.50674,-0.0246 -0.78478,-0.0945 -0.82183,-0.20656 -0.0437,-0.13238 0.0773,-0.15578 0.55306,-0.10695 0.33498,0.0342 0.71816,0.0826 0.85152,0.10684 0.1906,0.0351 0.26705,-0.0568 0.35733,-0.42822 0.0632,-0.25999 0.0772,-0.67337 0.0312,-0.91863 -0.0766,-0.40881 -0.1117,-0.43909 -0.41986,-0.36354 -0.38373,0.0942 -1.28558,0.92645 -1.54065,1.42197 -0.0943,0.18309 -0.1996,0.36104 -0.23411,0.39543 -0.0344,0.0344 -0.15758,0.23145 -0.27348,0.4379 l -0.21077,0.37531 -1.30316,0.0354 c -0.96617,0.0261 -1.33882,-0.008 -1.44112,-0.13091 z"
       id="path57" /></g></svg>
