<svg enable-background="new 0 0 335.819 239.667" viewBox="0 0 335.819 239.667" xmlns="http://www.w3.org/2000/svg" xmlns:xlink="http://www.w3.org/1999/xlink"><linearGradient id="a" gradientUnits="userSpaceOnUse" x1="17.2978" x2="25.4383" y1="66.1883" y2="58.0478"><stop offset="0" stop-color="#992924"/><stop offset="1" stop-color="#bd2929"/></linearGradient><path d="m251.03 239.667h-244.393c-1.64 0-2.97-1.33-2.97-2.97v-7.238h250.333v7.238c0 1.64-1.33 2.97-2.97 2.97z" fill="#c6c4af"/><path d="m3.667 226.167h250.333v3.292h-250.333z" fill="#a5a292"/><path d="m3.667 224.542h250.333v1.625h-250.333z" fill="#777862"/><path d="m254 224.542h-250.333l-1.236-75.917h252.805z" fill="#b9b5a4"/><path d="m255.236 147.917h-252.805l-.528-3.695h253.861z" fill="#a5a292"/><path d="m1.903 85.889h253.861v58.333h-253.861z" fill="#bdb9a6"/><path d="m164.565 111.083h-70.903l1.235 1.125h68.434z" fill="#5f5a47"/><path d="m93.662 118.75v-7.667l1.235 1.125v5.417z" fill="#585d57"/><path d="m164.565 118.75v-7.667l-1.234 1.125v5.417z" fill="#4d4939"/><path d="m93.662 118.75h70.903l-1.234-1.125h-68.434z" fill="#312e1b"/><path d="m1.903 112.208h10.576l1.965-1.125h-12.541z" fill="#5f5a47"/><path d="m14.444 118.75v-7.667l-1.965 1.125v5.417z" fill="#4d4939"/><path d="m1.903 118.75h12.541l-1.965-1.125h-10.576z" fill="#312e1b"/><path d="m255.764 112.208h-10.577l-1.965-1.125h12.542z" fill="#5f5a47"/><path d="m243.222 118.75v-7.667l1.965 1.125v5.417z" fill="#585d57"/><path d="m255.764 118.75h-12.542l1.965-1.125h10.577z" fill="#312e1b"/><path d="m94.897 112.208h68.434v5.417h-68.434z" fill="#c5c4af"/><path d="m1.903 112.208h10.576v5.417h-10.576z" fill="#c5c4af"/><path d="m245.187 112.208h10.576v5.417h-10.576z" fill="#c5c4af"/><path d="m164.565 111.083h78.657v.917h-78.657z" fill="#5f5a47"/><path d="m14.444 111.083h79.218v.917h-79.218z" fill="#5f5a47"/><path d="m164.565 117.833h78.657v.917h-78.657z" fill="#312e1b"/><path d="m14.444 117.833h79.218v.917h-79.218z" fill="#312e1b"/><path d="m2.431 147.917h252.806v.708h-252.806z" fill="#777862"/><path d="m207.639 149.917h-157.611c-3.283 0-5.944 2.661-5.944 5.944v61.444c0 3.283 2.661 5.944 5.944 5.944h157.611c3.283 0 5.944-2.661 5.944-5.944v-61.444c0-3.283-2.661-5.944-5.944-5.944zm4.944 67.388c0 2.727-2.218 4.945-4.944 4.945h-157.611c-2.726 0-4.944-2.218-4.944-4.945v-61.444c0-2.727 2.218-4.944 4.944-4.944h157.611c2.727 0 4.944 2.218 4.944 4.944z" fill="#2a2a1e"/><path d="m50.028 222.25c-2.726 0-4.944-2.218-4.944-4.945v-61.444c0-2.727 2.218-4.944 4.944-4.944h157.611c2.727 0 4.944 2.218 4.944 4.944v61.444c0 2.727-2.218 4.945-4.944 4.945z" fill="#191e18"/><path d="m45.502 157.639v-1.567c0-2.618 2.207-4.747 4.92-4.747h2.801v5.306c0 .557-.452 1.009-1.009 1.009h-6.712z" fill="#b5b2a3"/><path d="m212.165 157.639v-1.567c0-2.618-2.207-4.747-4.92-4.747h-2.801v5.301c0 .56.454 1.014 1.014 1.014h6.707z" fill="#b5b2a3"/><path d="m64.653 159.417h-4.507c-1.645 0-2.979-1.334-2.979-2.979 0-1.645 1.334-2.979 2.979-2.979h4.507c1.645 0 2.979 1.334 2.979 2.979 0 1.645-1.334 2.979-2.979 2.979z" fill="#dbdfd9"/><path d="m76.637 159.417h-4.507c-1.645 0-2.979-1.334-2.979-2.979 0-1.645 1.334-2.979 2.979-2.979h4.507c1.645 0 2.979 1.334 2.979 2.979 0 1.645-1.334 2.979-2.979 2.979z" fill="#dbdfd9"/><path d="m88.621 159.417h-4.507c-1.645 0-2.979-1.334-2.979-2.979 0-1.645 1.334-2.979 2.979-2.979h4.507c1.645 0 2.979 1.334 2.979 2.979 0 1.645-1.334 2.979-2.979 2.979z" fill="#dbdfd9"/><path d="m100.605 159.417h-4.507c-1.645 0-2.979-1.334-2.979-2.979 0-1.645 1.334-2.979 2.979-2.979h4.507c1.645 0 2.979 1.334 2.979 2.979.001 1.645-1.333 2.979-2.979 2.979z" fill="#dbdfd9"/><path d="m112.59 159.417h-4.507c-1.645 0-2.979-1.334-2.979-2.979 0-1.645 1.334-2.979 2.979-2.979h4.507c1.645 0 2.979 1.334 2.979 2.979 0 1.645-1.334 2.979-2.979 2.979z" fill="#dbdfd9"/><path d="m124.574 159.417h-4.507c-1.645 0-2.979-1.334-2.979-2.979 0-1.645 1.334-2.979 2.979-2.979h4.507c1.645 0 2.979 1.334 2.979 2.979 0 1.645-1.334 2.979-2.979 2.979z" fill="#dbdfd9"/><path d="m136.558 159.417h-4.507c-1.645 0-2.979-1.334-2.979-2.979 0-1.645 1.334-2.979 2.979-2.979h4.507c1.645 0 2.979 1.334 2.979 2.979 0 1.645-1.334 2.979-2.979 2.979z" fill="#dbdfd9"/><path d="m148.542 159.417h-4.507c-1.645 0-2.979-1.334-2.979-2.979 0-1.645 1.334-2.979 2.979-2.979h4.507c1.645 0 2.979 1.334 2.979 2.979 0 1.645-1.333 2.979-2.979 2.979z" fill="#dbdfd9"/><path d="m160.526 159.417h-4.507c-1.645 0-2.979-1.334-2.979-2.979 0-1.645 1.334-2.979 2.979-2.979h4.507c1.645 0 2.979 1.334 2.979 2.979.001 1.645-1.333 2.979-2.979 2.979z" fill="#dbdfd9"/><path d="m172.511 159.417h-4.507c-1.645 0-2.979-1.334-2.979-2.979 0-1.645 1.334-2.979 2.979-2.979h4.507c1.645 0 2.979 1.334 2.979 2.979 0 1.645-1.334 2.979-2.979 2.979z" fill="#dbdfd9"/><path d="m184.495 159.417h-4.507c-1.645 0-2.979-1.334-2.979-2.979 0-1.645 1.334-2.979 2.979-2.979h4.507c1.645 0 2.979 1.334 2.979 2.979 0 1.645-1.334 2.979-2.979 2.979z" fill="#dbdfd9"/><path d="m196.479 159.417h-4.507c-1.645 0-2.979-1.334-2.979-2.979 0-1.645 1.334-2.979 2.979-2.979h4.507c1.645 0 2.979 1.334 2.979 2.979 0 1.645-1.333 2.979-2.979 2.979z" fill="#dbdfd9"/><path d="m79.765 170.444h-5.032c-1.644 0-2.977-1.333-2.977-2.977v-.004c0-1.644 1.333-2.977 2.977-2.977h5.032c1.644 0 2.977 1.333 2.977 2.977v.004c0 1.645-1.333 2.977-2.977 2.977z" fill="#dbdfd9"/><path d="m65.176 170.444h-5.032c-1.644 0-2.977-1.333-2.977-2.977v-.004c0-1.644 1.333-2.977 2.977-2.977h5.032c1.644 0 2.977 1.333 2.977 2.977v.004c0 1.645-1.333 2.977-2.977 2.977z" fill="#dbdfd9"/><path d="m94.355 170.444h-5.032c-1.644 0-2.977-1.333-2.977-2.977v-.004c0-1.644 1.333-2.977 2.977-2.977h5.032c1.644 0 2.977 1.333 2.977 2.977v.004c0 1.645-1.333 2.977-2.977 2.977z" fill="#dbdfd9"/><path d="m108.944 170.444h-5.032c-1.644 0-2.977-1.333-2.977-2.977v-.004c0-1.644 1.333-2.977 2.977-2.977h5.032c1.644 0 2.977 1.333 2.977 2.977v.004c0 1.645-1.333 2.977-2.977 2.977z" fill="#dbdfd9"/><path d="m123.534 170.444h-5.032c-1.644 0-2.977-1.333-2.977-2.977v-.004c0-1.644 1.333-2.977 2.977-2.977h5.032c1.644 0 2.977 1.333 2.977 2.977v.004c0 1.645-1.333 2.977-2.977 2.977z" fill="#dbdfd9"/><path d="m138.123 170.444h-5.032c-1.644 0-2.977-1.333-2.977-2.977v-.004c0-1.644 1.333-2.977 2.977-2.977h5.032c1.644 0 2.977 1.333 2.977 2.977v.004c0 1.645-1.333 2.977-2.977 2.977z" fill="#dbdfd9"/><path d="m152.713 170.444h-5.032c-1.644 0-2.977-1.333-2.977-2.977v-.004c0-1.644 1.333-2.977 2.977-2.977h5.032c1.644 0 2.977 1.333 2.977 2.977v.004c0 1.645-1.333 2.977-2.977 2.977z" fill="#dbdfd9"/><path d="m167.302 170.444h-5.032c-1.644 0-2.977-1.333-2.977-2.977v-.004c0-1.644 1.333-2.977 2.977-2.977h5.032c1.644 0 2.977 1.333 2.977 2.977v.004c0 1.645-1.333 2.977-2.977 2.977z" fill="#dbdfd9"/><path d="m181.892 170.444h-5.032c-1.644 0-2.977-1.333-2.977-2.977v-.004c0-1.644 1.333-2.977 2.977-2.977h5.032c1.644 0 2.977 1.333 2.977 2.977v.004c0 1.645-1.333 2.977-2.977 2.977z" fill="#dbdfd9"/><path d="m196.481 170.444h-5.032c-1.644 0-2.977-1.333-2.977-2.977v-.004c0-1.644 1.333-2.977 2.977-2.977h5.032c1.644 0 2.977 1.333 2.977 2.977v.004c0 1.645-1.333 2.977-2.977 2.977z" fill="#dbdfd9"/><path d="m79.765 181.472h-5.032c-1.644 0-2.977-1.333-2.977-2.977v-.004c0-1.644 1.333-2.977 2.977-2.977h5.032c1.644 0 2.977 1.333 2.977 2.977v.004c0 1.644-1.333 2.977-2.977 2.977z" fill="#dbdfd9"/><path d="m65.176 181.472h-5.032c-1.644 0-2.977-1.333-2.977-2.977v-.004c0-1.644 1.333-2.977 2.977-2.977h5.032c1.644 0 2.977 1.333 2.977 2.977v.004c0 1.644-1.333 2.977-2.977 2.977z" fill="#dbdfd9"/><path d="m94.355 181.472h-5.032c-1.644 0-2.977-1.333-2.977-2.977v-.004c0-1.644 1.333-2.977 2.977-2.977h5.032c1.644 0 2.977 1.333 2.977 2.977v.004c0 1.644-1.333 2.977-2.977 2.977z" fill="#dbdfd9"/><path d="m108.944 181.472h-5.032c-1.644 0-2.977-1.333-2.977-2.977v-.004c0-1.644 1.333-2.977 2.977-2.977h5.032c1.644 0 2.977 1.333 2.977 2.977v.004c0 1.644-1.333 2.977-2.977 2.977z" fill="#dbdfd9"/><path d="m123.534 181.472h-5.032c-1.644 0-2.977-1.333-2.977-2.977v-.004c0-1.644 1.333-2.977 2.977-2.977h5.032c1.644 0 2.977 1.333 2.977 2.977v.004c0 1.644-1.333 2.977-2.977 2.977z" fill="#dbdfd9"/><path d="m138.123 181.472h-5.032c-1.644 0-2.977-1.333-2.977-2.977v-.004c0-1.644 1.333-2.977 2.977-2.977h5.032c1.644 0 2.977 1.333 2.977 2.977v.004c0 1.644-1.333 2.977-2.977 2.977z" fill="#dbdfd9"/><path d="m152.713 181.472h-5.032c-1.644 0-2.977-1.333-2.977-2.977v-.004c0-1.644 1.333-2.977 2.977-2.977h5.032c1.644 0 2.977 1.333 2.977 2.977v.004c0 1.644-1.333 2.977-2.977 2.977z" fill="#dbdfd9"/><path d="m167.302 181.472h-5.032c-1.644 0-2.977-1.333-2.977-2.977v-.004c0-1.644 1.333-2.977 2.977-2.977h5.032c1.644 0 2.977 1.333 2.977 2.977v.004c0 1.644-1.333 2.977-2.977 2.977z" fill="#dbdfd9"/><path d="m181.892 181.472h-5.032c-1.644 0-2.977-1.333-2.977-2.977v-.004c0-1.644 1.333-2.977 2.977-2.977h5.032c1.644 0 2.977 1.333 2.977 2.977v.004c0 1.644-1.333 2.977-2.977 2.977z" fill="#dbdfd9"/><path d="m196.481 181.472h-5.032c-1.644 0-2.977-1.333-2.977-2.977v-.004c0-1.644 1.333-2.977 2.977-2.977h5.032c1.644 0 2.977 1.333 2.977 2.977v.004c0 1.644-1.333 2.977-2.977 2.977z" fill="#984a44"/><path d="m79.765 193.105h-5.032c-1.644 0-2.977-1.333-2.977-2.977v-.004c0-1.644 1.333-2.977 2.977-2.977h5.032c1.644 0 2.977 1.333 2.977 2.977v.004c0 1.644-1.333 2.977-2.977 2.977z" fill="#dbdfd9"/><path d="m65.176 193.105h-5.032c-1.644 0-2.977-1.333-2.977-2.977v-.004c0-1.644 1.333-2.977 2.977-2.977h5.032c1.644 0 2.977 1.333 2.977 2.977v.004c0 1.644-1.333 2.977-2.977 2.977z" fill="#dbdfd9"/><path d="m94.355 193.105h-5.032c-1.644 0-2.977-1.333-2.977-2.977v-.004c0-1.644 1.333-2.977 2.977-2.977h5.032c1.644 0 2.977 1.333 2.977 2.977v.004c0 1.644-1.333 2.977-2.977 2.977z" fill="#dbdfd9"/><path d="m108.944 193.105h-5.032c-1.644 0-2.977-1.333-2.977-2.977v-.004c0-1.644 1.333-2.977 2.977-2.977h5.032c1.644 0 2.977 1.333 2.977 2.977v.004c0 1.644-1.333 2.977-2.977 2.977z" fill="#dbdfd9"/><path d="m123.534 193.105h-5.032c-1.644 0-2.977-1.333-2.977-2.977v-.004c0-1.644 1.333-2.977 2.977-2.977h5.032c1.644 0 2.977 1.333 2.977 2.977v.004c0 1.644-1.333 2.977-2.977 2.977z" fill="#dbdfd9"/><path d="m138.123 193.105h-5.032c-1.644 0-2.977-1.333-2.977-2.977v-.004c0-1.644 1.333-2.977 2.977-2.977h5.032c1.644 0 2.977 1.333 2.977 2.977v.004c0 1.644-1.333 2.977-2.977 2.977z" fill="#dbdfd9"/><path d="m152.713 193.105h-5.032c-1.644 0-2.977-1.333-2.977-2.977v-.004c0-1.644 1.333-2.977 2.977-2.977h5.032c1.644 0 2.977 1.333 2.977 2.977v.004c0 1.644-1.333 2.977-2.977 2.977z" fill="#dbdfd9"/><path d="m167.302 193.105h-5.032c-1.644 0-2.977-1.333-2.977-2.977v-.004c0-1.644 1.333-2.977 2.977-2.977h5.032c1.644 0 2.977 1.333 2.977 2.977v.004c0 1.644-1.333 2.977-2.977 2.977z" fill="#dbdfd9"/><path d="m181.892 193.105h-5.032c-1.644 0-2.977-1.333-2.977-2.977v-.004c0-1.644 1.333-2.977 2.977-2.977h5.032c1.644 0 2.977 1.333 2.977 2.977v.004c0 1.644-1.333 2.977-2.977 2.977z" fill="#dbdfd9"/><path d="m196.481 193.105h-5.032c-1.644 0-2.977-1.333-2.977-2.977v-.004c0-1.644 1.333-2.977 2.977-2.977h5.032c1.644 0 2.977 1.333 2.977 2.977v.004c0 1.644-1.333 2.977-2.977 2.977z" fill="#dbdfd9"/><path d="m71.711 204.193h-5.032c-1.644 0-2.977-1.333-2.977-2.977v-.004c0-1.644 1.333-2.977 2.977-2.977h5.032c1.644 0 2.977 1.333 2.977 2.977v.004c0 1.645-1.333 2.977-2.977 2.977z" fill="#dbdfd9"/><path d="m86.3 204.193h-5.032c-1.644 0-2.977-1.333-2.977-2.977v-.004c0-1.644 1.333-2.977 2.977-2.977h5.032c1.644 0 2.977 1.333 2.977 2.977v.004c0 1.645-1.332 2.977-2.977 2.977z" fill="#dbdfd9"/><path d="m100.89 204.193h-5.032c-1.644 0-2.977-1.333-2.977-2.977v-.004c0-1.644 1.333-2.977 2.977-2.977h5.032c1.644 0 2.977 1.333 2.977 2.977v.004c0 1.645-1.333 2.977-2.977 2.977z" fill="#dbdfd9"/><path d="m115.479 204.193h-5.032c-1.644 0-2.977-1.333-2.977-2.977v-.004c0-1.644 1.333-2.977 2.977-2.977h5.032c1.644 0 2.977 1.333 2.977 2.977v.004c0 1.645-1.332 2.977-2.977 2.977z" fill="#dbdfd9"/><path d="m130.069 204.193h-5.032c-1.644 0-2.977-1.333-2.977-2.977v-.004c0-1.644 1.333-2.977 2.977-2.977h5.032c1.644 0 2.977 1.333 2.977 2.977v.004c0 1.645-1.333 2.977-2.977 2.977z" fill="#dbdfd9"/><path d="m144.658 204.193h-5.032c-1.644 0-2.977-1.333-2.977-2.977v-.004c0-1.644 1.333-2.977 2.977-2.977h5.032c1.644 0 2.977 1.333 2.977 2.977v.004c0 1.645-1.332 2.977-2.977 2.977z" fill="#dbdfd9"/><path d="m159.248 204.193h-5.032c-1.644 0-2.977-1.333-2.977-2.977v-.004c0-1.644 1.333-2.977 2.977-2.977h5.032c1.644 0 2.977 1.333 2.977 2.977v.004c0 1.645-1.333 2.977-2.977 2.977z" fill="#dbdfd9"/><path d="m173.837 204.193h-5.032c-1.644 0-2.977-1.333-2.977-2.977v-.004c0-1.644 1.333-2.977 2.977-2.977h5.032c1.644 0 2.977 1.333 2.977 2.977v.004c.001 1.645-1.332 2.977-2.977 2.977z" fill="#dbdfd9"/><path d="m188.427 204.193h-5.032c-1.644 0-2.977-1.333-2.977-2.977v-.004c0-1.644 1.333-2.977 2.977-2.977h5.032c1.644 0 2.977 1.333 2.977 2.977v.004c0 1.645-1.333 2.977-2.977 2.977z" fill="#dbdfd9"/><path d="m79.765 215.229h-5.032c-1.644 0-2.977-1.333-2.977-2.977v-.004c0-1.644 1.333-2.977 2.977-2.977h5.032c1.644 0 2.977 1.333 2.977 2.977v.004c0 1.644-1.333 2.977-2.977 2.977z" fill="#dbdfd9"/><path d="m66.216 215.229h-8.514c-1.645 0-2.979-1.334-2.979-2.979 0-1.645 1.334-2.979 2.979-2.979h8.514c1.645 0 2.979 1.334 2.979 2.979 0 1.645-1.334 2.979-2.979 2.979z" fill="#dbdfd9"/><path d="m94.355 215.229h-5.032c-1.644 0-2.977-1.333-2.977-2.977v-.004c0-1.644 1.333-2.977 2.977-2.977h5.032c1.644 0 2.977 1.333 2.977 2.977v.004c0 1.644-1.333 2.977-2.977 2.977z" fill="#dbdfd9"/><path d="m108.944 215.229h-5.032c-1.644 0-2.977-1.333-2.977-2.977v-.004c0-1.644 1.333-2.977 2.977-2.977h5.032c1.644 0 2.977 1.333 2.977 2.977v.004c0 1.644-1.333 2.977-2.977 2.977z" fill="#dbdfd9"/><path d="m123.534 215.229h-5.032c-1.644 0-2.977-1.333-2.977-2.977v-.004c0-1.644 1.333-2.977 2.977-2.977h5.032c1.644 0 2.977 1.333 2.977 2.977v.004c0 1.644-1.333 2.977-2.977 2.977z" fill="#dbdfd9"/><path d="m138.123 215.229h-5.032c-1.644 0-2.977-1.333-2.977-2.977v-.004c0-1.644 1.333-2.977 2.977-2.977h5.032c1.644 0 2.977 1.333 2.977 2.977v.004c0 1.644-1.333 2.977-2.977 2.977z" fill="#dbdfd9"/><path d="m152.713 215.229h-5.032c-1.644 0-2.977-1.333-2.977-2.977v-.004c0-1.644 1.333-2.977 2.977-2.977h5.032c1.644 0 2.977 1.333 2.977 2.977v.004c0 1.644-1.333 2.977-2.977 2.977z" fill="#dbdfd9"/><path d="m167.302 215.229h-5.032c-1.644 0-2.977-1.333-2.977-2.977v-.004c0-1.644 1.333-2.977 2.977-2.977h5.032c1.644 0 2.977 1.333 2.977 2.977v.004c0 1.644-1.333 2.977-2.977 2.977z" fill="#dbdfd9"/><path d="m181.892 215.229h-5.032c-1.644 0-2.977-1.333-2.977-2.977v-.004c0-1.644 1.333-2.977 2.977-2.977h5.032c1.644 0 2.977 1.333 2.977 2.977v.004c0 1.644-1.333 2.977-2.977 2.977z" fill="#dbdfd9"/><path d="m196.481 215.229h-5.032c-1.644 0-2.977-1.333-2.977-2.977v-.004c0-1.644 1.333-2.977 2.977-2.977h5.032c1.644 0 2.977 1.333 2.977 2.977v.004c0 1.644-1.333 2.977-2.977 2.977z" fill="#dbdfd9"/><path d="m90.875 70 1.628 13.382c.013.345.313.618.679.618h71.303c.366 0 .666-.273.679-.618 0 0 1.628-13.382 1.628-13.382h90.875l-1.903 15.889h-253.861l-1.903-15.889z" fill="#736e61"/><path d="m39.014 73.681c-.974 0-1.764.522-1.764 1.166s.79 1.166 1.764 1.166 1.764-.522 1.764-1.166-.79-1.166-1.764-1.166zm0 2.158c-.828 0-1.499-.444-1.499-.991 0-.548.671-.991 1.499-.991s1.499.444 1.499.991-.671.991-1.499.991z" fill="#1d1d1b"/><path d="m38.776 74.017h.477v1.66h-.477z" fill="#1d1d1b"/><path d="m83.625 73.681h-4.867v2.316c0 .714.049 1.029.52 1.423.492.409 1.189.62 1.927.62.696 0 1.435-.211 1.927-.629.457-.385.492-.681.492-1.414v-2.316zm-4.733.094h4.607v2.245c0 .648-.028.954-.499 1.348-.415.348-1.069.568-1.8.568-.724 0-1.414-.23-1.836-.592-.457-.395-.471-.667-.471-1.395zm4.494 2.631c0-.799-.971-1.451-2.187-1.451-1.217 0-2.194.653-2.194 1.451 0 .813.978 1.466 2.18 1.466 1.216-.001 2.201-.658 2.201-1.466zm-3.664-2.1c0-.216-.295-.216-.654-.216v.55h.225v-.122c.281-.001.429-.076.429-.212zm.309-.216h-.204v.55h.204v-.207h.218v.207h.218v-.55h-.218v.202h-.218zm.844 0h-.204v.55h.204zm.422 0h-.211v.55h.429v-.122h-.218zm.542 0h-.211v.55h.211zm.865.216c0-.216-.331-.216-.647-.216v.55h.211v-.122c.239-.001.436-.052.436-.212zm.084.211v.132c.07.005.113.009.162.009.253 0 .373-.08.373-.197 0-.179-.302-.122-.302-.197 0-.023.049-.038.141-.038h.077v-.136c-.302 0-.478.028-.478.169 0 .193.323.155.323.216 0 .023-.07.042-.169.042zm-3.622 1.771c.197-.056.331-.08.485-.08.436 0 .57.188 1.048.188.359 0 .647-.188 1.062-.188.352 0 .696.183.971.183.26 0 .429-.061.499-.089l.007.056c-.134.066-.26.103-.478.103-.387 0-.619-.188-1.006-.188-.415 0-.668.193-1.055.193-.429 0-.64-.183-1.034-.183-.162 0-.373.033-.499.066zm1.027-1.057c.225-.08.288-.094.457-.127l-.056.235-.366.042zm0 .977.084-.404.675-.075-.239-.028.056-.254.394-.056-.394-.052-.056-.249c.197-.028.295-.038.464-.038 1.104 0 1.829.512 2.04 1.146-.105.052-.246.094-.471.094-.401 0-.584-.188-1.027-.188-.436 0-.626.197-1.041.197-.225.001-.366-.036-.485-.093zm.035-.798.366.038.042.24-.359-.033zm-1.069 1.052c.324-.07.366-.08.492-.08.443 0 .612.188 1.041.188.345 0 .661-.197 1.055-.197.366 0 .57.188 1.006.188.148 0 .281-.023.485-.075v.052c-.176.07-.295.094-.506.094-.436 0-.619-.183-.992-.183-.443 0-.64.188-1.055.188-.401 0-.64-.183-1.055-.183-.105 0-.239.019-.464.066zm.021.155c.19-.047.309-.066.457-.066.422 0 .626.193 1.041.193.394 0 .64-.193 1.055-.193.197 0 .338.033.464.089l-.07.376-.682.085.239.038-.042.244-.415.056.415.07.063.221c-.183.028-.295.038-.471.038-1.069 0-1.899-.498-2.054-1.151zm0-.437c.056-.197.098-.272.225-.427l.647.052.063.38c-.225-.061-.338-.08-.45-.08-.168 0-.351.038-.485.075zm2.581.968.366.028.035.23-.359-.023zm.021.563.021-.202.366-.047.035.127c-.147.061-.211.08-.422.122zm-2.489-3.485c.127 0 .176.014.176.075 0 .07-.049.089-.176.089zm2.975 0c.127 0 .183.005.183.085 0 .066-.077.08-.183.08zm.014 2.443c.176.038.324.061.492.061.148 0 .232-.014.436-.075-.035.155-.106.282-.211.404l-.668-.042zm.014.892.035-.385.605-.056c-.176.202-.303.296-.64.441zm-2.849-1.855c.176-.183.331-.31.675-.451l-.07.399z" fill="#1d1d1b"/><g fill="#1d1d1b" transform="scale(.99906918 1.0009317)"><path d="m47.002 73.659h1.384c.411 0 .727.073.946.22.221.145.331.353.331.623 0 .271-.11.48-.331.626-.219.145-.535.218-.946.218h-.55v.896h-.834zm.834.483v.721h.461c.162 0 .287-.031.375-.093.088-.063.132-.153.132-.268s-.044-.204-.132-.266-.213-.093-.375-.093h-.461z"/><path d="m50.251 73.659h.834v.984h1.23v-.984h.834v2.582h-.834v-1.095h-1.23v1.095h-.834z"/><path d="m53.967 73.659h.834v2.582h-.834z"/><path d="m55.622 73.659h.834v2.079h1.464v.503h-2.298z"/><path d="m58.446 73.659h.834v2.582h-.834z"/><path d="m60.1 73.659h1.384c.411 0 .727.073.946.22.221.145.331.353.331.623 0 .271-.11.48-.331.626-.219.145-.535.218-.946.218h-.55v.896h-.834zm.834.483v.721h.461c.162 0 .287-.031.375-.093.088-.063.132-.153.132-.268s-.044-.204-.132-.266-.213-.093-.375-.093h-.461z"/><path d="m65.599 73.741v.547c-.178-.063-.351-.111-.52-.144-.169-.032-.328-.048-.479-.048-.199 0-.347.022-.442.066s-.143.112-.143.204c0 .069.032.123.095.163.065.038.182.071.351.099l.355.057c.36.058.615.145.767.263s.227.285.227.502c0 .285-.106.497-.318.636-.211.138-.533.208-.968.208-.205 0-.411-.016-.617-.047s-.413-.077-.619-.138v-.562c.206.088.406.154.598.199.193.044.38.066.559.066.182 0 .321-.024.418-.073.097-.048.145-.118.145-.208 0-.081-.033-.143-.1-.187-.065-.044-.196-.083-.392-.118l-.323-.057c-.323-.055-.56-.144-.71-.265-.149-.121-.223-.284-.223-.489 0-.257.104-.455.312-.593s.507-.208.897-.208c.178 0 .36.011.548.033.187.019.381.051.582.094z"/></g><g fill="#b7202a" transform="matrix(.48363674 0 0 .49282363 71.258313 69.768417)"><path d="m319.147 10.328h4.528l-.507 1.75h-4.528zm3.689 2.251c-.336.4-.767.767-1.295 1.1-1.082.684-2.248 1.025-3.498 1.025s-2.219-.342-2.905-1.025c-.686-.684-.889-1.509-.61-2.476.28-.967.961-1.792 2.042-2.476 1.082-.684 2.248-1.025 3.498-1.025s2.219.342 2.905 1.025c.167.167.306.343.416.53l-2.164.975c-.055-.093-.124-.183-.206-.27-.346-.34-.831-.51-1.456-.51s-1.21.172-1.753.515c-.538.34-.877.752-1.017 1.235s-.04.897.301 1.24c.346.34.831.51 1.456.51.535 0 1.039-.125 1.512-.375h2.774z"/><path d="m331.124 9.953-3.128 4.751h-2.426l3.128-4.751zm-5.172-.5.506-1.75h6.151l-1.153 1.75z"/><path d="m336.155 11.063-1.152 1.751h-3.926l3.489-1.751z"/><path d="m341.397 7.703-3.579 1.75-1.274 1.934-.94 1.427-1.246 1.891h2.426l1.245-1.891h1.18l1.153-1.751h-1.18z"/><path d="m349.305 11.454h2.277c-.318.86-.972 1.602-1.963 2.226-1.082.684-2.248 1.025-3.498 1.025s-2.219-.342-2.905-1.025c-.626-.624-.849-1.365-.669-2.226h2.277c-.044.377.074.705.355.985.34.343.823.515 1.449.515s1.21-.172 1.753-.515c.441-.28.75-.609.924-.985zm-4.338-.5h-2.277c.318-.86.97-1.602 1.957-2.226 1.082-.684 2.248-1.025 3.498-1.025 1.251 0 2.219.342 2.905 1.025.63.623.855 1.365.676 2.226h-2.277c.044-.377-.074-.707-.354-.99-.346-.34-.831-.51-1.456-.51s-1.207.17-1.745.51c-.444.283-.753.613-.927.99z"/><path d="m359.343 11.454h2.277c-.318.86-.972 1.602-1.963 2.226-1.082.684-2.248 1.025-3.498 1.025-1.251 0-2.219-.342-2.905-1.025-.626-.624-.849-1.365-.669-2.226h2.277c-.044.377.074.705.355.985.34.343.823.515 1.449.515.625 0 1.21-.172 1.753-.515.442-.28.75-.609.924-.985zm-4.338-.5h-2.277c.318-.86.97-1.602 1.957-2.226 1.082-.684 2.248-1.025 3.498-1.025s2.219.342 2.905 1.025c.63.623.855 1.365.676 2.226h-2.277c.044-.377-.074-.707-.354-.99-.346-.34-.831-.51-1.456-.51s-1.207.17-1.745.51c-.444.283-.753.613-.927.99z"/></g><g fill="#1d1d1b" transform="matrix(.84157351 0 0 .82706902 4.625042 22.094351)"><path d="m209.933 65.293-1.054 1.111-1.753-4.172h1.522zm-.202-1.392 1.581-1.669h1.522l-2.635 2.78z"/><path d="m213.277 62.232h1.334l-1.099 4.172h-1.334z"/><path d="m215.282 62.232h1.334l-1.099 4.172h-1.334zm1.44 1.041.274-1.041h.569c.737 0 1.312.203 1.724.61s.542.899.39 1.476c-.151.575-.541 1.067-1.168 1.476-.626.407-1.308.61-2.045.61h-.569l.275-1.045h.568c.367 0 .707-.102 1.02-.305.316-.203.512-.449.588-.736s.009-.533-.2-.736c-.205-.206-.492-.309-.859-.309z"/><path d="m220.905 62.232h1.334l-1.099 4.172h-1.334zm1.714 0h2.091l-.274 1.041h-2.09zm-.824 3.127h2.091l-.275 1.045h-2.09zm.412-1.563h2.09l-.275 1.045h-2.091z"/><path d="m228.777 64.465h1.338c-.174.514-.549.957-1.124 1.329-.626.407-1.308.61-2.045.61-.734 0-1.309-.203-1.724-.61-.377-.372-.517-.815-.42-1.329h1.338c-.021.227.053.423.221.589.206.203.493.305.86.305s.709-.102 1.025-.305c.255-.166.432-.362.531-.589zm-2.558-.298h-1.338c.174-.512.547-.954 1.119-1.325.629-.407 1.311-.61 2.045-.61.737 0 1.312.203 1.724.61.38.372.521.813.425 1.325h-1.338c.02-.224-.053-.421-.221-.589-.209-.203-.497-.305-.864-.305s-.707.102-1.02.305c-.257.169-.434.365-.532.589z"/><path d="m231.379 62.232h1.334l-1.099 4.172h-1.334zm1.441 1.041.274-1.041h.618c.46 0 .818.127 1.077.382.258.255.34.561.246.919-.095.362-.339.671-.732.926s-.818.382-1.278.382h-.618l.275-1.045h.618c.093 0 .177-.025.252-.074.079-.051.129-.115.148-.189.018-.07.002-.131-.05-.182-.049-.051-.12-.077-.212-.077h-.618z"/><path d="m237.833 64.735-1.581 1.669h-1.522l2.635-2.78zm.489.253-.695-1.644 1.054-1.111 1.757 4.172h-1.522l-.157-.372h-1.777l.987-1.045c-.001 0 .353 0 .353 0z"/><path d="m243.633 65.352-.275 1.045c-.649-.03-1.161-.231-1.538-.603-.412-.409-.542-.901-.39-1.476.152-.577.541-1.069 1.168-1.476.572-.372 1.191-.573 1.855-.603l-.275 1.045c-.297.03-.574.129-.83.295-.314.206-.509.452-.584.74-.076.287-.011.533.196.736.168.168.392.267.673.297zm1.724-1.616c-.033-.056-.074-.109-.124-.158-.171-.166-.396-.264-.674-.295l.275-1.045c.646.03 1.157.231 1.533.603.099.101.183.206.253.316 0 .001-1.263.579-1.263.579zm.652 1.743c-.127.11-.267.215-.419.316-.572.372-1.189.573-1.851.603l.275-1.045c.294-.03.571-.13.831-.298.076-.049.144-.101.206-.154z"/></g><path d="m216.901 74.651.429-1.086h-1.881l-.429 1.086h-1.599l-.504 1.278h1.599l-.429 1.086h1.881l.429-1.086h1.599l.504-1.278zm.879 1.078h-1.599l-.429 1.086h-1.291l.429-1.086h-1.6l.346-.877h1.6l.429-1.086h1.291l-.429 1.086h1.599z" fill="#1d1d1b"/><path d="m90.875 70 1.107-36.06c0-1.255 1.04-2.273 2.324-2.273h69.054c1.283 0 2.324 1.018 2.324 2.273 0 0 1.107 36.06 1.107 36.06h90.875v-34.845c0-2.4-1.945-4.345-4.345-4.345h-248.976c-2.4 0-4.345 1.945-4.345 4.345v34.845z" fill="#b6b09c"/><path d="m90.875 70 1.628 13.382c.013.345.313.618.679.618h.394c-.267 0-.483-.216-.483-.483v-48.275c0-1.975 1.601-3.576 3.576-3.576h-2.362c-1.283 0-2.324 1.018-2.324 2.273z" fill="#262722"/><path d="m166.792 70s-1.628 13.382-1.628 13.382c-.013.345-.314.618-.679.618h-.394c.267 0 .483-.216.483-.483v-48.275c0-1.975-1.601-3.576-3.576-3.576h2.362c1.283 0 2.324 1.018 2.324 2.273 0 .001 1.108 36.061 1.108 36.061z" fill="#262722"/><path d="m164.091 84h-70.515c-.267 0-.483-.216-.483-.483v-48.275c0-1.975 1.601-3.576 3.576-3.576h64.33c1.975 0 3.576 1.601 3.576 3.576v48.274c-.001.268-.217.484-.484.484z" fill="#acae9e"/><path d="m164.091 64.65c.267 0 .483-.216.483-.483v-28.925c0-1.975-1.601-3.576-3.576-3.576h-64.33c-1.975 0-3.576 1.601-3.576 3.576v28.924c0 .267.216.483.483.483h70.516z" fill="#7e8478"/><path d="m130.111 43.111h29.815c1.575 0 2.851 1.277 2.851 2.851l-.787 15.172c0 1.575-1.277 2.851-2.851 2.851h-29.028-29.028c-1.575 0-2.851-1.277-2.851-2.851l-.787-15.172c0-1.575 1.277-2.851 2.851-2.851z" fill="#494940"/><path d="m158.247 55.002c.559 0 1.003.517.974 1.133l-.235 5c0 1.575-1.156 2.851-2.583 2.851h-26.292-26.292c-1.426 0-2.583-1.277-2.583-2.851l-.235-5c-.029-.616.416-1.133.974-1.133z" fill="#6b6a4f"/><path d="m110.215 57.833v2.292h1.769v-2.292zm.664 2.104h-.484v-.958h.484zm.925 0h-.484v-.958h.484z" fill="#17120e"/><path d="m112.931 57.833v2.292h1.769v-2.292zm.664 2.104h-.484v-.958h.484zm.925 0h-.484v-.958h.484z" fill="#17120e"/><path d="m115.647 57.833v2.292h1.769v-2.292zm.664 2.104h-.484v-.958h.484zm.925 0h-.484v-.958h.484z" fill="#17120e"/><path d="m118.363 57.833v2.292h1.769v-2.292zm.664 2.104h-.484v-.958h.484zm.925 0h-.484v-.958h.484z" fill="#17120e"/><path d="m121.079 57.833v2.292h1.769v-2.292zm.664 2.104h-.484v-.958h.484zm.925 0h-.484v-.958h.484z" fill="#17120e"/><path d="m123.795 57.833v2.292h1.769v-2.292zm.664 2.104h-.484v-.958h.484zm.925 0h-.484v-.958h.484z" fill="#17120e"/><path d="m126.511 57.833v2.292h1.769v-2.292zm.664 2.104h-.484v-.958h.484zm.925 0h-.484v-.958h.484z" fill="#17120e"/><path d="m129.227 57.833v2.292h1.769v-2.292zm.663 2.104h-.484v-.958h.484zm.926 0h-.484v-.958h.484z" fill="#17120e"/><path d="m131.943 57.833v2.292h1.769v-2.292zm.663 2.104h-.484v-.958h.484zm.926 0h-.484v-.958h.484z" fill="#17120e"/><path d="m134.659 57.833v2.292h1.769v-2.292zm.663 2.104h-.484v-.958h.484zm.926 0h-.484v-.958h.484z" fill="#17120e"/><path d="m137.375 57.833v2.292h1.769v-2.292zm.663 2.104h-.484v-.958h.484zm.926 0h-.484v-.958h.484z" fill="#17120e"/><path d="m140.091 57.833v2.292h1.769v-2.292zm.663 2.104h-.484v-.958h.484zm.926 0h-.484v-.958h.484z" fill="#17120e"/><path d="m142.807 57.833v2.292h1.769v-2.292zm.663 2.104h-.484v-.958h.484zm.926 0h-.484v-.958h.484z" fill="#17120e"/><path d="m145.522 57.833v2.292h1.769v-2.292zm.664 2.104h-.484v-.958h.484zm.926 0h-.484v-.958h.484z" fill="#17120e"/><path d="m148.238 57.833v2.292h1.769v-2.292zm.664 2.104h-.484v-.958h.484zm.926 0h-.484v-.958h.484z" fill="#17120e"/><path d="m111.984 63.458v-2.292h-1.769v2.292zm-1.105-1.146h-.484v-.958h.484zm.925 0h-.484v-.958h.484z" fill="#17120e"/><path d="m114.7 63.458v-2.292h-1.769v2.292zm-1.105-1.146h-.484v-.958h.484zm.925 0h-.484v-.958h.484z" fill="#17120e"/><path d="m117.416 63.458v-2.292h-1.769v2.292zm-1.105-1.146h-.484v-.958h.484zm.925 0h-.484v-.958h.484z" fill="#17120e"/><path d="m120.132 63.458v-2.292h-1.769v2.292zm-1.105-1.146h-.484v-.958h.484zm.925 0h-.484v-.958h.484z" fill="#17120e"/><path d="m122.848 63.458v-2.292h-1.769v2.292zm-1.105-1.146h-.484v-.958h.484zm.925 0h-.484v-.958h.484z" fill="#17120e"/><path d="m125.563 63.458v-2.292h-1.769v2.292zm-1.104-1.146h-.484v-.958h.484zm.925 0h-.484v-.958h.484z" fill="#17120e"/><path d="m128.279 63.458v-2.292h-1.769v2.292zm-1.104-1.146h-.484v-.958h.484zm.925 0h-.484v-.958h.484z" fill="#17120e"/><path d="m130.995 63.458v-2.292h-1.769v2.292zm-1.105-1.146h-.484v-.958h.484zm.926 0h-.484v-.958h.484z" fill="#17120e"/><path d="m133.711 63.458v-2.292h-1.769v2.292zm-1.105-1.146h-.484v-.958h.484zm.926 0h-.484v-.958h.484z" fill="#17120e"/><path d="m136.427 63.458v-2.292h-1.769v2.292zm-1.105-1.146h-.484v-.958h.484zm.926 0h-.484v-.958h.484z" fill="#17120e"/><path d="m139.143 63.458v-2.292h-1.769v2.292zm-1.105-1.146h-.484v-.958h.484zm.926 0h-.484v-.958h.484z" fill="#17120e"/><path d="m141.859 63.458v-2.292h-1.769v2.292zm-1.105-1.146h-.484v-.958h.484zm.926 0h-.484v-.958h.484z" fill="#17120e"/><path d="m144.575 63.458v-2.292h-1.769v2.292zm-1.105-1.146h-.484v-.958h.484zm.926 0h-.484v-.958h.484z" fill="#17120e"/><path d="m147.291 63.458v-2.292h-1.769v2.292zm-1.105-1.146h-.484v-.958h.484zm.926 0h-.484v-.958h.484z" fill="#17120e"/><path d="m150.007 63.458v-2.292h-1.769v2.292zm-1.105-1.146h-.484v-.958h.484zm.926 0h-.484v-.958h.484z" fill="#17120e"/><path d="m108.373 60.125h43.917v1.042h-43.917z" fill="#17120e"/><circle cx="102.623" cy="62.125" fill="#17120e" r="1.062"/><path d="m107.728 57.188h.646v6.042h-.646z" fill="#17120e"/><circle cx="154.599" cy="62.125" fill="#17120e" r="1.062"/><path d="m8.889 54.444h25.167v15.556h-25.167z" fill="#ac2723"/><circle cx="21.368" cy="62.118" fill="url(#a)" r="5.756"/><path d="m36.943 80.778h-25.166l-2.888-10.778h25.167z" fill="#921f1f"/><path d="m.676 32.829 7.042-24.218c1.484-5.102 6.159-8.611 11.472-8.611h109.644 109.644c5.313 0 9.988 3.509 11.471 8.611l7.042 24.218h.002c-.771-1.213-2.127-2.019-3.671-2.019h-248.977c-1.544 0-2.9.805-3.671 2.019" fill="#5f5a47"/><path d="m4.972 26c-1.369 0-2.573.904-2.955 2.218l-1.341 4.611-.002-.001c.771-1.214 2.127-2.019 3.671-2.019h248.976c1.544 0 2.9.805 3.671 2.019h-.002l-1.341-4.61c-.382-1.314-1.586-2.218-2.955-2.218z" fill="#7f7f73"/><g fill="#4d4633"><path d="m130.65 9.698h-1.461l-.006-3.823h1.44z"/><path d="m130.688 15.041h-1.492l-.005-3.506h1.472z"/><path d="m132.816 9.698h-1.461l-.037-3.823h1.439z"/><path d="m132.899 15.041h-1.492l-.034-3.506h1.472z"/><path d="m134.983 9.698h-1.461l-.07-3.823h1.44z"/><path d="m135.11 15.041h-1.491l-.064-3.506h1.472z"/><path d="m137.149 9.698h-1.461l-.101-3.823h1.439z"/><path d="m137.322 15.041h-1.492l-.093-3.506h1.472z"/><path d="m139.316 9.698h-1.461l-.134-3.823h1.439z"/><path d="m139.533 15.041h-1.491l-.123-3.506h1.472z"/><path d="m141.482 9.698h-1.461l-.166-3.823h1.44z"/><path d="m141.745 15.041h-1.492l-.152-3.506h1.472z"/><path d="m143.649 9.698h-1.461l-.198-3.823h1.439z"/><path d="m143.956 15.041h-1.492l-.181-3.506h1.471z"/><path d="m145.815 9.698h-1.461l-.23-3.823h1.439z"/><path d="m146.167 15.041h-1.491l-.211-3.506h1.471z"/><path d="m147.982 9.698h-1.461l-.263-3.823h1.44z"/><path d="m148.379 15.041h-1.492l-.24-3.506h1.471z"/><path d="m150.148 9.698h-1.461l-.294-3.823h1.439z"/><path d="m150.59 15.041h-1.491l-.27-3.506h1.471z"/><path d="m152.315 9.698h-1.461l-.327-3.823h1.439z"/><path d="m152.802 15.041h-1.492l-.3-3.506h1.472z"/><path d="m154.481 9.698h-1.461l-.359-3.823h1.44z"/><path d="m155.013 15.041h-1.492l-.329-3.506h1.472z"/><path d="m156.648 9.698h-1.461l-.391-3.823h1.439z"/><path d="m157.224 15.041h-1.491l-.359-3.506h1.472z"/><path d="m158.814 9.698h-1.461l-.423-3.823h1.44z"/><path d="m159.436 15.041h-1.492l-.388-3.506h1.472z"/><path d="m160.981 9.698h-1.462l-.455-3.823h1.44z"/><path d="m161.647 15.041h-1.491l-.418-3.506h1.472z"/><path d="m163.147 9.698h-1.461l-.487-3.823h1.439z"/><path d="m163.859 15.041h-1.492l-.447-3.506h1.472z"/><path d="m165.314 9.698h-1.462l-.519-3.823h1.44z"/><path d="m166.07 15.041h-1.492l-.476-3.506h1.472z"/><path d="m167.48 9.698h-1.461l-.552-3.823h1.44z"/><path d="m168.281 15.041h-1.491l-.506-3.506h1.471z"/><path d="m169.647 9.698h-1.462l-.583-3.823h1.439z"/><path d="m170.493 15.041h-1.492l-.535-3.506h1.471z"/><path d="m171.813 9.698h-1.461l-.616-3.823h1.44z"/><path d="m172.704 15.041h-1.491l-.565-3.506h1.471z"/><path d="m173.98 9.698h-1.462l-.648-3.823h1.44z"/><path d="m174.916 15.041h-1.492l-.594-3.506h1.471z"/><path d="m176.146 9.698h-1.461l-.68-3.823h1.439z"/><path d="m177.127 15.041h-1.492l-.623-3.506h1.471z"/><path d="m178.313 9.698h-1.462l-.712-3.823h1.44z"/><path d="m179.338 15.041h-1.491l-.654-3.506h1.472z"/><path d="m180.479 9.698h-1.461l-.745-3.823h1.44z"/><path d="m181.55 15.041h-1.492l-.683-3.506h1.472z"/><path d="m182.646 9.698h-1.462l-.776-3.823h1.439z"/><path d="m183.761 15.041h-1.491l-.713-3.506h1.472z"/><path d="m184.812 9.698h-1.461l-.809-3.823h1.44z"/><path d="m185.973 15.041h-1.492l-.742-3.506h1.472z"/><path d="m186.979 9.698h-1.462l-.841-3.823h1.44z"/><path d="m188.184 15.041h-1.492l-.771-3.506h1.472z"/><path d="m189.145 9.698h-1.461l-.873-3.823h1.439z"/><path d="m190.395 15.041h-1.491l-.801-3.506h1.472z"/><path d="m191.312 9.698h-1.462l-.905-3.823h1.44z"/><path d="m192.607 15.041h-1.492l-.83-3.506h1.472z"/><path d="m193.478 9.698h-1.461l-.938-3.823h1.44z"/><path d="m194.818 15.041h-1.491l-.86-3.506h1.472z"/><path d="m195.645 9.698h-1.462l-.969-3.823h1.439z"/><path d="m197.03 15.041h-1.492l-.889-3.506h1.471z"/><path d="m197.811 9.698h-1.461l-1.002-3.823h1.44z"/><path d="m199.241 15.041h-1.492l-.918-3.506h1.471z"/><path d="m199.977 9.698h-1.461l-1.033-3.823h1.439z"/><path d="m201.452 15.041h-1.491l-.948-3.506h1.471z"/><path d="m202.144 9.698h-1.461l-1.066-3.823h1.439z"/><path d="m203.664 15.041h-1.492l-.977-3.506h1.471z"/><path d="m204.31 9.698h-1.461l-1.098-3.823h1.44z"/><path d="m205.875 15.041h-1.491l-1.008-3.506h1.472z"/><path d="m206.477 9.698h-1.461l-1.13-3.823h1.439z"/><path d="m208.087 15.041h-1.492l-1.037-3.506h1.472z"/><path d="m208.643 9.698h-1.461l-1.162-3.823h1.439z"/><path d="m210.298 15.041h-1.492l-1.066-3.506h1.472z"/><path d="m210.81 9.698h-1.461l-1.195-3.823h1.44z"/><path d="m212.509 15.041h-1.491l-1.096-3.506h1.472z"/><path d="m212.976 9.698h-1.461l-1.226-3.823h1.439z"/><path d="m214.721 15.041h-1.492l-1.125-3.506h1.472z"/><path d="m215.143 9.698h-1.461l-1.259-3.823h1.439z"/><path d="m216.932 15.041h-1.491l-1.155-3.506h1.472z"/><path d="m217.309 9.698h-1.461l-1.291-3.823h1.44z"/><path d="m219.143 15.041h-1.491l-1.184-3.506h1.472z"/><path d="m219.476 9.698h-1.461l-1.323-3.823h1.439z"/><path d="m221.355 15.041h-1.492l-1.213-3.506h1.472z"/><path d="m221.642 9.698h-1.461l-1.355-3.823h1.44z"/><path d="m223.566 15.041h-1.491l-1.243-3.506h1.471z"/><path d="m223.809 9.698h-1.461l-1.388-3.823h1.44z"/><path d="m225.778 15.041h-1.492l-1.272-3.506h1.471z"/><path d="m35.325 9.698h-1.462l1.409-3.823h1.44z"/><path d="m34.661 11.53-1.275 3.517h-1.497l1.296-3.517z"/><path d="m37.491 9.698h-1.461l1.377-3.823h1.439z"/><path d="m35.598 15.041h-1.492l1.263-3.506h1.471z"/><path d="m39.658 9.698h-1.462l1.345-3.823h1.44z"/><path d="m37.809 15.041h-1.492l1.234-3.506h1.471z"/><path d="m41.824 9.698h-1.461l1.312-3.823h1.44z"/><path d="m40.02 15.041h-1.491l1.204-3.506h1.471z"/><path d="m43.991 9.698h-1.462l1.281-3.823h1.439z"/><path d="m42.232 15.041h-1.492l1.175-3.506h1.471z"/><path d="m46.157 9.698h-1.461l1.248-3.823h1.44z"/><path d="m44.443 15.041h-1.491l1.144-3.506h1.472z"/><path d="m48.324 9.698h-1.462l1.216-3.823h1.44z"/><path d="m46.655 15.041h-1.492l1.115-3.506h1.472z"/><path d="m50.49 9.698h-1.461l1.184-3.823h1.439z"/><path d="m48.866 15.041h-1.492l1.086-3.506h1.472z"/><path d="m52.657 9.698h-1.462l1.152-3.823h1.44z"/><path d="m51.077 15.041h-1.491l1.056-3.506h1.472z"/><path d="m54.823 9.698h-1.461l1.119-3.823h1.44z"/><path d="m53.289 15.041h-1.492l1.027-3.506h1.472z"/><path d="m56.99 9.698h-1.462l1.088-3.823h1.439z"/><path d="m55.5 15.041h-1.491l.997-3.506h1.472z"/><path d="m59.156 9.698h-1.461l1.055-3.823h1.44z"/><path d="m57.712 15.041h-1.492l.968-3.506h1.472z"/><path d="m61.322 9.698h-1.461l1.023-3.823h1.44z"/><path d="m59.923 15.041h-1.492l.939-3.506h1.472z"/><path d="m63.489 9.698h-1.461l.991-3.823h1.439z"/><path d="m62.134 15.041h-1.491l.909-3.506h1.471z"/><path d="m65.655 9.698h-1.461l.959-3.823h1.44z"/><path d="m64.346 15.041h-1.492l.88-3.506h1.471z"/><path d="m67.822 9.698h-1.461l.926-3.823h1.44z"/><path d="m66.557 15.041h-1.491l.85-3.506h1.471z"/><path d="m69.988 9.698h-1.461l.895-3.823h1.439z"/><path d="m68.768 15.041h-1.491l.821-3.506h1.471z"/><path d="m72.155 9.698h-1.461l.862-3.823h1.44z"/><path d="m70.98 15.041h-1.492l.791-3.506h1.472z"/><path d="m74.321 9.698h-1.461l.83-3.823h1.44z"/><path d="m73.191 15.041h-1.491l.761-3.506h1.472z"/><path d="m76.488 9.698h-1.461l.798-3.823h1.439z"/><path d="m75.403 15.041h-1.492l.732-3.506h1.472z"/><path d="m78.654 9.698h-1.461l.766-3.823h1.44z"/><path d="m77.614 15.041h-1.491l.702-3.506h1.472z"/><path d="m80.821 9.698h-1.461l.733-3.823h1.44z"/><path d="m79.825 15.041h-1.491l.673-3.506h1.472z"/><path d="m82.987 9.698h-1.461l.702-3.823h1.439z"/><path d="m82.037 15.041h-1.492l.644-3.506h1.472z"/><path d="m85.154 9.698h-1.461l.669-3.823h1.44z"/><path d="m84.248 15.041h-1.491l.614-3.506h1.472z"/><path d="m87.32 9.698h-1.461l.638-3.823h1.439z"/><path d="m86.46 15.041h-1.492l.585-3.506h1.472z"/><path d="m89.487 9.698h-1.461l.605-3.823h1.44z"/><path d="m88.671 15.041h-1.491l.555-3.506h1.471z"/><path d="m91.653 9.698h-1.461l.573-3.823h1.44z"/><path d="m90.882 15.041h-1.491l.526-3.506h1.471z"/><path d="m93.82 9.698h-1.461l.541-3.823h1.439z"/><path d="m93.094 15.041h-1.492l.497-3.506h1.471z"/><path d="m95.986 9.698h-1.461l.509-3.823h1.44z"/><path d="m95.305 15.041h-1.491l.467-3.506h1.471z"/><path d="m98.153 9.698h-1.462l.477-3.823h1.44z"/><path d="m97.517 15.041h-1.492l.438-3.506h1.471z"/><path d="m100.319 9.698h-1.461l.445-3.823h1.439z"/><path d="m99.728 15.041h-1.491l.407-3.506h1.472z"/><path d="m102.486 9.698h-1.462l.413-3.823h1.44z"/><path d="m101.939 15.041h-1.491l.378-3.506h1.472z"/><path d="m104.652 9.698h-1.461l.38-3.823h1.44z"/><path d="m104.151 15.041h-1.492l.349-3.506h1.472z"/><path d="m106.819 9.698h-1.462l.349-3.823h1.439z"/><path d="m106.362 15.041h-1.491l.319-3.506h1.472z"/><path d="m108.985 9.698h-1.461l.316-3.823h1.44z"/><path d="m108.574 15.041h-1.492l.29-3.506h1.472z"/><path d="m111.152 9.698h-1.462l.284-3.823h1.44z"/><path d="m110.785 15.041h-1.491l.26-3.506h1.472z"/><path d="m113.318 9.698h-1.461l.252-3.823h1.439z"/><path d="m112.996 15.041h-1.491l.231-3.506h1.472z"/><path d="m115.485 9.698h-1.462l.22-3.823h1.44z"/><path d="m115.208 15.041h-1.492l.202-3.506h1.471z"/><path d="m117.651 9.698h-1.461l.187-3.823h1.44z"/><path d="m117.419 15.041h-1.491l.172-3.506h1.471z"/><path d="m119.818 9.698h-1.462l.156-3.823h1.439z"/><path d="m119.631 15.041h-1.492l.143-3.506h1.471z"/><path d="m121.984 9.698h-1.461l.123-3.823h1.44z"/><path d="m121.842 15.041h-1.492l.114-3.506h1.471z"/><path d="m124.151 9.698h-1.462l.091-3.823h1.44z"/><path d="m124.053 15.041h-1.491l.083-3.506h1.472z"/><path d="m126.317 9.698h-1.461l.059-3.823h1.439z"/><path d="m126.265 15.041h-1.492l.054-3.506h1.472z"/><path d="m128.483 9.698h-1.461l.027-3.823h1.44z"/><path d="m128.476 15.041h-1.491l.024-3.506h1.472z"/></g><path d="m207.044 2.657h-35.153c-.475 0-.864-.389-.864-.864l.173-15.633c0-.475.389-.864.864-.864h34.807c.475 0 .864.389.864.864l.173 15.633c0 .475-.389.864-.864.864m10.278-1.024-1.391-18.708c-.24-3.281-1.853-5.013-3.609-5.013h-45.708c-1.756 0-3.369 1.732-3.609 5.013l-1.391 18.708c0 .041.003.069.008.088-.005.038-.008.076-.008.115v65.641c0 .475.389.864.864.864h53.981c.475 0 .864-.388.864-.864v-65.641c0-.039-.003-.077-.008-.115.004-.019.007-.047.007-.088" fill="#333" transform="translate(118.4972 171.3254)"/><path d="m302.718 239.647h-6.737v-8.79h6.737z" fill="#1d1d1b"/><path d="m331.643 226.193h-47.356c-.658 0-1.197-.539-1.197-1.197v-47.356c0-.658.539-1.197 1.197-1.197h47.356c.658 0 1.197.539 1.197 1.197v47.356c0 .659-.539 1.197-1.197 1.197z" fill="#1d1d1b"/><g fill="#ccc" transform="matrix(.15086951 0 0 -.18193242 .75392 193.65277)"><path d="m1911.545 42.556-4.286-6.547-16.074 24.572h8.573z"/><path d="m1908.33 50.752 6.429 9.829h8.573l-10.716-16.375z"/><path d="m1925.519 60.581h7.523l-.021-24.572h-7.501v24.572z"/><path d="m1936.235 60.581h7.523l-.021-24.572h-7.501v24.572z"/><path d="m1945.879 54.438v6.143h3.215c4.143 0 7.68-1.199 10.609-3.598s4.393-5.294 4.393-8.688c0-3.393-1.465-6.289-4.393-8.688-2.929-2.399-6.465-3.598-10.609-3.598h-3.215v6.143h3.215c2.071 0 3.84.6 5.304 1.799s2.196 2.647 2.196 4.344-.732 3.145-2.196 4.344c-1.465 1.199-3.233 1.799-5.304 1.799z"/><path d="m1967.354 60.581h7.522l-.021-24.572h-7.501z"/><path d="m1976.998 60.581h11.787v-6.143h-11.787z"/><path d="m1976.998 42.152h11.787v-6.143h-11.787z"/><path d="m1976.998 51.367h11.787v-6.143h-11.787z"/><path d="m2014.482 47.418h7.544c-.229-3.019-1.686-5.622-4.372-7.81-2.929-2.399-6.465-3.598-10.609-3.598-4.143 0-7.68 1.199-10.609 3.598-2.672 2.188-4.122 4.791-4.351 7.81h7.544c.214-1.322.921-2.475 2.122-3.458 1.457-1.205 3.221-1.808 5.293-1.808s3.844.603 5.315 1.808c1.202.983 1.909 2.136 2.123 3.458z"/><path d="m1999.63 49.173h-7.544c.229 3.019 1.679 5.622 4.351 7.81 2.929 2.399 6.465 3.598 10.609 3.598s7.68-1.199 10.609-3.598c2.686-2.188 4.144-4.791 4.372-7.81h-7.544c-.214 1.322-.921 2.48-2.122 3.475-1.471 1.194-3.243 1.79-5.315 1.79s-3.836-.597-5.293-1.79c-1.201-.995-1.909-2.153-2.123-3.475z"/><path d="m2025.306 60.581h7.501v-24.572h-7.501z"/><path d="m2034.95 54.438v6.143h4.029c2.586 0 4.793-.749 6.622-2.246 1.829-1.498 2.743-3.305 2.743-5.423 0-2.13-.914-3.943-2.743-5.441s-4.036-2.246-6.622-2.246h-4.029v6.143h4.029c.515 0 .953.149 1.318.447.364.298.546.664.546 1.097 0 .421-.182.781-.546 1.079-.365.298-.804.448-1.318.448z"/><path d="m2064.955 45.838-6.43-9.829h-8.573l10.716 16.375z"/><path d="m2068.083 44.347-6.344 9.688 4.286 6.547 16.074-24.572h-8.573l-1.436 2.194h-9.987l4.008 6.143z"/><path d="m2098.217 42.205v-6.16c-3.686.187-6.865 1.375-9.537 3.563-2.929 2.399-4.393 5.294-4.393 8.688s1.464 6.289 4.393 8.688c2.672 2.188 5.851 3.376 9.537 3.563v-6.16c-1.615-.176-3.022-.754-4.222-1.737-1.471-1.205-2.208-2.656-2.208-4.353 0-1.696.736-3.142 2.208-4.335 1.2-.996 2.607-1.582 4.222-1.757z"/><path d="m2105.546 51.718c-.271.328-.586.638-.943.93-1.214.983-2.628 1.562-4.243 1.737v6.16c3.686-.187 6.865-1.375 9.537-3.563.714-.585 1.343-1.205 1.886-1.861z"/><path d="m2111.783 41.468c-.543-.655-1.172-1.276-1.886-1.861-2.672-2.188-5.851-3.375-9.537-3.563v6.16c1.615.176 3.029.761 4.243 1.755.357.293.672.597.943.913z"/></g><path d="m330.785 219.308h-3.832v2.73c0 .842.039 1.213.41 1.678.388.482.936.731 1.517.731.548 0 1.13-.249 1.517-.742.36-.454.388-.803.388-1.667zm-3.727.111h3.628v2.647c0 .764-.022 1.124-.393 1.589-.327.41-.842.67-1.418.67-.57 0-1.113-.271-1.445-.698-.36-.465-.371-.786-.371-1.645zm3.539 3.102c0-.941-.764-1.711-1.722-1.711s-1.728.77-1.728 1.711c0 .958.77 1.728 1.717 1.728.957-.001 1.733-.776 1.733-1.728zm-2.886-2.476c0-.255-.233-.255-.515-.255v.648h.177v-.144c.222 0 .338-.088.338-.249zm.244-.255h-.161v.648h.161v-.244h.172v.244h.172v-.648h-.172v.238h-.172zm.665 0h-.161v.648h.161zm.332 0h-.166v.648h.338v-.144h-.172zm.426 0h-.166v.648h.166zm.682.255c0-.255-.26-.255-.509-.255v.648h.166v-.144c.188 0 .343-.061.343-.249zm.066.249v.155c.055.006.089.011.127.011.199 0 .293-.094.293-.233 0-.21-.238-.144-.238-.233 0-.028.039-.044.111-.044h.061v-.161c-.238 0-.377.033-.377.199 0 .227.255.183.255.255 0 .028-.055.05-.133.05h-.099zm-2.852 2.088c.155-.066.26-.094.382-.094.343 0 .449.222.825.222.282 0 .51-.222.836-.222.277 0 .548.216.764.216.205 0 .338-.072.393-.105l.006.066c-.105.078-.205.122-.377.122-.305 0-.487-.222-.792-.222-.327 0-.526.227-.831.227-.338 0-.504-.216-.814-.216-.127 0-.294.039-.393.078v-.072zm.808-1.246c.177-.094.227-.111.36-.15l-.044.277-.288.05zm0 1.152.066-.476.532-.089-.188-.033.044-.299.31-.066-.31-.061-.044-.294c.155-.033.233-.044.366-.044.87 0 1.44.604 1.606 1.351-.083.061-.194.111-.371.111-.316 0-.46-.222-.809-.222-.343 0-.493.233-.82.233-.177 0-.287-.045-.382-.111zm.028-.942.288.044.033.282-.282-.039zm-.842 1.241c.255-.083.288-.094.388-.094.349 0 .482.222.82.222.271 0 .521-.233.831-.233.288 0 .449.221.792.221.116 0 .222-.028.382-.089v.061c-.138.083-.233.111-.399.111-.343 0-.487-.216-.781-.216-.349 0-.504.222-.831.222-.316 0-.504-.216-.831-.216-.083 0-.188.022-.366.078zm.017.183c.15-.055.244-.078.36-.078.332 0 .493.227.82.227.31 0 .504-.227.831-.227.155 0 .266.039.366.105l-.055.443-.537.1.188.044-.033.288-.327.066.327.083.05.26c-.144.033-.233.044-.371.044-.844.002-1.497-.585-1.619-1.355zm0-.515c.044-.233.078-.321.177-.504l.51.061.05.449c-.177-.072-.266-.094-.354-.094-.134-.001-.278.043-.383.088zm2.032 1.141.288.033.028.271-.282-.028zm.017.664.017-.238.288-.055.028.15c-.117.071-.167.093-.333.143zm-1.96-4.109c.1 0 .138.017.138.089 0 .083-.039.105-.138.105zm2.342 0c.1 0 .144.006.144.1 0 .078-.061.094-.144.094zm.011 2.88c.138.044.255.072.388.072.116 0 .183-.017.343-.089-.028.183-.083.332-.166.476l-.526-.05zm.011 1.052.028-.454.476-.066c-.138.237-.238.348-.504.52zm-2.243-2.188c.138-.216.26-.366.532-.532l-.055.471z" fill="#f5f6f6"/><g fill="#f3f3f3" transform="scale(.99906918 1.0009317)"><path d="m286.41 218.886h.835c.248 0 .439.055.571.166.133.11.2.266.2.47 0 .205-.067.362-.2.473-.132.11-.323.165-.571.165h-.332v.677h-.503zm.503.364v.545h.278c.098 0 .173-.024.226-.071.053-.048.08-.115.08-.202s-.027-.154-.08-.201-.128-.071-.226-.071z"/><path d="m288.37 218.886h.503v.743h.742v-.743h.503v1.95h-.503v-.827h-.742v.827h-.503z"/><path d="m290.612 218.886h.503v1.95h-.503z"/><path d="m291.61 218.886h.503v1.57h.883v.38h-1.386z"/><path d="m293.313 218.886h.503v1.95h-.503z"/><path d="m294.311 218.886h.835c.248 0 .438.055.571.166.133.11.2.266.2.47 0 .205-.067.362-.2.473-.132.11-.323.165-.571.165h-.332v.677h-.503zm.503.364v.545h.278c.098 0 .173-.024.226-.071.053-.048.08-.115.08-.202s-.027-.154-.08-.201-.128-.071-.226-.071z"/><path d="m297.628 218.947v.413c-.107-.048-.212-.084-.314-.108s-.198-.037-.289-.037c-.12 0-.209.017-.266.05s-.086.084-.086.154c0 .052.019.093.057.123.039.029.11.054.212.074l.214.043c.217.044.371.11.462.199s.137.215.137.379c0 .215-.064.375-.192.481-.127.105-.322.157-.584.157-.124 0-.248-.012-.372-.035s-.249-.058-.374-.105v-.425c.125.066.245.116.361.15.117.033.229.05.337.05.11 0 .194-.018.252-.055s.088-.089.088-.157c0-.061-.02-.108-.06-.141-.039-.033-.118-.063-.236-.089l-.195-.043c-.195-.042-.338-.108-.428-.2-.09-.091-.135-.215-.135-.37 0-.194.063-.344.188-.448s.306-.157.541-.157c.107 0 .217.008.331.025.113.016.23.04.351.072z"/></g><path d="m307.394 190.727h1.142v28.327h-1.142z" fill="#ccc"/><path d="m313.888 219.055-5.923 6.558-5.924-6.523z" fill="#ccc"/><path d="m325.647 183.977h-1.542v-1.541h-1.778v1.541h-1.541v1.778h1.541v1.542h1.778v-1.542h1.542z" fill="none" stroke="#fff" stroke-miterlimit="10" stroke-width=".25"/></svg>