<?xml version="1.0" encoding="UTF-8" standalone="no"?>
<!-- Created with Inkscape (http://www.inkscape.org/) -->

<svg
   width="300"
   height="405"
   viewBox="0 0 300 405"
   id="svg4173"
   version="1.1"
   inkscape:version="1.4.2 (f4327f4, 2025-05-13)"
   sodipodi:docname="auto-favorites.svg"
   inkscape:export-filename="D:\Users\xizor\Downloads\controls\psx\controls.png"
   inkscape:export-xdpi="90"
   inkscape:export-ydpi="90"
   xmlns:inkscape="http://www.inkscape.org/namespaces/inkscape"
   xmlns:sodipodi="http://sodipodi.sourceforge.net/DTD/sodipodi-0.dtd"
   xmlns="http://www.w3.org/2000/svg"
   xmlns:svg="http://www.w3.org/2000/svg"
   xmlns:rdf="http://www.w3.org/1999/02/22-rdf-syntax-ns#"
   xmlns:cc="http://creativecommons.org/ns#"
   xmlns:dc="http://purl.org/dc/elements/1.1/">
  <defs
     id="defs4175" />
  <sodipodi:namedview
     id="base"
     pagecolor="#111110"
     bordercolor="#666666"
     borderopacity="1.0"
     inkscape:pageopacity="0"
     inkscape:pageshadow="2"
     inkscape:zoom="1.979899"
     inkscape:cx="177.02923"
     inkscape:cy="183.59522"
     inkscape:document-units="px"
     inkscape:current-layer="layer1"
     showgrid="false"
     units="px"
     inkscape:window-width="1920"
     inkscape:window-height="1009"
     inkscape:window-x="-8"
     inkscape:window-y="-8"
     inkscape:window-maximized="1"
     borderlayer="false"
     inkscape:showpageshadow="2"
     inkscape:pagecheckerboard="0"
     inkscape:deskcolor="#d1d1d1" />
  <metadata
     id="metadata4178">
    <rdf:RDF>
      <cc:Work
         rdf:about="">
        <dc:format>image/svg+xml</dc:format>
        <dc:type
           rdf:resource="http://purl.org/dc/dcmitype/StillImage" />
      </cc:Work>
    </rdf:RDF>
  </metadata>
  <g
     inkscape:label="Calque 1"
     inkscape:groupmode="layer"
     id="layer1"
     transform="translate(0,-752.36211)">
    <path
       style="opacity:1;fill:#000000;fill-opacity:1;fill-rule:nonzero"
       d="m 295.94291,1044.2377 c -0.0124,-5.6351 -0.63098,-11.4314 -1.84872,-17.414 -2.57777,-12.6643 -7.45201,-24.5721 -17.12168,-41.8368 l -5.74281,-10.25551 0.75672,-17.89067 c 0.99048,-23.40774 1.24944,-25.05488 4.93169,-31.45342 21.68494,-37.68022 24.56097,-69.39597 8.84173,-97.50054 -7.4881,-13.3881 -22.89905,-28.72206 -40.16063,-39.96241 -18.69734,-12.1753 -40.47434,-21.62733 -63.55441,-27.58207 -18.05068,-4.65708 -17.063,-4.57319 -58.20342,-4.8578 -50.410636,-0.34853 -56.82221,0.25035 -69.573829,6.514 -8.030161,3.94443 -13.144682,7.8796 -17.35075,13.34675 -3.41393,4.43702 -7.858227,12.88198 -9.00677,17.11383 -2.431056,8.95629 1.500799,22.86669 10.355736,36.63609 9.704757,15.09086 25.704925,30.85196 47.58488,46.91117 a 28.450401,28.450401 0 0 1 15.687213,-4.73728 28.450401,28.450401 0 0 1 28.45291,28.44749 28.450401,28.450401 0 0 1 -28.44945,28.4529 28.450401,28.450401 0 0 1 -5.451203,-0.53678 l 0.002,27.46485 0.001,16.99218 a 28.450401,28.450401 0 0 1 5.693323,-0.60581 28.450401,28.450401 0 0 1 28.45095,28.44748 28.450401,28.450401 0 0 1 -28.44749,28.45285 28.450401,28.450401 0 0 1 -6.830133,-0.8687 l -0.7031,0.4551 c -5.81417,3.7583 -22.966185,17.1507 -29.359934,22.9256 -18.58588,16.7869 -34.362169,38.8735 -37.362052,52.307 -3.835657,17.1767 9.420808,37.5071 30.05553,46.0958 12.623219,5.2542 25.163306,6.43 62.262079,5.84 40.83346,-0.6494 49.1081,-1.5399 69.68313,-7.5003 28.05581,-8.1276 52.43161,-20.8456 71.60321,-37.3579 23.50902,-20.248 34.85844,-41.6244 34.80458,-66.0431 z m -44.74313,16.6355 c 0.004,0.6138 -0.0184,1.2355 -0.0682,1.8633 -0.7872,9.9226 -8.6592,17.0103 -18.8935,17.0109 -8.1204,5e-4 -15.02835,-4.6152 -17.73509,-11.8485 -1.39763,-3.7349 -1.65087,-9.0193 -0.60429,-12.6308 1.02579,-3.5406 4.80082,-8.4705 7.9857,-10.4302 4.31814,-2.6569 9.38225,-3.5823 14.13461,-2.5829 9.10905,1.9155 15.12147,9.4119 15.18082,18.6182 z M 242.3424,868.68237 c -0.059,4.03564 -1.94826,8.05582 -5.31969,10.28938 -2.64339,1.75103 -2.89768,1.78492 -15.61707,1.98923 l -12.92968,0.20781 7.4e-4,12.125 c 6.6e-4,10.92432 -0.13668,12.41083 -1.39362,15.0079 -4.27666,8.83565 -17.5647,8.94819 -22.03514,0.18689 -1.17724,-2.30701 -1.32251,-3.96061 -1.32318,-14.99601 l -7.5e-4,-12.40235 -12.40234,7.5e-4 c -14.2445,8.7e-4 -16.28798,-0.56625 -19.49057,-5.40506 -3.66794,-5.5421 -2.41906,-13.07583 2.83099,-17.08416 l 2.52724,-1.92789 13.22849,-0.20783 13.22656,-0.20589 0.20623,-13.22852 0.20427,-13.22853 1.93539,-2.53332 c 5.46356,-7.15808 17.10948,-6.26949 21.13096,1.612 1.21204,2.37517 1.3518,3.92752 1.35247,15.0507 l 7.6e-4,12.40234 12.40235,-7.5e-4 c 14.26789,-8.7e-4 16.28536,0.56301 19.51986,5.44998 1.35721,2.05062 1.98114,4.47693 1.94573,6.89833 z m -8.53971,150.06103 c 0.0619,4.8776 -1.82215,9.4996 -5.55779,13.2503 -9.49772,9.5362 -25.21977,6.7959 -30.89291,-5.3848 -2.79696,-6.0055 -1.91646,-14.2088 2.09062,-19.4631 8.47932,-11.1183 26.09566,-9.6521 32.12711,2.6739 1.45736,2.9782 2.19583,5.9971 2.23297,8.9237 z m -26.03346,60.2047 c -0.0771,3.0493 -0.85419,6.0975 -2.34125,8.8302 -3.43842,6.3183 -9.12219,9.6074 -16.69669,9.6593 -3.82849,0.026 -5.41552,-0.3129 -8.50011,-1.8218 -4.07862,-1.9951 -6.43759,-4.3713 -8.67436,-8.7338 -1.76891,-3.4499 -2.28599,-11.0668 -0.9872,-14.539 3.0097,-8.0458 9.46838,-12.732 17.65546,-12.8097 6.9241,-0.066 12.75663,2.8929 16.40286,8.3213 2.1837,3.251 3.24046,7.173 3.14129,11.0935 z m -18.78756,-39.6219 c -0.2233,9.9491 -8.27387,18.6012 -19.32895,18.5344 -7.6371,-0.046 -13.25856,-3.5314 -16.65297,-10.3232 -1.692,-3.3858 -2.04044,-4.8595 -1.99465,-8.5038 0.0971,-8.157 3.55476,-13.8416 10.47746,-17.2292 9.57371,-4.6846 21.44765,-0.5217 25.73883,9.0219 1.27076,2.8261 1.8228,5.7141 1.76028,8.4999 z"
       id="path4177" />
    <text
       xml:space="preserve"
       style="font-style:normal;font-variant:normal;font-weight:normal;font-stretch:normal;line-height:0%;font-family:'Tw Cen MT Condensed';-inkscape-font-specification:'Tw Cen MT Condensed, ';letter-spacing:0px;word-spacing:0px;fill:#000000;fill-opacity:1;stroke:none;stroke-width:1px;stroke-linecap:butt;stroke-linejoin:miter;stroke-opacity:1"
       x="125.76399"
       y="791.23767"
       id="text4146"><tspan
         sodipodi:role="line"
         id="tspan4148"
         x="125.76399"
         y="791.23767"
         style="font-size:40px;line-height:1.25"> </tspan></text>
    <text
       xml:space="preserve"
       style="font-style:normal;font-variant:normal;font-weight:normal;font-stretch:normal;line-height:0%;font-family:'Tw Cen MT Condensed Extra Bold';-inkscape-font-specification:'Tw Cen MT Condensed Extra Bold, ';letter-spacing:0px;word-spacing:0px;fill:#000000;fill-opacity:1;stroke:none;stroke-width:1px;stroke-linecap:butt;stroke-linejoin:miter;stroke-opacity:1"
       x="128.28937"
       y="772.04474"
       id="text4150"><tspan
         sodipodi:role="line"
         id="tspan4152"
         x="128.28937"
         y="772.04474"
         style="font-size:40px;line-height:1.25"> </tspan></text>
    <text
       xml:space="preserve"
       style="font-style:normal;font-variant:normal;font-weight:normal;font-stretch:normal;line-height:0%;font-family:'Arial Rounded MT Bold';-inkscape-font-specification:'Arial Rounded MT Bold, ';letter-spacing:0px;word-spacing:0px;fill:#000000;fill-opacity:1;stroke:none;stroke-width:1px;stroke-linecap:butt;stroke-linejoin:miter;stroke-opacity:1"
       x="115.15739"
       y="791.23767"
       id="text4154"><tspan
         sodipodi:role="line"
         id="tspan4156"
         x="115.15739"
         y="791.23767"
         style="font-size:40px;line-height:1.25"> </tspan></text>
    <text
       xml:space="preserve"
       style="font-style:normal;font-variant:normal;font-weight:normal;font-stretch:normal;line-height:0%;font-family:'Eras Bold ITC';-inkscape-font-specification:'Eras Bold ITC';letter-spacing:0px;word-spacing:0px;fill:#000000;fill-opacity:1;stroke:none;stroke-width:1px;stroke-linecap:butt;stroke-linejoin:miter;stroke-opacity:1"
       x="841.68176"
       y="-340.84796"
       id="text4158"
       transform="rotate(89.996519)"><tspan
         sodipodi:role="line"
         id="tspan4160"
         x="841.68176"
         y="-340.84796"
         style="font-size:40px;line-height:1.25"> </tspan></text>
    <text
       xml:space="preserve"
       style="font-style:normal;font-variant:normal;font-weight:bold;font-stretch:normal;line-height:0%;font-family:sans-serif;-inkscape-font-specification:'sans-serif Bold';letter-spacing:0px;word-spacing:0px;fill:#000000;fill-opacity:1;stroke:none;stroke-width:1px;stroke-linecap:butt;stroke-linejoin:miter;stroke-opacity:1"
       x="848.24774"
       y="-348.9292"
       id="text4162"
       transform="rotate(89.996519)"><tspan
         sodipodi:role="line"
         id="tspan4164"
         x="848.24774"
         y="-348.9292"
         style="font-size:40px;line-height:1.25"> </tspan></text>
    <text
       xml:space="preserve"
       style="font-style:normal;font-weight:normal;line-height:0%;font-family:sans-serif;letter-spacing:0px;word-spacing:0px;fill:#000000;fill-opacity:1;stroke:none;stroke-width:1px;stroke-linecap:butt;stroke-linejoin:miter;stroke-opacity:1"
       x="852.28839"
       y="-349.93933"
       id="text4166"
       transform="rotate(89.996519)"><tspan
         sodipodi:role="line"
         id="tspan4168"
         x="852.28839"
         y="-349.93933"
         style="font-style:normal;font-variant:normal;font-weight:bold;font-stretch:normal;font-size:40px;line-height:1.25;font-family:sans-serif;-inkscape-font-specification:'sans-serif Bold'"> </tspan></text>
    <text
       xml:space="preserve"
       style="font-style:normal;font-weight:normal;line-height:0%;font-family:sans-serif;letter-spacing:0px;word-spacing:0px;fill:#000000;fill-opacity:1;stroke:none;stroke-width:1px;stroke-linecap:butt;stroke-linejoin:miter;stroke-opacity:1"
       x="157.07872"
       y="787.70215"
       id="text4170"><tspan
         sodipodi:role="line"
         id="tspan4172"
         x="157.07872"
         y="787.70215"
         style="font-style:normal;font-variant:normal;font-weight:normal;font-stretch:normal;font-size:40px;line-height:1.25;font-family:sans-serif;-inkscape-font-specification:sans-serif"> </tspan></text>
    <text
       xml:space="preserve"
       style="font-style:normal;font-weight:normal;line-height:0%;font-family:sans-serif;letter-spacing:0px;word-spacing:0px;fill:#000000;fill-opacity:1;stroke:none;stroke-width:1px;stroke-linecap:butt;stroke-linejoin:miter;stroke-opacity:1"
       x="854.30865"
       y="-348.9292"
       id="text4178"
       transform="rotate(89.996519)"><tspan
         sodipodi:role="line"
         id="tspan4180"
         x="854.30865"
         y="-348.9292"
         style="font-size:40px;line-height:1.25"> </tspan></text>
    <path
       style="opacity:1;fill:#000000;fill-opacity:0.994736;fill-rule:nonzero;stroke:#000000;stroke-width:0.938815;stroke-opacity:1"
       d="m 137.88943,999.95625 c 0.013,-10.08504 -3.82206,-18.64193 -11.60704,-25.91137 -4.00113,-3.73632 -9.97152,-7.01184 -15.3423,-8.41899 -4.22237,-1.10615 -12.92864,-1.08365 -17.042973,0.044 -13.71277,3.7582 -23.745812,14.48222 -26.336182,28.15004 -1.952974,10.30637 1.379732,22.08357 8.4315,29.78657 4.435202,4.8448 5.878382,5.7342 14.678282,9.0596 l 8.181833,3.0933 5.21678,-0.2269 c 3.96599,-0.1713 6.12358,-0.5308 9.00772,-1.5005 14.5565,-4.8944 23.99718,-17.1091 24.75977,-32.0387 0.0351,-0.686 0.0517,-1.3647 0.0526,-2.03705 z m -7.6699,0.34815 a 28.450401,28.450401 0 0 1 -28.44944,28.4529 28.450401,28.450401 0 0 1 -28.452901,-28.4495 28.450401,28.450401 0 0 1 28.449441,-28.45283 28.450401,28.450401 0 0 1 28.4529,28.44943 z"
       id="path4207" />
    <path
       style="opacity:1;fill:#000000;fill-opacity:0.994736;fill-rule:nonzero;stroke:#000000;stroke-width:0.938815;stroke-opacity:1"
       d="m 137.64311,899.74146 c 0.013,-10.08507 -3.82402,-18.64001 -11.60899,-25.90946 -4.00113,-3.73631 -9.97153,-7.01378 -15.34231,-8.42094 -4.22237,-1.10616 -12.928543,-1.08366 -17.042973,0.044 -13.71267,3.75819 -23.746211,14.48417 -26.33618,28.15199 -1.953374,10.30645 1.381781,22.08166 8.433449,29.78464 4.435301,4.84483 5.876131,5.73424 14.676331,9.05966 l 8.183793,3.09325 5.21482,-0.22493 c 3.96589,-0.17128 6.12554,-0.53078 9.00968,-1.50054 14.55661,-4.89435 23.99522,-17.10904 24.75782,-32.03862 0.0351,-0.68599 0.0537,-1.36672 0.0546,-2.03906 z m -7.78707,0.56297 a 28.450401,28.450401 0 0 1 -28.44944,28.4529 28.450401,28.450401 0 0 1 -28.450956,-28.44944 28.450401,28.450401 0 0 1 28.447496,-28.4529 28.450401,28.450401 0 0 1 28.4529,28.44944 z"
       id="path4207-7" />
    <path
       style="opacity:1;fill:#ffffff;fill-opacity:0.994736;fill-rule:nonzero;stroke:none;stroke-opacity:1"
       d="m 27.425444,1105.5652 c 0.913378,-6.2889 4.565538,-14.1847 11.027982,-23.842 10.959545,-16.3776 24.068597,-29.502 46.991461,-47.0464 l 3.21533,-2.4609 -3.64898,-1.6899 c -4.59449,-2.1278 -6.89854,-3.9511 -10.139799,-8.0239 -6.857804,-8.6173 -9.601538,-20.3752 -7.084745,-30.36076 1.74082,-6.90683 4.600963,-11.96062 9.558484,-16.88949 4.72828,-4.70097 9.13401,-7.37591 15.44415,-9.37695 l 3.53546,-1.12115 0.1329,-14.62679 c 0.10292,-11.32565 -0.0113,-14.73767 -0.50598,-15.11805 -0.3514,-0.27019 -3.42379,-1.56821 -6.82755,-2.8845 -3.40376,-1.31629 -7.2677,-3.1332 -8.58655,-4.03757 -5.437542,-3.72872 -11.137597,-12.53878 -12.957682,-20.02748 -1.027317,-4.22687 -1.049327,-12.45942 -0.04359,-16.32149 1.747072,-6.70914 5.375902,-12.97843 10.097042,-17.44404 1.55818,-1.47383 2.76336,-2.72641 2.6782,-2.78352 -0.0852,-0.0571 -1.97321,-1.55549 -4.195653,-3.32974 -7.515007,-5.99953 -14.619089,-12.45629 -21.466928,-19.51088 -13.575039,-13.9849 -21.488221,-26.35913 -25.605732,-40.04095 -1.035199,-3.43981 -1.312493,-5.46788 -1.351381,-9.88369 -0.04682,-5.31972 0.02785,-5.73082 1.758322,-9.67323 5.625552,-12.81657 12.197195,-20.16912 23.073222,-25.81506 9.662465,-5.01595 15.391811,-6.40416 29.64655,-7.1833 19.225853,-1.05084 77.639963,-0.23741 85.450963,1.18993 6.01133,1.09848 19.10663,4.48724 26.67647,6.90326 42.75825,13.64689 78.93337,39.68041 92.63899,66.66792 13.57064,26.7217 10.94586,55.39771 -8.32408,90.94136 -5.80265,10.70307 -5.80463,10.71385 -6.97987,38.0035 l -0.64953,15.08219 4.30047,7.64602 c 10.30644,18.32426 16.24461,32.73976 18.85745,45.77836 0.97409,4.8608 1.16535,7.4148 1.17249,15.6573 0.009,10.6486 -0.5876,15.0385 -3.07019,22.5821 -11.34147,34.462 -51.62671,66.073 -103.1621,80.9491 -20.21353,5.8347 -29.24572,6.7845 -70.2688,7.3887 -42.830502,0.6309 -55.703571,-1.3254 -70.014957,-10.64 -14.385109,-9.3626 -23.287787,-25.466 -21.371839,-38.658 z M 74.140966,907.26073 c 2.296091,8.89764 8.947771,16.25565 17.599651,19.46852 4.1864,1.55461 11.524573,1.94169 16.141453,0.85144 9.53576,-2.25182 17.35324,-9.43825 20.27129,-18.63493 3.17539,-10.00769 0.47292,-21.17052 -6.91322,-28.55577 -6.85055,-6.84971 -16.96056,-9.6657 -26.567603,-7.39998 -9.69699,2.28691 -18.216572,10.72151 -20.548697,20.34373 -0.95613,3.94494 -0.948461,10.1852 0.01715,13.92699 h 2e-5 z m 0.541196,100.83557 c 2.022911,7.2567 7.627305,14.0108 14.322705,17.261 4.5154,2.1919 7.81524,2.9407 12.957853,2.9404 7.6821,-5e-4 13.94348,-2.6488 19.66979,-8.3196 11.13816,-11.0302 11.13711,-28.3237 -0.002,-39.46185 -6.04868,-6.04794 -13.11456,-8.67944 -21.91271,-8.1608 -17.653263,1.04065 -29.853188,18.45754 -25.035238,35.74085 z M 150.18994,872.78219 c 1.06437,3.12212 3.31598,5.85155 5.84487,7.08524 2.28344,1.11395 3.0599,1.18537 14.86535,1.36755 l 12.45607,0.1922 0.1762,12.44482 c 0.19998,14.12528 0.34524,14.74774 4.24193,18.17732 6.12145,5.38765 15.67192,3.57587 19.57571,-3.71364 1.00533,-1.87723 1.0946,-2.90076 1.25992,-14.44647 l 0.17794,-12.42612 12.50069,-0.27254 c 10.45688,-0.22799 12.78243,-0.4149 14.22397,-1.14322 2.39872,-1.21192 4.40453,-3.17767 5.66701,-5.55381 1.46473,-2.7568 1.53087,-8.7407 0.12785,-11.56797 -1.35401,-2.72854 -3.94622,-5.18727 -6.20995,-5.89017 -1.11682,-0.34679 -6.95017,-0.69387 -14.11342,-0.83975 l -12.20982,-0.24865 -0.16532,-12.44402 c -0.14484,-10.90134 -0.28165,-12.67796 -1.10363,-14.33115 -1.97266,-3.96745 -5.72744,-6.46307 -10.30871,-6.8517 -4.08562,-0.34657 -6.89568,0.6824 -10.15996,3.72032 l -2.83684,2.64013 -0.32497,5.23056 c -0.17873,2.87681 -0.34882,9.03757 -0.37798,13.69059 l -0.053,8.46003 -8.71257,0.0511 c -4.79191,0.0281 -10.95248,0.19897 -13.69017,0.37965 l -4.97761,0.32849 -2.62876,2.82493 c -1.44583,1.55372 -2.87594,3.59936 -3.17803,4.54588 -0.746,2.33742 -0.77837,6.50299 -0.0668,8.59036 z m 2.45258,174.52261 c 2.0004,4.0628 5.34021,7.4752 8.98394,9.1794 2.5262,1.1814 3.52401,1.3515 7.94005,1.3536 4.62909,0 5.33331,-0.1314 8.43504,-1.6011 6.74422,-3.1955 10.52753,-8.7669 10.91021,-16.0665 0.26044,-4.9678 -0.65159,-8.6049 -3.05396,-12.179 -6.51613,-9.6943 -21.42541,-11.0152 -29.78967,-2.6392 -5.42932,5.4369 -6.90412,14.888 -3.42561,21.9528 z m 18.77806,39.6381 c 1.77446,3.8306 4.31598,6.5168 8.11422,8.5762 3.07942,1.6696 3.32537,1.7166 8.98508,1.7162 5.55957,-3e-4 5.96958,-0.074 9.19634,-1.6632 13.76374,-6.7769 13.51673,-27.906 -0.4007,-34.2766 -8.99847,-4.119 -19.22682,-1.5656 -24.40908,6.0934 -2.65878,3.9294 -3.10224,5.6478 -2.94521,11.4123 0.12147,4.4588 0.35383,5.7552 1.45935,8.1417 z m 24.90467,-62.372 c 1.03559,3.4865 4.22707,7.7493 7.4267,9.9199 9.81947,6.6613 23.03468,3.0895 28.32027,-7.6544 1.50007,-3.0491 1.63687,-3.7313 1.6366,-8.1609 -2.8e-4,-4.5739 -0.10283,-5.041 -1.90867,-8.694 -2.13653,-4.3219 -4.52034,-6.6845 -8.93272,-8.8532 -2.51329,-1.23525 -3.33445,-1.37315 -8.10012,-1.36085 -4.71531,0.012 -5.61337,0.1647 -8.09997,1.37525 -7.2922,3.5502 -10.93498,9.3499 -11.04662,17.5874 -0.0247,1.8247 0.29231,4.4531 0.70453,5.8408 z m 18.5509,44.7304 c 1.69918,3.6752 4.95671,6.9259 8.76619,8.7477 2.36717,1.132 3.91415,1.4806 7.3419,1.6544 5.18345,0.2628 8.75617,-0.6175 12.37334,-3.0488 11.0181,-7.406 10.51549,-25.2638 -0.90306,-32.0859 -7.34248,-4.3868 -16.84587,-3.6099 -22.78186,1.8623 -5.12826,4.7277 -6.48598,7.9595 -6.27748,14.9424 0.12506,4.1883 0.37796,5.5421 1.48097,7.9279 z"
       id="path4358"
       inkscape:connector-curvature="0" />
  </g>
</svg>
