<?xml version="1.0" encoding="UTF-8" standalone="no"?>
<!-- Created with Inkscape (http://www.inkscape.org/) -->

<svg
   width="128mm"
   height="297mm"
   viewBox="0 0 128 297"
   version="1.1"
   id="svg1"
   inkscape:version="1.4.2 (f4327f4, 2025-05-13)"
   sodipodi:docname="colecovision.svg"
   xmlns:inkscape="http://www.inkscape.org/namespaces/inkscape"
   xmlns:sodipodi="http://sodipodi.sourceforge.net/DTD/sodipodi-0.dtd"
   xmlns="http://www.w3.org/2000/svg"
   xmlns:svg="http://www.w3.org/2000/svg">
  <sodipodi:namedview
     id="namedview1"
     pagecolor="#ffffff"
     bordercolor="#000000"
     borderopacity="0.25"
     inkscape:showpageshadow="2"
     inkscape:pageopacity="0.0"
     inkscape:pagecheckerboard="0"
     inkscape:deskcolor="#d1d1d1"
     inkscape:document-units="mm"
     inkscape:zoom="0.73851712"
     inkscape:cx="397.41801"
     inkscape:cy="561.25984"
     inkscape:window-width="1920"
     inkscape:window-height="1009"
     inkscape:window-x="-8"
     inkscape:window-y="-8"
     inkscape:window-maximized="1"
     inkscape:current-layer="layer1" />
  <defs
     id="defs1" />
  <g
     inkscape:label="Camada 1"
     inkscape:groupmode="layer"
     id="layer1">
    <g
       id="g95"
       transform="matrix(-0.00184556,0.81392889,-0.81392889,-0.00184556,280.5867,-20.676908)">
		<path
   fill="#0b0b0b"
   d="M 381.2,340.6 H 161.7 c -4.8,0 -8.6,-3.9 -8.6,-8.6 V 199.5 c 0,-4.8 3.9,-8.6 8.6,-8.6 h 219.5 c 4.8,0 8.6,3.9 8.6,8.6 V 332 c 0,4.7 -3.8,8.6 -8.6,8.6 z"
   id="path18" />

		<path
   fill="#282828"
   d="M 388.8,198.5 V 333 c 0,3.6 -3,6.6 -6.6,6.6 H 160.7 c -3.6,0 -6.6,-3 -6.6,-6.6 V 198.5 c 0,-3.6 3,-6.6 6.6,-6.6 h 221.5 c 3.7,-0.1 6.6,2.9 6.6,6.6 z"
   id="path19" />

		<rect
   x="113.3"
   y="337.79999"
   fill="#989d9b"
   width="37.700001"
   height="4"
   id="rect19" />

		<rect
   x="111.8"
   y="197.7"
   fill="#0b0b0b"
   width="46"
   height="136.10001"
   id="rect20" />

		<rect
   x="112.6"
   y="198.5"
   fill="#282828"
   width="44.5"
   height="134.60001"
   id="rect21" />

		<rect
   x="113.3"
   y="199.2"
   fill="#0e0e0e"
   width="43"
   height="133.10001"
   id="rect22" />

		<path
   fill="#0b0b0b"
   d="m 105.4,340.7 h -70 c -4.3,0 -7.9,-3.5 -7.9,-7.9 V 198.7 c 0,-4.3 3.5,-7.9 7.9,-7.9 h 70 c 4.3,0 7.9,3.5 7.9,7.9 v 134.1 c 0,4.4 -3.5,7.9 -7.9,7.9 z"
   id="path22" />

		<path
   fill="#282828"
   d="m 113.3,198.2 v 135.1 c 0,3.8 -3.1,6.9 -6.9,6.9 H 34.9 c -3.8,0 -6.9,-3.1 -6.9,-6.9 V 198.2 c 0,-3.8 3.1,-6.9 6.9,-6.9 h 71.5 c 3.8,0.1 6.9,3.1 6.9,6.9 z"
   id="path23" />

		<path
   fill="#0e0e0e"
   d="m 113.3,199.8 v 132 c 0,3.8 -3.1,6.9 -6.9,6.9 h -70 c -3.8,0 -6.9,-3.1 -6.9,-6.9 v -132 c 0,-3.8 3.1,-6.9 6.9,-6.9 h 70 c 3.8,0 6.9,3.1 6.9,6.9 z"
   id="path24" />

		<path
   fill="#121212"
   d="m 102.9,265.8 c 0,19.3 -15.7,35 -35,35 -19.3,0 -35,-15.7 -35,-35 0,-19.3 15.7,-35 35,-35 19.3,0 35,15.7 35,35 z"
   id="path25" />

		<path
   fill="#0a0a0a"
   d="m 101.4,265.8 c 0,18.5 -15,33.5 -33.5,33.5 -18.5,0 -33.5,-15 -33.5,-33.5 0,-18.5 15,-33.5 33.5,-33.5 18.5,0 33.5,15 33.5,33.5 z"
   id="path26" />

		<rect
   x="113.3"
   y="333.79999"
   fill="#8e8f8e"
   width="37.700001"
   height="4"
   id="rect26" />

		<rect
   x="113.3"
   y="189.7"
   fill="#989d9b"
   width="37.700001"
   height="4"
   id="rect27" />

		<rect
   x="113.3"
   y="193.7"
   fill="#8e8f8e"
   width="37.700001"
   height="4"
   id="rect28" />

		<path
   fill="#0e0e0e"
   d="m 388.8,199.4 v 132.7 c 0,3.6 -3,6.6 -6.6,6.6 H 162.1 c -3.6,0 -6.6,-3 -6.6,-6.6 V 199.4 c 0,-3.6 3,-6.6 6.6,-6.6 h 220.1 c 3.7,0 6.6,3 6.6,6.6 z"
   id="path28" />

		<path
   fill="#181818"
   d="m 152.8,328.9 h -36 c -1.3,0 -2.4,-1.1 -2.4,-2.4 V 205.3 c 0,-1.3 1.1,-2.4 2.4,-2.4 h 36 l 7.4,-9.4 h 220.1 c 1.5,0 2.7,1.2 2.7,2.7 v 139.4 c 0,1.5 -1.2,2.7 -2.7,2.7 H 160.2 Z"
   id="path29" />

		<path
   fill="#282627"
   d="m 240.4,301.7 v 12.1 c 0,6.6 -5.4,12 -12,12 H 214 c -6.6,0 -12,-5.4 -12,-12 v -12.1 c 0,-6.6 5.4,-12 12,-12 h 14.4 c 6.6,0 12,5.4 12,12 z"
   id="path30" />

		<path
   fill="#939393"
   d="m 240.4,302.6 v 10.5 c 0,6.6 -5.4,12 -12,12 h -11.1 c -6.6,0 -12,-5.4 -12,-12 v -10.5 c 0,-6.6 5.4,-12 12,-12 h 11.1 c 6.6,0 12,5.4 12,12 z"
   id="path31" />

		<path
   fill="#b3b3b3"
   d="M 240.4,302.5 V 313 c 0,6.6 -5.4,12 -12,12 h -7.9 c -6.6,0 -12,-5.4 -12,-12 v -10.5 c 0,-6.6 5.4,-12 12,-12 h 7.9 c 6.6,0 12,5.4 12,12 z"
   id="path32" />

		<g
   id="g33">
			<path
   d="m 218.4,307.2 v 0 l 1.5,2.9 -1.7,0.4 -1.9,-3.6 V 305 h 16.3 v 2.1 h -14.2 z"
   id="path33" />

		</g>

		<g
   id="g36">
			<path
   fill="#282627"
   d="m 240.4,259.7 v 12.1 c 0,6.6 -5.4,12 -12,12 H 214 c -6.6,0 -12,-5.4 -12,-12 v -12.1 c 0,-6.6 5.4,-12 12,-12 h 14.4 c 6.6,0 12,5.4 12,12 z"
   id="path34" />

			<path
   fill="#939393"
   d="m 240.4,260.6 v 10.5 c 0,6.6 -5.4,12 -12,12 h -11.1 c -6.6,0 -12,-5.4 -12,-12 v -10.5 c 0,-6.6 5.4,-12 12,-12 h 11.1 c 6.6,0 12,5.4 12,12 z"
   id="path35" />

			<path
   fill="#b3b3b3"
   d="m 240.4,260.6 v 10.5 c 0,6.6 -5.4,12 -12,12 h -7.9 c -6.6,0 -12,-5.4 -12,-12 v -10.5 c 0,-6.6 5.4,-12 12,-12 h 7.9 c 6.6,0 12,5.4 12,12 z"
   id="path36" />

		</g>

		
			<text
   transform="rotate(-90,250.42105,22.29115)"
   font-family="MyriadHebrew-Regular"
   font-size="27.0401px"
   id="text36">1</text>

		<path
   fill="#282627"
   d="M 240.4,259.9 V 272 c 0,6.6 -5.4,12 -12,12 H 214 c -6.6,0 -12,-5.4 -12,-12 v -12.1 c 0,-6.6 5.4,-12 12,-12 h 14.4 c 6.6,0 12,5.4 12,12 z"
   id="path37" />

		<path
   fill="#939393"
   d="m 240.4,260.7 v 10.5 c 0,6.6 -5.4,12 -12,12 h -11.1 c -6.6,0 -12,-5.4 -12,-12 v -10.5 c 0,-6.6 5.4,-12 12,-12 h 11.1 c 6.6,0 12,5.4 12,12 z"
   id="path38" />

		<path
   fill="#b3b3b3"
   d="M 240.4,260.5 V 271 c 0,6.6 -5.4,12 -12,12 h -7.9 c -6.6,0 -12,-5.4 -12,-12 v -10.5 c 0,-6.6 5.4,-12 12,-12 h 7.9 c 6.6,0 12,5.4 12,12 z"
   id="path39" />

		<g
   id="g40">
			<path
   d="m 232.7,271 h -1.4 l -1.7,-1.8 c -4,-4.1 -6.1,-6 -8.5,-6.1 -1.7,0 -3.2,0.8 -3.2,3.2 0,1.5 0.8,2.7 1.4,3.5 l -1.6,0.7 c -1,-1.1 -1.7,-2.7 -1.7,-4.6 0,-3.5 2.4,-5 4.7,-5 3,0 5.4,2.2 8.7,5.6 l 1.2,1.3 v 0 -7.3 h 1.8 V 271 Z"
   id="path40" />

		</g>

		<path
   fill="#282627"
   d="m 240.4,218 v 12.1 c 0,6.6 -5.4,12 -12,12 H 214 c -6.6,0 -12,-5.4 -12,-12 V 218 c 0,-6.6 5.4,-12 12,-12 h 14.4 c 6.6,0 12,5.4 12,12 z"
   id="path41" />

		<path
   fill="#939393"
   d="m 240.4,218.9 v 10.5 c 0,6.6 -5.4,12 -12,12 h -11.1 c -6.6,0 -12,-5.4 -12,-12 v -10.5 c 0,-6.6 5.4,-12 12,-12 h 11.1 c 6.6,0 12,5.4 12,12 z"
   id="path42" />

		<path
   fill="#b3b3b3"
   d="m 240.4,218.6 v 10.5 c 0,6.6 -5.4,12 -12,12 h -7.9 c -6.6,0 -12,-5.4 -12,-12 v -10.5 c 0,-6.6 5.4,-12 12,-12 h 7.9 c 6.6,0 12,5.4 12,12 z"
   id="path43" />

		<g
   id="g44">
			<path
   d="m 230.1,228.4 c 0.4,-0.6 1,-2.1 1,-3.6 0,-2.8 -1.8,-3.7 -3.2,-3.7 -2.3,0 -3.3,2.1 -3.3,4.2 v 1.2 H 223 v -1.2 c 0,-1.6 -0.8,-3.6 -2.8,-3.6 -1.3,0 -2.5,0.8 -2.5,2.9 0,1.3 0.6,2.6 1.1,3.3 l -1.6,0.6 c -0.6,-0.9 -1.3,-2.5 -1.3,-4.3 0,-3.2 1.9,-4.7 3.9,-4.7 1.7,0 3.1,1 3.9,3 v 0 c 0.4,-2 1.9,-3.6 4.2,-3.6 2.6,0 4.9,2.1 4.9,5.9 0,1.8 -0.6,3.4 -1.1,4.2 z"
   id="path44" />

		</g>

		<path
   fill="#282627"
   d="m 283.7,301.6 v 12.1 c 0,6.6 -5.4,12 -12,12 h -14.4 c -6.6,0 -12,-5.4 -12,-12 v -12.1 c 0,-6.6 5.4,-12 12,-12 h 14.4 c 6.6,0 12,5.4 12,12 z"
   id="path45" />

		<path
   fill="#939393"
   d="M 283.7,302.5 V 313 c 0,6.6 -5.4,12 -12,12 h -11.1 c -6.6,0 -12,-5.4 -12,-12 v -10.5 c 0,-6.6 5.4,-12 12,-12 h 11.1 c 6.6,0 12,5.4 12,12 z"
   id="path46" />

		<path
   fill="#b3b3b3"
   d="m 283.7,302.7 v 10.5 c 0,6.6 -5.4,12 -12,12 h -7.9 c -6.6,0 -12,-5.4 -12,-12 v -10.5 c 0,-6.6 5.4,-12 12,-12 h 7.9 c 6.6,0 12,5.4 12,12 z"
   id="path47" />

		<g
   id="g48">
			<path
   d="m 275.8,306.4 h -4.4 v 7.6 h -1.5 l -10.4,-7.3 v -2.4 h 10.1 V 302 h 1.7 v 2.3 h 4.4 v 2.1 z m -6.1,0 h -5.5 c -0.9,0 -1.7,0 -2.6,-0.1 v 0.1 c 1,0.5 1.7,0.9 2.4,1.4 l 5.6,4 v 0 -5.4 z"
   id="path48" />

		</g>

		<path
   fill="#282627"
   d="m 283.7,259.7 v 12.1 c 0,6.6 -5.4,12 -12,12 h -14.4 c -6.6,0 -12,-5.4 -12,-12 v -12.1 c 0,-6.6 5.4,-12 12,-12 h 14.4 c 6.6,0 12,5.4 12,12 z"
   id="path49" />

		<path
   fill="#939393"
   d="m 283.7,260.6 v 10.5 c 0,6.6 -5.4,12 -12,12 h -11.1 c -6.6,0 -12,-5.4 -12,-12 v -10.5 c 0,-6.6 5.4,-12 12,-12 h 11.1 c 6.6,0 12,5.4 12,12 z"
   id="path50" />

		<path
   fill="#b3b3b3"
   d="M 283.7,260.5 V 271 c 0,6.6 -5.4,12 -12,12 h -7.9 c -6.6,0 -12,-5.4 -12,-12 v -10.5 c 0,-6.6 5.4,-12 12,-12 h 7.9 c 6.6,0 12,5.4 12,12 z"
   id="path51" />

		<g
   id="g52">
			<path
   d="m 261.3,261 v 6.2 l 4.2,0.6 c 0,-0.4 -0.1,-0.7 -0.1,-1.3 0,-1.3 0.3,-2.5 0.9,-3.5 0.7,-1.3 2.2,-2.3 4.2,-2.3 3.2,0 5.6,2.5 5.6,6.1 0,1.8 -0.5,3.3 -1,4.1 l -1.7,-0.6 c 0.4,-0.7 0.9,-2 0.9,-3.5 0,-2.1 -1.4,-3.8 -3.5,-3.8 -2.1,0 -3.6,1.4 -3.6,4.7 0,0.9 0.1,1.7 0.2,2.3 l -7.8,-1.1 V 261 Z"
   id="path52" />

		</g>

		<path
   fill="#282627"
   d="M 283.7,217.9 V 230 c 0,6.6 -5.4,12 -12,12 h -14.4 c -6.6,0 -12,-5.4 -12,-12 v -12.1 c 0,-6.6 5.4,-12 12,-12 h 14.4 c 6.6,0 12,5.4 12,12 z"
   id="path53" />

		<path
   fill="#939393"
   d="m 283.7,218.8 v 10.5 c 0,6.6 -5.4,12 -12,12 h -11.1 c -6.6,0 -12,-5.4 -12,-12 v -10.5 c 0,-6.6 5.4,-12 12,-12 h 11.1 c 6.6,0 12,5.4 12,12 z"
   id="path54" />

		<path
   fill="#b3b3b3"
   d="m 283.7,218.6 v 10.5 c 0,6.6 -5.4,12 -12,12 h -7.9 c -6.6,0 -12,-5.4 -12,-12 v -10.5 c 0,-6.6 5.4,-12 12,-12 h 7.9 c 6.6,0 12,5.4 12,12 z"
   id="path55" />

		<g
   id="g56">
			<path
   d="m 261.1,219.9 c 0,0.5 0,1 0.1,1.7 0.6,3.5 3.1,5.3 5.8,5.7 v -0.1 c -1.1,-0.8 -1.9,-2.2 -1.9,-4 0,-2.9 2.1,-4.9 5.3,-4.9 3,0 5.7,2 5.7,5.4 0,3.5 -2.7,5.7 -6.9,5.7 -3.2,0 -5.7,-1.1 -7.3,-2.8 -1.3,-1.4 -2.2,-3.2 -2.4,-5.2 -0.1,-0.7 -0.2,-1.2 -0.1,-1.6 h 1.7 z m 9.4,0.7 c -2.3,0 -3.7,1.3 -3.7,3.4 0,1.3 0.8,2.6 2,3.2 0.3,0.1 0.6,0.2 1,0.2 2.7,0 4.7,-1.3 4.7,-3.6 -0.1,-2 -1.7,-3.2 -4,-3.2 z"
   id="path56" />

		</g>

		<path
   fill="#282627"
   d="m 326.9,301.6 v 12.1 c 0,6.6 -5.4,12 -12,12 h -14.4 c -6.6,0 -12,-5.4 -12,-12 v -12.1 c 0,-6.6 5.4,-12 12,-12 h 14.4 c 6.6,0 12,5.4 12,12 z"
   id="path57" />

		<path
   fill="#939393"
   d="M 326.9,302.5 V 313 c 0,6.6 -5.4,12 -12,12 h -11.1 c -6.6,0 -12,-5.4 -12,-12 v -10.5 c 0,-6.6 5.4,-12 12,-12 h 11.1 c 6.6,0 12,5.4 12,12 z"
   id="path58" />

		<path
   fill="#b3b3b3"
   d="M 326.9,302.5 V 313 c 0,6.6 -5.4,12 -12,12 H 307 c -6.6,0 -12,-5.4 -12,-12 v -10.5 c 0,-6.6 5.4,-12 12,-12 h 7.9 c 6.6,0 12,5.4 12,12 z"
   id="path59" />

		<g
   id="g60">
			<path
   d="m 302.8,302.6 h 1.5 l 14.8,7.1 v 2.3 l -14.4,-7.1 v 0 8 h -1.8 v -10.3 z"
   id="path60" />

		</g>

		<path
   fill="#282627"
   d="m 326.9,259.7 v 12.1 c 0,6.6 -5.4,12 -12,12 h -14.4 c -6.6,0 -12,-5.4 -12,-12 v -12.1 c 0,-6.6 5.4,-12 12,-12 h 14.4 c 6.6,0 12,5.4 12,12 z"
   id="path61" />

		<path
   fill="#939393"
   d="m 326.9,260.6 v 10.5 c 0,6.6 -5.4,12 -12,12 h -11.1 c -6.6,0 -12,-5.4 -12,-12 v -10.5 c 0,-6.6 5.4,-12 12,-12 h 11.1 c 6.6,0 12,5.4 12,12 z"
   id="path62" />

		<path
   fill="#b3b3b3"
   d="m 326.9,260.6 v 10.5 c 0,6.6 -5.4,12 -12,12 H 307 c -6.6,0 -12,-5.4 -12,-12 v -10.5 c 0,-6.6 5.4,-12 12,-12 h 7.9 c 6.6,0 12,5.4 12,12 z"
   id="path63" />

		<g
   id="g64">
			<path
   d="m 314.9,271.4 c -2,0 -3.5,-1.2 -4.4,-3.2 h -0.1 c -0.8,1.8 -2.2,2.6 -3.6,2.6 -2.6,0 -4.3,-2.2 -4.3,-5.1 0,-3.2 2,-4.7 4,-4.7 1.4,0 2.9,0.7 3.8,2.7 h 0.1 c 0.8,-2 2.3,-3.3 4.2,-3.3 2.9,0 4.7,2.4 4.7,5.6 0,3.3 -2,5.4 -4.4,5.4 z m -0.1,-8.8 c -2,0 -2.9,1.4 -3.5,3.6 0.5,1.9 1.8,2.9 3.4,2.9 1.6,0.1 3.1,-1.2 3.1,-3.3 -0.1,-1.9 -1.3,-3.2 -3,-3.2 z m -8.1,6.1 c 1.6,0 2.5,-1.2 3,-3.1 -0.5,-1.4 -1.5,-2.5 -3,-2.5 -1.3,0 -2.7,0.8 -2.7,2.8 0.1,1.8 1.3,2.8 2.7,2.8 z"
   id="path64" />

		</g>

		<path
   fill="#282627"
   d="M 326.9,217.9 V 230 c 0,6.6 -5.4,12 -12,12 h -14.4 c -6.6,0 -12,-5.4 -12,-12 v -12.1 c 0,-6.6 5.4,-12 12,-12 h 14.4 c 6.6,0 12,5.4 12,12 z"
   id="path65" />

		<path
   fill="#939393"
   d="m 326.9,218.8 v 10.5 c 0,6.6 -5.4,12 -12,12 h -11.1 c -6.6,0 -12,-5.4 -12,-12 v -10.5 c 0,-6.6 5.4,-12 12,-12 h 11.1 c 6.6,0 12,5.4 12,12 z"
   id="path66" />

		<path
   fill="#b3b3b3"
   d="m 326.9,218.9 v 10.5 c 0,6.6 -5.4,12 -12,12 H 307 c -6.6,0 -12,-5.4 -12,-12 v -10.5 c 0,-6.6 5.4,-12 12,-12 h 7.9 c 6.6,0 12,5.4 12,12 z"
   id="path67" />

		<g
   id="g68">
			<path
   d="m 317.5,228.3 c 0.1,-0.5 0,-1 -0.1,-1.8 -0.2,-1.3 -0.7,-2.5 -1.6,-3.4 -1,-1.1 -2.4,-1.9 -4.3,-2.2 v 0.1 c 1.1,0.9 1.8,2.2 1.8,3.9 0,2.9 -2.2,4.8 -5,4.8 -3.1,0 -5.8,-2.2 -5.8,-5.6 0,-3.3 2.7,-5.4 6.9,-5.4 3.6,0 6.1,1.2 7.6,2.8 1.2,1.3 2,3 2.2,4.7 0.1,0.8 0.2,1.5 0.1,2 h -1.8 z m -9.3,-0.8 c 2,0 3.5,-1.2 3.5,-3.2 0,-1.5 -0.8,-2.6 -1.7,-3.2 -0.2,-0.1 -0.4,-0.2 -0.8,-0.2 -2.8,0 -4.9,1.1 -4.9,3.4 -0.1,1.8 1.5,3.2 3.9,3.2 z"
   id="path68" />

		</g>

		<path
   fill="#282627"
   d="m 373.1,301.6 v 12.1 c 0,6.6 -5.4,12 -12,12 h -14.4 c -6.6,0 -12,-5.4 -12,-12 v -12.1 c 0,-6.6 5.4,-12 12,-12 h 14.4 c 6.6,0 12,5.4 12,12 z"
   id="path69" />

		<path
   fill="#2f3133"
   d="M 373.1,302.5 V 313 c 0,6.6 -5.4,12 -12,12 H 350 c -6.6,0 -12,-5.4 -12,-12 v -10.5 c 0,-6.6 5.4,-12 12,-12 h 11.1 c 6.6,0 12,5.4 12,12 z"
   id="path70" />

		<path
   fill="#36393b"
   d="M 373.1,302.5 V 313 c 0,6.6 -5.4,12 -12,12 h -7.9 c -6.6,0 -12,-5.4 -12,-12 v -10.5 c 0,-6.6 5.4,-12 12,-12 h 7.9 c 6.6,0 12,5.4 12,12 z"
   id="path71" />

		<g
   id="g72">
			<path
   fill="#f4f4f4"
   d="m 350,306.4 6,0.8 0.1,-0.1 -3.6,-4.7 2.3,-1.3 2.3,5.4 h 0.1 l 2.2,-5.6 2.4,1.4 -3.5,4.8 v 0.1 l 6,-0.6 -0.1,2.6 -5.9,-0.8 h -0.1 l 3.5,4.6 -2.3,1.3 -2.2,-5.3 h -0.1 l -2.3,5.5 -2.4,-1.4 3.4,-4.8 v -0.1 l -5.9,0.6 z"
   id="path72" />

		</g>

		<path
   fill="#282627"
   d="m 373.1,259.7 v 12.1 c 0,6.6 -5.4,12 -12,12 h -14.4 c -6.6,0 -12,-5.4 -12,-12 v -12.1 c 0,-6.6 5.4,-12 12,-12 h 14.4 c 6.6,0 12,5.4 12,12 z"
   id="path73" />

		<path
   fill="#939393"
   d="m 373.1,260.6 v 10.5 c 0,6.6 -5.4,12 -12,12 H 350 c -6.6,0 -12,-5.4 -12,-12 v -10.5 c 0,-6.6 5.4,-12 12,-12 h 11.1 c 6.6,0 12,5.4 12,12 z"
   id="path74" />

		<path
   fill="#b3b3b3"
   d="M 373.1,260.5 V 271 c 0,6.6 -5.4,12 -12,12 h -7.9 c -6.6,0 -12,-5.4 -12,-12 v -10.5 c 0,-6.6 5.4,-12 12,-12 h 7.9 c 6.6,0 12,5.4 12,12 z"
   id="path75" />

		<g
   id="g76">
			<path
   d="m 357,260.3 c 5.5,0 8.6,2.1 8.6,5.7 0,3.2 -3,5.3 -8.4,5.4 -5.5,0 -8.5,-2.4 -8.5,-5.7 0,-3.5 3.1,-5.4 8.3,-5.4 z m 0.2,8.8 c 4.2,0 6.6,-1.3 6.6,-3.3 0,-2.3 -2.6,-3.3 -6.8,-3.3 -4,0 -6.6,1 -6.6,3.3 0.1,1.9 2.4,3.3 6.8,3.3 z"
   id="path76" />

		</g>

		<path
   fill="#282627"
   d="m 373.1,218.4 v 12.1 c 0,6.6 -5.4,12 -12,12 h -14.4 c -6.6,0 -12,-5.4 -12,-12 v -12.1 c 0,-6.6 5.4,-12 12,-12 h 14.4 c 6.6,0 12,5.4 12,12 z"
   id="path77" />

		<path
   fill="#2f3133"
   d="m 373.1,219.3 v 10.5 c 0,6.6 -5.4,12 -12,12 H 350 c -6.6,0 -12,-5.4 -12,-12 v -10.5 c 0,-6.6 5.4,-12 12,-12 h 11.1 c 6.6,0 12,5.4 12,12 z"
   id="path78" />

		<path
   fill="#36393b"
   d="m 373.1,219.3 v 10.5 c 0,6.6 -5.4,12 -12,12 h -7.9 c -6.6,0 -12,-5.4 -12,-12 v -10.5 c 0,-6.6 5.4,-12 12,-12 h 7.9 c 6.6,0 12,5.4 12,12 z"
   id="path79" />

		<g
   id="g80">
			<path
   fill="#f4f4f4"
   d="m 365.3,228.4 -4.9,-0.7 v 2.1 h -1.5 v -2.3 l -3.6,-0.5 v 2.2 h -1.5 v -2.4 l -4.8,-0.7 v -1.5 l 4.8,0.6 v -2.6 l -4.8,-0.7 v -1.5 l 4.8,0.6 v -2 h 1.5 v 2.3 l 3.6,0.5 v -2.2 h 1.5 v 2.4 l 4.9,0.7 v 1.5 l -4.9,-0.7 v 2.6 l 4.9,0.7 z m -6.4,-4.9 -3.6,-0.5 v 2.6 l 3.6,0.5 z"
   id="path80" />

		</g>

		<rect
   x="154.10001"
   y="333.10001"
   fill="#282828"
   width="1.4"
   height="0.80000001"
   id="rect80" />

		<rect
   x="154.10001"
   y="197.7"
   fill="#282828"
   width="1.4"
   height="0.80000001"
   id="rect81" />

		<g
   id="g94">
			<path
   fill="#1c1c1c"
   d="m 141,237.8 v 56 c 0,4.1 -3.4,7.5 -7.5,7.5 v 0 c -4.1,0 -7.5,-3.4 -7.5,-7.5 v -56 c 0,-4.1 3.4,-7.5 7.5,-7.5 v 0 c 4.1,0 7.5,3.3 7.5,7.5 z"
   id="path81" />

			<g
   id="g93">
				<path
   fill="#171717"
   d="M 133.3,265.9"
   id="path82" />

				<path
   fill="#1b1b1b"
   d="M 133.3,265.9"
   id="path83" />

				<polygon
   fill="#232323"
   points="128.7,271.9 135.4,271.9 135.4,266.2 138.2,266.2 138.2,274.9 128.7,274.9 "
   id="polygon83" />

				<polygon
   fill="#0e0e0e"
   points="137.9,266.4 137.9,274.6 129,274.6 129,272.1 135.7,272.1 135.7,266.4 "
   id="polygon84" />

				<polygon
   fill="#232323"
   points="128.7,256.5 131.3,256.5 131.3,262.9 132.3,262.9 132.3,256.9 134.6,256.9 134.6,262.9 135.7,262.9 135.7,256.5 138.2,256.5 138.2,265.9 128.7,265.9 "
   id="polygon85" />

				<polygon
   fill="#0e0e0e"
   points="131,256.7 131,263.1 132.6,263.1 132.6,257.2 134.3,257.2 134.3,263.1 135.9,263.1 135.9,256.7 137.9,256.7 137.9,265.6 129,265.6 129,256.7 "
   id="polygon86" />

				<path
   fill="#232323"
   d="m 138,284 c 0,1.5 -1.3,2.8 -3,2.8 h -3.4 c -1.6,0 -3,-1.2 -3,-2.8 v -6.1 c 0,-1.5 1.3,-2.8 3,-2.8 h 3.4 c 1.6,0 3,1.2 3,2.8 z m -6.8,-1.2 c 0,0.7 0.6,1.2 1.3,1.2 h 1.7 c 0.7,0 1.3,-0.5 1.3,-1.2 v -3.7 c 0,-0.7 -0.6,-1.2 -1.3,-1.2 h -1.7 c -0.7,0 -1.3,0.5 -1.3,1.2 z"
   id="path86" />

				<path
   fill="#0e0e0e"
   d="m 129,277.8 v 6.1 c 0,1.4 1.2,2.5 2.7,2.5 h 3.4 c 1.5,0 2.7,-1.1 2.7,-2.5 v -6.1 c 0,-1.4 -1.2,-2.5 -2.7,-2.5 h -3.4 c -1.5,0 -2.7,1.2 -2.7,2.5 z m 5.2,-0.2 c 0.9,0 1.5,0.6 1.5,1.4 v 3.7 c 0,0.8 -0.7,1.4 -1.5,1.4 h -1.7 c -0.9,0 -1.5,-0.6 -1.5,-1.4 V 279 c 0,-0.8 0.7,-1.4 1.5,-1.4 z"
   id="path87" />

				<path
   fill="#232323"
   d="m 138,295.3 c 0,1.5 -1.3,2.6 -3,2.6 h -3.4 c -1.6,0 -3,-1.2 -3,-2.6 v -5.8 c 0,-1.5 1.3,-2.6 3,-2.6 h 0.7 v 2.7 h -0.2 c -0.6,0.1 -1,0.6 -1,1.1 v 3.5 c 0,0.6 0.6,1.1 1.3,1.1 h 1.7 c 0.7,0 1.3,-0.5 1.3,-1.1 v -3.5 c 0,-0.5 -0.4,-1 -1,-1.1 h -0.2 v -2.7 h 0.7 c 1.6,0 3,1.2 3,2.6 v 5.8 z"
   id="path88" />

				<path
   fill="#0e0e0e"
   d="m 134.6,289.3 c 0.7,0.1 1.2,0.7 1.2,1.3 v 3.5 c 0,0.8 -0.7,1.4 -1.5,1.4 h -1.7 c -0.9,0 -1.5,-0.6 -1.5,-1.4 v -3.5 c 0,-0.6 0.5,-1.2 1.2,-1.3 v -2.2 h -0.5 c -1.5,0 -2.7,1.1 -2.7,2.4 v 5.8 c 0,1.3 1.2,2.4 2.7,2.4 h 3.4 c 1.5,0 2.7,-1.1 2.7,-2.4 v -5.8 c 0,-1.3 -1.2,-2.4 -2.7,-2.4 h -0.5 v 2.2 z"
   id="path89" />

				<path
   fill="#232323"
   d="m 138,242.5 c 0,1.5 -1.3,2.8 -3,2.8 h -3.4 c -1.6,0 -3,-1.2 -3,-2.8 v -6.1 c 0,-1.5 1.3,-2.8 3,-2.8 h 3.4 c 1.6,0 3,1.2 3,2.8 z m -6.8,-1.2 c 0,0.7 0.6,1.2 1.3,1.2 h 1.7 c 0.7,0 1.3,-0.5 1.3,-1.2 v -3.7 c 0,-0.7 -0.6,-1.2 -1.3,-1.2 h -1.7 c -0.7,0 -1.3,0.5 -1.3,1.2 z"
   id="path90" />

				<path
   fill="#0e0e0e"
   d="m 129,236.4 v 6.1 c 0,1.4 1.2,2.5 2.7,2.5 h 3.4 c 1.5,0 2.7,-1.1 2.7,-2.5 v -6.1 c 0,-1.4 -1.2,-2.5 -2.7,-2.5 h -3.4 c -1.5,0 -2.7,1.1 -2.7,2.5 z m 5.2,-0.3 c 0.9,0 1.5,0.6 1.5,1.4 v 3.7 c 0,0.8 -0.7,1.4 -1.5,1.4 h -1.7 c -0.9,0 -1.5,-0.6 -1.5,-1.4 v -3.7 c 0,-0.8 0.7,-1.4 1.5,-1.4 z"
   id="path91" />

				<path
   fill="#232323"
   d="m 138,253.8 c 0,1.5 -1.3,2.6 -3,2.6 h -3.4 c -1.6,0 -3,-1.2 -3,-2.6 V 248 c 0,-1.5 1.3,-2.6 3,-2.6 h 0.7 v 2.7 h -0.2 c -0.6,0.1 -1,0.6 -1,1.1 v 3.5 c 0,0.6 0.6,1.1 1.3,1.1 h 1.7 c 0.7,0 1.3,-0.5 1.3,-1.1 v -3.5 c 0,-0.5 -0.4,-1 -1,-1.1 h -0.2 v -2.7 h 0.7 c 1.6,0 3,1.2 3,2.6 v 5.8 z"
   id="path92" />

				<path
   fill="#0e0e0e"
   d="m 134.6,247.8 c 0.7,0.1 1.2,0.7 1.2,1.3 v 3.5 c 0,0.8 -0.7,1.4 -1.5,1.4 h -1.7 c -0.9,0 -1.5,-0.6 -1.5,-1.4 v -3.5 c 0,-0.6 0.5,-1.2 1.2,-1.3 v -2.2 h -0.5 c -1.5,0 -2.7,1.1 -2.7,2.4 v 5.8 c 0,1.3 1.2,2.4 2.7,2.4 h 3.4 c 1.5,0 2.7,-1.1 2.7,-2.4 V 248 c 0,-1.3 -1.2,-2.4 -2.7,-2.4 h -0.5 v 2.2 z"
   id="path93" />

			</g>

		</g>

		<path
   fill="#101010"
   d="m 101.4,265.8 c 0,18.5 -15,33.5 -33.5,33.5 -18.5,0 -33.5,-15 -33.5,-33.5 0,-18.5 15,-33.5 33.5,-33.5 18.5,0 33.5,15 33.5,33.5 z"
   id="path94" />

		<path
   fill="#282829"
   d="m 100.4,265.8 c 0,17.9 -14.6,32.5 -32.5,32.5 -17.9,0 -32.5,-14.6 -32.5,-32.5 0,-17.9 14.6,-32.5 32.5,-32.5 17.9,0 32.5,14.6 32.5,32.5 z"
   id="path95" />

		<circle
   fill="#d8d9d8"
   cx="67.900002"
   cy="265.79999"
   r="26.5"
   id="circle95" />

	</g>
  </g>
</svg>
