<?xml version="1.0" encoding="UTF-8" standalone="no"?>
<!-- Created with Inkscape (http://www.inkscape.org/) -->

<svg
   width="128mm"
   height="297mm"
   viewBox="0 0 128 297"
   version="1.1"
   id="svg1"
   inkscape:version="1.4.2 (f4327f4, 2025-05-13)"
   sodipodi:docname="creativision.svg"
   xmlns:inkscape="http://www.inkscape.org/namespaces/inkscape"
   xmlns:sodipodi="http://sodipodi.sourceforge.net/DTD/sodipodi-0.dtd"
   xmlns="http://www.w3.org/2000/svg"
   xmlns:svg="http://www.w3.org/2000/svg">
  <sodipodi:namedview
     id="namedview1"
     pagecolor="#ffffff"
     bordercolor="#000000"
     borderopacity="0.25"
     inkscape:showpageshadow="2"
     inkscape:pageopacity="0.0"
     inkscape:pagecheckerboard="0"
     inkscape:deskcolor="#d1d1d1"
     inkscape:document-units="mm"
     inkscape:zoom="0.73851712"
     inkscape:cx="397.41801"
     inkscape:cy="561.25984"
     inkscape:window-width="1920"
     inkscape:window-height="1009"
     inkscape:window-x="-8"
     inkscape:window-y="-8"
     inkscape:window-maximized="1"
     inkscape:current-layer="layer1" />
  <defs
     id="defs1" />
  <g
     inkscape:label="Camada 1"
     inkscape:groupmode="layer"
     id="layer1">
    <g
       id="g315"
       transform="matrix(5.8187635e-4,0.65062632,-0.65062632,5.8187635e-4,219.98797,482.53812)">
      <path
         fill="#0b0b0b"
         d="m -304.14277,328.8065 h -259.76945 c -5.68062,0 -10.17776,-4.6155 -10.17776,-10.17776 V 161.82029 c 0,-5.68061 4.61549,-10.17775 10.17776,-10.17775 h 259.76945 c 5.68061,0 10.17776,4.61549 10.17776,10.17775 v 156.80845 c 0,5.56226 -4.49715,10.17776 -10.17776,10.17776 z"
         id="path18"
         style="stroke-width:1.18346" />
      <path
         fill="#282828"
         d="M -295.14847,160.63683 V 319.8122 c 0,4.26045 -3.55038,7.81083 -7.81083,7.81083 h -262.13639 c -4.26045,0 -7.81083,-3.55038 -7.81083,-7.81083 V 160.63683 c 0,-4.26045 3.55038,-7.81083 7.81083,-7.81083 h 262.13639 c 4.3788,-0.11836 7.81083,3.43203 7.81083,7.81083 z"
         id="path19"
         style="stroke-width:1.18346" />
      <rect
         x="-460.95499"
         y="305.099"
         fill="#989d9b"
         width="44.616444"
         height="4.73384"
         id="rect19"
         style="stroke-width:1.18346" />
      <rect
         x="-631.89978"
         y="155.01582"
         fill="#0b0b0b"
         width="57.624561"
         height="170.49353"
         id="rect20"
         style="stroke-width:1.2527" />
      <rect
         x="-630.89764"
         y="156.01801"
         fill="#282828"
         width="55.745495"
         height="168.6145"
         id="rect21"
         style="stroke-width:1.2527" />
      <rect
         x="-630.02069"
         y="156.8949"
         fill="#0e0e0e"
         width="53.86644"
         height="166.73541"
         id="rect22"
         style="stroke-width:1.2527" />
      <path
         fill="#0b0b0b"
         d="m -639.91719,334.15305 h -87.68955 c -5.38664,0 -9.89639,-4.38447 -9.89639,-9.89639 V 156.26854 c 0,-5.38664 4.38447,-9.89639 9.89639,-9.89639 h 87.68955 c 5.38665,0 9.89639,4.38448 9.89639,9.89639 v 167.98812 c 0,5.51192 -4.38447,9.89639 -9.89639,9.89639 z"
         id="path22"
         style="stroke-width:1.2527" />
      <path
         fill="#282828"
         d="m -630.0208,155.64218 v 169.24083 c 0,4.7603 -3.88339,8.64369 -8.64368,8.64369 h -89.5686 c -4.7603,0 -8.6437,-3.88339 -8.6437,-8.64369 V 155.64218 c 0,-4.76028 3.8834,-8.64367 8.6437,-8.64367 h 89.5686 c 4.76029,0.12527 8.64368,3.88339 8.64368,8.64367 z"
         id="path23"
         style="stroke-width:1.2527" />
      <path
         fill="#0e0e0e"
         d="m -630.0208,157.64652 v 165.35744 c 0,4.76028 -3.88339,8.64368 -8.64368,8.64368 h -87.68956 c -4.76028,0 -8.64367,-3.8834 -8.64367,-8.64368 V 157.64652 c 0,-4.76029 3.88339,-8.64369 8.64367,-8.64369 h 87.68956 c 4.76029,0 8.64368,3.8834 8.64368,8.64369 z"
         id="path24"
         style="stroke-width:1.2527" />
      <path
         fill="#121212"
         d="m -643.04897,240.32523 c 0,24.17726 -19.6675,43.84479 -43.84475,43.84479 -24.17728,0 -43.84479,-19.66753 -43.84479,-43.84479 0,-24.17725 19.66751,-43.84477 43.84479,-43.84477 24.17725,0 43.84475,19.66752 43.84475,43.84477 z"
         id="path25"
         style="stroke-width:1.2527" />
      <path
         fill="#0a0a0a"
         d="m -644.92802,240.32523 c 0,23.1751 -18.79062,41.96572 -41.9657,41.96572 -23.17512,0 -41.96571,-18.79062 -41.96571,-41.96572 0,-23.17508 18.79059,-41.96571 41.96571,-41.96571 23.17508,0 41.9657,18.79063 41.9657,41.96571 z"
         id="path26"
         style="stroke-width:1.2527" />
      <rect
         x="-460.95499"
         y="300.36517"
         fill="#8e8f8e"
         width="44.616444"
         height="4.73384"
         id="rect26"
         style="stroke-width:1.18346" />
      <rect
         x="-630.02069"
         y="144.99416"
         fill="#989d9b"
         width="47.227085"
         height="5.0108318"
         id="rect27"
         style="stroke-width:1.2527" />
      <rect
         x="-630.02069"
         y="150.00499"
         fill="#8e8f8e"
         width="47.227085"
         height="5.0108318"
         id="rect28"
         style="stroke-width:1.2527" />
      <path
         fill="#0e0e0e"
         d="m -295.14847,161.70194 v 157.04514 c 0,4.26045 -3.55038,7.81084 -7.81083,7.81084 h -260.47955 c -4.26045,0 -7.81083,-3.55039 -7.81083,-7.81084 V 161.70194 c 0,-4.26045 3.55038,-7.81083 7.81083,-7.81083 h 260.47955 c 4.3788,0 7.81083,3.55038 7.81083,7.81083 z"
         id="path28"
         style="stroke-width:1.18346" />
      <path
         fill="#181818"
         d="m -580.53884,319.3711 h -45.09747 c -1.62852,0 -3.00651,-1.37798 -3.00651,-3.0065 V 164.5364 c 0,-1.62851 1.37799,-3.00649 3.00651,-3.00649 h 45.09747 l 9.27005,-11.77545 h 275.72099 c 1.87906,0 3.38231,1.50325 3.38231,3.38231 v 174.62747 c 0,1.87907 -1.50325,3.38232 -3.38231,3.38232 h -275.72099 z"
         id="path29"
         style="stroke-width:1.2527" />
      <path
         fill="#282627"
         d="m -448.9283,292.126 v 12.1 c 0,6.6 -5.4,12 -12,12 h -14.4 c -6.6,0 -12,-5.4 -12,-12 v -12.1 c 0,-6.6 5.4,-12 12,-12 h 14.4 c 6.6,0 12,5.4 12,12 z"
         id="path30" />
      <path
         fill="#939393"
         d="m -448.9283,293.026 v 10.5 c 0,6.6 -5.4,12 -12,12 h -11.1 c -6.6,0 -12,-5.4 -12,-12 v -10.5 c 0,-6.6 5.4,-12 12,-12 h 11.1 c 6.6,0 12,5.4 12,12 z"
         id="path31" />
      <path
         fill="#b3b3b3"
         d="m -448.9283,292.926 v 10.5 c 0,6.6 -5.4,12 -12,12 h -7.9 c -6.6,0 -12,-5.4 -12,-12 v -10.5 c 0,-6.6 5.4,-12 12,-12 h 7.9 c 6.6,0 12,5.4 12,12 z"
         id="path32"
         style="fill:#ad7559;fill-opacity:1" />
      <g
         id="g36"
         transform="translate(-689.3283,-9.5740018)">
			<path
   fill="#282627"
   d="m 240.4,259.7 v 12.1 c 0,6.6 -5.4,12 -12,12 H 214 c -6.6,0 -12,-5.4 -12,-12 v -12.1 c 0,-6.6 5.4,-12 12,-12 h 14.4 c 6.6,0 12,5.4 12,12 z"
   id="path34" />

			<path
   fill="#939393"
   d="m 240.4,260.6 v 10.5 c 0,6.6 -5.4,12 -12,12 h -11.1 c -6.6,0 -12,-5.4 -12,-12 v -10.5 c 0,-6.6 5.4,-12 12,-12 h 11.1 c 6.6,0 12,5.4 12,12 z"
   id="path35" />

			<path
   fill="#b3b3b3"
   d="m 240.4,260.6 v 10.5 c 0,6.6 -5.4,12 -12,12 h -7.9 c -6.6,0 -12,-5.4 -12,-12 v -10.5 c 0,-6.6 5.4,-12 12,-12 h 7.9 c 6.6,0 12,5.4 12,12 z"
   id="path36" />

		</g>
      <text
         transform="rotate(-90)"
         font-family="MyriadHebrew-Regular"
         font-size="27.0401px"
         id="text36"
         x="-263.13821"
         y="-461.19839">1</text>
      <path
         fill="#282627"
         d="m -448.9283,250.326 v 12.1 c 0,6.6 -5.4,12 -12,12 h -14.4 c -6.6,0 -12,-5.4 -12,-12 v -12.1 c 0,-6.6 5.4,-12 12,-12 h 14.4 c 6.6,0 12,5.4 12,12 z"
         id="path37" />
      <path
         fill="#939393"
         d="m -448.9283,251.126 v 10.5 c 0,6.6 -5.4,12 -12,12 h -11.1 c -6.6,0 -12,-5.4 -12,-12 v -10.5 c 0,-6.6 5.4,-12 12,-12 h 11.1 c 6.6,0 12,5.4 12,12 z"
         id="path38" />
      <path
         fill="#b3b3b3"
         d="m -448.9283,250.926 v 10.5 c 0,6.6 -5.4,12 -12,12 h -7.9 c -6.6,0 -12,-5.4 -12,-12 v -10.5 c 0,-6.6 5.4,-12 12,-12 h 7.9 c 6.6,0 12,5.4 12,12 z"
         id="path39"
         style="fill:#ad7559;fill-opacity:1" />
      <path
         fill="#282627"
         d="m -448.9283,208.426 v 12.1 c 0,6.6 -5.4,12 -12,12 h -14.4 c -6.6,0 -12,-5.4 -12,-12 v -12.1 c 0,-6.6 5.4,-12 12,-12 h 14.4 c 6.6,0 12,5.4 12,12 z"
         id="path41" />
      <path
         fill="#939393"
         d="m -448.9283,209.326 v 10.5 c 0,6.6 -5.4,12 -12,12 h -11.1 c -6.6,0 -12,-5.4 -12,-12 v -10.5 c 0,-6.6 5.4,-12 12,-12 h 11.1 c 6.6,0 12,5.4 12,12 z"
         id="path42" />
      <path
         fill="#b3b3b3"
         d="m -448.9283,209.026 v 10.5 c 0,6.6 -5.4,12 -12,12 h -7.9 c -6.6,0 -12,-5.4 -12,-12 v -10.5 c 0,-6.6 5.4,-12 12,-12 h 7.9 c 6.6,0 12,5.4 12,12 z"
         id="path43"
         style="fill:#ad7559;fill-opacity:1" />
      <path
         fill="#282627"
         d="m -405.6283,292.026 v 12.1 c 0,6.6 -5.4,12 -12,12 h -14.4 c -6.6,0 -12,-5.4 -12,-12 v -12.1 c 0,-6.6 5.4,-12 12,-12 h 14.4 c 6.6,0 12,5.4 12,12 z"
         id="path45" />
      <path
         fill="#939393"
         d="m -405.6283,292.926 v 10.5 c 0,6.6 -5.4,12 -12,12 h -11.1 c -6.6,0 -12,-5.4 -12,-12 v -10.5 c 0,-6.6 5.4,-12 12,-12 h 11.1 c 6.6,0 12,5.4 12,12 z"
         id="path46" />
      <path
         fill="#b3b3b3"
         d="m -405.6283,293.126 v 10.5 c 0,6.6 -5.4,12 -12,12 h -7.9 c -6.6,0 -12,-5.4 -12,-12 v -10.5 c 0,-6.6 5.4,-12 12,-12 h 7.9 c 6.6,0 12,5.4 12,12 z"
         id="path47"
         style="fill:#ad7559;fill-opacity:1" />
      <path
         fill="#282627"
         d="m -405.6283,250.126 v 12.1 c 0,6.6 -5.4,12 -12,12 h -14.4 c -6.6,0 -12,-5.4 -12,-12 v -12.1 c 0,-6.6 5.4,-12 12,-12 h 14.4 c 6.6,0 12,5.4 12,12 z"
         id="path49" />
      <path
         fill="#939393"
         d="m -405.6283,251.026 v 10.5 c 0,6.6 -5.4,12 -12,12 h -11.1 c -6.6,0 -12,-5.4 -12,-12 v -10.5 c 0,-6.6 5.4,-12 12,-12 h 11.1 c 6.6,0 12,5.4 12,12 z"
         id="path50" />
      <path
         fill="#b3b3b3"
         d="m -405.6283,250.926 v 10.5 c 0,6.6 -5.4,12 -12,12 h -7.9 c -6.6,0 -12,-5.4 -12,-12 v -10.5 c 0,-6.6 5.4,-12 12,-12 h 7.9 c 6.6,0 12,5.4 12,12 z"
         id="path51"
         style="fill:#ad7559;fill-opacity:1" />
      <path
         fill="#282627"
         d="m -405.6283,208.326 v 12.1 c 0,6.6 -5.4,12 -12,12 h -14.4 c -6.6,0 -12,-5.4 -12,-12 v -12.1 c 0,-6.6 5.4,-12 12,-12 h 14.4 c 6.6,0 12,5.4 12,12 z"
         id="path53" />
      <path
         fill="#939393"
         d="m -405.6283,209.226 v 10.5 c 0,6.6 -5.4,12 -12,12 h -11.1 c -6.6,0 -12,-5.4 -12,-12 v -10.5 c 0,-6.6 5.4,-12 12,-12 h 11.1 c 6.6,0 12,5.4 12,12 z"
         id="path54" />
      <path
         fill="#b3b3b3"
         d="m -405.6283,209.026 v 10.5 c 0,6.6 -5.4,12 -12,12 h -7.9 c -6.6,0 -12,-5.4 -12,-12 v -10.5 c 0,-6.6 5.4,-12 12,-12 h 7.9 c 6.6,0 12,5.4 12,12 z"
         id="path55"
         style="fill:#ad7559;fill-opacity:1" />
      <path
         fill="#282627"
         d="m -362.4283,292.026 v 12.1 c 0,6.6 -5.4,12 -12,12 h -14.4 c -6.6,0 -12,-5.4 -12,-12 v -12.1 c 0,-6.6 5.4,-12 12,-12 h 14.4 c 6.6,0 12,5.4 12,12 z"
         id="path57" />
      <path
         fill="#939393"
         d="m -362.4283,292.926 v 10.5 c 0,6.6 -5.4,12 -12,12 h -11.1 c -6.6,0 -12,-5.4 -12,-12 v -10.5 c 0,-6.6 5.4,-12 12,-12 h 11.1 c 6.6,0 12,5.4 12,12 z"
         id="path58" />
      <path
         fill="#b3b3b3"
         d="m -362.4283,292.926 v 10.5 c 0,6.6 -5.4,12 -12,12 h -7.9 c -6.6,0 -12,-5.4 -12,-12 v -10.5 c 0,-6.6 5.4,-12 12,-12 h 7.9 c 6.6,0 12,5.4 12,12 z"
         id="path59"
         style="fill:#ad7559;fill-opacity:1" />
      <path
         fill="#282627"
         d="m -362.4283,250.126 v 12.1 c 0,6.6 -5.4,12 -12,12 h -14.4 c -6.6,0 -12,-5.4 -12,-12 v -12.1 c 0,-6.6 5.4,-12 12,-12 h 14.4 c 6.6,0 12,5.4 12,12 z"
         id="path61" />
      <path
         fill="#939393"
         d="m -362.4283,251.026 v 10.5 c 0,6.6 -5.4,12 -12,12 h -11.1 c -6.6,0 -12,-5.4 -12,-12 v -10.5 c 0,-6.6 5.4,-12 12,-12 h 11.1 c 6.6,0 12,5.4 12,12 z"
         id="path62" />
      <path
         fill="#b3b3b3"
         d="m -362.4283,251.026 v 10.5 c 0,6.6 -5.4,12 -12,12 h -7.9 c -6.6,0 -12,-5.4 -12,-12 v -10.5 c 0,-6.6 5.4,-12 12,-12 h 7.9 c 6.6,0 12,5.4 12,12 z"
         id="path63"
         style="fill:#ad7559;fill-opacity:1" />
      <path
         fill="#282627"
         d="m -362.4283,208.326 v 12.1 c 0,6.6 -5.4,12 -12,12 h -14.4 c -6.6,0 -12,-5.4 -12,-12 v -12.1 c 0,-6.6 5.4,-12 12,-12 h 14.4 c 6.6,0 12,5.4 12,12 z"
         id="path65" />
      <path
         fill="#939393"
         d="m -362.4283,209.226 v 10.5 c 0,6.6 -5.4,12 -12,12 h -11.1 c -6.6,0 -12,-5.4 -12,-12 v -10.5 c 0,-6.6 5.4,-12 12,-12 h 11.1 c 6.6,0 12,5.4 12,12 z"
         id="path66" />
      <path
         fill="#b3b3b3"
         d="m -362.4283,209.326 v 10.5 c 0,6.6 -5.4,12 -12,12 h -7.9 c -6.6,0 -12,-5.4 -12,-12 v -10.5 c 0,-6.6 5.4,-12 12,-12 h 7.9 c 6.6,0 12,5.4 12,12 z"
         id="path67"
         style="fill:#ad7559;fill-opacity:1" />
      <path
         fill="#282627"
         d="m -316.2283,250.126 v 12.1 c 0,6.6 -5.4,12 -12,12 h -14.4 c -6.6,0 -12,-5.4 -12,-12 v -12.1 c 0,-6.6 5.4,-12 12,-12 h 14.4 c 6.6,0 12,5.4 12,12 z"
         id="path73" />
      <path
         fill="#939393"
         d="m -316.2283,251.026 v 10.5 c 0,6.6 -5.4,12 -12,12 h -11.1 c -6.6,0 -12,-5.4 -12,-12 v -10.5 c 0,-6.6 5.4,-12 12,-12 h 11.1 c 6.6,0 12,5.4 12,12 z"
         id="path74" />
      <path
         fill="#b3b3b3"
         d="m -316.2283,250.926 v 10.5 c 0,6.6 -5.4,12 -12,12 h -7.9 c -6.6,0 -12,-5.4 -12,-12 v -10.5 c 0,-6.6 5.4,-12 12,-12 h 7.9 c 6.6,0 12,5.4 12,12 z"
         id="path75"
         style="fill:#ad7559;fill-opacity:1" />
      <rect
         x="-412.66974"
         y="299.53677"
         fill="#282828"
         width="1.6568439"
         height="0.94676799"
         id="rect80"
         style="stroke-width:1.18346" />
      <rect
         x="-572.90643"
         y="159.69005"
         fill="#282828"
         width="1.6568439"
         height="0.94676799"
         id="rect81"
         style="stroke-width:1.18346" />
      <path
         fill="#101010"
         d="m -644.92802,240.32523 c 0,23.1751 -18.79062,41.96572 -41.9657,41.96572 -23.17512,0 -41.96571,-18.79062 -41.96571,-41.96572 0,-23.17508 18.79059,-41.96571 41.96571,-41.96571 23.17508,0 41.9657,18.79063 41.9657,41.96571 z"
         id="path94"
         style="stroke-width:1.2527" />
      <path
         fill="#282829"
         d="m -646.18074,240.32523 c 0,22.42348 -18.28954,40.71302 -40.71298,40.71302 -22.42348,0 -40.71302,-18.28954 -40.71302,-40.71302 0,-22.42347 18.28954,-40.713 40.71302,-40.713 22.42344,0 40.71298,18.28953 40.71298,40.713 z"
         id="path95"
         style="stroke-width:1.2527" />
      <circle
         fill="#d8d9d8"
         cx="-686.89374"
         cy="240.32524"
         r="33.196758"
         id="circle95"
         style="fill:#535452;fill-opacity:1;stroke-width:1.2527" />
      <path
         fill="#282627"
         d="m -316.2283,209.21889 v 12.1 c 0,6.6 -5.4,12 -12,12 h -14.4 c -6.6,0 -12,-5.4 -12,-12 v -12.1 c 0,-6.6 5.4,-12 12,-12 h 14.4 c 6.6,0 12,5.4 12,12 z"
         id="path271" />
      <path
         fill="#939393"
         d="m -316.2283,210.11889 v 10.5 c 0,6.6 -5.4,12 -12,12 h -11.1 c -6.6,0 -12,-5.4 -12,-12 v -10.5 c 0,-6.6 5.4,-12 12,-12 h 11.1 c 6.6,0 12,5.4 12,12 z"
         id="path272" />
      <path
         fill="#b3b3b3"
         d="m -316.2283,210.01889 v 10.5 c 0,6.6 -5.4,12 -12,12 h -7.9 c -6.6,0 -12,-5.4 -12,-12 v -10.5 c 0,-6.6 5.4,-12 12,-12 h 7.9 c 6.6,0 12,5.4 12,12 z"
         id="path273"
         style="fill:#ad7559;fill-opacity:1" />
      <path
         fill="#282627"
         d="m -316.2283,291.03311 v 12.1 c 0,6.6 -5.4,12 -12,12 h -14.4 c -6.6,0 -12,-5.4 -12,-12 v -12.1 c 0,-6.6 5.4,-12 12,-12 h 14.4 c 6.6,0 12,5.4 12,12 z"
         id="path274" />
      <path
         fill="#939393"
         d="m -316.2283,291.93311 v 10.5 c 0,6.6 -5.4,12 -12,12 h -11.1 c -6.6,0 -12,-5.4 -12,-12 v -10.5 c 0,-6.6 5.4,-12 12,-12 h 11.1 c 6.6,0 12,5.4 12,12 z"
         id="path275" />
      <path
         fill="#b3b3b3"
         d="m -316.2283,291.83311 v 10.5 c 0,6.6 -5.4,12 -12,12 h -7.9 c -6.6,0 -12,-5.4 -12,-12 v -10.5 c 0,-6.6 5.4,-12 12,-12 h 7.9 c 6.6,0 12,5.4 12,12 z"
         id="path276"
         style="fill:#ad7559;fill-opacity:1" />
      <path
         fill="#282627"
         d="m -448.9283,165.77816 v 12.1 c 0,6.6 -5.4,12 -12,12 h -14.4 c -6.6,0 -12,-5.4 -12,-12 v -12.1 c 0,-6.6 5.4,-12 12,-12 h 14.4 c 6.6,0 12,5.4 12,12 z"
         id="path277" />
      <path
         fill="#939393"
         d="m -448.9283,166.67816 v 10.5 c 0,6.6 -5.4,12 -12,12 h -11.1 c -6.6,0 -12,-5.4 -12,-12 v -10.5 c 0,-6.6 5.4,-12 12,-12 h 11.1 c 6.6,0 12,5.4 12,12 z"
         id="path278" />
      <path
         fill="#b3b3b3"
         d="m -448.9283,166.37816 v 10.5 c 0,6.6 -5.4,12 -12,12 h -7.9 c -6.6,0 -12,-5.4 -12,-12 v -10.5 c 0,-6.6 5.4,-12 12,-12 h 7.9 c 6.6,0 12,5.4 12,12 z"
         id="path279"
         style="fill:#f8e09f;fill-opacity:1" />
      <path
         fill="#282627"
         d="m -405.6283,165.67816 v 12.1 c 0,6.6 -5.4,12 -12,12 h -14.4 c -6.6,0 -12,-5.4 -12,-12 v -12.1 c 0,-6.6 5.4,-12 12,-12 h 14.4 c 6.6,0 12,5.4 12,12 z"
         id="path280" />
      <path
         fill="#939393"
         d="m -405.6283,166.57816 v 10.5 c 0,6.6 -5.4,12 -12,12 h -11.1 c -6.6,0 -12,-5.4 -12,-12 v -10.5 c 0,-6.6 5.4,-12 12,-12 h 11.1 c 6.6,0 12,5.4 12,12 z"
         id="path281" />
      <path
         fill="#b3b3b3"
         d="m -405.6283,166.37816 v 10.5 c 0,6.6 -5.4,12 -12,12 h -7.9 c -6.6,0 -12,-5.4 -12,-12 v -10.5 c 0,-6.6 5.4,-12 12,-12 h 7.9 c 6.6,0 12,5.4 12,12 z"
         id="path282"
         style="fill:#f8e09f;fill-opacity:1" />
      <path
         fill="#282627"
         d="m -362.4283,165.67816 v 12.1 c 0,6.6 -5.4,12 -12,12 h -14.4 c -6.6,0 -12,-5.4 -12,-12 v -12.1 c 0,-6.6 5.4,-12 12,-12 h 14.4 c 6.6,0 12,5.4 12,12 z"
         id="path283" />
      <path
         fill="#939393"
         d="m -362.4283,166.57816 v 10.5 c 0,6.6 -5.4,12 -12,12 h -11.1 c -6.6,0 -12,-5.4 -12,-12 v -10.5 c 0,-6.6 5.4,-12 12,-12 h 11.1 c 6.6,0 12,5.4 12,12 z"
         id="path284" />
      <path
         fill="#b3b3b3"
         d="m -362.4283,166.67816 v 10.5 c 0,6.6 -5.4,12 -12,12 h -7.9 c -6.6,0 -12,-5.4 -12,-12 v -10.5 c 0,-6.6 5.4,-12 12,-12 h 7.9 c 6.6,0 12,5.4 12,12 z"
         id="path285"
         style="fill:#f8e09f;fill-opacity:1" />
      <path
         fill="#282627"
         d="m -316.2283,166.57105 v 12.1 c 0,6.6 -5.4,12 -12,12 h -14.4 c -6.6,0 -12,-5.4 -12,-12 v -12.1 c 0,-6.6 5.4,-12 12,-12 h 14.4 c 6.6,0 12,5.4 12,12 z"
         id="path286" />
      <path
         fill="#939393"
         d="m -316.2283,167.47105 v 10.5 c 0,6.6 -5.4,12 -12,12 h -11.1 c -6.6,0 -12,-5.4 -12,-12 v -10.5 c 0,-6.6 5.4,-12 12,-12 h 11.1 c 6.6,0 12,5.4 12,12 z"
         id="path287" />
      <path
         fill="#b3b3b3"
         d="m -316.2283,167.37105 v 10.5 c 0,6.6 -5.4,12 -12,12 h -7.9 c -6.6,0 -12,-5.4 -12,-12 v -10.5 c 0,-6.6 5.4,-12 12,-12 h 7.9 c 6.6,0 12,5.4 12,12 z"
         id="path288"
         style="fill:#f8e09f;fill-opacity:1" />
      <path
         fill="#282627"
         d="m -537.70543,292.126 v 12.1 c 0,6.6 -5.4,12 -12,12 h -14.4 c -6.6,0 -12,-5.4 -12,-12 v -12.1 c 0,-6.6 5.4,-12 12,-12 h 14.4 c 6.6,0 12,5.4 12,12 z"
         id="path289" />
      <path
         fill="#939393"
         d="m -537.70543,293.026 v 10.5 c 0,6.6 -5.4,12 -12,12 h -11.1 c -6.6,0 -12,-5.4 -12,-12 v -10.5 c 0,-6.6 5.4,-12 12,-12 h 11.1 c 6.6,0 12,5.4 12,12 z"
         id="path290" />
      <path
         fill="#b3b3b3"
         d="m -537.70543,292.926 v 10.5 c 0,6.6 -5.4,12 -12,12 h -7.9 c -6.6,0 -12,-5.4 -12,-12 v -10.5 c 0,-6.6 5.4,-12 12,-12 h 7.9 c 6.6,0 12,5.4 12,12 z"
         id="path291"
         style="fill:#f8e09f;fill-opacity:1" />
      <g
         id="g294"
         transform="translate(-778.10543,-9.5740018)">
			<path
   fill="#282627"
   d="m 240.4,259.7 v 12.1 c 0,6.6 -5.4,12 -12,12 H 214 c -6.6,0 -12,-5.4 -12,-12 v -12.1 c 0,-6.6 5.4,-12 12,-12 h 14.4 c 6.6,0 12,5.4 12,12 z"
   id="path292" />

			<path
   fill="#939393"
   d="m 240.4,260.6 v 10.5 c 0,6.6 -5.4,12 -12,12 h -11.1 c -6.6,0 -12,-5.4 -12,-12 v -10.5 c 0,-6.6 5.4,-12 12,-12 h 11.1 c 6.6,0 12,5.4 12,12 z"
   id="path293" />

			<path
   fill="#b3b3b3"
   d="m 240.4,260.6 v 10.5 c 0,6.6 -5.4,12 -12,12 h -7.9 c -6.6,0 -12,-5.4 -12,-12 v -10.5 c 0,-6.6 5.4,-12 12,-12 h 7.9 c 6.6,0 12,5.4 12,12 z"
   id="path294" />

		</g>
      <text
         transform="rotate(-90)"
         font-family="MyriadHebrew-Regular"
         font-size="27.0401px"
         id="text294"
         x="-263.13821"
         y="-549.97552">1</text>
      <path
         fill="#282627"
         d="m -537.70543,250.326 v 12.1 c 0,6.6 -5.4,12 -12,12 h -14.4 c -6.6,0 -12,-5.4 -12,-12 v -12.1 c 0,-6.6 5.4,-12 12,-12 h 14.4 c 6.6,0 12,5.4 12,12 z"
         id="path295" />
      <path
         fill="#939393"
         d="m -537.70543,251.126 v 10.5 c 0,6.6 -5.4,12 -12,12 h -11.1 c -6.6,0 -12,-5.4 -12,-12 v -10.5 c 0,-6.6 5.4,-12 12,-12 h 11.1 c 6.6,0 12,5.4 12,12 z"
         id="path296" />
      <path
         fill="#b3b3b3"
         d="m -537.70543,250.926 v 10.5 c 0,6.6 -5.4,12 -12,12 h -7.9 c -6.6,0 -12,-5.4 -12,-12 v -10.5 c 0,-6.6 5.4,-12 12,-12 h 7.9 c 6.6,0 12,5.4 12,12 z"
         id="path297"
         style="fill:#f8e09f;fill-opacity:1" />
      <path
         fill="#282627"
         d="m -537.70543,208.426 v 12.1 c 0,6.6 -5.4,12 -12,12 h -14.4 c -6.6,0 -12,-5.4 -12,-12 v -12.1 c 0,-6.6 5.4,-12 12,-12 h 14.4 c 6.6,0 12,5.4 12,12 z"
         id="path298" />
      <path
         fill="#939393"
         d="m -537.70543,209.326 v 10.5 c 0,6.6 -5.4,12 -12,12 h -11.1 c -6.6,0 -12,-5.4 -12,-12 v -10.5 c 0,-6.6 5.4,-12 12,-12 h 11.1 c 6.6,0 12,5.4 12,12 z"
         id="path299" />
      <path
         fill="#b3b3b3"
         d="m -537.70543,209.026 v 10.5 c 0,6.6 -5.4,12 -12,12 h -7.9 c -6.6,0 -12,-5.4 -12,-12 v -10.5 c 0,-6.6 5.4,-12 12,-12 h 7.9 c 6.6,0 12,5.4 12,12 z"
         id="path300"
         style="fill:#f8e09f;fill-opacity:1" />
      <path
         fill="#282627"
         d="m -494.40543,292.026 v 12.1 c 0,6.6 -5.4,12 -12,12 h -14.4 c -6.6,0 -12,-5.4 -12,-12 v -12.1 c 0,-6.6 5.4,-12 12,-12 h 14.4 c 6.6,0 12,5.4 12,12 z"
         id="path301" />
      <path
         fill="#939393"
         d="m -494.40543,292.926 v 10.5 c 0,6.6 -5.4,12 -12,12 h -11.1 c -6.6,0 -12,-5.4 -12,-12 v -10.5 c 0,-6.6 5.4,-12 12,-12 h 11.1 c 6.6,0 12,5.4 12,12 z"
         id="path302" />
      <path
         fill="#b3b3b3"
         d="m -494.40543,293.126 v 10.5 c 0,6.6 -5.4,12 -12,12 h -7.9 c -6.6,0 -12,-5.4 -12,-12 v -10.5 c 0,-6.6 5.4,-12 12,-12 h 7.9 c 6.6,0 12,5.4 12,12 z"
         id="path303"
         style="fill:#f8e09f;fill-opacity:1" />
      <path
         fill="#282627"
         d="m -494.40543,250.126 v 12.1 c 0,6.6 -5.4,12 -12,12 h -14.4 c -6.6,0 -12,-5.4 -12,-12 v -12.1 c 0,-6.6 5.4,-12 12,-12 h 14.4 c 6.6,0 12,5.4 12,12 z"
         id="path304" />
      <path
         fill="#939393"
         d="m -494.40543,251.026 v 10.5 c 0,6.6 -5.4,12 -12,12 h -11.1 c -6.6,0 -12,-5.4 -12,-12 v -10.5 c 0,-6.6 5.4,-12 12,-12 h 11.1 c 6.6,0 12,5.4 12,12 z"
         id="path305" />
      <path
         fill="#b3b3b3"
         d="m -494.40543,250.926 v 10.5 c 0,6.6 -5.4,12 -12,12 h -7.9 c -6.6,0 -12,-5.4 -12,-12 v -10.5 c 0,-6.6 5.4,-12 12,-12 h 7.9 c 6.6,0 12,5.4 12,12 z"
         id="path306"
         style="fill:#f8e09f;fill-opacity:1" />
      <path
         fill="#282627"
         d="m -494.40543,208.326 v 12.1 c 0,6.6 -5.4,12 -12,12 h -14.4 c -6.6,0 -12,-5.4 -12,-12 v -12.1 c 0,-6.6 5.4,-12 12,-12 h 14.4 c 6.6,0 12,5.4 12,12 z"
         id="path307" />
      <path
         fill="#939393"
         d="m -494.40543,209.226 v 10.5 c 0,6.6 -5.4,12 -12,12 h -11.1 c -6.6,0 -12,-5.4 -12,-12 v -10.5 c 0,-6.6 5.4,-12 12,-12 h 11.1 c 6.6,0 12,5.4 12,12 z"
         id="path308" />
      <path
         fill="#b3b3b3"
         d="m -494.40543,209.026 v 10.5 c 0,6.6 -5.4,12 -12,12 h -7.9 c -6.6,0 -12,-5.4 -12,-12 v -10.5 c 0,-6.6 5.4,-12 12,-12 h 7.9 c 6.6,0 12,5.4 12,12 z"
         id="path309"
         style="fill:#f8e09f;fill-opacity:1" />
      <path
         fill="#282627"
         d="m -537.70543,165.77816 v 12.1 c 0,6.6 -5.4,12 -12,12 h -14.4 c -6.6,0 -12,-5.4 -12,-12 v -12.1 c 0,-6.6 5.4,-12 12,-12 h 14.4 c 6.6,0 12,5.4 12,12 z"
         id="path310" />
      <path
         fill="#939393"
         d="m -537.70543,166.67816 v 10.5 c 0,6.6 -5.4,12 -12,12 h -11.1 c -6.6,0 -12,-5.4 -12,-12 v -10.5 c 0,-6.6 5.4,-12 12,-12 h 11.1 c 6.6,0 12,5.4 12,12 z"
         id="path311" />
      <path
         fill="#b3b3b3"
         d="m -537.70543,166.37816 v 10.5 c 0,6.6 -5.4,12 -12,12 h -7.9 c -6.6,0 -12,-5.4 -12,-12 v -10.5 c 0,-6.6 5.4,-12 12,-12 h 7.9 c 6.6,0 12,5.4 12,12 z"
         id="path312"
         style="fill:#f8e09f;fill-opacity:1" />
      <path
         fill="#282627"
         d="m -494.40543,165.67816 v 12.1 c 0,6.6 -5.4,12 -12,12 h -14.4 c -6.6,0 -12,-5.4 -12,-12 v -12.1 c 0,-6.6 5.4,-12 12,-12 h 14.4 c 6.6,0 12,5.4 12,12 z"
         id="path313" />
      <path
         fill="#939393"
         d="m -494.40543,166.57816 v 10.5 c 0,6.6 -5.4,12 -12,12 h -11.1 c -6.6,0 -12,-5.4 -12,-12 v -10.5 c 0,-6.6 5.4,-12 12,-12 h 11.1 c 6.6,0 12,5.4 12,12 z"
         id="path314" />
      <path
         fill="#b3b3b3"
         d="m -494.40543,166.37816 v 10.5 c 0,6.6 -5.4,12 -12,12 h -7.9 c -6.6,0 -12,-5.4 -12,-12 v -10.5 c 0,-6.6 5.4,-12 12,-12 h 7.9 c 6.6,0 12,5.4 12,12 z"
         id="path315"
         style="fill:#f8e09f;fill-opacity:1" />
    </g>
  </g>
</svg>
