<?xml version="1.0" encoding="UTF-8" standalone="no"?>
<svg
   width="76.181969"
   height="200"
   version="1.1"
   id="svg80"
   sodipodi:docname="namco2x6.svg"
   inkscape:version="1.4.2 (f4327f4, 2025-05-13)"
   xmlns:inkscape="http://www.inkscape.org/namespaces/inkscape"
   xmlns:sodipodi="http://sodipodi.sourceforge.net/DTD/sodipodi-0.dtd"
   xmlns="http://www.w3.org/2000/svg"
   xmlns:svg="http://www.w3.org/2000/svg">
  <sodipodi:namedview
     id="namedview80"
     pagecolor="#ffffff"
     bordercolor="#000000"
     borderopacity="0.25"
     inkscape:showpageshadow="2"
     inkscape:pageopacity="0.0"
     inkscape:pagecheckerboard="0"
     inkscape:deskcolor="#d1d1d1"
     inkscape:zoom="4.035"
     inkscape:cx="38.042131"
     inkscape:cy="100"
     inkscape:window-width="1920"
     inkscape:window-height="1009"
     inkscape:window-x="-8"
     inkscape:window-y="-8"
     inkscape:window-maximized="1"
     inkscape:current-layer="svg80" />
  <defs
     id="defs37">
    <clipPath
       id="c">
      <path
         d="M0 445.559h168.322V0H0v445.559z"
         id="path1" />
    </clipPath>
    <clipPath
       id="d">
      <path
         d="M91.6221 364.864h53.0619v-53.061H91.6221v53.061z"
         id="path2" />
    </clipPath>
    <clipPath
       id="e">
      <path
         d="M92.3097 364.024h51.5343V312.49H92.3097v51.534z"
         id="path3" />
    </clipPath>
    <clipPath
       id="f">
      <path
         d="M84.911 371.422h66.331v-66.331H84.911v66.331z"
         id="path4" />
    </clipPath>
    <clipPath
       id="g">
      <path
         d="M7.99342 160.329H162.206V6.11584H7.99342V160.329z"
         id="path5" />
    </clipPath>
    <linearGradient
       id="h"
       x2="1"
       gradientTransform="matrix(18.023741,-18.023741,18.023741,18.023741,29.474789,171.34562)"
       gradientUnits="userSpaceOnUse">
      <stop
         offset="0"
         stop-color="#a6a8ab"
         id="stop5" />
      <stop
         offset="1"
         stop-color="#e6e7e8"
         id="stop6" />
    </linearGradient>
    <clipPath
       id="i">
      <path
         d="M0 445.559h168.322V0H0v445.559z"
         id="path6" />
    </clipPath>
    <clipPath
       id="j">
      <path
         d="M62.5988 105.659h44.8722V60.786H62.5988v44.873z"
         id="path7" />
    </clipPath>
    <clipPath
       id="k">
      <path
         d="M58.434 83.504c0 14.847 12.035 26.882 26.882 26.882 14.847 0 26.883-12.035 26.883-26.882 0-14.847-12.036-26.883-26.883-26.883S58.434 68.657 58.434 83.504m54.583-.346c0 15.49-12.557 28.047-28.047 28.047S56.923 98.648 56.923 83.158 69.48 55.111 84.97 55.111s28.047 12.557 28.047 28.047"
         id="path8" />
    </clipPath>
    <linearGradient
       id="a"
       x2="1"
       gradientTransform="matrix(39.664417,-39.664417,-39.664417,-39.664417,65.138191,102.98982)"
       gradientUnits="userSpaceOnUse">
      <stop
         offset="0"
         stop-opacity="0"
         stop-color="#fff"
         id="stop8" />
      <stop
         offset=".20751882"
         stop-color="#fff"
         id="stop9" />
      <stop
         offset=".5"
         stop-color="#fff"
         id="stop10" />
      <stop
         offset=".79248118"
         stop-color="#fff"
         id="stop11" />
      <stop
         offset="1"
         stop-opacity="0"
         stop-color="#fff"
         id="stop12" />
    </linearGradient>
    <mask
       id="m"
       width="1"
       height="1"
       x="0"
       y="0"
       maskUnits="userSpaceOnUse">
      <path
         fill="url(#a)"
         d="M-32768 32767h65535v-65535h-65535v65535z"
         id="path12" />
    </mask>
    <linearGradient
       id="l"
       x2="1"
       gradientTransform="matrix(39.664417,-39.664417,-39.664417,-39.664417,65.138191,102.98982)"
       gradientUnits="userSpaceOnUse">
      <stop
         offset="0"
         stop-color="#231f20"
         id="stop13" />
      <stop
         offset=".20751882"
         stop-color="#231f20"
         id="stop14" />
      <stop
         offset=".5"
         stop-color="#231f20"
         id="stop15" />
      <stop
         offset=".79248118"
         stop-color="#231f20"
         id="stop16" />
      <stop
         offset="1"
         stop-color="#231f20"
         id="stop17" />
    </linearGradient>
    <clipPath
       id="n">
      <path
         d="M111.507 82.812c0-14.847-12.036-26.883-26.882-26.883-14.847 0-26.883 12.036-26.883 26.883s12.036 26.883 26.883 26.883c14.846 0 26.882-12.036 26.882-26.883m-54.583.346c0-15.49 12.556-28.047 28.047-28.047 15.49 0 28.047 12.557 28.047 28.047s-12.557 28.047-28.047 28.047c-15.491 0-28.047-12.557-28.047-28.047"
         id="path17" />
    </clipPath>
    <linearGradient
       id="b"
       x2="1"
       gradientTransform="matrix(-39.664425,39.664425,39.664425,39.664425,104.80286,63.325817)"
       gradientUnits="userSpaceOnUse">
      <stop
         offset="0"
         stop-opacity="0"
         stop-color="#fff"
         id="stop18" />
      <stop
         offset=".5"
         stop-color="#fff"
         id="stop19" />
      <stop
         offset="1"
         stop-opacity="0"
         stop-color="#fff"
         id="stop20" />
    </linearGradient>
    <mask
       id="p"
       width="1"
       height="1"
       x="0"
       y="0"
       maskUnits="userSpaceOnUse">
      <path
         fill="url(#b)"
         d="M-32768 32767h65535v-65535h-65535v65535z"
         id="path20" />
    </mask>
    <linearGradient
       id="o"
       x2="1"
       gradientTransform="matrix(-39.664425,39.664425,39.664425,39.664425,104.80286,63.325817)"
       gradientUnits="userSpaceOnUse">
      <stop
         offset="0"
         stop-color="#fff"
         id="stop21" />
      <stop
         offset=".5"
         stop-color="#fff"
         id="stop22" />
      <stop
         offset="1"
         stop-color="#fff"
         id="stop23" />
    </linearGradient>
    <clipPath
       id="q">
      <path
         d="M91.9548 294.602h53.0622V241.54H91.9548v53.062z"
         id="path23" />
    </clipPath>
    <clipPath
       id="r">
      <path
         d="M92.6425 293.762h51.5335v-51.534H92.6425v51.534z"
         id="path24" />
    </clipPath>
    <clipPath
       id="s">
      <path
         d="M85.2437 301.16h66.3313v-66.331H85.2437v66.331z"
         id="path25" />
    </clipPath>
    <clipPath
       id="t">
      <path
         d="M91.1369 435.126h53.0621v-53.061H91.1369v53.061z"
         id="path26" />
    </clipPath>
    <clipPath
       id="u">
      <path
         d="M91.8246 434.286h51.5334v-51.534H91.8246v51.534z"
         id="path27" />
    </clipPath>
    <clipPath
       id="v">
      <path
         d="M84.4258 441.684h66.3312v-66.331H84.4258v66.331z"
         id="path28" />
    </clipPath>
    <clipPath
       id="w">
      <path
         d="M27.5181 329.248h53.0618v-53.062H27.5181v53.062z"
         id="path29" />
    </clipPath>
    <clipPath
       id="x">
      <path
         d="M28.2057 328.408h51.5337v-51.534H28.2057v51.534z"
         id="path30" />
    </clipPath>
    <clipPath
       id="y">
      <path
         d="M20.8069 335.806h66.3314v-66.331H20.8069v66.331z"
         id="path31" />
    </clipPath>
    <clipPath
       id="z">
      <path
         d="M27.0329 399.51h53.0618v-53.062H27.0329v53.062z"
         id="path32" />
    </clipPath>
    <clipPath
       id="A">
      <path
         d="M27.7205 398.67h51.5338v-51.534H27.7205v51.534z"
         id="path33" />
    </clipPath>
    <clipPath
       id="B">
      <path
         d="M20.3217 406.068h66.3314v-66.331H20.3217v66.331z"
         id="path34" />
    </clipPath>
    <clipPath
       id="C">
      <path
         d="M26.9564 258.304h53.0619v-53.062H26.9564v53.062z"
         id="path35" />
    </clipPath>
    <clipPath
       id="D">
      <path
         d="M27.644 257.464h51.5338V205.93H27.644v51.534z"
         id="path36" />
    </clipPath>
    <clipPath
       id="E">
      <path
         d="M20.2453 264.862h66.3314v-66.331H20.2453v66.331z"
         id="path37" />
    </clipPath>
  </defs>
  <g
     clip-path="url(#c)"
     transform="matrix(0.45259795,0,0,-0.45259795,0,200)"
     id="g46">
    <path
       fill="#c0392b"
       d="M118.153 305.0354c-18.39 0-33.298 14.908-33.298 33.298s14.908 33.298 33.298 33.298 33.298-14.908 33.298-33.298-14.908-33.298-33.298-33.298"
       id="path38" />
    <g
       clip-path="url(#d)"
       opacity=".30000299"
       id="g39">
      <path
         fill="#c0392b"
         d="M118.153 311.8026c-14.653 0-26.531 11.878-26.531 26.531 0 14.652 11.878 26.531 26.531 26.531 14.653 0 26.531-11.879 26.531-26.531 0-14.653-11.878-26.531-26.531-26.531"
         id="path39" />
    </g>
    <path
       fill="#c0392b"
       d="M118.0767 312.4901c-14.231 0-25.767 11.536-25.767 25.767s11.536 25.767 25.767 25.767 25.767-11.536 25.767-25.767-11.536-25.767-25.767-25.767"
       id="path40" />
    <path
       fill="#c0392b"
       d="M118.0767 312.4901c-14.231 0-25.767 11.536-25.767 25.767s11.536 25.767 25.767 25.767 25.767-11.536 25.767-25.767-11.536-25.767-25.767-25.767"
       id="path41" />
    <g
       clip-path="url(#e)"
       opacity=".19999701"
       id="g42">
      <path
         fill="#c0392b"
         d="M93.6971 338.575c0 13.64 11.057 24.697 24.697 24.697 13.64 0 24.698-11.057 24.698-24.697 0-13.64-11.058-24.698-24.698-24.698s-24.697 11.058-24.697 24.698m50.146-.318c0 14.231-11.536 25.767-25.766 25.767-14.231 0-25.767-11.536-25.767-25.767s11.536-25.767 25.767-25.767c14.23 0 25.766 11.536 25.766 25.767"
         id="path42" />
    </g>
    <g
       clip-path="url(#f)"
       opacity=".14999402"
       id="g43">
      <path
         fill="#c0392b"
         d="M86.6967 338.666c0 17.557 14.233 31.789 31.789 31.789 17.557 0 31.789-14.232 31.789-31.789 0-17.556-14.232-31.789-31.789-31.789-17.556 0-31.789 14.233-31.789 31.789m64.546-.409c0 18.317-14.849 33.166-33.166 33.166-18.317 0-33.166-14.849-33.166-33.166 0-18.317 14.849-33.165 33.166-33.165 18.317 0 33.166 14.848 33.166 33.165"
         id="path43" />
    </g>
    <path
       fill="#231f20"
       d="M85.0995 0c-45.962 0-83.222 37.26-83.222 83.222 0 45.963 37.26 83.222 83.222 83.222 45.962 0 83.222-37.259 83.222-83.222 0-45.962-37.26-83.222-83.222-83.222"
       id="path44" />
    <g
       clip-path="url(#g)"
       opacity=".10000598"
       id="g45">
      <path
         fill="#84849b"
         d="M85.0992 6.1158l16.896 16.323h-8.253v18.674h-17.286v-18.674h-8.252l16.895-16.323zm54.5228 22.5835l.405 23.489-5.835-5.835-13.205 13.204-12.223-12.223 13.205-13.204-5.836-5.836 23.489.405zm22.5841 54.5222l-16.323 16.896v-8.252h-18.674v-17.287h18.674v-8.252l16.323 16.895zm-22.5834 54.5226l-23.489.405 5.835-5.835-13.205-13.205 12.224-12.223 13.204 13.205 5.836-5.835-.405 23.488zm-54.5222 22.5844l-16.896-16.322h8.252v-18.675h17.287v18.674l8.252.001-16.895 16.322zm-54.5226-22.5832l-.405-23.489 5.835 5.835 13.205-13.205 12.223 12.223-13.205 13.205 5.835 5.836-23.488-.405zM7.9934 83.223l16.322-16.895v8.251h18.675v17.286h-18.674l-.001 8.253-16.322-16.895zm22.5833-54.5226l23.489-.405-5.835 5.835 13.205 13.205-12.223 12.223-13.205-13.205-5.836 5.835.405-23.488z"
         id="path45" />
    </g>
    <path
       fill="#6d6e70"
       d="M84.1609.0119c-45.529.504-82.284 37.562-82.284 83.21 0 45.649 36.755 82.707 82.284 83.211-.313.003-.625.012-.939.012-45.962 0-83.222-37.26-83.222-83.223 0-45.962 37.26-83.222 83.222-83.222.314 0 .626.009.939.012"
       id="path46" />
  </g>
  <path
     fill="url(#h)"
     d="M25.741961 162.33389c0 7.03835 5.706355 12.74471 12.744705 12.74471 7.038804 0 12.744706-5.70636 12.744706-12.74471 0-7.0388-5.705902-12.7447-12.744706-12.7447-7.03835 0-12.744705 5.7059-12.744705 12.7447"
     id="path47" />
  <g
     clip-path="url(#i)"
     transform="matrix(0.45259795,0,0,-0.45259795,0,200)"
     id="g80">
    <g
       clip-path="url(#j)"
       opacity=".30000299"
       id="g48">
      <path
         fill="#231f20"
         d="M85.035 60.786c-12.391 0-22.436 10.045-22.436 22.436s10.045 22.437 22.436 22.437 22.436-10.046 22.436-22.437c0-12.391-10.045-22.436-22.436-22.436"
         id="path48" />
    </g>
    <g
       clip-path="url(#k)"
       opacity=".14999402"
       id="g49">
      <path
         fill="url(#l)"
         d="M58.434 83.504c0 14.847 12.035 26.882 26.882 26.882 14.847 0 26.883-12.035 26.883-26.882 0-14.847-12.036-26.883-26.883-26.883S58.434 68.657 58.434 83.504m54.583-.346c0 15.49-12.557 28.047-28.047 28.047S56.923 98.648 56.923 83.158 69.48 55.111 84.97 55.111s28.047 12.557 28.047 28.047"
         mask="url(#m)"
         id="path49" />
    </g>
    <g
       clip-path="url(#n)"
       opacity=".39999402"
       id="g50">
      <path
         fill="url(#o)"
         d="M111.507 82.812c0-14.847-12.036-26.883-26.882-26.883-14.847 0-26.883 12.036-26.883 26.883s12.036 26.883 26.883 26.883c14.846 0 26.882-12.036 26.882-26.883m-54.583.346c0-15.49 12.556-28.047 28.047-28.047 15.49 0 28.047 12.557 28.047 28.047s-12.557 28.047-28.047 28.047c-15.491 0-28.047-12.557-28.047-28.047"
         mask="url(#p)"
         id="path50" />
    </g>
    <path
       fill="#c0392b"
       d="M118.4858 234.7732c-18.39 0-33.298 14.908-33.298 33.298s14.908 33.298 33.298 33.298 33.298-14.908 33.298-33.298-14.908-33.298-33.298-33.298"
       id="path51" />
    <g
       clip-path="url(#q)"
       opacity=".30000299"
       id="g52">
      <path
         fill="#c0392b"
         d="M118.4858 241.5404c-14.653 0-26.531 11.878-26.531 26.531 0 14.652 11.878 26.531 26.531 26.531 14.653 0 26.531-11.879 26.531-26.531 0-14.653-11.878-26.531-26.531-26.531"
         id="path52" />
    </g>
    <path
       fill="#c0392b"
       d="M118.4094 242.2279c-14.231 0-25.767 11.536-25.767 25.767s11.536 25.767 25.767 25.767 25.767-11.536 25.767-25.767-11.536-25.767-25.767-25.767"
       id="path53" />
    <path
       fill="#c0392b"
       d="M118.4094 242.2279c-14.231 0-25.767 11.536-25.767 25.767s11.536 25.767 25.767 25.767 25.767-11.536 25.767-25.767-11.536-25.767-25.767-25.767"
       id="path54" />
    <g
       clip-path="url(#r)"
       opacity=".19999701"
       id="g55">
      <path
         fill="#c0392b"
         d="M94.0298 268.3128c0 13.64 11.057 24.697 24.697 24.697 13.64 0 24.698-11.057 24.698-24.697 0-13.64-11.058-24.698-24.698-24.698s-24.697 11.058-24.697 24.698m50.146-.318c0 14.231-11.536 25.767-25.766 25.767-14.231 0-25.767-11.536-25.767-25.767s11.536-25.767 25.767-25.767c14.23 0 25.766 11.536 25.766 25.767"
         id="path55" />
    </g>
    <g
       clip-path="url(#s)"
       opacity=".14999402"
       id="g56">
      <path
         fill="#c0392b"
         d="M87.0294 268.4037c0 17.557 14.233 31.789 31.789 31.789 17.557 0 31.789-14.232 31.789-31.789 0-17.556-14.232-31.789-31.789-31.789-17.556 0-31.789 14.233-31.789 31.789m64.546-.409c0 18.317-14.849 33.166-33.166 33.166-18.317 0-33.166-14.849-33.166-33.166 0-18.317 14.849-33.165 33.166-33.165 18.317 0 33.166 14.848 33.166 33.165"
         id="path56" />
    </g>
    <path
       fill="#c0392b"
       d="M117.6679 375.2973c-18.39 0-33.298 14.908-33.298 33.298s14.908 33.298 33.298 33.298 33.298-14.908 33.298-33.298-14.908-33.298-33.298-33.298"
       id="path57" />
    <g
       clip-path="url(#t)"
       opacity=".30000299"
       id="g58">
      <path
         fill="#c0392b"
         d="M117.6679 382.0645c-14.653 0-26.531 11.878-26.531 26.531 0 14.652 11.878 26.531 26.531 26.531 14.653 0 26.531-11.879 26.531-26.531 0-14.653-11.878-26.531-26.531-26.531"
         id="path58" />
    </g>
    <path
       fill="#c0392b"
       d="M117.5915 382.752c-14.231 0-25.767 11.536-25.767 25.767s11.536 25.767 25.767 25.767 25.767-11.536 25.767-25.767-11.536-25.767-25.767-25.767"
       id="path59" />
    <g
       clip-path="url(#u)"
       opacity=".19999701"
       id="g60">
      <path
         fill="#c0392b"
         d="M93.2119 408.837c0 13.64 11.057 24.697 24.697 24.697 13.64 0 24.698-11.057 24.698-24.697 0-13.64-11.058-24.698-24.698-24.698s-24.697 11.058-24.697 24.698m50.146-.318c0 14.231-11.536 25.767-25.766 25.767-14.231 0-25.767-11.536-25.767-25.767s11.536-25.767 25.767-25.767c14.23 0 25.766 11.536 25.766 25.767"
         id="path60" />
    </g>
    <g
       clip-path="url(#v)"
       opacity=".14999402"
       id="g61">
      <path
         fill="#c0392b"
         d="M86.2115 408.9279c0 17.557 14.233 31.789 31.789 31.789 17.557 0 31.789-14.232 31.789-31.789 0-17.556-14.232-31.789-31.789-31.789-17.556 0-31.789 14.233-31.789 31.789m64.546-.409c0 18.317-14.849 33.166-33.166 33.166-18.317 0-33.166-14.849-33.166-33.166 0-18.317 14.849-33.165 33.166-33.165 18.317 0 33.166 14.848 33.166 33.165"
         id="path61" />
    </g>
    <path
       fill="#c0392b"
       d="M54.049 269.4192c-18.39 0-33.298 14.908-33.298 33.298s14.908 33.298 33.298 33.298 33.298-14.908 33.298-33.298-14.908-33.298-33.298-33.298"
       id="path62" />
    <g
       clip-path="url(#w)"
       opacity=".30000299"
       id="g63">
      <path
         fill="#c0392b"
         d="M54.049 276.1864c-14.653 0-26.531 11.878-26.531 26.531 0 14.652 11.878 26.531 26.531 26.531 14.653 0 26.531-11.879 26.531-26.531 0-14.653-11.878-26.531-26.531-26.531"
         id="path63" />
    </g>
    <path
       fill="#c0392b"
       d="M53.9726 276.8739c-14.231 0-25.767 11.536-25.767 25.767s11.536 25.767 25.767 25.767 25.767-11.536 25.767-25.767-11.536-25.767-25.767-25.767"
       id="path64" />
    <path
       fill="#c0392b"
       d="M53.9726 276.8739c-14.231 0-25.767 11.536-25.767 25.767s11.536 25.767 25.767 25.767 25.767-11.536 25.767-25.767-11.536-25.767-25.767-25.767"
       id="path65" />
    <g
       clip-path="url(#x)"
       opacity=".19999701"
       id="g66">
      <path
         fill="#c0392b"
         d="M29.593 302.9589c0 13.64 11.057 24.697 24.697 24.697 13.64 0 24.698-11.057 24.698-24.697 0-13.64-11.058-24.698-24.698-24.698s-24.697 11.058-24.697 24.698m50.146-.318c0 14.231-11.536 25.767-25.766 25.767-14.231 0-25.767-11.536-25.767-25.767s11.536-25.767 25.767-25.767c14.23 0 25.766 11.536 25.766 25.767"
         id="path66" />
    </g>
    <g
       clip-path="url(#y)"
       opacity=".14999402"
       id="g67">
      <path
         fill="#c0392b"
         d="M22.5926 303.0498c0 17.557 14.233 31.789 31.789 31.789 17.557 0 31.789-14.232 31.789-31.789 0-17.556-14.232-31.789-31.789-31.789-17.556 0-31.789 14.233-31.789 31.789m64.546-.409c0 18.317-14.849 33.166-33.166 33.166-18.317 0-33.166-14.849-33.166-33.166 0-18.317 14.849-33.165 33.166-33.165 18.317 0 33.166 14.848 33.166 33.165"
         id="path67" />
    </g>
    <path
       fill="#c0392b"
       d="M53.5638 339.6811c-18.39 0-33.298 14.908-33.298 33.298s14.908 33.298 33.298 33.298 33.298-14.908 33.298-33.298-14.908-33.298-33.298-33.298"
       id="path68" />
    <g
       clip-path="url(#z)"
       opacity=".30000299"
       id="g69">
      <path
         fill="#c0392b"
         d="M53.5638 346.4483c-14.653 0-26.531 11.878-26.531 26.531 0 14.652 11.878 26.531 26.531 26.531 14.653 0 26.531-11.879 26.531-26.531 0-14.653-11.878-26.531-26.531-26.531"
         id="path69" />
    </g>
    <path
       fill="#c0392b"
       d="M53.4874 347.1358c-14.231 0-25.767 11.536-25.767 25.767s11.536 25.767 25.767 25.767 25.767-11.536 25.767-25.767-11.536-25.767-25.767-25.767"
       id="path70" />
    <path
       fill="#c0392b"
       d="M53.4874 347.1358c-14.231 0-25.767 11.536-25.767 25.767s11.536 25.767 25.767 25.767 25.767-11.536 25.767-25.767-11.536-25.767-25.767-25.767"
       id="path71" />
    <g
       clip-path="url(#A)"
       opacity=".19999701"
       id="g72">
      <path
         fill="#c0392b"
         d="M29.1078 373.2208c0 13.64 11.057 24.697 24.697 24.697 13.64 0 24.698-11.057 24.698-24.697 0-13.64-11.058-24.698-24.698-24.698s-24.697 11.058-24.697 24.698m50.146-.318c0 14.231-11.536 25.767-25.766 25.767-14.231 0-25.767-11.536-25.767-25.767s11.536-25.767 25.767-25.767c14.23 0 25.766 11.536 25.766 25.767"
         id="path72" />
    </g>
    <g
       clip-path="url(#B)"
       opacity=".14999402"
       id="g73">
      <path
         fill="#c0392b"
         d="M22.1074 373.3117c0 17.557 14.233 31.789 31.789 31.789 17.557 0 31.789-14.232 31.789-31.789 0-17.556-14.232-31.789-31.789-31.789-17.556 0-31.789 14.233-31.789 31.789m64.546-.409c0 18.317-14.849 33.166-33.166 33.166-18.317 0-33.166-14.849-33.166-33.166 0-18.317 14.849-33.165 33.166-33.165 18.317 0 33.166 14.848 33.166 33.165"
         id="path73" />
    </g>
    <path
       fill="#c0392b"
       d="M53.4874 198.475c-18.39 0-33.298 14.908-33.298 33.298s14.908 33.298 33.298 33.298 33.298-14.908 33.298-33.298-14.908-33.298-33.298-33.298"
       id="path74" />
    <g
       clip-path="url(#C)"
       opacity=".30000299"
       id="g75">
      <path
         fill="#c0392b"
         d="M53.4874 205.2422c-14.653 0-26.531 11.878-26.531 26.531 0 14.652 11.878 26.531 26.531 26.531 14.653 0 26.531-11.879 26.531-26.531 0-14.653-11.878-26.531-26.531-26.531"
         id="path75" />
    </g>
    <path
       fill="#c0392b"
       d="M53.411 205.9297c-14.231 0-25.767 11.536-25.767 25.767s11.536 25.767 25.767 25.767 25.767-11.536 25.767-25.767-11.536-25.767-25.767-25.767"
       id="path76" />
    <path
       fill="#c0392b"
       d="M53.411 205.9297c-14.231 0-25.767 11.536-25.767 25.767s11.536 25.767 25.767 25.767 25.767-11.536 25.767-25.767-11.536-25.767-25.767-25.767"
       id="path77" />
    <g
       clip-path="url(#D)"
       opacity=".19999701"
       id="g78">
      <path
         fill="#c0392b"
         d="M29.0314 232.0147c0 13.64 11.057 24.697 24.697 24.697 13.64 0 24.698-11.057 24.698-24.697 0-13.64-11.058-24.698-24.698-24.698s-24.697 11.058-24.697 24.698m50.146-.318c0 14.231-11.536 25.767-25.766 25.767-14.231 0-25.767-11.536-25.767-25.767s11.536-25.767 25.767-25.767c14.23 0 25.766 11.536 25.766 25.767"
         id="path78" />
    </g>
    <g
       clip-path="url(#E)"
       opacity=".14999402"
       id="g79">
      <path
         fill="#c0392b"
         d="M22.031 232.1056c0 17.557 14.233 31.789 31.789 31.789 17.557 0 31.789-14.232 31.789-31.789 0-17.556-14.232-31.789-31.789-31.789-17.556 0-31.789 14.233-31.789 31.789m64.546-.409c0 18.317-14.849 33.165-33.166 33.165-18.317 0-33.166-14.848-33.166-33.165s14.849-33.165 33.166-33.165c18.317 0 33.166 14.848 33.166 33.165"
         id="path79" />
    </g>
    <path
       fill="#c0392b"
       d="M144.8838 83.5414c0-21.526-17.45-38.977-38.977-38.977-21.526 0-38.976 17.451-38.976 38.977 0 21.526 17.45 38.977 38.976 38.977 21.527 0 38.977-17.451 38.977-38.977"
       id="path80" />
  </g>
  <path
     style="fill:#ffcc00;stroke-width:0.247831"
     d="m 50.309789,61.482441 c -7.910473,-1.837246 -12.9343,-9.426264 -11.508553,-17.38488 0.436823,-2.438379 2.209104,-5.7754 4.030133,-7.588325 3.05222,-3.038636 6.477962,-4.500216 10.576314,-4.512344 10.305851,-0.0305 17.544644,10.133908 14.131987,19.843532 -1.482111,4.216873 -5.344855,7.923145 -9.667234,9.275633 -2.087484,0.653182 -5.595962,0.823155 -7.562647,0.366384 z"
     id="path81" />
  <path
     style="fill:#0000ff;stroke-width:0.247831"
     d="m 50.557621,93.303626 c -4.82659,-0.966203 -9.365739,-4.969438 -11.031661,-9.729207 -0.680542,-1.944403 -0.92427,-5.756654 -0.506362,-7.920227 0.681458,-3.528013 3.104679,-7.124009 6.235704,-9.253619 2.855168,-1.941982 4.624195,-2.460053 8.400212,-2.460053 3.533159,0 4.786082,0.314172 7.450156,1.868135 6.831121,3.984616 9.374739,12.681689 5.752164,19.667649 -1.890875,3.646459 -5.877834,6.784055 -9.793753,7.707337 -1.649054,0.388808 -4.867128,0.448153 -6.50646,0.119985 z"
     id="path82" />
  <path
     style="fill:#ffffff;stroke-width:0.247831"
     d="M 21.561338,45.873244 C 14.853879,44.592473 9.8113688,38.889221 9.3786266,32.094176 8.7455249,22.153029 18.134691,14.26762 27.693718,16.712408 c 5.552208,1.420015 9.79562,5.682505 11.118646,11.168633 0.782883,3.24634 0.139433,7.616118 -1.56221,10.609244 -3.087019,5.429943 -9.676685,8.530959 -15.688816,7.382959 z"
     id="path83" />
  <path
     style="fill:#241f1c;stroke-width:0.247831"
     d="M 21.231163,77.562957 C 15.947555,76.416102 11.397745,71.986446 10.036467,66.663898 7.8733108,58.20604 13.39359,49.787579 22.086552,48.287443 c 7.390267,-1.275332 14.875659,3.603987 16.824737,10.96713 0.498428,1.882937 0.500855,5.508336 0.005,7.412094 -2.017194,7.744106 -9.882218,12.589972 -17.685087,10.89629 z"
     id="path84" />
  <path
     style="fill:#00ffff;stroke-width:0.247831"
     d="m 23.048327,110.00587 c -5.580059,-0.67872 -9.862343,-3.62992 -12.249047,-8.44163 -2.8202809,-5.685819 -1.6631694,-12.359458 2.934853,-16.926764 2.164542,-2.150081 4.091186,-3.266357 6.859674,-3.974417 3.42989,-0.877218 6.473083,-0.595121 9.742003,0.903061 3.930495,1.80139 6.802621,5.025706 8.08072,9.071603 0.745366,2.359504 0.839911,5.82419 0.22407,8.211262 -1.291314,5.005265 -5.75702,9.472595 -10.666462,10.670335 -1.659365,0.40484 -3.832715,0.61951 -4.925811,0.48655 z"
     id="path85" />
</svg>
