<?xml version="1.0" encoding="UTF-8" standalone="no"?>
<svg
   width="78"
   height="220"
   version="1.1"
   id="svg80"
   sodipodi:docname="neogeo64.svg"
   inkscape:version="1.4.2 (f4327f4, 2025-05-13)"
   xmlns:inkscape="http://www.inkscape.org/namespaces/inkscape"
   xmlns:sodipodi="http://sodipodi.sourceforge.net/DTD/sodipodi-0.dtd"
   xmlns="http://www.w3.org/2000/svg"
   xmlns:svg="http://www.w3.org/2000/svg">
  <sodipodi:namedview
     id="namedview80"
     pagecolor="#ffffff"
     bordercolor="#000000"
     borderopacity="0.25"
     inkscape:showpageshadow="2"
     inkscape:pageopacity="0.0"
     inkscape:pagecheckerboard="0"
     inkscape:deskcolor="#d1d1d1"
     inkscape:zoom="4.035"
     inkscape:cx="38.042131"
     inkscape:cy="139.65304"
     inkscape:window-width="1920"
     inkscape:window-height="1009"
     inkscape:window-x="-8"
     inkscape:window-y="-8"
     inkscape:window-maximized="1"
     inkscape:current-layer="svg80" />
  <defs
     id="defs37">
    <clipPath
       id="c">
      <path
         d="M 0,445.559 H 168.322 V 0 H 0 Z"
         id="path1" />
    </clipPath>
    <clipPath
       id="d">
      <path
         d="M 91.6221,364.864 H 144.684 V 311.803 H 91.6221 Z"
         id="path2" />
    </clipPath>
    <clipPath
       id="e">
      <path
         d="M 92.3097,364.024 H 143.844 V 312.49 H 92.3097 Z"
         id="path3" />
    </clipPath>
    <clipPath
       id="f">
      <path
         d="m 84.911,371.422 h 66.331 V 305.091 H 84.911 Z"
         id="path4" />
    </clipPath>
    <clipPath
       id="g">
      <path
         d="M 7.99342,160.329 H 162.206 V 6.11584 H 7.99342 Z"
         id="path5" />
    </clipPath>
    <linearGradient
       id="h"
       x2="1"
       gradientTransform="matrix(18.023741,-18.023741,18.023741,18.023741,30.466115,189.18948)"
       gradientUnits="userSpaceOnUse">
      <stop
         offset="0"
         stop-color="#a6a8ab"
         id="stop5" />
      <stop
         offset="1"
         stop-color="#e6e7e8"
         id="stop6" />
    </linearGradient>
    <clipPath
       id="i">
      <path
         d="M 0,445.559 H 168.322 V 0 H 0 Z"
         id="path6" />
    </clipPath>
    <clipPath
       id="j">
      <path
         d="M 62.5988,105.659 H 107.471 V 60.786 H 62.5988 Z"
         id="path7" />
    </clipPath>
    <clipPath
       id="k">
      <path
         d="m 58.434,83.504 c 0,14.847 12.035,26.882 26.882,26.882 14.847,0 26.883,-12.035 26.883,-26.882 0,-14.847 -12.036,-26.883 -26.883,-26.883 -14.847,0 -26.882,12.036 -26.882,26.883 m 54.583,-0.346 c 0,15.49 -12.557,28.047 -28.047,28.047 -15.49,0 -28.047,-12.557 -28.047,-28.047 0,-15.49 12.557,-28.047 28.047,-28.047 15.49,0 28.047,12.557 28.047,28.047"
         id="path8" />
    </clipPath>
    <linearGradient
       id="a"
       x2="1"
       gradientTransform="matrix(39.664417,-39.664417,-39.664417,-39.664417,65.138191,102.98982)"
       gradientUnits="userSpaceOnUse">
      <stop
         offset="0"
         stop-opacity="0"
         stop-color="#fff"
         id="stop8" />
      <stop
         offset=".20751882"
         stop-color="#fff"
         id="stop9" />
      <stop
         offset=".5"
         stop-color="#fff"
         id="stop10" />
      <stop
         offset=".79248118"
         stop-color="#fff"
         id="stop11" />
      <stop
         offset="1"
         stop-opacity="0"
         stop-color="#fff"
         id="stop12" />
    </linearGradient>
    <mask
       id="m"
       width="1"
       height="1"
       x="0"
       y="0"
       maskUnits="userSpaceOnUse">
      <path
         fill="url(#a)"
         d="M -32768,32767 H 32767 V -32768 H -32768 Z"
         id="path12" />
    </mask>
    <linearGradient
       id="l"
       x2="1"
       gradientTransform="matrix(39.664417,-39.664417,-39.664417,-39.664417,65.138191,102.98982)"
       gradientUnits="userSpaceOnUse">
      <stop
         offset="0"
         stop-color="#231f20"
         id="stop13" />
      <stop
         offset=".20751882"
         stop-color="#231f20"
         id="stop14" />
      <stop
         offset=".5"
         stop-color="#231f20"
         id="stop15" />
      <stop
         offset=".79248118"
         stop-color="#231f20"
         id="stop16" />
      <stop
         offset="1"
         stop-color="#231f20"
         id="stop17" />
    </linearGradient>
    <clipPath
       id="n">
      <path
         d="m 111.507,82.812 c 0,-14.847 -12.036,-26.883 -26.882,-26.883 -14.847,0 -26.883,12.036 -26.883,26.883 0,14.847 12.036,26.883 26.883,26.883 14.846,0 26.882,-12.036 26.882,-26.883 m -54.583,0.346 c 0,-15.49 12.556,-28.047 28.047,-28.047 15.49,0 28.047,12.557 28.047,28.047 0,15.49 -12.557,28.047 -28.047,28.047 -15.491,0 -28.047,-12.557 -28.047,-28.047"
         id="path17" />
    </clipPath>
    <linearGradient
       id="b"
       x2="1"
       gradientTransform="matrix(-39.664425,39.664425,39.664425,39.664425,104.80286,63.325817)"
       gradientUnits="userSpaceOnUse">
      <stop
         offset="0"
         stop-opacity="0"
         stop-color="#fff"
         id="stop18" />
      <stop
         offset=".5"
         stop-color="#fff"
         id="stop19" />
      <stop
         offset="1"
         stop-opacity="0"
         stop-color="#fff"
         id="stop20" />
    </linearGradient>
    <mask
       id="p"
       width="1"
       height="1"
       x="0"
       y="0"
       maskUnits="userSpaceOnUse">
      <path
         fill="url(#b)"
         d="M -32768,32767 H 32767 V -32768 H -32768 Z"
         id="path20" />
    </mask>
    <linearGradient
       id="o"
       x2="1"
       gradientTransform="matrix(-39.664425,39.664425,39.664425,39.664425,104.80286,63.325817)"
       gradientUnits="userSpaceOnUse">
      <stop
         offset="0"
         stop-color="#fff"
         id="stop21" />
      <stop
         offset=".5"
         stop-color="#fff"
         id="stop22" />
      <stop
         offset="1"
         stop-color="#fff"
         id="stop23" />
    </linearGradient>
    <clipPath
       id="q">
      <path
         d="M 91.9548,294.602 H 145.017 V 241.54 H 91.9548 Z"
         id="path23" />
    </clipPath>
    <clipPath
       id="r">
      <path
         d="M 92.6425,293.762 H 144.176 V 242.228 H 92.6425 Z"
         id="path24" />
    </clipPath>
    <clipPath
       id="s">
      <path
         d="M 85.2437,301.16 H 151.575 V 234.829 H 85.2437 Z"
         id="path25" />
    </clipPath>
    <clipPath
       id="t">
      <path
         d="M 91.1369,435.126 H 144.199 V 382.065 H 91.1369 Z"
         id="path26" />
    </clipPath>
    <clipPath
       id="u">
      <path
         d="M 91.8246,434.286 H 143.358 V 382.752 H 91.8246 Z"
         id="path27" />
    </clipPath>
    <clipPath
       id="v">
      <path
         d="M 84.4258,441.684 H 150.757 V 375.353 H 84.4258 Z"
         id="path28" />
    </clipPath>
    <clipPath
       id="w">
      <path
         d="M 27.5181,329.248 H 80.5799 V 276.186 H 27.5181 Z"
         id="path29" />
    </clipPath>
    <clipPath
       id="x">
      <path
         d="M 28.2057,328.408 H 79.7394 V 276.874 H 28.2057 Z"
         id="path30" />
    </clipPath>
    <clipPath
       id="y">
      <path
         d="M 20.8069,335.806 H 87.1383 V 269.475 H 20.8069 Z"
         id="path31" />
    </clipPath>
    <clipPath
       id="z">
      <path
         d="M 27.0329,399.51 H 80.0947 V 346.448 H 27.0329 Z"
         id="path32" />
    </clipPath>
    <clipPath
       id="A">
      <path
         d="M 27.7205,398.67 H 79.2543 V 347.136 H 27.7205 Z"
         id="path33" />
    </clipPath>
    <clipPath
       id="B">
      <path
         d="M 20.3217,406.068 H 86.6531 V 339.737 H 20.3217 Z"
         id="path34" />
    </clipPath>
    <clipPath
       id="C">
      <path
         d="M 26.9564,258.304 H 80.0183 V 205.242 H 26.9564 Z"
         id="path35" />
    </clipPath>
    <clipPath
       id="D">
      <path
         d="M 27.644,257.464 H 79.1778 V 205.93 H 27.644 Z"
         id="path36" />
    </clipPath>
    <clipPath
       id="E">
      <path
         d="M 20.2453,264.862 H 86.5767 V 198.531 H 20.2453 Z"
         id="path37" />
    </clipPath>
  </defs>
  <g
     clip-path="url(#c)"
     transform="matrix(0.45259795,0,0,-0.45259795,0.9913259,217.84386)"
     id="g46">
    <path
       fill="#c0392b"
       d="m 118.153,305.0354 c -18.39,0 -33.298,14.908 -33.298,33.298 0,18.39 14.908,33.298 33.298,33.298 18.39,0 33.298,-14.908 33.298,-33.298 0,-18.39 -14.908,-33.298 -33.298,-33.298"
       id="path38" />
    <g
       clip-path="url(#d)"
       opacity="0.300003"
       id="g39">
      <path
         fill="#c0392b"
         d="m 118.153,311.8026 c -14.653,0 -26.531,11.878 -26.531,26.531 0,14.652 11.878,26.531 26.531,26.531 14.653,0 26.531,-11.879 26.531,-26.531 0,-14.653 -11.878,-26.531 -26.531,-26.531"
         id="path39" />
    </g>
    <path
       fill="#c0392b"
       d="m 118.0767,312.4901 c -14.231,0 -25.767,11.536 -25.767,25.767 0,14.231 11.536,25.767 25.767,25.767 14.231,0 25.767,-11.536 25.767,-25.767 0,-14.231 -11.536,-25.767 -25.767,-25.767"
       id="path40" />
    <path
       fill="#c0392b"
       d="m 118.0767,312.4901 c -14.231,0 -25.767,11.536 -25.767,25.767 0,14.231 11.536,25.767 25.767,25.767 14.231,0 25.767,-11.536 25.767,-25.767 0,-14.231 -11.536,-25.767 -25.767,-25.767"
       id="path41" />
    <g
       clip-path="url(#e)"
       opacity="0.199997"
       id="g42">
      <path
         fill="#c0392b"
         d="m 93.6971,338.575 c 0,13.64 11.057,24.697 24.697,24.697 13.64,0 24.698,-11.057 24.698,-24.697 0,-13.64 -11.058,-24.698 -24.698,-24.698 -13.64,0 -24.697,11.058 -24.697,24.698 m 50.146,-0.318 c 0,14.231 -11.536,25.767 -25.766,25.767 -14.231,0 -25.767,-11.536 -25.767,-25.767 0,-14.231 11.536,-25.767 25.767,-25.767 14.23,0 25.766,11.536 25.766,25.767"
         id="path42" />
    </g>
    <g
       clip-path="url(#f)"
       opacity="0.149994"
       id="g43">
      <path
         fill="#c0392b"
         d="m 86.6967,338.666 c 0,17.557 14.233,31.789 31.789,31.789 17.557,0 31.789,-14.232 31.789,-31.789 0,-17.556 -14.232,-31.789 -31.789,-31.789 -17.556,0 -31.789,14.233 -31.789,31.789 m 64.546,-0.409 c 0,18.317 -14.849,33.166 -33.166,33.166 -18.317,0 -33.166,-14.849 -33.166,-33.166 0,-18.317 14.849,-33.165 33.166,-33.165 18.317,0 33.166,14.848 33.166,33.165"
         id="path43" />
    </g>
    <path
       fill="#231f20"
       d="m 85.0995,0 c -45.962,0 -83.222,37.26 -83.222,83.222 0,45.963 37.26,83.222 83.222,83.222 45.962,0 83.222,-37.259 83.222,-83.222 C 168.3215,37.26 131.0615,0 85.0995,0"
       id="path44" />
    <g
       clip-path="url(#g)"
       opacity="0.100006"
       id="g45">
      <path
         fill="#84849b"
         d="m 85.0992,6.1158 16.896,16.323 h -8.253 v 18.674 h -17.286 v -18.674 h -8.252 z m 54.5228,22.5835 0.405,23.489 -5.835,-5.835 -13.205,13.204 -12.223,-12.223 13.205,-13.204 -5.836,-5.836 z m 22.5841,54.5222 -16.323,16.896 v -8.252 h -18.674 v -17.287 h 18.674 v -8.252 z m -22.5834,54.5226 -23.489,0.405 5.835,-5.835 -13.205,-13.205 12.224,-12.223 13.204,13.205 5.836,-5.835 z m -54.5222,22.5844 -16.896,-16.322 h 8.252 v -18.675 h 17.287 v 18.674 l 8.252,10e-4 z m -54.5226,-22.5832 -0.405,-23.489 5.835,5.835 13.205,-13.205 12.223,12.223 -13.205,13.205 5.835,5.836 z M 7.9934,83.223 24.3154,66.328 v 8.251 h 18.675 v 17.286 h -18.674 l -0.001,8.253 z m 22.5833,-54.5226 23.489,-0.405 -5.835,5.835 13.205,13.205 -12.223,12.223 -13.205,-13.205 -5.836,5.835 z"
         id="path45" />
    </g>
    <path
       fill="#6d6e70"
       d="m 84.1609,0.0119 c -45.529,0.504 -82.284,37.562 -82.284,83.21 0,45.649 36.755,82.707 82.284,83.211 -0.313,0.003 -0.625,0.012 -0.939,0.012 -45.962,0 -83.222,-37.26 -83.222,-83.223 0,-45.962 37.26,-83.222 83.222,-83.222 0.314,0 0.626,0.009 0.939,0.012"
       id="path46" />
  </g>
  <path
     fill="url(#h)"
     d="m 26.733287,180.17775 c 0,7.03835 5.706355,12.74471 12.744705,12.74471 7.038804,0 12.744706,-5.70636 12.744706,-12.74471 0,-7.0388 -5.705902,-12.7447 -12.744706,-12.7447 -7.03835,0 -12.744705,5.7059 -12.744705,12.7447"
     id="path47"
     style="fill:url(#h)" />
  <g
     clip-path="url(#i)"
     transform="matrix(0.45259795,0,0,-0.45259795,0.9913259,217.84386)"
     id="g80">
    <g
       clip-path="url(#j)"
       opacity="0.300003"
       id="g48">
      <path
         fill="#231f20"
         d="m 85.035,60.786 c -12.391,0 -22.436,10.045 -22.436,22.436 0,12.391 10.045,22.437 22.436,22.437 12.391,0 22.436,-10.046 22.436,-22.437 0,-12.391 -10.045,-22.436 -22.436,-22.436"
         id="path48" />
    </g>
    <g
       clip-path="url(#k)"
       opacity="0.149994"
       id="g49">
      <path
         fill="url(#l)"
         d="m 58.434,83.504 c 0,14.847 12.035,26.882 26.882,26.882 14.847,0 26.883,-12.035 26.883,-26.882 0,-14.847 -12.036,-26.883 -26.883,-26.883 -14.847,0 -26.882,12.036 -26.882,26.883 m 54.583,-0.346 c 0,15.49 -12.557,28.047 -28.047,28.047 -15.49,0 -28.047,-12.557 -28.047,-28.047 0,-15.49 12.557,-28.047 28.047,-28.047 15.49,0 28.047,12.557 28.047,28.047"
         mask="url(#m)"
         id="path49"
         style="fill:url(#l)" />
    </g>
    <g
       clip-path="url(#n)"
       opacity="0.399994"
       id="g50">
      <path
         fill="url(#o)"
         d="m 111.507,82.812 c 0,-14.847 -12.036,-26.883 -26.882,-26.883 -14.847,0 -26.883,12.036 -26.883,26.883 0,14.847 12.036,26.883 26.883,26.883 14.846,0 26.882,-12.036 26.882,-26.883 m -54.583,0.346 c 0,-15.49 12.556,-28.047 28.047,-28.047 15.49,0 28.047,12.557 28.047,28.047 0,15.49 -12.557,28.047 -28.047,28.047 -15.491,0 -28.047,-12.557 -28.047,-28.047"
         mask="url(#p)"
         id="path50"
         style="fill:url(#o)" />
    </g>
    <path
       fill="#c0392b"
       d="m 118.4858,234.7732 c -18.39,0 -33.298,14.908 -33.298,33.298 0,18.39 14.908,33.298 33.298,33.298 18.39,0 33.298,-14.908 33.298,-33.298 0,-18.39 -14.908,-33.298 -33.298,-33.298"
       id="path51" />
    <g
       clip-path="url(#q)"
       opacity="0.300003"
       id="g52">
      <path
         fill="#c0392b"
         d="m 118.4858,241.5404 c -14.653,0 -26.531,11.878 -26.531,26.531 0,14.652 11.878,26.531 26.531,26.531 14.653,0 26.531,-11.879 26.531,-26.531 0,-14.653 -11.878,-26.531 -26.531,-26.531"
         id="path52" />
    </g>
    <path
       fill="#c0392b"
       d="m 118.4094,242.2279 c -14.231,0 -25.767,11.536 -25.767,25.767 0,14.231 11.536,25.767 25.767,25.767 14.231,0 25.767,-11.536 25.767,-25.767 0,-14.231 -11.536,-25.767 -25.767,-25.767"
       id="path53" />
    <path
       fill="#c0392b"
       d="m 118.4094,242.2279 c -14.231,0 -25.767,11.536 -25.767,25.767 0,14.231 11.536,25.767 25.767,25.767 14.231,0 25.767,-11.536 25.767,-25.767 0,-14.231 -11.536,-25.767 -25.767,-25.767"
       id="path54"
       style="fill:#c0392b;fill-opacity:1" />
    <g
       clip-path="url(#r)"
       opacity="0.199997"
       id="g55">
      <path
         fill="#c0392b"
         d="m 94.0298,268.3128 c 0,13.64 11.057,24.697 24.697,24.697 13.64,0 24.698,-11.057 24.698,-24.697 0,-13.64 -11.058,-24.698 -24.698,-24.698 -13.64,0 -24.697,11.058 -24.697,24.698 m 50.146,-0.318 c 0,14.231 -11.536,25.767 -25.766,25.767 -14.231,0 -25.767,-11.536 -25.767,-25.767 0,-14.231 11.536,-25.767 25.767,-25.767 14.23,0 25.766,11.536 25.766,25.767"
         id="path55" />
    </g>
    <g
       clip-path="url(#s)"
       opacity="0.149994"
       id="g56">
      <path
         fill="#c0392b"
         d="m 87.0294,268.4037 c 0,17.557 14.233,31.789 31.789,31.789 17.557,0 31.789,-14.232 31.789,-31.789 0,-17.556 -14.232,-31.789 -31.789,-31.789 -17.556,0 -31.789,14.233 -31.789,31.789 m 64.546,-0.409 c 0,18.317 -14.849,33.166 -33.166,33.166 -18.317,0 -33.166,-14.849 -33.166,-33.166 0,-18.317 14.849,-33.165 33.166,-33.165 18.317,0 33.166,14.848 33.166,33.165"
         id="path56" />
    </g>
    <path
       fill="#c0392b"
       d="m 54.049,269.4192 c -18.39,0 -33.298,14.908 -33.298,33.298 0,18.39 14.908,33.298 33.298,33.298 18.39,0 33.298,-14.908 33.298,-33.298 0,-18.39 -14.908,-33.298 -33.298,-33.298"
       id="path62" />
    <g
       clip-path="url(#w)"
       opacity="0.300003"
       id="g63">
      <path
         fill="#c0392b"
         d="m 54.049,276.1864 c -14.653,0 -26.531,11.878 -26.531,26.531 0,14.652 11.878,26.531 26.531,26.531 14.653,0 26.531,-11.879 26.531,-26.531 0,-14.653 -11.878,-26.531 -26.531,-26.531"
         id="path63" />
    </g>
    <path
       fill="#c0392b"
       d="m 53.9726,276.8739 c -14.231,0 -25.767,11.536 -25.767,25.767 0,14.231 11.536,25.767 25.767,25.767 14.231,0 25.767,-11.536 25.767,-25.767 0,-14.231 -11.536,-25.767 -25.767,-25.767"
       id="path64" />
    <path
       fill="#c0392b"
       d="m 53.9726,276.8739 c -14.231,0 -25.767,11.536 -25.767,25.767 0,14.231 11.536,25.767 25.767,25.767 14.231,0 25.767,-11.536 25.767,-25.767 0,-14.231 -11.536,-25.767 -25.767,-25.767"
       id="path65" />
    <g
       clip-path="url(#x)"
       opacity="0.199997"
       id="g66">
      <path
         fill="#c0392b"
         d="m 29.593,302.9589 c 0,13.64 11.057,24.697 24.697,24.697 13.64,0 24.698,-11.057 24.698,-24.697 0,-13.64 -11.058,-24.698 -24.698,-24.698 -13.64,0 -24.697,11.058 -24.697,24.698 m 50.146,-0.318 c 0,14.231 -11.536,25.767 -25.766,25.767 -14.231,0 -25.767,-11.536 -25.767,-25.767 0,-14.231 11.536,-25.767 25.767,-25.767 14.23,0 25.766,11.536 25.766,25.767"
         id="path66" />
    </g>
    <g
       clip-path="url(#y)"
       opacity="0.149994"
       id="g67">
      <path
         fill="#c0392b"
         d="m 22.5926,303.0498 c 0,17.557 14.233,31.789 31.789,31.789 17.557,0 31.789,-14.232 31.789,-31.789 0,-17.556 -14.232,-31.789 -31.789,-31.789 -17.556,0 -31.789,14.233 -31.789,31.789 m 64.546,-0.409 c 0,18.317 -14.849,33.166 -33.166,33.166 -18.317,0 -33.166,-14.849 -33.166,-33.166 0,-18.317 14.849,-33.165 33.166,-33.165 18.317,0 33.166,14.848 33.166,33.165"
         id="path67" />
    </g>
    <path
       fill="#c0392b"
       d="m 53.4874,198.475 c -18.39,0 -33.298,14.908 -33.298,33.298 0,18.39 14.908,33.298 33.298,33.298 18.39,0 33.298,-14.908 33.298,-33.298 0,-18.39 -14.908,-33.298 -33.298,-33.298"
       id="path74" />
    <g
       clip-path="url(#C)"
       opacity="0.300003"
       id="g75">
      <path
         fill="#c0392b"
         d="m 53.4874,205.2422 c -14.653,0 -26.531,11.878 -26.531,26.531 0,14.652 11.878,26.531 26.531,26.531 14.653,0 26.531,-11.879 26.531,-26.531 0,-14.653 -11.878,-26.531 -26.531,-26.531"
         id="path75" />
    </g>
    <path
       fill="#c0392b"
       d="m 53.411,205.9297 c -14.231,0 -25.767,11.536 -25.767,25.767 0,14.231 11.536,25.767 25.767,25.767 14.231,0 25.767,-11.536 25.767,-25.767 0,-14.231 -11.536,-25.767 -25.767,-25.767"
       id="path76" />
    <path
       fill="#c0392b"
       d="m 53.411,205.9297 c -14.231,0 -25.767,11.536 -25.767,25.767 0,14.231 11.536,25.767 25.767,25.767 14.231,0 25.767,-11.536 25.767,-25.767 0,-14.231 -11.536,-25.767 -25.767,-25.767"
       id="path77" />
    <g
       clip-path="url(#D)"
       opacity="0.199997"
       id="g78">
      <path
         fill="#c0392b"
         d="m 29.0314,232.0147 c 0,13.64 11.057,24.697 24.697,24.697 13.64,0 24.698,-11.057 24.698,-24.697 0,-13.64 -11.058,-24.698 -24.698,-24.698 -13.64,0 -24.697,11.058 -24.697,24.698 m 50.146,-0.318 c 0,14.231 -11.536,25.767 -25.766,25.767 -14.231,0 -25.767,-11.536 -25.767,-25.767 0,-14.231 11.536,-25.767 25.767,-25.767 14.23,0 25.766,11.536 25.766,25.767"
         id="path78" />
    </g>
    <g
       clip-path="url(#E)"
       opacity="0.149994"
       id="g79">
      <path
         fill="#c0392b"
         d="m 22.031,232.1056 c 0,17.557 14.233,31.789 31.789,31.789 17.557,0 31.789,-14.232 31.789,-31.789 0,-17.556 -14.232,-31.789 -31.789,-31.789 -17.556,0 -31.789,14.233 -31.789,31.789 m 64.546,-0.409 c 0,18.317 -14.849,33.165 -33.166,33.165 -18.317,0 -33.166,-14.848 -33.166,-33.165 0,-18.317 14.849,-33.165 33.166,-33.165 18.317,0 33.166,14.848 33.166,33.165"
         id="path79" />
    </g>
    <path
       fill="#c0392b"
       d="m 144.8838,83.5414 c 0,-21.526 -17.45,-38.977 -38.977,-38.977 -21.526,0 -38.976,17.451 -38.976,38.977 0,21.526 17.45,38.977 38.976,38.977 21.527,0 38.977,-17.451 38.977,-38.977"
       id="path80" />
  </g>
  <path
     style="fill:#008000;fill-opacity:1;stroke-width:0.247831"
     d="m 24.039653,127.84973 c -5.580059,-0.67872 -9.862343,-3.62992 -12.249047,-8.44163 -2.820281,-5.68582 -1.66317,-12.35946 2.934853,-16.92676 2.164542,-2.15008 4.091186,-3.266357 6.859674,-3.974417 3.42989,-0.87722 6.473083,-0.59512 9.742003,0.90306 3.930495,1.801387 6.802621,5.025707 8.08072,9.071607 0.745366,2.3595 0.839911,5.82419 0.22407,8.21126 -1.291314,5.00526 -5.75702,9.47259 -10.666462,10.67033 -1.659365,0.40484 -3.832715,0.61951 -4.925811,0.48655 z"
     id="path82" />
  <path
     style="fill:#0000ff;fill-opacity:1;stroke-width:0.247831"
     d="m 51.301115,79.326306 c -7.910473,-1.837246 -12.9343,-9.426264 -11.508553,-17.38488 0.436823,-2.438379 2.209104,-5.7754 4.030133,-7.588325 3.05222,-3.038636 6.477962,-4.500216 10.576314,-4.512344 10.305851,-0.0305 17.544644,10.133908 14.131987,19.843532 -1.482111,4.216873 -5.344855,7.923145 -9.667234,9.275633 -2.087484,0.653182 -5.595962,0.823155 -7.562647,0.366384 z"
     id="path85" />
  <path
     style="fill:#ff0000;stroke-width:0.247831"
     d="m 21.738668,127.25684 c -6.031159,-1.58016 -10.321475,-6.39105 -11.194011,-12.55227 -0.9953842,-7.02868 3.983546,-14.22512 11.113162,-16.062725 7.61602,-1.96297 15.808867,2.916915 17.78574,10.593685 0.464605,1.8042 0.519616,5.47411 0.108111,7.21251 -1.251821,5.28835 -6.133319,9.90936 -11.566001,10.9488 -2.468174,0.47224 -4.045093,0.4369 -6.247001,-0.14 z"
     id="path9" />
  <path
     style="fill:#ffd42a;stroke-width:0.247831"
     d="M 22.222489,95.406823 C 16.938881,94.259968 12.389071,89.830313 11.027793,84.507764 8.8646367,76.049906 14.384916,67.631446 23.077878,66.131309 c 7.390267,-1.275332 14.875659,3.603987 16.824737,10.96713 0.498428,1.882937 0.500855,5.508336 0.005,7.412094 -2.017194,7.744106 -9.882218,12.589973 -17.685087,10.89629 z"
     id="path10" />
  <path
     style="fill:#008000;stroke-width:0.247831"
     d="m 51.548947,111.14749 c -4.82659,-0.9662 -9.36574,-4.96944 -11.031661,-9.7292 -0.680542,-1.944407 -0.92427,-5.756659 -0.506362,-7.920232 0.681458,-3.528013 3.104679,-7.124009 6.235704,-9.253619 2.855168,-1.941982 4.624195,-2.460052 8.400212,-2.460052 3.533159,0 4.786082,0.314171 7.450156,1.868135 6.83112,3.984615 9.374739,12.681688 5.752164,19.667648 -1.890875,3.64646 -5.877835,6.78406 -9.793753,7.70734 -1.649054,0.3888 -4.867128,0.44815 -6.50646,0.11998 z"
     id="path11" />
</svg>
