<svg viewBox="0 0 233.6 361.6" xmlns="http://www.w3.org/2000/svg"><path d="m207.6 43.4v-30.4h-181.7v21.3h-20v82.2c0 6 5.4 11 12 11h198c6.6 0 12-4.9 12-11v-73.1z" fill="#b54128"/><path d="m229.2 22.6-9.9-9.9c-3.3-3.3-7.8-5.2-12.4-5.2h-4.8c-2.6 0-4.8 2.1-4.8 4.8v3.7c0 .4-.1.8-.1 1.2v72.1c0 5.3 4.3 9.6 9.6 9.6h17.2c5.3 0 9.6-4.3 9.6-9.6v-56c0-4-1.6-7.8-4.4-10.7zm-197.6-15h-4.8c-4.7 0-9.1 1.9-12.4 5.2l-9.9 9.9c-2.9 2.8-4.5 6.6-4.5 10.6v56.1c0 5.2 4.3 9.6 9.6 9.6h17.1c5.3 0 9.6-4.3 9.6-9.6v-77c0-2.6-2.1-4.8-4.7-4.8z" fill="#f47425"/><path d="m11.5 15.5-7.1 7.1c-2.8 2.9-4.4 6.7-4.4 10.7v56.1c0 5.2 4.3 9.6 9.6 9.6h1.9z" fill="#e46325"/><path d="m166.3 0h-32.5c-1.3 0-2.4 1.1-2.4 2.4v8.5h-29.4v-8.5c0-1.3-1.1-2.4-2.4-2.4h-32.3c-6.6 0-17 5.4-17 12v7c0 6.6 5.4 12 12 12h109c6.6 0 12-5.4 12-12v-7c0-6.6-10.5-12-17-12z" fill="#bfbfbf"/><path d="m102 2.4h29.5v8.5h-29.5z" fill="#919191"/><path d="m14 361.1c-6.2 0-11.2-5-11.2-11.2v-237c0-6.2 5-11.2 11.2-11.2h26.3c3.5 0 3.5-3.5 3.5-5.7v-86.8c-.1-.7.5-1.2 1.2-1.2h144c.7 0 1.2.6 1.2 1.2v86.8c0 3.1 4.5 5.7 7.5 5.7h21.8c6.2 0 11.2 5 11.2 11.2v237c0 6.2-5 11.2-11.2 11.2z" fill="#fff"/><path d="m189 8.5c.4 0 .7.3.7.7v86.8c0 3.5 4.9 6.2 8 6.2h21.8c5.9 0 10.7 4.8 10.7 10.7v237c0 5.9-4.8 10.7-10.7 10.7h-205.5c-5.9 0-10.7-4.8-10.7-10.7v-237c0-5.9 4.8-10.7 10.7-10.7h26.3c4 0 4-3.9 4-6.2v-86.8c0-.4.3-.7.7-.7zm0-1h-144c-1 0-1.7.8-1.7 1.7v86.7c0 2.8-.2 5.2-3 5.2h-26.3c-6.5 0-11.7 5.3-11.7 11.7v237c0 6.5 5.3 11.7 11.7 11.7h205.5c6.5 0 11.7-5.3 11.7-11.7v-237c0-6.5-5.3-11.7-11.7-11.7h-21.8c-2.8 0-7-2.4-7-5.2v-86.7c0-1-.7-1.7-1.7-1.7z" fill="#d1d3d4"/><path d="m13.7 101.1h-4.7c-3.7 0-6.8 3-6.8 6.8v247c0 3.7 3 6.8 6.8 6.8h4.8v-260.6z" fill="#d6d6d6"/><path d="m222 15.5 7.1 7.1c2.8 2.8 4.4 6.6 4.4 10.6v56.1c0 5.3-4.3 9.6-9.6 9.6h-1.9z" fill="#e46325"/><path d="m219.7 101.1h4.8c3.7 0 6.8 3 6.8 6.8v247c0 3.7-3 6.8-6.8 6.8h-4.8z" fill="#d6d6d6"/><path d="m219.8 354.6h-206.1c0 1.8-10.8 3.7-9.6 4.9 1.2 1.3 2.9 2.1 4.8 2.1h215.5c1.9 0 3.6-.8 4.8-2.1 1.4-1.2-9.4-3.1-9.4-4.9z" fill="#ababab"/><path d="m0 40.4h36.3v1.7h-36.3zm0 9.8h36.3v1.7h-36.3zm0 8.1h36.3v1.7h-36.3zm0 8.2h36.3v1.7h-36.3zm0 8.1h36.3v1.7h-36.3z" fill="#aa4925"/><path d="m2.2 174.6h36.2v1.7h-36.2zm192.9 0h36.2v1.7h-36.2zm-192.9 9h36.2v1.7h-36.2zm192.9 0h36.2v1.7h-36.2zm-192.9 9h36.2v1.7h-36.2zm192.9 0h36.2v1.7h-36.2zm-192.9 9h36.2v1.7h-36.2zm192.9 0h36.2v1.7h-36.2zm-192.9 9h36.2v1.7h-36.2zm192.9 0h36.2v1.7h-36.2zm-192.9 9h36.2v1.7h-36.2zm192.9 0h36.2v1.7h-36.2zm-192.9 9h36.2v1.7h-36.2zm192.9 0h36.2v1.7h-36.2zm-192.9 9h36.2v1.7h-36.2zm192.9 0h36.2v1.7h-36.2zm-192.9 9h36.2v1.7h-36.2zm192.9 0h36.2v1.7h-36.2zm-192.9 9h36.2v1.7h-36.2zm192.9 0h36.2v1.7h-36.2zm-192.9 9h36.2v1.7h-36.2zm192.9 0h36.2v1.7h-36.2zm-192.9 9h36.2v1.7h-36.2zm192.9 0h36.2v1.7h-36.2zm-192.9 9h36.2v1.7h-36.2zm192.9 0h36.2v1.7h-36.2zm-192.9 9h36.2v1.7h-36.2zm192.9 0h36.2v1.7h-36.2zm-192.9 9h36.2v1.7h-36.2zm192.9 0h36.2v1.7h-36.2zm-192.9 9h36.2v1.7h-36.2zm192.9 0h36.2v1.7h-36.2z" fill="#bab9b9"/><path d="m43.2 40.4h147.5v1.7h-147.5zm0 9.8h147.5v1.7h-147.5zm0 8.1h147.5v1.7h-147.5zm0 8.2h147.5v1.7h-147.5zm0 8.1h147.5v1.7h-147.5z" fill="#bcbec0"/><path d="m197.2 40.4h36.3v1.7h-36.3zm0 9.8h36.3v1.7h-36.3zm0 8.1h36.3v1.7h-36.3zm0 8.2h36.3v1.7h-36.3zm0 8.1h36.3v1.7h-36.3z" fill="#aa4925"/><circle cx="118.1" cy="242.2" fill="none" r="58.5" stroke="#d6d6d6" stroke-miterlimit="10" stroke-width="2"/><g fill="#dcdbdb"><path d="m118.1 289.3c-.6 0-1-.4-1-1v-91.3c0-.6.4-1 1-1s1 .4 1 1v91.3c0 .5-.4 1-1 1z"/><path d="m71.6 242.6c0-.6.4-1 1-1h91.3c.6 0 1 .4 1 1s-.4 1-1 1h-91.3c-.6 0-1-.4-1-1z"/><path d="m85.2 209.6c.4-.4 1-.4 1.4 0l64.6 64.6c.4.4.4 1 0 1.4s-1 .4-1.4 0l-64.6-64.6c-.4-.3-.4-1 0-1.4z"/><path d="m151.1 209.7c.4.4.4 1 0 1.4l-64.6 64.6c-.4.4-1 .4-1.4 0s-.4-1 0-1.4l64.6-64.6c.4-.4 1-.4 1.4 0z"/></g><circle cx="118.1" cy="242.2" fill="#414042" r="31.1"/><circle cx="118.1" cy="242.2" r="22.6"/><path d="m194 132.3 15.9-23.7h-184.9c-.3 0-.7.1-.9.3l15.7 23.4z" fill="#58595b"/><path d="m195.1 134.3h-156.4l-15.5-23.1v46.3c0 1 .8 1.8 1.8 1.8h185c1 0 1.8-.8 1.8-1.8v-47c0-.3-.1-.6-.2-.8z" fill="#e14b26"/><path d="m65.2 117-.3.3c-.1.1-.1.3-.2.4v5.7c0 .3 0 .5.1.7s.1.3.2.4.2.2.3.2.2.1.3.1h5.8c.3 0 .5.1.7.4s.3.6.3.9c0 .4-.1.7-.3.9s-.4.4-.7.4h-5.8c-.3 0-.6-.1-.9-.2s-.6-.4-.9-.7-.5-.7-.7-1.2-.3-1.1-.3-1.9v-5.3c0-.4.1-.8.2-1.3s.3-.9.5-1.3.5-.7.9-1 .8-.4 1.3-.4h5.8c.3 0 .5.1.7.4s.3.6.3.9-.1.7-.3.9-.4.4-.7.4h-5.8c-.2.1-.4.2-.5.3zm16-2.6c.3.1.7.4.9.7.3.3.5.7.7 1.2s.3 1.1.3 1.9v5.3c0 .4-.1.8-.2 1.3s-.3.9-.5 1.3-.5.7-.9 1-.8.4-1.3.4h-3.8c-.3 0-.6-.1-.9-.2s-.6-.4-.9-.7-.5-.7-.7-1.2-.3-1.1-.3-1.9v-5.3c0-.4.1-.8.2-1.3s.3-.9.5-1.3.5-.7.9-1 .8-.4 1.3-.4h3.8c.2 0 .5.1.9.2zm0 9.1v-5.3c0-.3 0-.5-.1-.7s-.1-.3-.2-.4-.2-.2-.3-.2-.2-.1-.3-.1h-3.8c-.2 0-.4 0-.5.1l-.3.3c-.1.1-.1.3-.2.4v5.7c0 .3 0 .5.1.7s.1.3.2.4.2.2.3.2.2.1.3.1h3.8c.2 0 .4 0 .5-.1l.3-.3c.1-.1.1-.3.2-.4zm12.4-8.9c.2.3.3.6.3.9v10.6c0 .3-.1.5-.2.7s-.3.4-.4.5c-.2.1-.4.1-.6.1-.2-.1-.3-.2-.5-.4l-6.1-8.3v7.4c0 .4-.1.7-.3.9s-.4.4-.7.4-.5-.1-.7-.4-.3-.6-.3-.9v-10.6c0-.3.1-.5.2-.7s.3-.4.4-.5c.2-.1.4-.1.6-.1.2.1.3.2.5.4l6.1 8.3v-7.4c0-.4.1-.7.3-.9.2-.3.4-.4.7-.4.2 0 .5.1.7.4zm10.7 0c.2.3.3.6.3.9s-.1.7-.3.9-.4.4-.7.4h-2.9v9.3c0 .4-.1.7-.3.9-.2.3-.4.4-.7.4s-.5-.1-.7-.4-.3-.6-.3-.9v-9.3h-2.9c-.3 0-.5-.1-.7-.4s-.3-.6-.3-.9.1-.7.3-.9c.2-.3.4-.4.7-.4h7.7c.4 0 .6.1.8.4zm10.6 5.6c-.2.5-.5 1-.9 1.3.4.5.7 1.2.9 1.9.2.8.3 1.7.3 2.7 0 .4-.1.7-.3.9s-.4.4-.7.4-.5-.1-.7-.4-.3-.6-.3-.9c0-.6-.1-1.1-.2-1.6-.1-.4-.3-.8-.5-1.1s-.4-.5-.6-.7-.4-.3-.7-.4c-.2-.1-.4-.1-.6-.2h-3.3v4c0 .4-.1.7-.3.9s-.4.4-.7.4-.5-.1-.7-.4-.3-.6-.3-.9v-10.6c0-.4.1-.7.3-.9.2-.3.4-.4.7-.4h5.8c.3 0 .6.1.9.2s.7.4.9.7c.3.3.5.7.7 1.2s.3 1.1.3 1.9c.4.8.2 1.5 0 2zm-2.5-.7c.1 0 .2 0 .3-.1.1 0 .2-.1.3-.2s.2-.2.2-.4c.1-.2.1-.4.1-.7s0-.5-.1-.7-.1-.3-.2-.4-.2-.2-.3-.2-.2-.1-.3-.1h-4.8v2.6h4.8zm11.6-5.1c.3.1.7.4.9.7.3.3.5.7.7 1.2s.3 1.1.3 1.9v5.3c0 .4 0 .8-.2 1.3-.1.5-.3.9-.5 1.3s-.5.7-.9 1-.8.4-1.3.4h-3.8c-.3 0-.6-.1-.9-.2s-.6-.4-.9-.7-.5-.7-.7-1.2-.3-1.1-.3-1.9v-5.3c0-.4 0-.8.2-1.3.1-.5.3-.9.5-1.3s.5-.7.9-1 .8-.4 1.3-.4h3.8c.3 0 .6.1.9.2zm.1 9.1v-5.3c0-.3 0-.5-.1-.7s-.1-.3-.2-.4-.2-.2-.3-.2-.2-.1-.3-.1h-3.8c-.2 0-.4 0-.5.1l-.3.3c-.1.1-.1.3-.2.4v5.7c0 .3 0 .5.1.7s.1.3.2.4.2.2.3.2.2.1.3.1h3.8c.2 0 .4 0 .5-.1l.3-.3c.1-.1.1-.3.2-.4-.1-.1 0-.3 0-.4zm12.3 1.7c.2.3.3.6.3.9 0 .4-.1.7-.3.9s-.4.4-.7.4h-7.7c-.3 0-.5-.1-.7-.4s-.3-.6-.3-.9v-10.6c0-.4.1-.7.3-.9.2-.3.4-.4.7-.4s.5.1.7.4.3.6.3.9v9.3h6.7c.3 0 .5.1.7.4zm10.7 0c.2.3.3.6.3.9 0 .4-.1.7-.3.9s-.4.4-.7.4h-7.7c-.3 0-.5-.1-.7-.4s-.3-.6-.3-.9v-10.6c0-.4.1-.7.3-.9.2-.3.4-.4.7-.4s.5.1.7.4.3.6.3.9v9.3h6.7c.3 0 .5.1.7.4zm3.4-8.2-.3.3c-.1.1-.1.3-.2.4s0 .3 0 .4v1.3h2.9c.3 0 .5.1.7.4s.3.6.3.9c0 .4-.1.7-.3.9-.2.3-.4.4-.7.4h-2.9v1.3c0 .3 0 .5.1.7s.1.3.2.4.2.2.3.2.2.1.3.1h5.8c.3 0 .5.1.7.4s.3.6.3.9c0 .4-.1.7-.3.9s-.4.4-.7.4h-5.7c-.3 0-.6-.1-.9-.2s-.6-.4-.9-.7-.5-.7-.7-1.2-.3-1.1-.3-1.9v-5.3c0-.4 0-.8.2-1.3s.3-.9.5-1.3.5-.7.9-1 .8-.4 1.3-.4h5.8c.3 0 .5.1.7.4s.3.6.3.9-.1.7-.3.9-.4.4-.7.4h-5.9c-.2.2-.3.3-.5.4zm17.6 3.2c-.2.5-.5 1-.9 1.3.4.5.7 1.2.9 1.9.2.8.3 1.7.3 2.7 0 .4-.1.7-.3.9s-.4.4-.7.4-.5-.1-.7-.4-.3-.6-.3-.9c0-.6-.1-1.1-.2-1.6-.1-.4-.3-.8-.5-1.1s-.4-.5-.6-.7-.4-.3-.7-.4c-.2-.1-.4-.1-.6-.2s-.3 0-.4 0h-2.9v4c0 .4-.1.7-.3.9-.2.3-.4.4-.7.4s-.5-.1-.7-.4-.3-.6-.3-.9v-10.6c0-.4.1-.7.3-.9.2-.3.4-.4.7-.4h5.8c.3 0 .6.1.9.2s.7.4.9.7c.3.3.5.7.7 1.2s.3 1.1.3 1.9c.3.8.2 1.5 0 2zm-2.5-.7c.1 0 .2 0 .3-.1.1 0 .2-.1.3-.2s.2-.2.2-.4c.1-.2.1-.4.1-.7s0-.5-.1-.7-.1-.3-.2-.4-.2-.2-.3-.2-.2-.1-.3-.1h-4.8v2.6h4.8z" fill="#e14b26"/><path d="m154.5 149.9c.6-.6 1-1.2 1.4-1.8 1.2-1.7 2.3-3.3 3.4-5 1.4-1.9 3.2-2.7 5.8-2.3.3 0 .8.1.7.5s0 .9-.6 1.1c-.5.2-1.1.2-1.6.1-.6 0-1 .2-1.3.6-2.1 3-4.3 5.9-6.4 8.8-.4.5-.8.7-1.5.7-2.6 0-2.6 0-2.6-2.3v-8.6c0-1 .2-1.1 1.3-1 1.4.1 1.4.1 1.4 1.4 0 1.8-.1 3.6-.1 5.4-.1 1 0 1.6.1 2.4zm-53.5 1.1c-.1.5-.2 1.1-.4 1.6s-.6.6-1.2.6c-2.6.1-5.1-1.5-5.7-3.5s.9-4.5 3.3-5.5c3.3-1.4 7-.2 8 2.6.3.9.3 1.7 0 2.6-.2.9-.6 1.9-.8 2.8-.2.6-.5.9-1.2.8h-.8c-.7 0-.8-.2-.6-.8.4-1.1.6-2.3 1-3.4.3-1.1.1-1.9-.9-2.6s-2.2-.8-3.3-.3c-1.6.6-2.3 2.1-1.8 3.5.4 1.3 1.9 1.9 3.6 1.6.3-.1.5-.2.8 0zm40.2-.7c1.2.9 2.4.5 3.7.2.4 1.6-.3 2.3-2 2.3-2.4 0-4.5-1.2-5.2-3-.7-1.9.1-4 2-5.4 3-2.1 7-1.5 8.8 1.3.6 1 .5 1.1-.6 1.6-2 .8-4 1.7-6 2.5-.2.1-.5.2-.7.5zm-.9-1.8c1.8-.7 3.6-1.3 5.3-2.2-.9-.9-2.3-1.1-3.5-.6-1.3.5-2 1.6-1.8 2.8zm-20.9 1.8c1.1.9 2.4.5 3.6.1 0 .8-.3 1.5-.5 2.2-.1.2-.4.3-.6.3-3.5.5-6.8-1.8-6.5-4.9.3-2.9 3.7-5.1 7.1-4.6 2 .3 3.5 1.2 4.3 2.9.3.6.2.8-.5 1.1-2.1.8-4.1 1.6-6.1 2.4-.3.1-.6.2-.8.5zm-1.2-1.8c1-.2 4.7-1.6 5.5-2.1-.8-.9-2.2-1.2-3.5-.7-1.3.4-2.1 1.6-2 2.8zm67-1.1c.1 3.1-2.7 5.6-5.4 5.7-1.5.1-3 0-4.3-.9-2.4-1.7-2.7-4.1-.7-6.3 2.1-2.4 5.6-2.9 8.4-1.1 1.2.6 1.9 1.8 2 2.6zm-6.2 3.8c1.8 0 3.5-1.4 3.5-2.9 0-1.4-1.5-2.6-3.2-2.6-1.8 0-3.4 1.5-3.4 3.1.1 1.3 1.4 2.4 3.1 2.4zm11.8-5.4c-1.4 0-1.4 0-1.7 1.3-.5 1.7-1.1 3.4-1.6 5.1-.1.3-.2.6-.6.6-.6-.1-1.2.2-1.8-.1-.2-.1-.1-.4-.1-.6.6-2.5 1.5-5 2.3-7.5.1-.4.4-.7 1-.7h4.3c2 0 2.8.8 2.5 2.6-.4 2-1 3.9-1.7 5.9-.2.5-.6.6-1.2.5-1.7-.1-1.7-.1-1.2-1.5l1.2-3.9c.3-1.6.2-1.7-1.4-1.7z" fill="#fff"/><path d="m86.9 147.6c-.2-3.6 3.1-5.9 6.2-6.5 1-.2 2.1-.2 3.2-.2.7 0 1 .1.8.8-.3 1.4-.3 1.4-1.9 1.4-1.5 0-2.8.3-4 1.1-1.5 1.1-1.9 2.6-1.5 4.3.4 1.5 1.8 2 3.3 2.3.7.1.8.3.6.8-.6 1.8-.3 1.9-2.6 1.3-2.4-.7-4.3-2.7-4.1-5.3zm-28.9 4.6c-.2 1.1-.5 2.1-.6 3.1-.1.9-.6 1.1-1.6.8.7-3.7 1.4-7.4 2.2-11.1.6 0 1.1-.3 1.5.3 1.1-.7 2.4-1.1 3.8-1.1 3 0 4.8 1.8 4.4 4.5-.4 3.2-4.5 5.5-7.9 4.5-.6-.2-1.1-.5-1.8-1zm5.1-6.9c-1.6 0-4.1 1.4-4.5 3.7s1.8 4 4.2 3.2c1.7-.5 2.8-1.6 3.3-3.1.7-2-.8-3.8-3-3.8zm13.9 6.1c-1.5 2-5.4 2.7-7.5 1.3-1.7-1.1-2.2-3.3-1.2-5.2 1.2-2.4 4.3-3.8 7.2-3.2 1 .2 1.8.6 2.4 1.5-2.5 1.9-5 3.8-7.4 5.7.8.8 2 1.1 3.3.6.5-.2 1-.4 1.4-.7.7-.5.8-.5 1.8 0zm-7.4-.9c.1 0 .2-.1.3-.1 2-1.5 3.9-3 5.9-4.5-1.3-.9-2.9-.8-4.5.2-1.7 1.2-2.4 2.9-1.7 4.4zm60.9.4c-.2.4-.3.6-.4.7-.4.4-.5 1.3-1.4 1.1-1-.2-1.7-.8-2-1.7-.2-.5-.1-1 0-1.5.7-2.7 1.5-5.4 2.2-8.1.1-.5.4-.8 1-.7h1.6c.3.8-.1 1.4-.3 2.1-.2.6-.1.8.6.8.4 0 .9-.2.9.5 0 .9-.4 1.7-1 1.6-1.2-.1-1.5.3-1.7 1.3-.1.9-.4 1.7-.7 2.6-.1.6-.3 1.4 1.2 1.3zm6.7-10.2c0 1-.6 1.8-.5 2.7.1.1.1.1.2.1 1.5.1 1.7.5 1 1.7-.2.4-.7.4-1.1.4-.6 0-.9.1-1.1.7-.2 1.1-.6 2.1-.8 3.1-.2.7-.2 1.3 1 1.4-.4.7-.6 1.6-1.5 1.7s-1.6-.4-2-1.1c-.4-.6-.4-1.2-.3-1.8.6-2.9 1.5-5.7 2.4-8.5.1-.4.4-.6.9-.6.5.2 1.1.2 1.8.2zm-89.5 1c-.7.4-1.2.6-1.7-.3-.4-.7-1.2-.8-2-.5-.9.4-1.5 1-1.6 1.9s.6 1.4 1.3 1.8c.3.2.7.3 1.1.5 2.3.9 3.3 2.4 2.9 4.2-.4 2.1-2.4 3.8-4.6 4-1.4.1-2.7 0-3.7-1-.4-.4-.7-.9-.9-1.5-.2-1 0-1.2 1.2-1.2l.1.1c.3 1.5 1 2.4 2.4 2.5 1.3.2 3-.7 3.8-2 .8-1.4.5-2.7-.9-3.7-.5-.4-1.1-.6-1.7-.8-1.8-.7-2.6-1.8-2.2-3.3.3-1.5 1.9-2.7 3.6-2.7 1.8 0 2.7.5 3 1.7-.1.1-.1.2-.1.3zm61.3 11.2c.1-1 .1-1.9 1.1-2.5.7-.4.8-1.3.9-2 .3-1.3.6-2.7 1.8-3.7.7-.6 1.5-1 2.5-1.1.6 0 .8.2.7.7-.2.8-.3 1.6-1.2 2-.4.2-.4.6-.5.9-.3.9-.5 1.8-.8 2.7-.5 2-2.4 3.2-4.5 3zm-3.6.1c-.3 0-.7-.1-.6-.4.2-.7.1-1.6 1-2.1.8-.5.8-1.3 1-2.1.3-1 .4-2 1-2.8.7-1.1 1.7-1.8 3.1-2 .6-.1.9 0 .8.6-.2.8-.2 1.6-1.1 2.1-.3.2-.4.5-.5.9-.3 1-.5 1.9-.8 2.9-.6 1.6-2.3 2.9-3.9 2.9zm-56.6-8h1.4c-.2 1.2-.5 2.5-.7 3.7-.1.5-.2.9-.3 1.4-.1.8.2 1.4.9 1.9s1.4.5 2.2.1c1.1-.5 1.8-1.2 2-2.3.3-1.6.6-3.2 1-4.8.4-.2.9-.1 1.4 0-.5 2-.6 4-1.3 5.9-.8 2.1-3.9 3.1-6.2 2.1-1.1-.5-1.6-1.4-1.5-2.4.4-1.9.8-3.7 1.1-5.6zm120.8-1.3c.9 0 1.2.2.9.8-.3.7-.7 1.4-1.3 1.9-.9.8-.9 2.1-1.2 3.1-.5 1.7-1.5 2.9-3.5 3.3-.9.2-1.1 0-.9-.8.2-.7.3-1.3 1.1-1.7.5-.2.5-.8.7-1.3.4-1.2.6-2.5 1.4-3.6.7-1 1.7-1.5 2.8-1.7zm.7 9.2c-.2 0-.5 0-.7-.1-.5 0-.7-.2-.5-.7.7-2.5 1.4-5.1 2.1-7.6.1-.5.5-.5.9-.6h.6c1.5 0 1.6.1 1.2 1.4-.7 2.3-1.4 4.5-2 6.8-.4.7-.8.9-1.6.8zm-5.3-9c0 1.2-.5 2.2-.8 3.3-.4 1.6-.9 3.2-1.4 4.8-.1.3-.1.8-.5.8-.7.1-1.4.2-2-.1-.4-.1-.2-.6-.1-.9.7-2.2 1.3-4.4 1.8-6.6.5-1.5.9-1.7 3-1.3zm-85.9 1.1h1.2c.3.1 0 .4.2.6.8-.4 1.6-1 2.7-.7 0 .5 0 .8-.7 1.1-1.6.6-2.6 1.7-2.9 3.2-.3 1.3-.5 2.6-.8 3.9-.5.1-.9.1-1.4 0 .6-2.7 1.1-5.4 1.7-8.1zm92.9-2.5c.1-1.3 1.2-1.9 2.4-1.4.3.1.3.3.3.5-.1.4-.1.9-.6 1-.7.1-1.4.2-2.1-.1z" fill="#fff"/><path d="m96.5 28.6c-.1 0-.2.1-.3.1s-.2.1-.2.3v.4c0 .2 0 .3.1.4s.1.2.2.3.2.1.3.1h3.7c.2 0 .5 0 .8.1s.6.2.8.4c.3.2.5.5.6.8.2.3.3.7.3 1.2s-.1.9-.3 1.2-.4.6-.6.8c-.3.2-.5.3-.8.4s-.6.1-.8.1h-5c-.2 0-.4-.1-.6-.2-.2-.2-.2-.4-.2-.6s.1-.4.2-.6c.2-.2.4-.2.6-.2h5.3c.1 0 .2-.1.3-.1.1-.1.2-.1.2-.3.1-.1.1-.2.1-.4s0-.3-.1-.4-.1-.2-.2-.3-.2-.1-.3-.1h-3.7c-.3 0-.5 0-.8-.1s-.6-.2-.8-.4c-.3-.2-.5-.5-.6-.8-.2-.3-.3-.7-.3-1.2s.1-.9.3-1.2.4-.6.6-.8c.3-.2.5-.3.8-.4s.6-.1.8-.1h5c.2 0 .4.1.6.2.2.2.2.4.2.6s-.1.4-.2.6c-.2.2-.4.2-.6.2zm15.3-1.5c.2.2.2.4.2.6s-.1.4-.2.6c-.2.2-.4.2-.6.2h-2.5v5.9c0 .2-.1.4-.2.6-.2.2-.4.2-.6.2s-.4-.1-.6-.2c-.2-.2-.2-.4-.2-.6v-5.9h-2.5c-.2 0-.4-.1-.6-.2-.2-.2-.2-.4-.2-.6s.1-.4.2-.6c.2-.2.4-.2.6-.2h6.7c.2 0 .4.1.5.2zm7.6-.1c.3.1.6.2.8.4.3.2.5.5.6.8.2.3.3.7.3 1.2v5c0 .2-.1.4-.2.6-.2.2-.4.2-.6.2s-.4-.1-.6-.2c-.2-.2-.2-.4-.2-.6v-2.5h-5v2.5c0 .2-.1.4-.2.6-.2.2-.4.2-.6.2s-.4-.1-.6-.2c-.2-.2-.2-.4-.2-.6v-5c0-.2 0-.5.1-.8s.2-.6.4-.8c.2-.3.5-.5.8-.6s.7-.3 1.2-.3h3.4s.3 0 .6.1zm0 3.3v-.8c0-.2 0-.3-.1-.4s-.1-.2-.2-.3-.2-.1-.3-.1h-3.7c-.2 0-.3 0-.4.1s-.2.1-.3.2-.1.2-.1.3v1.1h5.1zm10.7.4c-.2.3-.5.6-.8.8.3.3.6.7.8 1.2s.3 1.1.3 1.7c0 .2-.1.4-.2.6-.2.2-.4.2-.6.2s-.4-.1-.6-.2c-.2-.2-.2-.4-.2-.6 0-.4-.1-.7-.2-1s-.2-.5-.4-.7-.3-.3-.5-.4-.4-.2-.6-.2c-.2-.1-.4-.1-.5-.1h-2.8v2.5c0 .2-.1.4-.2.6-.2.2-.4.2-.6.2s-.4-.1-.6-.2c-.2-.2-.2-.4-.2-.6v-6.7c0-.2.1-.4.2-.6.2-.2.4-.2.6-.2h5c.2 0 .5 0 .8.1s.6.2.8.4c.3.2.5.5.6.8.2.3.3.7.3 1.2-.1.4-.2.9-.4 1.2zm-2.2-.4h.3c.1 0 .2-.1.3-.1s.2-.1.2-.3c.1-.1.1-.2.1-.4s0-.3-.1-.4-.1-.2-.2-.3-.2-.1-.3-.1h-4.5v1.7h4.2zm11.3-3.2c.2.2.2.4.2.6s-.1.4-.2.6-.4.2-.6.2h-2.5v5.9c0 .2-.1.4-.2.6-.2.2-.4.2-.6.2s-.4-.1-.6-.2c-.2-.2-.2-.4-.2-.6v-5.9h-2.5c-.2 0-.4-.1-.6-.2s-.2-.4-.2-.6.1-.4.2-.6c.2-.2.4-.2.6-.2h6.7c.2 0 .4.1.5.2zm-87.2 7.9v-9.5l16 4.9zm130.8-9.5v9.5l-16-4.8z" fill="#e5e5e5"/></svg>