<?xml version="1.0" encoding="UTF-8" standalone="no"?>
<svg
   width="78"
   height="220"
   version="1.1"
   id="svg80"
   sodipodi:docname="stv.svg"
   inkscape:version="1.4.2 (f4327f4, 2025-05-13)"
   xmlns:inkscape="http://www.inkscape.org/namespaces/inkscape"
   xmlns:sodipodi="http://sodipodi.sourceforge.net/DTD/sodipodi-0.dtd"
   xmlns="http://www.w3.org/2000/svg"
   xmlns:svg="http://www.w3.org/2000/svg">
  <sodipodi:namedview
     id="namedview80"
     pagecolor="#ffffff"
     bordercolor="#000000"
     borderopacity="0.25"
     inkscape:showpageshadow="2"
     inkscape:pageopacity="0.0"
     inkscape:pagecheckerboard="0"
     inkscape:deskcolor="#d1d1d1"
     inkscape:zoom="4.035"
     inkscape:cx="38.042131"
     inkscape:cy="80.173482"
     inkscape:window-width="1920"
     inkscape:window-height="1009"
     inkscape:window-x="-8"
     inkscape:window-y="-8"
     inkscape:window-maximized="1"
     inkscape:current-layer="svg80" />
  <defs
     id="defs37">
    <clipPath
       id="c">
      <path
         d="M 0,445.559 H 168.322 V 0 H 0 Z"
         id="path1" />
    </clipPath>
    <clipPath
       id="d">
      <path
         d="M 91.6221,364.864 H 144.684 V 311.803 H 91.6221 Z"
         id="path2" />
    </clipPath>
    <clipPath
       id="e">
      <path
         d="M 92.3097,364.024 H 143.844 V 312.49 H 92.3097 Z"
         id="path3" />
    </clipPath>
    <clipPath
       id="f">
      <path
         d="m 84.911,371.422 h 66.331 V 305.091 H 84.911 Z"
         id="path4" />
    </clipPath>
    <clipPath
       id="g">
      <path
         d="M 7.99342,160.329 H 162.206 V 6.11584 H 7.99342 Z"
         id="path5" />
    </clipPath>
    <linearGradient
       id="h"
       x2="1"
       gradientTransform="matrix(18.023741,-18.023741,18.023741,18.023741,30.466115,189.18948)"
       gradientUnits="userSpaceOnUse">
      <stop
         offset="0"
         stop-color="#a6a8ab"
         id="stop5" />
      <stop
         offset="1"
         stop-color="#e6e7e8"
         id="stop6" />
    </linearGradient>
    <clipPath
       id="i">
      <path
         d="M 0,445.559 H 168.322 V 0 H 0 Z"
         id="path6" />
    </clipPath>
    <clipPath
       id="j">
      <path
         d="M 62.5988,105.659 H 107.471 V 60.786 H 62.5988 Z"
         id="path7" />
    </clipPath>
    <clipPath
       id="k">
      <path
         d="m 58.434,83.504 c 0,14.847 12.035,26.882 26.882,26.882 14.847,0 26.883,-12.035 26.883,-26.882 0,-14.847 -12.036,-26.883 -26.883,-26.883 -14.847,0 -26.882,12.036 -26.882,26.883 m 54.583,-0.346 c 0,15.49 -12.557,28.047 -28.047,28.047 -15.49,0 -28.047,-12.557 -28.047,-28.047 0,-15.49 12.557,-28.047 28.047,-28.047 15.49,0 28.047,12.557 28.047,28.047"
         id="path8" />
    </clipPath>
    <linearGradient
       id="a"
       x2="1"
       gradientTransform="matrix(39.664417,-39.664417,-39.664417,-39.664417,65.138191,102.98982)"
       gradientUnits="userSpaceOnUse">
      <stop
         offset="0"
         stop-opacity="0"
         stop-color="#fff"
         id="stop8" />
      <stop
         offset=".20751882"
         stop-color="#fff"
         id="stop9" />
      <stop
         offset=".5"
         stop-color="#fff"
         id="stop10" />
      <stop
         offset=".79248118"
         stop-color="#fff"
         id="stop11" />
      <stop
         offset="1"
         stop-opacity="0"
         stop-color="#fff"
         id="stop12" />
    </linearGradient>
    <mask
       id="m"
       width="1"
       height="1"
       x="0"
       y="0"
       maskUnits="userSpaceOnUse">
      <path
         fill="url(#a)"
         d="M -32768,32767 H 32767 V -32768 H -32768 Z"
         id="path12" />
    </mask>
    <linearGradient
       id="l"
       x2="1"
       gradientTransform="matrix(39.664417,-39.664417,-39.664417,-39.664417,65.138191,102.98982)"
       gradientUnits="userSpaceOnUse">
      <stop
         offset="0"
         stop-color="#231f20"
         id="stop13" />
      <stop
         offset=".20751882"
         stop-color="#231f20"
         id="stop14" />
      <stop
         offset=".5"
         stop-color="#231f20"
         id="stop15" />
      <stop
         offset=".79248118"
         stop-color="#231f20"
         id="stop16" />
      <stop
         offset="1"
         stop-color="#231f20"
         id="stop17" />
    </linearGradient>
    <clipPath
       id="n">
      <path
         d="m 111.507,82.812 c 0,-14.847 -12.036,-26.883 -26.882,-26.883 -14.847,0 -26.883,12.036 -26.883,26.883 0,14.847 12.036,26.883 26.883,26.883 14.846,0 26.882,-12.036 26.882,-26.883 m -54.583,0.346 c 0,-15.49 12.556,-28.047 28.047,-28.047 15.49,0 28.047,12.557 28.047,28.047 0,15.49 -12.557,28.047 -28.047,28.047 -15.491,0 -28.047,-12.557 -28.047,-28.047"
         id="path17" />
    </clipPath>
    <linearGradient
       id="b"
       x2="1"
       gradientTransform="matrix(-39.664425,39.664425,39.664425,39.664425,104.80286,63.325817)"
       gradientUnits="userSpaceOnUse">
      <stop
         offset="0"
         stop-opacity="0"
         stop-color="#fff"
         id="stop18" />
      <stop
         offset=".5"
         stop-color="#fff"
         id="stop19" />
      <stop
         offset="1"
         stop-opacity="0"
         stop-color="#fff"
         id="stop20" />
    </linearGradient>
    <mask
       id="p"
       width="1"
       height="1"
       x="0"
       y="0"
       maskUnits="userSpaceOnUse">
      <path
         fill="url(#b)"
         d="M -32768,32767 H 32767 V -32768 H -32768 Z"
         id="path20" />
    </mask>
    <linearGradient
       id="o"
       x2="1"
       gradientTransform="matrix(-39.664425,39.664425,39.664425,39.664425,104.80286,63.325817)"
       gradientUnits="userSpaceOnUse">
      <stop
         offset="0"
         stop-color="#fff"
         id="stop21" />
      <stop
         offset=".5"
         stop-color="#fff"
         id="stop22" />
      <stop
         offset="1"
         stop-color="#fff"
         id="stop23" />
    </linearGradient>
    <clipPath
       id="q">
      <path
         d="M 91.9548,294.602 H 145.017 V 241.54 H 91.9548 Z"
         id="path23" />
    </clipPath>
    <clipPath
       id="r">
      <path
         d="M 92.6425,293.762 H 144.176 V 242.228 H 92.6425 Z"
         id="path24" />
    </clipPath>
    <clipPath
       id="s">
      <path
         d="M 85.2437,301.16 H 151.575 V 234.829 H 85.2437 Z"
         id="path25" />
    </clipPath>
    <clipPath
       id="t">
      <path
         d="M 91.1369,435.126 H 144.199 V 382.065 H 91.1369 Z"
         id="path26" />
    </clipPath>
    <clipPath
       id="u">
      <path
         d="M 91.8246,434.286 H 143.358 V 382.752 H 91.8246 Z"
         id="path27" />
    </clipPath>
    <clipPath
       id="v">
      <path
         d="M 84.4258,441.684 H 150.757 V 375.353 H 84.4258 Z"
         id="path28" />
    </clipPath>
    <clipPath
       id="w">
      <path
         d="M 27.5181,329.248 H 80.5799 V 276.186 H 27.5181 Z"
         id="path29" />
    </clipPath>
    <clipPath
       id="x">
      <path
         d="M 28.2057,328.408 H 79.7394 V 276.874 H 28.2057 Z"
         id="path30" />
    </clipPath>
    <clipPath
       id="y">
      <path
         d="M 20.8069,335.806 H 87.1383 V 269.475 H 20.8069 Z"
         id="path31" />
    </clipPath>
    <clipPath
       id="z">
      <path
         d="M 27.0329,399.51 H 80.0947 V 346.448 H 27.0329 Z"
         id="path32" />
    </clipPath>
    <clipPath
       id="A">
      <path
         d="M 27.7205,398.67 H 79.2543 V 347.136 H 27.7205 Z"
         id="path33" />
    </clipPath>
    <clipPath
       id="B">
      <path
         d="M 20.3217,406.068 H 86.6531 V 339.737 H 20.3217 Z"
         id="path34" />
    </clipPath>
    <clipPath
       id="C">
      <path
         d="M 26.9564,258.304 H 80.0183 V 205.242 H 26.9564 Z"
         id="path35" />
    </clipPath>
    <clipPath
       id="D">
      <path
         d="M 27.644,257.464 H 79.1778 V 205.93 H 27.644 Z"
         id="path36" />
    </clipPath>
    <clipPath
       id="E">
      <path
         d="M 20.2453,264.862 H 86.5767 V 198.531 H 20.2453 Z"
         id="path37" />
    </clipPath>
  </defs>
  <g
     clip-path="url(#c)"
     transform="matrix(0.45259795,0,0,-0.45259795,0.9913259,217.84386)"
     id="g46">
    <path
       fill="#c0392b"
       d="m 118.153,305.0354 c -18.39,0 -33.298,14.908 -33.298,33.298 0,18.39 14.908,33.298 33.298,33.298 18.39,0 33.298,-14.908 33.298,-33.298 0,-18.39 -14.908,-33.298 -33.298,-33.298"
       id="path38" />
    <g
       clip-path="url(#d)"
       opacity="0.300003"
       id="g39">
      <path
         fill="#c0392b"
         d="m 118.153,311.8026 c -14.653,0 -26.531,11.878 -26.531,26.531 0,14.652 11.878,26.531 26.531,26.531 14.653,0 26.531,-11.879 26.531,-26.531 0,-14.653 -11.878,-26.531 -26.531,-26.531"
         id="path39" />
    </g>
    <path
       fill="#c0392b"
       d="m 118.0767,312.4901 c -14.231,0 -25.767,11.536 -25.767,25.767 0,14.231 11.536,25.767 25.767,25.767 14.231,0 25.767,-11.536 25.767,-25.767 0,-14.231 -11.536,-25.767 -25.767,-25.767"
       id="path40" />
    <path
       fill="#c0392b"
       d="m 118.0767,312.4901 c -14.231,0 -25.767,11.536 -25.767,25.767 0,14.231 11.536,25.767 25.767,25.767 14.231,0 25.767,-11.536 25.767,-25.767 0,-14.231 -11.536,-25.767 -25.767,-25.767"
       id="path41" />
    <g
       clip-path="url(#e)"
       opacity="0.199997"
       id="g42">
      <path
         fill="#c0392b"
         d="m 93.6971,338.575 c 0,13.64 11.057,24.697 24.697,24.697 13.64,0 24.698,-11.057 24.698,-24.697 0,-13.64 -11.058,-24.698 -24.698,-24.698 -13.64,0 -24.697,11.058 -24.697,24.698 m 50.146,-0.318 c 0,14.231 -11.536,25.767 -25.766,25.767 -14.231,0 -25.767,-11.536 -25.767,-25.767 0,-14.231 11.536,-25.767 25.767,-25.767 14.23,0 25.766,11.536 25.766,25.767"
         id="path42" />
    </g>
    <g
       clip-path="url(#f)"
       opacity="0.149994"
       id="g43">
      <path
         fill="#c0392b"
         d="m 86.6967,338.666 c 0,17.557 14.233,31.789 31.789,31.789 17.557,0 31.789,-14.232 31.789,-31.789 0,-17.556 -14.232,-31.789 -31.789,-31.789 -17.556,0 -31.789,14.233 -31.789,31.789 m 64.546,-0.409 c 0,18.317 -14.849,33.166 -33.166,33.166 -18.317,0 -33.166,-14.849 -33.166,-33.166 0,-18.317 14.849,-33.165 33.166,-33.165 18.317,0 33.166,14.848 33.166,33.165"
         id="path43" />
    </g>
    <path
       fill="#231f20"
       d="m 85.0995,0 c -45.962,0 -83.222,37.26 -83.222,83.222 0,45.963 37.26,83.222 83.222,83.222 45.962,0 83.222,-37.259 83.222,-83.222 C 168.3215,37.26 131.0615,0 85.0995,0"
       id="path44" />
    <g
       clip-path="url(#g)"
       opacity="0.100006"
       id="g45">
      <path
         fill="#84849b"
         d="m 85.0992,6.1158 16.896,16.323 h -8.253 v 18.674 h -17.286 v -18.674 h -8.252 z m 54.5228,22.5835 0.405,23.489 -5.835,-5.835 -13.205,13.204 -12.223,-12.223 13.205,-13.204 -5.836,-5.836 z m 22.5841,54.5222 -16.323,16.896 v -8.252 h -18.674 v -17.287 h 18.674 v -8.252 z m -22.5834,54.5226 -23.489,0.405 5.835,-5.835 -13.205,-13.205 12.224,-12.223 13.204,13.205 5.836,-5.835 z m -54.5222,22.5844 -16.896,-16.322 h 8.252 v -18.675 h 17.287 v 18.674 l 8.252,10e-4 z m -54.5226,-22.5832 -0.405,-23.489 5.835,5.835 13.205,-13.205 12.223,12.223 -13.205,13.205 5.835,5.836 z M 7.9934,83.223 24.3154,66.328 v 8.251 h 18.675 v 17.286 h -18.674 l -0.001,8.253 z m 22.5833,-54.5226 23.489,-0.405 -5.835,5.835 13.205,13.205 -12.223,12.223 -13.205,-13.205 -5.836,5.835 z"
         id="path45" />
    </g>
    <path
       fill="#6d6e70"
       d="m 84.1609,0.0119 c -45.529,0.504 -82.284,37.562 -82.284,83.21 0,45.649 36.755,82.707 82.284,83.211 -0.313,0.003 -0.625,0.012 -0.939,0.012 -45.962,0 -83.222,-37.26 -83.222,-83.223 0,-45.962 37.26,-83.222 83.222,-83.222 0.314,0 0.626,0.009 0.939,0.012"
       id="path46" />
  </g>
  <path
     fill="url(#h)"
     d="m 26.733287,180.17775 c 0,7.03835 5.706355,12.74471 12.744705,12.74471 7.038804,0 12.744706,-5.70636 12.744706,-12.74471 0,-7.0388 -5.705902,-12.7447 -12.744706,-12.7447 -7.03835,0 -12.744705,5.7059 -12.744705,12.7447"
     id="path47"
     style="fill:url(#h)" />
  <g
     clip-path="url(#i)"
     transform="matrix(0.45259795,0,0,-0.45259795,0.9913259,217.84386)"
     id="g80">
    <g
       clip-path="url(#j)"
       opacity="0.300003"
       id="g48">
      <path
         fill="#231f20"
         d="m 85.035,60.786 c -12.391,0 -22.436,10.045 -22.436,22.436 0,12.391 10.045,22.437 22.436,22.437 12.391,0 22.436,-10.046 22.436,-22.437 0,-12.391 -10.045,-22.436 -22.436,-22.436"
         id="path48" />
    </g>
    <g
       clip-path="url(#k)"
       opacity="0.149994"
       id="g49">
      <path
         fill="url(#l)"
         d="m 58.434,83.504 c 0,14.847 12.035,26.882 26.882,26.882 14.847,0 26.883,-12.035 26.883,-26.882 0,-14.847 -12.036,-26.883 -26.883,-26.883 -14.847,0 -26.882,12.036 -26.882,26.883 m 54.583,-0.346 c 0,15.49 -12.557,28.047 -28.047,28.047 -15.49,0 -28.047,-12.557 -28.047,-28.047 0,-15.49 12.557,-28.047 28.047,-28.047 15.49,0 28.047,12.557 28.047,28.047"
         mask="url(#m)"
         id="path49"
         style="fill:url(#l)" />
    </g>
    <g
       clip-path="url(#n)"
       opacity="0.399994"
       id="g50">
      <path
         fill="url(#o)"
         d="m 111.507,82.812 c 0,-14.847 -12.036,-26.883 -26.882,-26.883 -14.847,0 -26.883,12.036 -26.883,26.883 0,14.847 12.036,26.883 26.883,26.883 14.846,0 26.882,-12.036 26.882,-26.883 m -54.583,0.346 c 0,-15.49 12.556,-28.047 28.047,-28.047 15.49,0 28.047,12.557 28.047,28.047 0,15.49 -12.557,28.047 -28.047,28.047 -15.491,0 -28.047,-12.557 -28.047,-28.047"
         mask="url(#p)"
         id="path50"
         style="fill:url(#o)" />
    </g>
    <path
       fill="#c0392b"
       d="m 118.4858,234.7732 c -18.39,0 -33.298,14.908 -33.298,33.298 0,18.39 14.908,33.298 33.298,33.298 18.39,0 33.298,-14.908 33.298,-33.298 0,-18.39 -14.908,-33.298 -33.298,-33.298"
       id="path51" />
    <g
       clip-path="url(#q)"
       opacity="0.300003"
       id="g52">
      <path
         fill="#c0392b"
         d="m 118.4858,241.5404 c -14.653,0 -26.531,11.878 -26.531,26.531 0,14.652 11.878,26.531 26.531,26.531 14.653,0 26.531,-11.879 26.531,-26.531 0,-14.653 -11.878,-26.531 -26.531,-26.531"
         id="path52" />
    </g>
    <path
       fill="#c0392b"
       d="m 118.4094,242.2279 c -14.231,0 -25.767,11.536 -25.767,25.767 0,14.231 11.536,25.767 25.767,25.767 14.231,0 25.767,-11.536 25.767,-25.767 0,-14.231 -11.536,-25.767 -25.767,-25.767"
       id="path53" />
    <path
       fill="#c0392b"
       d="m 118.4094,242.2279 c -14.231,0 -25.767,11.536 -25.767,25.767 0,14.231 11.536,25.767 25.767,25.767 14.231,0 25.767,-11.536 25.767,-25.767 0,-14.231 -11.536,-25.767 -25.767,-25.767"
       id="path54"
       style="fill:#c0392b;fill-opacity:1" />
    <g
       clip-path="url(#r)"
       opacity="0.199997"
       id="g55">
      <path
         fill="#c0392b"
         d="m 94.0298,268.3128 c 0,13.64 11.057,24.697 24.697,24.697 13.64,0 24.698,-11.057 24.698,-24.697 0,-13.64 -11.058,-24.698 -24.698,-24.698 -13.64,0 -24.697,11.058 -24.697,24.698 m 50.146,-0.318 c 0,14.231 -11.536,25.767 -25.766,25.767 -14.231,0 -25.767,-11.536 -25.767,-25.767 0,-14.231 11.536,-25.767 25.767,-25.767 14.23,0 25.766,11.536 25.766,25.767"
         id="path55" />
    </g>
    <g
       clip-path="url(#s)"
       opacity="0.149994"
       id="g56">
      <path
         fill="#c0392b"
         d="m 87.0294,268.4037 c 0,17.557 14.233,31.789 31.789,31.789 17.557,0 31.789,-14.232 31.789,-31.789 0,-17.556 -14.232,-31.789 -31.789,-31.789 -17.556,0 -31.789,14.233 -31.789,31.789 m 64.546,-0.409 c 0,18.317 -14.849,33.166 -33.166,33.166 -18.317,0 -33.166,-14.849 -33.166,-33.166 0,-18.317 14.849,-33.165 33.166,-33.165 18.317,0 33.166,14.848 33.166,33.165"
         id="path56" />
    </g>
    <path
       fill="#c0392b"
       d="m 117.6679,375.2973 c -18.39,0 -33.298,14.908 -33.298,33.298 0,18.39 14.908,33.298 33.298,33.298 18.39,0 33.298,-14.908 33.298,-33.298 0,-18.39 -14.908,-33.298 -33.298,-33.298"
       id="path57" />
    <g
       clip-path="url(#t)"
       opacity="0.300003"
       id="g58">
      <path
         fill="#c0392b"
         d="m 117.6679,382.0645 c -14.653,0 -26.531,11.878 -26.531,26.531 0,14.652 11.878,26.531 26.531,26.531 14.653,0 26.531,-11.879 26.531,-26.531 0,-14.653 -11.878,-26.531 -26.531,-26.531"
         id="path58" />
    </g>
    <path
       fill="#c0392b"
       d="m 117.5915,382.752 c -14.231,0 -25.767,11.536 -25.767,25.767 0,14.231 11.536,25.767 25.767,25.767 14.231,0 25.767,-11.536 25.767,-25.767 0,-14.231 -11.536,-25.767 -25.767,-25.767"
       id="path59" />
    <g
       clip-path="url(#u)"
       opacity="0.199997"
       id="g60">
      <path
         fill="#c0392b"
         d="m 93.2119,408.837 c 0,13.64 11.057,24.697 24.697,24.697 13.64,0 24.698,-11.057 24.698,-24.697 0,-13.64 -11.058,-24.698 -24.698,-24.698 -13.64,0 -24.697,11.058 -24.697,24.698 m 50.146,-0.318 c 0,14.231 -11.536,25.767 -25.766,25.767 -14.231,0 -25.767,-11.536 -25.767,-25.767 0,-14.231 11.536,-25.767 25.767,-25.767 14.23,0 25.766,11.536 25.766,25.767"
         id="path60" />
    </g>
    <g
       clip-path="url(#v)"
       opacity="0.149994"
       id="g61">
      <path
         fill="#c0392b"
         d="m 86.2115,408.9279 c 0,17.557 14.233,31.789 31.789,31.789 17.557,0 31.789,-14.232 31.789,-31.789 0,-17.556 -14.232,-31.789 -31.789,-31.789 -17.556,0 -31.789,14.233 -31.789,31.789 m 64.546,-0.409 c 0,18.317 -14.849,33.166 -33.166,33.166 -18.317,0 -33.166,-14.849 -33.166,-33.166 0,-18.317 14.849,-33.165 33.166,-33.165 18.317,0 33.166,14.848 33.166,33.165"
         id="path61" />
    </g>
    <path
       fill="#c0392b"
       d="m 54.049,269.4192 c -18.39,0 -33.298,14.908 -33.298,33.298 0,18.39 14.908,33.298 33.298,33.298 18.39,0 33.298,-14.908 33.298,-33.298 0,-18.39 -14.908,-33.298 -33.298,-33.298"
       id="path62" />
    <g
       clip-path="url(#w)"
       opacity="0.300003"
       id="g63">
      <path
         fill="#c0392b"
         d="m 54.049,276.1864 c -14.653,0 -26.531,11.878 -26.531,26.531 0,14.652 11.878,26.531 26.531,26.531 14.653,0 26.531,-11.879 26.531,-26.531 0,-14.653 -11.878,-26.531 -26.531,-26.531"
         id="path63" />
    </g>
    <path
       fill="#c0392b"
       d="m 53.9726,276.8739 c -14.231,0 -25.767,11.536 -25.767,25.767 0,14.231 11.536,25.767 25.767,25.767 14.231,0 25.767,-11.536 25.767,-25.767 0,-14.231 -11.536,-25.767 -25.767,-25.767"
       id="path64" />
    <path
       fill="#c0392b"
       d="m 53.9726,276.8739 c -14.231,0 -25.767,11.536 -25.767,25.767 0,14.231 11.536,25.767 25.767,25.767 14.231,0 25.767,-11.536 25.767,-25.767 0,-14.231 -11.536,-25.767 -25.767,-25.767"
       id="path65" />
    <g
       clip-path="url(#x)"
       opacity="0.199997"
       id="g66">
      <path
         fill="#c0392b"
         d="m 29.593,302.9589 c 0,13.64 11.057,24.697 24.697,24.697 13.64,0 24.698,-11.057 24.698,-24.697 0,-13.64 -11.058,-24.698 -24.698,-24.698 -13.64,0 -24.697,11.058 -24.697,24.698 m 50.146,-0.318 c 0,14.231 -11.536,25.767 -25.766,25.767 -14.231,0 -25.767,-11.536 -25.767,-25.767 0,-14.231 11.536,-25.767 25.767,-25.767 14.23,0 25.766,11.536 25.766,25.767"
         id="path66" />
    </g>
    <g
       clip-path="url(#y)"
       opacity="0.149994"
       id="g67">
      <path
         fill="#c0392b"
         d="m 22.5926,303.0498 c 0,17.557 14.233,31.789 31.789,31.789 17.557,0 31.789,-14.232 31.789,-31.789 0,-17.556 -14.232,-31.789 -31.789,-31.789 -17.556,0 -31.789,14.233 -31.789,31.789 m 64.546,-0.409 c 0,18.317 -14.849,33.166 -33.166,33.166 -18.317,0 -33.166,-14.849 -33.166,-33.166 0,-18.317 14.849,-33.165 33.166,-33.165 18.317,0 33.166,14.848 33.166,33.165"
         id="path67" />
    </g>
    <path
       fill="#c0392b"
       d="m 53.5638,339.6811 c -18.39,0 -33.298,14.908 -33.298,33.298 0,18.39 14.908,33.298 33.298,33.298 18.39,0 33.298,-14.908 33.298,-33.298 0,-18.39 -14.908,-33.298 -33.298,-33.298"
       id="path68" />
    <g
       clip-path="url(#z)"
       opacity="0.300003"
       id="g69">
      <path
         fill="#c0392b"
         d="m 53.5638,346.4483 c -14.653,0 -26.531,11.878 -26.531,26.531 0,14.652 11.878,26.531 26.531,26.531 14.653,0 26.531,-11.879 26.531,-26.531 0,-14.653 -11.878,-26.531 -26.531,-26.531"
         id="path69" />
    </g>
    <path
       fill="#c0392b"
       d="m 53.4874,347.1358 c -14.231,0 -25.767,11.536 -25.767,25.767 0,14.231 11.536,25.767 25.767,25.767 14.231,0 25.767,-11.536 25.767,-25.767 0,-14.231 -11.536,-25.767 -25.767,-25.767"
       id="path70" />
    <path
       fill="#c0392b"
       d="m 53.4874,347.1358 c -14.231,0 -25.767,11.536 -25.767,25.767 0,14.231 11.536,25.767 25.767,25.767 14.231,0 25.767,-11.536 25.767,-25.767 0,-14.231 -11.536,-25.767 -25.767,-25.767"
       id="path71" />
    <g
       clip-path="url(#A)"
       opacity="0.199997"
       id="g72">
      <path
         fill="#c0392b"
         d="m 29.1078,373.2208 c 0,13.64 11.057,24.697 24.697,24.697 13.64,0 24.698,-11.057 24.698,-24.697 0,-13.64 -11.058,-24.698 -24.698,-24.698 -13.64,0 -24.697,11.058 -24.697,24.698 m 50.146,-0.318 c 0,14.231 -11.536,25.767 -25.766,25.767 -14.231,0 -25.767,-11.536 -25.767,-25.767 0,-14.231 11.536,-25.767 25.767,-25.767 14.23,0 25.766,11.536 25.766,25.767"
         id="path72" />
    </g>
    <g
       clip-path="url(#B)"
       opacity="0.149994"
       id="g73">
      <path
         fill="#c0392b"
         d="m 22.1074,373.3117 c 0,17.557 14.233,31.789 31.789,31.789 17.557,0 31.789,-14.232 31.789,-31.789 0,-17.556 -14.232,-31.789 -31.789,-31.789 -17.556,0 -31.789,14.233 -31.789,31.789 m 64.546,-0.409 c 0,18.317 -14.849,33.166 -33.166,33.166 -18.317,0 -33.166,-14.849 -33.166,-33.166 0,-18.317 14.849,-33.165 33.166,-33.165 18.317,0 33.166,14.848 33.166,33.165"
         id="path73" />
    </g>
    <path
       fill="#c0392b"
       d="m 53.4874,198.475 c -18.39,0 -33.298,14.908 -33.298,33.298 0,18.39 14.908,33.298 33.298,33.298 18.39,0 33.298,-14.908 33.298,-33.298 0,-18.39 -14.908,-33.298 -33.298,-33.298"
       id="path74" />
    <g
       clip-path="url(#C)"
       opacity="0.300003"
       id="g75">
      <path
         fill="#c0392b"
         d="m 53.4874,205.2422 c -14.653,0 -26.531,11.878 -26.531,26.531 0,14.652 11.878,26.531 26.531,26.531 14.653,0 26.531,-11.879 26.531,-26.531 0,-14.653 -11.878,-26.531 -26.531,-26.531"
         id="path75" />
    </g>
    <path
       fill="#c0392b"
       d="m 53.411,205.9297 c -14.231,0 -25.767,11.536 -25.767,25.767 0,14.231 11.536,25.767 25.767,25.767 14.231,0 25.767,-11.536 25.767,-25.767 0,-14.231 -11.536,-25.767 -25.767,-25.767"
       id="path76" />
    <path
       fill="#c0392b"
       d="m 53.411,205.9297 c -14.231,0 -25.767,11.536 -25.767,25.767 0,14.231 11.536,25.767 25.767,25.767 14.231,0 25.767,-11.536 25.767,-25.767 0,-14.231 -11.536,-25.767 -25.767,-25.767"
       id="path77" />
    <g
       clip-path="url(#D)"
       opacity="0.199997"
       id="g78">
      <path
         fill="#c0392b"
         d="m 29.0314,232.0147 c 0,13.64 11.057,24.697 24.697,24.697 13.64,0 24.698,-11.057 24.698,-24.697 0,-13.64 -11.058,-24.698 -24.698,-24.698 -13.64,0 -24.697,11.058 -24.697,24.698 m 50.146,-0.318 c 0,14.231 -11.536,25.767 -25.766,25.767 -14.231,0 -25.767,-11.536 -25.767,-25.767 0,-14.231 11.536,-25.767 25.767,-25.767 14.23,0 25.766,11.536 25.766,25.767"
         id="path78" />
    </g>
    <g
       clip-path="url(#E)"
       opacity="0.149994"
       id="g79">
      <path
         fill="#c0392b"
         d="m 22.031,232.1056 c 0,17.557 14.233,31.789 31.789,31.789 17.557,0 31.789,-14.232 31.789,-31.789 0,-17.556 -14.232,-31.789 -31.789,-31.789 -17.556,0 -31.789,14.233 -31.789,31.789 m 64.546,-0.409 c 0,18.317 -14.849,33.165 -33.166,33.165 -18.317,0 -33.166,-14.848 -33.166,-33.165 0,-18.317 14.849,-33.165 33.166,-33.165 18.317,0 33.166,14.848 33.166,33.165"
         id="path79" />
    </g>
    <path
       fill="#c0392b"
       d="m 144.8838,83.5414 c 0,-21.526 -17.45,-38.977 -38.977,-38.977 -21.526,0 -38.976,17.451 -38.976,38.977 0,21.526 17.45,38.977 38.976,38.977 21.527,0 38.977,-17.451 38.977,-38.977"
       id="path80" />
  </g>
  <path
     style="fill:#c0392b;fill-opacity:1;stroke-width:0.247831"
     d="m 53.23938,143.36806 c -4.82659,-0.96621 -9.365739,-4.96944 -11.031661,-9.72921 -0.680542,-1.9444 -0.92427,-5.75665 -0.506362,-7.92023 0.681458,-3.52801 3.104679,-7.12401 6.235704,-9.25361 2.855168,-1.94199 4.624195,-2.46006 8.400212,-2.46006 3.533159,0 4.786082,0.31417 7.450156,1.86814 6.831121,3.98461 9.374739,12.68168 5.752164,19.66764 -1.890875,3.64646 -5.877834,6.78406 -9.793753,7.70734 -1.649054,0.38881 -4.867128,0.44815 -6.50646,0.11999 z"
     id="path81" />
  <path
     style="fill:#c0392b;fill-opacity:1;stroke-width:0.247831"
     d="m 20.220793,33.408958 c -4.82659,-0.96621 -9.365739,-4.96944 -11.0316614,-9.72921 -0.680542,-1.9444 -0.92427,-5.75665 -0.506362,-7.92023 0.681458,-3.52801 3.1046794,-7.1240092 6.2357044,-9.2536158 2.855168,-1.941982 4.624195,-2.460053 8.400212,-2.460053 3.533159,0 4.786082,0.314172 7.450156,1.868135 6.831121,3.9846146 9.374739,12.6816838 5.752164,19.6676438 -1.890875,3.64646 -5.877834,6.78406 -9.793753,7.70734 -1.649054,0.38881 -4.867128,0.44815 -6.50646,0.11999 z"
     id="path81-4" />
  <path
     style="fill:#008000;fill-opacity:1;stroke-width:0.247831"
     d="m 24.039653,127.84973 c -5.580059,-0.67872 -9.862343,-3.62992 -12.249047,-8.44163 -2.820281,-5.68582 -1.66317,-12.35946 2.934853,-16.92676 2.164542,-2.15008 4.091186,-3.266357 6.859674,-3.974417 3.42989,-0.87722 6.473083,-0.59512 9.742003,0.90306 3.930495,1.801387 6.802621,5.025707 8.08072,9.071607 0.745366,2.3595 0.839911,5.82419 0.22407,8.21126 -1.291314,5.00526 -5.75702,9.47259 -10.666462,10.67033 -1.659365,0.40484 -3.832715,0.61951 -4.925811,0.48655 z"
     id="path82" />
  <path
     style="fill:#008000;fill-opacity:1;stroke-width:0.247831"
     d="m 52.416357,143.01537 c -3.721465,-1.03717 -7.610495,-4.2811 -9.446127,-7.87923 -1.182653,-2.31819 -1.688901,-7.55396 -0.976437,-10.09861 1.118789,-3.9959 4.316054,-7.82156 8.053038,-9.63581 1.951658,-0.9475 3.601664,-1.27533 6.418875,-1.27533 4.203213,0 7.025202,1.17693 10.101964,4.21308 2.887262,2.84915 4.436048,6.45396 4.436048,10.32493 0,2.48597 -0.375649,4.07626 -1.537671,6.50965 -1.719492,3.60079 -5.341549,6.62274 -9.349938,7.80083 -1.623745,0.47723 -6.049183,0.50049 -7.699752,0.0405 z"
     id="path83" />
  <path
     style="fill:#0000ff;fill-opacity:1;stroke-width:0.247831"
     d="M 22.552664,63.717109 C 15.845205,62.436338 10.802695,56.733086 10.369952,49.938041 9.7368508,39.996894 19.126017,32.111485 28.685044,34.556273 c 5.552208,1.420015 9.79562,5.682505 11.118646,11.168633 0.782883,3.24634 0.139433,7.616118 -1.56221,10.609244 -3.087019,5.429943 -9.676685,8.530959 -15.688816,7.382959 z"
     id="path84" />
  <path
     style="fill:#0000ff;fill-opacity:1;stroke-width:0.247831"
     d="m 51.301115,79.326306 c -7.910473,-1.837246 -12.9343,-9.426264 -11.508553,-17.38488 0.436823,-2.438379 2.209104,-5.7754 4.030133,-7.588325 3.05222,-3.038636 6.477962,-4.500216 10.576314,-4.512344 10.305851,-0.0305 17.544644,10.133908 14.131987,19.843532 -1.482111,4.216873 -5.344855,7.923145 -9.667234,9.275633 -2.087484,0.653182 -5.595962,0.823155 -7.562647,0.366384 z"
     id="path85" />
  <path
     style="fill:#ffffff;fill-opacity:1;stroke-width:0.247831"
     d="m 20.446097,33.318569 c -0.74969,-0.127485 -2.286751,-0.685361 -3.41569,-1.239728 -3.564418,-1.750307 -6.496172,-5.03463 -7.7649646,-8.698769 -0.7826139,-2.260107 -0.7948905,-7.118848 -0.023269,-9.209166 1.2160285,-3.294215 3.7863875,-6.3911362 6.7821605,-8.1715538 2.444124,-1.452566 3.801249,-1.769076 7.519656,-1.753737 3.785569,0.01562 4.955763,0.364036 7.951002,2.367374 7.341695,4.9104238 8.685253,15.2562558 2.832884,21.8141098 -1.605921,1.799509 -4.536556,3.764251 -6.535956,4.381802 -1.872368,0.578315 -5.473009,0.828134 -7.345823,0.509668 z"
     id="path86" />
  <path
     style="fill:#ffffff;fill-opacity:1;stroke-width:0.247831"
     d="M 52.136301,47.699302 C 46.474806,46.829679 41.683792,42.690482 39.954368,37.17472 c -0.724809,-2.311678 -0.76088,-6.299702 -0.07509,-8.302354 1.573904,-4.596164 4.103469,-7.558776 8.065852,-9.446678 8.134497,-3.875733 17.950059,0.557971 20.62991,9.318561 0.626848,2.049198 0.730397,5.481921 0.228141,7.563061 -0.841075,3.485074 -3.442525,7.126473 -6.545922,9.162709 -2.754829,1.807529 -6.909283,2.722604 -10.120954,2.229283 z"
     id="path87" />
  <path
     style="fill:#ffffff;stroke-width:0.247831"
     d="M 19.447763,32.885787 C 15.924653,31.712848 13.096348,29.562089 11.046241,26.496925 9.5173577,24.211055 9.0546951,22.756392 8.8703588,19.655709 8.5907743,14.952873 9.7310038,12.061893 13.251949,8.5464615 16.694743,5.1090598 19.346861,4.1353363 24.535316,4.4037819 c 2.994172,0.1549154 4.321521,0.6180488 6.920358,2.4146231 7.52524,5.202195 8.539253,15.738922 2.122385,22.053962 -3.092298,3.043227 -5.751502,4.200131 -10.032478,4.364699 -2.192256,0.08427 -2.996697,0.01531 -4.097818,-0.351279 z"
     id="path9" />
  <path
     style="fill:#ffffff;stroke-width:0.247831"
     d="M 19.271792,32.853323 C 15.676696,31.526399 13.05525,29.500642 11.046241,26.496925 9.5173577,24.211055 9.0546951,22.756392 8.8703588,19.655709 8.5907743,14.952873 9.7310038,12.061893 13.251949,8.5464615 16.484281,5.3191924 18.852137,4.3419828 23.448206,4.3384862 c 3.696753,-0.00281 6.061646,0.8376019 9.050449,3.2162655 1.837925,1.4627283 3.771278,4.2503733 4.587645,6.6147973 0.835648,2.420265 0.837455,6.909072 0.0037,9.235793 -1.201811,3.353903 -3.423422,5.977934 -6.785525,8.014648 -2.152249,1.303802 -3.590523,1.680912 -6.884418,1.805068 -2.38595,0.08994 -3.061467,0.0294 -4.148282,-0.371735 z"
     id="path10" />
  <path
     style="fill:#ffffff;stroke-width:0.247831"
     d="M 19.271792,32.853323 C 15.676696,31.526399 13.05525,29.500642 11.046241,26.496925 9.5173577,24.211055 9.0546951,22.756392 8.8703588,19.655709 8.5907743,14.952873 9.7310038,12.061893 13.251949,8.5464615 16.477568,5.3258949 18.83708,4.3370508 23.296159,4.3370508 c 2.718151,0 4.398112,0.3399642 6.224082,1.2595322 3.463381,1.7441769 6.329598,4.991835 7.566059,8.572966 0.487128,1.410852 0.584084,2.18534 0.584084,4.665643 0,2.516256 -0.09081,3.22191 -0.590047,4.584882 -1.245921,3.401522 -3.417636,5.965562 -6.775845,7.999916 -2.152249,1.303802 -3.590523,1.680912 -6.884418,1.805068 -2.38595,0.08994 -3.061467,0.0294 -4.148282,-0.371735 z"
     id="path11" />
  <path
     style="fill:#ffffff;stroke-width:0.247831"
     d="M 19.290662,32.872622 C 16.761848,31.9271 14.869502,30.733279 13.135068,28.989244 10.056054,25.893187 8.839784,23.057067 8.8123038,18.909348 8.7831767,14.513056 9.909762,11.883414 13.251949,8.5464615 c 2.368821,-2.365111 4.373459,-3.5376288 6.8224,-3.9904382 1.930691,-0.3569848 6.61328,-0.1378111 8.01986,0.3753783 3.342972,1.2196807 6.57561,4.142075 8.16161,7.3783244 1.261214,2.57352 1.642932,4.500394 1.478035,7.460957 -0.274355,4.925718 -2.757341,8.819063 -7.429362,11.649307 -2.146487,1.30031 -3.584244,1.679214 -6.884418,1.81431 -2.401937,0.09833 -3.051218,0.04146 -4.129412,-0.361678 z"
     id="path13" />
  <path
     style="fill:#ffffff;stroke-width:0.247831"
     d="M 19.571601,33.004828 C 14.741599,31.406979 10.391884,27.061949 9.2523602,22.696701 8.7601579,20.811188 8.6744507,17.343142 9.0730153,15.439708 9.5553909,13.136016 10.935825,10.858958 13.251949,8.5464615 16.696355,5.1074504 19.182302,4.1741901 24.287485,4.4035633 c 3.078955,0.1383359 4.548387,0.5865119 6.793119,2.0718978 3.12525,2.068043 5.753227,5.8240819 6.445389,9.2120779 0.383501,1.877175 0.331197,4.908631 -0.114201,6.618626 -1.21487,4.664203 -5.088943,8.780866 -9.747221,10.357582 -1.81574,0.614585 -6.650305,0.818337 -8.09297,0.341081 z"
     id="path14" />
</svg>
