<?xml version="1.0" encoding="UTF-8" standalone="no"?>
<!-- Caetano Ramos -->

<svg
   xmlns:dc="http://purl.org/dc/elements/1.1/"
   xmlns:cc="http://creativecommons.org/ns#"
   xmlns:rdf="http://www.w3.org/1999/02/22-rdf-syntax-ns#"
   xmlns:svg="http://www.w3.org/2000/svg"
   xmlns="http://www.w3.org/2000/svg"
   xmlns:sodipodi="http://sodipodi.sourceforge.net/DTD/sodipodi-0.dtd"
   xmlns:inkscape="http://www.inkscape.org/namespaces/inkscape"
   version="1.1"
   id="svg2"
   width="476.983"
   height="212.76198"
   viewBox="0 0 476.983 212.76198"
   sodipodi:docname="amigacd32.svg"
   style="shape-rendering:crispEdges"
   inkscape:version="0.92.4 (5da689c313, 2019-01-14)">
  <metadata
     id="metadata8">
    <rdf:RDF>
      <cc:Work
         rdf:about="">
        <dc:format>image/svg+xml</dc:format>
        <dc:type
           rdf:resource="http://purl.org/dc/dcmitype/StillImage" />
        <dc:title></dc:title>
      </cc:Work>
    </rdf:RDF>
  </metadata>
  <defs
     id="defs6" />
  <sodipodi:namedview
     pagecolor="#666666"
     bordercolor="#000000"
     borderopacity="0"
     objecttolerance="10"
     gridtolerance="10"
     guidetolerance="10"
     inkscape:pageopacity="1"
     inkscape:pageshadow="2"
     inkscape:window-width="1600"
     inkscape:window-height="837"
     id="namedview4"
     showgrid="false"
     inkscape:pagecheckerboard="true"
     borderlayer="true"
     inkscape:showpageshadow="false"
     inkscape:zoom="0.61245673"
     inkscape:cx="284.21103"
     inkscape:cy="375.25437"
     inkscape:window-x="-8"
     inkscape:window-y="-8"
     inkscape:window-maximized="1"
     inkscape:current-layer="svg2" />
  <g
     id="g260"
     transform="matrix(0.51190336,0,0,0.51190336,-90.868957,14.288318)">
    <path
       inkscape:connector-curvature="0"
       id="path176"
       d="m 851.95789,-15.667883 c 0,-1.2479 1.61246,-4.105391 3.58323,-6.349979 l 3.58323,-4.081069 h 66.34244 c 40.14841,0 67.15961,0.437338 68.41212,1.107659 2.37161,1.269248 5.15129,5.207217 6.34899,8.99458 l 0.8215,2.597719 h -74.54577 c -73.33607,0 -74.54574,-0.03682 -74.54574,-2.26891 z"
       style="opacity:1;fill:none;fill-opacity:1;stroke:#ffffff;stroke-width:3.62641525;stroke-miterlimit:4;stroke-dasharray:none;stroke-opacity:1" />
    <path
       inkscape:connector-curvature="0"
       id="path178"
       d="m 292.00521,-14.61085 c 0,-2.319871 3.46744,-7.896191 6.02301,-9.686183 2.25905,-1.582298 10.69196,-1.801898 69.19503,-1.801898 h 66.62247 l 3.54768,4.303951 c 1.95123,2.367173 3.54768,5.224663 3.54768,6.349979 0,1.937195 -3.96111,2.046028 -74.46793,2.046028 -51.22434,0 -74.46794,-0.378262 -74.46794,-1.211877 z"
       style="opacity:1;fill:none;fill-opacity:1;stroke:#ffffff;stroke-width:3.62641525;stroke-miterlimit:4;stroke-dasharray:none;stroke-opacity:1" />
    <path
       inkscape:connector-curvature="0"
       id="path180"
       d="M 572.55882,384.84919 C 474.90397,377.64303 405.7428,366.55864 319.71421,344.326 279.03924,333.81425 228.71276,317.02169 211.02954,308.06092 c -11.92558,-6.04314 -21.16061,-17.13499 -26.54086,-31.87721 -8.58178,-23.51464 -6.41903,-62.30999 6.61784,-118.71052 12.1289,-52.4725 32.97662,-115.272125 46.33067,-139.562009 5.35894,-9.7474573 17.53885,-21.9612869 25.9754,-26.0477209 l 6.62089,-3.2069821 92.85768,0.117129 c 59.40981,0.07494 93.96203,0.537003 95.92358,1.2827778 5.75295,2.1872706 10.84114,7.0461174 12.8287,12.2504717 3.08131,8.0682945 1.74395,23.9247205 -3.01383,35.7336555 -2.03289,5.045672 -5.16758,12.810755 -6.96597,17.25574 -7.97628,19.71453 -9.44684,23.424421 -11.44121,28.863541 -1.16418,3.174989 -3.19778,8.110655 -4.51912,10.968145 -3.20965,6.941092 -3.15794,12.916652 0.14457,16.707852 2.9171,3.34878 20.41443,8.67518 37.81124,11.51024 87.3293,14.23153 160.71096,16.9456 251.69007,9.30893 36.28304,-3.04554 92.42958,-12.90246 103.56787,-18.18207 3.26691,-1.54852 6.46533,-8.24577 5.53107,-11.58164 -0.39554,-1.41233 -2.24469,-6.334567 -4.10922,-10.938301 -1.86454,-4.603735 -4.99378,-12.396891 -6.95388,-17.318125 -1.96012,-4.921233 -5.05072,-12.584503 -6.86803,-17.029488 -11.40215,-27.888774 -11.85496,-29.439059 -11.97125,-40.986228 -0.13463,-13.3690326 0.53421,-15.9617509 5.3572,-20.7663421 7.38612,-7.3579529 2.38394,-7.0218739 104.47249,-7.0191589 l 93.08446,0.0025 6.4373,3.1125912 c 3.9192,1.8950133 9.607,6.3129009 14.54,11.2937943 6.9565,7.0238445 9.5237,10.7362385 15.5802,22.5299455 6.6497,12.949077 26.1894,69.975101 34.4455,100.528152 5.7381,21.23507 11.3194,46.32326 15.2823,68.69523 3.2793,18.51252 3.687,23.24008 3.7333,43.29531 0.055,23.98828 -0.3626,26.78046 -6.2228,41.5635 -3.7772,9.52847 -11.875,19.76657 -19.9512,25.22424 -12.606,8.51885 -64.2854,26.33116 -113.89244,39.25529 -85.4384,22.25926 -155.35038,33.38504 -255.1537,40.60512 -18.01,1.3029 -121.72878,1.23603 -139.69954,-0.0901 z m 139.12227,-37.45823 c 75.45906,-4.69868 138.85245,-14.07212 204.35386,-30.21605 46.00874,-11.33962 98.21765,-28.84373 127.32295,-42.68764 14.3093,-6.80617 25.9422,-17.62729 31.8077,-29.58791 10.1237,-20.64354 10.2063,-51.69172 0.2262,-84.97946 -9.8083,-32.71455 -34.9255,-99.488579 -45.9228,-122.08555 -9.7647,-20.064265 -21.8669,-31.2966862 -38.34278,-35.5869744 -5.76876,-1.50217751 -16.0342,-1.79044 -63.49978,-1.78312829 -60.41829,0.009352 -68.85296,0.59196809 -75.93438,5.24549699 -6.84448,4.4978307 -9.47737,10.7716217 -9.42344,22.4547807 0.0513,11.101688 1.09196,14.437684 19.95761,63.973096 5.78238,15.182769 10.51341,28.750729 10.51341,30.151009 0,4.35077 -4.311,8.47997 -10.75526,10.30172 -15.4736,4.37429 -76.58628,13.3431 -113.93523,16.72099 -59.08491,5.34371 -150.19035,5.34454 -206.08568,0.002 -36.41071,-3.48026 -83.67846,-10.46561 -106.60001,-15.75361 -9.14904,-2.11112 -14.04959,-6.02526 -14.04959,-11.22205 0,-1.44698 6.46202,-19.79895 14.36003,-40.78216 7.89801,-20.983212 14.95993,-41.450411 15.69313,-45.482664 2.45285,-13.48928 -1.34513,-25.743997 -9.5502,-30.8150021 -7.25266,-4.48239586 -15.59312,-4.93278716 -84.64199,-4.570746 l -65.87085,0.3453788 -8.7641,4.3324913 c -10.21352,5.049004 -19.32293,14.088366 -25.60592,25.409019 -2.19898,3.962102 -7.70529,16.036065 -12.23626,26.831029 -4.53097,10.794964 -9.45859,22.484698 -10.95027,25.977186 -10.53107,24.656508 -23.84811,62.283148 -28.31413,80.000138 -7.33137,29.084 -5.05569,66.06115 5.32647,86.54938 4.38186,8.64717 13.62777,17.82098 22.36381,22.18939 18.78245,9.39208 65.01836,25.89676 99.86785,35.64952 74.1429,20.74916 154.14876,33.86965 240.14465,39.38229 32.95504,2.11254 104.90968,2.13213 138.545,0.0378 z"
       style="opacity:1;fill:none;fill-opacity:1;stroke:#ffffff;stroke-width:3.62641525;stroke-miterlimit:4;stroke-dasharray:none;stroke-opacity:1" />
    <path
       inkscape:connector-curvature="0"
       id="path182"
       d="m 591.60876,279.07117 c -52.3613,-1.80696 -108.59914,-6.9951 -154.93629,-14.29341 -36.88388,-5.80939 -40.4824,-6.84206 -42.98543,-12.33563 -1.75408,-3.84977 -1.53431,-7.43965 0.64599,-10.55247 2.08855,-2.98183 8.69792,-6.18265 11.04136,-5.34719 4.86103,1.73302 73.88647,10.50448 113.49825,14.42288 72.77245,7.19866 158.69735,7.82318 233.79468,1.69926 40.03804,-3.26497 125.53539,-13.66964 132.54818,-16.13057 2.35049,-0.82483 8.95688,2.3796 11.04136,5.35562 2.33688,3.33637 2.42807,8.96353 0.19687,12.14901 -2.94984,4.21148 -6.85419,5.20292 -42.27002,10.73362 -12.33666,1.92655 -24.18477,3.80617 -26.32914,4.17694 l -3.89884,0.67412 2.45567,-3.12187 c 3.68123,-4.67993 3.28705,-10.81828 -0.95577,-14.88315 -3.32778,-3.18822 -3.64625,-3.2522 -12.98859,-2.60944 -11.77943,0.81044 -88.99406,8.60469 -94.07774,9.49647 -4.55708,0.7994 -9.59457,6.51768 -9.59457,10.89124 0,1.77064 1.01385,4.50825 2.253,6.08357 l 2.253,2.86422 -17.4456,0.7551 c -16.29063,0.70511 -83.52246,0.68685 -104.24637,-0.0283 z"
       style="opacity:1;fill:none;fill-opacity:1;stroke:#ffffff;stroke-width:3.62641525;stroke-miterlimit:4;stroke-dasharray:none;stroke-opacity:1" />
    <path
       inkscape:connector-curvature="0"
       id="path184"
       d="m 714.23827,275.59444 c -3.82622,-5.52124 -3.90418,-7.41617 -0.46941,-11.40933 2.50998,-2.91803 3.73906,-3.21856 21.12379,-5.16523 10.15231,-1.13682 33.70091,-3.5097 52.33023,-5.27306 l 33.87148,-3.20613 2.73181,3.17592 c 3.40317,3.95642 3.46609,7.53947 0.20789,11.83915 -1.38815,1.83188 -2.58572,3.44588 -2.66127,3.58667 -0.16687,0.31098 -46.8784,5.27716 -73.74542,7.84032 -10.70945,1.0217 -21.89788,2.14498 -24.86318,2.49617 -5.23689,0.62024 -5.48132,0.50887 -8.52592,-3.88448 z"
       style="opacity:1;fill:none;fill-opacity:1;stroke:#ffffff;stroke-width:3.62641525;stroke-miterlimit:4;stroke-dasharray:none;stroke-opacity:1" />
    <path
       inkscape:connector-curvature="0"
       id="path186"
       d="m 941.92029,239.43042 c -15.74994,-2.65594 -29.17887,-16.52694 -30.75145,-31.76377 -1.0435,-10.11059 2.2065,-18.21192 10.75696,-26.814 3.94492,-3.96873 7.85879,-7.21588 8.69749,-7.21588 0.83871,0 -0.90657,2.23234 -3.87838,4.96076 -21.71004,19.93198 -10.51407,54.82399 18.97841,59.14581 7.45861,1.09299 19.61086,-2.64759 25.7931,-7.93936 14.91805,-12.7693 15.93808,-36.44977 2.14738,-49.85279 -6.74932,-6.55959 -12.15697,-8.93037 -22.41533,-9.82714 -4.76248,-0.41633 -8.24842,-0.83538 -7.74653,-0.93121 0.5019,-0.0958 8.55482,-2.28277 17.8954,-4.85986 73.39366,-20.24953 73.16526,-20.20488 83.84816,-16.39047 9.925,3.54379 21.4571,16.40721 21.4571,23.9341 0,1.17093 -1.5896,-1.05218 -3.5325,-4.94024 -5.8625,-11.7319 -15.7835,-17.91439 -28.7946,-17.94402 -12.1472,-0.0277 -22.7274,6.82916 -28.387,18.3969 -2.7393,5.59896 -3.0211,7.28065 -2.5503,15.21871 0.591,9.96366 2.2006,13.84487 8.3735,20.19067 5.8393,6.00273 12.3406,9.03036 21.2946,9.91672 l 7.6191,0.75422 -20.7817,6.19551 c -11.43,3.40753 -25.45764,7.62951 -31.17263,9.38219 -37.77056,11.58353 -38.61831,11.77141 -46.85078,10.38315 z"
       style="opacity:1;fill:none;fill-opacity:1;stroke:#ffffff;stroke-width:3.62641525;stroke-miterlimit:4;stroke-dasharray:none;stroke-opacity:1" />
    <path
       inkscape:connector-curvature="0"
       id="path188"
       d="m 946.7824,234.66054 c -20.94497,-3.79508 -32.73739,-25.56809 -23.98394,-44.28292 8.45181,-18.06991 29.32657,-23.60623 45.16504,-11.97849 13.67593,10.04012 16.87147,28.23575 7.54228,42.94635 -5.87498,9.26388 -18.57926,15.1531 -28.72338,13.31506 z"
       style="opacity:1;fill:none;fill-opacity:1;stroke:#ffffff;stroke-width:3.62641525;stroke-miterlimit:4;stroke-dasharray:none;stroke-opacity:1" />
    <path
       inkscape:connector-curvature="0"
       id="path190"
       d="m 1024.5362,207.26732 c -15.2275,-6.91738 -21.6983,-25.89433 -13.7863,-40.43129 1.8491,-3.39729 5.1936,-7.5402 7.4324,-9.20647 2.2388,-1.66628 4.3883,-3.46658 4.7768,-4.00068 0.3885,-0.53409 0.9081,-0.89317 1.1546,-0.79795 0.2465,0.0952 1.3643,-0.17841 2.484,-0.60808 1.1197,-0.42966 5.5978,-0.57994 9.9514,-0.33394 10.9238,0.61726 17.5908,4.77673 23.612,14.73146 5.2818,8.73221 6.0674,12.60905 4.2902,21.17003 -1.609,7.7503 -7.8938,15.57624 -15.4443,19.23138 -6.4281,3.11177 -17.9076,3.22695 -24.4708,0.24554 z"
       style="opacity:1;fill:none;fill-opacity:1;stroke:#ffffff;stroke-width:3.62641525;stroke-miterlimit:4;stroke-dasharray:none;stroke-opacity:1" />
    <path
       inkscape:connector-curvature="0"
       id="path192"
       d="m 1004.4997,120.59326 c -2.1442,-0.54349 -6.02852,-2.48513 -8.63176,-4.31475 -14.10566,-9.91383 -16.45953,-30.851833 -4.94298,-43.968459 9.55814,-10.886111 28.14144,-12.733477 38.89064,-3.866123 7.3437,6.058091 10.3682,11.638157 11.0977,20.475177 0.3666,4.440254 0.095,10.003441 -0.6153,12.620105 -1.6126,5.93747 -8.2573,13.74764 -14.3334,16.84746 -5.2244,2.66527 -15.4913,3.72071 -21.4649,2.20659 z"
       style="opacity:1;fill:none;fill-opacity:1;stroke:#ffffff;stroke-width:3.62641525;stroke-miterlimit:4;stroke-dasharray:none;stroke-opacity:1" />
    <path
       inkscape:connector-curvature="0"
       id="path194"
       d="m 916.03495,148.93093 c -7.07941,-2.23892 -11.15226,-4.70797 -15.74773,-9.54662 -6.06279,-6.3836 -8.22373,-11.43256 -8.81176,-20.58827 -0.64194,-9.99531 0.99552,-16.3387 5.86597,-22.724288 5.50443,-7.216794 12.10497,-11.319001 22.93552,-14.254312 8.74443,-2.36993 55.08029,-15.113982 77.69009,-21.36761 19.81956,-5.48189 36.14916,0.810647 44.05906,16.978056 6.3687,13.017002 3.1297,30.523034 -7.3496,39.724024 -6.0507,5.31253 -10.542,7.01547 -38.97818,14.77907 -13.96995,3.81404 -33.19307,9.10616 -42.71804,11.76026 -27.95725,7.79017 -28.59486,7.8806 -36.94533,5.23969 z m 18.94846,-2.71226 c 7.54093,-2.359 15.21555,-9.27711 18.62637,-16.79031 3.3949,-7.47813 3.07058,-19.51416 -0.7314,-27.14375 -9.90813,-19.883013 -36.86895,-23.578084 -51.69738,-7.085298 -11.79334,13.117028 -11.69079,29.843048 0.26238,42.796498 8.713,9.44214 20.44663,12.31882 33.54003,8.22286 z m 91.08299,-24.96444 c 4.8574,-2.55209 12.2497,-9.92172 14.6945,-14.64938 4.648,-8.988314 3.0272,-25.357036 -3.3372,-33.70123 -6.111,-8.012122 -13.0525,-11.550031 -23.8926,-12.177558 -8.5071,-0.492464 -9.7604,-0.262482 -16.40805,3.010833 -24.46535,12.046764 -23.98584,46.513035 0.80888,58.141435 6.02497,2.82562 22.25387,2.46562 28.13447,-0.6241 z"
       style="opacity:1;fill:none;fill-opacity:1;stroke:#ffffff;stroke-width:3.62641525;stroke-miterlimit:4;stroke-dasharray:none;stroke-opacity:1" />
    <path
       inkscape:connector-curvature="0"
       id="path196"
       d="m 921.76302,144.68927 c -7.10044,-0.92633 -11.50018,-3.13073 -16.34226,-8.18797 -11.08604,-11.57864 -11.06871,-29.35107 0.0403,-41.373362 11.82315,-12.795081 34.86064,-9.444105 44.15958,6.423342 2.39321,4.08371 3.26587,7.33743 3.65147,13.61454 0.45402,7.39117 0.16203,8.9024 -2.80961,14.5415 -5.82317,11.05025 -16.42286,16.58358 -28.69953,14.98195 z"
       style="opacity:1;fill:none;fill-opacity:1;stroke:#ffffff;stroke-width:3.62641525;stroke-miterlimit:4;stroke-dasharray:none;stroke-opacity:1" />
    <path
       inkscape:connector-curvature="0"
       id="path198"
       d="m 300.34659,199.66605 c -22.74145,-5.18156 -42.29669,-22.55437 -50.09245,-44.50195 -2.24203,-6.31204 -2.6656,-9.79775 -2.6656,-21.93629 0,-12.13854 0.42357,-15.62425 2.6656,-21.93629 8.09571,-22.79204 27.67011,-39.728251 51.5275,-44.582745 35.08078,-7.138226 70.34846,15.774847 78.65113,51.098875 2.47453,10.52797 1.69979,27.15413 -1.73202,37.1701 -4.95012,14.44727 -16.79815,29.14488 -29.49021,36.58292 -13.91378,8.15401 -34.01584,11.48847 -48.86395,8.10538 z m 8.79181,-2.79972 c 0.85078,-0.53925 4.08472,-9.65155 7.18654,-20.24957 3.10182,-10.59801 5.94331,-19.76041 6.31442,-20.36089 1.45497,-2.3542 5.14029,-0.69177 19.48999,8.79186 9.20978,6.08668 15.83109,9.7228 17.31812,9.51032 1.44342,-0.20625 3.24116,-2.04949 4.48931,-4.60293 2.87894,-5.88972 13.50451,-36.76707 13.50451,-39.24343 0,-3.23328 -3.76429,-4.40182 -14.6445,-4.54608 -5.59798,-0.0742 -13.55518,-0.46388 -17.68266,-0.8659 -10.00233,-0.97425 -10.24963,-2.78226 -2.02205,-14.78329 12.12307,-17.683151 15.02499,-23.05595 13.7448,-25.447998 -0.71224,-1.330841 -5.85359,-3.937495 -13.08656,-6.63487 -6.55238,-2.443566 -14.9393,-5.684514 -18.63759,-7.202108 -10.99358,-4.511221 -10.74396,-4.824017 -16.66711,20.885486 -2.17297,9.43181 -3.80443,14.13029 -5.21162,15.00904 -2.18125,1.36213 -2.21591,1.34682 -25.90782,-11.448236 -10.61583,-5.733183 -10.64284,-5.74039 -12.87868,-3.43615 -2.14859,2.214337 -16.31487,35.309416 -16.31487,38.114616 0,2.89713 4.62966,4.86075 20.20448,8.56948 18.54959,4.4171 20.20448,5.09001 20.20448,8.21553 0,1.25771 -3.63681,8.91704 -8.08179,17.02073 -4.44499,8.1037 -8.0818,15.56524 -8.0818,16.5812 0,2.83573 2.21524,4.16222 18.14213,10.86353 15.75274,6.62802 16.24153,6.76611 18.61827,5.25966 z"
       style="opacity:1;fill:none;fill-opacity:1;stroke:#ffffff;stroke-width:3.62641525;stroke-miterlimit:4;stroke-dasharray:none;stroke-opacity:1" />
  </g>
</svg>
