<?xml version="1.0" encoding="UTF-8" standalone="no"?>
<!-- Caetano Ramos -->

<svg
   xmlns:dc="http://purl.org/dc/elements/1.1/"
   xmlns:cc="http://creativecommons.org/ns#"
   xmlns:rdf="http://www.w3.org/1999/02/22-rdf-syntax-ns#"
   xmlns:svg="http://www.w3.org/2000/svg"
   xmlns="http://www.w3.org/2000/svg"
   xmlns:sodipodi="http://sodipodi.sourceforge.net/DTD/sodipodi-0.dtd"
   xmlns:inkscape="http://www.inkscape.org/namespaces/inkscape"
   version="1.1"
   id="svg2"
   width="484.04562"
   height="153.96045"
   viewBox="0 0 484.04562 153.96045"
   sodipodi:docname="amigacdtv.svg"
   inkscape:version="0.92.4 (5da689c313, 2019-01-14)">
  <metadata
     id="metadata8">
    <rdf:RDF>
      <cc:Work
         rdf:about="">
        <dc:format>image/svg+xml</dc:format>
        <dc:type
           rdf:resource="http://purl.org/dc/dcmitype/StillImage" />
        <dc:title></dc:title>
      </cc:Work>
    </rdf:RDF>
  </metadata>
  <defs
     id="defs6" />
  <sodipodi:namedview
     pagecolor="#ffffff"
     bordercolor="#666666"
     borderopacity="1"
     objecttolerance="10"
     gridtolerance="10"
     guidetolerance="10"
     inkscape:pageopacity="0"
     inkscape:pageshadow="2"
     inkscape:window-width="1600"
     inkscape:window-height="837"
     id="namedview4"
     showgrid="false"
     inkscape:pagecheckerboard="true"
     showguides="false"
     inkscape:zoom="2.4498269"
     inkscape:cx="262.24525"
     inkscape:cy="116.41868"
     inkscape:window-x="-8"
     inkscape:window-y="-8"
     inkscape:window-maximized="1"
     inkscape:current-layer="g67" />
  <g
     id="g47"
     transform="translate(-55.391769,-193.65382)">
    <g
       id="g67">
      <g
         id="g578"
         transform="translate(11.429379,54.697742)">
        <path
           transform="translate(37.993938,131.14394)"
           inkscape:connector-curvature="0"
           id="path414"
           d="m 245.61552,160.09671 c -0.20237,-0.52737 -2.12853,-0.61229 -13.88818,-0.61229 -10.55994,0 -13.69169,-0.1156 -13.82296,-0.51024 -0.12938,-0.38895 -3.02408,-0.53985 -12.17773,-0.63483 -6.80766,-0.0706 -12.17594,-0.2916 -12.39579,-0.51024 -0.21328,-0.2121 -2.903,-0.38565 -5.97716,-0.38565 -4.59178,0 -5.63131,-0.10928 -5.82434,-0.61229 -0.1934,-0.504 -1.24789,-0.61228 -5.96245,-0.61228 -3.54621,0 -5.7275,-0.15546 -5.7275,-0.4082 0,-0.25254 -2.16247,-0.40819 -5.67102,-0.40819 -4.66435,0 -5.71273,-0.10869 -5.90598,-0.61229 -0.19331,-0.50376 -1.24411,-0.61228 -5.92844,-0.61228 -4.19227,0 -5.73816,-0.13454 -5.86294,-0.51024 -0.12208,-0.36757 -1.78657,-0.54741 -5.9528,-0.64314 -3.18084,-0.0731 -5.78334,-0.30271 -5.78334,-0.51024 0,-0.21287 -2.46915,-0.37735 -5.66471,-0.37735 -4.53732,0 -5.76584,-0.12185 -6.17286,-0.61228 -0.40515,-0.48818 -1.61019,-0.61229 -5.94468,-0.61229 -3.18403,0 -5.54105,-0.16912 -5.6888,-0.40819 -0.14851,-0.2403 -2.5749,-0.4082 -5.8992,-0.4082 -4.64294,0 -5.688704,-0.10886 -5.881889,-0.61228 -0.192915,-0.50274 -1.228458,-0.61229 -5.787515,-0.61229 -4.391355,0 -5.680609,-0.12805 -6.164851,-0.61229 -0.483459,-0.48346 -1.76559,-0.61229 -6.093725,-0.61229 -3.382161,0 -5.481436,-0.15633 -5.481436,-0.40819 0,-0.25254 -2.162467,-0.40819 -5.671017,-0.40819 -4.66435,0 -5.712726,-0.10869 -5.905976,-0.61229 -0.193312,-0.50376 -1.244117,-0.61229 -5.92844,-0.61229 -4.192059,0 -5.738282,-0.13456 -5.863361,-0.51024 -0.122025,-0.36652 -1.770039,-0.54888 -5.850753,-0.64743 -3.124483,-0.0754 -5.85538,-0.30506 -6.06866,-0.51024 -0.213281,-0.20518 -2.808321,-0.37305 -5.766757,-0.37305 -4.283336,0 -5.482479,-0.12471 -5.887128,-0.61229 -0.346219,-0.41717 -1.272703,-0.61229 -2.907325,-0.61229 -1.32732,0 -2.399172,-0.18236 -2.399172,-0.40819 0,-0.2245 -0.365146,-0.40819 -0.811435,-0.40819 -0.446289,0 -1.502486,-0.73444 -2.347104,-1.6321 -0.844619,-0.89765 -1.790136,-1.6324 -2.10115,-1.63277 -0.311015,-3.6e-4 -0.991068,-0.45988 -1.51123,-1.02115 -0.520162,-0.56126 -1.237408,-1.02048 -1.593878,-1.02048 -0.356472,0 -1.347076,-0.73474 -2.201345,-1.63277 -0.854268,-0.89802 -1.813153,-1.63276 -2.130855,-1.63276 -0.317703,0 -1.3564195,-0.75589 -2.30826,-1.67975 -1.2472736,-1.21061 -1.7306191,-2.00864 -1.7306191,-2.85734 0,-0.64768 0.1836864,-1.1776 0.4081921,-1.1776 0.2570361,0 0.4081921,-2.72556 0.4081921,-7.36027 0,-6.16591 0.099357,-7.3984 0.6122881,-7.59523 0.4989408,-0.19146 0.6122882,-1.17683 0.6122882,-5.32284 0,-3.97831 0.133529,-5.22142 0.6122881,-5.70018 0.4412885,-0.44128 0.6122885,-1.516136 0.6122885,-3.848664 0,-1.88546 0.170386,-3.23638 0.408192,-3.23638 0.241527,0 0.408192,-1.482145 0.408192,-3.630056 0,-2.850165 0.131546,-3.680538 0.612288,-3.865016 0.484277,-0.185833 0.612288,-1.038616 0.612288,-4.078933 0,-2.615911 0.194809,-4.217506 0.609773,-5.013162 0.376378,-0.721672 0.610737,-2.301918 0.612289,-4.128582 0.0014,-1.699124 0.176345,-2.959393 0.410707,-2.959393 0.244578,0 0.408192,-1.616108 0.408192,-4.031939 0,-3.085973 0.143654,-4.151163 0.612288,-4.540095 0.455094,-0.377694 0.612288,-1.386089 0.612288,-3.927806 0,-2.007639 0.168547,-3.419651 0.408192,-3.419651 0.235242,0 0.408192,-1.275949 0.408192,-3.01146 0,-2.178879 0.16928,-3.15195 0.612288,-3.519614 0.433932,-0.360131 0.612289,-1.313205 0.612289,-3.271846 0,-2.080062 0.151456,-2.821811 0.612288,-2.998648 0.35951,-0.137958 0.612288,-0.0055 0.612288,0.320847 0,0.305694 0.252825,0.652824 0.561833,0.771402 0.35722,0.137077 0.488386,0.599814 0.360158,1.270593 -0.274214,1.434458 0.534642,2.274883 2.189431,2.274883 0.75828,0 1.378691,0.183687 1.378691,0.408193 0,0.267337 8.000565,0.408192 23.185311,0.408192 15.553413,0 23.325489,0.140175 23.611158,0.425846 0.667162,0.667163 35.867708,0.748476 36.534138,0.08439 1.58216,-1.576569 1.55579,-2.312977 1.6687,46.593177 0.10438,45.214132 0.13911,47.136962 0.86571,47.939772 0.41633,0.45999 1.1492,0.89253 1.6286,0.9612 0.4794,0.0687 0.93629,0.46389 1.01531,0.87827 0.079,0.41438 0.44317,1.10321 0.80922,1.53072 0.65193,0.76139 3.45168,0.77731 136.77383,0.77731 126.97482,0 136.21336,-0.0464 137.67412,-0.69085 1.49559,-0.65985 1.56583,-0.77692 1.56583,-2.60958 0,-1.32898 0.1882,-1.99094 0.61229,-2.15369 0.53926,-0.20693 0.61229,-5.73801 0.61229,-46.373476 0,-39.900042 0.0795,-46.138517 0.5882,-46.138517 0.32351,0 0.70172,0.183686 0.84047,0.408192 0.13876,0.224506 0.65473,0.426502 1.14662,0.448881 0.82113,0.03736 0.8108,0.06393 -0.12614,0.324535 l -1.02048,0.283847 -0.1038,46.040819 c -0.0904,40.090869 -0.1827,46.153469 -0.71434,46.912479 -0.33579,0.47942 -0.61053,1.56553 -0.61053,2.41361 0,1.25418 -0.14786,1.54194 -0.79229,1.54194 -0.43576,0 -0.90582,0.18368 -1.04457,0.40819 -0.16734,0.27075 -44.34999,0.40819 -131.22447,0.40819 -72.03471,0 -131.26274,0.1115 -131.61786,0.24777 -0.85147,0.32674 -0.85147,2.44326 0,2.77 0.35512,0.13627 3.01857,0.24777 5.91878,0.24777 3.24328,0 5.27312,0.15713 5.27312,0.40819 0,0.25273 2.18129,0.40819 5.72749,0.40819 4.71457,0 5.76906,0.10829 5.96246,0.61229 0.19316,0.50335 1.23785,0.61229 5.87196,0.61229 4.1471,0 5.68179,0.13486 5.80647,0.51024 0.12187,0.36695 1.76496,0.54708 5.85075,0.64144 3.12471,0.0722 5.85579,0.30177 6.06907,0.51024 0.21328,0.20847 2.90301,0.37904 5.97716,0.37904 4.59179,0 5.63132,0.10928 5.82434,0.61229 0.19276,0.50233 1.22254,0.61229 5.73427,0.61229 3.2259,0 5.60361,0.16874 5.75159,0.40819 0.15895,0.25719 4.70272,0.40819 12.28267,0.40819 10.31712,0 12.06384,0.0872 12.26534,0.61229 0.20217,0.52684 2.12283,0.6141 13.76367,0.62527 11.24886,0.0108 13.66225,0.11398 14.32107,0.61228 1.19794,0.90608 32.12238,0.89392 33.02928,-0.013 0.50365,-0.50364 2.0683,-0.61228 8.8181,-0.61228 6.9175,0 8.2427,-0.0961 8.44076,-0.61229 0.19896,-0.51846 1.60447,-0.61229 9.17152,-0.61229 5.68557,0 8.93655,-0.14849 8.93655,-0.40819 0,-0.25771 2.84069,-0.40819 7.70567,-0.40819 6.35151,0 7.79497,-0.1076 8.21382,-0.61229 0.41875,-0.50456 1.85964,-0.61229 8.18974,-0.61229 4.68073,0 7.78012,-0.15946 7.93385,-0.40819 0.15205,-0.24603 2.98793,-0.40819 7.1383,-0.40819 5.57664,0 7.00244,-0.11643 7.4983,-0.61229 0.50121,-0.50121 2.01667,-0.61229 8.35342,-0.61229 6.50446,0 7.77868,-0.0978 7.9761,-0.61229 0.1934,-0.504 1.24789,-0.61229 5.96246,-0.61229 3.5462,0 5.72749,-0.15546 5.72749,-0.40819 0,-0.245 1.63704,-0.40819 4.09473,-0.40819 3.26321,0 4.14245,-0.12434 4.32969,-0.61229 0.17872,-0.46573 0.93775,-0.61229 3.17109,-0.61229 1.61487,0 3.11064,-0.16967 3.32392,-0.37704 0.21328,-0.20738 2.66881,-0.43699 5.45674,-0.51024 3.59398,-0.0944 5.11829,-0.28167 5.23846,-0.64344 0.12046,-0.36264 1.34418,-0.51024 4.23022,-0.51024 3.23296,0 4.10861,-0.12481 4.29569,-0.61229 0.18679,-0.48681 1.0575,-0.61228 4.24912,-0.61228 2.23579,0 4.12592,-0.18084 4.26642,-0.4082 0.13915,-0.22513 1.96744,-0.40819 4.07686,-0.40819 2.85534,0 3.97975,-0.15516 4.43684,-0.61229 0.45926,-0.45924 1.59211,-0.61229 4.53212,-0.61229 3.10769,0 3.96844,-0.12684 4.15474,-0.61228 0.18679,-0.48682 1.0575,-0.61229 4.24912,-0.61229 2.23579,0 4.12592,-0.18084 4.26642,-0.40819 0.13899,-0.22488 1.96051,-0.4082 4.05604,-0.4082 2.88315,0 3.92673,-0.14819 4.3119,-0.61228 0.37717,-0.45446 1.3834,-0.61229 3.9037,-0.61229 1.86756,0 3.50911,-0.18369 3.64785,-0.40819 0.13875,-0.22451 0.96305,-0.4082 1.83181,-0.4082 0.86871,0 1.85503,-0.27553 2.19178,-0.61228 0.33676,-0.33676 0.8937,-0.61229 1.2376,-0.61229 0.87317,0 6.78048,-6.11241 6.78048,-7.01589 0,-0.40687 0.18369,-0.73976 0.40819,-0.73976 0.24333,0 0.40819,-1.55671 0.40819,-3.85374 0,-2.12884 -0.1827,-3.96665 -0.40819,-4.10601 -0.23944,-0.14798 -0.40819,-2.52569 -0.40819,-5.75159 0,-4.51173 -0.10997,-5.54151 -0.61229,-5.73427 -0.46574,-0.17872 -0.61229,-0.93775 -0.61229,-3.17109 0,-1.61487 -0.16968,-3.11063 -0.37704,-3.32391 -0.20736,-0.21328 -0.43697,-2.66882 -0.51024,-5.456749 -0.0945,-3.593981 -0.28166,-5.118288 -0.64344,-5.238468 -0.3681,-0.12229 -0.51024,-1.455336 -0.51024,-4.78602 0,-3.727022 -0.11796,-4.661794 -0.61228,-4.851481 -0.49526,-0.190055 -0.61229,-1.134513 -0.61229,-4.941978 0,-2.865884 -0.15965,-4.707018 -0.40819,-4.707018 -0.24712,0 -0.4082,-1.752173 -0.4082,-4.440134 0,-3.448808 -0.1367,-4.553583 -0.61229,-4.948285 -0.4748,-0.394052 -0.61228,-1.493923 -0.61228,-4.898305 0,-3.404382 -0.13748,-4.504252 -0.61229,-4.898305 -0.42334,-0.351342 -0.61229,-1.286309 -0.61229,-3.029783 0,-1.417012 -0.21459,-2.736204 -0.48983,-3.01146 -0.3688,-0.368815 -6.99947,-0.513777 -26.83863,-0.586758 -16.93442,-0.0623 -20.88507,-0.137024 -11.05695,-0.20915 9.36581,-0.06873 15.44808,-0.268451 15.69499,-0.515362 0.24402,-0.244011 4.51979,-0.405604 10.83244,-0.409388 5.73612,-0.0034 10.68378,-0.167408 10.99478,-0.364379 0.99154,-0.627944 0.22911,-2.348204 -1.16421,-2.626871 -0.87945,-0.175894 -1.15453,-0.419127 -0.98211,-0.868467 0.13173,-0.34328 0.40354,-0.624145 0.60404,-0.624145 0.54653,0 0.43897,-2.211436 -0.13552,-2.785894 -0.39455,-0.394564 -0.39455,-0.66888 0,-1.300677 0.6047,-0.968225 0.65095,-2.303045 0.0919,-2.648599 -0.22451,-0.138752 -0.40819,-1.746035 -0.40819,-3.571741 0,-3.006334 0.0565,-3.24472 0.5993,-2.52711 0.32962,0.435795 0.60515,1.477448 0.61229,2.314785 0.0131,1.548161 0.95538,7.069139 1.66387,9.75021 0.21455,0.811817 0.39007,2.121052 0.39007,2.909412 0,0.788359 0.27553,1.66205 0.61229,1.941535 0.44301,0.367664 0.61229,1.340735 0.61229,3.519614 0,1.735511 0.17295,3.01146 0.40819,3.01146 0.24855,0 0.40819,1.841134 0.40819,4.70702 0,3.807464 0.11703,4.751922 0.61229,4.941977 0.49469,0.189826 0.61229,1.128237 0.61229,4.885494 0,2.828229 0.15993,4.650537 0.40819,4.650537 0.24724,0 0.40819,1.759112 0.40819,4.460956 0,3.421038 0.14275,4.603693 0.61229,5.073244 0.46979,0.469801 0.61229,1.653836 0.61229,5.087886 0,3.601757 0.11956,4.521475 0.61229,4.710558 0.49897,0.19147 0.61229,1.177189 0.61229,5.326078 0,2.953771 0.17136,5.197041 0.40819,5.343401 0.2245,0.13875 0.40819,1.53301 0.40819,3.09834 0,2.15328 0.14903,2.90326 0.61229,3.08102 0.50342,0.19319 0.61229,1.23895 0.61229,5.88189 0,3.32431 0.16789,5.75069 0.40819,5.8992 0.23924,0.14785 0.40819,2.5134 0.40819,5.71469 0,3.2013 -0.16895,5.56684 -0.40819,5.71469 -0.22451,0.13875 -0.40819,0.5309 -0.40819,0.87143 0,0.82408 -5.4848,6.27193 -6.31445,6.27193 -0.35774,0 -0.75618,0.27553 -0.88541,0.61229 -0.16401,0.42741 -0.83075,0.61229 -2.20815,0.61229 -1.08527,0 -2.08672,0.18369 -2.22547,0.40819 -0.13874,0.22451 -1.69779,0.40819 -3.46457,0.40819 -2.3111,0 -3.38408,0.17178 -3.82456,0.61229 -0.45844,0.45843 -1.58799,0.61229 -4.49521,0.61229 -2.14828,0 -3.99559,0.18235 -4.13515,0.40819 -0.13874,0.22451 -1.75686,0.40933 -3.59576,0.41071 -2.16755,0.002 -3.75472,0.21698 -4.51269,0.61229 -0.79565,0.41496 -2.39727,0.60977 -5.01317,0.60977 -3.0403,0 -3.89309,0.12801 -4.07894,0.61229 -0.18679,0.48682 -1.05751,0.61229 -4.24912,0.61229 -2.23579,0 -4.12592,0.18083 -4.26642,0.40819 -0.13875,0.22451 -1.85952,0.40819 -3.82391,0.40819 -2.50846,0 -3.80745,0.17839 -4.36398,0.59931 -0.56616,0.42822 -1.91601,0.60301 -4.72854,0.61229 -3.11381,0.0103 -3.9853,0.1409 -4.17115,0.62527 -0.19148,0.49897 -1.17718,0.61228 -5.32609,0.61228 -2.95377,0 -5.19703,0.17137 -5.3434,0.4082 -0.13875,0.2245 -1.533,0.40819 -3.09834,0.40819 -2.15328,0 -2.90325,0.14904 -3.08102,0.61229 -0.188,0.4899 -1.08288,0.61228 -4.4773,0.61228 -2.33329,0 -4.24235,0.16981 -4.24235,0.37735 0,0.20753 -2.6025,0.43714 -5.78334,0.51024 -4.16623,0.0957 -5.83072,0.27557 -5.9528,0.64314 -0.12763,0.38427 -2.07886,0.51024 -7.90391,0.51024 -6.4985,0 -7.77199,0.0978 -7.9694,0.61228 -0.1967,0.51259 -1.42036,0.61229 -7.51465,0.61229 -4.41282,0 -7.37905,0.16076 -7.53197,0.40819 -0.15337,0.24816 -3.19203,0.4082 -7.75059,0.4082 -6.1209,0 -7.61078,0.11247 -8.11059,0.61228 -0.50016,0.50016 -1.99617,0.61229 -8.16891,0.61229 -4.59743,0 -7.65541,0.15985 -7.8089,0.40819 -0.15461,0.25019 -3.44265,0.40917 -8.49407,0.41071 -6.51329,0.002 -8.48701,0.1304 -9.41099,0.61229 -0.92002,0.47982 -2.85828,0.60977 -9.09508,0.60977 -6.6687,0 -7.96317,0.0971 -8.16086,0.61229 -0.20401,0.53165 -2.64276,0.61229 -18.51626,0.61229 -15.87349,0 -18.31224,-0.0806 -18.51626,-0.61229 z M 109.32493,148.61415 c 1.49345,-0.40023 1.18736,-2.06245 -0.71261,-3.86985 l -1.63103,-1.55157 -0.10378,-46.653942 -0.10378,-46.653945 -43.880653,-0.109207 -43.880651,-0.109207 -0.714336,0.868764 c -0.501112,0.609444 -0.714336,1.586324 -0.714336,3.272696 0,1.330493 -0.182273,2.403932 -0.408193,2.403932 -0.241527,0 -0.408192,1.482147 -0.408192,3.630057 0,2.850164 -0.131546,3.680536 -0.612288,3.865014 -0.48795,0.187244 -0.612288,1.06648 -0.612288,4.329689 0,2.457693 -0.163192,4.094732 -0.408192,4.094732 -0.252519,0 -0.408192,2.160365 -0.408192,5.66471 0,4.537321 -0.121857,5.76584 -0.612288,6.172861 -0.355104,0.29471 -0.612289,1.185235 -0.612289,2.120097 0,0.888585 -0.274764,1.886708 -0.612288,2.224234 -0.447397,0.447395 -0.612288,1.538819 -0.612288,4.052764 0,2.021522 -0.16835,3.440476 -0.408192,3.440476 -0.248242,0 -0.408192,1.822308 -0.408192,4.650535 0,3.75726 -0.117609,4.69567 -0.612288,4.8855 -0.503761,0.19331 -0.612288,1.24411 -0.612288,5.92844 0,4.19195 -0.134565,5.73834 -0.5102404,5.86356 -0.3759406,0.12532 -0.5102402,1.68099 -0.5102402,5.91041 v 5.74033 l 1.5597846,1.47106 c 0.857881,0.80909 1.807312,1.47107 2.109846,1.47107 0.302533,0 1.156463,0.6429 1.897621,1.42867 0.741158,0.78577 1.563244,1.42867 1.826859,1.42867 0.263614,0 1.069209,0.55106 1.790212,1.22458 0.721002,0.67352 1.529222,1.22458 1.796043,1.22458 0.266822,0 1.273074,0.73474 2.236117,1.63277 0.963042,0.89802 2.011112,1.63276 2.329045,1.63276 0.317933,0 0.57806,0.18369 0.57806,0.4082 0,0.22956 1.141987,0.40819 2.609577,0.40819 1.94307,0 2.669587,0.15638 2.844534,0.61229 0.193403,0.504 1.247899,0.61228 5.962457,0.61228 3.546206,0 5.727501,0.15546 5.727501,0.4082 0,0.25273 2.181295,0.40819 5.727498,0.40819 4.714562,0 5.769057,0.10828 5.962458,0.61229 0.192757,0.5023 1.222189,0.61228 5.731038,0.61228 4.341143,0 5.62474,0.12867 6.108366,0.61229 0.483459,0.48347 1.76559,0.61229 6.093724,0.61229 3.382162,0 5.481436,0.15633 5.481436,0.40819 0,0.25323 2.230501,0.4082 5.875113,0.4082 4.845771,0 5.91628,0.10727 6.110073,0.61228 0.192071,0.50053 1.197358,0.61229 5.507605,0.61229 3.883226,0 5.580747,0.16069 6.441837,0.60978 1.1861,0.61859 6.00429,0.83937 7.80231,0.35752 z"
           style="opacity:1;fill:#ffffff;fill-opacity:0.97647059;stroke:#ffffff;stroke-width:1.28213143;stroke-miterlimit:4;stroke-dasharray:none;stroke-opacity:1" />
        <path
           transform="translate(37.993938,131.14394)"
           inkscape:connector-curvature="0"
           id="path416"
           d="M 112.28432,84.420748 V 26.005605 H 248.41639 384.54845 V 84.17298 142.34035 H 249.06206 c -74.51752,0 -135.77695,0.1115 -136.13207,0.24777 -0.58691,0.22522 -0.64567,-5.06811 -0.64567,-58.167372 z m 270.93895,0.20399 c 0.0759,-41.259437 -0.0192,-56.434796 -0.35612,-56.840748 -0.38527,-0.464219 -22.07206,-0.553808 -134.05917,-0.553808 -73.47975,0 -133.8901,0.111495 -134.24522,0.247768 -0.58446,0.224278 -0.64567,5.596916 -0.64567,56.670669 0,31.032601 0.12273,56.545631 0.27274,56.695641 0.15001,0.15001 60.72061,0.22654 134.60135,0.17008 l 134.3286,-0.10266 z"
           style="opacity:1;fill:#ffffff;fill-opacity:0.97647059;stroke:#ffffff;stroke-width:1.28213143;stroke-miterlimit:4;stroke-dasharray:none;stroke-opacity:1" />
        <path
           transform="translate(37.993938,131.14394)"
           inkscape:connector-curvature="0"
           id="path418"
           d="m 116.02677,22.43393 c 49.76579,-0.05712 131.32257,-0.05712 181.23729,-2e-6 49.91471,0.05712 9.19724,0.103861 -90.48327,0.103862 -99.68051,10e-7 -140.519822,-0.04674 -90.75402,-0.10386 z"
           style="opacity:1;fill:#ffffff;fill-opacity:0.97647059;stroke:#ffffff;stroke-width:1.28213143;stroke-miterlimit:4;stroke-dasharray:none;stroke-opacity:1" />
        <path
           transform="translate(37.993938,131.14394)"
           inkscape:connector-curvature="0"
           id="path420"
           d="m 21.913443,24.543548 c -0.136273,-0.35512 -0.247768,-1.555438 -0.247768,-2.667374 0,-1.954491 0.0882,-2.106501 2.653248,-4.572566 1.459287,-1.402976 2.653249,-2.792637 2.653249,-3.088135 0,-0.295498 0.624534,-1.161803 1.387853,-1.925122 l 1.387853,-1.387853 h 68.388905 c 45.152287,0 68.474627,-0.138692 68.641187,-0.408192 0.16698,-0.270192 31.6294,-0.408193 93.06273,-0.408193 81.95393,0 92.88208,-0.07162 93.42274,-0.6122877 0.53829,-0.5382828 7.35522,-0.6122881 56.40033,-0.6122881 h 55.78803 l 3.34187,3.3675848 c 1.83801,1.852172 3.84027,3.732634 4.44946,4.178805 0.72723,0.532631 1.10759,1.18681 1.10759,1.904896 0,0.601522 0.2127,1.164576 0.47264,1.251231 0.29839,0.09946 0.3708,0.563516 0.19634,1.258592 -0.3359,1.338389 -0.97235,1.439373 -1.15081,0.182606 l -0.13046,-0.918432 h -42.86017 c -42.54903,0 -42.86102,0.0059 -42.97724,0.816384 -0.11687,0.814983 -0.42879,0.816387 -181.64548,0.817886 -146.850817,0.0012 -181.703874,0.10143 -182.446857,0.524602 -0.628306,0.357856 -0.918432,0.905398 -0.918432,1.733315 0,1.296637 -0.569561,1.625811 -0.976808,0.564541 z m 364.602317,-4.966968 0.13043,-0.918432 h 41.11738 c 31.43591,0 41.23273,-0.115335 41.6072,-0.489831 0.94586,-0.945846 0.46261,-1.857985 -2.62582,-4.956442 l -3.11565,-3.125762 h -53.98125 c -47.48538,0 -54.04243,0.07368 -54.48943,0.612289 -0.44897,0.540975 -11.33237,0.612288 -93.44433,0.612288 -60.6891,0 -93.07618,0.139998 -93.33966,0.403476 -0.26177,0.261773 -24.41639,0.440973 -68.776046,0.510241 l -68.372571,0.106763 -1.310536,1.340698 c -0.720795,0.737384 -1.310537,1.603561 -1.310537,1.924839 0,0.321277 -0.551059,1.147866 -1.224576,1.836864 -1.324733,1.355183 -1.498457,2.011995 -0.734287,2.776166 0.380417,0.380416 40.743632,0.467318 180.114763,0.387782 l 179.62448,-0.102507 z"
           style="opacity:1;fill:#ffffff;fill-opacity:0.97647059;stroke:#ffffff;stroke-width:1.28213143;stroke-miterlimit:4;stroke-dasharray:none;stroke-opacity:1" />
        <path
           transform="translate(37.993938,131.14394)"
           inkscape:connector-curvature="0"
           id="path422"
           d="m 18.400138,37.348901 c 0,-1.876514 0.182172,-2.82249 0.612288,-3.179454 0.336758,-0.279484 0.620573,-0.898957 0.630699,-1.376605 0.01013,-0.477648 0.286439,-1.41951 0.614028,-2.093027 l 0.595616,-1.224577 -0.231447,1.224577 c -0.127295,0.673517 -0.395074,2.234851 -0.595064,3.469632 -0.45251,2.793899 -1.070504,5.295138 -1.386331,5.610964 -0.131884,0.131885 -0.239789,-0.962295 -0.239789,-2.43151 z m 1.218325,-2.465117 c 0.0034,-0.16838 -0.177435,-0.306144 -0.401941,-0.306144 -0.224506,0 -0.405379,0.413294 -0.401942,0.918432 0.0051,0.74268 0.08197,0.801264 0.401942,0.306144 0.21763,-0.336759 0.398504,-0.750053 0.401941,-0.918432 z"
           style="opacity:1;fill:#ffffff;fill-opacity:0.97647059;stroke:#ffffff;stroke-width:1.28213143;stroke-miterlimit:4;stroke-dasharray:none;stroke-opacity:1" />
        <path
           transform="translate(37.993938,131.14394)"
           inkscape:connector-curvature="0"
           id="path424"
           d="m 19.65694,28.964998 c -0.0196,-0.558579 0.207676,-0.918432 0.580062,-0.918432 0.336759,0 0.612288,0.28637 0.612288,0.636378 0,0.350008 -0.167997,0.53255 -0.373328,0.405649 -0.205331,-0.126901 -0.466359,2.3e-5 -0.580062,0.282054 -0.113704,0.282031 -0.221236,0.09949 -0.23896,-0.405649 z"
           style="opacity:1;fill:#ffffff;fill-opacity:0.97647059;stroke:#ffffff;stroke-width:1.28213143;stroke-miterlimit:4;stroke-dasharray:none;stroke-opacity:1" />
        <path
           transform="translate(37.993938,131.14394)"
           inkscape:connector-curvature="0"
           id="path426"
           d=""
           style="opacity:1;fill:#ffffff;fill-opacity:0.97647059;stroke:#ffffff;stroke-width:1.28213143;stroke-miterlimit:4;stroke-dasharray:none;stroke-opacity:1" />
        <path
           transform="translate(37.993938,131.14394)"
           inkscape:connector-curvature="0"
           id="path428"
           d="m 393.52848,49.782795 c -1.8e-4,-0.278186 15.20963,-0.273284 34.08424,0.01099 4.0411,0.06086 -1.97463,0.152172 -13.36829,0.202909 -11.39366,0.05074 -20.71584,-0.04552 -20.71595,-0.213896 z"
           style="opacity:1;fill:#ffffff;fill-opacity:0.97647059;stroke:#ffffff;stroke-width:1.28213143;stroke-miterlimit:4;stroke-dasharray:none;stroke-opacity:1" />
        <path
           transform="translate(37.993938,131.14394)"
           inkscape:connector-curvature="0"
           id="path430"
           d="m 430.36802,48.9752 c 0.84189,-0.08807 2.21954,-0.08807 3.06144,0 0.84189,0.08807 0.15307,0.160118 -1.53072,0.160118 -1.6838,0 -2.37262,-0.07205 -1.53072,-0.160118 z"
           style="opacity:1;fill:#ffffff;fill-opacity:0.97647059;stroke:#ffffff;stroke-width:1.28213143;stroke-miterlimit:4;stroke-dasharray:none;stroke-opacity:1" />
        <path
           transform="translate(37.993938,131.14394)"
           inkscape:connector-curvature="0"
           id="path432"
           d="m 476.39168,29.417192 c 0,-0.443519 -0.26969,-1.162958 -0.59931,-1.598753 -0.76743,-1.014629 -0.8148,-3.03741 -0.0711,-3.03741 0.37835,0 0.63757,0.798255 0.81715,2.516413 0.14466,1.384027 0.17083,2.608603 0.0582,2.721281 -0.11267,0.112677 -0.20486,-0.158012 -0.20486,-0.601531 z"
           style="opacity:1;fill:#ffffff;fill-opacity:0.97647059;stroke:#ffffff;stroke-width:1.28213143;stroke-miterlimit:4;stroke-dasharray:none;stroke-opacity:1" />
        <path
           transform="translate(37.993938,131.14394)"
           inkscape:connector-curvature="0"
           id="path434"
           d="m 474.36442,23.582056 c -0.30849,-0.576415 -0.25254,-0.819631 0.23125,-1.00528 0.87424,-0.335477 0.85869,-0.343247 1.091,0.545123 0.27664,1.057865 -0.80156,1.433087 -1.32225,0.460157 z"
           style="opacity:1;fill:#ffffff;fill-opacity:0.97647059;stroke:#ffffff;stroke-width:1.28213143;stroke-miterlimit:4;stroke-dasharray:none;stroke-opacity:1" />
        <path
           transform="translate(37.993938,131.14394)"
           inkscape:connector-curvature="0"
           id="path436"
           d="m 355.56681,67.845296 v -7.551554 h 5.91879 5.91878 v 7.551554 7.551554 h -5.91878 -5.91879 z m 9.96733,6.079209 c 0.54877,-0.210585 0.64567,-1.160087 0.64567,-6.326977 v -6.07921 h -4.44644 c -3.67802,0 -4.48926,0.111584 -4.69421,0.645673 -0.13627,0.355121 -0.24777,2.913611 -0.24777,5.685533 0,6.316958 0.004,6.322749 4.68998,6.322749 1.8739,0 3.69764,-0.111495 4.05277,-0.247768 z"
           style="opacity:1;fill:#ffffff;fill-opacity:0.97647059;stroke:#ffffff;stroke-width:1.28213143;stroke-miterlimit:4;stroke-dasharray:none;stroke-opacity:1" />
        <path
           transform="translate(37.993938,131.14394)"
           inkscape:connector-curvature="0"
           id="path438"
           d="m 414.34648,106.83247 c 0,-0.22186 -0.73867,-0.52149 -1.64148,-0.66586 -0.92771,-0.14834 -2.03705,-0.67986 -2.5512,-1.22234 -0.50035,-0.52793 -1.15374,-0.96304 -1.45198,-0.96692 -0.76517,-0.01 -3.45894,-2.8215 -4.27977,-4.466901 -0.37871,-0.759148 -0.68857,-1.788773 -0.68857,-2.288055 0,-0.499282 -0.27553,-1.136455 -0.61229,-1.415939 -0.8775,-0.72826 -0.8775,-6.750151 0,-7.086879 0.36589,-0.140406 0.61229,-0.755136 0.61229,-1.527584 0,-0.854476 0.34591,-1.613202 1.02048,-2.238377 0.56127,-0.520162 1.02048,-1.255722 1.02048,-1.634577 0,-0.798218 1.13177,-1.767478 2.08583,-1.786325 0.36144,-0.0071 1.00202,-0.472198 1.42351,-1.033462 0.604,-0.804295 1.12878,-1.02048 2.47717,-1.02048 0.97648,0 1.97365,-0.262817 2.32312,-0.612288 0.81265,-0.812654 4.20228,-0.812654 5.01493,0 0.33676,0.336758 1.13939,0.612288 1.78362,0.612288 0.64423,0 1.28485,0.183686 1.4236,0.408192 0.13875,0.224505 0.51285,0.408192 0.83134,0.408192 0.81882,0 4.79316,4.013122 5.62051,5.675355 0.38033,0.764136 0.69151,2.101628 0.69151,2.972204 0,1.030438 0.2137,1.664867 0.61229,1.817823 0.41247,0.15828 0.61229,0.805901 0.61229,1.984477 0,1.178576 -0.19982,1.826197 -0.61229,1.984477 -0.39859,0.152956 -0.61229,0.787385 -0.61229,1.817823 0,0.870576 -0.30985,2.203987 -0.68857,2.963135 -0.82083,1.645401 -3.5146,4.456951 -4.27977,4.466901 -0.29824,0.004 -0.95138,0.43874 -1.45143,0.96635 -0.61207,0.64581 -1.54143,1.03056 -2.84396,1.17738 -1.06413,0.11994 -2.00203,0.41983 -2.08423,0.66641 -0.18573,0.5572 -3.75514,0.59994 -3.75514,0.045 z m 6.86633,-3.06627 c 0.44149,-0.56126 1.0929,-1.02048 1.44756,-1.02048 0.90126,0 4.34006,-3.531605 4.34006,-4.457183 0,-0.419083 0.27553,-0.8677 0.61229,-0.996927 0.49078,-0.188331 0.61229,-1.090581 0.61229,-4.546596 0,-3.456015 -0.12151,-4.358265 -0.61229,-4.546596 -0.33676,-0.129227 -0.61229,-0.572708 -0.61229,-0.985515 0,-0.961518 -4.81303,-5.693172 -5.79109,-5.693172 -0.40699,0 -0.73998,-0.183686 -0.73998,-0.408192 0,-0.24647 -1.71524,-0.408192 -4.32932,-0.408192 -4.13176,0 -4.36595,0.04657 -5.13203,1.02048 -0.44149,0.561264 -1.08494,1.020481 -1.42988,1.020481 -0.77342,0 -2.56244,1.644948 -2.57206,2.364919 -0.004,0.290431 -0.46627,1.023299 -1.02753,1.628598 -0.56127,0.605298 -1.02632,1.561635 -1.03346,2.125193 -0.007,0.563558 -0.28267,1.38121 -0.61229,1.817005 -0.7714,1.019876 -0.76564,2.452633 0.013,3.231254 0.33676,0.336759 0.61229,1.182233 0.61229,1.878832 0,0.749264 0.25007,1.362505 0.61229,1.501501 0.33675,0.129227 0.61228,0.577844 0.61228,0.996927 0,0.947711 3.44224,4.450393 4.39881,4.476063 0.38698,0.0104 1.07097,0.46769 1.51998,1.01626 0.75737,0.92528 1.0872,0.99769 4.56253,1.0016 3.51215,0.004 3.7963,-0.0595 4.54886,-1.01626 z"
           style="opacity:1;fill:#ffffff;fill-opacity:0.97647059;stroke:#ffffff;stroke-width:1.28213143;stroke-miterlimit:4;stroke-dasharray:none;stroke-opacity:1" />
        <path
           transform="translate(37.993938,131.14394)"
           inkscape:connector-curvature="0"
           id="path440"
           d="m 458.65935,106.61056 c -0.43579,-0.32962 -1.45997,-0.5993 -2.27595,-0.5993 -1.05473,0 -1.76073,-0.295 -2.44229,-1.02048 -0.52728,-0.56127 -1.2022,-1.02048 -1.49983,-1.02048 -0.71535,0 -3.80667,-3.10851 -3.80667,-3.82785 0,-0.309266 -0.27553,-0.790974 -0.61229,-1.070458 -0.33675,-0.279485 -0.61228,-1.108913 -0.61228,-1.843174 0,-0.81013 -0.24074,-1.427397 -0.61229,-1.569976 -0.88783,-0.340692 -0.88783,-6.598574 0,-6.939266 0.33676,-0.129226 0.61229,-0.585603 0.61229,-1.014171 0,-0.428568 0.27553,-1.007884 0.61228,-1.287369 0.33676,-0.279484 0.61229,-0.75779 0.61229,-1.062902 0,-0.305111 1.19737,-1.752111 2.66081,-3.215555 2.36828,-2.368277 2.83628,-2.660808 4.25686,-2.660808 0.87783,0 1.87158,-0.27553 2.20834,-0.612288 0.82535,-0.825345 4.47574,-0.825345 5.16072,0 0.29359,0.353763 1.18397,0.612288 2.10875,0.612288 1.14171,0 1.91614,0.292575 2.70115,1.02048 0.6053,0.561264 1.33822,1.02048 1.62871,1.02048 0.81173,0 2.9498,2.377119 2.9498,3.279611 0,0.44127 0.18369,0.80231 0.4082,0.80231 0.2245,0 0.40819,0.537939 0.40819,1.19542 0,0.657481 0.27553,1.470949 0.61229,1.807708 0.45426,0.454261 0.61229,1.567976 0.61229,4.315173 0,2.036587 -0.14834,3.702886 -0.32964,3.702886 -0.34394,0 -1.71133,2.828841 -1.71133,3.540391 0,0.58039 -3.51771,3.80564 -4.15999,3.81412 -0.29382,0.004 -0.96679,0.46309 -1.49549,1.02048 -0.5287,0.55738 -1.3661,1.01343 -1.8609,1.01343 -0.49479,0 -1.25617,0.26968 -1.69197,0.5993 -0.43579,0.32962 -1.43525,0.59931 -2.22102,0.59931 -0.78577,0 -1.78524,-0.26969 -2.22103,-0.59931 z m 6.23002,-2.84436 c 0.44149,-0.56126 1.09067,-1.02048 1.44263,-1.02048 1.34733,0 5.56956,-5.093057 5.56956,-6.718268 0,-0.291075 0.27553,-0.757897 0.61229,-1.037381 0.36871,-0.306004 0.61229,-1.199118 0.61229,-2.245057 0,-1.045939 -0.24358,-1.939053 -0.61229,-2.245057 -0.33676,-0.279484 -0.61229,-1.128565 -0.61229,-1.886845 0,-0.75828 -0.18368,-1.378691 -0.40819,-1.378691 -0.22451,0 -0.40819,-0.277895 -0.40819,-0.617544 0,-0.793039 -2.88323,-3.871015 -3.62692,-3.871898 -0.31102,-3.69e-4 -0.99107,-0.459888 -1.51123,-1.021152 -0.90145,-0.972678 -1.16213,-1.02048 -5.565,-1.02048 h -4.61926 l -2.95179,3.019869 c -1.62348,1.660928 -2.95179,3.294453 -2.95179,3.630057 0,0.335603 -0.27553,0.715918 -0.61229,0.845145 -0.33676,0.129226 -0.61229,0.571358 -0.61229,0.982514 0,0.411156 -0.20205,0.949612 -0.44901,1.196568 -0.58339,0.583387 -0.58339,3.520086 0,3.714548 0.24696,0.08232 0.44901,0.783031 0.44901,1.557138 0,0.874528 0.23185,1.496434 0.61229,1.642424 0.33676,0.129227 0.61229,0.558508 0.61229,0.95396 0,0.899908 3.54875,4.49867 4.44177,4.50437 0.36335,0.002 1.028,0.45304 1.47701,1.00161 0.75543,0.92291 1.0961,0.99879 4.56254,1.01626 3.52058,0.0177 3.79448,-0.0426 4.54886,-1.00161 z"
           style="opacity:1;fill:#ffffff;fill-opacity:0.97647059;stroke:#ffffff;stroke-width:1.28213143;stroke-miterlimit:4;stroke-dasharray:none;stroke-opacity:1" />
        <path
           transform="translate(37.993938,131.14394)"
           inkscape:connector-curvature="0"
           id="path442"
           d="m 313.11484,67.845296 v -7.551554 h 9.59251 9.59251 v 7.551554 7.551554 h -9.59251 -9.59251 z m 17.04202,6.0697 c 0.90035,-0.241287 0.91843,-0.365863 0.91843,-6.329856 v -6.083725 l -8.26589,0.110499 -8.26589,0.1105 -0.11278,5.988837 c -0.10261,5.449206 -0.0474,6.005844 0.61229,6.177579 1.09675,0.285496 14.06239,0.307942 15.11384,0.02617 z"
           style="opacity:1;fill:#ffffff;fill-opacity:0.97647059;stroke:#ffffff;stroke-width:1.28213143;stroke-miterlimit:4;stroke-dasharray:none;stroke-opacity:1" />
        <path
           transform="translate(37.993938,131.14394)"
           inkscape:connector-curvature="0"
           id="path444"
           d="m 282.09224,67.233008 v -6.939266 h 9.59251 9.59251 v 6.939266 6.939265 h -9.59251 -9.59251 z m 17.86997,-0.110537 0.11363,-5.62113 -8.27747,0.110537 -8.27746,0.110536 -0.11525,5.07976 c -0.0634,2.793867 -0.0217,5.323453 0.0926,5.621302 0.16498,0.429934 1.87125,0.518726 8.27909,0.430834 l 8.07128,-0.110709 z"
           style="opacity:1;fill:#ffffff;fill-opacity:0.97647059;stroke:#ffffff;stroke-width:1.28213143;stroke-miterlimit:4;stroke-dasharray:none;stroke-opacity:1" />
        <path
           transform="translate(37.993938,131.14394)"
           inkscape:connector-curvature="0"
           id="path446"
           d="m 249.02868,67.845296 v -7.551554 h 10.2048 10.2048 v 7.551554 7.551554 h -10.2048 -10.2048 z m 18.27722,6.066921 c 0.91967,-0.246394 0.92791,-0.309218 0.81638,-6.219355 l -0.11267,-5.970448 h -8.77613 -8.77613 l -0.11421,5.711274 c -0.10026,5.013713 -0.0284,5.77401 0.58826,6.224929 0.73985,0.540996 14.506,0.7542 16.3745,0.2536 z"
           style="opacity:1;fill:#ffffff;fill-opacity:0.97647059;stroke:#ffffff;stroke-width:1.28213143;stroke-miterlimit:4;stroke-dasharray:none;stroke-opacity:1" />
        <path
           transform="translate(37.993938,131.14394)"
           inkscape:connector-curvature="0"
           id="path452"
           d="m 213.92415,67.845296 v -7.551554 h 11.22529 11.22528 v 7.551554 7.551554 h -11.22528 -11.22529 z m 20.31819,6.066921 c 0.91967,-0.246394 0.92791,-0.309218 0.81638,-6.219355 l -0.11267,-5.970448 h -9.79661 -9.79661 l -0.11278,5.988837 c -0.10262,5.449206 -0.0474,6.005844 0.61229,6.177579 1.10233,0.286949 17.32922,0.307586 18.39,0.02339 z"
           style="opacity:1;fill:#ffffff;fill-opacity:0.97647059;stroke:#ffffff;stroke-width:1.28213143;stroke-miterlimit:4;stroke-dasharray:none;stroke-opacity:1" />
        <path
           transform="translate(37.993938,131.14394)"
           inkscape:connector-curvature="0"
           id="path454"
           d="m 182.90155,67.845296 v -7.551554 h 10.8171 10.81709 v 7.551554 7.551554 h -10.81709 -10.8171 z m 19.76816,5.685533 c 0.51642,-0.516413 0.64023,-1.650229 0.6352,-5.816738 -0.003,-2.846411 -0.15427,-5.408502 -0.33518,-5.693537 -0.25336,-0.399181 -2.4323,-0.49296 -9.48422,-0.408192 l -9.15528,0.110052 -0.11421,5.711274 c -0.10026,5.013713 -0.0284,5.77401 0.58826,6.224929 0.50967,0.372685 2.9696,0.513656 8.96323,0.513656 6.96553,0 8.36133,-0.100574 8.9022,-0.641444 z"
           style="opacity:1;fill:#ffffff;fill-opacity:0.97647059;stroke:#ffffff;stroke-width:1.28213143;stroke-miterlimit:4;stroke-dasharray:none;stroke-opacity:1" />
        <path
           transform="translate(37.993938,131.14394)"
           inkscape:connector-curvature="0"
           id="path456"
           d="m 151.06257,67.845296 v -7.551554 h 10.613 10.61299 v 7.551554 7.551554 h -10.61299 -10.613 z m 19.08298,6.0697 c 0.90029,-0.241267 0.91843,-0.366176 0.91843,-6.321404 v -6.075274 h -9.38841 -9.38842 v 6.088866 c 0,4.489158 0.13405,6.142957 0.51024,6.294752 0.73227,0.295477 16.25073,0.307159 17.34816,0.01306 z"
           style="opacity:1;fill:#ffffff;fill-opacity:0.97647059;stroke:#ffffff;stroke-width:1.28213143;stroke-miterlimit:4;stroke-dasharray:none;stroke-opacity:1" />
        <path
           transform="translate(37.993938,131.14394)"
           inkscape:connector-curvature="0"
           id="path462"
           d="m 120.03997,67.845296 v -7.551554 h 10.2048 10.20481 v 7.551554 7.551554 h -10.20481 -10.2048 z m 18.50689,5.813321 c 0.61666,-0.450919 0.68851,-1.211216 0.58825,-6.224929 l -0.11421,-5.711274 h -8.77613 -8.77613 l -0.11277,5.988837 c -0.10262,5.449206 -0.0474,6.005844 0.61228,6.177579 0.39879,0.103808 4.13408,0.21005 8.30065,0.236093 5.50741,0.03442 7.76737,-0.09288 8.27806,-0.466306 z"
           style="opacity:1;fill:#ffffff;fill-opacity:0.97647059;stroke:#ffffff;stroke-width:1.28213143;stroke-miterlimit:4;stroke-dasharray:none;stroke-opacity:1" />
        <path
           transform="translate(37.993938,131.14394)"
           inkscape:connector-curvature="0"
           id="path464"
           d="m 120.03997,94.377782 v -7.551553 h 10.2048 10.20481 v 7.551553 7.551558 h -10.20481 -10.2048 z m 18.98887,5.408546 c 0.12517,-0.505138 0.17459,-3.306356 0.10982,-6.22493 l -0.11776,-5.306497 h -8.77613 -8.77613 l -0.1141,5.695033 c -0.0628,3.132268 -0.0226,5.933486 0.0892,6.224926 0.15777,0.41114 2.12562,0.5299 8.78041,0.5299 8.55517,0 8.57764,-0.002 8.80465,-0.918432 z"
           style="opacity:1;fill:#ffffff;fill-opacity:0.97647059;stroke:#ffffff;stroke-width:1.28213143;stroke-miterlimit:4;stroke-dasharray:none;stroke-opacity:1" />
        <path
           transform="translate(37.993938,131.14394)"
           inkscape:connector-curvature="0"
           id="path466"
           d="m 151.06257,94.377782 v -7.551553 h 10.613 10.61299 v 7.551553 7.551558 h -10.61299 -10.613 z m 19.79732,0 v -6.122881 h -9.18432 -9.18433 l -0.1141,5.695033 c -0.0628,3.132268 -0.0213,5.937012 0.0922,6.232766 0.16394,0.42721 2.07507,0.51515 9.29843,0.42785 l 9.09208,-0.10989 z"
           style="opacity:1;fill:#ffffff;fill-opacity:0.97647059;stroke:#ffffff;stroke-width:1.28213143;stroke-miterlimit:4;stroke-dasharray:none;stroke-opacity:1" />
        <path
           transform="translate(37.993938,131.14394)"
           inkscape:connector-curvature="0"
           id="path468"
           d="m 182.90155,94.377782 v -7.551553 h 10.8171 10.81709 v 7.551553 7.551558 h -10.81709 -10.8171 z m 19.98706,5.537429 c 0.49481,-0.924566 0.5639,-10.601528 0.0811,-11.36217 -0.25336,-0.399181 -2.4323,-0.492961 -9.48422,-0.408192 l -9.15528,0.110052 -0.11411,5.695033 c -0.0627,3.132268 -0.0226,5.933486 0.0892,6.224926 0.15817,0.41218 2.198,0.5299 9.18202,0.5299 8.45918,0 9.00312,-0.0457 9.40123,-0.789549 z"
           style="opacity:1;fill:#ffffff;fill-opacity:0.97647059;stroke:#ffffff;stroke-width:1.28213143;stroke-miterlimit:4;stroke-dasharray:none;stroke-opacity:1" />
        <path
           transform="translate(37.993938,131.14394)"
           inkscape:connector-curvature="0"
           id="path470"
           d="m 213.92415,94.377782 v -7.551553 h 11.22529 11.22528 v 7.551553 7.551558 h -11.22528 -11.22529 z m 20.73616,5.837148 c 0.68008,-0.680075 0.68008,-10.994221 0,-11.674295 -0.69441,-0.694408 -18.32734,-0.694408 -19.02175,0 -0.68007,0.680074 -0.68007,10.99422 0,11.674295 0.69441,0.69441 18.32734,0.69441 19.02175,0 z"
           style="opacity:1;fill:#ffffff;fill-opacity:0.97647059;stroke:#ffffff;stroke-width:1.28213143;stroke-miterlimit:4;stroke-dasharray:none;stroke-opacity:1" />
        <path
           transform="translate(37.993938,131.14394)"
           inkscape:connector-curvature="0"
           id="path474"
           d="m 249.02868,94.377782 v -7.551553 h 10.2048 10.2048 v 7.551553 7.551558 h -10.2048 -10.2048 z m 18.98093,0 v -6.122881 h -8.77613 -8.77613 l -0.11411,5.695033 c -0.0628,3.132268 -0.0212,5.937152 0.0924,6.233076 0.16378,0.4268 2.00188,0.51526 8.89023,0.42785 l 8.68377,-0.1102 z"
           style="opacity:1;fill:#ffffff;fill-opacity:0.97647059;stroke:#ffffff;stroke-width:1.28213143;stroke-miterlimit:4;stroke-dasharray:none;stroke-opacity:1" />
        <path
           transform="translate(37.993938,131.14394)"
           inkscape:connector-curvature="0"
           id="path476"
           d="M 282.09224,97.439223 V 90.90815 h 13.47033 13.47034 v 6.531073 6.531077 h -13.47034 -13.47033 z m 25.46833,4.660827 c 0.13627,-0.35512 0.24777,-2.563906 0.24777,-4.908411 0,-4.200176 -0.0154,-4.268577 -1.04706,-4.660824 -1.36613,-0.519405 -21.03128,-0.519405 -22.39741,0 -1.03912,0.395073 -1.04706,0.433217 -1.04706,5.034369 0,2.549956 0.12246,4.758736 0.27213,4.908406 0.14967,0.14967 5.54877,0.27213 11.99799,0.27213 10.31591,0 11.75566,-0.0776 11.97364,-0.64567 z"
           style="opacity:1;fill:#ffffff;fill-opacity:0.97647059;stroke:#ffffff;stroke-width:1.28213143;stroke-miterlimit:4;stroke-dasharray:none;stroke-opacity:1" />
        <path
           transform="translate(37.993938,131.14394)"
           inkscape:connector-curvature="0"
           id="path478"
           d="M 323.72783,97.439223 V 90.90815 h 9.59251 9.59252 v 6.531073 6.531077 h -9.59252 -9.59251 z m 17.87056,0.152835 c 0.11193,-4.851211 0.0957,-4.95452 -0.81638,-5.198875 -1.58893,-0.425682 -14.19566,-0.28981 -15.04005,0.162097 -0.70909,0.379489 -0.78955,0.892569 -0.78955,5.034369 0,2.536501 0.12622,4.738041 0.2805,4.892321 0.15427,0.15427 3.87393,0.23081 8.26589,0.17008 l 7.98539,-0.11043 z"
           style="opacity:1;fill:#ffffff;fill-opacity:0.97647059;stroke:#ffffff;stroke-width:1.28213143;stroke-miterlimit:4;stroke-dasharray:none;stroke-opacity:1" />
        <path
           transform="translate(37.993938,131.14394)"
           inkscape:connector-curvature="0"
           id="path480"
           d="M 355.56681,97.031031 V 90.90815 h 9.18433 9.18432 v 6.122881 6.122879 h -9.18432 -9.18433 z m 16.22564,4.641029 c 0.88081,-0.23605 0.91843,-0.42734 0.91843,-4.67014 v -4.424009 l -1.34977,-0.253219 c -0.74238,-0.13927 -4.14763,-0.193515 -7.56723,-0.120544 -4.97928,0.106253 -6.29437,0.254607 -6.60372,0.744962 -0.45322,0.718412 -0.52475,7.3442 -0.0864,8.00059 0.16495,0.24697 0.57543,0.55392 0.91219,0.68211 0.82753,0.31501 12.62261,0.34947 13.77648,0.0403 z"
           style="opacity:1;fill:#ffffff;fill-opacity:0.97647059;stroke:#ffffff;stroke-width:1.28213143;stroke-miterlimit:4;stroke-dasharray:none;stroke-opacity:1" />
        <path
           transform="translate(37.993938,131.14394)"
           inkscape:connector-curvature="0"
           id="path482"
           d="m 356.79139,122.74713 v -6.93926 h 10.2048 10.20481 v 6.93926 6.93927 h -10.20481 -10.2048 z m 18.98093,0 v -5.51059 h -8.77613 -8.77613 l -0.11525,5.07976 c -0.0634,2.79387 -0.0218,5.32322 0.0924,5.62079 0.16525,0.43065 1.97921,0.51854 8.89138,0.43083 l 8.68376,-0.11019 z"
           style="opacity:1;fill:#ffffff;fill-opacity:0.97647059;stroke:#ffffff;stroke-width:1.28213143;stroke-miterlimit:4;stroke-dasharray:none;stroke-opacity:1" />
        <path
           transform="translate(37.993938,131.14394)"
           inkscape:connector-curvature="0"
           id="path486"
           d="m 283.31681,123.76761 v -5.91878 h 12.85805 12.85805 v 5.91878 5.91879 h -12.85805 -12.85805 z m 24.0017,4.20438 c 0.55693,-0.55693 0.68134,-7.5567 0.14921,-8.39504 -0.25454,-0.401 -2.83932,-0.49255 -11.52518,-0.40819 l -11.19706,0.10874 -0.11771,4.05287 c -0.0647,2.22907 -0.0246,4.29555 0.0892,4.59216 0.28623,0.74591 21.85784,0.79312 22.6015,0.0495 z"
           style="opacity:1;fill:#ffffff;fill-opacity:0.97647059;stroke:#ffffff;stroke-width:1.28213143;stroke-miterlimit:4;stroke-dasharray:none;stroke-opacity:1" />
        <path
           transform="translate(37.993938,131.14394)"
           inkscape:connector-curvature="0"
           id="path488"
           d="m 213.92415,123.76761 v -7.14336 h 11.22529 11.22528 v 7.14336 7.14337 h -11.22528 -11.22529 z m 20.17894,5.5207 1.04705,-0.39809 v -5.30882 c 0,-5.16661 -0.0246,-5.31486 -0.91843,-5.53398 -0.50514,-0.12384 -4.95953,-0.17326 -9.89866,-0.10983 l -8.98022,0.11533 -0.11338,5.58277 c -0.11222,5.526 -0.10391,5.58458 0.81639,5.76115 1.90549,0.36559 17.03961,0.27457 18.04725,-0.10853 z"
           style="opacity:1;fill:#ffffff;fill-opacity:0.97647059;stroke:#ffffff;stroke-width:1.28213143;stroke-miterlimit:4;stroke-dasharray:none;stroke-opacity:1" />
        <path
           transform="translate(37.993938,131.14394)"
           inkscape:connector-curvature="0"
           id="path490"
           d="m 182.90155,123.76761 v -7.14336 h 10.8171 10.81709 v 7.14336 7.14337 h -10.81709 -10.8171 z m 20.16184,4.86492 c 0.41641,-1.08515 0.27531,-9.15314 -0.17478,-9.99415 -0.39743,-0.74261 -0.93866,-0.78955 -9.10269,-0.78955 -6.20695,0 -8.81969,0.13956 -9.16996,0.48983 -0.52523,0.52523 -0.72192,10.1632 -0.2177,10.66742 0.14967,0.14967 4.35481,0.27213 9.34475,0.27213 7.89648,0 9.10473,-0.0837 9.32038,-0.64568 z"
           style="opacity:1;fill:#ffffff;fill-opacity:0.97647059;stroke:#ffffff;stroke-width:1.28213143;stroke-miterlimit:4;stroke-dasharray:none;stroke-opacity:1" />
        <path
           transform="translate(37.993938,131.14394)"
           inkscape:connector-curvature="0"
           id="path492"
           d="m 151.06257,123.76761 v -7.14336 h 10.613 10.61299 v 7.14336 7.14337 h -10.61299 -10.613 z m 18.73699,5.66143 1.28677,-0.25735 -0.11322,-5.55938 -0.11322,-5.55939 h -9.18432 -9.18433 l -0.11337,5.58277 c -0.11222,5.526 -0.10392,5.58458 0.81638,5.76115 1.49754,0.28732 15.19691,0.31388 16.60531,0.0322 z"
           style="opacity:1;fill:#ffffff;fill-opacity:0.97647059;stroke:#ffffff;stroke-width:1.28213143;stroke-miterlimit:4;stroke-dasharray:none;stroke-opacity:1" />
        <path
           transform="translate(37.993938,131.14394)"
           inkscape:connector-curvature="0"
           id="path494"
           d="m 120.03997,123.76761 v -7.14336 h 10.2048 10.20481 v 7.14336 7.14337 h -10.20481 -10.2048 z m 17.96045,5.55419 c 1.00949,-0.28018 1.02172,-0.33738 1.13545,-5.31047 0.0768,-3.35757 -0.0415,-5.21576 -0.35612,-5.59487 -0.3725,-0.44883 -2.1196,-0.56763 -8.34748,-0.56763 -4.33201,0 -8.16693,0.11149 -8.52205,0.24777 -0.54406,0.20877 -0.64567,1.10362 -0.64567,5.6863 0,5.31541 0.0208,5.44253 0.91843,5.61542 1.51794,0.29237 14.7184,0.22851 15.81744,-0.0765 z"
           style="opacity:1;fill:#ffffff;fill-opacity:0.97647059;stroke:#ffffff;stroke-width:1.28213143;stroke-miterlimit:4;stroke-dasharray:none;stroke-opacity:1" />
        <path
           transform="translate(37.993938,131.14394)"
           inkscape:connector-curvature="0"
           id="path496"
           d="m 68.607766,98.255607 c 0,-0.224505 -0.368281,-0.408192 -0.818401,-0.408192 -1.005293,0 -4.86107,-3.85907 -5.399768,-5.404379 -0.216022,-0.619682 -0.558485,-1.126694 -0.761028,-1.126694 -0.789902,0 -0.329224,-2.18762 0.65222,-3.097191 0.561264,-0.520162 1.02048,-1.308603 1.02048,-1.752092 0,-0.548543 0.522021,-1.036658 1.632768,-1.526719 0.898023,-0.396206 1.632769,-0.868712 1.632769,-1.050012 0,-0.1813 0.356532,-0.329636 0.792294,-0.329636 0.435761,0 0.905818,-0.183687 1.04457,-0.408192 0.380606,-0.615834 14.19602,-0.539716 14.817373,0.08164 0.343228,0.343227 0.489831,2.603359 0.489831,7.551554 0,6.718023 -0.03856,7.061723 -0.792294,7.061723 -0.435762,0 -0.905818,0.183687 -1.04457,0.408192 -0.340679,0.55123 -13.266244,0.55123 -13.266244,0 z m 11.837571,-1.428672 c 0.279485,-0.336758 0.853036,-0.612288 1.274558,-0.612288 0.710951,0 0.766403,-0.389002 0.766403,-5.376404 0,-7.154227 0.281927,-6.869359 -6.798435,-6.869359 -3.359424,0 -5.447328,0.156456 -5.447328,0.408192 0,0.224506 -0.344882,0.408192 -0.766404,0.408192 -0.421522,0 -0.995072,0.27553 -1.274557,0.612288 -0.279485,0.336759 -0.801266,0.612288 -1.159514,0.612288 -0.751754,0 -2.514215,1.904429 -2.514215,2.716739 0,0.301839 -0.183686,0.548798 -0.408192,0.548798 -0.224506,0 -0.408192,0.469404 -0.408192,1.043121 0,1.221191 4.320138,5.896145 5.448644,5.896145 0.384923,0 0.80559,0.27553 0.934817,0.612288 0.190436,0.496269 1.14536,0.612288 5.039609,0.612288 3.772828,0 4.913781,-0.131492 5.312806,-0.612288 z"
           style="opacity:1;fill:#ffffff;fill-opacity:0.97647059;stroke:#ffffff;stroke-width:1.28213143;stroke-miterlimit:4;stroke-dasharray:none;stroke-opacity:1" />
        <path
           transform="translate(37.993938,131.14394)"
           inkscape:connector-curvature="0"
           id="path500"
           d="m 50.545266,81.475191 c -0.617391,-0.667309 -1.122529,-1.490108 -1.122529,-1.828441 0,-0.338334 -0.459216,-1.04074 -1.02048,-1.560902 -1.016232,-0.941812 -1.02048,-0.976564 -1.02048,-8.348447 v -7.402699 l 7.449506,0.01298 c 7.925303,0.01381 8.878178,0.225347 8.878178,1.970931 0,0.480388 0.183686,0.873432 0.408192,0.873432 0.543905,0 0.543905,8.848171 0,9.184322 -0.224506,0.138753 -0.408192,0.586318 -0.408192,0.99459 0,0.408272 -0.27553,0.970982 -0.612288,1.250467 -0.336759,0.279485 -0.612288,0.998927 -0.612288,1.59876 0,0.704791 -0.566321,1.69793 -1.600851,2.807364 l -1.600852,1.716758 -3.807694,-0.02792 c -3.683286,-0.027 -3.84437,-0.06756 -4.930222,-1.241202 z m 8.718207,-1.962822 c 1.524259,-1.532295 1.996835,-2.305125 1.996835,-3.265537 0,-0.691996 0.148337,-1.258174 0.329637,-1.258174 0.1813,0 0.640516,-0.704625 1.02048,-1.565833 0.753826,-1.708586 0.963284,-6.598009 0.282652,-6.598009 -0.224506,0 -0.408192,-0.246959 -0.408192,-0.548799 0,-0.301839 -0.419143,-1.036585 -0.931428,-1.632768 -0.926255,-1.07795 -0.963417,-1.08397 -6.691498,-1.08397 -4.875877,0 -5.798103,0.09911 -6.007838,0.645673 -0.136272,0.35512 -0.247768,2.974529 -0.247768,5.820908 0,4.954646 0.0435,5.222145 1.02048,6.275778 0.561265,0.605298 1.020481,1.271768 1.020481,1.481044 0,0.209276 0.688824,1.135287 1.53072,2.057803 1.344279,1.473005 1.747395,1.677418 3.309662,1.678273 1.588489,8.57e-4 1.992722,-0.213934 3.775777,-2.006389 z"
           style="opacity:1;fill:#ffffff;fill-opacity:0.97647059;stroke:#ffffff;stroke-width:1.28213143;stroke-miterlimit:4;stroke-dasharray:none;stroke-opacity:1" />
        <path
           transform="translate(37.993938,131.14394)"
           inkscape:connector-curvature="0"
           id="path502"
           d="m 28.196748,90.704054 v -7.959746 h 7.515338 7.515337 l 2.281273,2.227235 c 1.298839,1.268072 2.281273,2.586487 2.281273,3.061441 0,0.458812 0.183686,0.834205 0.408192,0.834205 0.224506,0 0.408192,0.740937 0.408192,1.646526 0,1.295489 -0.264078,1.904671 -1.23865,2.857345 -0.681257,0.66595 -1.524325,1.210818 -1.873482,1.210818 -0.795301,0 -2.162695,1.599652 -2.180785,2.551201 -0.0092,0.486209 -0.339476,0.714336 -1.03406,0.714336 -0.561264,0 -1.020481,0.183687 -1.020481,0.408192 0,0.25512 -2.449152,0.408193 -6.531073,0.408193 h -6.531074 z m 11.649036,6.301799 c 0.147311,-0.238354 0.709211,-0.601181 1.248667,-0.806281 0.539456,-0.205101 0.980829,-0.666108 0.980829,-1.024459 0,-0.80592 0.787362,-1.62403 1.904116,-1.978474 1.306469,-0.414657 2.313869,-1.765986 2.313869,-3.103831 0,-0.930828 -0.561814,-1.786313 -2.415137,-3.677576 l -2.415137,-2.464578 -5.918785,0.111163 -5.918785,0.111163 -0.113443,6.104949 c -0.06239,3.357721 -0.02224,6.342626 0.08924,6.633121 0.258659,0.674052 9.831822,0.762642 10.244569,0.0948 z"
           style="opacity:1;fill:#ffffff;fill-opacity:0.97647059;stroke:#ffffff;stroke-width:1.28213143;stroke-miterlimit:4;stroke-dasharray:none;stroke-opacity:1" />
        <path
           transform="translate(37.993938,131.14394)"
           inkscape:connector-curvature="0"
           id="path504"
           d="m 47.892017,118.46282 c -0.361202,-0.41026 -0.51024,-2.42297 -0.51024,-6.89066 0,-5.22049 0.123446,-6.5461 0.714336,-7.67083 0.392885,-0.74784 0.852101,-1.42093 1.02048,-1.49577 0.16838,-0.0748 0.306144,-0.39185 0.306144,-0.70447 0,-0.99783 1.507506,-3.089603 2.656068,-3.685484 0.611039,-0.31701 2.244298,-0.576383 3.629465,-0.576383 2.501148,0 2.532846,0.01475 4.604551,2.143009 1.147337,1.178658 2.209637,2.556298 2.360668,3.061438 0.151031,0.50514 0.44591,0.91843 0.655287,0.91843 0.209377,0 0.380685,0.62042 0.380685,1.3787 0,0.75828 0.27553,1.60736 0.612288,1.88684 0.884271,0.73388 0.884271,8.65454 0,9.38842 -0.336758,0.27948 -0.612288,0.76119 -0.612288,1.07046 0,0.31525 -0.414078,0.56231 -0.942463,0.56231 -0.518354,0 -1.299021,0.26969 -1.734816,0.5993 -1.129937,0.85465 -12.389561,0.86723 -13.140165,0.0147 z m 10.817215,-1.32833 c 0.09347,-0.28063 0.781165,-0.51024 1.528199,-0.51024 1.197315,0 1.459285,-0.20872 2.211041,-1.76164 0.900636,-1.86047 1.179217,-5.74409 0.444605,-6.1981 -0.224506,-0.13876 -0.408192,-0.52705 -0.408192,-0.86287 0,-2.46821 -5.104581,-8.729648 -7.11676,-8.729648 -0.575896,0 -1.047082,0.183686 -1.047082,0.408192 0,0.224505 -0.330636,0.408192 -0.734746,0.408192 -0.940422,0 -1.714407,0.773984 -1.714407,1.714404 0,0.40411 -0.183686,0.73475 -0.408192,0.73475 -0.224506,0 -0.408192,0.34488 -0.408192,0.7664 0,0.42152 -0.27553,0.99507 -0.612288,1.27456 -0.336759,0.27948 -0.612288,0.83773 -0.612288,1.24054 0,0.40281 -0.229609,0.80872 -0.510241,0.90202 -0.353475,0.11752 -0.552959,1.50578 -0.649283,4.51853 l -0.139042,4.3489 1.270454,1.27046 c 1.263376,1.26338 1.291253,1.26966 5.003456,1.12812 2.516467,-0.0959 3.788388,-0.30861 3.902958,-0.65257 z"
           style="opacity:1;fill:#ffffff;fill-opacity:0.97647059;stroke:#ffffff;stroke-width:1.28213143;stroke-miterlimit:4;stroke-dasharray:none;stroke-opacity:1" />
        <path
           transform="translate(37.993938,131.14394)"
           inkscape:connector-curvature="0"
           id="path506"
           d="m 21.518061,26.617894 c 0.129227,-0.336759 0.307148,-0.612289 0.395382,-0.612289 0.08823,0 0.160424,0.27553 0.160424,0.612289 0,0.336758 -0.177922,0.612288 -0.395381,0.612288 -0.21746,0 -0.289651,-0.27553 -0.160425,-0.612288 z"
           style="opacity:1;fill:#ffffff;fill-opacity:0.97647059;stroke:#ffffff;stroke-width:1.28213143;stroke-miterlimit:4;stroke-dasharray:none;stroke-opacity:1" />
        <path
           transform="translate(37.993938,131.14394)"
           inkscape:connector-curvature="0"
           id="path508"
           d="m 245.15085,160.49347 c -1.19353,-0.39335 -4.89243,-0.54655 -13.74991,-0.56949 -7.30839,-0.0189 -12.55957,-0.19958 -13.23197,-0.45522 -0.61316,-0.23313 -6.73269,-0.61719 -13.59896,-0.8535 -17.43877,-0.60014 -22.59422,-0.90456 -23.30122,-1.37589 -0.33676,-0.22451 -3.09206,-0.54406 -6.12289,-0.71012 -3.03082,-0.16606 -7.99036,-0.44159 -11.02118,-0.61229 -3.07481,-0.17318 -5.9047,-0.5359 -6.40219,-0.8206 -0.57288,-0.32785 -2.58882,-0.51024 -5.63948,-0.51024 -2.61133,0 -5.08821,-0.18214 -5.50417,-0.40476 -0.778,-0.41637 -8.96363,-1.13927 -17.96687,-1.58672 -2.80633,-0.13947 -5.37794,-0.43556 -5.71469,-0.65798 -0.33676,-0.22242 -3.27575,-0.55101 -6.53108,-0.73019 -3.25533,-0.17919 -8.30671,-0.45642 -11.22528,-0.61608 -2.94822,-0.16128 -5.702738,-0.51705 -6.198096,-0.80053 -0.564827,-0.32324 -2.537318,-0.51024 -5.381972,-0.51024 -2.523958,0 -4.993585,-0.2106 -5.639476,-0.48092 -1.065344,-0.44587 -3.77096,-0.66741 -17.884977,-1.46447 -2.928518,-0.16538 -5.706044,-0.52832 -6.198095,-0.80991 -0.572878,-0.32784 -2.58882,-0.51024 -5.639476,-0.51024 -2.611336,0 -5.104749,-0.19099 -5.540922,-0.42442 -0.776814,-0.41574 -7.768643,-1.02153 -17.930124,-1.55351 -2.828166,-0.14806 -5.499803,-0.49455 -5.993999,-0.77736 -0.490378,-0.28064 -1.724674,-0.51024 -2.74288,-0.51024 -1.986388,0 -4.182657,-0.99849 -6.034052,-2.74325 -0.603073,-0.56833 -1.438574,-1.23981 -1.856668,-1.49215 -0.418095,-0.25235 -1.381222,-0.82619 -2.140281,-1.2752 -0.75906,-0.44901 -2.148339,-1.50521 -3.087286,-2.3471 -0.938947,-0.8419 -1.88568,-1.53072 -2.10385,-1.53072 -0.21817,0 -1.148209,-0.69382 -2.0667539,-1.54181 -1.7786171,-1.64201 -2.5210477,-3.46816 -1.8480914,-4.54574 0.2259521,-0.36181 0.4482624,-3.67228 0.4940229,-7.35662 0.060707,-4.88771 0.241678,-7.00526 0.6693723,-7.83233 0.4014333,-0.77628 0.5861714,-2.49916 0.5861714,-5.46665 0,-2.58018 0.1966297,-4.69381 0.4860516,-5.22472 0.4519367,-0.82902 0.6909857,-2.632184 1.4710691,-11.096399 0.165528,-1.796045 0.527637,-3.666757 0.804688,-4.157134 0.27705,-0.490378 0.503728,-2.269364 0.503728,-3.9533 0,-1.683935 0.202933,-3.5788 0.450962,-4.210803 0.457099,-1.16474 0.968196,-5.090997 1.531123,-11.762097 0.1705,-2.02055 0.529026,-4.190822 0.796726,-4.82283 0.267699,-0.632004 0.486726,-2.412109 0.486726,-3.955782 0,-1.543676 0.183686,-2.920206 0.408192,-3.058959 0.224506,-0.138752 0.408192,-1.321121 0.408192,-2.627487 0,-1.30637 0.27553,-3.034649 0.612288,-3.840625 0.336759,-0.805977 0.612288,-2.282878 0.612288,-3.282002 0,-2.24706 0.310565,-3.107937 1.1212,-3.107937 0.859534,0 1.70752,1.215298 1.723163,2.469562 0.01683,1.349691 0.717887,2.020551 2.111491,2.020551 0.615366,0 1.215771,0.156827 1.334234,0.348503 0.118463,0.191677 9.910607,0.37904 21.76032,0.416362 11.849713,0.03732 23.289954,0.257022 25.422758,0.488222 4.415993,0.478702 34.834663,0.331053 36.170753,-0.175569 0.64641,-0.245105 0.94503,-0.139929 1.19337,0.420316 0.18218,0.410972 0.47739,21.551244 0.65604,46.978379 0.22509,32.037579 0.4616,46.486749 0.77036,47.063679 0.24506,0.45789 0.87868,0.9972 1.40806,1.19846 0.52938,0.20128 1.2091,0.88131 1.5105,1.51119 l 0.548,1.14524 8.56743,0.31147 c 4.71209,0.17131 66.15314,0.26315 136.53566,0.2041 141.04013,-0.11835 130.21328,0.1019 130.21328,-2.64889 0,-0.76449 0.22961,-1.79121 0.51024,-2.28158 0.39639,-0.69265 0.55578,-11.06562 0.71434,-46.486913 0.14173,-31.662318 0.33793,-45.729069 0.64206,-46.033028 0.31169,-0.311507 0.86697,-0.25847 1.92581,0.18394 1.25506,0.524396 4.26411,0.621656 19.2332,0.621656 16.07662,0 19.59144,0.195769 17.55375,0.97771 -1.16555,0.44726 -34.66768,0.280616 -35.123,-0.174706 -0.23187,-0.231865 -0.69805,-0.31548 -1.03597,-0.185809 -0.52757,0.202443 -0.65258,2.665396 -0.88464,17.42848 -0.14864,9.455999 -0.28366,29.515514 -0.30005,44.5767 -0.0164,15.06119 -0.19438,28.30242 -0.39554,29.42494 -0.20115,1.12253 -0.50919,2.85464 -0.68454,3.84914 -0.26787,1.51934 -0.5144,1.87505 -1.54337,2.22682 -0.82098,0.28066 -44.47635,0.49795 -132.45834,0.65928 -72.17857,0.13235 -131.27968,0.27832 -131.33581,0.32438 -0.0561,0.0461 -0.10204,0.44762 -0.10204,0.89235 0,1.03195 0.57766,1.14839 7.14336,1.43992 11.57273,0.51385 15.54921,0.83462 16.4029,1.32316 0.57287,0.32784 2.58882,0.51024 5.63947,0.51024 2.61134,0 5.08821,0.18214 5.50417,0.40475 0.77633,0.41548 8.771,1.10907 18.17097,1.57646 2.91858,0.14511 5.58203,0.44753 5.91879,0.67204 0.79006,0.52671 8.30758,0.93606 22.85876,1.24472 8.39983,0.17819 12.11964,0.40824 13.38255,0.82765 1.34667,0.44723 4.44582,0.58312 13.47034,0.59061 7.04465,0.006 12.37271,0.18487 13.35403,0.44868 2.51366,0.67576 26.14872,0.93494 30.8185,0.33795 2.13281,-0.27266 7.36787,-0.6093 11.63348,-0.7481 4.2656,-0.1388 8.03118,-0.43605 8.36794,-0.66055 0.33675,-0.22451 4.37786,-0.53781 8.98022,-0.69622 18.95074,-0.65227 24.72651,-0.95944 25.30791,-1.34592 0.33676,-0.22386 3.91865,-0.5399 7.95975,-0.70231 16.45175,-0.66121 22.09835,-1.01991 23.19147,-1.47323 0.71126,-0.29496 3.61741,-0.47653 7.62703,-0.47653 4.14336,0 6.89205,-0.17718 7.62703,-0.49163 0.63201,-0.27039 3.53703,-0.63083 6.4556,-0.80097 9.31491,-0.54301 13.45398,-0.94167 14.08263,-1.35639 0.65543,-0.4324 3.25739,-0.75025 11.54372,-1.41013 2.86921,-0.22849 5.56651,-0.60262 5.99401,-0.83141 0.42749,-0.22878 2.17905,-0.41597 3.89235,-0.41597 1.73106,0 3.51123,-0.22529 4.00669,-0.50707 0.4904,-0.27889 2.54479,-0.63664 4.56535,-0.795 10.57919,-0.82916 12.31809,-1.02427 13.13737,-1.47402 0.49036,-0.26919 2.29339,-0.48945 4.00669,-0.48945 1.73107,0 3.51123,-0.22529 4.0067,-0.50707 0.4904,-0.27888 2.54479,-0.63663 4.56534,-0.795 2.02055,-0.15836 5.60243,-0.44106 7.95974,-0.62821 2.35731,-0.18716 4.56155,-0.51659 4.89831,-0.73207 0.33676,-0.21548 2.08178,-0.52291 3.87782,-0.68318 7.06859,-0.63076 9.30568,-1.59997 12.79605,-5.54388 3.0843,-3.48502 3.44616,-4.45877 3.14345,-8.45875 -0.13593,-1.79605 -0.3797,-5.65346 -0.54175,-8.57204 -0.16206,-2.91857 -0.47641,-5.58202 -0.69858,-5.91878 -0.41918,-0.6354 -0.67156,-2.70764 -1.40806,-11.56043 -0.23945,-2.878407 -0.61854,-5.575704 -0.84239,-5.994003 -0.22389,-0.418299 -0.40705,-2.43787 -0.40705,-4.487942 0,-2.234272 -0.20438,-4.084558 -0.51024,-4.618995 -0.28063,-0.490378 -0.63857,-2.820306 -0.7954,-5.177615 -0.73046,-10.97778 -1.00832,-13.737509 -1.46668,-14.566033 -0.2801,-0.506367 -0.49432,-2.446406 -0.49575,-4.490113 0,-2.393831 -0.20662,-3.989927 -0.61228,-4.767704 -0.33537,-0.643054 -0.61258,-2.020702 -0.61601,-3.061441 -0.011,-3.358168 1.75833,-3.092557 -22.12303,-3.320925 -13.82061,-0.13216 -21.34318,-0.347967 -21.34318,-0.612288 0,-0.252695 3.65422,-0.513656 9.59251,-0.685047 27.18401,-0.78457 33.05479,-1.006984 33.30974,-1.261929 0.37477,-0.37478 -0.54203,-1.431995 -1.50761,-1.738452 -0.87741,-0.278482 -1.02983,-1.411598 -0.28941,-2.151985 0.38133,-0.381335 0.37892,-0.797538 -0.011,-1.875465 -0.39476,-1.091615 -0.39529,-1.617288 -0.004,-2.47913 0.38721,-0.849899 0.38966,-1.267806 0.011,-1.874365 -0.28333,-0.453661 -0.49355,-2.364334 -0.50196,-4.561916 -0.008,-2.505947 -0.20977,-4.125505 -0.59636,-4.801796 -0.32084,-0.561264 -0.58988,-1.606621 -0.59784,-2.323014 -0.008,-0.716394 -0.17401,-1.401147 -0.36901,-1.521674 -0.19503,-0.120526 -0.47273,-0.957956 -0.61714,-1.860955 l -0.26251,-1.641815 h -42.36553 c -33.34838,0 -42.47403,0.1086 -42.87536,0.51024 -0.39639,0.396709 -8.13107,0.556593 -34.76178,0.71856 -26.47606,0.161027 -34.36682,0.323196 -34.75796,0.714336 -0.65436,0.654361 -223.831975,0.751724 -224.236105,0.09782 -0.286212,-0.463103 -66.131839,-0.531431 -69.183208,-0.07179 -1.399909,0.210874 -1.861779,0.468271 -1.959954,1.092272 -0.14397,0.915073 -0.650164,2.156222 -1.765061,4.327791 -0.415215,0.808745 -0.66314,1.562242 -0.550945,1.674437 0.27654,0.27654 -1.400927,8.869816 -1.921227,9.842005 -0.719969,1.345275 -1.245345,0.119237 -1.042465,-2.432738 0.104515,-1.31467 0.560287,-3.400584 1.012825,-4.635365 0.485177,-1.323834 0.674215,-2.404177 0.460695,-2.632839 -0.624666,-0.668966 -0.395752,-1.810542 0.454281,-2.265466 0.449011,-0.240304 0.816384,-0.705983 0.816384,-1.034842 0,-0.32886 0.169522,-0.597927 0.376715,-0.597927 0.216833,0 0.279665,-1.283211 0.148046,-3.023521 l -0.228668,-3.023521 2.811346,-3.098642 c 1.546241,-1.704253 3.454249,-3.827541 4.240019,-4.718419 L 29.625421,10.521723 98.40579,10.292362 C 300.65736,9.6179169 352.60474,9.3433694 354.75043,8.9375532 356.22898,8.6579129 375.51148,8.5027696 411.22812,8.4831443 l 54.23262,-0.029799 4.34296,4.1286117 c 2.38862,2.270736 4.50269,4.520895 4.69801,5.000353 0.19527,0.479458 0.54114,1.272645 0.76854,1.762637 0.22744,0.489992 0.30027,1.186078 0.16181,1.546857 -0.13846,0.360779 -0.0936,0.970152 0.0998,1.354162 0.75462,1.499083 1.3434,3.903068 1.47198,6.010117 0.074,1.212625 0.25679,2.402627 0.40627,2.644449 0.14944,0.241822 0.44155,1.673236 0.64907,3.18092 0.61955,4.501072 2.03312,12.042396 2.50316,13.354239 0.52363,1.46136 1.0633,5.764158 1.45912,11.633475 0.15895,2.357309 0.47273,4.561546 0.69723,4.898305 0.22451,0.336758 0.54147,2.632839 0.70434,5.102401 0.71613,10.858682 0.9857,13.524449 1.45222,14.361937 0.28876,0.518351 0.49669,2.451986 0.49669,4.618996 0,2.227476 0.20475,4.086182 0.50885,4.618996 0.27986,0.490377 0.64119,3.003991 0.80296,5.585806 0.51346,8.195103 0.80757,10.801743 1.28482,11.387863 0.43914,0.53923 0.64801,3.17826 1.30308,16.46435 0.32822,6.65723 -0.0335,7.98676 -3.01001,11.06396 -4.0247,4.16083 -5.63138,4.84595 -12.93565,5.51599 -1.79841,0.16497 -3.54344,0.47574 -3.87783,0.6906 -0.33439,0.21486 -2.26118,0.51549 -4.28173,0.66807 -7.55322,0.57037 -11.87161,1.07381 -12.98667,1.51401 -0.632,0.2495 -2.52687,0.45363 -4.21079,0.45363 -1.68852,0 -3.46159,0.22742 -3.9533,0.50707 -0.4904,0.27889 -2.54479,0.63558 -4.56534,0.79264 -8.42819,0.65515 -11.90125,1.05571 -12.98667,1.4978 -0.63201,0.25742 -2.52687,0.46803 -4.21079,0.46803 -1.69592,0 -3.45947,0.22699 -3.9533,0.50884 -0.4904,0.27986 -3.00401,0.64119 -5.58582,0.80295 -8.19507,0.51347 -10.80174,0.80757 -11.38796,1.28486 -0.31397,0.25564 -2.33453,0.58585 -4.49011,0.73382 -11.14658,0.76513 -15.681,1.19957 -16.37017,1.5684 -0.41948,0.2245 -3.81151,0.40763 -7.55049,0.40763 -4.68343,0 -7.06535,0.15824 -7.68044,0.51024 -0.86829,0.4969 -2.53978,0.60172 -22.52578,1.41263 -4.49011,0.18218 -8.43937,0.51289 -8.77613,0.7349 -0.33676,0.22202 -3.8268,0.53289 -7.75565,0.69084 -21.71782,0.87308 -25.63877,1.09212 -26.93798,1.50486 -0.80768,0.2566 -4.37014,0.45302 -8.21604,0.45302 -5.11219,0 -7.15218,0.15131 -8.25548,0.61229 -2.01611,0.84239 -35.05642,0.83235 -37.61663,-0.0114 z M 108.91674,148.20596 c 1.31082,-0.35129 1.14283,-1.14804 -0.6577,-3.11943 l -1.57612,-1.7257 -0.22595,-46.260986 C 106.3327,71.656296 106.12202,50.729834 105.98877,50.596596 105.85553,50.463354 86.320164,50.270034 62.57685,50.166998 13.20354,49.952734 18.439884,49.488926 17.878134,54.12618 c -0.179752,1.48386 -0.457288,4.167421 -0.616746,5.963466 -0.159458,1.796045 -0.473609,3.541066 -0.698115,3.877825 -0.45418,0.681268 -0.916543,5.664514 -1.267566,13.661553 -0.146437,3.336133 -0.445598,5.70597 -0.809021,6.408755 -0.317164,0.613324 -0.576661,1.595553 -0.576661,2.182725 0,0.587172 -0.217249,1.468806 -0.482775,1.959183 -0.507228,0.936756 -1.031339,5.345305 -1.489049,12.525073 -0.150278,2.35731 -0.456919,4.56155 -0.681425,4.89831 -0.410852,0.61627 -0.862719,6.82371 -1.2587351,17.29164 -0.2432416,6.42963 -0.3204273,6.22654 3.2996951,8.68206 1.122529,0.76141 2.775707,1.93808 3.673729,2.61481 0.898023,0.67674 2.576862,1.85338 3.730753,2.61477 1.153892,0.76139 2.222551,1.58589 2.3748,1.83224 0.545919,0.88331 3.485947,2.069 5.130304,2.069 0.921725,0 2.077083,0.2296 2.567462,0.51024 0.500344,0.28633 3.309773,0.64273 6.40219,0.81216 3.030827,0.16606 7.990361,0.44159 11.021187,0.61229 3.074809,0.17318 5.904695,0.5359 6.402191,0.8206 0.572877,0.32785 2.58882,0.51024 5.639476,0.51024 2.994812,0 5.077085,0.18497 5.639476,0.50094 0.82792,0.46516 3.032573,0.64389 17.83157,1.4456 3.099496,0.1679 5.900703,0.52177 6.402191,0.80876 0.548422,0.31385 2.512333,0.5169 5.102401,0.52753 2.315943,0.01 5.221084,0.26942 6.455864,0.57758 2.40727,0.60076 5.75187,0.77268 7.24541,0.37243 z M 330.3953,20.019283 c 52.95399,-0.257843 55.78592,-0.308238 55.78592,-0.992727 0,-0.683701 2.13263,-0.727825 41.12536,-0.850896 22.61894,-0.07139 41.35545,-0.278713 41.63669,-0.460717 0.72164,-0.467021 0.14683,-1.398849 -2.81807,-4.568367 l -2.48108,-2.65227 -50.67107,0.03835 c -30.45027,0.02304 -52.21855,0.20044 -54.54889,0.444536 -2.3358,0.244667 -38.61397,0.534151 -91.23094,0.727982 -48.04421,0.176986 -120.74997,0.51026 -161.56836,0.740609 -71.228784,0.401963 -74.24872,0.44911 -75.047085,1.171621 -0.457512,0.414042 -1.114407,1.304296 -1.459767,1.978343 -0.34536,0.674047 -1.0613,1.744771 -1.590978,2.379387 -0.529678,0.634616 -0.96305,1.321204 -0.96305,1.525752 0,0.215083 6.411611,0.419191 15.205156,0.484043 35.31745,0.260465 237.253164,0.284504 288.626164,0.03436 z"
           style="opacity:1;fill:#ffffff;fill-opacity:0.97647059;stroke:#ffffff;stroke-width:1.28213143;stroke-miterlimit:4;stroke-dasharray:none;stroke-opacity:1" />
      </g>
    </g>
  </g>
</svg>
