<?xml version="1.0" encoding="UTF-8" standalone="no"?>
<svg
   xmlns:dc="http://purl.org/dc/elements/1.1/"
   xmlns:cc="http://creativecommons.org/ns#"
   xmlns:rdf="http://www.w3.org/1999/02/22-rdf-syntax-ns#"
   xmlns:svg="http://www.w3.org/2000/svg"
   xmlns="http://www.w3.org/2000/svg"
   xmlns:sodipodi="http://sodipodi.sourceforge.net/DTD/sodipodi-0.dtd"
   xmlns:inkscape="http://www.inkscape.org/namespaces/inkscape"
   viewBox="0 0 119.11065 55.350532"
   version="1.1"
   id="svg54"
   sodipodi:docname="gx4000.svg"
   width="119.11065"
   height="55.350533"
   inkscape:version="0.92.4 (5da689c313, 2019-01-14)">
  <metadata
     id="metadata60">
    <rdf:RDF>
      <cc:Work
         rdf:about="">
        <dc:format>image/svg+xml</dc:format>
        <dc:type
           rdf:resource="http://purl.org/dc/dcmitype/StillImage" />
        <dc:title></dc:title>
      </cc:Work>
    </rdf:RDF>
  </metadata>
  <defs
     id="defs58" />
  <sodipodi:namedview
     pagecolor="#ffffff"
     bordercolor="#666666"
     borderopacity="1"
     objecttolerance="10"
     gridtolerance="10"
     guidetolerance="10"
     inkscape:pageopacity="0"
     inkscape:pageshadow="2"
     inkscape:window-width="1600"
     inkscape:window-height="837"
     id="namedview56"
     showgrid="false"
     inkscape:pagecheckerboard="true"
     inkscape:zoom="7.9690692"
     inkscape:cx="59.62618"
     inkscape:cy="27.605443"
     inkscape:window-x="-8"
     inkscape:window-y="-8"
     inkscape:window-maximized="1"
     inkscape:current-layer="svg54" />
  <path
     d="m 51.425579,1.0087155 c 1.244998,-0.00174 2.280713,0.5088113 2.491656,1.1825175 l 5.671995,-0.00693 5.671994,-0.00893 c 0.208057,-0.6742923 1.24234,-1.18773846 2.488339,-1.18948054 l 46.463957,-0.0649658 a 4.604,4.604 0 0 1 4.61043,4.59755763 l 0.051,36.4789649 c 0.008,6.857995 -5.54362,12.424763 -12.40063,12.43435 l -93.6249,0.130907 C 5.9914276,54.572293 0.42465952,49.021072 0.41507105,42.163079 L 0.36406551,5.6841141 A 4.604,4.604 0 0 1 4.9616242,1.0736813 Z"
     id="path2"
     inkscape:connector-curvature="0"
     style="fill:none;stroke:#ffffff" />
  <path
     d="m 82.264292,21.523616 -20.75808,6.394031 a 6.424,6.424 0 0 1 -3.764996,0.0053 L 36.965338,21.586954 C 36.24603,21.367959 35.754101,20.703646 35.75305,19.951647 L 35.729788,3.3146633 C 35.729207,2.8816646 36.07969,2.529173 36.513689,2.5285665 l 46.149955,-0.064527 a 0.785,0.785 0 0 1 0.786096,0.7839017 l 0.02326,16.6369837 a 1.712,1.712 0 0 1 -1.20871,1.638691 z"
     id="path4"
     inkscape:connector-curvature="0"
     style="fill:none;stroke:#ffffff" />
  <path
     d="m 32.180365,5.1606283 -26.6059735,0.0372 c -0.7839996,0.0011 -1.4181106,0.6369833 -1.4170147,1.4209829 l 0.048001,34.3309658 a 9.375,9.375 0 0 0 9.3880989,9.361883 l 92.124903,-0.128809 a 9.375,9.375 0 0 0 9.36189,-9.388099 l -0.048,-34.3249669 c -0.001,-0.786999 -0.64,-1.4241064 -1.42699,-1.423006 l -26.599979,0.037192 c -0.775999,0.00108 -1.405119,0.6309652 -1.404033,1.4079646 l 0.0193,13.8019861 c 0.0011,0.82 -0.53284,1.544747 -1.316504,1.785843 l -22.626278,6.968643 a 7,7 0 0 1 -4.103996,0.0057 l -22.645677,-6.90534 a 1.865,1.865 0 0 1 -1.321493,-1.782154 l -0.0193,-13.8019858 c -0.0011,-0.7769994 -0.630965,-1.405119 -1.406964,-1.4040339 z"
     id="path6"
     inkscape:connector-curvature="0"
     style="fill:none;stroke:#ffffff" />
  <path
     d="m 49.318714,45.449705 -0.01441,-10.30399 20.65898,-0.02889 0.01441,10.30399 z"
     id="path8"
     inkscape:connector-curvature="0"
     style="fill:none;stroke:#ffffff" />
  <path
     d="m 69.978694,45.420817 -5.2e-5,-0.062 -20.59698,0.0288 -0.01423,-10.17999 20.534981,-0.02871 0.01432,10.24199 0.062,-5.2e-5 -5.2e-5,-0.062 5.2e-5,0.062 0.062,-5.2e-5 -0.01449,-10.36599 -20.78398,0.02906 0.01458,10.42799 20.783979,-0.02906 -5.2e-5,-0.062 z"
     id="path10"
     inkscape:connector-curvature="0"
     style="fill:none;stroke:#ffffff" />
  <path
     d="m 63.477293,35.125897 4.106996,-0.0057 -5.137588,10.311193 -4.106996,0.0057 z"
     id="path12"
     inkscape:connector-curvature="0"
     style="fill:none;stroke:#ffffff" />
  <g
     id="g24"
     transform="rotate(-90.080111,27.468119,27.074119)"
     style="fill:none;stroke:#ffffff">
    <path
       d="m 8.86,81.712 c 0,-3.461 2.816,-6.276 6.277,-6.276 3.461,0 6.276,2.815 6.276,6.276 0,3.461 -2.815,6.277 -6.276,6.277 -3.461,0 -6.277,-2.816 -6.277,-6.277 z"
       id="path16"
       inkscape:connector-curvature="0"
       style="fill:none;stroke:#ffffff" />
    <path
       d="m 9.568,81.712 c 0,-3.07 2.498,-5.568 5.568,-5.568 3.07,0 5.568,2.498 5.568,5.568 0,3.07 -2.498,5.568 -5.568,5.568 -3.07,0 -5.568,-2.498 -5.568,-5.568 z"
       id="path18"
       inkscape:connector-curvature="0"
       style="fill:none;stroke:#ffffff" />
    <path
       d="m 9.993,81.712 a 5.149,5.149 0 0 1 5.143,-5.143 c 2.835,0 5.143,2.307 5.143,5.143 0,2.836 -2.307,5.144 -5.143,5.144 A 5.15,5.15 0 0 1 9.993,81.712 Z"
       id="path20"
       inkscape:connector-curvature="0"
       style="fill:none;stroke:#ffffff" />
  </g>
  <g
     id="g34"
     transform="rotate(-90.080111,27.468119,27.074119)"
     style="fill:none;stroke:#ffffff">
    <path
       d="m 8.859,98.025 c 0,-3.461 2.816,-6.276 6.277,-6.276 3.461,0 6.276,2.815 6.276,6.276 0,3.461 -2.815,6.277 -6.276,6.277 -3.461,0 -6.277,-2.816 -6.277,-6.277 z"
       id="path26"
       inkscape:connector-curvature="0"
       style="fill:none;stroke:#ffffff" />
    <path
       d="m 9.568,98.025 c 0,-3.07 2.498,-5.568 5.568,-5.568 3.07,0 5.568,2.498 5.568,5.568 0,3.07 -2.498,5.568 -5.568,5.568 -3.07,0 -5.568,-2.498 -5.568,-5.568 z"
       id="path28"
       inkscape:connector-curvature="0"
       style="fill:none;stroke:#ffffff" />
    <path
       d="m 9.993,98.025 a 5.149,5.149 0 0 1 5.143,-5.143 c 2.835,0 5.143,2.307 5.143,5.143 0,2.836 -2.307,5.144 -5.143,5.144 A 5.15,5.15 0 0 1 9.993,98.025 Z"
       id="path30"
       inkscape:connector-curvature="0"
       style="fill:none;stroke:#ffffff" />
  </g>
  <g
     id="g52"
     transform="rotate(-90.080111,27.468119,27.074119)"
     style="fill:none;stroke:#ffffff">
    <circle
       cx="21.877001"
       cy="21.24"
       r="13.969"
       id="circle38"
       style="fill:none;stroke:#ffffff" />
    <circle
       cx="21.877001"
       cy="21.24"
       r="12.572"
       id="circle40"
       style="fill:none;stroke:#ffffff" />
    <circle
       cx="21.877001"
       cy="21.24"
       r="12.321"
       id="circle42"
       style="fill:none;stroke:#ffffff" />
    <path
       d="m 26.165,17.803 h 6.204 c 0.47,0 0.85,0.381 0.85,0.85 v 5.174 a 0.85,0.85 0 0 1 -0.85,0.85 h -6.204 a 0.85,0.85 0 0 0 -0.85,0.85 v 6.204 a 0.85,0.85 0 0 1 -0.85,0.85 H 19.29 a 0.85,0.85 0 0 1 -0.85,-0.85 v -6.204 a 0.85,0.85 0 0 0 -0.85,-0.85 h -6.204 a 0.85,0.85 0 0 1 -0.85,-0.85 v -5.174 c 0,-0.47 0.381,-0.85 0.85,-0.85 h 6.204 a 0.85,0.85 0 0 0 0.85,-0.85 v -6.204 c 0,-0.47 0.381,-0.85 0.85,-0.85 h 5.174 c 0.47,0 0.85,0.381 0.85,0.85 v 6.204 c 0,0.469 0.381,0.85 0.851,0.85 z"
       id="path44"
       inkscape:connector-curvature="0"
       style="fill:none;stroke:#ffffff" />
    <circle
       cx="21.877001"
       cy="21.24"
       r="2.7030001"
       id="circle46"
       style="fill:none;stroke:#ffffff" />
    <g
       id="g50"
       style="fill:none;stroke:#ffffff">
      <path
         d="m 31.672,21.195 -3.066,-2.314 v 0.826 h -1.461 a 0.147,0.147 0 0 0 -0.147,0.147 v 2.682 c 0,0.081 0.066,0.147 0.147,0.147 h 1.461 v 0.918 z m -9.804,-9.75 -2.314,3.066 h 0.826 v 1.461 c 0,0.081 0.066,0.147 0.147,0.147 h 2.682 a 0.147,0.147 0 0 0 0.147,-0.147 V 14.51 h 0.918 z m -9.786,9.842 3.066,2.314 v -0.826 h 1.461 a 0.147,0.147 0 0 0 0.147,-0.147 v -2.682 a 0.147,0.147 0 0 0 -0.147,-0.147 h -1.461 v -0.918 z m 9.841,9.749 2.314,-3.066 h -0.826 v -1.461 a 0.147,0.147 0 0 0 -0.147,-0.147 h -2.682 a 0.147,0.147 0 0 0 -0.147,0.147 v 1.461 h -0.918 z"
         id="path48"
         inkscape:connector-curvature="0"
         style="fill:none;stroke:#ffffff" />
    </g>
  </g>
</svg>
