<?xml version="1.0" encoding="UTF-8" standalone="no"?>
<!-- Caetano Ramos -->

<svg
   xmlns:osb="http://www.openswatchbook.org/uri/2009/osb"
   xmlns:dc="http://purl.org/dc/elements/1.1/"
   xmlns:cc="http://creativecommons.org/ns#"
   xmlns:rdf="http://www.w3.org/1999/02/22-rdf-syntax-ns#"
   xmlns:svg="http://www.w3.org/2000/svg"
   xmlns="http://www.w3.org/2000/svg"
   xmlns:xlink="http://www.w3.org/1999/xlink"
   xmlns:sodipodi="http://sodipodi.sourceforge.net/DTD/sodipodi-0.dtd"
   xmlns:inkscape="http://www.inkscape.org/namespaces/inkscape"
   xml:space="preserve"
   width="202.23616mm"
   height="62.29298mm"
   style="clip-rule:evenodd;fill-rule:evenodd;image-rendering:optimizeQuality;shape-rendering:geometricPrecision;text-rendering:geometricPrecision"
   viewBox="0 0 202.23616 62.29298"
   id="svg3015"
   version="1.1"
   inkscape:version="0.92.4 (5da689c313, 2019-01-14)"
   sodipodi:docname="lightgun.svg"><metadata
   id="metadata3043"><rdf:RDF><cc:Work
       rdf:about=""><dc:format>image/svg+xml</dc:format><dc:type
         rdf:resource="http://purl.org/dc/dcmitype/StillImage" /><dc:title></dc:title></cc:Work></rdf:RDF></metadata><sodipodi:namedview
   pagecolor="#ffffff"
   bordercolor="#666666"
   borderopacity="1"
   objecttolerance="10"
   gridtolerance="10"
   guidetolerance="10"
   inkscape:pageopacity="0"
   inkscape:pageshadow="2"
   inkscape:window-width="1600"
   inkscape:window-height="837"
   id="namedview3041"
   showgrid="false"
   inkscape:zoom="0.66553275"
   inkscape:cx="409.27199"
   inkscape:cy="111.77572"
   inkscape:window-x="-8"
   inkscape:window-y="-8"
   inkscape:window-maximized="1"
   inkscape:current-layer="g510"
   showguides="false"
   inkscape:pagecheckerboard="true" />
 <defs
   id="defs3017"><linearGradient
   id="linearGradient7040"
   osb:paint="solid"><stop
     style="stop-color:#0098ef;stop-opacity:1;"
     offset="0"
     id="stop7038" /></linearGradient><linearGradient
   id="linearGradient4855"><stop
     style="stop-color:#8a8a8a;stop-opacity:1;"
     offset="0"
     id="stop4857" /><stop
     style="stop-color:#4d4d4d;stop-opacity:0;"
     offset="1"
     id="stop4859" /></linearGradient><linearGradient
   id="linearGradient4756"><stop
     style="stop-color:#0000ff;stop-opacity:0;"
     offset="0"
     id="stop4758" /><stop
     id="stop4764"
     offset="0.5"
     style="stop-color:#0000ff;stop-opacity:1;" /><stop
     style="stop-color:#0000ff;stop-opacity:0;"
     offset="1"
     id="stop4760" /></linearGradient><linearGradient
   id="linearGradient4744"><stop
     style="stop-color:#0000ff;stop-opacity:1;"
     offset="0"
     id="stop4746" /><stop
     id="stop4752"
     offset="0.5"
     style="stop-color:#ffffff;stop-opacity:1;" /><stop
     style="stop-color:#0000ff;stop-opacity:1;"
     offset="1"
     id="stop4748" /></linearGradient><linearGradient
   id="linearGradient4332"><stop
     style="stop-color:#fffff1;stop-opacity:1;"
     offset="0"
     id="stop4334" /><stop
     style="stop-color:#ffff00;stop-opacity:1;"
     offset="1"
     id="stop4336" /></linearGradient><linearGradient
   id="linearGradient3894"><stop
     style="stop-color:#ffacac;stop-opacity:1;"
     offset="0"
     id="stop3896" /><stop
     style="stop-color:#ff1010;stop-opacity:0.84684682;"
     offset="1"
     id="stop3898" /></linearGradient><linearGradient
   id="linearGradient3862"><stop
     style="stop-color:#cf0000;stop-opacity:1;"
     offset="0"
     id="stop3864" /><stop
     style="stop-color:#800000;stop-opacity:1;"
     offset="1"
     id="stop3866" /></linearGradient><linearGradient
   id="linearGradient3080"><stop
     style="stop-color:#6a6a6a;stop-opacity:1;"
     offset="0"
     id="stop3082" /><stop
     style="stop-color:#1a1a1a;stop-opacity:1;"
     offset="1"
     id="stop3084" /></linearGradient>
  <style
   type="text/css"
   id="style3019">
   
    .str0 {stroke:#373435;stroke-width:0.2}
    .fil0 {fill:none}
   
  </style>
 
  
  
 
   
   
   
   
   
   
   
   
   
   
   
   
   
   
   
   
   
  <filter
   id="filter4002"
   inkscape:label="Apparition"
   x="0"
   y="0"
   width="1"
   height="1"
   inkscape:menu="Blurs"
   inkscape:menu-tooltip="Edges are partly feathered out"
   style="color-interpolation-filters:sRGB"><feMorphology
     id="feMorphology4004"
     radius="4"
     in="SourceGraphic"
     result="result0" /><feGaussianBlur
     id="feGaussianBlur4006"
     in="result0"
     stdDeviation="8"
     result="result91" /><feComposite
     id="feComposite4008"
     in2="result91"
     operator="in"
     in="SourceGraphic" /></filter><radialGradient
   inkscape:collect="always"
   xlink:href="#linearGradient3894"
   id="radialGradient4120"
   gradientUnits="userSpaceOnUse"
   cx="430.49063"
   cy="279.24506"
   fx="430.49063"
   fy="279.24506"
   r="3.2682762" /><radialGradient
   inkscape:collect="always"
   xlink:href="#linearGradient3894"
   id="radialGradient4126"
   gradientUnits="userSpaceOnUse"
   cx="430.49063"
   cy="279.24506"
   fx="430.49063"
   fy="279.24506"
   r="3.2682762" /><radialGradient
   inkscape:collect="always"
   xlink:href="#linearGradient4332"
   id="radialGradient4342"
   cx="348.67865"
   cy="267.59998"
   fx="348.67865"
   fy="267.59998"
   r="17.879005"
   gradientTransform="matrix(1,0,0,0.2,0,214.07998)"
   gradientUnits="userSpaceOnUse" /><linearGradient
   inkscape:collect="always"
   xlink:href="#linearGradient3080"
   id="linearGradient4378"
   gradientUnits="userSpaceOnUse"
   x1="347.9874"
   y1="271.1925"
   x2="348.24283"
   y2="263.79614" /><radialGradient
   inkscape:collect="always"
   xlink:href="#linearGradient4332"
   id="radialGradient4380"
   gradientUnits="userSpaceOnUse"
   gradientTransform="matrix(1,0,0,0.2,0,214.07998)"
   cx="348.67865"
   cy="267.59998"
   fx="348.67865"
   fy="267.59998"
   r="17.879005" /><radialGradient
   inkscape:collect="always"
   xlink:href="#linearGradient3080"
   id="radialGradient4382"
   cx="430.49063"
   cy="279.24506"
   fx="430.49063"
   fy="279.24506"
   r="3.2682762"
   gradientUnits="userSpaceOnUse" /><linearGradient
   inkscape:collect="always"
   xlink:href="#linearGradient4756"
   id="linearGradient4762"
   x1="232.23694"
   y1="66.706215"
   x2="232.23694"
   y2="75.458939"
   gradientUnits="userSpaceOnUse" /><radialGradient
   inkscape:collect="always"
   xlink:href="#linearGradient3080"
   id="radialGradient4838"
   gradientUnits="userSpaceOnUse"
   gradientTransform="matrix(0.25412818,0.06341404,-0.19712142,0.78995307,63.960863,9.9442854)"
   cx="121.73859"
   cy="120.81126"
   fx="121.73859"
   fy="120.81126"
   r="48.259651" /><radialGradient
   inkscape:collect="always"
   xlink:href="#linearGradient3080"
   id="radialGradient4849"
   cx="183.69801"
   cy="77.107681"
   fx="183.69801"
   fy="77.107681"
   r="51.722538"
   gradientTransform="matrix(2.5546832,-0.00426826,2.2651443e-4,0.13557513,-287.07053,67.303189)"
   gradientUnits="userSpaceOnUse" /><radialGradient
   inkscape:collect="always"
   xlink:href="#linearGradient4855"
   id="radialGradient4861"
   cx="656.22894"
   cy="251.32477"
   fx="656.22894"
   fy="251.32477"
   r="8.7721081"
   gradientTransform="matrix(1.2765399,0.01199606,-0.0216695,3.2964003,-176.02742,-585.01443)"
   gradientUnits="userSpaceOnUse" /></defs>
 
<g
   id="g4865"
   transform="translate(134.51003,-44.648772)"><g
     style="clip-rule:evenodd;fill-rule:evenodd;stroke:#ffffff;image-rendering:optimizeQuality;shape-rendering:geometricPrecision;text-rendering:geometricPrecision"
     id="g510"
     transform="translate(-179.69028,-31.069454)"><g
       id="g232"><g
         style="clip-rule:evenodd;fill:none;fill-rule:evenodd;stroke:#ffffff;image-rendering:optimizeQuality;shape-rendering:geometricPrecision;text-rendering:geometricPrecision"
         transform="translate(267.25689,36.885402)"
         id="g7323"><g
           style="fill:none;stroke:#ffffff"
           inkscape:label="Layer 2"
           id="layer2"
           inkscape:groupmode="layer" /><g
           style="fill:none;stroke:#ffffff"
           inkscape:label="Layer 1"
           id="layer1"
           inkscape:groupmode="layer" /></g><g
         style="clip-rule:evenodd;fill:none;fill-rule:evenodd;stroke:#ffffff;image-rendering:optimizeQuality;shape-rendering:geometricPrecision;text-rendering:geometricPrecision"
         transform="matrix(0.78130533,0,0,0.78660872,39.546544,29.450604)"
         id="g4057" /><g
         transform="matrix(-0.78122453,0.01034748,-0.01034748,-0.78122453,255.85904,203.73687)"
         id="g4181"
         style="clip-rule:evenodd;fill:none;fill-rule:evenodd;stroke:#ffffff;image-rendering:optimizeQuality;shape-rendering:geometricPrecision;text-rendering:geometricPrecision" /><path
         style="clip-rule:evenodd;fill:none;fill-opacity:1;fill-rule:nonzero;stroke:#ffffff;image-rendering:optimizeQuality;shape-rendering:geometricPrecision;text-rendering:geometricPrecision"
         d="m 156.54039,70.044594 h 107.04812 c 2.65257,-1.9e-4 2.59016,2.154312 0,2.186488 H 156.54039 Z"
         id="rect4742"
         inkscape:connector-curvature="0"
         sodipodi:nodetypes="ccccc"
         transform="matrix(0.78130533,0,0,0.78660872,39.546544,29.450604)" /><path
         inkscape:connector-curvature="0"
         transform="matrix(0.78130533,0,0,0.78660872,-21.424056,25.369242)"
         style="clip-rule:evenodd;fill:none;fill-rule:evenodd;stroke:#ffffff;stroke-width:0.2;image-rendering:optimizeQuality;shape-rendering:geometricPrecision;text-rendering:geometricPrecision"
         d="m 86.6173,82.8791 46.4277,-0.8432 -0.131,-10.6795 -44.1128,0.5224 -0.4875,1.7599 -1.4497,8.0301 z"
         id="_260682896" /><path
         id="_260682992"
         class="fil0 str0"
         d="m 45.08116,62.152243 -29.1323,0.5582 -3.8683,0.1262 -0.8283,2.0936 -0.4875,1.76 44.1128,-0.5224 1.3566,-1.152 88.36875,0.0197 -89.67485,-2.8892 c 0,0 -0.2254,0.47 -0.4377,0.4902 -0.2124,0.0203 -0.8038,-0.5791 -1.1219,-0.5618 -0.3182,0.0173 -0.3055,0.4941 -0.6228,0.4849 -0.3174,-0.0092 -0.6746,-0.4696 -0.9135,-0.4501 -0.2389,0.0195 -0.3031,0.4148 -0.6999,0.4033 -0.3967,-0.0115 -0.5159,-0.4649 -0.8068,-0.4733 -0.2909,-0.0085 -0.4657,0.5423 -0.7831,0.5331 -0.3173,-0.0092 -0.5959,-0.4407 -0.5959,-0.4407 z"
         inkscape:connector-curvature="0"
         style="clip-rule:evenodd;fill:none;fill-rule:evenodd;stroke:#ffffff;stroke-width:0.2;image-rendering:optimizeQuality;shape-rendering:geometricPrecision;text-rendering:geometricPrecision"
         transform="matrix(0.78130533,0,0,0.78660872,39.546544,29.450604)" /><path
         id="_244917240"
         class="fil0 str0"
         d="m 18.30846,82.500643 96.24395,-3.5129 0.0752,1.0611 -39.870265,7.5273 -10.399985,1.6728 c 0,0 -1.257,0.2709 -2.5409,1.6691 -1.262,1.7053 -2.5378,7.4116 -3.3988,10.585197 l -7.4833,27.9993 0.0607,7.0427 -0.9019,0.8392 -14.8382,0.5231 -0.0345,-0.6363 -1.8014,0.0537 -0.2782,0.4684 -10.0333,-4.5258 -0.0751,-1.061 15.3253,-36.209797 c 0,0 0.312,-1.632 -0.2423,-2.601 -0.5542,-0.9689 -2.1089,-2.1256 -2.1089,-2.1256 l -17.2235,-5.7666 z"
         inkscape:connector-curvature="0"
         style="clip-rule:evenodd;fill:none;fill-rule:evenodd;stroke:#ffffff;stroke-width:0.2;image-rendering:optimizeQuality;shape-rendering:geometricPrecision;text-rendering:geometricPrecision"
         transform="matrix(0.78130533,0,0,0.78660872,39.546544,29.450604)" /><path
         inkscape:connector-curvature="0"
         transform="matrix(0.78130533,0,0,0.78660872,-21.332116,25.55671)"
         style="clip-rule:evenodd;fill:none;fill-opacity:1;fill-rule:evenodd;stroke:#ffffff;stroke-width:0.2;image-rendering:optimizeQuality;shape-rendering:geometricPrecision;text-rendering:geometricPrecision"
         d="m 116.942,127.773 0.368,-1.466 13.932,-0.113 0.357,-1.333 -13.933,0.024 0.375,-1.493 13.984,-0.126 0.353,-1.321 -13.98,0.025 0.376,-1.498 14.028,-0.113 0.356,-1.333 -14.028,0.025 0.357,-1.422 14.075,-0.114 0.356,-1.333 -14.074,0.025 0.374,-1.494 14.123,-0.114 0.356,-1.333 -14.122,0.025 0.361,-1.44 14.17,-0.115 0.357,-1.333 -14.17,0.025 0.368,-1.467 14.218,-0.115 0.356,-1.333 -14.217,0.025 0.349,-1.388 14.269,-0.139 0.344,-1.33 -14.256,0.046 0.388,-1.547 14.216,-0.118 0.424,-1.33 -14.283,0.025 0.357,-1.425 14.399,-0.116 0.424,-1.33 -14.466,0.0228 2.963,-11.8094 -1.907,0.0506 -13.94,55.28 1.958,0.03 1.879,-7.488 13.837,-0.116 -0.002,-0.165 0.312,-1.168 -13.791,0.028 0.362,-1.442 13.837,-0.112 0.357,-1.333 -13.837,0.025 0.374,-1.495 13.885,-0.112 0.357,-1.334 z"
         id="_244918008" /><path
         id="_260403448"
         class="fil0 str0"
         d="m 45.08116,62.152243 -29.1323,0.5582 -0.0693,-1.2723 c 0,0 -0.1237,-0.2948 0.0153,-0.529 0.139,-0.2342 0.3514,-0.2545 0.3514,-0.2545 9.5362,-0.3237 19.1616,-0.3402 28.7081,-0.5178 0,0 0.0506,0.0809 0.1487,0.3485 0.0981,0.2675 -0.0219,1.6669 -0.0219,1.6669 z"
         inkscape:connector-curvature="0"
         style="clip-rule:evenodd;fill:none;fill-rule:evenodd;stroke:#ffffff;stroke-width:0.2;image-rendering:optimizeQuality;shape-rendering:geometricPrecision;text-rendering:geometricPrecision"
         transform="matrix(0.78130533,0,0,0.78660872,39.546544,29.450604)" /><path
         id="_260975192"
         class="fil0 str0"
         d="m 26.00416,60.412543 -6.3932,0.1279 c 0,0 0.7532,-1.3283 0.9694,-1.4808 0.2162,-0.1525 4.2666,-0.1675 4.4765,-0.1085 0.21,0.059 0.9473,1.4614 0.9473,1.4614 z"
         inkscape:connector-curvature="0"
         style="clip-rule:evenodd;fill:none;fill-rule:evenodd;stroke:#ffffff;stroke-width:0.2;image-rendering:optimizeQuality;shape-rendering:geometricPrecision;text-rendering:geometricPrecision"
         transform="matrix(0.78130533,0,0,0.78660872,39.546544,29.450604)" /><path
         inkscape:connector-curvature="0"
         transform="matrix(0.78130533,0,0,0.78660872,-21.424056,25.369242)"
         style="clip-rule:evenodd;fill:none;fill-rule:evenodd;stroke:#ffffff;stroke-width:0.2;image-rendering:optimizeQuality;shape-rendering:geometricPrecision;text-rendering:geometricPrecision"
         d="m 86.6173,82.8791 2.3052,6.3137 1.4672,0.519 6.2538,-0.2424 96.0215,-4.232 -0.063,-1.0618 30.059,-1.7576 -88.214,1.4673 -1.402,-1.8494 z"
         id="_244917360" /><path
         inkscape:connector-curvature="0"
         transform="matrix(0.78130533,0,0,0.78660872,-21.424056,25.369242)"
         style="clip-rule:evenodd;fill:none;fill-rule:evenodd;stroke:#ffffff;stroke-width:0.2;image-rendering:optimizeQuality;shape-rendering:geometricPrecision;text-rendering:geometricPrecision"
         d="m 86.6173,82.8791 46.4277,-0.8432 1.402,1.8494 88.214,-1.4673 v 0"
         id="_244917936" /><path
         inkscape:connector-curvature="0"
         transform="matrix(0.78130533,0,0,0.78660872,39.546544,29.450604)"
         style="clip-rule:evenodd;fill:none;fill-rule:evenodd;stroke:#ffffff;stroke-width:0.2;image-rendering:optimizeQuality;shape-rendering:geometricPrecision;text-rendering:geometricPrecision"
         d="M 15.948451,62.710445 45.081146,62.152241"
         id="_244917648" /><path
         inkscape:connector-curvature="0"
         transform="matrix(0.78130533,0,0,0.78660872,-21.424056,25.369242)"
         style="clip-rule:evenodd;fill:none;fill-rule:evenodd;stroke:#ffffff;stroke-width:0.2;image-rendering:optimizeQuality;shape-rendering:geometricPrecision;text-rendering:geometricPrecision"
         d="m 89.2887,70.1188 -0.975,3.5199 -1.4737,8.0257 0.024,0.0044"
         id="_244917720" /><path
         inkscape:connector-curvature="0"
         transform="matrix(0.78130533,0,0,0.78660872,-21.424056,25.369242)"
         style="clip-rule:evenodd;fill:none;fill-rule:evenodd;stroke:#ffffff;stroke-width:0.2;image-rendering:optimizeQuality;shape-rendering:geometricPrecision;text-rendering:geometricPrecision"
         d="m 88.4961,81.8059 1.2641,-8.6101 41.9238,-0.4618 0.03,8.074 z"
         id="_244917600" /><path
         id="_244917504"
         class="fil0 str0"
         d="m 58.38816,101.61344 2.4361,-0.0353 4.7207,-2.139597 -0.8201,-4.5248 c 0,0 -0.3335,-1.2802 1.0999,-3.2503 1.4335,-1.9701 8.107391,-2.0944 8.107391,-2.0944 l 0.795694,-1.8827 -10.370185,1.563 c 0,0 -1.5801,0.4837 -2.5409,1.6691 -0.9607,1.1853 -3.4286,10.694997 -3.4286,10.694997 z"
         inkscape:connector-curvature="0"
         style="clip-rule:evenodd;fill:none;fill-rule:evenodd;stroke:#ffffff;stroke-width:0.2;image-rendering:optimizeQuality;shape-rendering:geometricPrecision;text-rendering:geometricPrecision"
         transform="matrix(0.78130533,0,0,0.78660872,39.546544,29.450604)" /><path
         id="_244916424"
         class="fil0 str0"
         d="m 144.60301,65.035543 7.301,0.1586 c 0,0 -4.8749,-5.3292 -5.4567,-5.3461 -0.5819,-0.0168 -1.6052,0.5888 -1.7807,1.1661 -0.1755,0.5772 -0.0636,4.0214 -0.0636,4.0214 z"
         inkscape:connector-curvature="0"
         style="clip-rule:evenodd;fill:none;fill-rule:evenodd;stroke:#ffffff;stroke-width:0.2;image-rendering:optimizeQuality;shape-rendering:geometricPrecision;text-rendering:geometricPrecision"
         transform="matrix(0.78130533,0,0,0.78660872,39.546544,29.450604)" /><path
         inkscape:connector-curvature="0"
         transform="matrix(0.78130533,0,0,0.78660872,-21.424056,25.369242)"
         style="clip-rule:evenodd;fill:none;fill-rule:evenodd;stroke:#ffffff;stroke-width:0.2;image-rendering:optimizeQuality;shape-rendering:geometricPrecision;text-rendering:geometricPrecision"
         d="m 133.045,82.0359 -0.131,-10.6795 1.357,-1.152 0.176,13.6809 z"
         id="_244917072" /><path
         style="clip-rule:evenodd;fill:none;fill-rule:evenodd;stroke:#ffffff;stroke-width:0.2;stroke-opacity:1;image-rendering:optimizeQuality;shape-rendering:geometricPrecision;text-rendering:geometricPrecision"
         d="m 56.23416,65.015843 0.176,13.6809 88.21385,-1.4673 10.45958,-0.586505 c 6.10235,-0.339675 5.62418,-10.91475 -0.0322,-11.120095 l -18.241,-0.6507 z"
         id="_244915584"
         inkscape:connector-curvature="0"
         sodipodi:nodetypes="ccccccc"
         transform="matrix(0.78130533,0,0,0.78660872,39.546544,29.450604)" /><path
         id="_244916400"
         class="fil0 str0"
         d="m 11.25186,64.930243 -0.975,3.5199 -1.4496991,8.0301 -1.3700994,-0.2516 0.2296,-1.5286 0.6510997,-3.2898 c 0,0 0.2414997,-2.8516 0.4426997,-3.4017 0.2011997,-0.5501 1.3644991,-3.2428 1.3644991,-3.2428 z"
         inkscape:connector-curvature="0"
         style="clip-rule:evenodd;fill:none;fill-rule:evenodd;stroke:#ffffff;stroke-width:0.2;image-rendering:optimizeQuality;shape-rendering:geometricPrecision;text-rendering:geometricPrecision"
         transform="matrix(0.78130533,0,0,0.78660872,39.546544,29.450604)" /><path
         id="_244915464"
         class="fil0 str0"
         d="m 7.6866615,74.700043 c 0,0 -0.4878997,-0.517 -0.3522997,-1.5454 0.1355997,-1.0284 1.0033994,-1.7444 1.0033994,-1.7444 z"
         inkscape:connector-curvature="0"
         style="clip-rule:evenodd;fill:none;fill-rule:evenodd;stroke:#ffffff;stroke-width:0.2;image-rendering:optimizeQuality;shape-rendering:geometricPrecision;text-rendering:geometricPrecision"
         transform="matrix(0.78130533,0,0,0.78660872,39.546544,29.450604)" /><path
         inkscape:connector-curvature="0"
         transform="matrix(0.78130533,0,0,0.78660872,39.546544,29.450604)"
         style="clip-rule:evenodd;fill:none;fill-opacity:1;fill-rule:nonzero;stroke:#ffffff;stroke-width:0.19538462;image-rendering:optimizeQuality;shape-rendering:geometricPrecision;text-rendering:geometricPrecision"
         d="m 13.732306,70.063637 a 0.6385709,0.6385709 0 0 1 -0.638571,0.638571 0.6385709,0.6385709 0 0 1 -0.638571,-0.638571 0.6385709,0.6385709 0 0 1 0.638571,-0.638571 0.6385709,0.6385709 0 0 1 0.638571,0.638571 z"
         id="path3890" /><path
         inkscape:connector-curvature="0"
         transform="matrix(0.78130533,0,0,0.78660872,39.546544,29.450604)"
         style="clip-rule:evenodd;fill:none;fill-opacity:0.50196078;fill-rule:nonzero;stroke:#ffffff;stroke-width:0.23818289;image-rendering:optimizeQuality;shape-rendering:geometricPrecision;text-rendering:geometricPrecision"
         d="m 13.83537,74.245209 a 0.77844745,0.77844745 0 0 1 -0.778447,0.778447 0.77844745,0.77844745 0 0 1 -0.778448,-0.778447 0.77844745,0.77844745 0 0 1 0.778448,-0.778448 0.77844745,0.77844745 0 0 1 0.778447,0.778448 z"
         id="path4116" /><path
         inkscape:connector-curvature="0"
         transform="matrix(0.78130533,0,0,0.78660872,39.546544,29.450604)"
         style="clip-rule:evenodd;fill:none;fill-opacity:1;fill-rule:nonzero;stroke:#ffffff;stroke-width:0.19538462;image-rendering:optimizeQuality;shape-rendering:geometricPrecision;text-rendering:geometricPrecision"
         d="m 13.695498,74.245209 a 0.6385709,0.6385709 0 0 1 -0.638571,0.638571 0.6385709,0.6385709 0 0 1 -0.638571,-0.638571 0.6385709,0.6385709 0 0 1 0.638571,-0.638571 0.6385709,0.6385709 0 0 1 0.638571,0.638571 z"
         id="path4118" /><path
         inkscape:connector-curvature="0"
         transform="matrix(0.78130533,0,0,0.78660872,39.546544,29.450604)"
         style="clip-rule:evenodd;fill:none;fill-opacity:0.50196078;fill-rule:nonzero;stroke:#ffffff;stroke-width:0.23818289;image-rendering:optimizeQuality;shape-rendering:geometricPrecision;text-rendering:geometricPrecision"
         d="m 13.864819,72.088165 a 0.77844745,0.77844745 0 0 1 -0.778448,0.778448 0.77844745,0.77844745 0 0 1 -0.778447,-0.778448 0.77844745,0.77844745 0 0 1 0.778447,-0.778447 0.77844745,0.77844745 0 0 1 0.778448,0.778447 z"
         id="path4122" /><path
         inkscape:connector-curvature="0"
         transform="matrix(0.78130533,0,0,0.78660872,39.546544,29.450604)"
         style="clip-rule:evenodd;fill:none;fill-opacity:1;fill-rule:nonzero;stroke:#ffffff;stroke-width:0.19538462;image-rendering:optimizeQuality;shape-rendering:geometricPrecision;text-rendering:geometricPrecision"
         d="m 13.724942,72.088165 a 0.6385709,0.6385709 0 0 1 -0.638571,0.638571 0.6385709,0.6385709 0 0 1 -0.63857,-0.638571 0.6385709,0.6385709 0 0 1 0.63857,-0.638571 0.6385709,0.6385709 0 0 1 0.638571,0.638571 z"
         id="path4124" /><path
         inkscape:connector-curvature="0"
         transform="matrix(0.78100164,-0.02192979,0.00636141,0.78658263,39.546544,29.450604)"
         style="clip-rule:evenodd;fill:none;fill-opacity:1;fill-rule:nonzero;stroke:#ffffff;image-rendering:optimizeQuality;shape-rendering:geometricPrecision;text-rendering:geometricPrecision"
         d="m 51.3633,70.217911 h 0.899044 v 5.769895 H 51.3633 Z"
         id="rect4168" /><path
         inkscape:connector-curvature="0"
         transform="matrix(0.78103932,-0.02052534,0.00811168,0.78656633,39.546544,29.450604)"
         style="clip-rule:evenodd;fill:none;fill-opacity:0.50196078;fill-rule:nonzero;stroke:#ffffff;image-rendering:optimizeQuality;shape-rendering:geometricPrecision;text-rendering:geometricPrecision"
         d="m 51.035931,69.875954 h 1.222833 v 6.263196 h -1.222833 z"
         id="rect4170" /><path
         inkscape:connector-curvature="0"
         transform="matrix(0.78100164,-0.02192979,0.00636141,0.78658263,39.546544,29.450604)"
         style="clip-rule:evenodd;fill:none;fill-opacity:1;fill-rule:nonzero;stroke:#ffffff;image-rendering:optimizeQuality;shape-rendering:geometricPrecision;text-rendering:geometricPrecision"
         d="m 49.676609,70.189957 h 0.899044 v 5.769895 h -0.899044 z"
         id="rect4194" /><path
         inkscape:connector-curvature="0"
         transform="matrix(0.78103932,-0.02052534,0.00811168,0.78656633,39.546544,29.450604)"
         style="clip-rule:evenodd;fill:none;fill-opacity:0.50196078;fill-rule:nonzero;stroke:#ffffff;image-rendering:optimizeQuality;shape-rendering:geometricPrecision;text-rendering:geometricPrecision"
         d="m 49.349369,69.851013 h 1.222833 v 6.263197 h -1.222833 z"
         id="rect4196" /><path
         inkscape:connector-curvature="0"
         transform="matrix(0.78100164,-0.02192979,0.00636141,0.78658263,39.546544,29.450604)"
         style="clip-rule:evenodd;fill:none;fill-opacity:1;fill-rule:nonzero;stroke:#ffffff;image-rendering:optimizeQuality;shape-rendering:geometricPrecision;text-rendering:geometricPrecision"
         d="M 47.989956,70.162003 H 48.889 v 5.769895 h -0.899044 z"
         id="rect4200" /><path
         inkscape:connector-curvature="0"
         transform="matrix(0.78103932,-0.02052534,0.00811168,0.78656633,39.546544,29.450604)"
         style="clip-rule:evenodd;fill:none;fill-opacity:0.50196078;fill-rule:nonzero;stroke:#ffffff;image-rendering:optimizeQuality;shape-rendering:geometricPrecision;text-rendering:geometricPrecision"
         d="m 47.662815,69.82608 h 1.222833 v 6.263197 h -1.222833 z"
         id="rect4202" /><path
         inkscape:connector-curvature="0"
         transform="matrix(0.78100164,-0.02192979,0.00636141,0.78658263,39.546544,29.450604)"
         style="clip-rule:evenodd;fill:none;fill-opacity:1;fill-rule:nonzero;stroke:#ffffff;image-rendering:optimizeQuality;shape-rendering:geometricPrecision;text-rendering:geometricPrecision"
         d="m 46.303272,70.134048 h 0.899044 v 5.769896 h -0.899044 z"
         id="rect4206" /><path
         inkscape:connector-curvature="0"
         transform="matrix(0.78103932,-0.02052534,0.00811168,0.78656633,39.546544,29.450604)"
         style="clip-rule:evenodd;fill:none;fill-opacity:0.50196078;fill-rule:nonzero;stroke:#ffffff;image-rendering:optimizeQuality;shape-rendering:geometricPrecision;text-rendering:geometricPrecision"
         d="m 45.976254,69.80114 h 1.222832 v 6.263196 h -1.222832 z"
         id="rect4208" /><path
         inkscape:connector-curvature="0"
         transform="matrix(0.78100164,-0.02192979,0.00636141,0.78658263,39.546544,29.450604)"
         style="clip-rule:evenodd;fill:none;fill-opacity:1;fill-rule:nonzero;stroke:#ffffff;image-rendering:optimizeQuality;shape-rendering:geometricPrecision;text-rendering:geometricPrecision"
         d="m 44.616604,70.106094 h 0.899044 v 5.769896 h -0.899044 z"
         id="rect4212" /><path
         inkscape:connector-curvature="0"
         transform="matrix(0.78103932,-0.02052534,0.00811168,0.78656633,39.546544,29.450604)"
         style="clip-rule:evenodd;fill:none;fill-opacity:0.50196078;fill-rule:nonzero;stroke:#ffffff;image-rendering:optimizeQuality;shape-rendering:geometricPrecision;text-rendering:geometricPrecision"
         d="m 44.289692,69.776199 h 1.222833 v 6.263197 h -1.222833 z"
         id="rect4214" /><path
         inkscape:connector-curvature="0"
         transform="matrix(0.78100164,-0.02192979,0.00636141,0.78658263,39.546544,29.450604)"
         style="clip-rule:evenodd;fill:none;fill-opacity:1;fill-rule:nonzero;stroke:#ffffff;image-rendering:optimizeQuality;shape-rendering:geometricPrecision;text-rendering:geometricPrecision"
         d="m 42.929935,70.07814 h 0.899044 v 5.769896 h -0.899044 z"
         id="rect4218" /><path
         inkscape:connector-curvature="0"
         transform="matrix(0.78103932,-0.02052534,0.00811168,0.78656633,39.546544,29.450604)"
         style="clip-rule:evenodd;fill:none;fill-opacity:0.50196078;fill-rule:nonzero;stroke:#ffffff;image-rendering:optimizeQuality;shape-rendering:geometricPrecision;text-rendering:geometricPrecision"
         d="m 42.60313,69.751259 h 1.222833 v 6.263196 H 42.60313 Z"
         id="rect4220" /><path
         inkscape:connector-curvature="0"
         transform="matrix(0.78100164,-0.02192979,0.00636141,0.78658263,39.546544,29.450604)"
         style="clip-rule:evenodd;fill:none;fill-opacity:1;fill-rule:nonzero;stroke:#ffffff;image-rendering:optimizeQuality;shape-rendering:geometricPrecision;text-rendering:geometricPrecision"
         d="m 41.243252,70.050186 h 0.899044 v 5.769896 h -0.899044 z"
         id="rect4224" /><path
         inkscape:connector-curvature="0"
         transform="matrix(0.78103932,-0.02052534,0.00811168,0.78656633,39.546544,29.450604)"
         style="clip-rule:evenodd;fill:none;fill-opacity:0.50196078;fill-rule:nonzero;stroke:#ffffff;image-rendering:optimizeQuality;shape-rendering:geometricPrecision;text-rendering:geometricPrecision"
         d="m 40.916569,69.726318 h 1.222833 v 6.263197 h -1.222833 z"
         id="rect4226" /><path
         inkscape:connector-curvature="0"
         transform="matrix(0.78100164,-0.02192979,0.00636141,0.78658263,39.546544,29.450604)"
         style="clip-rule:evenodd;fill:none;fill-opacity:1;fill-rule:nonzero;stroke:#ffffff;image-rendering:optimizeQuality;shape-rendering:geometricPrecision;text-rendering:geometricPrecision"
         d="m 39.556583,70.022232 h 0.899044 v 5.769896 h -0.899044 z"
         id="rect4230" /><path
         inkscape:connector-curvature="0"
         transform="matrix(0.78103932,-0.02052534,0.00811168,0.78656633,39.546544,29.450604)"
         style="clip-rule:evenodd;fill:none;fill-opacity:0.50196078;fill-rule:nonzero;stroke:#ffffff;image-rendering:optimizeQuality;shape-rendering:geometricPrecision;text-rendering:geometricPrecision"
         d="m 39.230015,69.701378 h 1.222833 v 6.263196 h -1.222833 z"
         id="rect4232" /><path
         inkscape:connector-curvature="0"
         transform="matrix(0.78100164,-0.02192979,0.00636141,0.78658263,39.546544,29.450604)"
         style="clip-rule:evenodd;fill:none;fill-opacity:1;fill-rule:nonzero;stroke:#ffffff;image-rendering:optimizeQuality;shape-rendering:geometricPrecision;text-rendering:geometricPrecision"
         d="m 37.8699,69.994278 h 0.899043 v 5.769896 H 37.8699 Z"
         id="rect4284" /><path
         inkscape:connector-curvature="0"
         transform="matrix(0.78103932,-0.02052534,0.00811168,0.78656633,39.546544,29.450604)"
         style="clip-rule:evenodd;fill:none;fill-opacity:0.50196078;fill-rule:nonzero;stroke:#ffffff;image-rendering:optimizeQuality;shape-rendering:geometricPrecision;text-rendering:geometricPrecision"
         d="m 37.543446,69.676437 h 1.222833 v 6.263197 h -1.222833 z"
         id="rect4286" /><path
         inkscape:connector-curvature="0"
         transform="matrix(0.78100164,-0.02192979,0.00636141,0.78658263,39.546544,29.450604)"
         style="clip-rule:evenodd;fill:none;fill-opacity:1;fill-rule:nonzero;stroke:#ffffff;image-rendering:optimizeQuality;shape-rendering:geometricPrecision;text-rendering:geometricPrecision"
         d="m 36.183247,69.966324 h 0.899043 v 5.769895 h -0.899043 z"
         id="rect4290" /><path
         inkscape:connector-curvature="0"
         transform="matrix(0.78103932,-0.02052534,0.00811168,0.78656633,39.546544,29.450604)"
         style="clip-rule:evenodd;fill:none;fill-opacity:0.50196078;fill-rule:nonzero;stroke:#ffffff;image-rendering:optimizeQuality;shape-rendering:geometricPrecision;text-rendering:geometricPrecision"
         d="m 35.856892,69.651497 h 1.222833 v 6.263196 h -1.222833 z"
         id="rect4292" /><path
         inkscape:connector-curvature="0"
         transform="matrix(0.78100164,-0.02192979,0.00636141,0.78658263,39.546544,29.450604)"
         style="clip-rule:evenodd;fill:none;fill-opacity:1;fill-rule:nonzero;stroke:#ffffff;image-rendering:optimizeQuality;shape-rendering:geometricPrecision;text-rendering:geometricPrecision"
         d="m 34.496567,69.93837 h 0.899044 v 5.769895 h -0.899044 z"
         id="rect4296" /><path
         inkscape:connector-curvature="0"
         transform="matrix(0.78103932,-0.02052534,0.00811168,0.78656633,39.546544,29.450604)"
         style="clip-rule:evenodd;fill:none;fill-opacity:0.50196078;fill-rule:nonzero;stroke:#ffffff;image-rendering:optimizeQuality;shape-rendering:geometricPrecision;text-rendering:geometricPrecision"
         d="m 34.17033,69.626556 h 1.222833 v 6.263197 H 34.17033 Z"
         id="rect4298" /><path
         inkscape:connector-curvature="0"
         transform="matrix(0.78100164,-0.02192979,0.00636141,0.78658263,39.546544,29.450604)"
         style="clip-rule:evenodd;fill:none;fill-opacity:1;fill-rule:nonzero;stroke:#ffffff;image-rendering:optimizeQuality;shape-rendering:geometricPrecision;text-rendering:geometricPrecision"
         d="m 32.809898,69.910416 h 0.899044 v 5.769895 h -0.899044 z"
         id="rect4302" /><path
         inkscape:connector-curvature="0"
         transform="matrix(0.78103932,-0.02052534,0.00811168,0.78656633,39.546544,29.450604)"
         style="clip-rule:evenodd;fill:none;fill-opacity:0.50196078;fill-rule:nonzero;stroke:#ffffff;image-rendering:optimizeQuality;shape-rendering:geometricPrecision;text-rendering:geometricPrecision"
         d="m 32.483768,69.601616 h 1.222833 v 6.263196 h -1.222833 z"
         id="rect4304" /><path
         inkscape:connector-curvature="0"
         transform="matrix(0.78100164,-0.02192979,0.00636141,0.78658263,39.546544,29.450604)"
         style="clip-rule:evenodd;fill:none;fill-opacity:1;fill-rule:nonzero;stroke:#ffffff;image-rendering:optimizeQuality;shape-rendering:geometricPrecision;text-rendering:geometricPrecision"
         d="m 31.123226,69.882462 h 0.899044 v 5.769895 h -0.899044 z"
         id="rect4308" /><path
         inkscape:connector-curvature="0"
         transform="matrix(0.78103932,-0.02052534,0.00811168,0.78656633,39.546544,29.450604)"
         style="clip-rule:evenodd;fill:none;fill-opacity:0.50196078;fill-rule:nonzero;stroke:#ffffff;image-rendering:optimizeQuality;shape-rendering:geometricPrecision;text-rendering:geometricPrecision"
         d="m 30.79722,69.576675 h 1.222833 v 6.263197 H 30.79722 Z"
         id="rect4310" /><path
         inkscape:connector-curvature="0"
         transform="matrix(0.78100164,-0.02192979,0.00636141,0.78658263,39.546544,29.450604)"
         style="clip-rule:evenodd;fill:none;fill-opacity:1;fill-rule:nonzero;stroke:#ffffff;image-rendering:optimizeQuality;shape-rendering:geometricPrecision;text-rendering:geometricPrecision"
         d="m 29.436529,69.854507 h 0.899044 v 5.769896 h -0.899044 z"
         id="rect4314" /><path
         inkscape:connector-curvature="0"
         transform="matrix(0.78103932,-0.02052534,0.00811168,0.78656633,39.546544,29.450604)"
         style="clip-rule:evenodd;fill:none;fill-opacity:0.50196078;fill-rule:nonzero;stroke:#ffffff;image-rendering:optimizeQuality;shape-rendering:geometricPrecision;text-rendering:geometricPrecision"
         d="m 29.110657,69.551735 h 1.222833 v 6.263196 h -1.222833 z"
         id="rect4316" /><path
         inkscape:connector-curvature="0"
         transform="matrix(0.78100164,-0.02192979,0.00636141,0.78658263,39.546544,29.450604)"
         style="clip-rule:evenodd;fill:none;fill-opacity:1;fill-rule:nonzero;stroke:#ffffff;image-rendering:optimizeQuality;shape-rendering:geometricPrecision;text-rendering:geometricPrecision"
         d="m 27.749861,69.826553 h 0.899044 v 5.769896 h -0.899044 z"
         id="rect4320" /><path
         inkscape:connector-curvature="0"
         transform="matrix(0.78103932,-0.02052534,0.00811168,0.78656633,39.546544,29.450604)"
         style="clip-rule:evenodd;fill:none;fill-opacity:0.50196078;fill-rule:nonzero;stroke:#ffffff;image-rendering:optimizeQuality;shape-rendering:geometricPrecision;text-rendering:geometricPrecision"
         d="m 27.424109,69.526794 h 1.222832 v 6.263197 h -1.222832 z"
         id="rect4322" /><path
         inkscape:connector-curvature="0"
         transform="matrix(0.78100164,-0.02192979,0.00636141,0.78658263,39.546544,29.450604)"
         style="clip-rule:evenodd;fill:none;fill-opacity:1;fill-rule:nonzero;stroke:#ffffff;image-rendering:optimizeQuality;shape-rendering:geometricPrecision;text-rendering:geometricPrecision"
         d="m 26.063192,69.798599 h 0.899044 v 5.769896 h -0.899044 z"
         id="rect4326" /><path
         inkscape:connector-curvature="0"
         transform="matrix(0.78103932,-0.02052534,0.00811168,0.78656633,39.546544,29.450604)"
         style="clip-rule:evenodd;fill:none;fill-opacity:0.50196078;fill-rule:nonzero;stroke:#ffffff;image-rendering:optimizeQuality;shape-rendering:geometricPrecision;text-rendering:geometricPrecision"
         d="m 25.737549,69.501862 h 1.222833 v 6.263196 h -1.222833 z"
         id="rect4328" /><path
         inkscape:connector-curvature="0"
         transform="matrix(0.78106594,-0.01947075,0,0.78660872,39.546544,29.450604)"
         style="clip-rule:evenodd;fill:none;fill-opacity:1;fill-rule:nonzero;stroke:#ffffff;stroke-width:0.31712067;image-rendering:optimizeQuality;shape-rendering:geometricPrecision;text-rendering:geometricPrecision"
         d="m 25.859214,70.838562 a 5.4848971,1.172188 0 0 1 -5.484897,1.172188 5.4848971,1.172188 0 0 1 -5.484897,-1.172188 5.4848971,1.172188 0 0 1 5.484897,-1.172188 5.4848971,1.172188 0 0 1 5.484897,1.172188 z"
         id="path4358" /><path
         inkscape:connector-curvature="0"
         transform="matrix(0.78106594,-0.01947076,0,0.78660872,39.546544,29.450604)"
         style="clip-rule:evenodd;fill:none;fill-opacity:1;fill-rule:nonzero;stroke:#ffffff;stroke-width:0.28226548;image-rendering:optimizeQuality;shape-rendering:geometricPrecision;text-rendering:geometricPrecision"
         d="m 25.421721,70.838554 a 5.0473995,1.0091705 0 0 1 -5.0474,1.009171 5.0473995,1.0091705 0 0 1 -5.0474,-1.009171 5.0473995,1.0091705 0 0 1 5.0474,-1.00917 5.0473995,1.0091705 0 0 1 5.0474,1.00917 z"
         id="path4340" /><path
         inkscape:connector-curvature="0"
         transform="matrix(0.78106594,-0.01947075,0,0.78660872,39.546544,29.450604)"
         style="clip-rule:evenodd;fill:none;fill-opacity:1;fill-rule:nonzero;stroke:#ffffff;stroke-width:0.31712067;image-rendering:optimizeQuality;shape-rendering:geometricPrecision;text-rendering:geometricPrecision"
         d="m 25.791311,74.197098 a 5.4848971,1.172188 0 0 1 -5.484897,1.172188 5.4848971,1.172188 0 0 1 -5.484897,-1.172188 5.4848971,1.172188 0 0 1 5.484897,-1.172188 5.4848971,1.172188 0 0 1 5.484897,1.172188 z"
         id="path4374" /><path
         inkscape:connector-curvature="0"
         transform="matrix(0.78106594,-0.01947076,0,0.78660872,39.546544,29.450604)"
         style="clip-rule:evenodd;fill:none;fill-opacity:1;fill-rule:nonzero;stroke:#ffffff;stroke-width:0.28226548;image-rendering:optimizeQuality;shape-rendering:geometricPrecision;text-rendering:geometricPrecision"
         d="m 25.353813,74.197098 a 5.0473995,1.0091705 0 0 1 -5.047399,1.00917 5.0473995,1.0091705 0 0 1 -5.0474,-1.00917 5.0473995,1.0091705 0 0 1 5.0474,-1.009171 5.0473995,1.0091705 0 0 1 5.047399,1.009171 z"
         id="path4376" /><path
         inkscape:connector-curvature="0"
         transform="matrix(0.78130533,0,0,0.78660872,39.546544,29.450604)"
         style="clip-rule:evenodd;fill:none;fill-rule:evenodd;stroke:#ffffff;stroke-width:0.29624087;image-rendering:optimizeQuality;shape-rendering:geometricPrecision;text-rendering:geometricPrecision"
         d="m 159.30686,71.047638 a 2.8415008,5.3189845 0 0 1 -2.8415,5.318984 2.8415008,5.3189845 0 0 1 -2.8415,-5.318984 2.8415008,5.3189845 0 0 1 2.8415,-5.318985 2.8415008,5.3189845 0 0 1 2.8415,5.318985 z"
         id="path4851" /></g></g></g></svg>