<?xml version="1.0" encoding="UTF-8" standalone="no"?>
<!-- Created with Inkscape (http://www.inkscape.org/) -->

<svg
   xmlns:dc="http://purl.org/dc/elements/1.1/"
   xmlns:cc="http://creativecommons.org/ns#"
   xmlns:rdf="http://www.w3.org/1999/02/22-rdf-syntax-ns#"
   xmlns:svg="http://www.w3.org/2000/svg"
   xmlns="http://www.w3.org/2000/svg"
   xmlns:sodipodi="http://sodipodi.sourceforge.net/DTD/sodipodi-0.dtd"
   xmlns:inkscape="http://www.inkscape.org/namespaces/inkscape"
   version="1.1"
   id="svg2"
   width="157.65544"
   height="72.085625"
   viewBox="0 0 157.65544 72.085624"
   sodipodi:docname="neogeox.svg"
   inkscape:version="0.92.4 (5da689c313, 2019-01-14)">
  <metadata
     id="metadata8">
    <rdf:RDF>
      <cc:Work
         rdf:about="">
        <dc:format>image/svg+xml</dc:format>
        <dc:type
           rdf:resource="http://purl.org/dc/dcmitype/StillImage" />
        <dc:title></dc:title>
      </cc:Work>
    </rdf:RDF>
  </metadata>
  <defs
     id="defs6" />
  <sodipodi:namedview
     pagecolor="#ffffff"
     bordercolor="#666666"
     borderopacity="1"
     objecttolerance="10"
     gridtolerance="10"
     guidetolerance="10"
     inkscape:pageopacity="0"
     inkscape:pageshadow="2"
     inkscape:window-width="1600"
     inkscape:window-height="837"
     id="namedview4"
     showgrid="false"
     inkscape:zoom="3.1079643"
     inkscape:cx="4.5171593"
     inkscape:cy="36.672927"
     inkscape:window-x="-8"
     inkscape:window-y="-8"
     inkscape:window-maximized="1"
     inkscape:current-layer="g212"
     inkscape:pagecheckerboard="true" />
  <g
     id="g212"
     transform="translate(-0.53578978,0.56737942)">
    <path
       style="fill:none;stroke:#ffffff;stroke-width:0.31999999"
       d="m 13.443509,71.077686 c 0,-0.154307 -1.69918,-0.341139 -3.7759598,-0.415184 -3.19552,-0.113933 -4.01939,-0.25527 -5.35954,-0.919443 -1.87143,-0.927472 -2.858,-2.281335 -3.33429997,-4.575651 -0.23819,-1.14737 -0.31926,-10.596759 -0.25859,-30.140263 0.10075,-32.4500861 -0.10394,-30.1366831 2.87476997,-32.4912141 2.28358,-1.805069 4.51728,-2.265747 13.1336198,-2.708685 l 4.4,-0.226189 v 0.838594 c 0,0.780557 0.0997,0.838595 1.44,0.838595 1.06667,0 1.44,-0.124444 1.44,-0.48 0,-0.407273 0.8,-0.48 5.28,-0.48 4.48,0 5.28,0.07273 5.28,0.48 0,0.424381 5.19111,0.48 44.799999,0.48 39.608892,0 44.800002,-0.05562 44.800002,-0.48 0,-0.407273 0.8,-0.48 5.28,-0.48 4.48,0 5.28,0.07273 5.28,0.48 0,0.355556 0.37333,0.48 1.44,0.48 1.34034,0 1.44,-0.05804 1.44,-0.838595 v -0.838594 l 4.4,0.226189 c 8.61634,0.442938 10.85004,0.903616 13.13362,2.708685 2.97871,2.354531 2.77402,0.04113 2.87476,32.4912141 0.0607,19.543504 -0.0204,28.992893 -0.25858,30.140263 -0.47631,2.294316 -1.46287,3.648179 -3.3343,4.575651 -1.34015,0.664173 -2.16402,0.80551 -5.35954,0.919443 -2.07678,0.07404 -3.77596,0.260877 -3.77596,0.415184 0,0.154307 -1.512,0.28056 -3.36,0.28056 -2.02667,0 -3.36,-0.126986 -3.36,-0.32 0,-0.176 -0.504,-0.32 -1.12,-0.32 -0.616,0 -1.12,0.144 -1.12,0.32 0,0.193014 -1.33333,0.32 -3.36,0.32 -2.02667,0 -3.36,-0.126986 -3.36,-0.32 0,-0.211974 -16.96,-0.32 -50.240002,-0.32 -33.279999,0 -50.239999,0.108026 -50.239999,0.32 0,0.193014 -1.33333,0.32 -3.36,0.32 -2.02667,0 -3.36,-0.126986 -3.36,-0.32 0,-0.176 -0.504,-0.32 -1.12,-0.32 -0.616,0 -1.12,0.144 -1.12,0.32 0,0.193014 -1.33333,0.32 -3.36,0.32 -1.848,0 -3.36,-0.126253 -3.36,-0.28056 z m 6.4,-0.35944 c 0,-0.190877 -1.22667,-0.32 -3.04,-0.32 -1.81333,0 -3.04,0.129123 -3.04,0.32 0,0.190877 1.22667,0.32 3.04,0.32 1.81333,0 3.04,-0.129123 3.04,-0.32 z m 8.96,0 c 0,-0.190877 -1.22667,-0.32 -3.04,-0.32 -1.81333,0 -3.04,0.129123 -3.04,0.32 0,0.190877 1.22667,0.32 3.04,0.32 1.81333,0 3.04,-0.129123 3.04,-0.32 z m 107.200001,0 c 0,-0.190877 -1.22667,-0.32 -3.04,-0.32 -1.81333,0 -3.04,0.129123 -3.04,0.32 0,0.190877 1.22667,0.32 3.04,0.32 1.81333,0 3.04,-0.129123 3.04,-0.32 z m 8.96,0 c 0,-0.190877 -1.22667,-0.32 -3.04,-0.32 -1.81333,0 -3.04,0.129123 -3.04,0.32 0,0.190877 1.22667,0.32 3.04,0.32 1.81333,0 3.04,-0.129123 3.04,-0.32 z m 9.44,-1.28 c 1.28,-0.64 1.76,-1.12 2.4,-2.4 l 0.8,-1.6 0.0884,-28.468899 c 0.0607,-19.543505 -0.0204,-28.9928931 -0.2586,-30.1402621 -0.422,-2.032706 -1.52124,-3.754724 -2.48554,-3.893717 -0.39256,-0.05658 -0.63491,-0.230451 -0.53854,-0.386372 0.25344,-0.410088 -1.33208,-1.14227 -3.36572,-1.55426 -1.69106,-0.342586 -9.43158,-0.987855 -11.92,-0.993681 -1.05678,-0.0025 -1.2,0.08959 -1.2,0.77141 v 0.77422 l 7.44,0.121509 c 5.00802,0.08179 7.7015,0.25007 8.24,0.514807 l 0.8,0.393298 -0.8,-0.205019 c -1.94551,-0.498584 -22.50888,-0.68959 -74.240002,-0.68959 -51.731119,0 -72.2944888,0.191006 -74.2399988,0.68959 l -0.8,0.205019 0.8,-0.393298 c 0.5385,-0.264737 3.23198,-0.433016 8.2399998,-0.514807 l 7.44,-0.121509 v -0.77422 c 0,-0.681819 -0.14322,-0.773884 -1.2,-0.77141 -2.48842,0.0058 -10.2289498,0.651095 -11.9199998,0.993681 -2.03364,0.41199 -3.61917,1.144172 -3.36572,1.55426 0.0964,0.155921 -0.14598,0.329789 -0.53854,0.386372 -0.96431,0.138993 -2.06355,1.861011 -2.48554,3.893717 -0.23819,1.147369 -0.31925997,10.5967571 -0.25859,30.1402621 0.0881,28.390931 0.0903,28.472989 0.77846,29.96191 0.78482,1.698029 1.76462,2.453565 3.90149,3.008483 1.14438,0.297184 18.3162298,0.376359 74.2884388,0.342519 l 72.800002,-0.04401 z M 6.3131092,69.410681 c -2.15678,-0.51096 -3.12686,-1.213862 -3.85764,-2.795155 l -0.69196,-1.49728 v -29.12 -29.1200001 l 0.70752,-1.532475 c 0.57744,-1.2507 0.9893,-1.662568 2.24,-2.24 l 1.53248,-0.707525 H 79.363508 152.48351 l 1.53248,0.707525 c 1.25069,0.577432 1.66256,0.9893 2.24,2.24 l 0.70752,1.532475 v 29.1200001 29.12 l -0.70752,1.532477 c -0.57744,1.250697 -0.98931,1.662566 -2.24,2.24 l -1.53248,0.707523 -72.480002,0.04959 C 38.204019,69.676446 7.0111492,69.576046 6.3131092,69.410677 Z M 153.96339,68.593984 c 1.2522,-0.578986 1.57222,-0.923616 2.08,-2.24 0.57095,-1.480103 0.60012,-2.963696 0.60012,-30.515738 0,-28.9097061 -0.001,-28.9625701 -0.68426,-30.4398851 -0.57899,-1.2522 -0.92362,-1.572214 -2.24,-2.08 -1.5049,-0.580503 -3.93493,-0.600115 -74.355742,-0.600115 -70.4208088,0 -72.8508388,0.01961 -74.3557388,0.600115 -1.31638,0.507786 -1.66101,0.8278 -2.24,2.08 -0.68307,1.477315 -0.68426,1.530179 -0.68426,30.4398851 0,27.359098 0.0326,29.044403 0.58907,30.486816 0.6269,1.624861 1.44332,2.245078 3.64053,2.765619 0.69804,0.165373 31.8909098,0.26576 73.6903988,0.237159 L 152.48351,69.27825 Z M 5.5865592,63.019513 c -0.63851,-0.705536 -0.44568,-1.379696 0.5796,-2.026429 0.38808,-0.244793 0.68689,-0.176796 1.17862,0.268212 0.81237,0.735187 0.83057,1.202246 0.0735,1.887353 -0.76506,0.692368 -1.11033,0.668026 -1.83175,-0.129136 z m 1.89723,-0.375264 c 0.26838,-0.426176 0.22664,-0.676221 -0.18089,-1.083757 -0.95863,-0.958627 -2.38884,0.294231 -1.52462,1.335552 0.49757,0.59953 1.23826,0.49018 1.70551,-0.251795 z m -1.89723,-3.784736 c -0.63851,-0.705536 -0.44568,-1.379696 0.5796,-2.026429 0.38808,-0.244793 0.68689,-0.176796 1.17862,0.268212 0.81237,0.735187 0.83057,1.202246 0.0735,1.887353 -0.76506,0.692368 -1.11033,0.668026 -1.83175,-0.129136 z m 1.89723,-0.375264 c 0.26838,-0.426176 0.22664,-0.676221 -0.18089,-1.083757 -0.95863,-0.958627 -2.38884,0.294231 -1.52462,1.335552 0.49757,0.59953 1.23826,0.49018 1.70551,-0.251795 z M 34.563509,33.438246 V 7.3582459 h 44.799999 44.800002 v 26.0800001 26.08 H 79.363508 34.563509 Z m 89.280001,0 V 7.6782459 H 79.363508 34.883509 v 25.7600001 25.76 H 79.363508 123.84351 Z M 22.058889,53.14286 c -0.51446,-0.51446 -0.93538,-1.245536 -0.93538,-1.624614 0,-0.379078 0.42092,-1.110154 0.93538,-1.624614 0.8709,-0.8709 1.10424,-0.935386 3.38462,-0.935386 2.28038,0 2.51372,0.06449 3.38461,0.935386 0.51447,0.51446 0.93539,1.245536 0.93539,1.624614 0,0.379078 -0.42092,1.110154 -0.93539,1.624614 -0.87089,0.8709 -1.10423,0.935386 -3.38461,0.935386 -2.28038,0 -2.51372,-0.06449 -3.38462,-0.935386 z m 6.59916,-0.17007 c 0.99668,-0.996675 0.99668,-1.912413 0,-2.909088 -0.69597,-0.695978 -1.06217,-0.785456 -3.21454,-0.785456 -2.15237,0 -2.51857,0.08948 -3.21455,0.785456 -0.432,0.432 -0.78545,1.086544 -0.78545,1.454544 0,0.368 0.35345,1.022544 0.78545,1.454544 0.69598,0.695978 1.06218,0.785456 3.21455,0.785456 2.15237,0 2.51857,-0.08948 3.21454,-0.785456 z m -6.25454,-0.174544 c -0.352,-0.352 -0.64,-0.928 -0.64,-1.28 0,-1.351782 1.08908,-1.92 3.68,-1.92 2.59091,0 3.68,0.568218 3.68,1.92 0,1.351782 -1.08909,1.92 -3.68,1.92 -1.97333,0 -2.51378,-0.113779 -3.04,-0.64 z m 5.89714,-0.182858 c 0.27657,-0.276569 0.50286,-0.770284 0.50286,-1.097142 0,-1.186797 -0.86773,-1.6 -3.36,-1.6 -2.49227,0 -3.36,0.413203 -3.36,1.6 0,1.186797 0.86773,1.6 3.36,1.6 1.71359,0 2.49113,-0.136848 2.85714,-0.502858 z M 129.8989,53.14286 c -0.51447,-0.51446 -0.93539,-1.245536 -0.93539,-1.624614 0,-0.379078 0.42092,-1.110154 0.93539,-1.624614 0.87089,-0.8709 1.10423,-0.935386 3.38461,-0.935386 2.28038,0 2.51372,0.06449 3.38461,0.935386 0.51447,0.51446 0.93539,1.245536 0.93539,1.624614 0,0.379078 -0.42092,1.110154 -0.93539,1.624614 -0.87089,0.8709 -1.10423,0.935386 -3.38461,0.935386 -2.28038,0 -2.51372,-0.06449 -3.38461,-0.935386 z m 6.59915,-0.17007 c 0.432,-0.432 0.78546,-1.086544 0.78546,-1.454544 0,-0.368 -0.35346,-1.022544 -0.78546,-1.454544 -0.69597,-0.695978 -1.06217,-0.785456 -3.21454,-0.785456 -2.15237,0 -2.51857,0.08948 -3.21454,0.785456 -0.432,0.432 -0.78546,1.086544 -0.78546,1.454544 0,0.368 0.35346,1.022544 0.78546,1.454544 0.69597,0.695978 1.06217,0.785456 3.21454,0.785456 2.15237,0 2.51857,-0.08948 3.21454,-0.785456 z m -6.25454,-0.174544 c -0.352,-0.352 -0.64,-0.928 -0.64,-1.28 0,-1.351782 1.08908,-1.92 3.68,-1.92 2.59092,0 3.68,0.568218 3.68,1.92 0,1.351782 -1.08908,1.92 -3.68,1.92 -1.97333,0 -2.51378,-0.113779 -3.04,-0.64 z m 5.89714,-0.182858 c 0.27658,-0.276569 0.50286,-0.770284 0.50286,-1.097142 0,-1.186797 -0.86773,-1.6 -3.36,-1.6 -2.49227,0 -3.36,0.413203 -3.36,1.6 0,1.186797 0.86773,1.6 3.36,1.6 1.71359,0 2.49113,-0.136848 2.85714,-0.502858 z m 2.41066,-14.617142 c -1.53697,-0.77505 -2.8678,-2.816912 -2.8678,-4.4 0,-0.453414 0.324,-1.466902 0.72,-2.252195 0.77505,-1.536973 2.81691,-2.867805 4.4,-2.867805 0.45341,0 1.4669,0.324 2.2522,0.72 1.53697,0.77505 2.8678,2.816912 2.8678,4.4 0,1.583088 -1.33083,3.62495 -2.8678,4.4 -0.7853,0.396 -1.79879,0.72 -2.2522,0.72 -0.45341,0 -1.4669,-0.324 -2.2522,-0.72 z m 4.42301,-0.236221 c 1.04649,-0.474969 1.518,-0.94648 1.99297,-1.992973 0.78267,-1.724451 0.78267,-2.617161 0,-4.341613 -0.47497,-1.046491 -0.94648,-1.518004 -1.99297,-1.992972 -1.72445,-0.782673 -2.61717,-0.782673 -4.34162,0 -1.04649,0.474968 -1.518,0.946481 -1.99297,1.992972 -0.34219,0.753943 -0.62217,1.730807 -0.62217,2.170807 0,0.44 0.27998,1.416864 0.62217,2.170806 0.47497,1.046493 0.94648,1.518004 1.99297,1.992973 1.72445,0.782672 2.61717,0.782672 4.34162,0 z m -4.10046,-0.403779 c -1.14194,-0.576874 -1.54886,-1.022154 -2.04703,-2.24 -0.61525,-1.504086 -0.61527,-1.535914 -0.002,-3.04 0.51192,-1.255045 0.88854,-1.653218 2.1606,-2.284249 1.39017,-0.689622 1.66733,-0.726283 2.83834,-0.375438 1.63997,0.491345 2.66526,1.510551 3.15121,3.132493 0.33228,1.10906 0.29639,1.46185 -0.28163,2.76857 -0.52595,1.189002 -0.94549,1.626016 -2.03625,2.121059 -1.75339,0.795783 -2.05814,0.789143 -3.78346,-0.08244 z m 3.73052,-0.213862 c 1.07246,-0.487005 1.42809,-0.880573 1.89102,-2.092746 0.55226,-1.446054 0.55074,-1.539818 -0.0485,-2.985584 -0.5248,-1.266305 -0.84794,-1.587686 -2.13102,-2.119446 -1.50181,-0.622407 -1.52303,-0.622407 -3.02484,0 -1.28308,0.53176 -1.60622,0.853141 -2.13102,2.119446 -0.59919,1.445766 -0.60071,1.53953 -0.0485,2.985584 0.46293,1.212173 0.81856,1.605741 1.89102,2.092746 0.72648,0.329894 1.53687,0.599808 1.80087,0.599808 0.264,0 1.07439,-0.269914 1.80087,-0.599808 z M 12.824879,35.04063 C 8.3784692,33.389888 6.0196992,30.958043 4.4999292,26.457749 c -1.1986,-3.549254 -0.64148,-7.243887 1.68,-11.141141 1.81833,-3.052569 6.8454298,-5.7183621 10.7835798,-5.7183621 3.93815,0 8.96525,2.6657931 10.78358,5.7183621 2.32148,3.897254 2.8786,7.591887 1.68,11.141141 -1.09973,3.256454 -2.4734,5.22619 -4.6731,6.700827 -4.01911,2.694329 -8.03468,3.327868 -11.92911,1.882054 z m 7.90778,-0.188819 c 4.50515,-1.521411 6.62619,-3.617913 8.28572,-8.189859 1.3153,-3.623625 0.78922,-7.322039 -1.6283,-11.447237 -1.59737,-2.725709 -6.65814,-5.2964691 -10.42657,-5.2964691 -3.76843,0 -8.8291998,2.5707601 -10.4265698,5.2964691 -2.41753,4.125198 -2.9436,7.823612 -1.6283,11.447237 1.18588,3.26705 2.30904,4.912929 4.21718,6.179868 3.9093798,2.59568 7.8511898,3.278295 11.6068398,2.009991 z m -7.85662,-1.392659 c -3.8772598,-1.440346 -5.2156198,-2.767624 -6.4715098,-6.41795 -1.31769,-3.82992 -1.06939,-6.824039 0.88924,-10.722956 2.02764,-4.036308 8.4140898,-6.17811 13.3540698,-4.478509 4.06838,1.399728 5.60125,2.854353 6.8584,6.508311 1.33493,3.880045 1.09379,6.855061 -0.87299,10.770198 -2.09768,4.175725 -8.64264,6.240899 -13.75721,4.340906 z m 8.08231,-0.304599 c 4.15601,-1.508553 5.52912,-3.083704 6.71541,-7.703539 0.61154,-2.381531 0.61154,-3.084005 0,-5.465536 -1.18629,-4.619835 -2.5594,-6.194986 -6.71541,-7.703539 -2.75821,-1.001175 -5.23147,-1.001175 -7.98968,0 -4.1560098,1.508553 -5.5291198,3.083704 -6.7154198,7.703539 -0.61153,2.381531 -0.61153,3.084005 0,5.465536 1.17659,4.582039 2.54845,6.17458 6.6227898,7.688138 2.70429,1.004604 5.34323,1.009635 8.08231,0.01539 z m -7.46745,-1.749205 c -3.13964,-1.119811 -4.4263798,-2.561665 -5.5307098,-6.197419 -0.72973,-2.402496 -0.66634,-3.344214 0.42069,-6.249564 1.38629,-3.705187 4.0218298,-5.347198 8.5826298,-5.347198 4.6081,0 7.15768,1.613827 8.65886,5.480851 1.30938,3.372957 0.62739,7.578994 -1.64934,10.172048 -2.05902,2.345093 -7.05137,3.364929 -10.48213,2.141282 z m 8.1733,-0.877803 c 2.19378,-1.096469 3.04723,-2.240041 3.99125,-5.348015 0.59373,-1.954711 0.62819,-2.417038 0.29213,-3.918723 -0.55679,-2.488009 -1.92959,-4.986285 -3.20397,-5.830701 -2.92771,-1.939945 -7.22817,-2.147895 -10.50767,-0.508101 -2.16483,1.082444 -3.0238298,2.238426 -3.9643698,5.334957 -0.59373,1.954711 -0.62819,2.417038 -0.29213,3.918723 0.50057,2.236783 1.89158,4.915787 2.9514598,5.684351 2.80931,2.037148 7.41934,2.323848 10.7333,0.667509 z m -7.74069,-1.694113 c -0.704,-0.324917 -1.5943,-0.933754 -1.97845,-1.352972 -0.91626,-0.999914 -2.0215498,-3.613185 -2.0215498,-4.779619 0,-1.226935 1.3203398,-4.125188 2.2811498,-5.007322 2.44779,-2.247342 7.06991,-2.247342 9.5177,0 0.96661,0.887455 2.28115,3.783017 2.28115,5.024727 0,1.24171 -1.31454,4.137272 -2.28115,5.024727 -1.8637,1.711084 -5.3868,2.203694 -7.79885,1.090459 z m 5.83856,-0.20739 c 0.64791,-0.270712 1.45608,-0.738712 1.79593,-1.04 0.83151,-0.737156 2.12551,-3.70064 2.12551,-4.867796 0,-1.167156 -1.294,-4.13064 -2.12551,-4.867796 -2.26722,-2.009945 -6.92176,-2.009945 -9.18898,0 -0.82604,0.732306 -2.12551,3.697677 -2.12551,4.850391 0,1.066386 1.0757,3.735673 1.86287,4.622599 1.45985,1.644847 5.28067,2.294952 7.65569,1.302602 z m 110.789241,0.732204 c -1.53697,-0.77505 -2.8678,-2.816912 -2.8678,-4.4 0,-0.453415 0.324,-1.466903 0.72,-2.252195 0.77505,-1.536973 2.81691,-2.867805 4.4,-2.867805 1.58309,0 3.62495,1.330832 4.4,2.867805 0.396,0.785292 0.72,1.79878 0.72,2.252195 0,1.583088 -1.33083,3.62495 -2.8678,4.4 -0.7853,0.396 -1.79879,0.72 -2.2522,0.72 -0.45341,0 -1.4669,-0.324 -2.2522,-0.72 z m 4.42301,-0.236221 c 1.04649,-0.474968 1.518,-0.946481 1.99297,-1.992972 0.78267,-1.724452 0.78267,-2.617162 0,-4.341614 -0.47497,-1.046491 -0.94648,-1.518004 -1.99297,-1.992972 -1.72445,-0.782673 -2.61717,-0.782673 -4.34162,0 -1.04649,0.474968 -1.518,0.946481 -1.99297,1.992972 -0.34219,0.753944 -0.62217,1.730807 -0.62217,2.170807 0,0.44 0.27998,1.416863 0.62217,2.170807 0.47497,1.046491 0.94648,1.518004 1.99297,1.992972 1.72445,0.782673 2.61717,0.782673 4.34162,0 z m -4.10046,-0.403779 c -1.14194,-0.576874 -1.54886,-1.022155 -2.04703,-2.24 -0.61525,-1.504087 -0.61527,-1.535913 -0.002,-3.04 0.51192,-1.255045 0.88854,-1.653218 2.1606,-2.284249 1.39017,-0.689622 1.66733,-0.726283 2.83834,-0.375438 1.63997,0.491345 2.66526,1.510551 3.15121,3.132493 0.33228,1.109058 0.29639,1.461851 -0.28163,2.768571 -0.52595,1.189 -0.94549,1.626016 -2.03625,2.121059 -1.75339,0.795783 -2.05814,0.789143 -3.78346,-0.08244 z m 3.73052,-0.213862 c 1.07246,-0.487005 1.42809,-0.880574 1.89102,-2.092747 0.55226,-1.446055 0.55074,-1.539815 -0.0485,-2.985582 -0.5248,-1.266306 -0.84794,-1.587687 -2.13102,-2.119447 -1.50181,-0.622407 -1.52303,-0.622407 -3.02484,0 -1.28308,0.53176 -1.60622,0.853141 -2.13102,2.119447 -0.59919,1.445767 -0.60071,1.539527 -0.0485,2.985582 0.46293,1.212173 0.81856,1.605742 1.89102,2.092747 0.72648,0.329893 1.53687,0.599806 1.80087,0.599806 0.264,0 1.07439,-0.269913 1.80087,-0.599806 z m 11.94693,0.853862 c -1.53697,-0.77505 -2.8678,-2.816912 -2.8678,-4.4 0,-1.583088 1.33083,-3.62495 2.8678,-4.4 0.7853,-0.396 1.79879,-0.72 2.2522,-0.72 0.45341,0 1.4669,0.324 2.2522,0.72 1.53697,0.77505 2.8678,2.816912 2.8678,4.4 0,1.583088 -1.33083,3.62495 -2.8678,4.4 -0.7853,0.396 -1.79879,0.72 -2.2522,0.72 -0.45341,0 -1.4669,-0.324 -2.2522,-0.72 z m 4.42301,-0.236221 c 1.04649,-0.474968 1.518,-0.946481 1.99297,-1.992972 0.78267,-1.724452 0.78267,-2.617162 0,-4.341614 -0.47497,-1.046491 -0.94648,-1.518004 -1.99297,-1.992972 -1.72445,-0.782673 -2.61717,-0.782673 -4.34162,0 -1.04649,0.474968 -1.518,0.946481 -1.99297,1.992972 -0.34219,0.753944 -0.62217,1.730807 -0.62217,2.170807 0,0.44 0.27998,1.416863 0.62217,2.170807 0.47497,1.046491 0.94648,1.518004 1.99297,1.992972 1.72445,0.782673 2.61717,0.782673 4.34162,0 z m -4.10046,-0.403779 c -1.14194,-0.576874 -1.54886,-1.022155 -2.04703,-2.24 -0.61525,-1.504087 -0.61527,-1.535913 -0.002,-3.04 0.51192,-1.255045 0.88854,-1.653218 2.1606,-2.284249 1.39017,-0.689622 1.66733,-0.726283 2.83834,-0.375438 1.63997,0.491345 2.66526,1.510551 3.15121,3.132493 0.33228,1.109058 0.29639,1.461851 -0.28163,2.768571 -0.52595,1.189 -0.94549,1.626016 -2.03625,2.121059 -1.75339,0.795783 -2.05814,0.789143 -3.78346,-0.08244 z m 3.73052,-0.213862 c 1.07246,-0.487005 1.42809,-0.880574 1.89102,-2.092747 0.55226,-1.446055 0.55074,-1.539815 -0.0485,-2.985582 -0.5248,-1.266306 -0.84794,-1.587687 -2.13102,-2.119447 -1.50181,-0.622407 -1.52303,-0.622407 -3.02484,0 -1.28308,0.53176 -1.60622,0.853141 -2.13102,2.119447 -0.59919,1.445767 -0.60071,1.539527 -0.0485,2.985582 0.46293,1.212173 0.81856,1.605742 1.89102,2.092747 0.72648,0.329893 1.53687,0.599806 1.80087,0.599806 0.264,0 1.07439,-0.269913 1.80087,-0.599806 z m -12.05307,-7.786138 c -1.53697,-0.77505 -2.8678,-2.816912 -2.8678,-4.4 0,-1.583088 1.33083,-3.62495 2.8678,-4.4 0.7853,-0.396 1.79879,-0.72 2.2522,-0.72 0.45341,0 1.4669,0.324 2.2522,0.72 1.53697,0.77505 2.8678,2.816912 2.8678,4.4 0,1.583088 -1.33083,3.62495 -2.8678,4.4 -0.7853,0.396 -1.79879,0.72 -2.2522,0.72 -0.45341,0 -1.4669,-0.324 -2.2522,-0.72 z m 4.42301,-0.236221 c 1.04649,-0.474968 1.518,-0.946481 1.99297,-1.992972 0.78267,-1.724452 0.78267,-2.617162 0,-4.341614 -0.47497,-1.046491 -0.94648,-1.518004 -1.99297,-1.992972 -1.72445,-0.782673 -2.61717,-0.782673 -4.34162,0 -1.04649,0.474968 -1.518,0.946481 -1.99297,1.992972 -0.34219,0.753944 -0.62217,1.730807 -0.62217,2.170807 0,0.44 0.27998,1.416863 0.62217,2.170807 0.47497,1.046491 0.94648,1.518004 1.99297,1.992972 0.75395,0.342191 1.73081,0.622165 2.17081,0.622165 0.44,0 1.41686,-0.279974 2.17081,-0.622165 z m -4.10046,-0.403779 c -1.14194,-0.576874 -1.54886,-1.022155 -2.04703,-2.24 -0.61525,-1.504087 -0.61527,-1.535913 -0.002,-3.04 0.51192,-1.255045 0.88854,-1.653218 2.1606,-2.284249 1.39017,-0.689622 1.66733,-0.726283 2.83834,-0.375438 1.63997,0.491345 2.66526,1.510551 3.15121,3.132493 0.33228,1.109058 0.29639,1.461851 -0.28163,2.768571 -0.52595,1.189 -0.94549,1.626016 -2.03625,2.121059 -1.75339,0.795783 -2.05814,0.789143 -3.78346,-0.08244 z m 3.73052,-0.213862 c 1.07246,-0.487005 1.42809,-0.880574 1.89102,-2.092747 0.55226,-1.446055 0.55074,-1.539815 -0.0485,-2.985582 -0.5248,-1.266306 -0.84794,-1.587687 -2.13102,-2.119447 -1.50181,-0.622407 -1.52303,-0.622407 -3.02484,0 -1.28308,0.53176 -1.60622,0.853141 -2.13102,2.119447 -0.59919,1.445767 -0.60071,1.539527 -0.0485,2.985582 0.46293,1.212173 0.81856,1.605742 1.89102,2.092747 0.72648,0.329893 1.53687,0.599806 1.80087,0.599806 0.264,0 1.07439,-0.269913 1.80087,-0.599806 z M 34.243509,1.1182459 c 0,-0.406021 -0.76445,-0.48 -4.96,-0.48 -4.19556,0 -4.96,0.07398 -4.96,0.48 0,0.406022 0.76444,0.48 4.96,0.48 4.19555,0 4.96,-0.07398 4.96,-0.48 z m 100.160001,0 c 0,-0.406021 -0.76444,-0.48 -4.96,-0.48 -4.19556,0 -4.96,0.07398 -4.96,0.48 0,0.406022 0.76444,0.48 4.96,0.48 4.19556,0 4.96,-0.07398 4.96,-0.48 z"
       id="path214"
       inkscape:connector-curvature="0" />
  </g>
</svg>
