<?xml version="1.0" encoding="UTF-8" standalone="no"?>
<svg
   xmlns:dc="http://purl.org/dc/elements/1.1/"
   xmlns:cc="http://creativecommons.org/ns#"
   xmlns:rdf="http://www.w3.org/1999/02/22-rdf-syntax-ns#"
   xmlns:svg="http://www.w3.org/2000/svg"
   xmlns="http://www.w3.org/2000/svg"
   xmlns:sodipodi="http://sodipodi.sourceforge.net/DTD/sodipodi-0.dtd"
   xmlns:inkscape="http://www.inkscape.org/namespaces/inkscape"
   viewBox="0 0 553.11457 210.40234"
   height="210.40234"
   width="553.11456"
   xml:space="preserve"
   version="1.1"
   id="svg2"
   sodipodi:docname="openbor.svg"
   inkscape:version="0.92.4 (5da689c313, 2019-01-14)"><sodipodi:namedview
     pagecolor="#ffffff"
     bordercolor="#666666"
     borderopacity="1"
     objecttolerance="10"
     gridtolerance="10"
     guidetolerance="10"
     inkscape:pageopacity="0"
     inkscape:pageshadow="2"
     inkscape:window-width="1600"
     inkscape:window-height="837"
     id="namedview298"
     showgrid="false"
     inkscape:pagecheckerboard="true"
     borderlayer="false"
     inkscape:zoom="1.1985103"
     inkscape:cx="276.93997"
     inkscape:cy="104.2087"
     inkscape:window-x="-8"
     inkscape:window-y="-8"
     inkscape:window-maximized="1"
     inkscape:current-layer="g10" /><metadata
     id="metadata8"><rdf:RDF><cc:Work
         rdf:about=""><dc:format>image/svg+xml</dc:format><dc:type
           rdf:resource="http://purl.org/dc/dcmitype/StillImage" /><dc:title></dc:title></cc:Work></rdf:RDF></metadata><defs
     id="defs6"><clipPath
       id="clipPath16"
       clipPathUnits="userSpaceOnUse"><path
         id="path18"
         d="M 0,445.559 H 168.322 V 0 H 0 Z"
         inkscape:connector-curvature="0" /></clipPath><clipPath
       id="clipPath28"
       clipPathUnits="userSpaceOnUse"><path
         id="path30"
         d="M 91.6221,364.864 H 144.684 V 311.803 H 91.6221 Z"
         inkscape:connector-curvature="0" /></clipPath><clipPath
       id="clipPath52"
       clipPathUnits="userSpaceOnUse"><path
         id="path54"
         d="M 92.3097,364.024 H 143.844 V 312.49 H 92.3097 Z"
         inkscape:connector-curvature="0" /></clipPath><clipPath
       id="clipPath68"
       clipPathUnits="userSpaceOnUse"><path
         id="path70"
         d="m 84.911,371.422 h 66.331 V 305.091 H 84.911 Z"
         inkscape:connector-curvature="0" /></clipPath><clipPath
       id="clipPath88"
       clipPathUnits="userSpaceOnUse"><path
         id="path90"
         d="M 7.99342,160.329 H 162.206 V 6.11584 H 7.99342 Z"
         inkscape:connector-curvature="0" /></clipPath><linearGradient
       id="linearGradient144"
       spreadMethod="pad"
       gradientTransform="matrix(39.822853,39.822853,39.822853,-39.822853,65.123558,63.310898)"
       gradientUnits="userSpaceOnUse"
       y2="0"
       x2="1"
       y1="0"
       x1="0"><stop
         id="stop146"
         offset="0"
         style="stop-opacity:1;stop-color:#a6a8ab" /><stop
         id="stop148"
         offset="1"
         style="stop-opacity:1;stop-color:#e6e7e8" /></linearGradient><clipPath
       id="clipPath156"
       clipPathUnits="userSpaceOnUse"><path
         id="path158"
         d="M 0,445.559 H 168.322 V 0 H 0 Z"
         inkscape:connector-curvature="0" /></clipPath><clipPath
       id="clipPath164"
       clipPathUnits="userSpaceOnUse"><path
         id="path166"
         d="M 62.5988,105.659 H 107.471 V 60.786 H 62.5988 Z"
         inkscape:connector-curvature="0" /></clipPath><clipPath
       id="clipPath180"
       clipPathUnits="userSpaceOnUse"><path
         id="path182"
         d="M 56.9234,111.205 H 113.017 V 55.1107 H 56.9234 Z"
         inkscape:connector-curvature="0" /></clipPath><clipPath
       id="clipPath184"
       clipPathUnits="userSpaceOnUse"><path
         id="path186"
         d="m 58.434,83.504 c 0,14.847 12.035,26.882 26.882,26.882 14.847,0 26.883,-12.035 26.883,-26.882 0,-14.847 -12.036,-26.883 -26.883,-26.883 -14.847,0 -26.882,12.036 -26.882,26.883 m 54.583,-0.346 c 0,15.49 -12.557,28.047 -28.047,28.047 -15.49,0 -28.047,-12.557 -28.047,-28.047 0,-15.49 12.557,-28.047 28.047,-28.047 15.49,0 28.047,12.557 28.047,28.047"
         inkscape:connector-curvature="0" /></clipPath><linearGradient
       id="linearGradient192"
       spreadMethod="pad"
       gradientTransform="matrix(39.664417,-39.664417,-39.664417,-39.664417,65.138191,102.98982)"
       gradientUnits="userSpaceOnUse"
       y2="0"
       x2="1"
       y1="0"
       x1="0"><stop
         id="stop194"
         offset="0"
         style="stop-opacity:0;stop-color:#ffffff" /><stop
         id="stop196"
         offset="0.20751882"
         style="stop-opacity:1;stop-color:#ffffff" /><stop
         id="stop198"
         offset="0.5"
         style="stop-opacity:1;stop-color:#ffffff" /><stop
         id="stop200"
         offset="0.79248118"
         style="stop-opacity:1;stop-color:#ffffff" /><stop
         id="stop202"
         offset="1"
         style="stop-opacity:0;stop-color:#ffffff" /></linearGradient><mask
       id="mask204"
       height="1"
       width="1"
       y="0"
       x="0"
       maskUnits="userSpaceOnUse"><g
         id="g206"><g
           id="g208"><g
             id="g210"><g
               id="g212"><path
                 id="path214"
                 style="fill:url(#linearGradient192);stroke:none"
                 d="M -32768,32767 H 32767 V -32768 H -32768 Z"
                 inkscape:connector-curvature="0" /></g></g></g></g></mask><linearGradient
       id="linearGradient216"
       spreadMethod="pad"
       gradientTransform="matrix(39.664417,-39.664417,-39.664417,-39.664417,65.138191,102.98982)"
       gradientUnits="userSpaceOnUse"
       y2="0"
       x2="1"
       y1="0"
       x1="0"><stop
         id="stop218"
         offset="0"
         style="stop-opacity:1;stop-color:#231f20" /><stop
         id="stop220"
         offset="0.20751882"
         style="stop-opacity:1;stop-color:#231f20" /><stop
         id="stop222"
         offset="0.5"
         style="stop-opacity:1;stop-color:#231f20" /><stop
         id="stop224"
         offset="0.79248118"
         style="stop-opacity:1;stop-color:#231f20" /><stop
         id="stop226"
         offset="1"
         style="stop-opacity:1;stop-color:#231f20" /></linearGradient><clipPath
       id="clipPath250"
       clipPathUnits="userSpaceOnUse"><path
         id="path252"
         d="M 56.9238,111.205 H 113.018 V 55.111 H 56.9238 Z"
         inkscape:connector-curvature="0" /></clipPath><clipPath
       id="clipPath254"
       clipPathUnits="userSpaceOnUse"><path
         id="path256"
         d="m 111.507,82.812 c 0,-14.847 -12.036,-26.883 -26.882,-26.883 -14.847,0 -26.883,12.036 -26.883,26.883 0,14.847 12.036,26.883 26.883,26.883 14.846,0 26.882,-12.036 26.882,-26.883 m -54.583,0.346 c 0,-15.49 12.556,-28.047 28.047,-28.047 15.49,0 28.047,12.557 28.047,28.047 0,15.49 -12.557,28.047 -28.047,28.047 -15.491,0 -28.047,-12.557 -28.047,-28.047"
         inkscape:connector-curvature="0" /></clipPath><linearGradient
       id="linearGradient262"
       spreadMethod="pad"
       gradientTransform="matrix(-39.664425,39.664425,39.664425,39.664425,104.80286,63.325817)"
       gradientUnits="userSpaceOnUse"
       y2="0"
       x2="1"
       y1="0"
       x1="0"><stop
         id="stop264"
         offset="0"
         style="stop-opacity:0;stop-color:#ffffff" /><stop
         id="stop266"
         offset="0.5"
         style="stop-opacity:1;stop-color:#ffffff" /><stop
         id="stop268"
         offset="1"
         style="stop-opacity:0;stop-color:#ffffff" /></linearGradient><mask
       id="mask270"
       height="1"
       width="1"
       y="0"
       x="0"
       maskUnits="userSpaceOnUse"><g
         id="g272"><g
           id="g274"><g
             id="g276"><g
               id="g278"><path
                 id="path280"
                 style="fill:url(#linearGradient262);stroke:none"
                 d="M -32768,32767 H 32767 V -32768 H -32768 Z"
                 inkscape:connector-curvature="0" /></g></g></g></g></mask><linearGradient
       id="linearGradient282"
       spreadMethod="pad"
       gradientTransform="matrix(-39.664425,39.664425,39.664425,39.664425,104.80286,63.325817)"
       gradientUnits="userSpaceOnUse"
       y2="0"
       x2="1"
       y1="0"
       x1="0"><stop
         id="stop284"
         offset="0"
         style="stop-opacity:1;stop-color:#ffffff" /><stop
         id="stop286"
         offset="0.5"
         style="stop-opacity:1;stop-color:#ffffff" /><stop
         id="stop288"
         offset="1"
         style="stop-opacity:1;stop-color:#ffffff" /></linearGradient><clipPath
       id="clipPath316"
       clipPathUnits="userSpaceOnUse"><path
         id="path318"
         d="M 91.9548,294.602 H 145.017 V 241.54 H 91.9548 Z"
         inkscape:connector-curvature="0" /></clipPath><clipPath
       id="clipPath340"
       clipPathUnits="userSpaceOnUse"><path
         id="path342"
         d="M 92.6425,293.762 H 144.176 V 242.228 H 92.6425 Z"
         inkscape:connector-curvature="0" /></clipPath><clipPath
       id="clipPath356"
       clipPathUnits="userSpaceOnUse"><path
         id="path358"
         d="M 85.2437,301.16 H 151.575 V 234.829 H 85.2437 Z"
         inkscape:connector-curvature="0" /></clipPath><clipPath
       id="clipPath376"
       clipPathUnits="userSpaceOnUse"><path
         id="path378"
         d="M 91.1369,435.126 H 144.199 V 382.065 H 91.1369 Z"
         inkscape:connector-curvature="0" /></clipPath><clipPath
       id="clipPath396"
       clipPathUnits="userSpaceOnUse"><path
         id="path398"
         d="M 91.8246,434.286 H 143.358 V 382.752 H 91.8246 Z"
         inkscape:connector-curvature="0" /></clipPath><clipPath
       id="clipPath412"
       clipPathUnits="userSpaceOnUse"><path
         id="path414"
         d="M 84.4258,441.684 H 150.757 V 375.353 H 84.4258 Z"
         inkscape:connector-curvature="0" /></clipPath><clipPath
       id="clipPath432"
       clipPathUnits="userSpaceOnUse"><path
         id="path434"
         d="M 27.5181,329.248 H 80.5799 V 276.186 H 27.5181 Z"
         inkscape:connector-curvature="0" /></clipPath><clipPath
       id="clipPath456"
       clipPathUnits="userSpaceOnUse"><path
         id="path458"
         d="M 28.2057,328.408 H 79.7394 V 276.874 H 28.2057 Z"
         inkscape:connector-curvature="0" /></clipPath><clipPath
       id="clipPath472"
       clipPathUnits="userSpaceOnUse"><path
         id="path474"
         d="M 20.8069,335.806 H 87.1383 V 269.475 H 20.8069 Z"
         inkscape:connector-curvature="0" /></clipPath><clipPath
       id="clipPath492"
       clipPathUnits="userSpaceOnUse"><path
         id="path494"
         d="M 27.0329,399.51 H 80.0947 V 346.448 H 27.0329 Z"
         inkscape:connector-curvature="0" /></clipPath><clipPath
       id="clipPath516"
       clipPathUnits="userSpaceOnUse"><path
         id="path518"
         d="M 27.7205,398.67 H 79.2543 V 347.136 H 27.7205 Z"
         inkscape:connector-curvature="0" /></clipPath><clipPath
       id="clipPath532"
       clipPathUnits="userSpaceOnUse"><path
         id="path534"
         d="M 20.3217,406.068 H 86.6531 V 339.737 H 20.3217 Z"
         inkscape:connector-curvature="0" /></clipPath><clipPath
       id="clipPath552"
       clipPathUnits="userSpaceOnUse"><path
         id="path554"
         d="M 26.9564,258.304 H 80.0183 V 205.242 H 26.9564 Z"
         inkscape:connector-curvature="0" /></clipPath><clipPath
       id="clipPath576"
       clipPathUnits="userSpaceOnUse"><path
         id="path578"
         d="M 27.644,257.464 H 79.1778 V 205.93 H 27.644 Z"
         inkscape:connector-curvature="0" /></clipPath><clipPath
       id="clipPath592"
       clipPathUnits="userSpaceOnUse"><path
         id="path594"
         d="M 20.2453,264.862 H 86.5767 V 198.531 H 20.2453 Z"
         inkscape:connector-curvature="0" /></clipPath></defs><g
     transform="matrix(-0.02384185,-1.2497726,-1.2497726,0.02384185,555.07929,208.39874)"
     id="g10"
     style="fill:none;stroke:#ffffff"><g
       id="g472"
       transform="translate(1.4471211,-8.0290621)"><g
         transform="matrix(0.96031574,0,0,0.96031574,0.25306165,17.640552)"
         style="fill:none;stroke:#ffffff"
         id="g12"><g
           style="fill:none;stroke:#ffffff"
           id="g14"
           clip-path="url(#clipPath16)"><g
             style="fill:none;stroke:#ffffff"
             id="g20"
             transform="translate(118.153,305.0354)"><path
               inkscape:connector-curvature="0"
               d="m 0,0 c -18.39,0 -33.298,14.908 -33.298,33.298 0,18.39 14.908,33.298 33.298,33.298 18.39,0 33.298,-14.908 33.298,-33.298 C 33.298,14.908 18.39,0 0,0"
               style="fill:none;fill-opacity:1;fill-rule:nonzero;stroke:#ffffff"
               id="path22" /></g><g
             style="fill:none;stroke:#ffffff"
             id="g24"><g
               style="fill:none;stroke:#ffffff"
               id="g26" /><g
               style="fill:none;stroke:#ffffff"
               id="g32"><g
                 clip-path="url(#clipPath28)"
                 id="g34"
                 style="opacity:0.30000299;fill:none;stroke:#ffffff"><g
                   style="fill:none;stroke:#ffffff"
                   transform="translate(118.153,311.8026)"
                   id="g36"><path
                     inkscape:connector-curvature="0"
                     d="m 0,0 c -14.653,0 -26.531,11.878 -26.531,26.531 0,14.652 11.878,26.531 26.531,26.531 14.653,0 26.531,-11.879 26.531,-26.531 C 26.531,11.878 14.653,0 0,0"
                     style="fill:none;fill-opacity:1;fill-rule:nonzero;stroke:#ffffff"
                     id="path38" /></g></g></g></g><g
             style="fill:none;stroke:#ffffff"
             id="g40"
             transform="translate(118.0767,312.4901)"><path
               inkscape:connector-curvature="0"
               d="m 0,0 c -14.231,0 -25.767,11.536 -25.767,25.767 0,14.231 11.536,25.767 25.767,25.767 14.231,0 25.767,-11.536 25.767,-25.767 C 25.767,11.536 14.231,0 0,0"
               style="fill:none;fill-opacity:1;fill-rule:nonzero;stroke:#ffffff"
               id="path42" /></g><g
             style="fill:none;stroke:#ffffff"
             id="g44"
             transform="translate(118.0767,312.4901)"><path
               inkscape:connector-curvature="0"
               d="m 0,0 c -14.231,0 -25.767,11.536 -25.767,25.767 0,14.231 11.536,25.767 25.767,25.767 14.231,0 25.767,-11.536 25.767,-25.767 C 25.767,11.536 14.231,0 0,0"
               style="fill:none;fill-opacity:1;fill-rule:nonzero;stroke:#ffffff"
               id="path46" /></g><g
             style="fill:none;stroke:#ffffff"
             id="g48"><g
               style="fill:none;stroke:#ffffff"
               id="g50" /><g
               style="fill:none;stroke:#ffffff"
               id="g56"><g
                 clip-path="url(#clipPath52)"
                 id="g58"
                 style="opacity:0.19999701;fill:none;stroke:#ffffff"><g
                   style="fill:none;stroke:#ffffff"
                   transform="translate(93.6971,338.575)"
                   id="g60"><path
                     inkscape:connector-curvature="0"
                     d="M 0,0 C 0,13.64 11.057,24.697 24.697,24.697 38.337,24.697 49.395,13.64 49.395,0 49.395,-13.64 38.337,-24.698 24.697,-24.698 11.057,-24.698 0,-13.64 0,0 m 50.146,-0.318 c 0,14.231 -11.536,25.767 -25.766,25.767 -14.231,0 -25.767,-11.536 -25.767,-25.767 0,-14.231 11.536,-25.767 25.767,-25.767 14.23,0 25.766,11.536 25.766,25.767"
                     style="fill:none;fill-opacity:1;fill-rule:nonzero;stroke:#ffffff"
                     id="path62" /></g></g></g></g><g
             style="fill:none;stroke:#ffffff"
             id="g64"><g
               style="fill:none;stroke:#ffffff"
               id="g66" /><g
               style="fill:none;stroke:#ffffff"
               id="g72"><g
                 clip-path="url(#clipPath68)"
                 id="g74"
                 style="opacity:0.14999402;fill:none;stroke:#ffffff"><g
                   style="fill:none;stroke:#ffffff"
                   transform="translate(86.6967,338.666)"
                   id="g76"><path
                     inkscape:connector-curvature="0"
                     d="M 0,0 C 0,17.557 14.233,31.789 31.789,31.789 49.346,31.789 63.578,17.557 63.578,0 63.578,-17.556 49.346,-31.789 31.789,-31.789 14.233,-31.789 0,-17.556 0,0 m 64.546,-0.409 c 0,18.317 -14.849,33.166 -33.166,33.166 -18.317,0 -33.166,-14.849 -33.166,-33.166 0,-18.317 14.849,-33.165 33.166,-33.165 18.317,0 33.166,14.848 33.166,33.165"
                     style="fill:none;fill-opacity:1;fill-rule:nonzero;stroke:#ffffff"
                     id="path78" /></g></g></g></g><g
             style="fill:none;stroke:#ffffff"
             id="g80"
             transform="translate(85.0995)"><path
               inkscape:connector-curvature="0"
               d="m 0,0 c -45.962,0 -83.222,37.26 -83.222,83.222 0,45.963 37.26,83.222 83.222,83.222 45.962,0 83.222,-37.259 83.222,-83.222 C 83.222,37.26 45.962,0 0,0"
               style="fill:none;fill-opacity:1;fill-rule:nonzero;stroke:#ffffff"
               id="path82" /></g><g
             style="fill:none;stroke:#ffffff"
             id="g84"><g
               style="fill:none;stroke:#ffffff"
               id="g86" /><g
               style="fill:none;stroke:#ffffff"
               id="g92"><g
                 clip-path="url(#clipPath88)"
                 id="g94"
                 style="opacity:0.10000598;fill:none;stroke:#ffffff"><g
                   style="fill:none;stroke:#ffffff"
                   transform="translate(85.0992,6.1158)"
                   id="g96"><path
                     inkscape:connector-curvature="0"
                     d="M 0,0 16.896,16.323 H 8.643 V 34.997 H -8.643 V 16.323 h -8.252 z"
                     style="fill:none;fill-opacity:1;fill-rule:nonzero;stroke:#ffffff"
                     id="path98" /></g><g
                   style="fill:none;stroke:#ffffff"
                   transform="translate(139.622,28.6993)"
                   id="g100"><path
                     inkscape:connector-curvature="0"
                     d="M 0,0 0.405,23.489 -5.43,17.654 -18.635,30.858 -30.858,18.635 -17.653,5.431 -23.489,-0.405 Z"
                     style="fill:none;fill-opacity:1;fill-rule:nonzero;stroke:#ffffff"
                     id="path102" /></g><g
                   style="fill:none;stroke:#ffffff"
                   transform="translate(162.2061,83.2215)"
                   id="g104"><path
                     inkscape:connector-curvature="0"
                     d="M 0,0 -16.323,16.896 V 8.644 H -34.997 V -8.643 h 18.674 v -8.252 z"
                     style="fill:none;fill-opacity:1;fill-rule:nonzero;stroke:#ffffff"
                     id="path106" /></g><g
                   style="fill:none;stroke:#ffffff"
                   transform="translate(139.6227,137.7441)"
                   id="g108"><path
                     inkscape:connector-curvature="0"
                     d="m 0,0 -23.489,0.405 5.835,-5.835 -13.205,-13.205 12.224,-12.223 13.204,13.205 5.836,-5.835 z"
                     style="fill:none;fill-opacity:1;fill-rule:nonzero;stroke:#ffffff"
                     id="path110" /></g><g
                   style="fill:none;stroke:#ffffff"
                   transform="translate(85.1005,160.3285)"
                   id="g112"><path
                     inkscape:connector-curvature="0"
                     d="m 0,0 -16.896,-16.322 h 8.252 V -34.997 H 8.643 v 18.674 l 8.252,0.001 z"
                     style="fill:none;fill-opacity:1;fill-rule:nonzero;stroke:#ffffff"
                     id="path114" /></g><g
                   style="fill:none;stroke:#ffffff"
                   transform="translate(30.5779,137.7453)"
                   id="g116"><path
                     inkscape:connector-curvature="0"
                     d="m 0,0 -0.405,-23.489 5.835,5.835 13.205,-13.205 12.223,12.223 -13.205,13.205 5.835,5.836 z"
                     style="fill:none;fill-opacity:1;fill-rule:nonzero;stroke:#ffffff"
                     id="path118" /></g><g
                   style="fill:none;stroke:#ffffff"
                   transform="translate(7.9934,83.223)"
                   id="g120"><path
                     inkscape:connector-curvature="0"
                     d="m 0,0 16.322,-16.895 v 8.251 H 34.997 V 8.642 H 16.323 l -0.001,8.253 z"
                     style="fill:none;fill-opacity:1;fill-rule:nonzero;stroke:#ffffff"
                     id="path122" /></g><g
                   style="fill:none;stroke:#ffffff"
                   transform="translate(30.5767,28.7004)"
                   id="g124"><path
                     inkscape:connector-curvature="0"
                     d="M 0,0 23.489,-0.405 17.654,5.43 30.859,18.635 18.636,30.858 5.431,17.653 -0.405,23.488 Z"
                     style="fill:none;fill-opacity:1;fill-rule:nonzero;stroke:#ffffff"
                     id="path126" /></g></g></g></g><g
             style="fill:none;stroke:#ffffff"
             id="g128"
             transform="translate(84.1609,0.0119)"><path
               inkscape:connector-curvature="0"
               d="m 0,0 c -45.529,0.504 -82.284,37.562 -82.284,83.21 0,45.649 36.755,82.707 82.284,83.211 -0.313,0.003 -0.625,0.012 -0.939,0.012 -45.962,0 -83.222,-37.26 -83.222,-83.223 0,-45.962 37.26,-83.222 83.222,-83.222 0.314,0 0.626,0.009 0.939,0.012"
               style="fill:none;fill-opacity:1;fill-rule:nonzero;stroke:#ffffff"
               id="path130" /></g></g></g><g
         transform="matrix(0.96031574,0,0,0.96031574,0.25306165,17.640552)"
         style="fill:none;stroke:#ffffff"
         id="g152"><g
           style="fill:none;stroke:#ffffff"
           id="g154"
           clip-path="url(#clipPath156)"><g
             style="fill:none;stroke:#ffffff"
             id="g308"
             transform="translate(118.4858,234.7732)"><path
               inkscape:connector-curvature="0"
               d="m 0,0 c -18.39,0 -33.298,14.908 -33.298,33.298 0,18.39 14.908,33.298 33.298,33.298 18.39,0 33.298,-14.908 33.298,-33.298 C 33.298,14.908 18.39,0 0,0"
               style="fill:none;fill-opacity:1;fill-rule:nonzero;stroke:#ffffff"
               id="path310" /></g><g
             style="fill:none;stroke:#ffffff"
             id="g312"><g
               style="fill:none;stroke:#ffffff"
               id="g314" /><g
               style="fill:none;stroke:#ffffff"
               id="g320"><g
                 clip-path="url(#clipPath316)"
                 id="g322"
                 style="opacity:0.30000299;fill:none;stroke:#ffffff"><g
                   style="fill:none;stroke:#ffffff"
                   transform="translate(118.4858,241.5404)"
                   id="g324"><path
                     inkscape:connector-curvature="0"
                     d="m 0,0 c -14.653,0 -26.531,11.878 -26.531,26.531 0,14.652 11.878,26.531 26.531,26.531 14.653,0 26.531,-11.879 26.531,-26.531 C 26.531,11.878 14.653,0 0,0"
                     style="fill:none;fill-opacity:1;fill-rule:nonzero;stroke:#ffffff"
                     id="path326" /></g></g></g></g><g
             style="fill:none;stroke:#ffffff"
             id="g328"
             transform="translate(118.4094,242.2279)"><path
               inkscape:connector-curvature="0"
               d="m 0,0 c -14.231,0 -25.767,11.536 -25.767,25.767 0,14.231 11.536,25.767 25.767,25.767 14.231,0 25.767,-11.536 25.767,-25.767 C 25.767,11.536 14.231,0 0,0"
               style="fill:none;fill-opacity:1;fill-rule:nonzero;stroke:#ffffff"
               id="path330" /></g><g
             style="fill:none;stroke:#ffffff"
             id="g332"
             transform="translate(118.4094,242.2279)"><path
               inkscape:connector-curvature="0"
               d="m 0,0 c -14.231,0 -25.767,11.536 -25.767,25.767 0,14.231 11.536,25.767 25.767,25.767 14.231,0 25.767,-11.536 25.767,-25.767 C 25.767,11.536 14.231,0 0,0"
               style="fill:none;fill-opacity:1;fill-rule:nonzero;stroke:#ffffff"
               id="path334" /></g><g
             style="fill:none;stroke:#ffffff"
             id="g336"><g
               style="fill:none;stroke:#ffffff"
               id="g338" /><g
               style="fill:none;stroke:#ffffff"
               id="g344"><g
                 clip-path="url(#clipPath340)"
                 id="g346"
                 style="opacity:0.19999701;fill:none;stroke:#ffffff"><g
                   style="fill:none;stroke:#ffffff"
                   transform="translate(94.0298,268.3128)"
                   id="g348"><path
                     inkscape:connector-curvature="0"
                     d="M 0,0 C 0,13.64 11.057,24.697 24.697,24.697 38.337,24.697 49.395,13.64 49.395,0 49.395,-13.64 38.337,-24.698 24.697,-24.698 11.057,-24.698 0,-13.64 0,0 m 50.146,-0.318 c 0,14.231 -11.536,25.767 -25.766,25.767 -14.231,0 -25.767,-11.536 -25.767,-25.767 0,-14.231 11.536,-25.767 25.767,-25.767 14.23,0 25.766,11.536 25.766,25.767"
                     style="fill:none;fill-opacity:1;fill-rule:nonzero;stroke:#ffffff"
                     id="path350" /></g></g></g></g><g
             style="fill:none;stroke:#ffffff"
             id="g352"><g
               style="fill:none;stroke:#ffffff"
               id="g354" /><g
               style="fill:none;stroke:#ffffff"
               id="g360"><g
                 clip-path="url(#clipPath356)"
                 id="g362"
                 style="opacity:0.14999402;fill:none;stroke:#ffffff"><g
                   style="fill:none;stroke:#ffffff"
                   transform="translate(87.0294,268.4037)"
                   id="g364"><path
                     inkscape:connector-curvature="0"
                     d="M 0,0 C 0,17.557 14.233,31.789 31.789,31.789 49.346,31.789 63.578,17.557 63.578,0 63.578,-17.556 49.346,-31.789 31.789,-31.789 14.233,-31.789 0,-17.556 0,0 m 64.546,-0.409 c 0,18.317 -14.849,33.166 -33.166,33.166 -18.317,0 -33.166,-14.849 -33.166,-33.166 0,-18.317 14.849,-33.165 33.166,-33.165 18.317,0 33.166,14.848 33.166,33.165"
                     style="fill:none;fill-opacity:1;fill-rule:nonzero;stroke:#ffffff"
                     id="path366" /></g></g></g></g><g
             style="fill:none;stroke:#ffffff"
             id="g368"
             transform="translate(117.6679,375.2973)"><path
               inkscape:connector-curvature="0"
               d="m 0,0 c -18.39,0 -33.298,14.908 -33.298,33.298 0,18.39 14.908,33.298 33.298,33.298 18.39,0 33.298,-14.908 33.298,-33.298 C 33.298,14.908 18.39,0 0,0"
               style="fill:none;fill-opacity:1;fill-rule:nonzero;stroke:#ffffff"
               id="path370" /></g><g
             style="fill:none;stroke:#ffffff"
             id="g372"><g
               style="fill:none;stroke:#ffffff"
               id="g374" /><g
               style="fill:none;stroke:#ffffff"
               id="g380"><g
                 clip-path="url(#clipPath376)"
                 id="g382"
                 style="opacity:0.30000299;fill:none;stroke:#ffffff"><g
                   style="fill:none;stroke:#ffffff"
                   transform="translate(117.6679,382.0645)"
                   id="g384"><path
                     inkscape:connector-curvature="0"
                     d="m 0,0 c -14.653,0 -26.531,11.878 -26.531,26.531 0,14.652 11.878,26.531 26.531,26.531 14.653,0 26.531,-11.879 26.531,-26.531 C 26.531,11.878 14.653,0 0,0"
                     style="fill:none;fill-opacity:1;fill-rule:nonzero;stroke:#ffffff"
                     id="path386" /></g></g></g></g><g
             style="fill:none;stroke:#ffffff"
             id="g388"
             transform="translate(117.5915,382.752)"><path
               inkscape:connector-curvature="0"
               d="m 0,0 c -14.231,0 -25.767,11.536 -25.767,25.767 0,14.231 11.536,25.767 25.767,25.767 14.231,0 25.767,-11.536 25.767,-25.767 C 25.767,11.536 14.231,0 0,0"
               style="fill:none;fill-opacity:1;fill-rule:nonzero;stroke:#ffffff"
               id="path390" /></g><g
             style="fill:none;stroke:#ffffff"
             id="g392"><g
               style="fill:none;stroke:#ffffff"
               id="g394" /><g
               style="fill:none;stroke:#ffffff"
               id="g400"><g
                 clip-path="url(#clipPath396)"
                 id="g402"
                 style="opacity:0.19999701;fill:none;stroke:#ffffff"><g
                   style="fill:none;stroke:#ffffff"
                   transform="translate(93.2119,408.837)"
                   id="g404"><path
                     inkscape:connector-curvature="0"
                     d="M 0,0 C 0,13.64 11.057,24.697 24.697,24.697 38.337,24.697 49.395,13.64 49.395,0 49.395,-13.64 38.337,-24.698 24.697,-24.698 11.057,-24.698 0,-13.64 0,0 m 50.146,-0.318 c 0,14.231 -11.536,25.767 -25.766,25.767 -14.231,0 -25.767,-11.536 -25.767,-25.767 0,-14.231 11.536,-25.767 25.767,-25.767 14.23,0 25.766,11.536 25.766,25.767"
                     style="fill:none;fill-opacity:1;fill-rule:nonzero;stroke:#ffffff"
                     id="path406" /></g></g></g></g><g
             style="fill:none;stroke:#ffffff"
             id="g408"><g
               style="fill:none;stroke:#ffffff"
               id="g410" /><g
               style="fill:none;stroke:#ffffff"
               id="g416"><g
                 clip-path="url(#clipPath412)"
                 id="g418"
                 style="opacity:0.14999402;fill:none;stroke:#ffffff"><g
                   style="fill:none;stroke:#ffffff"
                   transform="translate(86.2115,408.9279)"
                   id="g420"><path
                     inkscape:connector-curvature="0"
                     d="M 0,0 C 0,17.557 14.233,31.789 31.789,31.789 49.346,31.789 63.578,17.557 63.578,0 63.578,-17.556 49.346,-31.789 31.789,-31.789 14.233,-31.789 0,-17.556 0,0 m 64.546,-0.409 c 0,18.317 -14.849,33.166 -33.166,33.166 -18.317,0 -33.166,-14.849 -33.166,-33.166 0,-18.317 14.849,-33.165 33.166,-33.165 18.317,0 33.166,14.848 33.166,33.165"
                     style="fill:none;fill-opacity:1;fill-rule:nonzero;stroke:#ffffff"
                     id="path422" /></g></g></g></g><g
             style="fill:none;stroke:#ffffff"
             id="g424"
             transform="translate(54.049,269.4192)"><path
               inkscape:connector-curvature="0"
               d="m 0,0 c -18.39,0 -33.298,14.908 -33.298,33.298 0,18.39 14.908,33.298 33.298,33.298 18.39,0 33.298,-14.908 33.298,-33.298 C 33.298,14.908 18.39,0 0,0"
               style="fill:none;fill-opacity:1;fill-rule:nonzero;stroke:#ffffff"
               id="path426" /></g><g
             style="fill:none;stroke:#ffffff"
             id="g428"><g
               style="fill:none;stroke:#ffffff"
               id="g430" /><g
               style="fill:none;stroke:#ffffff"
               id="g436"><g
                 clip-path="url(#clipPath432)"
                 id="g438"
                 style="opacity:0.30000299;fill:none;stroke:#ffffff"><g
                   style="fill:none;stroke:#ffffff"
                   transform="translate(54.049,276.1864)"
                   id="g440"><path
                     inkscape:connector-curvature="0"
                     d="m 0,0 c -14.653,0 -26.531,11.878 -26.531,26.531 0,14.652 11.878,26.531 26.531,26.531 14.653,0 26.531,-11.879 26.531,-26.531 C 26.531,11.878 14.653,0 0,0"
                     style="fill:none;fill-opacity:1;fill-rule:nonzero;stroke:#ffffff"
                     id="path442" /></g></g></g></g><g
             style="fill:none;stroke:#ffffff"
             id="g444"
             transform="translate(53.9726,276.8739)"><path
               inkscape:connector-curvature="0"
               d="m 0,0 c -14.231,0 -25.767,11.536 -25.767,25.767 0,14.231 11.536,25.767 25.767,25.767 14.231,0 25.767,-11.536 25.767,-25.767 C 25.767,11.536 14.231,0 0,0"
               style="fill:none;fill-opacity:1;fill-rule:nonzero;stroke:#ffffff"
               id="path446" /></g><g
             style="fill:none;stroke:#ffffff"
             id="g448"
             transform="translate(53.9726,276.8739)"><path
               inkscape:connector-curvature="0"
               d="m 0,0 c -14.231,0 -25.767,11.536 -25.767,25.767 0,14.231 11.536,25.767 25.767,25.767 14.231,0 25.767,-11.536 25.767,-25.767 C 25.767,11.536 14.231,0 0,0"
               style="fill:none;fill-opacity:1;fill-rule:nonzero;stroke:#ffffff"
               id="path450" /></g><g
             style="fill:none;stroke:#ffffff"
             id="g452"><g
               style="fill:none;stroke:#ffffff"
               id="g454" /><g
               style="fill:none;stroke:#ffffff"
               id="g460"><g
                 clip-path="url(#clipPath456)"
                 id="g462"
                 style="opacity:0.19999701;fill:none;stroke:#ffffff"><g
                   style="fill:none;stroke:#ffffff"
                   transform="translate(29.593,302.9589)"
                   id="g464"><path
                     inkscape:connector-curvature="0"
                     d="M 0,0 C 0,13.64 11.057,24.697 24.697,24.697 38.337,24.697 49.395,13.64 49.395,0 49.395,-13.64 38.337,-24.698 24.697,-24.698 11.057,-24.698 0,-13.64 0,0 m 50.146,-0.318 c 0,14.231 -11.536,25.767 -25.766,25.767 -14.231,0 -25.767,-11.536 -25.767,-25.767 0,-14.231 11.536,-25.767 25.767,-25.767 14.23,0 25.766,11.536 25.766,25.767"
                     style="fill:none;fill-opacity:1;fill-rule:nonzero;stroke:#ffffff"
                     id="path466" /></g></g></g></g><g
             style="fill:none;stroke:#ffffff"
             id="g468"><g
               style="fill:none;stroke:#ffffff"
               id="g470" /><g
               style="fill:none;stroke:#ffffff"
               id="g476"><g
                 clip-path="url(#clipPath472)"
                 id="g478"
                 style="opacity:0.14999402;fill:none;stroke:#ffffff"><g
                   style="fill:none;stroke:#ffffff"
                   transform="translate(22.5926,303.0498)"
                   id="g480"><path
                     inkscape:connector-curvature="0"
                     d="M 0,0 C 0,17.557 14.233,31.789 31.789,31.789 49.346,31.789 63.578,17.557 63.578,0 63.578,-17.556 49.346,-31.789 31.789,-31.789 14.233,-31.789 0,-17.556 0,0 m 64.546,-0.409 c 0,18.317 -14.849,33.166 -33.166,33.166 -18.317,0 -33.166,-14.849 -33.166,-33.166 0,-18.317 14.849,-33.165 33.166,-33.165 18.317,0 33.166,14.848 33.166,33.165"
                     style="fill:none;fill-opacity:1;fill-rule:nonzero;stroke:#ffffff"
                     id="path482" /></g></g></g></g><g
             style="fill:none;stroke:#ffffff"
             id="g484"
             transform="translate(53.5638,339.6811)"><path
               inkscape:connector-curvature="0"
               d="m 0,0 c -18.39,0 -33.298,14.908 -33.298,33.298 0,18.39 14.908,33.298 33.298,33.298 18.39,0 33.298,-14.908 33.298,-33.298 C 33.298,14.908 18.39,0 0,0"
               style="fill:none;fill-opacity:1;fill-rule:nonzero;stroke:#ffffff"
               id="path486" /></g><g
             style="fill:none;stroke:#ffffff"
             id="g488"><g
               style="fill:none;stroke:#ffffff"
               id="g490" /><g
               style="fill:none;stroke:#ffffff"
               id="g496"><g
                 clip-path="url(#clipPath492)"
                 id="g498"
                 style="opacity:0.30000299;fill:none;stroke:#ffffff"><g
                   style="fill:none;stroke:#ffffff"
                   transform="translate(53.5638,346.4483)"
                   id="g500"><path
                     inkscape:connector-curvature="0"
                     d="m 0,0 c -14.653,0 -26.531,11.878 -26.531,26.531 0,14.652 11.878,26.531 26.531,26.531 14.653,0 26.531,-11.879 26.531,-26.531 C 26.531,11.878 14.653,0 0,0"
                     style="fill:none;fill-opacity:1;fill-rule:nonzero;stroke:#ffffff"
                     id="path502" /></g></g></g></g><g
             style="fill:none;stroke:#ffffff"
             id="g504"
             transform="translate(53.4874,347.1358)"><path
               inkscape:connector-curvature="0"
               d="m 0,0 c -14.231,0 -25.767,11.536 -25.767,25.767 0,14.231 11.536,25.767 25.767,25.767 14.231,0 25.767,-11.536 25.767,-25.767 C 25.767,11.536 14.231,0 0,0"
               style="fill:none;fill-opacity:1;fill-rule:nonzero;stroke:#ffffff"
               id="path506" /></g><g
             style="fill:none;stroke:#ffffff"
             id="g508"
             transform="translate(53.4874,347.1358)"><path
               inkscape:connector-curvature="0"
               d="m 0,0 c -14.231,0 -25.767,11.536 -25.767,25.767 0,14.231 11.536,25.767 25.767,25.767 14.231,0 25.767,-11.536 25.767,-25.767 C 25.767,11.536 14.231,0 0,0"
               style="fill:none;fill-opacity:1;fill-rule:nonzero;stroke:#ffffff"
               id="path510" /></g><g
             style="fill:none;stroke:#ffffff"
             id="g512"><g
               style="fill:none;stroke:#ffffff"
               id="g514" /><g
               style="fill:none;stroke:#ffffff"
               id="g520"><g
                 clip-path="url(#clipPath516)"
                 id="g522"
                 style="opacity:0.19999701;fill:none;stroke:#ffffff"><g
                   style="fill:none;stroke:#ffffff"
                   transform="translate(29.1078,373.2208)"
                   id="g524"><path
                     inkscape:connector-curvature="0"
                     d="M 0,0 C 0,13.64 11.057,24.697 24.697,24.697 38.337,24.697 49.395,13.64 49.395,0 49.395,-13.64 38.337,-24.698 24.697,-24.698 11.057,-24.698 0,-13.64 0,0 m 50.146,-0.318 c 0,14.231 -11.536,25.767 -25.766,25.767 -14.231,0 -25.767,-11.536 -25.767,-25.767 0,-14.231 11.536,-25.767 25.767,-25.767 14.23,0 25.766,11.536 25.766,25.767"
                     style="fill:none;fill-opacity:1;fill-rule:nonzero;stroke:#ffffff"
                     id="path526" /></g></g></g></g><g
             style="fill:none;stroke:#ffffff"
             id="g528"><g
               style="fill:none;stroke:#ffffff"
               id="g530" /><g
               style="fill:none;stroke:#ffffff"
               id="g536"><g
                 clip-path="url(#clipPath532)"
                 id="g538"
                 style="opacity:0.14999402;fill:none;stroke:#ffffff"><g
                   style="fill:none;stroke:#ffffff"
                   transform="translate(22.1074,373.3117)"
                   id="g540"><path
                     inkscape:connector-curvature="0"
                     d="M 0,0 C 0,17.557 14.233,31.789 31.789,31.789 49.346,31.789 63.578,17.557 63.578,0 63.578,-17.556 49.346,-31.789 31.789,-31.789 14.233,-31.789 0,-17.556 0,0 m 64.546,-0.409 c 0,18.317 -14.849,33.166 -33.166,33.166 -18.317,0 -33.166,-14.849 -33.166,-33.166 0,-18.317 14.849,-33.165 33.166,-33.165 18.317,0 33.166,14.848 33.166,33.165"
                     style="fill:none;fill-opacity:1;fill-rule:nonzero;stroke:#ffffff"
                     id="path542" /></g></g></g></g><g
             style="fill:none;stroke:#ffffff"
             id="g544"
             transform="translate(53.4874,198.475)"><path
               inkscape:connector-curvature="0"
               d="m 0,0 c -18.39,0 -33.298,14.908 -33.298,33.298 0,18.39 14.908,33.298 33.298,33.298 18.39,0 33.298,-14.908 33.298,-33.298 C 33.298,14.908 18.39,0 0,0"
               style="fill:none;fill-opacity:1;fill-rule:nonzero;stroke:#ffffff"
               id="path546" /></g><g
             style="fill:none;stroke:#ffffff"
             id="g548"><g
               style="fill:none;stroke:#ffffff"
               id="g550" /><g
               style="fill:none;stroke:#ffffff"
               id="g556"><g
                 clip-path="url(#clipPath552)"
                 id="g558"
                 style="opacity:0.30000299;fill:none;stroke:#ffffff"><g
                   style="fill:none;stroke:#ffffff"
                   transform="translate(53.4874,205.2422)"
                   id="g560"><path
                     inkscape:connector-curvature="0"
                     d="m 0,0 c -14.653,0 -26.531,11.878 -26.531,26.531 0,14.652 11.878,26.531 26.531,26.531 14.653,0 26.531,-11.879 26.531,-26.531 C 26.531,11.878 14.653,0 0,0"
                     style="fill:none;fill-opacity:1;fill-rule:nonzero;stroke:#ffffff"
                     id="path562" /></g></g></g></g><g
             style="fill:none;stroke:#ffffff"
             id="g564"
             transform="translate(53.411,205.9297)"><path
               inkscape:connector-curvature="0"
               d="m 0,0 c -14.231,0 -25.767,11.536 -25.767,25.767 0,14.231 11.536,25.767 25.767,25.767 14.231,0 25.767,-11.536 25.767,-25.767 C 25.767,11.536 14.231,0 0,0"
               style="fill:none;fill-opacity:1;fill-rule:nonzero;stroke:#ffffff"
               id="path566" /></g><g
             style="fill:none;stroke:#ffffff"
             id="g568"
             transform="translate(53.411,205.9297)"><path
               inkscape:connector-curvature="0"
               d="m 0,0 c -14.231,0 -25.767,11.536 -25.767,25.767 0,14.231 11.536,25.767 25.767,25.767 14.231,0 25.767,-11.536 25.767,-25.767 C 25.767,11.536 14.231,0 0,0"
               style="fill:none;fill-opacity:1;fill-rule:nonzero;stroke:#ffffff"
               id="path570" /></g><g
             style="fill:none;stroke:#ffffff"
             id="g572"><g
               style="fill:none;stroke:#ffffff"
               id="g574" /><g
               style="fill:none;stroke:#ffffff"
               id="g580"><g
                 clip-path="url(#clipPath576)"
                 id="g582"
                 style="opacity:0.19999701;fill:none;stroke:#ffffff"><g
                   style="fill:none;stroke:#ffffff"
                   transform="translate(29.0314,232.0147)"
                   id="g584"><path
                     inkscape:connector-curvature="0"
                     d="M 0,0 C 0,13.64 11.057,24.697 24.697,24.697 38.337,24.697 49.395,13.64 49.395,0 49.395,-13.64 38.337,-24.698 24.697,-24.698 11.057,-24.698 0,-13.64 0,0 m 50.146,-0.318 c 0,14.231 -11.536,25.767 -25.766,25.767 -14.231,0 -25.767,-11.536 -25.767,-25.767 0,-14.231 11.536,-25.767 25.767,-25.767 14.23,0 25.766,11.536 25.766,25.767"
                     style="fill:none;fill-opacity:1;fill-rule:nonzero;stroke:#ffffff"
                     id="path586" /></g></g></g></g><g
             style="fill:none;stroke:#ffffff"
             id="g588"><g
               style="fill:none;stroke:#ffffff"
               id="g590" /><g
               style="fill:none;stroke:#ffffff"
               id="g596"><g
                 clip-path="url(#clipPath592)"
                 id="g598"
                 style="opacity:0.14999402;fill:none;stroke:#ffffff"><g
                   style="fill:none;stroke:#ffffff"
                   transform="translate(22.031,232.1056)"
                   id="g600"><path
                     inkscape:connector-curvature="0"
                     d="M 0,0 C 0,17.557 14.233,31.789 31.789,31.789 49.346,31.789 63.578,17.557 63.578,0 63.578,-17.556 49.346,-31.789 31.789,-31.789 14.233,-31.789 0,-17.556 0,0 m 64.546,-0.409 c 0,18.317 -14.849,33.165 -33.166,33.165 -18.317,0 -33.166,-14.848 -33.166,-33.165 0,-18.317 14.849,-33.165 33.166,-33.165 18.317,0 33.166,14.848 33.166,33.165"
                     style="fill:none;fill-opacity:1;fill-rule:nonzero;stroke:#ffffff"
                     id="path602" /></g></g></g></g><g
             style="fill:none;stroke:#ffffff"
             id="g604"
             transform="translate(144.8838,83.5414)"><path
               inkscape:connector-curvature="0"
               d="m 0,0 c 0,-21.526 -17.45,-38.977 -38.977,-38.977 -21.526,0 -38.976,17.451 -38.976,38.977 0,21.526 17.45,38.977 38.976,38.977 C -17.45,38.977 0,21.526 0,0"
               style="fill:none;fill-opacity:1;fill-rule:nonzero;stroke:#ffffff"
               id="path606" /></g></g></g></g></g></svg>