<?xml version="1.0" encoding="UTF-8" standalone="no"?>
<svg
   xmlns:dc="http://purl.org/dc/elements/1.1/"
   xmlns:cc="http://creativecommons.org/ns#"
   xmlns:rdf="http://www.w3.org/1999/02/22-rdf-syntax-ns#"
   xmlns:svg="http://www.w3.org/2000/svg"
   xmlns="http://www.w3.org/2000/svg"
   xmlns:sodipodi="http://sodipodi.sourceforge.net/DTD/sodipodi-0.dtd"
   xmlns:inkscape="http://www.inkscape.org/namespaces/inkscape"
   viewBox="0 0 93.241997 115.97256"
   version="1.1"
   id="svg153"
   sodipodi:docname="pokemini.svg"
   width="93.241997"
   height="115.97256"
   inkscape:version="0.92.4 (5da689c313, 2019-01-14)">
  <metadata
     id="metadata159">
    <rdf:RDF>
      <cc:Work
         rdf:about="">
        <dc:format>image/svg+xml</dc:format>
        <dc:type
           rdf:resource="http://purl.org/dc/dcmitype/StillImage" />
        <dc:title></dc:title>
      </cc:Work>
    </rdf:RDF>
  </metadata>
  <defs
     id="defs157" />
  <sodipodi:namedview
     pagecolor="#ffffff"
     bordercolor="#666666"
     borderopacity="1"
     objecttolerance="10"
     gridtolerance="10"
     guidetolerance="10"
     inkscape:pageopacity="0"
     inkscape:pageshadow="2"
     inkscape:window-width="1600"
     inkscape:window-height="837"
     id="namedview155"
     showgrid="false"
     inkscape:pagecheckerboard="true"
     inkscape:zoom="2.1290416"
     inkscape:cx="89.521781"
     inkscape:cy="111.34103"
     inkscape:window-x="-8"
     inkscape:window-y="-8"
     inkscape:window-maximized="1"
     inkscape:current-layer="g237" />
  <g
     id="g237"
     style="fill:none;stroke:#ffffff"
     transform="translate(0.50128034,-106.21648)">
    <g
       id="g301"
       transform="matrix(0.26106664,0,0,0.26106664,22.659824,139.74358)">
      <path
         style="fill:none;stroke:#ffffff"
         d="M 86.78,0.013 C 63.72,-0.082 29.224,-0.224 15.447,21.346 c -1.861,2.913 -3.064,5.785 -5.333,15 -6.513,26.443 -7.705,47.864 -8.739,68.667 -2.597,52.272 -2.654,69.75 10.155,84.417 0.469,0.538 0.917,1.021 0.917,1.021 7.846,8.32 18.906,9.808 25.833,10.646 19.269,2.331 30.25,3 30.25,3 25.052,1.527 37.393,3.047 45,4.5 16.307,3.114 18.317,4.365 25.058,8.046 0.593,0.324 8.928,4.317 11.317,4.829 0,0 7.708,1.651 16.625,-4 16.599,-10.519 11.618,-76.774 7.25,-139.625 -0.082,-1.186 -0.213,-3.06 -0.469,-5.566 C 172.279,62.189 169.176,31.837 156.28,16.097 143.293,0.246 121.145,0.155 86.78,0.013 Z"
         id="path2"
         inkscape:connector-curvature="0" />
      <circle
         style="fill:none;stroke:#ffffff"
         cx="90.803001"
         cy="154.461"
         r="14"
         id="circle4" />
      <g
         style="fill:none;stroke:#ffffff"
         id="g8">
        <path
           style="fill:none;stroke:#ffffff"
           d="m 92.226,147.249 a 7.36,7.36 0 0 1 5.772,5.705 h 2.489 a 9.807,9.807 0 0 0 -8.261,-8.19 z m -2.905,0.011 a 7.36,7.36 0 0 0 -5.714,5.694 h -2.489 a 9.807,9.807 0 0 1 8.261,-8.19 v 2.485 z m 0.058,14.413 a 7.358,7.358 0 0 1 -5.804,-5.872 h -2.481 a 9.807,9.807 0 0 0 8.285,8.357 z m 2.847,0 a 7.358,7.358 0 0 0 5.804,-5.872 h 2.481 a 9.807,9.807 0 0 1 -8.285,8.357 z"
           id="path6"
           inkscape:connector-curvature="0" />
      </g>
      <g
         style="fill:none;stroke:#ffffff;stroke-width:0.01;stroke-miterlimit:10"
         stroke-miterlimit="10"
         id="g12">
        <path
           style="fill:none;stroke:#ffffff"
           d="m 80.332,141.142 v -4.425 h 1.344 c 0.405,0 0.728,0.114 0.968,0.341 0.241,0.228 0.361,0.534 0.361,0.917 0,0.257 -0.062,0.485 -0.185,0.683 a 1.074,1.074 0 0 1 -0.507,0.432 c -0.215,0.09 -0.522,0.134 -0.923,0.134 h -0.449 v 1.917 h -0.609 z m 1.238,-3.861 h -0.628 v 1.382 h 0.665 c 0.247,0 0.437,-0.061 0.571,-0.182 0.133,-0.121 0.2,-0.294 0.2,-0.521 0,-0.453 -0.269,-0.679 -0.808,-0.679 z m 4.044,-0.621 c 0.655,0 1.201,0.216 1.636,0.648 0.435,0.432 0.654,0.974 0.654,1.626 0,0.651 -0.22,1.19 -0.66,1.618 -0.44,0.427 -0.995,0.641 -1.664,0.641 -0.639,0 -1.171,-0.214 -1.597,-0.641 -0.425,-0.427 -0.638,-0.962 -0.638,-1.605 0,-0.66 0.214,-1.206 0.643,-1.638 0.429,-0.432 0.971,-0.649 1.626,-0.649 z m 0.025,0.602 c -0.485,0 -0.884,0.158 -1.196,0.474 -0.313,0.316 -0.469,0.72 -0.469,1.211 0,0.477 0.157,0.873 0.47,1.189 0.313,0.316 0.706,0.475 1.176,0.475 0.473,0 0.868,-0.162 1.184,-0.484 0.316,-0.323 0.475,-0.725 0.475,-1.205 0,-0.468 -0.158,-0.862 -0.475,-1.182 -0.317,-0.32 -0.705,-0.478 -1.165,-0.478 z m 8.164,-0.538 h 0.605 l -1.714,4.438 h -0.133 l -1.386,-3.593 -1.4,3.593 h -0.13 l -1.709,-4.438 h 0.612 l 1.168,3.046 1.176,-3.046 h 0.574 l 1.182,3.046 z m 1.076,0 h 2.404 v 0.563 h -1.797 v 1.347 h 1.736 v 0.566 h -1.736 v 1.373 h 1.854 v 0.563 h -2.461 z m 3.125,4.418 v -4.418 h 1.063 c 0.429,0 0.77,0.11 1.021,0.332 0.252,0.221 0.378,0.521 0.378,0.898 0,0.257 -0.062,0.48 -0.185,0.667 -0.124,0.188 -0.3,0.328 -0.531,0.421 0.136,0.093 0.268,0.219 0.398,0.379 0.129,0.16 0.312,0.44 0.546,0.838 0.148,0.251 0.266,0.439 0.355,0.566 l 0.225,0.316 h -0.723 l -0.185,-0.291 c -0.006,-0.011 -0.019,-0.029 -0.037,-0.054 l -0.118,-0.174 -0.188,-0.323 -0.203,-0.345 a 3.438,3.438 0 0 0 -0.344,-0.434 c -0.104,-0.107 -0.199,-0.185 -0.283,-0.232 -0.084,-0.047 -0.225,-0.071 -0.424,-0.071 h -0.158 v 1.923 h -0.607 z m 0.79,-3.88 h -0.182 v 1.395 h 0.23 c 0.308,0 0.519,-0.027 0.633,-0.082 0.114,-0.055 0.203,-0.138 0.267,-0.248 a 0.753,0.753 0 0 0 0.096,-0.378 c 0,-0.139 -0.036,-0.265 -0.106,-0.378 -0.07,-0.113 -0.17,-0.192 -0.299,-0.239 -0.129,-0.047 -0.342,-0.07 -0.639,-0.07 z"
           id="path10"
           inkscape:connector-curvature="0" />
      </g>
      <circle
         style="fill:none;stroke:#ffffff"
         cx="90.803001"
         cy="154.37801"
         r="4.9689999"
         id="circle14" />
      <circle
         style="fill:none;stroke:#ffffff"
         cx="90.803001"
         cy="180.972"
         r="11.223"
         id="circle16" />
      <g
         style="fill:none;stroke:#ffffff"
         id="g20">
        <path
           style="fill:none;stroke:#ffffff"
           d="m 91.944,175.19 a 5.901,5.901 0 0 1 4.627,4.573 h 1.996 a 7.862,7.862 0 0 0 -6.622,-6.566 z m -2.329,0.009 a 5.902,5.902 0 0 0 -4.581,4.564 h -1.996 a 7.862,7.862 0 0 1 6.622,-6.566 v 1.992 z m 0.046,11.554 a 5.898,5.898 0 0 1 -4.653,-4.707 h -1.989 a 7.86,7.86 0 0 0 6.642,6.699 z m 2.283,0 a 5.898,5.898 0 0 0 4.653,-4.707 h 1.989 a 7.86,7.86 0 0 1 -6.642,6.699 z"
           id="path18"
           inkscape:connector-curvature="0" />
      </g>
      <circle
         style="fill:none;stroke:#ffffff"
         cx="90.803001"
         cy="180.905"
         r="3.983"
         id="circle22" />
      <g
         style="fill:none;stroke:#ffffff;stroke-width:0.01;stroke-miterlimit:10"
         stroke-miterlimit="10"
         id="g26">
        <path
           style="fill:none;stroke:#ffffff"
           d="m 82.813,174.224 v -4.418 h 1.063 c 0.429,0 0.77,0.11 1.021,0.332 0.252,0.221 0.378,0.521 0.378,0.898 0,0.257 -0.062,0.48 -0.185,0.667 -0.124,0.188 -0.3,0.328 -0.531,0.421 0.136,0.093 0.268,0.219 0.398,0.379 0.129,0.16 0.312,0.44 0.546,0.838 0.148,0.251 0.266,0.439 0.355,0.566 l 0.225,0.316 H 85.36 l -0.185,-0.291 c -0.006,-0.011 -0.019,-0.029 -0.037,-0.054 l -0.118,-0.174 -0.188,-0.323 -0.203,-0.345 a 3.438,3.438 0 0 0 -0.344,-0.434 c -0.104,-0.107 -0.199,-0.185 -0.283,-0.232 -0.084,-0.047 -0.225,-0.071 -0.424,-0.071 H 83.42 v 1.923 h -0.607 z m 0.79,-3.88 h -0.182 v 1.395 h 0.23 c 0.308,0 0.519,-0.027 0.633,-0.082 0.114,-0.055 0.203,-0.138 0.267,-0.248 a 0.753,0.753 0 0 0 0.096,-0.378 c 0,-0.139 -0.036,-0.265 -0.106,-0.378 -0.07,-0.113 -0.17,-0.192 -0.299,-0.239 -0.129,-0.047 -0.342,-0.07 -0.639,-0.07 z m 2.946,-0.538 h 2.404 v 0.563 h -1.797 v 1.347 h 1.736 v 0.566 h -1.736 v 1.373 h 1.854 v 0.563 h -2.461 z m 4.158,2.567 -0.461,-0.292 c -0.29,-0.184 -0.495,-0.365 -0.618,-0.543 -0.123,-0.178 -0.184,-0.383 -0.184,-0.615 0,-0.348 0.116,-0.63 0.348,-0.848 0.231,-0.217 0.533,-0.326 0.903,-0.326 0.354,0 0.679,0.104 0.974,0.311 v 0.718 c -0.306,-0.306 -0.634,-0.459 -0.986,-0.459 a 0.793,0.793 0 0 0 -0.489,0.144 0.44,0.44 0 0 0 -0.191,0.367 0.58,0.58 0 0 0 0.141,0.372 c 0.094,0.115 0.245,0.237 0.453,0.364 l 0.463,0.286 c 0.517,0.322 0.776,0.732 0.776,1.229 0,0.354 -0.114,0.642 -0.341,0.863 -0.228,0.222 -0.523,0.333 -0.888,0.333 -0.419,0 -0.8,-0.134 -1.145,-0.403 v -0.803 c 0.328,0.433 0.708,0.649 1.138,0.649 0.19,0 0.349,-0.055 0.475,-0.166 0.126,-0.111 0.189,-0.249 0.189,-0.415 0.001,-0.27 -0.185,-0.524 -0.557,-0.766 z m 1.797,-2.567 h 2.404 v 0.563 h -1.797 v 1.347 h 1.736 v 0.566 h -1.736 v 1.373 h 1.854 v 0.563 h -2.461 z m 2.747,-0.006 h 3.542 v 0.563 h -1.478 v 3.862 h -0.61 v -3.862 h -1.454 z"
           id="path24"
           inkscape:connector-curvature="0" />
      </g>
      <path
         style="fill:none;stroke:#ffffff"
         d="M 89.02,27.013 A 1.231,1.231 0 0 1 87.792,25.785 V 9.075 c 0,-0.676 0.553,-1.228 1.228,-1.228 0.676,0 1.228,0.553 1.228,1.228 v 16.71 a 1.23,1.23 0 0 1 -1.228,1.228 z m -23.596,-12.678 1.08,3.852 a 1.295,1.295 0 0 0 1.592,0.895 1.295,1.295 0 0 0 0.895,-1.592 l -1.078,-3.852 v -4 c 0,-0.71 -0.581,-1.292 -1.292,-1.292 -0.71,0 -1.292,0.581 -1.292,1.292 z m 47.193,0 -1.08,3.852 a 1.295,1.295 0 0 1 -1.592,0.895 1.295,1.295 0 0 1 -0.895,-1.592 l 1.078,-3.852 v -4 c 0,-0.71 0.581,-1.292 1.292,-1.292 0.71,0 1.292,0.581 1.292,1.292 z M 0.61,121.378 h 17.586 v -3.573 H 0.766 m 161.554,-18.5 h 3.329 V 113.9 h -3.329 z"
         id="path28"
         inkscape:connector-curvature="0" />
      <path
         style="fill:none;stroke:#ffffff"
         d="M 175.478,102.587 H 162.32 v -3.282 h 12.939 m 0.558,8.49 H 162.32 v -3.282 h 13.285 m -17.479,116.538 v -27.72 h -3.103 v 28.239"
         id="path30"
         inkscape:connector-curvature="0" />
      <path
         style="fill:none;stroke:#ffffff"
         d="m 176.613,191.78 h -20.039 v 3.103 h 19.611"
         id="path32"
         inkscape:connector-curvature="0" />
      <g
         style="fill:none;stroke:#ffffff"
         id="g40">
        <path
           style="fill:none;stroke:#ffffff"
           d="m 138.207,127.512 -4.158,4.623 a 3.024,3.024 0 0 0 0.226,4.259 l 5.447,4.899 8.191,-9.108 -5.447,-4.899 a 3.025,3.025 0 0 0 -4.259,0.226 z m 5.736,5.221 -4.096,4.554 -2.724,-2.449 a 1.513,1.513 0 0 1 -0.113,-2.13 l 2.079,-2.312 a 1.513,1.513 0 0 1 2.13,-0.113 z m -8.417,23.671 4.397,4.397 a 3.024,3.024 0 0 0 4.265,0 l 5.18,-5.18 -8.662,-8.662 -5.18,5.18 a 3.024,3.024 0 0 0 0,4.265 z m 5.517,-5.452 4.331,4.331 -2.59,2.59 a 1.514,1.514 0 0 1 -2.133,0 l -2.198,-2.198 a 1.514,1.514 0 0 1 0,-2.133 z"
           id="path34"
           inkscape:connector-curvature="0" />
        <path
           style="fill:none;stroke:#ffffff"
           d="m 152.775,158.351 c -8.34,0 -15.125,-6.785 -15.125,-15.124 0,-8.34 6.785,-15.125 15.125,-15.125 8.34,0 15.125,6.785 15.125,15.125 0,8.339 -6.785,15.124 -15.125,15.124 z"
           id="path36"
           inkscape:connector-curvature="0" />
        <path
           style="fill:none;stroke:#ffffff"
           d="m 164.236,162.283 4.397,-4.397 a 3.024,3.024 0 0 0 0,-4.265 l -5.18,-5.18 -8.662,8.662 5.18,5.18 a 3.024,3.024 0 0 0 4.265,0 z m -5.451,-5.518 4.331,-4.331 2.59,2.59 a 1.514,1.514 0 0 1 0,2.133 l -2.198,2.198 a 1.514,1.514 0 0 1 -2.133,0 z"
           id="path38"
           inkscape:connector-curvature="0" />
      </g>
      <g
         style="fill:none;stroke:#ffffff"
         id="g46">
        <path
           style="fill:none;stroke:#ffffff"
           d="m 123.813,145.972 h -6.218 a 3.025,3.025 0 0 0 -3.016,3.016 v 7.326 h 12.25 v -7.326 a 3.025,3.025 0 0 0 -3.016,-3.016 z m -0.046,7.756 h -6.125 v -3.663 c 0,-0.829 0.679,-1.508 1.508,-1.508 h 3.109 c 0.829,0 1.508,0.679 1.508,1.508 z m -18.27,29.361 4.791,3.964 a 3.025,3.025 0 0 0 4.246,-0.401 l 4.67,-5.645 -9.439,-7.809 -4.67,5.645 a 3.025,3.025 0 0 0 0.402,4.246 z m 4.98,-5.947 4.719,3.904 -2.335,2.822 a 1.513,1.513 0 0 1 -2.123,0.201 l -2.395,-1.982 a 1.513,1.513 0 0 1 -0.201,-2.123 z"
           id="path42"
           inkscape:connector-curvature="0" />
        <path
           style="fill:none;stroke:#ffffff"
           d="m 121.59,182.304 c -8.34,0 -15.125,-6.785 -15.125,-15.124 0,-8.34 6.785,-15.125 15.125,-15.125 8.34,0 15.125,6.785 15.125,15.125 0,8.339 -6.785,15.124 -15.125,15.124 z"
           id="path44"
           inkscape:connector-curvature="0" />
      </g>
      <circle
         style="fill:none;stroke:#ffffff"
         cx="121.59"
         cy="167.46899"
         r="11.156"
         id="circle48" />
      <circle
         style="fill:none;stroke:#ffffff"
         cx="52.445999"
         cy="10.842"
         r="6.3379998"
         id="circle60" />
      <circle
         style="fill:none;stroke:#ffffff"
         cx="125.594"
         cy="10.815"
         r="6.3379998"
         id="circle62" />
      <circle
         style="fill:none;stroke:#ffffff"
         cx="148.85201"
         cy="21.625"
         r="4.4720001"
         id="circle64" />
      <circle
         style="fill:none;stroke:#ffffff"
         cx="29.188"
         cy="21.492001"
         r="4.4720001"
         id="circle66" />
      <g
         style="fill:none;stroke:#ffffff"
         id="g84">
        <circle
           style="fill:none;stroke:#ffffff"
           cx="18.195999"
           cy="119.592"
           r="1.786"
           id="circle68" />
        <circle
           style="fill:none;stroke:#ffffff"
           cx="163.985"
           cy="113.899"
           r="1.665"
           id="circle70" />
        <circle
           style="fill:none;stroke:#ffffff"
           cx="156.57401"
           cy="193.33099"
           r="1.552"
           id="circle72" />
        <circle
           style="fill:none;stroke:#ffffff"
           cx="27.087"
           cy="187.701"
           r="1.632"
           id="circle74" />
        <circle
           style="fill:none;stroke:#ffffff"
           cx="52.445999"
           cy="10.842"
           r="1.786"
           id="circle76" />
        <circle
           style="fill:none;stroke:#ffffff"
           cx="125.594"
           cy="10.815"
           r="1.786"
           id="circle78" />
        <circle
           style="fill:none;stroke:#ffffff"
           cx="148.85201"
           cy="21.625"
           r="1.26"
           id="circle80" />
        <circle
           style="fill:none;stroke:#ffffff"
           cx="29.188"
           cy="21.492001"
           r="1.26"
           id="circle82" />
      </g>
      <g
         style="fill:none;stroke:#ffffff"
         id="g108">
        <ellipse
           style="fill:none;stroke:#ffffff"
           cx="89.019997"
           cy="75.097"
           rx="67.405998"
           ry="50.5"
           id="ellipse92" />
        <path
           style="fill:none;stroke:#ffffff"
           d="m 43.395,74.472 c 0.229,16.312 0.167,22.458 0.542,28.667 0.075,1.237 1.542,1.583 9.583,1.958 6.995,0.326 15.425,0.5 35.501,0.5 20.076,0 28.505,-0.174 35.501,-0.5 8.042,-0.375 9.509,-0.721 9.583,-1.958 0.375,-6.208 0.313,-12.354 0.542,-28.667 -0.229,-16.312 -0.167,-22.458 -0.542,-28.667 -0.075,-1.237 -1.542,-1.583 -9.583,-1.958 -6.995,-0.326 -15.425,-0.5 -35.501,-0.5 -20.076,0 -28.505,0.174 -35.501,0.5 -8.042,0.375 -9.509,0.721 -9.583,1.958 -0.375,6.208 -0.313,12.354 -0.542,28.667 z"
           id="path94"
           inkscape:connector-curvature="0" />
      </g>
      <path
         style="fill:none;stroke:#ffffff"
         d="m 22.188,51.891 3.865,1.029 c 0.687,0.183 1.099,0.894 0.916,1.58 a 1.295,1.295 0 0 1 -1.58,0.916 L 21.524,54.388 8.137,54.441 A 1.295,1.295 0 0 1 6.829,53.166 1.295,1.295 0 0 1 8.104,51.858 Z m -5.717,21.438 3.865,1.029 c 0.687,0.183 1.099,0.894 0.916,1.58 a 1.295,1.295 0 0 1 -1.58,0.916 L 15.807,75.826 5.137,75.878 A 1.295,1.295 0 0 1 3.829,74.603 1.295,1.295 0 0 1 5.104,73.295 Z m 139.134,-21.378 -3.697,0.984 a 1.232,1.232 0 0 0 -0.88,1.498 1.232,1.232 0 0 0 1.508,0.862 l 3.697,-0.983 12.795,0.013 a 1.24,1.24 0 0 0 1.254,-1.21 1.222,1.222 0 0 0 -1.215,-1.234 z m 5.735,21.432 -3.71,0.988 a 1.233,1.233 0 0 0 -0.885,1.496 1.233,1.233 0 0 0 1.511,0.858 l 3.71,-0.986 10.229,0.004 a 1.246,1.246 0 0 0 1.26,-1.209 1.219,1.219 0 0 0 -1.216,-1.23 z"
         id="path110"
         inkscape:connector-curvature="0" />
      <circle
         style="fill:none;stroke:#ffffff"
         cx="44.650002"
         cy="159.08"
         r="31.958"
         id="circle112" />
      <circle
         style="fill:none;stroke:#ffffff"
         cx="44.650002"
         cy="159.08"
         r="27.164"
         id="circle114" />
      <path
         style="fill:none;stroke:#ffffff"
         d="m 40.994,185.481 a 5.71,5.71 0 0 1 -5.703,-5.703 V 168.44 H 23.952 a 5.71,5.71 0 0 1 -5.704,-5.703 v -7.313 a 5.71,5.71 0 0 1 5.704,-5.703 H 35.29 v -11.338 a 5.71,5.71 0 0 1 5.703,-5.703 h 7.313 a 5.71,5.71 0 0 1 5.703,5.703 v 11.338 h 11.338 a 5.71,5.71 0 0 1 5.703,5.703 v 7.313 a 5.71,5.71 0 0 1 -5.703,5.703 H 54.009 v 11.338 a 5.71,5.71 0 0 1 -5.703,5.703 z"
         id="path116"
         inkscape:connector-curvature="0" />
      <g
         style="fill:none;stroke:#ffffff"
         id="g149">
        <path
           style="fill:none;stroke:#ffffff"
           d="m 37.275,150.492 v -12.109 a 3.73,3.73 0 0 1 3.719,-3.719 h 7.312 a 3.73,3.73 0 0 1 3.719,3.719 v 12.109 c 0,0.67 0.543,1.214 1.214,1.214 h 12.109 a 3.73,3.73 0 0 1 3.719,3.719 v 7.312 a 3.73,3.73 0 0 1 -3.719,3.719 h -12.11 c -0.67,0 -1.214,0.543 -1.214,1.214 v 12.109 a 3.73,3.73 0 0 1 -3.719,3.719 h -7.312 a 3.73,3.73 0 0 1 -3.719,-3.719 V 167.67 c 0,-0.67 -0.543,-1.214 -1.214,-1.214 H 23.952 a 3.73,3.73 0 0 1 -3.719,-3.719 v -7.312 a 3.73,3.73 0 0 1 3.719,-3.719 h 12.109 a 1.215,1.215 0 0 0 1.214,-1.214 z"
           id="path118"
           inkscape:connector-curvature="0" />
        <path
           style="fill:none;stroke:#ffffff"
           d="m 41.45,146.646 h 6.682 a 0.886,0.886 0 0 0 0.767,-1.329 l -3.341,-5.787 a 0.886,0.886 0 0 0 -1.534,0 l -3.341,5.787 a 0.886,0.886 0 0 0 0.767,1.329 z"
           id="path120"
           inkscape:connector-curvature="0" />
        <path
           style="fill:none;stroke:#ffffff"
           d="m 41.309,146.504 h 6.682 a 0.886,0.886 0 0 0 0.767,-1.329 l -3.341,-5.787 a 0.886,0.886 0 0 0 -1.534,0 l -3.341,5.787 a 0.886,0.886 0 0 0 0.767,1.329 z"
           id="path122"
           inkscape:connector-curvature="0" />
        <path
           style="fill:none;stroke:#ffffff"
           d="m 32.216,162.279 v -6.682 a 0.886,0.886 0 0 0 -1.329,-0.767 l -5.787,3.341 a 0.886,0.886 0 0 0 0,1.534 l 5.787,3.341 a 0.886,0.886 0 0 0 1.329,-0.767 z"
           id="path124"
           inkscape:connector-curvature="0" />
        <path
           style="fill:none;stroke:#ffffff"
           d="m 32.074,162.421 v -6.682 a 0.886,0.886 0 0 0 -1.329,-0.767 l -5.787,3.341 a 0.886,0.886 0 0 0 0,1.534 l 5.787,3.341 a 0.886,0.886 0 0 0 1.329,-0.767 z"
           id="path126"
           inkscape:connector-curvature="0" />
        <path
           style="fill:none;stroke:#ffffff"
           d="m 47.849,171.514 h -6.682 a 0.886,0.886 0 0 0 -0.767,1.329 l 3.341,5.787 a 0.886,0.886 0 0 0 1.534,0 l 3.341,-5.787 a 0.886,0.886 0 0 0 -0.767,-1.329 z"
           id="path128"
           inkscape:connector-curvature="0" />
        <path
           style="fill:none;stroke:#ffffff"
           d="m 47.99,171.656 h -6.682 a 0.886,0.886 0 0 0 -0.767,1.329 l 3.341,5.787 a 0.886,0.886 0 0 0 1.534,0 l 3.341,-5.787 a 0.886,0.886 0 0 0 -0.767,-1.329 z"
           id="path130"
           inkscape:connector-curvature="0" />
        <g
           style="fill:none;stroke:#ffffff"
           id="g136">
          <path
             style="fill:none;stroke:#ffffff"
             d="m 57.084,155.881 v 6.682 a 0.886,0.886 0 0 0 1.329,0.767 l 5.787,-3.341 a 0.886,0.886 0 0 0 0,-1.534 l -5.787,-3.341 a 0.886,0.886 0 0 0 -1.329,0.767 z"
             id="path132"
             inkscape:connector-curvature="0" />
          <path
             style="fill:none;stroke:#ffffff"
             d="m 57.225,155.739 v 6.682 a 0.886,0.886 0 0 0 1.329,0.767 l 5.787,-3.341 a 0.886,0.886 0 0 0 0,-1.534 l -5.787,-3.341 a 0.886,0.886 0 0 0 -1.329,0.767 z"
             id="path134"
             inkscape:connector-curvature="0" />
        </g>
        <linearGradient
           id="a"
           gradientUnits="userSpaceOnUse"
           x1="40.426998"
           y1="161.51801"
           x2="48.872002"
           y2="156.642">
          <stop
             offset="0"
             stop-color="#004c8a"
             id="stop138" />
          <stop
             offset=".628"
             stop-color="#004b88"
             id="stop140" />
          <stop
             offset=".854"
             stop-color="#004981"
             id="stop142" />
          <stop
             offset="1"
             stop-color="#014577"
             id="stop144" />
        </linearGradient>
        <circle
           style="fill:none;stroke:#ffffff"
           cx="44.650002"
           cy="159.08"
           r="4.875"
           id="circle147" />
      </g>
      <path
         style="fill:none;stroke:#ffffff"
         d="m 172.553,65.429 c 0.128,-16.576 -1.897,-29.011 -3.466,-35.333 -1.068,-4.301 -5.888,-12.673 -8.969,-16.388 -0.867,-1.045 -1.82,-2.12 -3.447,-2.519 -0.262,-0.064 -0.708,-0.152 -2.362,-0.169 -1.694,-0.017 -1.993,0.091 -2.936,0.16 a 34.857,34.857 0 0 1 4.907,4.915 c 10.672,13.027 14.638,36.058 16.273,49.334 z"
         id="path151"
         inkscape:connector-curvature="0" />
    </g>
  </g>
</svg>
