<?xml version="1.0" encoding="UTF-8" standalone="no"?>
<svg
   xmlns:dc="http://purl.org/dc/elements/1.1/"
   xmlns:cc="http://creativecommons.org/ns#"
   xmlns:rdf="http://www.w3.org/1999/02/22-rdf-syntax-ns#"
   xmlns:svg="http://www.w3.org/2000/svg"
   xmlns="http://www.w3.org/2000/svg"
   xmlns:sodipodi="http://sodipodi.sourceforge.net/DTD/sodipodi-0.dtd"
   xmlns:inkscape="http://www.inkscape.org/namespaces/inkscape"
   viewBox="0 0 330.30611 208.02926"
   version="1.1"
   id="svg647"
   sodipodi:docname="ps2.svg"
   width="330.30612"
   height="208.02927"
   inkscape:version="0.92.4 (5da689c313, 2019-01-14)">
  <metadata
     id="metadata653">
    <rdf:RDF>
      <cc:Work
         rdf:about="">
        <dc:format>image/svg+xml</dc:format>
        <dc:type
           rdf:resource="http://purl.org/dc/dcmitype/StillImage" />
        <dc:title></dc:title>
      </cc:Work>
    </rdf:RDF>
  </metadata>
  <defs
     id="defs651" />
  <sodipodi:namedview
     pagecolor="#ffffff"
     bordercolor="#666666"
     borderopacity="1"
     objecttolerance="10"
     gridtolerance="10"
     guidetolerance="10"
     inkscape:pageopacity="0"
     inkscape:pageshadow="2"
     inkscape:window-width="1600"
     inkscape:window-height="837"
     id="namedview649"
     showgrid="false"
     inkscape:pagecheckerboard="true"
     inkscape:zoom="1.9556174"
     inkscape:cx="247.89061"
     inkscape:cy="74.857539"
     inkscape:window-x="-8"
     inkscape:window-y="-8"
     inkscape:window-maximized="1"
     inkscape:current-layer="g1622" />
  <linearGradient
     id="a"
     gradientUnits="userSpaceOnUse"
     x1="-46.367001"
     y1="195.98801"
     x2="-45.367001"
     y2="195.98801"
     gradientTransform="matrix(-78.6875,0,0,-78.6875,-3522.178,15542.512)">
    <stop
       offset="0"
       stop-color="#1a1a1a"
       id="stop2" />
    <stop
       offset=".541"
       stop-color="#25272c"
       id="stop4" />
    <stop
       offset="1"
       stop-color="#30353e"
       id="stop6" />
  </linearGradient>
  <linearGradient
     id="b"
     gradientUnits="userSpaceOnUse"
     x1="-46.367001"
     y1="195.98801"
     x2="-45.367001"
     y2="195.98801"
     gradientTransform="matrix(-68.4843,0,0,-68.4843,-3055.374,13542.812)">
    <stop
       offset="0"
       stop-color="#282828"
       id="stop11" />
    <stop
       offset="0"
       stop-color="#282828"
       id="stop13" />
    <stop
       offset="0"
       stop-color="#282828"
       id="stop15" />
    <stop
       offset=".004"
       stop-color="#404649"
       id="stop17" />
    <stop
       offset=".007"
       stop-color="#525b61"
       id="stop19" />
    <stop
       offset=".01"
       stop-color="#5c686f"
       id="stop21" />
    <stop
       offset=".013"
       stop-color="#606c74"
       id="stop23" />
    <stop
       offset=".021"
       stop-color="#505a63"
       id="stop25" />
    <stop
       offset=".032"
       stop-color="#424952"
       id="stop27" />
    <stop
       offset=".045"
       stop-color="#383e47"
       id="stop29" />
    <stop
       offset=".064"
       stop-color="#323740"
       id="stop31" />
    <stop
       offset=".117"
       stop-color="#30353e"
       id="stop33" />
    <stop
       offset=".884"
       stop-color="#1a1a1a"
       id="stop35" />
    <stop
       offset=".937"
       stop-color="#1b1c1c"
       id="stop37" />
    <stop
       offset=".956"
       stop-color="#212223"
       id="stop39" />
    <stop
       offset=".97"
       stop-color="#2a2d2e"
       id="stop41" />
    <stop
       offset=".981"
       stop-color="#373c3f"
       id="stop43" />
    <stop
       offset=".991"
       stop-color="#485055"
       id="stop45" />
    <stop
       offset=".999"
       stop-color="#5d6870"
       id="stop47" />
    <stop
       offset="1"
       stop-color="#606c74"
       id="stop49" />
  </linearGradient>
  <radialGradient
     id="c"
     cx="-46.367001"
     cy="195.98801"
     r="1"
     gradientTransform="matrix(-39.0436,-20.8473,12.2791,-22.9967,-4164.975,3575.386)"
     gradientUnits="userSpaceOnUse">
    <stop
       offset="0"
       stop-color="#30353e"
       id="stop54" />
    <stop
       offset="1"
       stop-color="#1a1a1a"
       id="stop56" />
  </radialGradient>
  <linearGradient
     id="d"
     gradientUnits="userSpaceOnUse"
     x1="-46.367001"
     y1="195.98801"
     x2="-45.367001"
     y2="195.98801"
     gradientTransform="matrix(-9.1504,0,0,-9.1504,-274.66,1984.62)">
    <stop
       offset="0"
       stop-color="#23262a"
       id="stop61" />
    <stop
       offset="1"
       stop-color="#606c74"
       id="stop63" />
  </linearGradient>
  <linearGradient
     id="e"
     gradientUnits="userSpaceOnUse"
     x1="-46.367001"
     y1="195.98801"
     x2="-45.367001"
     y2="195.98801"
     gradientTransform="matrix(-9.1504,0,0,-9.1504,-274.66,1842.268)">
    <stop
       offset="0"
       stop-color="#23262a"
       id="stop68" />
    <stop
       offset="1"
       stop-color="#606c74"
       id="stop70" />
  </linearGradient>
  <radialGradient
     id="f"
     cx="-46.367001"
     cy="195.98801"
     r="1"
     gradientTransform="matrix(0,17.4997,-17.4997,0,3563.682,860.314)"
     gradientUnits="userSpaceOnUse">
    <stop
       offset="0"
       stop-color="#30353e"
       id="stop75" />
    <stop
       offset=".459"
       stop-color="#25272c"
       id="stop77" />
    <stop
       offset="1"
       stop-color="#1a1a1a"
       id="stop79" />
  </radialGradient>
  <radialGradient
     id="g"
     cx="-46.367001"
     cy="195.98801"
     r="1"
     gradientTransform="matrix(0,17.4997,-17.4997,0,3563.683,1002.667)"
     gradientUnits="userSpaceOnUse">
    <stop
       offset="0"
       stop-color="#30353e"
       id="stop84" />
    <stop
       offset=".459"
       stop-color="#25272c"
       id="stop86" />
    <stop
       offset="1"
       stop-color="#1a1a1a"
       id="stop88" />
  </radialGradient>
  <radialGradient
     id="h"
     cx="-46.367001"
     cy="195.98801"
     r="1"
     gradientTransform="matrix(-32.5903,36.9664,-28.8708,-25.453,4230.167,6762.735)"
     gradientUnits="userSpaceOnUse">
    <stop
       offset="0"
       stop-color="#444d56"
       id="stop93" />
    <stop
       offset=".294"
       stop-color="#30353e"
       id="stop95" />
    <stop
       offset=".601"
       stop-color="#23262a"
       id="stop97" />
    <stop
       offset="1"
       stop-color="#1a1a1a"
       id="stop99" />
  </radialGradient>
  <radialGradient
     id="i"
     cx="-46.367001"
     cy="195.98801"
     r="1"
     gradientTransform="matrix(-39.0457,20.8485,-12.2798,-22.9979,648.18,5680.43)"
     gradientUnits="userSpaceOnUse">
    <stop
       offset="0"
       stop-color="#30353e"
       id="stop104" />
    <stop
       offset="1"
       stop-color="#1a1a1a"
       id="stop106" />
  </radialGradient>
  <linearGradient
     id="j"
     gradientUnits="userSpaceOnUse"
     x1="-46.367001"
     y1="195.98801"
     x2="-45.367001"
     y2="195.98801"
     gradientTransform="matrix(-6.6665,0,0,-6.6665,-215.176,1404.996)">
    <stop
       offset="0"
       stop-color="#444d56"
       id="stop111" />
    <stop
       offset="1"
       stop-color="#41444b"
       id="stop113" />
  </linearGradient>
  <linearGradient
     id="k"
     gradientUnits="userSpaceOnUse"
     x1="-46.367001"
     y1="195.98801"
     x2="-45.367001"
     y2="195.98801"
     gradientTransform="matrix(-6.7853,0,0,-6.7853,-220.624,1471.152)">
    <stop
       offset="0"
       stop-color="#444d56"
       id="stop120" />
    <stop
       offset="1"
       stop-color="#41444b"
       id="stop122" />
  </linearGradient>
  <linearGradient
     id="l"
     gradientUnits="userSpaceOnUse"
     x1="-46.367001"
     y1="195.98801"
     x2="-45.367001"
     y2="195.98801"
     gradientTransform="matrix(0,56,-56,0,11070.3,2617.359)">
    <stop
       offset="0"
       stop-color="#23262a"
       id="stop129" />
    <stop
       offset=".478"
       stop-color="#1a1a1a"
       id="stop131" />
    <stop
       offset=".738"
       stop-color="#1b1c1c"
       id="stop133" />
    <stop
       offset=".832"
       stop-color="#202123"
       id="stop135" />
    <stop
       offset=".899"
       stop-color="#282b2e"
       id="stop137" />
    <stop
       offset=".952"
       stop-color="#343a3f"
       id="stop139" />
    <stop
       offset=".998"
       stop-color="#434c55"
       id="stop141" />
    <stop
       offset="1"
       stop-color="#444d56"
       id="stop143" />
  </linearGradient>
  <radialGradient
     id="m"
     cx="-46.367001"
     cy="195.98801"
     r="1"
     gradientTransform="matrix(-34.0373,-35.8679,27.0802,-25.6982,-6802.68,3554.244)"
     gradientUnits="userSpaceOnUse">
    <stop
       offset="0"
       stop-color="#444d56"
       id="stop148" />
    <stop
       offset=".294"
       stop-color="#30353e"
       id="stop150" />
    <stop
       offset=".601"
       stop-color="#23262a"
       id="stop152" />
    <stop
       offset="1"
       stop-color="#1a1a1a"
       id="stop154" />
  </radialGradient>
  <linearGradient
     id="n"
     gradientUnits="userSpaceOnUse"
     x1="-46.367001"
     y1="195.98801"
     x2="-45.367001"
     y2="195.98801"
     gradientTransform="matrix(3.5938,0,0,3.5938,283.046,-655.551)">
    <stop
       offset="0"
       stop-color="#1a1a1a"
       id="stop159" />
    <stop
       offset=".541"
       stop-color="#25272c"
       id="stop161" />
    <stop
       offset="1"
       stop-color="#30353e"
       id="stop163" />
  </linearGradient>
  <linearGradient
     id="o"
     gradientUnits="userSpaceOnUse"
     x1="-46.367001"
     y1="195.98801"
     x2="-45.367001"
     y2="195.98801"
     gradientTransform="matrix(3.5938,0,0,3.5938,236.51,-655.551)">
    <stop
       offset="0"
       stop-color="#1a1a1a"
       id="stop168" />
    <stop
       offset=".541"
       stop-color="#25272c"
       id="stop170" />
    <stop
       offset="1"
       stop-color="#30353e"
       id="stop172" />
  </linearGradient>
  <linearGradient
     id="p"
     gradientUnits="userSpaceOnUse"
     x1="-46.367001"
     y1="195.98801"
     x2="-45.367001"
     y2="195.98801"
     gradientTransform="matrix(7.5674,0,0,7.5674,442.039,-1411.07)">
    <stop
       offset="0"
       stop-color="#1a1a1a"
       id="stop177" />
    <stop
       offset=".541"
       stop-color="#25272c"
       id="stop179" />
    <stop
       offset="1"
       stop-color="#30353e"
       id="stop181" />
  </linearGradient>
  <linearGradient
     id="q"
     gradientUnits="userSpaceOnUse"
     x1="-46.367001"
     y1="195.98801"
     x2="-45.367001"
     y2="195.98801"
     gradientTransform="matrix(7.5674,0,0,7.5674,442.039,-1457.606)">
    <stop
       offset="0"
       stop-color="#1a1a1a"
       id="stop186" />
    <stop
       offset=".541"
       stop-color="#25272c"
       id="stop188" />
    <stop
       offset="1"
       stop-color="#30353e"
       id="stop190" />
  </linearGradient>
  <linearGradient
     id="r"
     gradientUnits="userSpaceOnUse"
     x1="-46.367001"
     y1="195.98801"
     x2="-45.367001"
     y2="195.98801"
     gradientTransform="matrix(-11.3125,0,0,-11.3125,-423.98,2277.636)">
    <stop
       offset="0"
       stop-color="#23262a"
       id="stop195" />
    <stop
       offset="1"
       stop-color="#606c74"
       id="stop197" />
  </linearGradient>
  <linearGradient
     id="s"
     gradientUnits="userSpaceOnUse"
     x1="-46.367001"
     y1="195.98801"
     x2="-45.367001"
     y2="195.98801"
     gradientTransform="matrix(-11.3125,0,0,-11.3125,-423.89,2254.18)">
    <stop
       offset="0"
       stop-color="#23262a"
       id="stop202" />
    <stop
       offset="1"
       stop-color="#606c74"
       id="stop204" />
  </linearGradient>
  <linearGradient
     id="t"
     gradientUnits="userSpaceOnUse"
     x1="-46.367001"
     y1="195.98801"
     x2="-45.367001"
     y2="195.98801"
     gradientTransform="matrix(-13.9947,0,0,-13.9947,-558.686,2791.53)">
    <stop
       offset="0"
       stop-color="#23262a"
       id="stop209" />
    <stop
       offset="1"
       stop-color="#606c74"
       id="stop211" />
  </linearGradient>
  <linearGradient
     id="u"
     gradientUnits="userSpaceOnUse"
     x1="-46.367001"
     y1="195.98801"
     x2="-45.367001"
     y2="195.98801"
     gradientTransform="matrix(-13.9947,0,0,-13.9947,-535.228,2791.62)">
    <stop
       offset="0"
       stop-color="#23262a"
       id="stop216" />
    <stop
       offset="1"
       stop-color="#606c74"
       id="stop218" />
  </linearGradient>
  <linearGradient
     id="v"
     gradientUnits="userSpaceOnUse"
     x1="-46.367001"
     y1="195.98801"
     x2="-45.367001"
     y2="195.98801"
     gradientTransform="matrix(-7.6719,0,0,-7.6719,-212.942,1552.61)">
    <stop
       offset="0"
       stop-color="#30353e"
       id="stop223" />
    <stop
       offset=".378"
       stop-color="#3f474f"
       id="stop225" />
    <stop
       offset="1"
       stop-color="#606c74"
       id="stop227" />
  </linearGradient>
  <linearGradient
     id="w"
     gradientUnits="userSpaceOnUse"
     x1="-46.367001"
     y1="195.98801"
     x2="-45.367001"
     y2="195.98801"
     gradientTransform="matrix(-7.6719,0,0,-7.6719,-212.942,1696.128)">
    <stop
       offset="0"
       stop-color="#30353e"
       id="stop232" />
    <stop
       offset=".378"
       stop-color="#3f474f"
       id="stop234" />
    <stop
       offset="1"
       stop-color="#606c74"
       id="stop236" />
  </linearGradient>
  <linearGradient
     id="x"
     gradientUnits="userSpaceOnUse"
     x1="-42.313"
     y1="195.98801"
     x2="-41.313"
     y2="195.98801"
     gradientTransform="matrix(-3.4531,0,0,-3.4531,-60.294,775.87)">
    <stop
       offset="0"
       stop-color="#9ba2a6"
       id="stop241" />
    <stop
       offset=".311"
       stop-color="#adb2b5"
       id="stop243" />
    <stop
       offset=".93"
       stop-color="#dadbdb"
       id="stop245" />
    <stop
       offset="1"
       stop-color="#e0e0e0"
       id="stop247" />
  </linearGradient>
  <linearGradient
     id="y"
     gradientUnits="userSpaceOnUse"
     x1="-42.313"
     y1="195.98801"
     x2="-41.313"
     y2="195.98801"
     gradientTransform="matrix(-3.4531,0,0,-3.4531,-60.294,817.196)">
    <stop
       offset="0"
       stop-color="#9ba2a6"
       id="stop252" />
    <stop
       offset=".311"
       stop-color="#adb2b5"
       id="stop254" />
    <stop
       offset=".93"
       stop-color="#dadbdb"
       id="stop256" />
    <stop
       offset="1"
       stop-color="#e0e0e0"
       id="stop258" />
  </linearGradient>
  <linearGradient
     id="z"
     gradientUnits="userSpaceOnUse"
     x1="-46.367001"
     y1="195.98801"
     x2="-45.367001"
     y2="195.98801"
     gradientTransform="matrix(-6.2974,0,0,-6.2974,-165.66,1354.9)">
    <stop
       offset="0"
       stop-color="#1a1a1a"
       id="stop263" />
    <stop
       offset=".541"
       stop-color="#25272c"
       id="stop265" />
    <stop
       offset="1"
       stop-color="#30353e"
       id="stop267" />
  </linearGradient>
  <linearGradient
     id="A"
     gradientUnits="userSpaceOnUse"
     x1="-46.367001"
     y1="195.98801"
     x2="-45.367001"
     y2="195.98801"
     gradientTransform="matrix(-56.0313,0,0,-56.0313,-2475.55,11173.854)">
    <stop
       offset="0"
       stop-color="#23262a"
       id="stop272" />
    <stop
       offset=".478"
       stop-color="#1a1a1a"
       id="stop274" />
    <stop
       offset=".738"
       stop-color="#1b1c1c"
       id="stop276" />
    <stop
       offset=".832"
       stop-color="#202123"
       id="stop278" />
    <stop
       offset=".899"
       stop-color="#282b2e"
       id="stop280" />
    <stop
       offset=".952"
       stop-color="#343a3f"
       id="stop282" />
    <stop
       offset=".998"
       stop-color="#434c55"
       id="stop284" />
    <stop
       offset="1"
       stop-color="#444d56"
       id="stop286" />
  </linearGradient>
  <linearGradient
     id="B"
     gradientUnits="userSpaceOnUse"
     x1="-46.367001"
     y1="195.98801"
     x2="-45.367001"
     y2="195.98801"
     gradientTransform="matrix(-16.4868,0,0,-16.4868,-644.1,3423.6)">
    <stop
       offset="0"
       stop-color="#23262a"
       id="stop291" />
    <stop
       offset="1"
       stop-color="#606c74"
       id="stop293" />
  </linearGradient>
  <linearGradient
     id="C"
     gradientUnits="userSpaceOnUse"
     x1="-46.367001"
     y1="195.98801"
     x2="-45.367001"
     y2="195.98801"
     gradientTransform="matrix(-16.4863,0,0,-16.4863,-679.504,3423.504)">
    <stop
       offset="0"
       stop-color="#23262a"
       id="stop298" />
    <stop
       offset="1"
       stop-color="#606c74"
       id="stop300" />
  </linearGradient>
  <linearGradient
     id="D"
     gradientUnits="userSpaceOnUse"
     x1="-46.367001"
     y1="195.98801"
     x2="-45.367001"
     y2="195.98801"
     gradientTransform="matrix(-16.4868,0,0,-16.4868,-661.814,3441.312)">
    <stop
       offset="0"
       stop-color="#23262a"
       id="stop305" />
    <stop
       offset="1"
       stop-color="#606c74"
       id="stop307" />
  </linearGradient>
  <linearGradient
     id="E"
     gradientUnits="userSpaceOnUse"
     x1="-46.367001"
     y1="195.98801"
     x2="-45.367001"
     y2="195.98801"
     gradientTransform="matrix(-16.4868,0,0,-16.4868,-661.814,3405.888)">
    <stop
       offset="0"
       stop-color="#23262a"
       id="stop312" />
    <stop
       offset="1"
       stop-color="#606c74"
       id="stop314" />
  </linearGradient>
  <linearGradient
     id="F"
     gradientUnits="userSpaceOnUse"
     x1="-46.367001"
     y1="195.98801"
     x2="-45.367001"
     y2="195.98801"
     gradientTransform="matrix(-6.8731,0,0,-6.8731,-204.654,1451.55)">
    <stop
       offset="0"
       stop-color="#9ba2a6"
       id="stop325" />
    <stop
       offset=".311"
       stop-color="#adb2b5"
       id="stop327" />
    <stop
       offset=".93"
       stop-color="#dadbdb"
       id="stop329" />
    <stop
       offset="1"
       stop-color="#e0e0e0"
       id="stop331" />
  </linearGradient>
  <linearGradient
     id="G"
     gradientUnits="userSpaceOnUse"
     x1="-46.367001"
     y1="195.98801"
     x2="-45.367001"
     y2="195.98801"
     gradientTransform="matrix(-6.1113,0,0,-6.1113,-169.714,1323.132)">
    <stop
       offset="0"
       stop-color="#9ba2a6"
       id="stop336" />
    <stop
       offset=".311"
       stop-color="#adb2b5"
       id="stop338" />
    <stop
       offset=".93"
       stop-color="#dadbdb"
       id="stop340" />
    <stop
       offset="1"
       stop-color="#e0e0e0"
       id="stop342" />
  </linearGradient>
  <linearGradient
     id="H"
     gradientUnits="userSpaceOnUse"
     x1="-46.367001"
     y1="195.98801"
     x2="-45.367001"
     y2="195.98801"
     gradientTransform="matrix(-6.1113,0,0,-6.1113,-169.714,1333.764)">
    <stop
       offset="0"
       stop-color="#9ba2a6"
       id="stop347" />
    <stop
       offset=".311"
       stop-color="#adb2b5"
       id="stop349" />
    <stop
       offset=".93"
       stop-color="#dadbdb"
       id="stop351" />
    <stop
       offset="1"
       stop-color="#e0e0e0"
       id="stop353" />
  </linearGradient>
  <linearGradient
     id="I"
     gradientUnits="userSpaceOnUse"
     x1="-46.367001"
     y1="195.98801"
     x2="-45.367001"
     y2="195.98801"
     gradientTransform="matrix(-6.873,0,0,-6.873,-204.652,1461.864)">
    <stop
       offset="0"
       stop-color="#9ba2a6"
       id="stop358" />
    <stop
       offset=".311"
       stop-color="#adb2b5"
       id="stop360" />
    <stop
       offset=".93"
       stop-color="#dadbdb"
       id="stop362" />
    <stop
       offset="1"
       stop-color="#e0e0e0"
       id="stop364" />
  </linearGradient>
  <radialGradient
     id="J"
     cx="-46.367001"
     cy="195.98801"
     r="1"
     gradientTransform="matrix(0,16.2091,-16.2091,0,3234.396,836.876)"
     gradientUnits="userSpaceOnUse">
    <stop
       offset="0"
       stop-color="#23262a"
       id="stop373" />
    <stop
       offset=".405"
       stop-color="#25292d"
       id="stop375" />
    <stop
       offset=".754"
       stop-color="#2c3038"
       id="stop377" />
    <stop
       offset=".883"
       stop-color="#30353e"
       id="stop379" />
    <stop
       offset=".926"
       stop-color="#444d56"
       id="stop381" />
    <stop
       offset=".929"
       stop-color="#414952"
       id="stop383" />
    <stop
       offset=".94"
       stop-color="#373e47"
       id="stop385" />
    <stop
       offset=".956"
       stop-color="#323740"
       id="stop387" />
    <stop
       offset="1"
       stop-color="#30353e"
       id="stop389" />
  </radialGradient>
  <radialGradient
     id="K"
     cx="-46.367001"
     cy="195.98801"
     r="1"
     gradientTransform="matrix(0,16.2092,-16.2092,0,3234.421,906.947)"
     gradientUnits="userSpaceOnUse">
    <stop
       offset="0"
       stop-color="#23262a"
       id="stop394" />
    <stop
       offset=".405"
       stop-color="#25292d"
       id="stop396" />
    <stop
       offset=".754"
       stop-color="#2c3038"
       id="stop398" />
    <stop
       offset=".883"
       stop-color="#30353e"
       id="stop400" />
    <stop
       offset=".926"
       stop-color="#444d56"
       id="stop402" />
    <stop
       offset=".929"
       stop-color="#414952"
       id="stop404" />
    <stop
       offset=".94"
       stop-color="#373e47"
       id="stop406" />
    <stop
       offset=".956"
       stop-color="#323740"
       id="stop408" />
    <stop
       offset="1"
       stop-color="#30353e"
       id="stop410" />
  </radialGradient>
  <linearGradient
     id="L"
     gradientUnits="userSpaceOnUse"
     x1="-43.146999"
     y1="192.651"
     x2="-42.146999"
     y2="192.651"
     gradientTransform="matrix(-6.6665,0,0,-6.6665,-215.176,1404.996)">
    <stop
       offset="0"
       stop-color="#444d56"
       id="stop415" />
    <stop
       offset="1"
       stop-color="#41444b"
       id="stop417" />
  </linearGradient>
  <linearGradient
     id="M"
     gradientUnits="userSpaceOnUse"
     x1="74.810997"
     y1="93.482002"
     x2="74.810997"
     y2="101.491"
     gradientTransform="rotate(90,74.81,120.678)">
    <stop
       offset="0"
       stop-color="#9ba2a6"
       id="stop424" />
    <stop
       offset=".311"
       stop-color="#adb2b5"
       id="stop426" />
    <stop
       offset=".93"
       stop-color="#dadbdb"
       id="stop428" />
    <stop
       offset="1"
       stop-color="#e0e0e0"
       id="stop430" />
  </linearGradient>
  <g
     id="g1622"
     transform="rotate(-90.312083,126.0165,82.176168)"
     style="fill:none;stroke:#ffffff">
    <g
       id="g1642"
       transform="matrix(1.1559115,0,0,1.1559115,17.649348,-18.710994)">
      <path
         inkscape:connector-curvature="0"
         style="fill:none;stroke:#ffffff"
         d="m 93.933,94.19 v 8.497 c 0,0.866 -0.702,1.568 -1.568,1.568 h -3.53 a 1.568,1.568 0 0 1 -1.568,-1.568 V 94.19 c 0,-0.867 0.702,-1.569 1.568,-1.569 h 3.53 a 1.57,1.57 0 0 1 1.568,1.569 z"
         id="path116" />
      <path
         style="fill:none;stroke:#ffffff"
         inkscape:connector-curvature="0"
         d="m 93.933,94.19 h -0.25 v 8.497 a 1.32,1.32 0 0 1 -1.318,1.318 h -3.53 a 1.32,1.32 0 0 1 -1.318,-1.318 V 94.19 a 1.32,1.32 0 0 1 1.318,-1.319 h 3.53 a 1.32,1.32 0 0 1 1.318,1.319 h 0.5 a 1.818,1.818 0 0 0 -1.818,-1.819 h -3.53 a 1.818,1.818 0 0 0 -1.818,1.819 v 8.497 c 0,1.004 0.814,1.818 1.818,1.818 h 3.53 a 1.818,1.818 0 0 0 1.818,-1.818 V 94.19 Z"
         id="path118" />
      <path
         inkscape:connector-curvature="0"
         style="fill:none;stroke:#ffffff"
         d="m 90.599,146.347 -3.333,-8.496 c -0.317,-0.81 0.7,-1.569 1.568,-1.569 h 3.53 c 0.869,0 1.886,0.76 1.568,1.569 z"
         id="path125" />
      <path
         style="fill:none;stroke:#ffffff"
         inkscape:connector-curvature="0"
         d="m 90.599,146.347 0.233,-0.091 -3.333,-8.496 -0.042,-0.216 c -0.003,-0.231 0.156,-0.486 0.428,-0.687 0.269,-0.2 0.634,-0.328 0.95,-0.326 h 3.53 a 1.67,1.67 0 0 1 0.95,0.326 c 0.272,0.2 0.431,0.455 0.428,0.687 l -0.043,0.216 -3.333,8.495 0.232,0.092 0.233,-0.091 -0.233,0.091 0.233,0.092 3.333,-8.496 a 1.09,1.09 0 0 0 0.077,-0.398 c -0.003,-0.454 -0.28,-0.83 -0.632,-1.09 a 2.173,2.173 0 0 0 -1.246,-0.423 h -3.53 c -0.442,0.002 -0.89,0.162 -1.246,0.423 -0.352,0.26 -0.629,0.636 -0.632,1.09 0,0.131 0.025,0.267 0.077,0.397 l 3.566,9.09 0.233,-0.593 z"
         id="path127" />
      <path
         inkscape:connector-curvature="0"
         style="fill:none;stroke:#ffffff"
         d="m 72.465,116.44 v 8.497 c 0,0.866 -0.702,1.568 -1.568,1.568 h -3.53 a 1.568,1.568 0 0 1 -1.568,-1.568 v -8.497 c 0,-0.867 0.702,-1.569 1.568,-1.569 h 3.53 c 0.866,0 1.568,0.702 1.568,1.569 z"
         id="path420" />
      <path
         style="fill:none;stroke:#ffffff"
         inkscape:connector-curvature="0"
         d="m 72.465,116.44 h -0.25 v 8.497 a 1.32,1.32 0 0 1 -1.318,1.318 h -3.53 a 1.32,1.32 0 0 1 -1.318,-1.318 v -8.497 a 1.32,1.32 0 0 1 1.318,-1.319 h 3.53 a 1.32,1.32 0 0 1 1.318,1.319 h 0.5 a 1.818,1.818 0 0 0 -1.818,-1.819 h -3.53 a 1.818,1.818 0 0 0 -1.818,1.819 v 8.497 c 0,1.004 0.814,1.818 1.818,1.818 h 3.53 a 1.818,1.818 0 0 0 1.818,-1.818 v -8.497 z"
         id="path422" />
      <path
         style="fill:none;stroke:#ffffff"
         inkscape:connector-curvature="0"
         d="m 60.222,115.93 h 1.224 c 0.405,0 0.733,0.328 0.733,0.733 v 8.048 c 0,0.404 -0.33,0.734 -0.734,0.734 h -1.223 a 0.734,0.734 0 0 1 -0.734,-0.734 v -8.047 a 0.733,0.733 0 0 1 0.734,-0.734 z"
         id="path637" />
      <path
         style="fill:none;stroke:#ffffff"
         inkscape:connector-curvature="0"
         d="m 59.771,124.313 v -7.25 c 0,-0.229 0.188,-0.417 0.417,-0.417 h 1.292 c 0.229,0 0.417,0.188 0.417,0.417 v 7.25 a 0.419,0.419 0 0 1 -0.417,0.417 h -1.292 a 0.419,0.419 0 0 1 -0.417,-0.417 z"
         id="path639" />
      <g
         transform="matrix(-0.00376286,0.69082249,-0.69082249,-0.00376286,165.85437,-9.4909289)"
         id="svgg">
        <path
           style="fill:#ffffff;fill-rule:evenodd;stroke:none;stroke-width:1.00691438"
           d="m 288.3534,22.814558 c -5.93059,0.306685 -12.24579,1.349762 -17.04492,5.152552 -1.51496,1.581232 -3.54934,2.531244 -5.08789,4.069368 -2.07693,2.774955 -2.31675,6.438829 -3.03249,9.734599 -0.83552,4.849401 -1.50015,9.726924 -2.2097,14.596457 -19.21448,0.06164 -38.43141,-0.116242 -57.64419,0.169095 -1.54429,-0.04575 -3.03177,0.236269 -4.48861,0.591312 -6.70691,0.431259 -13.45684,0.452985 -20.1615,-0.02391 -2.72544,-0.812163 -5.64248,-0.524482 -8.4638,-0.647403 -17.25401,-0.198108 -34.5134,0.100445 -51.76463,-0.291596 -0.69444,-0.142797 -1.9747,0.270309 -1.95635,-0.824205 -1.50938,-6.947555 -1.83998,-14.150435 -3.84839,-20.984225 -0.5635,-2.199134 -2.53218,-3.428576 -4.27785,-4.594933 -2.01822,-1.644247 -3.96137,-3.476036 -6.46303,-4.343116 -7.060293,-2.71159 -14.89028,-3.211638 -22.309075,-1.938735 -4.332234,0.766737 -8.605368,2.496022 -11.772568,5.677904 -1.766197,1.446174 -4.228866,2.387741 -4.937245,4.801988 -1.615541,5.073386 -1.981793,10.449705 -2.929359,15.674614 -0.40463,1.995045 -0.462099,4.133582 -1.095133,6.042289 -2.369784,2.461608 -5.404866,4.156365 -7.804046,6.599617 -7.10918,6.579885 -12.32974,15.13102 -15.24705,24.418949 -1.47257,3.423891 -1.6387,7.224661 -2.37146,10.848854 -5.45328,33.497067 -9.83615,67.162157 -14.9927,100.704047 -0.79292,5.43715 -0.97854,11.21769 1.36895,16.31527 6.82723,17.01463 26.3665,27.49493 44.081871,23.74353 7.54904,-1.60107 14.538387,-6.11947 18.74394,-12.73452 5.909188,-8.97606 10.582915,-18.7094 15.561651,-28.23135 3.912624,-7.6614 7.784674,-15.344 11.663164,-23.0232 3.48259,5.18541 8.04736,9.70972 13.6457,12.48267 12.87961,6.66373 29.91194,4.64036 40.33041,-5.74475 2.96197,-2.91114 5.28243,-6.45808 6.90475,-10.29639 h 36.57617 c 3.42448,6.45729 8.41233,12.17849 14.82357,15.68925 10.83584,6.20535 25.01493,5.84521 35.42926,-1.11759 4.54489,-2.9022 8.18314,-7.0456 11.09091,-11.57557 0.73864,0.178 0.96529,1.34948 1.39721,1.94516 7.79377,15.76196 15.80432,31.44002 24.31022,46.8237 4.86989,8.88071 13.993,15.26931 23.99976,16.35882 11.60904,1.36045 23.4633,-3.27368 31.98656,-11.19677 6.5976,-6.15471 11.2852,-14.97067 11.01719,-24.22156 -0.83156,-7.32172 -2.26678,-14.56185 -3.23332,-21.86776 -3.98577,-26.72046 -7.40562,-53.52987 -11.82221,-80.18272 -1.52491,-8.78475 -3.10275,-17.799613 -7.61601,-25.600728 -4.80888,-8.656211 -12.00064,-15.844297 -20.38901,-20.947055 -1.14681,-6.634715 -1.79806,-13.379017 -3.45087,-19.910691 -0.47998,-2.153745 -1.92333,-4.015381 -3.96124,-4.850074 -2.25212,-1.448978 -4.0228,-3.630665 -6.57813,-4.60601 -4.99253,-2.227974 -10.57049,-2.834685 -15.97851,-2.685187 z M 87.63661,23.965071 c 4.90292,0.06194 9.973741,0.453439 14.47743,2.578367 1.03958,0.519282 2.04794,1.119911 2.96007,1.845461 -7.237681,-2.08611 -14.872388,-2.262187 -22.347656,-2.019833 -4.226112,0.185431 -8.448557,0.759238 -12.482422,2.07924 3.072397,-2.712509 7.29179,-3.399691 11.173828,-4.039664 2.061039,-0.279993 4.139471,-0.42433 6.21875,-0.443571 z m 202.83398,0.02574 c 5.45953,-0.01326 11.08063,0.734368 15.77929,3.738669 1.5324,1.029755 -0.6587,0.188225 -1.42383,0.04951 -8.0392,-1.852473 -16.42538,-1.859388 -24.59179,-0.948529 -2.595,0.277909 -5.14048,0.955644 -7.66992,1.487151 2.42664,-2.317161 5.90337,-2.864633 9.04078,-3.54043 2.91753,-0.510882 5.8928,-0.765542 8.86547,-0.786367 z m -201.291011,3.37431 c 6.432089,0.0476 13.253631,0.578188 18.982421,3.64956 2.12617,1.125698 3.87622,3.142466 4.04298,5.655365 1.17959,6.116969 2.10528,12.28069 3.05273,18.438064 -7.04374,-3.773846 -14.70851,-6.517781 -22.691939,-7.164571 -10.608977,-1.011927 -21.363591,1.484396 -30.780509,6.436824 -0.37843,0.05772 -1.760949,1.094498 -1.449103,0.06935 0.901219,-6.168461 1.721256,-12.402293 2.96256,-18.524067 0.973382,-3.922157 4.965386,-5.915944 8.563142,-6.856143 5.605944,-1.557309 11.534096,-1.604709 17.317718,-1.704381 z m 198.703121,0.03763 c 7.54101,-0.01039 15.48048,0.04128 22.35742,3.592132 1.98149,1.037363 3.74739,2.823506 3.88105,5.202776 1.21461,5.964338 2.20118,11.990222 3.00371,18.033214 -12.79478,-7.033258 -28.39197,-8.358457 -42.22908,-3.870378 -4.47452,1.35255 -8.64978,3.513013 -12.71623,5.791199 0.22466,-3.191483 0.95328,-6.608161 1.41042,-9.878598 0.69692,-3.846201 1.1039,-7.769583 2.06211,-11.555611 1.54032,-3.380649 5.43782,-4.744362 8.75989,-5.724612 4.38012,-1.174588 8.92513,-1.648568 13.47071,-1.590122 z m 3.36718,21.309228 c 15.52574,0.06755 30.92964,7.218882 40.85098,19.420723 10.78091,12.928673 15.10992,31.176213 10.91399,47.621698 -3.71919,15.20263 -14.31512,28.56348 -28.26041,35.38596 -12.18488,6.14766 -26.76398,7.2596 -39.70277,2.95782 -1.9805,-0.2603 -1.76569,-2.59221 -2.10448,-4.07306 -1.70455,-10.6056 -8.42004,-20.2804 -17.87532,-25.21425 -4.20099,-2.31794 -8.93573,-3.52495 -13.60294,-4.21712 -0.99823,-0.75369 -0.9447,-2.3063 -1.4188,-3.41086 -4.03208,-14.14524 -1.73262,-29.813526 5.89961,-42.299659 8.56334,-14.36607 23.86464,-24.539145 40.44955,-25.954764 1.61169,-0.15385 3.23204,-0.214165 4.85059,-0.216488 z m -202.935536,0.08317 c 14.431916,0.0569 28.696866,6.409241 38.445316,17.243822 10.9419,11.898977 16.21622,28.951977 13.62131,45.036709 -0.531,2.96225 -1.04285,5.96838 -2.11741,8.77796 -1.06151,1.3188 -3.02613,0.84123 -4.4934,1.30465 -12.99407,2.27645 -24.62687,12.3592 -27.90503,25.4502 -0.67887,2.2681 -0.66324,4.67498 -1.13601,6.96611 -1.03482,1.22295 -2.9166,1.11421 -4.31941,1.64329 -14.251322,3.69626 -29.946602,0.73469 -42.072466,-7.65766 -13.14655,-8.86241 -22.11425,-23.81025 -23.49034,-39.74187 -1.47061,-14.861015 3.52328,-30.176796 13.47277,-41.168029 10.063599,-11.35372 24.933196,-18.061815 39.99467,-17.855188 z m 83.861326,8.562504 c 1.88762,0.09771 3.92205,-0.100323 5.65821,0.726743 5.95494,0.635161 11.97286,0.442025 17.9525,0.326607 1.9064,-0.04374 3.83006,-0.147252 5.65486,-0.669981 10.05436,-0.443261 20.12773,-0.18967 30.1899,-0.28258 l 28.79648,-0.0097 c -3.15652,2.314358 -6.04886,4.96241 -8.83788,7.712987 H 127.51356 c -2.64815,-2.693539 -5.45912,-5.210232 -8.4414,-7.516944 27.54774,-0.129707 28.66428,-0.11713 53.10351,-0.287099 z m -84.634763,3.746591 c -4.040047,0.119758 -8.126569,-0.228308 -12.136719,0.34852 -1.501667,0.41819 -2.997284,1.514842 -3.062298,3.234026 -0.570876,5.553402 -0.265081,11.16243 -0.423494,16.738301 l -0.04155,4.667641 c -6.510134,0.146211 -13.030963,-0.03072 -19.534932,0.27395 -1.88249,0.07067 -4.12365,0.844924 -4.60708,2.925479 -0.93209,3.851251 -0.38933,7.87997 -0.52157,11.805119 0.14114,4.43421 -0.39224,8.93964 0.42335,13.32459 0.3241,1.99693 2.23405,3.17573 4.1127,3.26187 5.421868,0.44981 10.880199,0.14061 16.31588,0.31242 1.267947,0.0126 2.535893,0.025 3.80384,0.0376 0.137363,6.56583 -0.01926,13.14067 0.248787,19.7014 0.05011,1.92517 0.809347,4.23479 2.911936,4.68068 3.916713,0.88391 7.98773,0.36105 11.967767,0.53572 4.219048,-0.10048 8.519386,0.4703 12.682874,-0.39915 2.046182,-0.35294 3.117862,-2.44468 3.182772,-4.38766 0.33945,-5.8981 0.0252,-11.81754 0.12891,-17.72382 0.0151,-1.26043 -0.43363,-2.98649 1.39994,-2.42087 6.1608,-0.14937 12.33205,0.0435 18.48698,-0.24557 1.89064,-0.0398 4.04079,-0.98898 4.39298,-3.07806 0.82119,-4.21816 0.26713,-8.56514 0.40449,-12.83598 -0.13133,-4.154137 0.41659,-8.389201 -0.42102,-12.486854 -0.37562,-2.096788 -2.56951,-2.99638 -4.4587,-3.02926 -6.41894,-0.275267 -12.85322,-0.101286 -19.27765,-0.246595 -1.13837,-0.116312 -0.24226,-2.276285 -0.52761,-3.249461 -0.11198,-5.691968 0.22415,-11.399261 -0.13628,-17.081763 -0.0619,-1.907241 -1.15183,-3.913604 -3.148292,-4.246476 -3.985695,-0.784734 -8.131277,-0.304596 -12.166011,-0.415817 z m 203.835933,0.675258 c -4.04089,0.117553 -8.1272,-0.225063 -12.13868,0.34852 -1.50164,0.422549 -2.9963,1.517559 -3.06034,3.237986 -0.57003,5.492319 -0.26361,11.040543 -0.4216,16.555338 l -0.0435,4.888227 c -6.68399,0.103041 -13.38754,-0.215773 -20.05858,0.275258 -1.83343,0.04785 -3.42142,1.203856 -4.4375,2.645579 v 26.10139 c 1.12547,1.37405 2.61101,2.52781 4.44727,2.56439 6.66875,0.48676 13.36788,0.17119 20.04881,0.27327 0.1447,6.607 -0.0457,13.22544 0.26454,19.8258 0.047,1.99407 0.95257,4.30715 3.10168,4.72705 4.16347,0.89755 8.47388,0.33066 12.69784,0.47714 3.98202,-0.12706 8.05314,0.40478 11.9725,-0.48231 2.15848,-0.44042 2.97408,-2.81045 3.00279,-4.79506 0.22153,-6.56328 -1.2e-4,-13.1376 0.0759,-19.70509 6.56126,-0.14356 13.13101,0.004 19.68764,-0.248 1.86618,-0.0429 4.09718,-0.82693 4.53531,-2.90286 0.89076,-3.94659 0.3328,-8.05153 0.46558,-12.064 -0.14431,-4.412272 0.39844,-8.888344 -0.36822,-13.256854 -0.28947,-1.985646 -2.21099,-3.110117 -4.05667,-3.174285 C 321.72618,86.69064 316.33262,86.967762 310.9568,86.8032 l -4.12883,-0.04116 c -0.0801,-6.593895 0.1541,-13.19539 -0.0823,-19.784616 -0.0481,-1.909743 -0.80813,-4.185801 -2.86049,-4.674377 -3.87979,-0.951339 -7.93408,-0.388594 -11.88644,-0.526285 -0.20731,9.08e-4 -0.41462,0.0018 -0.62192,0.0027 z M 88.056532,62.282473 c 4.011068,0.02308 8.022135,0.04621 12.033208,0.06931 0.7532,1.045739 2.21027,1.819876 1.83593,3.30183 0.0759,6.875944 -0.16815,13.76439 0.18106,20.63241 -0.0775,0.875888 0.67932,1.300185 1.4631,1.132561 7.06769,0.206932 14.13969,0.106112 21.20936,0.131591 0.77712,0.955741 2.2432,1.622131 1.83398,3.076091 v 24.088674 c -0.94259,0.78805 -1.60012,2.27387 -3.03398,1.85943 -7.00548,0.071 -14.03789,-0.17029 -21.02656,0.23169 -0.85367,0.94428 -0.37927,2.50963 -0.58203,3.68718 -0.0747,6.38586 -0.0339,12.7725 -0.0449,19.15871 -0.83503,0.73651 -1.26947,2.34257 -2.621091,1.9525 H 74.98039 c -0.773801,-0.99403 -2.234926,-1.7017 -1.867248,-3.17101 -0.104033,-7.23026 -0.21112,-14.46048 -0.314393,-21.69075 -7.504579,-0.0543 -15.009123,-0.11658 -22.513675,-0.17624 -0.76958,-0.99194 -2.23026,-1.69746 -1.85024,-3.16317 0.023,-7.5375 -0.32905,-15.086194 0.0234,-22.616933 -0.013,-1.352522 0.86618,-2.664113 1.98782,-3.227869 7.450911,-0.0587 14.90181,-0.121178 22.352738,-0.176617 0.10924,-7.632477 0.222115,-15.264905 0.332031,-22.897374 0.878953,-1.246879 2.182227,-2.152496 3.746249,-2.085381 3.719051,-0.239259 7.455406,-0.100008 11.179533,-0.116632 z m 199.183588,0.572286 c 5.53146,0.0736 11.10121,-0.129683 16.60351,0.475254 1.91894,0.669562 1.57645,2.995382 1.75,4.629773 0.19058,6.697356 0.22415,13.398311 0.33789,20.097326 7.67124,0.110766 15.34244,0.22507 23.01368,0.336637 0.8022,0.953217 1.87441,1.802744 1.5039,3.195699 v 23.719562 c -0.80669,0.94882 -1.46916,2.20714 -2.90376,1.79501 -7.20459,0.10644 -14.40918,0.21424 -21.61382,0.31789 -0.16206,6.90051 -0.0857,13.80912 -0.32693,20.70538 -0.0175,1.79969 -0.78811,3.95324 -2.80393,4.2039 -4.41102,0.67696 -8.90067,0.0979 -13.34331,0.20435 -3.47475,-0.0285 -6.94951,-0.057 -10.42426,-0.0856 -0.8047,-1.05578 -2.47289,-1.74128 -2.08228,-3.30961 -0.10574,-7.24015 -0.21314,-14.48028 -0.31616,-21.72046 -7.51694,-0.056 -15.03386,-0.11898 -22.55077,-0.17822 -1.12149,-0.87604 -1.9547,-2.10874 -1.85428,-3.5965 -0.21247,-7.81795 0.052,-15.642811 0.0535,-23.463307 0.94294,-0.815948 1.5773,-2.360345 3.0398,-1.955971 7.10392,-0.05434 14.20782,-0.113787 21.31175,-0.166833 0.10888,-7.632493 0.22236,-15.264923 0.33398,-22.897375 0.96014,-1.134984 2.10792,-2.404686 3.74276,-2.157881 2.17433,-0.112324 4.35209,-0.128323 6.52873,-0.149085 z m 3.52343,2.249538 c -5.62881,-0.03458 -10.53317,4.702171 -11.36821,10.237173 -1.05833,5.381556 2.05799,11.170869 7.08239,13.198866 4.65284,2.141459 10.58572,0.999621 13.9354,-2.980361 3.74868,-3.931137 4.12912,-10.446606 1.09847,-14.913021 -2.29668,-3.629477 -6.5158,-5.740612 -10.74805,-5.542657 z M 87.552626,65.757773 c -1.590087,0.416117 -2.500113,2.077886 -3.738081,3.065988 -0.778607,0.820496 -1.679787,1.551215 -2.312701,2.498451 1.33535,0.52537 2.918299,0.176709 4.34022,0.321155 2.277823,-0.111723 4.647699,0.298969 6.870718,-0.271649 0.794237,-0.726447 -0.555979,-1.585207 -0.976563,-2.126764 -1.369347,-1.093978 -2.343259,-2.846012 -4.015625,-3.481241 -0.05609,0.0016 -0.112602,-0.0098 -0.167968,-0.006 z m 203.712884,0.362382 c 5.47067,-0.174396 10.55673,4.329199 11.07638,9.824164 0.88042,5.967755 -3.88473,11.980715 -9.74781,12.541135 -5.56836,0.721688 -11.30848,-3.497427 -12.15279,-9.159162 -0.94186,-5.110293 2.04688,-10.612637 6.8825,-12.409769 1.25072,-0.507836 2.59551,-0.771278 3.94172,-0.796368 z m -101.73046,0.459413 c 20.235,0.02668 40.47071,-0.01876 60.70508,0.156438 -3.83837,4.72531 -7.1483,9.933972 -9.29669,15.678352 -4.67652,12.052765 -5.16219,25.773412 -1.05488,38.063042 -10.71805,0.27996 -21.47026,4.9961 -28.24546,13.56187 -6.31493,7.73701 -8.75358,18.36453 -6.87806,28.1859 0.69558,1.5335 -0.36171,1.69803 -1.64294,1.57127 -9.60259,0.14732 -19.213,0.23238 -28.81386,-0.002 -0.85417,0.0906 -1.5232,-0.18625 -0.89624,-1.11986 2.70456,-10.74345 -1.21492,-22.36262 -8.53299,-30.32687 -6.32314,-7.05705 -15.44229,-11.50974 -24.88159,-11.73231 -1.56511,0.28393 -0.18283,-1.38037 -0.11595,-2.2095 3.97371,-12.64232 2.37489,-26.654456 -2.88548,-38.665234 -2.05529,-4.766125 -4.97954,-9.065575 -8.11328,-13.160592 h 60.65234 z M 88.119032,67.171655 c 1.112454,1.132222 2.222587,2.26678 3.332031,3.402031 h -7.966797 c 1.379833,-1.297969 2.757746,-2.598032 4.134766,-3.899067 z m -4.021485,7.358526 c -1.423135,0.192202 -3.190019,-0.295653 -4.365234,0.726743 -1.153547,1.659443 -0.59328,3.888505 -0.707031,5.786226 0.247536,2.809345 -0.151437,5.744943 0.699218,8.463491 1.191544,2.123311 3.544482,3.202238 5.310942,4.76377 1.177408,0.994704 2.966237,1.884593 4.323824,0.677898 2.226838,-1.784068 4.717789,-3.349148 6.570313,-5.548601 0.354441,-3.523059 0.06457,-7.128347 -0.08629,-10.673894 -0.221546,-1.083762 0.09773,-2.485882 -0.593396,-3.389681 -3.21835,-0.830656 -6.615172,-0.680096 -9.917969,-0.809913 l -1.234375,0.004 z M 83.537,75.696535 c 3.639893,0.109569 7.323755,-0.200975 10.933594,0.318816 0.503992,1.426262 0.284757,3.167801 0.435787,4.708459 0.02566,2.83093 0.214607,5.693134 -0.133052,8.505597 -2.233124,1.952087 -4.570176,3.875107 -7.128907,5.348594 -2.642878,-1.434778 -4.854948,-3.549278 -7.25,-5.356513 -0.04047,-3.959177 -0.51265,-7.925166 -0.324218,-11.879384 0.139779,-1.782749 2.204744,-1.579936 3.466796,-1.645569 z m 232.32616,14.772498 c -6.00579,0.331294 -11.37592,5.651915 -11.51196,11.814907 -0.34993,5.39715 3.25308,10.72136 8.38411,12.2551 5.56617,2.09154 12.11721,-1.00062 14.68437,-6.29057 2.51242,-4.69734 1.20165,-10.887277 -2.70883,-14.382261 -2.35767,-2.245128 -5.59631,-3.576784 -8.84769,-3.397176 z m -50.53906,0.03569 c -5.96616,0.355526 -11.17804,5.745426 -11.2549,11.836487 -0.30939,5.4197 3.35895,10.72257 8.51607,12.21853 4.66033,1.68775 10.15475,-0.0807 13.10993,-4.07849 3.33589,-4.10758 3.69619,-10.46538 0.48332,-14.747915 -2.44675,-3.437761 -6.67671,-5.48273 -10.85442,-5.228612 z m 51.10156,1.055456 c 4.96636,-0.101428 9.5878,3.615504 10.73145,8.497501 1.59162,5.36656 -1.60469,11.5268 -6.7776,13.33303 -4.85573,1.95928 -10.72456,-0.30775 -13.34642,-4.73325 -3.03239,-4.62276 -1.55704,-11.224016 2.63086,-14.592286 1.85793,-1.568548 4.29496,-2.515965 6.76171,-2.504995 z m -49.76757,0.002 c 5.5116,0.04319 10.39355,4.892461 10.59679,10.467971 0.52147,5.95929 -4.31872,11.71957 -10.19098,12.03536 -5.52548,0.52042 -11.00474,-3.81086 -11.75737,-9.37046 -1.06338,-5.589408 2.84466,-11.372062 8.2214,-12.736223 1.01544,-0.294713 2.07561,-0.412394 3.13016,-0.396648 z m -194.173824,1.74654 c -3.387762,0.211636 -6.810997,0.0051 -10.179687,0.407923 -1.820592,0.388983 -1.698209,2.678124 -1.741749,4.131668 0.08022,3.53588 -0.206818,7.09456 0.124561,10.61707 0.101097,1.63547 1.842285,2.17819 3.207791,2.07033 3.832123,-0.0624 7.758332,-0.0307 11.53049,-0.22871 1.797432,-2.49756 4.051263,-4.69905 5.501954,-7.4318 0.769234,-2.07359 -1.315268,-3.729545 -2.316062,-5.26731 -1.373545,-1.462203 -2.315504,-3.780026 -4.420245,-4.273307 -0.563625,-0.09267 -1.139872,-0.03032 -1.707053,-0.02585 z m 33.703124,0.265351 c -2.14642,0.05303 -4.39129,-0.104196 -6.478512,0.07523 -1.850659,2.560018 -4.209707,4.783772 -5.692005,7.59212 -0.696702,1.95964 1.379441,3.43623 2.277399,4.89766 1.516806,1.91347 2.983872,4.59602 5.738828,4.64315 3.40031,0.14206 6.83184,0.24032 10.22461,-0.0357 1.58397,-0.0714 2.38093,-1.68842 2.33662,-3.12887 0.0763,-3.80023 0.19093,-7.622488 -0.0632,-11.415895 -0.0303,-1.539765 -1.40807,-2.576859 -2.85351,-2.550539 -1.82562,-0.149192 -3.66091,-0.06225 -5.49024,-0.07726 z m -28.740233,4.301057 c 0.844967,1.398936 2.622659,2.599673 2.517578,4.398083 -0.950066,2.28403 -2.922302,3.96516 -4.304203,5.98392 -0.553658,1.44473 -2.00699,0.99521 -3.22275,1.04588 H 61.790907 V 94.815674 c 4.295197,-0.17457 8.590366,-0.352252 12.886719,-0.495056 z M 106.3456,94.653291 c 2.23509,0.08476 4.54305,-0.09541 6.73046,0.356439 0.79134,3.232926 0.57322,6.64815 0.57336,9.96186 -0.13661,1.45867 0.0463,3.0753 -0.57336,4.41658 -2.0794,0.705 -4.38488,0.26907 -6.5496,0.42178 h -5.7375 c -2.079491,-2.25867 -4.098503,-4.68473 -5.719076,-7.31852 -0.257151,-1.54338 1.322221,-2.616889 2.048616,-3.804463 1.059147,-1.340577 2.108893,-2.688738 3.16264,-4.033676 z m 11.25976,1.338631 c 0.10757,3.648617 -0.22144,7.332158 0.17969,10.960558 0.24871,1.09569 1.42296,0.24919 1.79101,-0.29703 1.2013,-1.49267 2.92417,-2.67586 3.67579,-4.47927 0.0438,-1.61714 -1.73757,-2.497205 -2.60761,-3.626938 -1.01368,-1.013419 -2.02607,-2.028157 -3.03888,-3.04247 z M 57.054579,96.19193 c -2.075635,1.59938 -3.804995,3.66791 -5.433595,5.72484 -0.0869,0.90848 1.15773,1.51078 1.61133,2.24954 1.30931,1.25332 2.46685,2.74501 3.99414,3.7248 0.5994,-1.16175 0.205859,-2.67882 0.376354,-3.96322 -0.05145,-2.5438 0.165393,-5.153415 -0.26112,-7.656746 -0.01491,-0.155559 -0.194981,-0.09622 -0.287109,-0.07918 z m -0.523438,2.637659 c 0.02484,2.409211 0.0262,4.818521 0.02344,7.227831 -1.264757,-1.31972 -2.528997,-2.63996 -3.792967,-3.96045 1.24438,-1.39223 2.46988,-2.789247 3.744138,-4.152534 0.0085,0.295047 0.01693,0.590105 0.02539,0.885153 z m 63.800779,1.007936 c 0.66193,0.719795 1.43133,1.403575 1.92579,2.243605 -1.02653,1.44431 -2.35891,2.59558 -3.58594,3.87332 v -7.782329 l 1.66015,1.665363 z m 225.42578,5.111205 c 2.99093,17.90313 5.43952,35.89523 8.02627,53.86205 1.89252,13.43097 3.75239,26.89402 5.99718,40.25448 1.01251,6.83501 0.14768,14.17806 -3.72625,20.01036 -7.13152,10.99431 -19.47733,18.68 -32.58831,18.94172 -9.67696,0.29949 -19.75499,-3.91088 -25.39341,-12.12053 -5.5631,-8.02737 -9.80741,-16.88555 -14.35659,-25.51561 -4.79976,-9.35112 -9.50979,-18.74915 -14.24405,-28.13444 2.35988,-4.56957 3.52866,-9.7181 3.97461,-14.8319 0.10067,-0.7847 -0.12955,-1.93853 0.2207,-2.49311 7.52529,2.41362 15.5168,3.49606 23.38301,2.5284 19.25459,-2.1064 37.03278,-15.24226 44.47641,-33.43672 2.67076,-6.26419 3.8271,-13.07119 4.07808,-19.86273 0.0508,0.26601 0.10156,0.53202 0.15235,0.79803 z M 33.503794,104.8081 c 0.47183,8.42214 2.50975,16.80811 6.5807,24.20235 8.82017,16.49408 26.367807,27.75413 44.856292,28.71693 6.450748,0.42794 12.930421,-0.55832 19.107934,-2.37199 0.98763,0.17255 0.56697,1.72361 0.79958,2.47326 0.36826,5.323 1.86124,10.53522 4.29417,15.26364 -8.12984,16.47495 -16.199751,33.00462 -25.442369,48.87678 -2.752413,5.06543 -6.769042,9.41625 -11.833022,12.14987 -9.949193,5.51017 -22.502555,4.86628 -32.500285,-0.28243 -6.86094,-3.50605 -12.76337,-8.97978 -16.84122,-15.58885 -4.2784,-7.07984 -3.66644,-15.78059 -2.43346,-23.65653 4.5732,-29.28652 8.19795,-58.72089 13.04359,-87.96389 0.10192,-0.56694 0.25588,-1.41459 0.36809,-1.81914 z m 53.9668,3.77234 c -2.197055,0.33412 -3.6843,2.32903 -5.460213,3.50289 -1.51499,1.08122 -3.114447,2.51887 -3.043693,4.57643 -0.0647,3.49722 -0.183506,7.01446 0.04492,10.50511 0.04436,1.59251 1.641159,2.35426 3.031568,2.28908 3.759021,0.0432 7.531897,0.14311 11.286791,-0.0395 1.412733,0.0216 2.504745,-1.18456 2.472657,-2.59409 0.11859,-3.60979 0.273631,-7.23902 0.101562,-10.84769 -0.284462,-2.61025 -3.062431,-3.72154 -4.725608,-5.32836 -1.113874,-0.80864 -2.241863,-2.04385 -3.707986,-2.06383 z m 0.111328,0.96833 c 2.674401,1.45452 4.913352,3.59608 7.337891,5.42582 -0.07465,4.23435 0.195386,8.50242 -0.316406,12.71307 -0.298975,1.40872 -2.211934,0.43949 -3.273438,0.72476 -3.321887,-0.11973 -6.677127,0.25286 -9.978515,-0.17427 -1.72696,-0.42795 -1.323104,-2.63181 -1.396485,-3.97748 0.0266,-2.98637 0.01553,-5.97288 0.01758,-8.95934 2.324315,-2.15125 4.803096,-4.31151 7.609375,-5.75256 z m 202.943348,6.47931 c -7.28193,0.19015 -12.97371,8.2724 -10.977,15.32914 1.37976,6.00186 7.70842,10.17368 13.68393,9.12628 6.32841,-0.87426 11.30193,-7.50173 10.11534,-13.93448 -0.9179,-6.17353 -6.6113,-11.01972 -12.82227,-10.52094 z m 1.05274,1.05545 c 5.02852,-0.0237 9.72638,3.91653 10.564,8.98964 1.23689,5.574 -2.39694,11.68567 -7.84283,13.10983 -5.99307,1.7628 -12.88624,-2.57726 -13.84617,-8.82799 -0.99632,-5.28693 2.2983,-11.06278 7.43945,-12.68532 1.18541,-0.40146 2.43567,-0.60191 3.68555,-0.58616 z m -152.68749,4.62779 c 11.0303,-0.11093 22.07294,5.48953 28.13595,14.9115 7.32835,10.93154 7.81645,26.2821 0.66625,37.4753 -6.54159,10.4719 -19.09369,17.00736 -31.36017,15.58945 -12.69057,-1.21243 -24.26262,-10.20963 -28.47822,-22.40723 -3.73559,-10.25394 -2.11822,-22.33881 4.25448,-31.1679 6.07771,-8.71202 16.22444,-14.34074 26.78171,-14.40112 z m 100.10547,0.006 c 11.51491,0.0894 22.80345,6.52693 28.60582,16.65632 5.98566,9.96679 6.40491,23.16387 0.79891,33.41456 -4.90865,9.37515 -14.25379,16.37731 -24.73369,17.707 -12.67124,1.84546 -26.0894,-4.28237 -32.94727,-15.24917 -5.83264,-9.07988 -7.2271,-21.08907 -2.99061,-31.11017 5.02882,-12.56924 17.78137,-21.65408 31.26684,-21.41854 z m -0.44532,6.57436 c -5.81844,0.48291 -11.75609,2.11186 -16.35278,5.91966 -9.42363,7.46926 -12.75924,21.61084 -7.80571,32.62658 4.21424,9.72145 14.43661,16.60546 24.99959,16.05639 11.71203,-0.33671 22.90338,-8.95074 25.66644,-20.61941 2.10172,-8.52138 -0.31225,-17.97921 -6.21875,-24.40422 -5.09355,-5.73953 -12.53378,-9.83471 -20.28879,-9.579 z m -100.16406,0.11287 c -9.91613,0.62745 -19.38038,6.90707 -23.49023,16.15272 -3.9146,8.34471 -3.09917,18.73568 2.20117,26.27762 4.99815,7.39747 13.58408,12.44827 22.54214,12.13181 11.84646,-0.16849 23.10023,-8.96602 25.89013,-20.70938 2.11117,-8.63074 -0.13292,-18.38341 -6.34921,-24.77408 -5.32524,-5.66742 -12.97895,-9.41429 -20.794,-9.07869 z m 1.1875,1.11091 c 9.82448,0.0779 19.27985,6.23231 23.24263,15.36992 3.93618,8.52297 2.79786,19.10193 -2.84569,26.57065 -5.06501,7.15729 -13.94907,11.17101 -22.56495,10.30804 -9.71005,-0.72226 -18.82918,-7.32246 -22.12873,-16.68957 -3.20648,-8.44324 -1.65484,-18.48134 3.96019,-25.49536 4.83536,-6.26324 12.47574,-10.18416 20.33655,-10.06368 z m 99.48633,0.0555 c 8.94454,0.0785 17.69998,5.1517 22.06617,13.13219 4.6977,8.09661 4.60757,18.8635 -0.35524,26.77533 -4.77417,8.07154 -13.95701,12.90294 -23.20886,12.3513 -9.13929,-0.34849 -17.79294,-5.95812 -21.77446,-14.32875 -4.02326,-7.82478 -3.53984,-17.73829 1.06373,-25.24146 4.57459,-7.78728 13.20209,-12.9381 22.20866,-12.68861 z m -0.69727,2.19212 c -9.12251,0.28152 -17.78628,6.31954 -21.2032,14.92087 -3.29904,7.70517 -2.07698,17.14638 3.13584,23.69026 4.74504,6.39813 12.84656,10.02736 20.70936,9.09614 9.00131,-0.83446 17.2575,-7.29967 20.07674,-16.04937 2.17226,-6.18485 1.63161,-13.28196 -1.64871,-18.96197 -4.18201,-7.55028 -12.39876,-12.9503 -21.07003,-12.69593 z m -99.65625,0.0258 c -8.70715,0.35263 -17.02825,5.88556 -20.57457,13.99872 -3.8627,8.24282 -2.65721,18.76591 3.43093,25.5903 5.32821,6.25765 13.98199,9.51439 22.0193,7.79096 9.54111,-1.79517 17.70821,-9.94976 19.05403,-19.78353 1.38263,-8.81639 -2.68019,-18.08942 -9.87084,-23.17747 -4.04859,-2.95989 -9.0526,-4.62779 -14.05885,-4.41898 z m -57.22656,1.02774 c 1.886381,1.7494 3.468347,3.87175 5.517578,5.41988 1.366046,0.51798 2.246772,-1.25383 3.196937,-1.91087 0.873199,-1.05899 2.402132,-1.78431 2.795251,-3.16841 -0.473288,-0.95753 -1.892351,-0.52211 -2.752727,-0.67907 -3.031588,-0.0144 -6.063296,-0.002 -9.09493,-0.006 0.11263,0.11486 0.225261,0.22971 0.337891,0.34457 z m 156.83203,0.10494 c 7.83572,-0.11846 15.72731,3.98817 19.66015,10.95859 4.98151,8.36094 4.1276,19.98278 -2.53319,27.1707 -5.80899,6.44935 -15.38693,9.25194 -23.60874,6.27449 -8.96228,-2.98179 -15.64986,-12.02064 -15.45283,-21.66639 -0.0415,-9.29946 6.28752,-18.06101 14.77324,-21.37548 2.29322,-0.74917 4.74357,-1.32772 7.16137,-1.36191 z m -99.69531,0.004 c 7.21132,-0.17551 14.54228,3.10705 18.76349,9.13488 5.47207,7.39457 5.89471,18.27227 0.70303,25.98191 -4.5473,7.08938 -13.03066,11.45467 -21.3875,10.29333 -8.70967,-0.95866 -16.60569,-7.62897 -18.84365,-16.3061 -2.09883,-7.29458 -0.20582,-15.48476 4.68833,-21.20401 3.3897,-4.17004 8.32152,-6.96269 13.617,-7.63502 0.80734,-0.18818 1.6324,-0.25737 2.4593,-0.26499 z m -51.150392,0.62773 h 3.984375 c -1.274157,1.30292 -2.548233,2.60593 -3.822266,3.90897 -1.328178,-1.29187 -2.650849,-2.58978 -3.996093,-3.86343 1.277396,-0.0435 2.556086,-0.028 3.833984,-0.0455 z M 206.0995,167.24296 c 0.60218,1.33462 1.10679,2.59952 -0.86172,2.09706 -10.90963,-0.0685 -21.82593,0.15836 -32.73108,-0.18312 -1.70948,0.30016 -0.41496,-1.42132 -0.26071,-2.3397 0.14892,-1.50338 0.89225,-2.17564 2.38203,-1.80421 10.22877,-0.001 20.45755,-0.002 30.68633,-0.004 0.26172,0.74457 0.52343,1.48913 0.78515,2.2337 z"
           id="path0"
           inkscape:connector-curvature="0"
           sodipodi:nodetypes="cccccccccccccccccccccccccccccccccccccccccccccccccccccccccccccccccccccccccccccccccccccccccccccccccccccccccccccccccccccccccccccccccccccccccccccccccccccccccccccccccccccccccccccccccccccccccccccccccccccccccccccccccccccccccccccccccccccccccccccccccccccccccccccccccccccccccccccccccccccccccccccccccccccccccccccccccccccccccccccccccccccccccccccccccccccccccccccccccccccccccccccccccccccccccccccccccccccccccccccccccccccccccccccccccccccccccccccccccccccccccccccccccccccccccccccccccccccccccccccccccccccccccccccccccccccccccccccccccccccccccccccc" />
      </g>
    </g>
  </g>
</svg>
