<?xml version="1.0" encoding="UTF-8" standalone="no"?>
<!-- Created with Inkscape (http://www.inkscape.org/) -->

<svg
   xmlns:dc="http://purl.org/dc/elements/1.1/"
   xmlns:cc="http://creativecommons.org/ns#"
   xmlns:rdf="http://www.w3.org/1999/02/22-rdf-syntax-ns#"
   xmlns:svg="http://www.w3.org/2000/svg"
   xmlns="http://www.w3.org/2000/svg"
   xmlns:sodipodi="http://sodipodi.sourceforge.net/DTD/sodipodi-0.dtd"
   xmlns:inkscape="http://www.inkscape.org/namespaces/inkscape"
   width="111.59146mm"
   height="47.390545mm"
   viewBox="0 0 111.59146 47.390545"
   version="1.1"
   id="svg8"
   inkscape:version="0.92.4 (5da689c313, 2019-01-14)"
   sodipodi:docname="switch0.svg">
  <defs
     id="defs2" />
  <sodipodi:namedview
     id="base"
     pagecolor="#ffffff"
     bordercolor="#666666"
     borderopacity="1.0"
     inkscape:pageopacity="0.0"
     inkscape:pageshadow="2"
     inkscape:zoom="1"
     inkscape:cx="121.58791"
     inkscape:cy="5.7645191"
     inkscape:document-units="mm"
     inkscape:current-layer="g906"
     showgrid="false"
     inkscape:object-paths="false"
     inkscape:snap-intersection-paths="false"
     inkscape:snap-smooth-nodes="true"
     inkscape:window-width="1600"
     inkscape:window-height="837"
     inkscape:window-x="-8"
     inkscape:window-y="-8"
     inkscape:window-maximized="1" />
  <metadata
     id="metadata5">
    <rdf:RDF>
      <cc:Work
         rdf:about="">
        <dc:format>image/svg+xml</dc:format>
        <dc:type
           rdf:resource="http://purl.org/dc/dcmitype/StillImage" />
        <dc:title></dc:title>
      </cc:Work>
    </rdf:RDF>
  </metadata>
  <g
     inkscape:label="Ebene 1"
     inkscape:groupmode="layer"
     id="layer1"
     transform="translate(-6.305361,-43.496996)">
    <g
       id="g906"
       transform="matrix(0.56851871,0,0,0.56851871,2.7206451,39.21628)">
      <g
         id="g70"
         style="stroke:#ffffff;fill:none">
        <path
           inkscape:connector-curvature="0"
           style="opacity:1;fill:none;fill-opacity:1;stroke:#ffffff;stroke-width:1.99999976;stroke-linecap:square;stroke-linejoin:miter;stroke-miterlimit:4;stroke-dasharray:none;stroke-dashoffset:0;stroke-opacity:1;paint-order:normal"
           d="M 52.961999,8.1054521 V 8.557907 h -16.6002 v 1.4383055 a 2.1911953,2.1911953 0 0 1 -2.191292,2.1912895 v 78.70003 h 2.191292 v -6.8e-4 h 136.175791 2.19129 V 90.52794 h 0.39009 V 13.487812 h -0.39009 V 12.18684 A 2.1911953,2.1911953 0 0 1 172.53759,9.9955467 V 8.557907 H 64.786873 V 8.1054521 H 59.988989 V 8.557907 H 57.759883 V 8.1054521 Z M 33.779087,13.487812 v 77.040145 h 0.390756 V 13.487812 Z"
           id="rect837" />
        <path
           inkscape:connector-curvature="0"
           style="opacity:1;fill:none;fill-opacity:1;stroke:#ffffff;stroke-width:1.99999976;stroke-linecap:square;stroke-linejoin:miter;stroke-miterlimit:4;stroke-dasharray:none;stroke-dashoffset:0;stroke-opacity:1;paint-order:normal"
           d="m 25.024291,8.55791 c -10.359864,0 -18.7005986,8.340055 -18.7005986,18.699932 v 44.929081 c 0,10.359877 8.3407346,18.699945 18.7005986,18.699945 h 8.772466 V 8.55791 Z"
           id="path975" />
        <path
           inkscape:connector-curvature="0"
           style="color:#000000;font-style:normal;font-variant:normal;font-weight:normal;font-stretch:normal;font-size:medium;line-height:normal;font-family:sans-serif;font-variant-ligatures:normal;font-variant-position:normal;font-variant-caps:normal;font-variant-numeric:normal;font-variant-alternates:normal;font-feature-settings:normal;text-indent:0;text-align:start;text-decoration:none;text-decoration-line:none;text-decoration-style:solid;text-decoration-color:#000000;letter-spacing:normal;word-spacing:normal;text-transform:none;writing-mode:lr-tb;direction:ltr;text-orientation:mixed;dominant-baseline:auto;baseline-shift:baseline;text-anchor:start;white-space:normal;shape-padding:0;clip-rule:nonzero;display:inline;overflow:visible;visibility:visible;opacity:1;isolation:auto;mix-blend-mode:normal;color-interpolation:sRGB;color-interpolation-filters:linearRGB;solid-color:#000000;solid-opacity:1;vector-effect:none;fill:none;fill-opacity:1;fill-rule:nonzero;stroke:#ffffff;stroke-width:0.80000001;stroke-linecap:square;stroke-linejoin:miter;stroke-miterlimit:4;stroke-dasharray:none;stroke-dashoffset:0;stroke-opacity:1;paint-order:normal;color-rendering:auto;image-rendering:auto;shape-rendering:auto;text-rendering:auto;enable-background:accumulate"
           d="m 25.005964,7.5296007 c -7.917007,0 -14.691688,4.7555613 -17.6391239,11.5727723 h 1.122514 C 11.363932,12.864169 17.656267,8.557907 25.005964,8.557907 h 3.796777 V 7.5296007 Z"
           id="path911" />
        <path
           inkscape:connector-curvature="0"
           style="opacity:1;fill:none;fill-opacity:0;stroke:#ffffff;stroke-width:1.99999976;stroke-linecap:square;stroke-linejoin:miter;stroke-miterlimit:4;stroke-dasharray:none;stroke-dashoffset:0;stroke-opacity:1;paint-order:normal"
           d="m 25.005964,8.557907 c -10.359875,0 -18.7006027,8.340065 -18.7006027,18.699941 v 44.92908 c 0,10.359877 8.3407277,18.699941 18.7006027,18.699941 h 8.772459 V 8.557907 Z"
           id="rect898" />
        <path
           id="path920"
           d="m 183.88935,7.5295956 c 7.917,0 14.69169,4.7555704 17.63913,11.5727764 h -1.12252 C 197.53138,12.864162 191.23905,8.55791 183.88935,8.55791 h -3.79677 V 7.5295956 Z"
           style="color:#000000;font-style:normal;font-variant:normal;font-weight:normal;font-stretch:normal;font-size:medium;line-height:normal;font-family:sans-serif;font-variant-ligatures:normal;font-variant-position:normal;font-variant-caps:normal;font-variant-numeric:normal;font-variant-alternates:normal;font-feature-settings:normal;text-indent:0;text-align:start;text-decoration:none;text-decoration-line:none;text-decoration-style:solid;text-decoration-color:#000000;letter-spacing:normal;word-spacing:normal;text-transform:none;writing-mode:lr-tb;direction:ltr;text-orientation:mixed;dominant-baseline:auto;baseline-shift:baseline;text-anchor:start;white-space:normal;shape-padding:0;clip-rule:nonzero;display:inline;overflow:visible;visibility:visible;opacity:1;isolation:auto;mix-blend-mode:normal;color-interpolation:sRGB;color-interpolation-filters:linearRGB;solid-color:#000000;solid-opacity:1;vector-effect:none;fill:none;fill-opacity:1;fill-rule:nonzero;stroke:#ffffff;stroke-width:0.80000001;stroke-linecap:square;stroke-linejoin:miter;stroke-miterlimit:4;stroke-dasharray:none;stroke-dashoffset:0;stroke-opacity:1;paint-order:normal;color-rendering:auto;image-rendering:auto;shape-rendering:auto;text-rendering:auto;enable-background:accumulate"
           inkscape:connector-curvature="0" />
        <path
           id="path904"
           d="m 183.88935,8.55791 c 10.35987,0 18.7006,8.340055 18.7006,18.699932 v 44.929081 c 0,10.359877 -8.34073,18.699945 -18.7006,18.699945 h -8.77246 V 8.55791 Z"
           style="opacity:1;fill:none;fill-opacity:1;stroke:#ffffff;stroke-width:1.99999976;stroke-linecap:square;stroke-linejoin:miter;stroke-miterlimit:4;stroke-dasharray:none;stroke-dashoffset:0;stroke-opacity:1;paint-order:normal"
           inkscape:connector-curvature="0" />
        <path
           inkscape:connector-curvature="0"
           style="opacity:1;fill:none;fill-opacity:1;stroke:#ffffff;stroke-width:0.80000001;stroke-linecap:square;stroke-linejoin:miter;stroke-miterlimit:4;stroke-dasharray:none;stroke-dashoffset:0;stroke-opacity:1;paint-order:normal"
           d="m 21.206534,43.135581 a 3.1374196,3.1374196 0 0 0 -3.137997,3.137334 3.1374196,3.1374196 0 0 0 3.137997,3.137331 3.1374196,3.1374196 0 0 0 3.137333,-3.137331 3.1374196,3.1374196 0 0 0 -3.137333,-3.137334 z"
           id="path1190" />
        <path
           inkscape:connector-curvature="0"
           style="opacity:1;fill:none;fill-opacity:1;stroke:#ffffff;stroke-width:0.80000001;stroke-linecap:square;stroke-linejoin:miter;stroke-miterlimit:4;stroke-dasharray:none;stroke-dashoffset:0;stroke-opacity:1;paint-order:normal"
           d="m 15.201217,49.13957 a 3.1374196,3.1374196 0 0 0 -3.137333,3.137996 3.1374196,3.1374196 0 0 0 3.137333,3.137334 3.1374196,3.1374196 0 0 0 3.137997,-3.137334 3.1374196,3.1374196 0 0 0 -3.137997,-3.137996 z"
           id="path1188" />
        <path
           inkscape:connector-curvature="0"
           style="opacity:1;fill:none;fill-opacity:1;stroke:#ffffff;stroke-width:0.80000001;stroke-linecap:square;stroke-linejoin:miter;stroke-miterlimit:4;stroke-dasharray:none;stroke-dashoffset:0;stroke-opacity:1;paint-order:normal"
           d="M 27.211186,49.13957 A 3.1374196,3.1374196 0 0 0 24.07319,52.277566 3.1374196,3.1374196 0 0 0 27.211186,55.4149 3.1374196,3.1374196 0 0 0 30.34852,52.277566 3.1374196,3.1374196 0 0 0 27.211186,49.13957 Z"
           id="path1186" />
        <path
           inkscape:connector-curvature="0"
           style="opacity:1;fill:none;fill-opacity:1;stroke:#ffffff;stroke-width:0.80000001;stroke-linecap:square;stroke-linejoin:miter;stroke-miterlimit:4;stroke-dasharray:none;stroke-dashoffset:0;stroke-opacity:1;paint-order:normal"
           d="m 21.206534,55.144887 a 3.1374196,3.1374196 0 0 0 -3.137997,3.137331 3.1374196,3.1374196 0 0 0 3.137997,3.137334 3.1374196,3.1374196 0 0 0 3.137333,-3.137334 3.1374196,3.1374196 0 0 0 -3.137333,-3.137331 z"
           id="path922" />
        <path
           inkscape:connector-curvature="0"
           style="opacity:1;fill:none;fill-opacity:1;stroke:#ffffff;stroke-width:0.80000001;stroke-linecap:square;stroke-linejoin:miter;stroke-miterlimit:4;stroke-dasharray:none;stroke-dashoffset:0;stroke-opacity:1;paint-order:normal"
           d="m 187.77499,20.257938 a 3.1374196,3.1374196 0 0 0 -3.13799,3.137335 3.1374196,3.1374196 0 0 0 3.13799,3.137335 3.1374196,3.1374196 0 0 0 3.13734,-3.137335 3.1374196,3.1374196 0 0 0 -3.13734,-3.137335 z"
           id="path1180" />
        <path
           inkscape:connector-curvature="0"
           style="opacity:1;fill:none;fill-opacity:1;stroke:#ffffff;stroke-width:0.80000001;stroke-linecap:square;stroke-linejoin:miter;stroke-miterlimit:4;stroke-dasharray:none;stroke-dashoffset:0;stroke-opacity:1;paint-order:normal"
           d="m 181.76967,26.261931 a 3.1374196,3.1374196 0 0 0 -3.13733,3.13799 3.1374196,3.1374196 0 0 0 3.13733,3.137335 3.1374196,3.1374196 0 0 0 3.13801,-3.137335 3.1374196,3.1374196 0 0 0 -3.13801,-3.13799 z"
           id="path1178" />
        <path
           inkscape:connector-curvature="0"
           style="opacity:1;fill:none;fill-opacity:1;stroke:#ffffff;stroke-width:0.80000001;stroke-linecap:square;stroke-linejoin:miter;stroke-miterlimit:4;stroke-dasharray:none;stroke-dashoffset:0;stroke-opacity:1;paint-order:normal"
           d="m 193.77964,26.261931 a 3.1374196,3.1374196 0 0 0 -3.13799,3.13799 3.1374196,3.1374196 0 0 0 3.13799,3.137335 3.1374196,3.1374196 0 0 0 3.13733,-3.137335 3.1374196,3.1374196 0 0 0 -3.13733,-3.13799 z"
           id="path1176" />
        <path
           inkscape:connector-curvature="0"
           style="opacity:1;fill:none;fill-opacity:1;stroke:#ffffff;stroke-width:0.80000001;stroke-linecap:square;stroke-linejoin:miter;stroke-miterlimit:4;stroke-dasharray:none;stroke-dashoffset:0;stroke-opacity:1;paint-order:normal"
           d="m 187.77499,32.267246 a 3.1374196,3.1374196 0 0 0 -3.13799,3.137323 3.1374196,3.1374196 0 0 0 3.13799,3.137335 3.1374196,3.1374196 0 0 0 3.13734,-3.137335 3.1374196,3.1374196 0 0 0 -3.13734,-3.137323 z"
           id="path930" />
        <path
           style="opacity:1;fill:none;fill-opacity:1;stroke:#ffffff;stroke-width:0.80000001;stroke-linecap:square;stroke-linejoin:miter;stroke-miterlimit:4;stroke-dasharray:none;stroke-dashoffset:0;stroke-opacity:1;paint-order:normal"
           d="m 27.008841,15.833073 h 4.638662 v 1.75144 h -4.638662 z"
           id="rect932" />
        <path
           style="opacity:1;fill:none;fill-opacity:1;stroke:#ffffff;stroke-width:0.80000001;stroke-linecap:square;stroke-linejoin:miter;stroke-miterlimit:4;stroke-dasharray:none;stroke-dashoffset:0;stroke-opacity:1;paint-order:normal"
           d="m 177.31424,15.833073 h 4.63866 v 1.75144 h -4.63866 z"
           id="rect934" />
        <path
           transform="rotate(90)"
           style="opacity:1;fill:none;fill-opacity:1;stroke:#ffffff;stroke-width:0.80000001;stroke-linecap:square;stroke-linejoin:miter;stroke-miterlimit:4;stroke-dasharray:none;stroke-dashoffset:0;stroke-opacity:1;paint-order:normal"
           d="m 14.389459,-180.50929 h 4.638662 v 1.75144 h -4.638662 z"
           id="rect936" />
        <path
           style="opacity:1;fill:none;fill-opacity:1;stroke:#ffffff;stroke-width:0.80000001;stroke-linecap:square;stroke-linejoin:miter;stroke-miterlimit:4;stroke-dasharray:none;stroke-dashoffset:0;stroke-opacity:1;paint-order:normal"
           d="m 23.198132,65.106926 h 5.116327 v 4.861573 h -5.116327 z"
           id="rect938" />
        <path
           style="opacity:1;fill:none;fill-opacity:1;stroke:#ffffff;stroke-width:0.80000001;stroke-linecap:square;stroke-linejoin:miter;stroke-miterlimit:4;stroke-dasharray:none;stroke-dashoffset:0;stroke-opacity:1;paint-order:normal"
           d="m 186.85892,67.679474 a 3.4676743,3.4676743 0 0 1 -3.46767,3.467674 3.4676743,3.4676743 0 0 1 -3.46767,-3.467674 3.4676743,3.4676743 0 0 1 3.46767,-3.467674 3.4676743,3.4676743 0 0 1 3.46767,3.467674 z"
           id="path942" />
        <path
           style="opacity:1;fill:none;fill-opacity:1;stroke:#ffffff;stroke-width:0.79999995;stroke-linecap:square;stroke-linejoin:miter;stroke-miterlimit:4;stroke-dasharray:none;stroke-dashoffset:0;stroke-opacity:1;paint-order:normal"
           d="m 27.582282,29.363598 a 6.4750204,6.4750204 0 0 1 -6.47502,6.47502 6.4750204,6.4750204 0 0 1 -6.475021,-6.47502 6.4750204,6.4750204 0 0 1 6.475021,-6.475021 6.4750204,6.4750204 0 0 1 6.47502,6.475021 z"
           id="circle948" />
        <path
           style="opacity:1;fill:none;fill-opacity:1;stroke:#ffffff;stroke-width:0.79999995;stroke-linecap:square;stroke-linejoin:miter;stroke-miterlimit:4;stroke-dasharray:none;stroke-dashoffset:0;stroke-opacity:1;paint-order:normal"
           d="m 20.687977,22.888581 a 6.4750204,6.4750204 0 0 0 -6.034506,6.041146 H 16.523 a 4.606818,4.606818 0 0 1 4.164977,-4.166304 z m 0.838568,0.0064 v 1.869527 a 4.606818,4.606818 0 0 1 4.166305,4.164982 h 1.874837 A 6.4750204,6.4750204 0 0 0 21.526545,22.895 Z m -6.879708,6.873077 a 6.4750204,6.4750204 0 0 0 6.04114,6.034497 v -1.869527 a 4.606818,4.606818 0 0 1 -4.166304,-4.16497 z m 11.044687,0 a 4.606818,4.606818 0 0 1 -4.164979,4.166305 v 1.874829 a 6.4750204,6.4750204 0 0 0 6.034508,-6.041134 z"
           id="path944"
           inkscape:connector-curvature="0" />
        <path
           style="opacity:1;fill:none;fill-opacity:1;stroke:#ffffff;stroke-width:0.79999995;stroke-linecap:square;stroke-linejoin:miter;stroke-miterlimit:4;stroke-dasharray:none;stroke-dashoffset:0;stroke-opacity:1;paint-order:normal"
           d="m 194.36331,52.181202 a 6.4750204,6.4750204 0 0 1 -6.47502,6.47502 6.4750204,6.4750204 0 0 1 -6.47502,-6.47502 6.4750204,6.4750204 0 0 1 6.47502,-6.47502 6.4750204,6.4750204 0 0 1 6.47502,6.47502 z"
           id="circle963" />
        <path
           inkscape:connector-curvature="0"
           id="path961"
           d="m 187.469,45.706174 a 6.4750204,6.4750204 0 0 0 -6.03451,6.041146 h 1.86952 a 4.606818,4.606818 0 0 1 4.16499,-4.166304 z m 0.83856,0.0064 v 1.869514 a 4.606818,4.606818 0 0 1 4.16631,4.164982 h 1.87484 a 6.4750204,6.4750204 0 0 0 -6.04115,-6.034496 z m -6.8797,6.873065 a 6.4750204,6.4750204 0 0 0 6.04114,6.034496 v -1.869527 a 4.606818,4.606818 0 0 1 -4.16631,-4.164969 z m 11.04469,0 a 4.606818,4.606818 0 0 1 -4.16499,4.166304 v 1.874829 a 6.4750204,6.4750204 0 0 0 6.03451,-6.041133 z"
           style="opacity:1;fill:none;fill-opacity:1;stroke:#ffffff;stroke-width:0.79999995;stroke-linecap:square;stroke-linejoin:miter;stroke-miterlimit:4;stroke-dasharray:none;stroke-dashoffset:0;stroke-opacity:1;paint-order:normal" />
        <path
           style="opacity:1;fill:none;fill-opacity:1;stroke:#ffffff;stroke-width:0.80000001;stroke-linecap:square;stroke-linejoin:miter;stroke-miterlimit:4;stroke-dasharray:none;stroke-dashoffset:0;stroke-opacity:1;paint-order:normal"
           d="M 39.412313,11.789871 H 169.48574 c 0.62296,0 1.12448,0.501518 1.12448,1.124479 v 73.616757 c 0,0.622962 -0.50152,1.124479 -1.12448,1.124479 H 39.412313 c -0.622961,0 -1.124479,-0.501517 -1.124479,-1.124479 V 12.91435 c 0,-0.622961 0.501518,-1.124479 1.124479,-1.124479 z"
           id="rect967" />
        <path
           style="opacity:1;fill:none;fill-opacity:1;stroke:#ffffff;stroke-width:0.80000001;stroke-linecap:square;stroke-linejoin:miter;stroke-miterlimit:4;stroke-dasharray:none;stroke-dashoffset:0;stroke-opacity:1;paint-order:normal"
           d="M 48.572296,18.328945 H 160.5144 V 81.150448 H 48.572296 Z"
           id="rect969" />
        <path
           style="opacity:1;fill:none;fill-opacity:1;stroke:#ffffff;stroke-width:0.79999995;stroke-linecap:square;stroke-linejoin:miter;stroke-miterlimit:4;stroke-dasharray:none;stroke-dashoffset:0;stroke-opacity:1;paint-order:normal"
           d="m 186.17016,67.679474 a 2.7789092,2.7789092 0 0 1 -2.77891,2.778909 2.7789092,2.7789092 0 0 1 -2.77891,-2.778909 2.7789092,2.7789092 0 0 1 2.77891,-2.778909 2.7789092,2.7789092 0 0 1 2.77891,2.778909 z"
           id="circle973" />
        <path
           inkscape:connector-curvature="0"
           id="path1160"
           style="font-style:normal;font-variant:normal;font-weight:bold;font-stretch:normal;font-size:21.53461266px;line-height:1.25;font-family:'League Spartan';-inkscape-font-specification:'League Spartan, Bold';font-variant-ligatures:normal;font-variant-caps:normal;font-variant-numeric:normal;font-feature-settings:normal;text-align:start;letter-spacing:0px;word-spacing:0px;writing-mode:lr-tb;text-anchor:start;fill:none;fill-opacity:1;stroke:#ffffff;stroke-width:0.26458335"
           d="m 194.08011,27.973434 h -0.6016 l -1.15129,2.852318 h 0.69838 l 0.21091,-0.570445 h 1.08561 l 0.21091,0.570445 h 0.69837 z m 0.0209,1.711401 h -0.64307 l 0.31807,-0.829761 h 0.006 z" />
        <path
           inkscape:connector-curvature="0"
           id="path1162"
           style="font-style:normal;font-variant:normal;font-weight:bold;font-stretch:normal;font-size:21.53461266px;line-height:1.25;font-family:'League Spartan';-inkscape-font-specification:'League Spartan, Bold';font-variant-ligatures:normal;font-variant-caps:normal;font-variant-numeric:normal;font-feature-settings:normal;text-align:start;letter-spacing:0px;word-spacing:0px;writing-mode:lr-tb;text-anchor:start;fill:none;fill-opacity:1;stroke:#ffffff;stroke-width:0.26458335"
           d="m 187.00038,33.978416 v 2.852318 h 1.08216 c 0.5912,0 0.93347,-0.324982 0.93347,-0.795175 0,-0.459833 -0.25238,-0.65691 -0.60849,-0.719136 0.24201,-0.124401 0.35611,-0.349208 0.35611,-0.611964 0,-0.542805 -0.38723,-0.726043 -0.87816,-0.726043 z m 0.64997,1.11673 v -0.615417 h 0.0519 c 0.28349,0 0.43216,0.08653 0.43216,0.290422 0,0.238557 -0.15206,0.324995 -0.43216,0.324995 z m 0,1.234275 v -0.674189 h 0.204 c 0.30769,0 0.47711,0.09333 0.47711,0.356114 0,0.22473 -0.16944,0.318075 -0.47711,0.318075 z" />
        <path
           inkscape:connector-curvature="0"
           id="path1164"
           style="font-style:normal;font-variant:normal;font-weight:bold;font-stretch:normal;font-size:21.53461266px;line-height:1.25;font-family:'League Spartan';-inkscape-font-specification:'League Spartan, Bold';font-variant-ligatures:normal;font-variant-caps:normal;font-variant-numeric:normal;font-feature-settings:normal;text-align:start;letter-spacing:0px;word-spacing:0px;writing-mode:lr-tb;text-anchor:start;fill:none;fill-opacity:1;stroke:#ffffff;stroke-width:0.26458335"
           d="m 189.2717,24.821438 -1.11326,-1.535057 0.93349,-1.317261 h -0.80904 l -0.52551,0.777922 -0.52554,-0.777922 h -0.77442 l 0.89891,1.317261 -1.07872,1.535057 h 0.80558 l 0.67419,-0.971506 0.67419,0.971506 z" />
        <path
           inkscape:connector-curvature="0"
           id="path1166"
           style="font-style:normal;font-variant:normal;font-weight:bold;font-stretch:normal;font-size:21.53461266px;line-height:1.25;font-family:'League Spartan';-inkscape-font-specification:'League Spartan, Bold';font-variant-ligatures:normal;font-variant-caps:normal;font-variant-numeric:normal;font-feature-settings:normal;text-align:start;letter-spacing:0px;word-spacing:0px;writing-mode:lr-tb;text-anchor:start;fill:none;fill-opacity:1;stroke:#ffffff;stroke-width:0.26458335"
           d="m 180.39398,27.973434 1.05102,1.573097 v 1.279221 h 0.64999 v -1.279221 l 1.05105,-1.573097 h -0.78136 l -0.59468,0.912734 -0.59466,-0.912734 z" />
        <path
           inkscape:connector-curvature="0"
           style="opacity:0.419;fill:none;fill-opacity:1;stroke:#ffffff;stroke-width:0.80000007;stroke-linecap:square;stroke-linejoin:miter;stroke-miterlimit:4;stroke-dasharray:none;stroke-dashoffset:0;stroke-opacity:1;paint-order:normal"
           d="m 21.20587,45.320899 -0.994473,1.904028 h 1.989609 z m -5.052639,5.96153 -1.903364,0.994475 1.903364,0.995134 z m 10.105942,0 v 1.989609 l 1.903364,-0.995134 z m -6.047776,6.047777 0.995137,1.904028 0.994472,-1.904028 z"
           id="path1182" />
      </g>
    </g>
  </g>
</svg>
