<?xml version="1.0" encoding="UTF-8" standalone="no"?>
<!-- Generator: Adobe Illustrator 19.0.0, SVG Export Plug-In . SVG Version: 6.00 Build 0)  -->

<svg
   xmlns:dc="http://purl.org/dc/elements/1.1/"
   xmlns:cc="http://creativecommons.org/ns#"
   xmlns:rdf="http://www.w3.org/1999/02/22-rdf-syntax-ns#"
   xmlns:svg="http://www.w3.org/2000/svg"
   xmlns="http://www.w3.org/2000/svg"
   xmlns:sodipodi="http://sodipodi.sourceforge.net/DTD/sodipodi-0.dtd"
   xmlns:inkscape="http://www.inkscape.org/namespaces/inkscape"
   version="1.1"
   id="svg2"
   inkscape:version="0.92.4 (5da689c313, 2019-01-14)"
   sodipodi:docname="wii.svg"
   x="0px"
   y="0px"
   viewBox="-382.3 255.5 197.3 282"
   xml:space="preserve"><metadata
   id="metadata225"><rdf:RDF><cc:Work
       rdf:about=""><dc:format>image/svg+xml</dc:format><dc:type
         rdf:resource="http://purl.org/dc/dcmitype/StillImage" /><dc:title>Wii controller</dc:title></cc:Work></rdf:RDF></metadata><defs
   id="defs223" />
<title
   id="title3021">Wii controller</title>
<sodipodi:namedview
   bordercolor="#666666"
   showgrid="false"
   pagecolor="#ffffff"
   borderopacity="1.0"
   id="base"
   inkscape:zoom="1.4"
   inkscape:cy="58.72"
   inkscape:cx="7.8362212"
   inkscape:document-units="px"
   inkscape:pageshadow="2"
   inkscape:window-width="1600"
   inkscape:window-height="837"
   inkscape:window-x="-8"
   inkscape:pageopacity="0.0"
   inkscape:window-y="-8"
   inkscape:window-maximized="1"
   inkscape:current-layer="g218"
   inkscape:pagecheckerboard="true">
	</sodipodi:namedview>
<g
   id="g220"
   style="stroke:#ffffff;fill:none">
	
	<g
   id="g218"
   style="stroke:#ffffff;fill:none">
		
		
		
		
		
		<g
   id="g356"
   transform="matrix(0.65692399,0,0,0.65692399,-95.33546,110.45388)"><g
     transform="matrix(0.65197318,0,0,0.65197318,-98.71948,187.06442)"
     style="fill:none;stroke:#ffffff"
     id="g186">
		<path
   inkscape:connector-curvature="0"
   style="fill:none;stroke:#ffffff"
   id="path4"
   d="m -256,536.5 c -4.4,0 -8,-3.6 -8,-8 v -264 c 0,-4.4 3.6,-8 8,-8 h 62 c 4.4,0 8,3.6 8,8 v 264 c 0,4.4 -3.6,8 -8,8 h -62 m 62,-281 h -62 c -5,0 -9,4 -9,9 v 264 c 0,5 4,9 9,9 h 62 c 5,0 9,-4 9,-9 v -264 c 0,-5 -4,-9 -9,-9" />
		<path
   inkscape:connector-curvature="0"
   style="fill:none;stroke:#ffffff"
   id="path6"
   d="m -223,393.9 c -3.9,0 -7,-3.1 -7,-7 0,-3.9 3.1,-7 7,-7 3.9,0 7,3.1 7,7 0,3.9 -3.1,7 -7,7 m -16.4,-85.8 c -1.4,0 -2.5,-0.7 -2.5,-1.7 v -6.5 c 0,-0.9 1.1,-1.7 2.5,-1.7 h 11.5 v -11.5 c 0,-1.4 0.7,-2.5 1.7,-2.5 h 6.5 c 0.9,0 1.7,1.1 1.7,2.5 v 11.5 h 11.5 c 1.4,0 2.5,0.7 2.5,1.7 v 6.5 c 0,0.9 -1.1,1.7 -2.5,1.7 H -218 v 11.5 c 0,1.4 -0.7,2.5 -1.7,2.5 h -6.5 c -0.9,0 -1.7,-1.1 -1.7,-2.5 v -11.5 h -11.5 m 45.4,-51.6 h -62 c -4.4,0 -8,3.6 -8,8 v 264 c 0,4.4 3.6,8 8,8 h 62 c 4.4,0 8,-3.6 8,-8 v -264 c 0,-4.4 -3.6,-8 -8,-8" />
		<g
   style="fill:none;stroke:#ffffff"
   id="g16">
			<polyline
   style="fill:none;stroke:#ffffff"
   id="polyline8"
   points="-231.1,505.2 -236.1,505.2 -236.1,510.2 -231.1,510.2 -231.1,505.2    " />
			<polyline
   style="fill:none;stroke:#ffffff"
   id="polyline10"
   points="-196.8,505.2 -201.8,505.2 -201.8,510.2 -196.8,510.2 -196.8,505.2    " />
			<polyline
   style="fill:none;stroke:#ffffff"
   id="polyline12"
   points="-213.9,505.2 -218.9,505.2 -218.9,510.2 -213.9,510.2 -213.9,505.2    " />
			<polyline
   style="fill:none;stroke:#ffffff"
   id="polyline14"
   points="-248.2,505.2 -253.2,505.2 -253.2,510.2 -248.2,510.2 -248.2,505.2    " />
		</g>
		<circle
   style="fill:none;stroke:#ffffff"
   id="circle18"
   r="1.5"
   cy="431.39999"
   cx="-215.5" />
		<circle
   style="fill:none;stroke:#ffffff"
   id="circle20"
   r="1.5"
   cy="431.39999"
   cx="-223" />
		<circle
   style="fill:none;stroke:#ffffff"
   id="circle22"
   r="1.5"
   cy="431.39999"
   cx="-230.5" />
		<circle
   style="fill:none;stroke:#ffffff"
   id="circle24"
   r="1.5"
   cy="425.39999"
   cx="-215.5" />
		<circle
   style="fill:none;stroke:#ffffff"
   id="circle26"
   r="1.5"
   cy="425.39999"
   cx="-223" />
		<circle
   style="fill:none;stroke:#ffffff"
   id="circle28"
   r="1.5"
   cy="425.39999"
   cx="-230.5" />
		<circle
   style="fill:none;stroke:#ffffff"
   id="circle30"
   r="1"
   cy="419.39999"
   cx="-215.5" />
		<circle
   style="fill:none;stroke:#ffffff"
   id="circle32"
   r="1"
   cy="419.39999"
   cx="-223" />
		<circle
   style="fill:none;stroke:#ffffff"
   id="circle34"
   r="1"
   cy="419.39999"
   cx="-230.5" />
		<circle
   style="fill:none;stroke:#ffffff"
   id="circle36"
   r="0.5"
   cy="413.39999"
   cx="-215.5" />
		<circle
   style="fill:none;stroke:#ffffff"
   id="circle38"
   r="0.5"
   cy="413.39999"
   cx="-223" />
		<circle
   style="fill:none;stroke:#ffffff"
   id="circle40"
   r="0.5"
   cy="413.39999"
   cx="-230.5" />
		<circle
   style="fill:none;stroke:#ffffff"
   id="circle42"
   r="0.5"
   cy="443.39999"
   cx="-215.5" />
		<circle
   style="fill:none;stroke:#ffffff"
   id="circle44"
   r="0.5"
   cy="443.39999"
   cx="-223" />
		<circle
   style="fill:none;stroke:#ffffff"
   id="circle46"
   r="0.5"
   cy="443.39999"
   cx="-230.5" />
		<circle
   style="fill:none;stroke:#ffffff"
   id="circle48"
   r="1"
   cy="437.39999"
   cx="-215.5" />
		<circle
   style="fill:none;stroke:#ffffff"
   id="circle50"
   r="1"
   cy="437.39999"
   cx="-223" />
		<circle
   style="fill:none;stroke:#ffffff"
   id="circle52"
   r="1"
   cy="437.39999"
   cx="-230.5" />
		<path
   inkscape:connector-curvature="0"
   style="fill:none;stroke:#ffffff"
   id="path54"
   d="m -239.4,307.7 c -1.2,0 -2.1,-0.6 -2.1,-1.3 v -6.5 c 0,-0.7 0.9,-1.3 2.1,-1.3 h 11.9 v -11.9 c 0,-1.2 0.6,-2.1 1.3,-2.1 h 6.5 c 0.7,0 1.3,0.9 1.3,2.1 v 11.9 h 11.9 c 1.2,0 2.1,0.6 2.1,1.3 v 6.5 c 0,0.7 -0.9,1.3 -2.1,1.3 h -11.9 v 11.9 c 0,1.2 -0.6,2.1 -1.3,2.1 h -6.5 c -0.7,0 -1.3,-0.9 -1.3,-2.1 v -11.9 h -11.9 m 19.7,-23.5 h -6.5 c -0.9,0 -1.7,1.1 -1.7,2.5 v 11.5 h -11.5 c -1.4,0 -2.5,0.7 -2.5,1.7 v 6.5 c 0,0.9 1.1,1.7 2.5,1.7 h 11.5 v 11.5 c 0,1.4 0.7,2.5 1.7,2.5 h 6.5 c 0.9,0 1.7,-1.1 1.7,-2.5 v -11.5 h 11.5 c 1.4,0 2.5,-0.7 2.5,-1.7 v -6.5 c 0,-0.9 -1.1,-1.7 -2.5,-1.7 H -218 v -11.5 c -0.1,-1.4 -0.8,-2.5 -1.7,-2.5" />
		<path
   inkscape:connector-curvature="0"
   style="fill:none;stroke:#ffffff"
   id="path56"
   d="m -219.7,284.6 h -6.5 c -0.7,0 -1.3,0.9 -1.3,2.1 v 11.9 h -11.9 c -1.2,0 -2.1,0.6 -2.1,1.3 v 6.5 c 0,0.7 0.9,1.3 2.1,1.3 h 11.9 v 11.9 c 0,1.2 0.6,2.1 1.3,2.1 h 6.5 c 0.7,0 1.3,-0.9 1.3,-2.1 v -11.9 h 11.9 c 1.2,0 2.1,-0.6 2.1,-1.3 v -6.5 c 0,-0.7 -0.9,-1.3 -2.1,-1.3 h -11.9 v -11.9 c -0.1,-1.2 -0.6,-2.1 -1.3,-2.1" />
		<rect
   style="fill:none;stroke:#ffffff"
   id="rect58"
   height="1"
   width="6.9000001"
   y="302.70001"
   x="-238.39999" />
		<rect
   style="fill:none;stroke:#ffffff"
   id="rect60"
   height="1"
   width="6.9000001"
   y="302.70001"
   x="-214.5" />
		<rect
   style="fill:none;stroke:#ffffff"
   id="rect62"
   height="6.9000001"
   width="1"
   y="287.39999"
   x="-223.5" />
		<rect
   style="fill:none;stroke:#ffffff"
   id="rect64"
   height="6.9000001"
   width="1"
   y="312"
   x="-223.5" />
		<path
   inkscape:connector-curvature="0"
   style="fill:none;stroke:#ffffff"
   id="path66"
   d="m -245.8,279 c -3.9,0 -7,-3.1 -7,-7 0,-3.9 3.1,-7 7,-7 3.9,0 7,3.1 7,7 0,3.9 -3.1,7 -7,7 z" />
		<circle
   style="fill:none;stroke:#ffffff"
   id="circle68"
   r="6.6999998"
   cy="271.89999"
   cx="-245.8" />
		
		
		
		<path
   inkscape:connector-curvature="0"
   style="fill:none;stroke:#ffffff"
   id="path76"
   d="m -223,360.4 c -7.3,0 -13.2,-6 -13.2,-13.3 0,-7.3 5.9,-13.3 13.2,-13.3 7.3,0 13.2,6 13.2,13.3 0,7.3 -5.9,13.3 -13.2,13.3 z" />
		<ellipse
   style="fill:none;stroke:#ffffff"
   id="ellipse78"
   ry="13"
   rx="12.9"
   cy="347.10001"
   cx="-223" />
		
		
		<path
   inkscape:connector-curvature="0"
   style="fill:none;stroke:#ffffff"
   id="path84"
   d="m -223,393.9 c -3.9,0 -7,-3.1 -7,-7 0,-3.9 3.1,-7 7,-7 3.9,0 7,3.1 7,7 0,3.9 -3.1,7 -7,7" />
		<path
   inkscape:connector-curvature="0"
   style="fill:none;stroke:#ffffff"
   id="path86"
   d="m -216.3,386.9 c 0,3.7 -3,6.7 -6.7,6.7 -3.7,0 -6.7,-3 -6.7,-6.7 0,-3.7 3,-6.7 6.7,-6.7 3.7,0 6.7,3 6.7,6.7" />
		
		
		<path
   inkscape:connector-curvature="0"
   style="fill:none;stroke:#ffffff"
   id="path92"
   d="m -243.7,393.9 c -3.9,0 -7,-3.1 -7,-7 0,-3.9 3.1,-7 7,-7 3.9,0 7,3.1 7,7 0,3.9 -3.2,7 -7,7 z" />
		<circle
   style="fill:none;stroke:#ffffff"
   id="circle94"
   r="6.6999998"
   cy="386.89999"
   cx="-243.7" />
		
		
		<path
   inkscape:connector-curvature="0"
   style="fill:none;stroke:#ffffff"
   id="path100"
   d="m -202.3,393.9 c -3.9,0 -7,-3.1 -7,-7 0,-3.9 3.1,-7 7,-7 3.9,0 7,3.1 7,7 0,3.9 -3.1,7 -7,7 z" />
		<circle
   style="fill:none;stroke:#ffffff"
   id="circle102"
   r="6.6999998"
   cy="386.89999"
   cx="-202.3" />
		
		
		
		
		<path
   inkscape:connector-curvature="0"
   style="fill:none;stroke:#ffffff"
   id="path112"
   d="m -223,472.2 c -5.5,0 -9.9,-4.4 -9.9,-9.9 0,-5.5 4.4,-9.9 9.9,-9.9 5.5,0 9.9,4.4 9.9,9.9 0,5.5 -4.4,9.9 -9.9,9.9 z" />
		<circle
   style="fill:none;stroke:#ffffff"
   id="circle114"
   r="9.6000004"
   cy="462.39999"
   cx="-223" />
		
		
		<path
   inkscape:connector-curvature="0"
   style="fill:none;stroke:#ffffff"
   id="path120"
   d="m -223,499.3 c -5.5,0 -9.9,-4.4 -9.9,-9.9 0,-5.5 4.4,-9.9 9.9,-9.9 5.5,0 9.9,4.4 9.9,9.9 0,5.5 -4.4,9.9 -9.9,9.9 z" />
		<circle
   style="fill:none;stroke:#ffffff"
   id="circle122"
   r="9.6000004"
   cy="489.39999"
   cx="-223" />
		
		
		
		
		
		
		
		
		
		
		
		
		
		
		
		
		
		
		
		
		<g
   style="fill:none;stroke:#ffffff"
   id="g184">
			<path
   inkscape:connector-curvature="0"
   style="fill:none;stroke:#ffffff"
   id="path164"
   d="m -249.6,502.7 c 0,0.5 -0.5,0.9 -1.1,0.9 -0.6,0 -1.1,-0.4 -1.1,-0.9 0,-0.5 0.5,-0.9 1.1,-0.9 0.6,0 1.1,0.4 1.1,0.9" />
			<path
   inkscape:connector-curvature="0"
   style="fill:none;stroke:#ffffff"
   id="path166"
   d="m -203,502.7 c 0,0.5 -0.5,0.9 -1.1,0.9 -0.6,0 -1.1,-0.4 -1.1,-0.9 0,-0.5 0.5,-0.9 1.1,-0.9 0.6,0 1.1,0.4 1.1,0.9" />
			<path
   inkscape:connector-curvature="0"
   style="fill:none;stroke:#ffffff"
   id="path168"
   d="m -199.8,502.7 c 0,0.5 -0.5,0.9 -1.1,0.9 -0.6,0 -1.1,-0.4 -1.1,-0.9 0,-0.5 0.5,-0.9 1.1,-0.9 0.6,0 1.1,0.4 1.1,0.9" />
			<path
   inkscape:connector-curvature="0"
   style="fill:none;stroke:#ffffff"
   id="path170"
   d="m -196.6,502.7 c 0,0.5 -0.5,0.9 -1.1,0.9 -0.6,0 -1.1,-0.4 -1.1,-0.9 0,-0.5 0.5,-0.9 1.1,-0.9 0.6,0 1.1,0.4 1.1,0.9" />
			<path
   inkscape:connector-curvature="0"
   style="fill:none;stroke:#ffffff"
   id="path172"
   d="m -193.4,502.7 c 0,0.5 -0.5,0.9 -1.1,0.9 -0.6,0 -1.1,-0.4 -1.1,-0.9 0,-0.5 0.5,-0.9 1.1,-0.9 0.6,0 1.1,0.4 1.1,0.9" />
			<path
   inkscape:connector-curvature="0"
   style="fill:none;stroke:#ffffff"
   id="path174"
   d="m -218.6,502.7 c 0,0.5 -0.5,0.9 -1.1,0.9 -0.6,0 -1.1,-0.4 -1.1,-0.9 0,-0.5 0.5,-0.9 1.1,-0.9 0.7,0 1.1,0.4 1.1,0.9" />
			<path
   inkscape:connector-curvature="0"
   style="fill:none;stroke:#ffffff"
   id="path176"
   d="m -215.4,502.7 c 0,0.5 -0.5,0.9 -1.1,0.9 -0.6,0 -1.1,-0.4 -1.1,-0.9 0,-0.5 0.5,-0.9 1.1,-0.9 0.6,0 1.1,0.4 1.1,0.9" />
			<path
   inkscape:connector-curvature="0"
   style="fill:none;stroke:#ffffff"
   id="path178"
   d="m -212.2,502.7 c 0,0.5 -0.5,0.9 -1.1,0.9 -0.6,0 -1.1,-0.4 -1.1,-0.9 0,-0.5 0.5,-0.9 1.1,-0.9 0.6,0 1.1,0.4 1.1,0.9" />
			<path
   inkscape:connector-curvature="0"
   style="fill:none;stroke:#ffffff"
   id="path180"
   d="m -234.1,502.7 c 0,0.5 -0.5,0.9 -1.1,0.9 -0.6,0 -1.1,-0.4 -1.1,-0.9 0,-0.5 0.5,-0.9 1.1,-0.9 0.6,0 1.1,0.4 1.1,0.9" />
			<path
   inkscape:connector-curvature="0"
   style="fill:none;stroke:#ffffff"
   id="path182"
   d="m -230.9,502.7 c 0,0.5 -0.5,0.9 -1.1,0.9 -0.6,0 -1.1,-0.4 -1.1,-0.9 0,-0.5 0.5,-0.9 1.1,-0.9 0.6,0 1.1,0.4 1.1,0.9" />
		</g>
	</g><path
     inkscape:connector-curvature="0"
     style="fill:none;stroke:#ffffff;stroke-width:0.65197319"
     id="path188"
     d="m -324.49779,537.5 c -12.97427,0 -16.82091,-34.81537 -20.60235,-68.45718 -0.65198,-5.67217 -1.30395,-11.53993 -1.95592,-17.0817 -3.19467,-25.75294 2.54269,-38.40122 7.95407,-44.46457 4.30302,-4.8898 9.97519,-7.4325 16.42972,-7.4325 6.45454,0 12.1267,2.5427 16.42973,7.4325 5.34618,6.06335 11.08354,18.71163 7.95407,44.46457 -0.65197,5.54177 -1.30395,11.40953 -1.95592,17.0817 -3.71625,33.64181 -7.62809,68.45718 -20.60235,68.45718 z" /><path
     inkscape:connector-curvature="0"
     style="fill:none;stroke:#ffffff;stroke-width:0.65197319"
     id="path190"
     d="m -320.84674,537.17401 h -3.65105 c -14.86499,0 -17.60328,-47.92003 -22.23229,-85.21289 -4.62901,-37.48846 9.12763,-51.50588 24.05781,-51.50588 14.86499,0 28.62163,14.08262 24.05781,51.50588 -4.62901,37.29286 -7.36729,85.21289 -22.23228,85.21289 z" /><polygon
     transform="matrix(0.65197318,0,0,0.65197318,-98.71948,187.06442)"
     style="fill:none;stroke:#ffffff"
     id="polygon192"
     points="-326.6,358.3 -320.1,374.1 -326.6,389.8 -342.3,396.4 -358.1,389.8 -364.6,374.1 -358.1,358.3 -342.3,351.8 " /><polygon
     transform="matrix(0.65197318,0,0,0.65197318,-98.71948,187.06442)"
     style="fill:none;stroke:#ffffff"
     id="polygon194"
     points="-329,360.7 -323.5,374.1 -329,387.4 -342.3,392.9 -355.7,387.4 -361.2,374.1 -355.7,360.7 -342.3,355.2 " /><polygon
     transform="matrix(0.65197318,0,0,0.65197318,-98.71948,187.06442)"
     style="fill:none;stroke:#ffffff"
     id="polygon196"
     points="-342.3,355.8 -329.4,361.1 -324,374.1 -329.4,387 -342.3,392.4 -355.3,387 -360.6,374.1 -355.3,361.1 " /><g
     transform="matrix(0.65197318,0,0,0.65197318,-98.71948,187.06442)"
     style="fill:none;stroke:#ffffff"
     id="g216">
			<circle
   style="fill:none;stroke:#ffffff"
   id="circle198"
   r="15"
   cy="374.10001"
   cx="-342.29999" />
			<circle
   style="fill:none;stroke:#ffffff"
   id="circle200"
   r="13.5"
   cy="374.10001"
   cx="-342.29999" />
			<circle
   style="fill:none;stroke:#ffffff"
   id="circle202"
   r="12.1"
   cy="374.10001"
   cx="-342.29999" />
			<circle
   style="fill:none;stroke:#ffffff"
   id="circle204"
   r="10.9"
   cy="374.10001"
   cx="-342.29999" />
			<circle
   style="fill:none;stroke:#ffffff"
   id="circle206"
   r="9.8000002"
   cy="374.10001"
   cx="-342.29999" />
			<circle
   style="fill:none;stroke:#ffffff"
   id="circle208"
   r="8.8999996"
   cy="374.10001"
   cx="-342.29999" />
			<circle
   style="fill:none;stroke:#ffffff"
   id="circle210"
   r="8"
   cy="374.10001"
   cx="-342.29999" />
			<circle
   style="fill:none;stroke:#ffffff"
   id="circle212"
   r="7.1999998"
   cy="374.10001"
   cx="-342.29999" />
			<circle
   style="fill:none;stroke:#ffffff"
   id="circle214"
   r="6.5"
   cy="374.10001"
   cx="-342.29999" />
		</g></g>
	</g>
</g>
</svg>