<?xml version="1.0" encoding="UTF-8" standalone="no"?>
<!-- Created with Inkscape (http://www.inkscape.org/) -->

<svg
   width="210mm"
   height="140mm"
   viewBox="0 0 210 140"
   version="1.1"
   id="svg1"
   inkscape:version="1.4.2 (f4327f4, 2025-05-13)"
   sodipodi:docname="arduboy.svg"
   xml:space="preserve"
   xmlns:inkscape="http://www.inkscape.org/namespaces/inkscape"
   xmlns:sodipodi="http://sodipodi.sourceforge.net/DTD/sodipodi-0.dtd"
   xmlns="http://www.w3.org/2000/svg"
   xmlns:svg="http://www.w3.org/2000/svg"><sodipodi:namedview
     id="namedview1"
     pagecolor="#ffffff"
     bordercolor="#000000"
     borderopacity="0.25"
     inkscape:showpageshadow="2"
     inkscape:pageopacity="0.0"
     inkscape:pagecheckerboard="0"
     inkscape:deskcolor="#d1d1d1"
     inkscape:document-units="mm"
     inkscape:zoom="0.26110523"
     inkscape:cx="-664.48305"
     inkscape:cy="1116.4081"
     inkscape:window-width="1920"
     inkscape:window-height="1009"
     inkscape:window-x="-8"
     inkscape:window-y="-8"
     inkscape:window-maximized="1"
     inkscape:current-layer="layer1" /><defs
     id="defs1" /><g
     inkscape:label="Camada 1"
     inkscape:groupmode="layer"
     id="layer1"><path
       d="M 18.334805,70.739968 H 194.48903 c 2.15031,0 3.88131,1.707116 3.88131,3.827595 v 58.297477 c 0,2.12048 -1.731,3.82751 -3.88131,3.82751 H 18.334805 c -2.150253,0 -3.88131,-1.70703 -3.88131,-3.82751 V 74.567563 c 0,-2.120479 1.731057,-3.827595 3.88131,-3.827595 z"
       fill="#1a1a1a"
       stroke-width="0.516289"
       id="path108" /><path
       d="m 15.85983,72.935025 h 0.659159 c 0.730356,0 1.318284,1.857202 1.318284,4.163876 v 54.726129 c 0,2.30677 -0.587946,4.16388 -1.318284,4.16388 H 15.85983 c -0.730356,0 -1.318301,-1.85711 -1.318301,-4.16388 V 77.098901 c 0,-2.306674 0.587945,-4.163876 1.318301,-4.163876 z"
       fill="#333333"
       stroke-width="0.60881"
       id="path109" /><path
       d="m 196.20339,73.638738 h 0.72243 c 0.80002,0 1.44468,1.857023 1.44468,4.163894 v 54.726028 c 0,2.30678 -0.64397,4.16389 -1.44468,4.16389 h -0.72243 c -0.80003,0 -1.44478,-1.85711 -1.44478,-4.16389 V 77.802632 c 0,-2.306871 0.64484,-4.163894 1.44478,-4.163894 z"
       fill="#333333"
       stroke-width="0.63733"
       id="path110" /><path
       d="M 7.372289,1.9451066 H 204.04313 c 2.81187,0 5.07563,3.6151047 5.07563,8.1055454 v 78.043436 c 0,4.490416 -2.26376,8.105531 -5.07563,8.105531 H 7.372289 c -2.8118801,0 -5.0756195,-3.615115 -5.0756195,-8.105531 V 10.050652 c 0,-4.4904407 2.2637394,-8.1055454 5.0756195,-8.1055454 z"
       fill="#1a1a1a"
       stroke-width="0.711243"
       id="path111"
       style="fill:#4a6c9f;fill-opacity:1" /><path
       id="path129"
       style="fill:none;stroke:#1b3157;stroke-width:0.273479;stroke-miterlimit:10"
       d="m 206.18733,4.0718724 0.005,92.0478236 -202.5131888,0.0027 -0.0051,-92.0478246 z m -190.601578,0.00238 0.0051,92.0497076 m 11.906482,-92.049853 0.0051,92.049705 M 39.408932,4.0739586 39.414032,96.123669 M 51.320519,4.0738102 51.325619,96.123512 M 63.236092,4.0736649 63.241192,96.123369 M 75.147683,4.0735165 75.152783,96.123225 M 87.05928,4.0733695 87.06438,96.123078 m 11.906496,-92.0498538 0.0051,92.0497018 m 11.910464,-92.0498508 0.005,92.0497068 m 11.90649,-92.0498552 0.005,92.0497032 m 11.90649,-92.0498516 0.005,92.0497126 m 11.91046,-92.0498579 0.005,92.0497059 m 11.90649,-92.0498556 0.005,92.0497076 m 11.9065,-92.0498535 0.005,92.0497055 m 11.90649,-92.0498539 0.005,92.0497059 m 11.91048,-92.0498537 0.005,92.0497107 m 11.91131,-5.416053 -202.5171541,0.0027 M 206.18896,85.291857 3.6717795,85.294557 M 206.18865,79.878025 3.6714816,79.880726 M 206.18838,74.462275 3.6712045,74.464964 M 206.19094,69.047696 3.6737829,69.050198 M 206.19065,63.633666 3.6734724,63.636176 M 206.19034,58.219645 3.673174,58.222153 M 206.19002,52.80374 3.6728815,52.806245 M 206.18973,47.389709 3.6725767,47.392219 M 206.18943,41.975691 3.6722719,41.978199 M 206.18913,36.559783 3.6719669,36.562292 M 206.18883,31.145765 3.6716714,31.148269 M 206.18853,25.73173 3.6713739,25.734233 M 206.18823,20.315819 3.6710694,20.318323 M 206.18794,14.90179 3.6707673,14.904293 M 206.18762,9.4877605 3.6704713,9.4902642" /></g></svg>
