<?xml version="1.0" encoding="UTF-8" standalone="no"?>
<!-- Generator: Adobe Illustrator 19.0.0, SVG Export Plug-In . SVG Version: 6.00 Build 0)  -->

<svg
   version="1.1"
   id="Layer_1"
   x="0px"
   y="0px"
   viewBox="0 0 200.05909 200"
   enable-background="new 0 0 338.4 338.4"
   xml:space="preserve"
   sodipodi:docname="atarijaguarcd.svg"
   width="200.05908"
   height="200"
   inkscape:version="1.4.2 (f4327f4, 2025-05-13)"
   xmlns:inkscape="http://www.inkscape.org/namespaces/inkscape"
   xmlns:sodipodi="http://sodipodi.sourceforge.net/DTD/sodipodi-0.dtd"
   xmlns:xlink="http://www.w3.org/1999/xlink"
   xmlns="http://www.w3.org/2000/svg"
   xmlns:svg="http://www.w3.org/2000/svg"
   xmlns:rdf="http://www.w3.org/1999/02/22-rdf-syntax-ns#"
   xmlns:cc="http://creativecommons.org/ns#"
   xmlns:dc="http://purl.org/dc/elements/1.1/"><metadata
     id="metadata540"><rdf:RDF><cc:Work
         rdf:about=""><dc:format>image/svg+xml</dc:format><dc:type
           rdf:resource="http://purl.org/dc/dcmitype/StillImage" /></cc:Work></rdf:RDF></metadata><defs
     id="defs538"><linearGradient
       id="g"><stop
         style="stop-color:#d31909;stop-opacity:0"
         offset="0"
         id="stop1" /><stop
         style="stop-color:#fff;stop-opacity:1"
         offset="1"
         id="stop2" /></linearGradient><linearGradient
       id="b"><stop
         style="stop-color:#d31909;stop-opacity:1"
         offset="0"
         id="stop3" /><stop
         style="stop-color:#ff3c2a;stop-opacity:1"
         offset="1"
         id="stop4" /></linearGradient><linearGradient
       xlink:href="#b"
       id="o"
       x1="84.053"
       y1="53.512"
       x2="84.053"
       y2="5.101"
       gradientUnits="userSpaceOnUse" /><linearGradient
       xlink:href="#b"
       id="m"
       x1="220.3"
       y1="142.699"
       x2="220.3"
       y2="21.674"
       gradientUnits="userSpaceOnUse" /><linearGradient
       xlink:href="#g"
       id="x"
       gradientUnits="userSpaceOnUse"
       x1="84.053"
       y1="53.512"
       x2="79.429"
       y2="-17.142" /><linearGradient
       xlink:href="#b"
       id="h"
       x1="109.618"
       y1="64.928"
       x2="110.24"
       y2="38.236"
       gradientUnits="userSpaceOnUse"
       gradientTransform="matrix(0.58007125,0,0,0.58007125,58.937054,144.23269)" /><linearGradient
       xlink:href="#g"
       id="j"
       x1="109.618"
       y1="64.928"
       x2="103.747"
       y2="24.334"
       gradientUnits="userSpaceOnUse"
       gradientTransform="matrix(2.4999846,0,0,2.4999846,-369.09878,-153.4287)" /><linearGradient
       inkscape:collect="always"
       xlink:href="#b"
       id="linearGradient16"
       gradientUnits="userSpaceOnUse"
       x1="109.618"
       y1="64.928"
       x2="110.24"
       y2="38.236"
       gradientTransform="matrix(0.58007125,0,0,0.58007125,58.937054,144.23269)" /></defs><sodipodi:namedview
     pagecolor="#ffffff"
     bordercolor="#666666"
     borderopacity="1"
     objecttolerance="10"
     gridtolerance="10"
     guidetolerance="10"
     inkscape:pageopacity="0"
     inkscape:pageshadow="2"
     inkscape:window-width="1920"
     inkscape:window-height="1009"
     id="namedview536"
     showgrid="false"
     fit-margin-top="0"
     fit-margin-left="0"
     fit-margin-right="0"
     fit-margin-bottom="0"
     inkscape:zoom="2"
     inkscape:cx="-119.75"
     inkscape:cy="14.25"
     inkscape:window-x="-8"
     inkscape:window-y="-8"
     inkscape:window-maximized="1"
     inkscape:current-layer="Layer_1"
     inkscape:showpageshadow="2"
     inkscape:pagecheckerboard="0"
     inkscape:deskcolor="#d1d1d1" /><path
     stroke-miterlimit="10"
     d="m 100.02954,199.70458 c -54.948299,0 -99.73411902,-44.72674 -99.73411902,-99.67504 0,-54.948299 44.72673602,-99.73411903 99.73411902,-99.73411903 54.9483,0 99.73412,44.72673603 99.73412,99.73411903 -0.0591,54.9483 -44.78582,99.67504 -99.73412,99.67504 z"
     id="path2"
     inkscape:connector-curvature="0"
     style="fill:none;stroke:#979395;stroke-width:0.590842;stroke-miterlimit:10" /><path
     stroke-miterlimit="10"
     d="m 100.02954,198.5229 c -54.298373,0 -98.5524351,-44.19498 -98.5524351,-98.49336 0,-54.357457 44.1949781,-98.5524351 98.5524351,-98.5524351 54.29838,0 98.49336,44.1949781 98.49336,98.4933531 0,54.357462 -44.19498,98.552442 -98.49336,98.552442 z"
     id="path4"
     inkscape:connector-curvature="0"
     style="fill:none;stroke:#151315;stroke-width:1.77253;stroke-miterlimit:10" /><circle
     stroke-miterlimit="10"
     cx="100.02954"
     cy="99.970459"
     r="13.471196"
     id="circle6"
     style="fill:none;stroke:#797576;stroke-width:0.590842;stroke-miterlimit:10" /><path
     d="m 100.02954,138.25702 c -21.093055,0 -38.227472,-17.13442 -38.227472,-38.22748 0,-21.093055 17.134417,-38.286556 38.227472,-38.286556 21.09306,0 38.28656,17.134416 38.28656,38.286556 -0.0591,21.03398 -17.1935,38.22748 -38.28656,38.22748 z m 29.36485,-38.581983 c 0,-16.189069 -13.17578,-29.423929 -29.423932,-29.423929 -16.248154,0 -29.423929,13.175775 -29.423929,29.423929 0,16.248153 13.175775,29.364843 29.423929,29.364843 16.248152,0 29.423932,-13.11669 29.423932,-29.364843 z"
     id="path8"
     inkscape:connector-curvature="0"
     style="fill:#0b0f11;stroke-width:0.590842" /><path
     d="m 100.02954,132.64402 c -18.138846,0 -32.968979,-14.77105 -32.968979,-32.909899 0,-18.138848 14.771049,-32.968981 32.968979,-32.968981 18.19793,0 32.96898,14.771049 32.96898,32.968981 0,18.197929 -14.83013,32.909899 -32.96898,32.909899 z m 29.36485,-32.968983 c 0,-16.189069 -13.17578,-29.423929 -29.423932,-29.423929 -16.248154,0 -29.423929,13.175775 -29.423929,29.423929 0,16.248153 13.175775,29.364843 29.423929,29.364843 16.248152,0 29.423932,-13.11669 29.423932,-29.364843 z"
     id="path10"
     inkscape:connector-curvature="0"
     style="fill:#cbc9c8;stroke-width:0.590842" /><path
     style="opacity:0.999;fill:#800000;fill-opacity:0;stroke-width:0.031685"
     d="m 61.183687,97.924938 c 0,-0.02475 -0.120213,-0.463193 -0.267143,-0.974313 -1.054812,-3.669384 -2.208322,-6.265164 -3.595078,-8.090113 -0.295849,-0.389331 -1.044793,-1.148007 -1.3658,-1.383544 -0.49376,-0.362295 -0.946941,-0.576249 -1.496358,-0.706456 -0.534335,-0.126634 -0.807533,-0.153252 -1.381421,-0.134597 -0.601133,0.01954 -0.933781,0.07979 -1.497457,0.27124 -0.753,0.255749 -1.262215,0.518805 -2.706356,1.39808 -1.394983,0.849346 -1.930432,1.142987 -2.625825,1.440007 -0.693711,0.296302 -1.358214,0.489668 -2.095236,0.609701 -0.435399,0.07091 -1.648424,0.07989 -2.107051,0.01559 -0.427457,-0.05992 -1.001582,-0.183368 -1.28866,-0.27708 -1.319107,-0.4306 -2.716358,-1.672326 -4.382265,-3.894483 -0.665677,-0.887948 -0.923841,-1.25879 -2.251343,-3.233967 -1.625748,-2.418933 -2.296631,-3.340579 -3.042929,-4.180317 -1.160497,-1.305796 -2.001348,-1.773182 -3.08709,-1.715954 -0.873616,0.04605 -1.760235,0.325371 -2.99423,0.943315 -1.818941,0.910866 -4.027441,2.439294 -7.588551,5.251781 -0.296255,0.233976 -0.556468,0.439339 -0.578251,0.456363 -0.03119,0.02438 -0.03932,-0.04559 -0.03827,-0.329383 l 0.0013,-0.360335 0.890407,-0.69707 c 4.248324,-3.325869 6.90437,-4.99219 8.881743,-5.572131 1.410617,-0.413718 2.421032,-0.338683 3.357649,0.249344 0.919892,0.577525 1.927395,1.685551 3.269725,3.595956 0.226528,0.322395 0.91063,1.327601 1.520227,2.233791 1.194814,1.776139 1.6213,2.387251 2.200191,3.152655 1.606851,2.124562 2.968453,3.296449 4.213284,3.626238 0.671791,0.177976 1.057665,0.222319 1.930953,0.221897 0.710793,-3.43e-4 0.855601,-0.0093 1.204029,-0.07426 0.804153,-0.149976 1.515012,-0.396685 2.360531,-0.81924 0.576611,-0.288167 0.890762,-0.468019 1.985846,-1.136903 1.741371,-1.06364 2.537301,-1.431669 3.566759,-1.649229 0.358807,-0.07583 0.475296,-0.08563 1.037869,-0.08736 0.660436,-0.002 0.85566,0.01992 1.414155,0.158938 1.187195,0.295511 2.210641,1.063957 3.252187,2.441869 1.424217,1.884174 2.756919,5.024111 3.822668,9.006474 l 0.0772,0.288488 h -0.29872 c -0.236965,0 -0.298722,-0.0093 -0.298722,-0.04501 z"
     id="path5" /><path
     style="opacity:0.999;fill:#800000;fill-opacity:0;stroke-width:0.00390625"
     d="M 33.523437,82.094672 C 32.969803,81.267675 32.39246,80.448855 31.979023,79.904297 31.495692,79.267678 31.079365,78.776849 30.686645,78.380645 l -0.11637,-0.117401 9.95e-4,-0.397195 9.96e-4,-0.397195 0.03711,0.03173 c 0.156609,0.133896 0.387287,0.353254 0.56023,0.53274 0.705264,0.731946 1.434566,1.672773 2.467738,3.183476 0.20186,0.295158 0.632188,0.933178 0.632188,0.937303 0,0.0012 -0.158642,0.0021 -0.352539,0.002 l -0.352539,-1.55e-4 z"
     id="path6" /><path
     style="opacity:0.999;fill:#800000;fill-opacity:1;stroke-width:0.353553"
     d="M 96.873629,197.38849 C 65.155834,196.2879 36.071613,179.90767 18.530079,153.26539 10.688749,141.3559 5.7622768,128.31673 3.5023404,113.49064 2.5775226,107.42346 2.3873233,94.805607 3.131947,88.918677 4.952176,74.52811 9.7801618,60.721585 17.164361,48.790368 24.656394,36.684915 36.670536,24.670077 48.790368,17.162527 81.067947,-2.8316063 122.0822,-2.2200735 153.51226,18.723956 c 6.48841,4.323684 9.92488,7.147823 15.48645,12.726997 15.55036,15.599596 25.20278,35.500982 27.76694,57.249982 0.61169,5.188346 0.69839,16.515735 0.163,21.298735 -3.59106,32.08195 -21.90731,59.66723 -50.02722,75.34377 -11.95723,6.66602 -26.96987,11.10078 -39.83805,11.76822 -6.68301,0.34664 -7.52147,0.36941 -10.189751,0.27683 z m 7.424621,-59.29985 c 12.38484,-0.8638 25.08067,-9.96568 30.61807,-21.95067 4.70932,-10.1927 4.69869,-22.229753 -0.0285,-32.238881 -2.05402,-4.349096 -3.72577,-6.805638 -6.90089,-10.14047 -4.3702,-4.590024 -8.28474,-7.251511 -14.01822,-9.53094 -11.9874,-4.765765 -26.251982,-2.920347 -36.509139,4.723212 -3.175411,2.366294 -7.446251,6.774659 -9.344013,9.644897 -6.193721,9.367599 -8.047037,21.260067 -4.983222,31.976652 3.811812,13.33293 14.634958,23.68678 28.052273,26.83591 2.407261,0.565 8.022862,1.12814 9.578091,0.96051 0.48613,-0.0524 2.07712,-0.1785 3.53553,-0.28022 z"
     id="path7" /><path
     style="opacity:0.999;fill:#e6e6e6;fill-opacity:0.37854251;stroke-width:0.353553"
     d="m 93.158992,128.02593 c -6.099887,-1.65243 -10.308356,-4.13588 -14.375112,-8.48286 -5.087499,-5.43806 -7.561585,-11.22311 -7.956166,-18.60358 -0.361635,-6.764229 2.011342,-14.033114 6.348093,-19.445434 6.615459,-8.256173 17.307081,-12.400771 27.439313,-10.636827 11.72919,2.041962 20.83643,10.51532 23.7637,22.109699 1.00871,3.995292 0.82336,11.232862 -0.38526,15.043632 -2.93769,9.26255 -9.67317,16.11288 -19.06521,19.39032 -2.73426,0.95415 -3.55335,1.07234 -8.16563,1.17832 -4.194344,0.0964 -5.576971,-0.004 -7.603728,-0.55327 z m 11.054438,-14.83518 c 3.80123,-1.18307 6.94142,-3.97207 8.6507,-7.68323 0.67097,-1.4568 0.80139,-2.3431 0.80226,-5.45191 9.4e-4,-3.416975 -0.0858,-3.895138 -1.09024,-6.010408 -4.98781,-10.503846 -19.969928,-10.606698 -25.093034,-0.172265 -0.958768,1.952759 -1.039312,2.418206 -1.039312,6.005896 0,3.472387 0.10078,4.104067 0.940596,5.895557 3.003432,6.40688 10.068634,9.52043 16.82903,7.41636 z"
     id="path9" /><g
     style="fill:#f2f2f2"
     id="g1"
     transform="matrix(0.21212713,0,0,0.21212713,33.948985,30.500273)">
        <path
   d="m 227.98,36.615 c 1.446,-1.85 4.439,-2.166 6.213,-0.614 0.726,0.612 1.234,1.455 1.494,2.361 3.284,11.302 6.583,22.598 9.863,33.899 -1.938,0.002 -3.878,-0.003 -5.815,0.002 -0.914,-3.115 -1.807,-6.237 -2.709,-9.356 -3.749,-0.01 -7.495,-0.003 -11.243,-0.005 -0.917,3.118 -1.823,6.239 -2.725,9.361 -1.928,-0.007 -3.856,-0.002 -5.784,-0.004 a 26461.48,26461.48 0 0 1 9.38,-32.338 c 0.372,-1.126 0.513,-2.384 1.326,-3.306 m 3.422,6.926 c -1.375,4.682 -2.721,9.372 -4.087,14.057 2.724,0.013 5.447,0.004 8.17,0.004 -1.363,-4.687 -2.719,-9.375 -4.083,-14.061 z m 37.411,-6.683 c 1.01,-1.465 2.963,-2.176 4.683,-1.724 1.573,0.363 2.778,1.719 3.193,3.246 3.281,11.293 6.574,22.583 9.855,33.876 -1.941,0.013 -3.881,0 -5.822,0.008 -0.902,-3.119 -1.795,-6.241 -2.705,-9.359 -3.742,0.002 -7.483,-0.007 -11.225,0.003 -0.894,3.121 -1.816,6.235 -2.711,9.355 -1.926,0.003 -3.852,-0.002 -5.777,0.003 3.119,-10.84 6.274,-21.672 9.417,-32.504 0.33,-0.98 0.458,-2.058 1.092,-2.904 m -0.472,20.744 c 2.713,0.004 5.424,0.001 8.137,0.001 -1.349,-4.695 -2.721,-9.387 -4.066,-14.084 -1.355,4.695 -2.723,9.386 -4.071,14.083 z m -27.13,-22.524 h 21.035 v 5.673 c -2.582,0.002 -5.163,-0.003 -7.744,0.002 0,10.502 10e-4,21.007 -0.001,31.509 h -5.547 c 0,-10.502 -0.002,-21.006 0.001,-31.509 -2.582,-0.005 -5.162,0 -7.745,-0.002 0.001,-1.892 -0.001,-3.782 0.001,-5.673 z m 51.497,0.231 a 4.74,4.74 0 0 1 1.664,-0.233 c 2.211,0.008 4.423,10e-4 6.632,0.003 3.724,0.068 7.278,2.378 8.889,5.73 1.115,2.176 1.231,4.706 0.949,7.093 -0.193,2.5 -1.241,4.998 -3.163,6.655 -1.016,0.904 -2.279,1.452 -3.364,2.257 -0.597,0.455 -0.626,1.337 -0.318,1.968 2.934,4.529 5.984,8.989 8.98,13.48 -2.19,0.004 -4.382,-0.005 -6.573,0.004 -2.868,-4.308 -5.706,-8.638 -8.562,-12.952 -0.84,-1.228 -1.068,-2.854 -0.566,-4.255 0.393,-1.074 1.332,-1.861 2.378,-2.268 1.997,-0.762 3.966,-1.959 5.072,-3.843 0.842,-1.417 0.798,-3.165 0.419,-4.715 -0.443,-2.013 -2.404,-3.596 -4.477,-3.526 -1.432,0.01 -2.865,-0.008 -4.295,0.007 -0.648,-0.015 -1.258,0.548 -1.25,1.204 -0.006,10.115 0.004,20.23 -0.002,30.347 -1.863,-0.004 -3.725,0 -5.588,-0.002 -0.004,-10.89 0.002,-21.78 -0.004,-32.671 0.012,-1.909 1.369,-3.704 3.179,-4.283 z m 23.198,-0.231 h 5.88 c -10e-4,12.396 0.004,24.789 -0.003,37.186 -1.958,-0.005 -3.917,0 -5.877,-0.002 z"
   style="fill:#f2f2f2"
   transform="matrix(1.5,0,0,1.5,-93.637,14.924)"
   id="path1" />
    </g><path
     id="path14"
     style="fill:#ffffff;fill-opacity:1;fill-rule:nonzero;stroke:none;stroke-width:0.169886"
     class="ps02"
     d="m 102.83157,12.007175 v 10.39453 c 0,0 0.33076,8.86409 4.43164,13.44336 5.56919,6.22971 11.21289,5.77929 11.21289,5.77929 v -4.55078 c 0,0 -6.22634,-1.26185 -9.33984,-5.81836 -1.06331,-1.56448 -2.30439,-3.27147 -2.78516,-5.08398 -1.79739,-6.80444 -1.13867,-14.16406 -1.13867,-14.16406 z" /><path
     id="path16"
     style="fill:#ffffff;fill-opacity:1;fill-rule:nonzero;stroke:none;stroke-width:0.169886"
     class="ps02"
     d="m 94.048367,12.007175 c 0,0 0.65838,7.35962 -1.13867,14.16406 -0.48111,1.81251 -1.72209,3.5195 -2.81055,5.08398 -3.11366,4.55651 -9.33984,5.81836 -9.33984,5.81836 v 4.55078 c 0,0 5.66926,0.45042 11.23828,-5.77929 4.10088,-4.57927 4.42969,-13.44336 4.42969,-13.44336 v -10.39453 z" /><path
     id="path12"
     style="fill:#ffffff;fill-opacity:1;fill-rule:nonzero;stroke:none;stroke-width:0.0861491;stroke-linecap:butt;stroke-linejoin:miter;stroke-miterlimit:4;stroke-dasharray:none"
     class="ps02 ps11"
     d="m 97.491877,12.005255 v 29.61914 h 4.251963 v -29.61914 z" /><path
     style="fill:#ffffff;fill-rule:nonzero;stroke:none;stroke-width:0.0496238;stroke-linecap:butt;stroke-linejoin:miter;stroke-miterlimit:4;stroke-dasharray:none"
     d="m 120.11214,41.935251 c 0.27703,0 0.55417,0.07144 0.81662,0.217245 0.27694,0.14434 0.48117,0.35131 0.62698,0.622573 0.14581,0.268326 0.23329,0.549766 0.23329,0.842851 0,0.290148 -0.0729,0.568652 -0.23329,0.835512 -0.14581,0.268326 -0.34994,0.475394 -0.6124,0.622572 -0.26245,0.148744 -0.55417,0.221648 -0.8312,0.221648 -0.29162,0 -0.58324,-0.0729 -0.84569,-0.221648 -0.26246,-0.147178 -0.46659,-0.354246 -0.6124,-0.622572 -0.16049,-0.26686 -0.23329,-0.545364 -0.23329,-0.835512 0,-0.293085 0.0729,-0.574525 0.23329,-0.842851 0.14581,-0.271165 0.34994,-0.478233 0.62698,-0.622573 0.26245,-0.145808 0.53949,-0.217245 0.83111,-0.217245 z m 0,0.279874 c -0.24788,0 -0.46659,0.06126 -0.69988,0.18231 -0.21872,0.119582 -0.39369,0.294552 -0.52491,0.517668 -0.11665,0.224486 -0.17497,0.459248 -0.17497,0.702817 0,0.242002 0.0583,0.473926 0.17497,0.695476 0.13113,0.221649 0.30619,0.395249 0.52491,0.517669 a 1.3833208,1.3833208 0 0 0 0.69988,0.186616 c 0.23329,0 0.46668,-0.06116 0.68539,-0.186616 0.21872,-0.12242 0.39369,-0.29602 0.52491,-0.517669 0.11665,-0.22155 0.17497,-0.453474 0.17497,-0.695476 0,-0.243569 -0.0583,-0.478331 -0.17497,-0.702817 -0.13122,-0.223116 -0.30629,-0.398086 -0.52491,-0.517668 -0.23339,-0.121051 -0.4521,-0.182212 -0.68539,-0.182212 z m -0.74363,2.333033 v -1.815266 h 0.62698 c 0.20413,0 0.36452,0.01742 0.4521,0.05089 0.10197,0.03356 0.17497,0.09199 0.2333,0.175067 0.0583,0.08318 0.0875,0.170567 0.0875,0.265392 0,0.131129 -0.0437,0.244938 -0.14581,0.344068 -0.0875,0.09776 -0.21881,0.153148 -0.3792,0.164793 0.0729,0.0277 0.11665,0.05969 0.16049,0.09619 0.0728,0.07144 0.16029,0.191019 0.26245,0.360118 l 0.21871,0.358747 h -0.34994 l -0.16048,-0.288681 c -0.13113,-0.224584 -0.2333,-0.365989 -0.3062,-0.422844 -0.0583,-0.04227 -0.13113,-0.06263 -0.23329,-0.06126 h -0.17497 v 0.772785 z m 0.29162,-1.022127 h 0.36452 c 0.16049,0 0.29162,-0.02476 0.34994,-0.07584 0.0584,-0.05098 0.0875,-0.118114 0.0875,-0.202566 0,-0.05402 -0.0146,-0.102164 -0.0436,-0.142971 -0.0293,-0.04374 -0.073,-0.07584 -0.11674,-0.09629 -0.0583,-0.02182 -0.16039,-0.032 -0.3062,-0.032 h -0.33536 v 0.549669"
     class="ps02 ps11"
     id="path5-2" /><path
     style="display:inline;opacity:0.79187;fill:#1a1a1a;stroke-width:0.58007"
     d="m 122.5233,181.89556 c -0.44259,-0.36835 -0.44781,-0.40605 -0.23783,-1.6184 0.22913,-1.32372 1.18857,-4.41493 1.99777,-6.43821 0.27089,-0.67753 0.45245,-1.2721 0.40315,-1.32199 -0.0493,-0.0493 -0.61082,0.12182 -1.24773,0.38111 -0.63692,0.25871 -1.23556,0.4223 -1.33127,0.3637 -0.0951,-0.0591 -0.12181,-0.33933 -0.0597,-0.62299 0.0812,-0.37008 0.0319,-0.54701 -0.1746,-0.62647 -0.15894,-0.0603 -0.2883,-0.27612 -0.2883,-0.47914 0,-0.45362 1.08647,-1.11316 2.81567,-1.70947 1.22569,-0.42346 1.23903,-0.43506 1.35678,-1.21815 0.065,-0.43448 0.18795,-0.83299 0.27264,-0.88578 0.30859,-0.19026 1.86608,0.52787 1.86608,0.86025 0,0.28888 0.1601,0.31092 1.53777,0.21405 2.48735,-0.17576 4.26295,0.55687 4.80879,1.98268 0.0986,0.25523 0.17635,0.95538 0.17403,1.55633 -0.009,2.11204 -1.39102,3.98335 -4.41087,5.97241 -2.03721,1.34171 -4.50889,2.67356 -4.96947,2.67762 -0.33238,0.003 -0.3347,-0.0174 -0.0418,-0.34167 0.18272,-0.20186 0.26103,-0.47565 0.18968,-0.66186 -0.23144,-0.60327 0.36429,-1.21641 2.54478,-2.61728 4.02105,-2.58421 5.44106,-4.93641 3.64284,-6.0339 -0.67694,-0.41185 -1.93627,-0.47856 -3.17473,-0.16648 l -0.79121,0.19896 -0.48262,1.71701 c -0.2651,0.94436 -0.90665,2.88006 -1.42524,4.30181 -0.63228,1.73268 -0.94319,2.87252 -0.94319,3.45607 0,0.98322 -0.24421,1.27615 -0.59574,0.71407 -0.31904,-0.51047 -0.48146,-0.47566 -0.55222,0.11775 -0.0754,0.63634 -0.31672,0.69841 -0.88345,0.22797 z m -6.74739,-1.75124 c -1.85564,-0.681 -2.75011,-1.97804 -2.87715,-4.17187 -0.10847,-1.86899 0.26393,-3.01637 1.38231,-4.26004 1.27964,-1.4235 4.48105,-2.75244 5.41961,-2.2501 0.20592,0.11022 0.5499,0.20071 0.76395,0.20071 0.51626,0 0.68274,0.48842 0.30744,0.90316 -0.1659,0.18273 -0.30106,0.42752 -0.30106,0.54353 0,0.2912 -0.50292,0.52207 -1.45598,0.66708 -3.68751,0.56383 -5.57506,5.19976 -2.72053,6.68126 1.69613,0.87997 3.52103,0.51627 5.10114,-1.01744 l 0.76048,-0.73785 -0.12298,0.98148 c -0.15372,1.22627 -0.71059,1.86551 -2.06737,2.37307 -1.16884,0.43738 -3.12485,0.47798 -4.18986,0.087 z m 30.58948,-4.93466 c -1.38521,-1.02789 -4.07964,-2.84932 -6.68242,-4.51876 -1.68221,-1.07893 -4.72294,-3.44562 -4.93409,-3.84007 -0.10267,-0.192 -0.547,-0.51858 -0.98786,-0.72509 -0.80862,-0.38053 -4.75252,-4.22292 -4.99035,-4.86216 -0.0661,-0.17866 -0.23957,-0.32484 -0.38517,-0.32484 -0.14559,0 -0.66302,-0.37588 -1.14912,-0.8353 -0.76163,-0.71929 -0.82718,-0.8353 -0.47392,-0.8353 0.22565,0 0.71929,0.1601 1.09634,0.35558 0.37762,0.19606 0.92057,0.44666 1.20655,0.55745 0.33412,0.12936 0.62241,0.45072 0.80514,0.89737 0.31439,0.76918 3.21127,3.7026 4.47583,4.5321 0.43389,0.28423 0.78889,0.6346 0.78889,0.77729 0,0.1427 0.45942,0.57659 1.02093,0.96292 0.56151,0.38691 1.02092,0.77729 1.02092,0.86779 0,0.0899 0.3028,0.29003 0.67289,0.44491 0.37008,0.15488 1.31676,0.79818 2.10333,1.4293 0.78716,0.63111 1.91424,1.48208 2.50591,1.89045 0.59051,0.40837 1.66945,1.20597 2.39744,1.77212 0.72799,0.56615 1.71585,1.2982 2.19557,1.62652 0.85096,0.58297 1.25005,0.98032 0.94841,0.94609 -0.0829,-0.009 -0.81848,-0.51278 -1.63522,-1.11837 z m 1.48498,-0.90607 c -0.0632,-0.1021 -0.0313,-0.18563 0.0708,-0.18563 0.1021,0 0.23783,0.0835 0.30048,0.18563 0.0632,0.10209 0.0313,0.18562 -0.0708,0.18562 -0.10209,0 -0.23783,-0.0835 -0.30048,-0.18562 z m -2.3255,-1.72108 c -0.7628,-0.5383 -1.79648,-1.26919 -2.29708,-1.62419 a 35.074008,35.074008 0 0 1 -1.94904,-1.5256 c -0.57137,-0.48435 -1.1178,-0.88112 -1.21467,-0.8817 -0.0963,-0.001 -0.38865,-0.20013 -0.64968,-0.44318 -0.26103,-0.24246 -1.42814,-1.08473 -2.59466,-1.8713 a 46.018212,46.018212 0 0 1 -7.08615,-5.90049 c -1.18915,-1.21003 -1.71817,-1.62478 -2.07492,-1.62478 -0.57601,0 -1.06211,-0.44201 -1.06211,-0.96524 0,-0.34398 0.076,-0.36951 0.77904,-0.25697 0.99598,0.15952 2.21587,1.08647 3.79889,2.88818 0.6752,0.76801 1.36258,1.48034 1.52732,1.58243 0.38923,0.24189 1.98965,1.70831 2.60336,2.38583 0.26394,0.29178 0.85561,0.72161 1.31502,0.95596 0.94204,0.4803 2.3899,1.56967 3.23796,2.43514 0.96234,0.98322 2.72518,2.37017 4.27977,3.36615 1.23555,0.79238 3.17647,2.45834 2.86323,2.45834 -0.0487,0 -0.71349,-0.44085 -1.47628,-0.97858 z m 2.18339,-0.25813 c -0.38227,-0.27205 -0.65896,-0.5296 -0.61546,-0.57311 0.0829,-0.0835 1.7785,0.86257 1.7785,0.99193 0,0.21636 -0.54817,0.0185 -1.16304,-0.41882 z m 1.84752,-0.60849 c -1.23671,-0.68739 -1.83534,-1.12476 -1.53893,-1.12476 0.29352,0 3.08192,1.53023 3.08192,1.69149 0,0.25581 -0.1862,0.18736 -1.54299,-0.56673 z m -4.90044,-1.36433 a 199.11177,199.11177 0 0 1 -3.13586,-2.33189 c -0.98786,-0.75061 -2.22284,-1.6416 -2.74432,-1.9792 -0.52207,-0.3376 -1.49136,-1.17406 -2.15497,-1.85797 -0.6636,-0.68448 -1.6561,-1.54763 -2.20601,-1.91888 l -1.57837,-1.06674 c -0.31904,-0.21521 -1.07023,-0.95016 -1.67003,-1.63349 -0.74713,-0.85154 -1.43683,-1.41711 -2.19208,-1.79822 -1.25702,-0.63459 -1.41364,-1.1468 -0.37995,-1.24715 0.71001,-0.0685 0.73263,-0.14908 0.2007,-0.71523 -0.30917,-0.3289 -0.36138,-0.51626 -0.22796,-0.81442 l 0.17286,-0.38807 0.49132,0.38633 c 0.27031,0.21289 0.73321,0.43505 1.02904,0.49423 0.50409,0.10093 0.59864,0.0145 1.50529,-1.36549 0.59573,-0.90781 0.92347,-1.58708 0.85386,-1.76865 -0.0626,-0.16241 -0.5035,-0.49885 -0.97974,-0.74828 -0.72103,-0.37705 -1.00642,-0.42926 -1.70135,-0.3144 -1.1932,0.19723 -1.38753,0.31323 -1.72803,1.02731 -0.20418,0.42809 -0.39445,0.60327 -0.58007,0.53192 -0.19026,-0.0731 -0.31324,0.0568 -0.39851,0.42171 -0.0673,0.29004 -0.37821,0.93392 -0.69028,1.42987 -0.35907,0.57196 -0.72741,1.59172 -1.00585,2.78435 -0.24189,1.03485 -0.51974,2.21587 -0.61835,2.62424 -0.0986,0.40837 -0.26568,1.28544 -0.37125,1.94904 -0.24653,1.55053 -0.51046,2.21588 -0.73611,1.85217 -0.2094,-0.33934 -0.1862,-0.37299 -1.08937,1.56909 -0.59284,1.27384 -0.82196,1.6068 -0.99018,1.43858 -0.29758,-0.29758 -0.51627,-0.27611 -0.51627,0.0505 0,0.70073 -0.76395,1.6271 -1.08067,1.31038 -0.24363,-0.24363 0.0226,-2.07433 0.41591,-2.85975 0.23551,-0.46986 0.48784,-1.18102 0.56035,-1.57953 0.0725,-0.39909 0.37647,-1.24251 0.6752,-1.87421 0.29874,-0.63228 0.54179,-1.35041 0.54063,-1.59578 -0.002,-0.46522 0.78251,-3.02217 1.7611,-5.73633 a 13.248827,13.248827 0 0 0 0.35674,-1.16768 l 0.12297,-0.518 -0.55338,0.28597 c -0.62068,0.32079 -1.68511,0.38459 -1.68511,0.10036 0,-0.10209 -0.1195,-0.18563 -0.26567,-0.18563 -0.43332,0 -1.57432,-0.8121 -1.58244,-1.12591 -0.004,-0.16011 0.26335,-0.53947 0.59515,-0.84343 0.33181,-0.30396 0.68681,-0.68622 0.7889,-0.84922 0.28424,-0.45478 5.20904,-2.33073 6.4968,-2.47575 0.61256,-0.069 1.33184,-0.25349 1.59868,-0.41069 0.41939,-0.24653 0.69608,-0.25407 2.03837,-0.058 1.74137,0.25465 1.97224,0.35094 3.10048,1.29239 1.13346,0.94552 1.52268,1.68975 1.52268,2.9108 0,1.74196 -0.96349,3.11556 -3.30234,4.70844 l -0.9432,0.64272 0.68449,0.66128 c 0.37588,0.36312 1.1352,1.18973 1.68742,1.83651 0.55107,0.64677 1.25702,1.33068 1.56794,1.51978 0.58761,0.35733 2.35857,1.81505 4.17187,3.43286 0.57891,0.51685 1.70541,1.47223 2.50359,2.12306 1.31908,1.07604 1.94324,1.77212 1.75761,1.95833 -0.11021,0.11021 -2.19441,-1.29182 -3.11556,-2.0958 a 20.947533,20.947533 0 0 0 -1.67061,-1.2953 c -0.45941,-0.3115 -1.00236,-0.75177 -1.20654,-0.97858 -0.20419,-0.22739 -0.75526,-0.60791 -1.22395,-0.84574 -0.46928,-0.23784 -0.99657,-0.65143 -1.17175,-0.91884 -0.17518,-0.26683 -0.62647,-0.76744 -1.00352,-1.11141 a 127.90687,127.90687 0 0 1 -1.57547,-1.47454 c -0.49016,-0.46638 -1.01629,-0.84865 -1.16943,-0.84865 -0.15256,0 -0.79586,-0.33644 -1.42929,-0.74829 -1.10156,-0.71697 -1.12244,-0.72277 -0.49074,-0.13922 0.36312,0.3347 1.43973,1.27731 2.39221,2.09406 0.95248,0.81674 2.15903,1.88929 2.68109,2.38409 0.52206,0.49422 1.32488,1.15028 1.7843,1.45772 0.45941,0.30744 1.44032,1.11432 2.18049,1.79242 l 2.78434,2.55232 c 0.79122,0.72508 1.96122,1.6677 2.5993,2.09463 0.63808,0.42751 1.16014,0.81558 1.16014,0.86315 0,0.20998 -0.36661,0.007 -1.61724,-0.89622 z m 1.64624,-0.68448 c -0.97162,-0.62764 -1.42697,-1.1178 -1.03948,-1.1178 0.22854,0 2.30984,1.51167 2.30984,1.67757 0,0.25813 -0.0174,0.25058 -1.27036,-0.55977 z m -23.41747,-3.25478 c 0,-0.0522 0.0742,-0.24073 0.1659,-0.41765 0.0911,-0.17751 0.27379,-0.57311 0.40605,-0.87939 0.23377,-0.53947 0.24363,-0.54295 0.3144,-0.11776 0.0406,0.24131 -0.0174,0.52961 -0.12762,0.6404 -0.11137,0.11022 -0.20186,0.35152 -0.20186,0.5354 0,0.18389 -0.1253,0.33413 -0.27844,0.33413 -0.15314,0 -0.27843,-0.0429 -0.27843,-0.0951 z m -59.308802,1.81446 c -1.692651,-0.60618 -4.174199,-2.38409 -4.174199,-2.99026 0,-0.38401 0.667083,-0.22566 1.127661,0.2674 0.813843,0.87127 2.004726,1.44612 2.965322,1.43162 2.542452,-0.0383 5.238625,-2.83655 6.970717,-7.23291 0.950738,-2.41309 2.505909,-8.64422 2.227473,-8.92323 -0.04234,-0.0423 -0.983219,0.0493 -2.089995,0.20302 -4.116762,0.57428 -4.029175,0.57428 -5.055901,-0.0162 -0.04003,-0.0232 0.03482,-0.1717 0.166479,-0.33064 0.200707,-0.24131 0.168224,-0.36371 -0.197803,-0.75409 l -0.437956,-0.4658 0.410693,-0.10731 c 0.444334,-0.11602 0.542367,-0.35965 0.191426,-0.4774 -0.1224,-0.0406 -0.165901,-0.21115 -0.09861,-0.38633 0.09803,-0.25639 0.377046,-0.31382 1.525586,-0.31382 0.773232,0 2.008206,-0.12297 2.743737,-0.27264 0.73669,-0.15023 2.839447,-0.49131 4.673634,-0.75873 1.834766,-0.26741 3.547134,-0.59225 3.805268,-0.72219 0.789475,-0.39618 6.970715,-1.36722 7.206223,-1.13113 0.237831,0.23725 -0.668242,0.64562 -1.446117,0.65258 -0.997722,0.008 -2.227474,0.3231 -2.227474,0.57021 0,0.0975 0.167062,0.17692 0.371246,0.17692 0.204187,0 0.371245,0.0406 0.371245,0.0911 0,0.21115 -1.191466,1.20829 -1.444377,1.20829 -0.150819,0 -0.535406,0.15893 -0.853865,0.35384 -0.318459,0.19374 -0.938554,0.45884 -1.378828,0.58877 -0.439695,0.12994 -0.877649,0.38227 -0.972779,0.55977 -0.09513,0.17809 -0.418812,0.37705 -0.719291,0.44376 -0.299896,0.0656 -0.625896,0.21869 -0.724508,0.33992 -0.09861,0.12066 -0.450134,1.3475 -0.781356,2.72575 -1.580693,6.58091 -4.304128,12.31027 -6.728827,14.15664 -1.74775,1.33069 -3.699115,1.73093 -5.424821,1.11316 z m 39.844512,-20.84428 c -0.30628,-0.0191 -0.65664,0.13051 -0.97858,0.45245 -0.56731,0.56674 -1.67989,2.68167 -2.10856,4.00829 -0.18156,0.56151 -0.477981,1.31329 -0.658962,1.67061 -0.398509,0.78832 -1.554592,3.89286 -1.831865,4.91901 -0.110214,0.40837 -0.197805,1.49426 -0.194905,2.41309 0.0058,1.97224 0.237831,2.38932 1.438576,2.59234 0.664764,0.11195 0.912453,0.0493 1.752396,-0.44376 0.53831,-0.31613 1.11954,-0.76162 1.29298,-0.99017 a 39.439043,39.439043 0 0 1 0.76511,-0.96292 l 0.44956,-0.54759 0.0273,1.33242 c 0.0151,0.73263 0.10673,1.54009 0.20302,1.79474 0.21173,0.55571 0.96292,0.7889 1.60332,0.49654 0.25291,-0.11485 0.53773,-0.20882 0.63402,-0.20882 0.21694,0 -0.60212,1.88581 -1.24019,2.85511 -0.39677,0.60328 -0.44086,0.79296 -0.2709,1.1671 0.17112,0.37531 0.26335,0.41475 0.57601,0.24712 0.20477,-0.10906 0.37183,-0.2883 0.37183,-0.39793 0,-0.10906 0.11891,-0.15314 0.26509,-0.0975 0.14502,0.0563 0.36544,-0.0191 0.489,-0.16822 0.12298,-0.14791 0.35616,-0.24769 0.518,-0.22043 0.17519,0.029 0.55861,-0.33238 0.94958,-0.89562 a 57.889949,57.889949 0 0 1 1.42988,-1.94904 c 0.42577,-0.55281 1.29472,-2.00705 1.93105,-3.23216 1.23208,-2.37249 1.72862,-3.06278 2.20253,-3.06278 0.16242,0 0.61256,-0.21462 0.99889,-0.47798 0.8179,-0.55512 2.14626,-1.18277 2.51751,-1.18856 0.2007,-0.003 0.23086,0.19084 0.13631,0.87765 -0.13109,0.95247 0.23957,4.50135 0.46986,4.50135 0.0777,0 0.19026,0.31324 0.25059,0.69608 0.0609,0.38285 0.22913,1.0946 0.37473,1.58186 0.14501,0.48726 0.21752,1.11837 0.16068,1.40261 -0.069,0.34572 -0.006,0.59747 0.19084,0.76106 0.16242,0.13457 0.29468,0.35384 0.29468,0.489 0,0.13457 0.0975,0.30569 0.21694,0.37936 0.14502,0.0899 0.17867,0.0331 0.10094,-0.17054 -0.0644,-0.16706 -0.029,-0.99483 0.0777,-1.83999 0.10731,-0.84458 0.26219,-2.78898 0.34514,-4.32037 0.32426,-5.99388 0.78019,-10.41286 1.14506,-11.09792 0.29467,-0.55396 0.009,-1.03601 -0.69145,-1.16769 -0.3521,-0.0661 -0.8469,-0.28191 -1.09807,-0.47971 -0.61082,-0.48088 -1.21003,-0.19317 -1.21003,0.58065 0,0.40779 -0.19142,0.69492 -0.7889,1.18508 -0.43389,0.35617 -1.03948,0.9954 -1.34576,1.42118 -0.30628,0.42577 -1.04065,1.33068 -1.63232,2.01053 -0.59167,0.67984 -1.36491,1.75181 -1.71759,2.38177 -0.45652,0.81383 -0.96872,1.38985 -1.77328,1.99544 -0.62242,0.46754 -1.25817,0.85039 -1.41248,0.85039 -0.20418,0 -0.24942,0.12239 -0.1659,0.45246 0.0621,0.24942 0.029,0.50465 -0.0731,0.56846 -0.37472,0.23087 -0.17402,0.46812 0.29584,0.35037 0.46232,-0.11602 0.44607,-0.0673 -0.40431,1.21119 -0.68332,1.02846 -0.97452,1.32024 -1.27094,1.27731 -0.49306,-0.0702 -0.58355,-0.67868 -0.29467,-1.96992 0.23551,-1.05167 0.33122,-1.29066 2.13698,-5.32389 0.63982,-1.4293 1.22453,-2.80755 1.29994,-3.06278 0.0754,-0.25523 0.26567,-0.61081 0.42345,-0.79064 0.22739,-0.25813 0.24363,-0.41359 0.0789,-0.74249 a 3.1811108,3.1811108 0 0 1 -0.26277,-0.87996 c -0.0395,-0.33877 -0.17924,-0.47856 -0.518,-0.51801 a 3.2275163,3.2275163 0 0 1 -0.89389,-0.26973 c -0.61662,-0.30976 -0.88461,-0.0685 -1.69729,1.53022 -1.20365,2.36727 -1.52037,3.12427 -1.76806,4.22583 -0.47334,2.10333 -1.27036,3.62486 -2.59408,4.948 -1.4554,1.45598 -2.62192,2.33479 -3.09758,2.33479 -0.524383,0 -0.442012,-1.04355 0.21289,-2.69153 0.30627,-0.77149 0.55686,-1.48904 0.55686,-1.5952 0,-0.10615 0.20883,-0.46637 0.46406,-0.80108 0.25523,-0.3347 0.46406,-0.77845 0.46406,-0.98612 0,-0.20766 0.1369,-0.49074 0.30396,-0.62937 0.16706,-0.13922 0.45245,-0.59922 0.63459,-1.02325 0.18157,-0.42403 0.42056,-0.82718 0.53077,-0.89505 0.11021,-0.0685 0.20128,-0.32774 0.20128,-0.57601 0,-0.24885 0.37589,-1.05573 0.83531,-1.79416 0.88577,-1.42408 0.9925,-1.82549 0.57659,-2.17063 -0.14212,-0.11833 -0.36081,-0.46232 -0.48668,-0.7657 -0.14502,-0.35036 -0.40721,-0.53772 -0.71349,-0.55686 z m 13.17515,4.61157 c 0.13458,-0.0104 0.18099,0.12471 0.0853,0.45245 -0.0667,0.22971 -0.17229,0.69609 -0.23377,1.03543 -0.0783,0.42925 -0.25291,0.67172 -0.57137,0.79296 -0.25291,0.0957 -0.66998,0.33991 -0.92696,0.54179 -0.71813,0.56498 -0.83356,0.44259 -0.39851,-0.42114 0.62126,-1.23323 1.67293,-2.37249 2.04533,-2.40149 z m -31.379529,-3.81513 c -0.490158,-0.0232 -1.746594,0.35442 -2.112039,0.66882 -0.243631,0.20998 -0.372985,0.23029 -0.469277,0.0743 -0.07309,-0.11775 -0.214626,-0.15662 -0.315559,-0.0853 -0.258131,0.1833 -1.498904,2.27097 -1.659005,2.79072 -0.07309,0.23899 -0.490158,0.949 -0.926953,1.57779 -0.436213,0.62938 -1.205388,1.93744 -1.70889,2.90732 -0.754093,1.45018 -1.038327,1.82374 -1.602156,2.10334 -0.763373,0.37879 -0.874748,0.6665 -0.3144,0.81268 0.204186,0.0533 0.371246,0.17344 0.371246,0.26625 0,0.22681 -1.13984,2.47807 -2.27388,4.49149 -0.837621,1.48615 -1.440897,3.10454 -1.430455,3.83485 0.0029,0.19491 0.113694,0.14734 0.368925,-0.16009 0.200706,-0.24073 0.365445,-0.55397 0.365445,-0.69609 0,-0.14154 0.09281,-0.25755 0.205346,-0.25755 0.113113,0 0.157779,0.12529 0.09861,0.27843 -0.23435,0.61139 0.182142,0.22101 0.5006,-0.46869 0.396189,-0.85967 0.676943,-0.95248 0.687964,-0.22739 l 0.0075,0.51046 0.290038,-0.55687 a 16.230394,16.230394 0 0 1 0.722188,-1.20655 c 0.237828,-0.35732 0.861404,-1.73557 1.38637,-3.06278 0.524385,-1.3272 1.094014,-2.54998 1.265136,-2.71763 0.1717,-0.16706 1.06385,-0.57427 1.982682,-0.90491 0.918833,-0.33064 1.773859,-0.6839 1.900313,-0.78426 0.32948,-0.26219 0.394449,0.0325 0.500023,2.27214 0.189101,4.02512 0.377045,5.05011 0.756992,4.13011 0.102094,-0.24827 0.212305,-0.10557 0.466378,0.60328 l 0.332961,0.92811 0.133414,-0.60734 c 0.155461,-0.70304 0.411851,-0.93565 0.571372,-0.518 0.340502,0.88693 0.443175,-0.17228 0.443755,-4.58256 0,-2.67993 0.08875,-6.031 0.196063,-7.4458 0.169962,-2.24835 0.15778,-2.6138 -0.09397,-2.89165 -0.15836,-0.17576 -0.288297,-0.45362 -0.288297,-0.61778 0,-0.16473 -0.08991,-0.35558 -0.200124,-0.42345 a 0.34572246,0.34572246 0 0 0 -0.15836,-0.0348 z m -2.441519,3.94274 0.0081,1.70077 0.0075,1.70135 -1.315603,0.75873 c -1.211189,0.69783 -1.654362,0.87997 -1.654362,0.68158 0,-0.30801 1.86957,-3.61558 2.352187,-4.16143 z m 8.090253,11.97267 c -0.06323,-0.10209 -0.273793,-0.18562 -0.468118,-0.18562 -0.194323,0 -0.885768,-0.4977 -1.536607,-1.10619 -1.359688,-1.27268 -1.718752,-2.10334 -1.912495,-4.42653 -0.225069,-2.70197 0.792378,-5.27517 3.023911,-7.64766 1.260494,-1.33996 1.424075,-1.44959 2.748957,-1.84288 1.320243,-0.39214 1.447277,-0.40026 2.027929,-0.12414 0.340502,0.16126 0.756413,0.50292 0.924053,0.75989 0.168221,0.25581 0.430413,0.4658 0.582972,0.4658 0.208826,0 0.24769,0.12645 0.156041,0.51046 -0.179824,0.75178 -0.221589,0.7889 -0.896211,0.7889 -1.053409,0 -3.439243,1.31676 -4.511794,2.49083 -2.157865,2.36204 -2.644545,4.98687 -1.29414,6.99043 0.954798,1.4177 3.263482,2.29941 4.489751,1.71527 l 0.563831,-0.26915 0.03248,-1.79822 c 0.0174,-0.98786 0.05974,-2.04649 0.09281,-2.35103 0.05859,-0.53946 0.04234,-0.55223 -0.676365,-0.49306 -0.404889,0.0342 -1.219308,0.30512 -1.809822,0.60327 -0.589931,0.29816 -1.073131,0.4571 -1.073131,0.35385 0,-0.10384 0.07657,-0.18853 0.170542,-0.18853 0.09397,0 0.348043,-0.28829 0.566148,-0.64039 0.471019,-0.76221 1.255855,-1.27674 2.711834,-1.77792 0.590512,-0.20303 1.21815,-0.50061 1.395651,-0.66128 0.25059,-0.22623 0.40663,-0.24595 0.701886,-0.0882 0.208246,0.11137 0.48668,0.18098 0.618357,0.15371 0.340501,-0.0696 0.224487,1.03891 -0.344562,3.29249 -0.372986,1.47686 -0.453036,2.17874 -0.392709,3.43402 0.04176,0.86779 0.141537,1.72397 0.221587,1.90264 0.25349,0.56614 -0.217526,0.3608 -0.971038,-0.42346 l -0.719291,-0.74829 -0.819059,0.74829 c -0.797598,0.72857 -0.853865,0.74829 -2.153806,0.74829 -0.73437,0 -1.386369,-0.0835 -1.449598,-0.18562 z"
     id="path14-4" /><path
     style="display:inline;fill:url(#linearGradient16);fill-opacity:1;stroke-width:0.58007"
     d="m 115.31186,179.21679 c -1.85565,-0.68158 -2.75012,-1.97863 -2.87716,-4.17245 -0.10847,-1.86899 0.26394,-3.01638 1.38231,-4.26005 1.27964,-1.42349 4.48105,-2.75243 5.41961,-2.25009 0.20592,0.11021 0.54991,0.2007 0.76395,0.2007 0.51627,0 0.68275,0.48842 0.30744,0.90317 -0.1659,0.18273 -0.30106,0.42752 -0.30106,0.54353 0,0.29119 -0.50292,0.52206 -1.45597,0.66708 -3.68752,0.56383 -5.57507,5.19976 -2.72054,6.68126 1.69613,0.87997 3.52103,0.51627 5.10115,-1.01745 l 0.76047,-0.73784 -0.12297,0.98148 c -0.15372,1.22627 -0.71059,1.86551 -2.06738,2.37307 -1.16884,0.43737 -3.12484,0.47798 -4.18985,0.087 z"
     id="path15" /><path
     style="display:inline;fill:url(#h);fill-opacity:1;stroke-width:0.58007"
     d="m 122.05925,180.96744 c -0.4426,-0.36834 -0.44782,-0.40605 -0.23783,-1.6184 0.22913,-1.32372 1.18856,-4.41492 1.99776,-6.43821 0.2709,-0.67752 0.45246,-1.27209 0.40315,-1.32198 -0.0493,-0.0493 -0.61081,0.12182 -1.24773,0.38111 -0.63692,0.25871 -1.23555,0.42229 -1.33126,0.3637 -0.0951,-0.0591 -0.12182,-0.33934 -0.0597,-0.62299 0.0812,-0.37009 0.0319,-0.54701 -0.1746,-0.62648 -0.15894,-0.0603 -0.2883,-0.27611 -0.2883,-0.47914 0,-0.45361 1.08648,-1.11315 2.81567,-1.70947 1.22569,-0.42345 1.23903,-0.43505 1.35679,-1.21815 0.065,-0.43447 0.18794,-0.83298 0.27263,-0.88577 0.3086,-0.19026 1.86609,0.52787 1.86609,0.86025 0,0.28888 0.1601,0.31092 1.53777,0.21404 2.48734,-0.17576 4.26294,0.55687 4.80879,1.98269 0.0986,0.25523 0.17634,0.95537 0.17402,1.55633 -0.009,2.11204 -1.39101,3.98335 -4.41086,5.97241 -2.03721,1.34171 -4.5089,2.67355 -4.96947,2.67761 -0.33238,0.003 -0.3347,-0.0174 -0.0418,-0.34166 0.18273,-0.20186 0.26104,-0.47566 0.18969,-0.66186 -0.23145,-0.60328 0.36428,-1.21641 2.54477,-2.61728 4.02105,-2.58422 5.44107,-4.93641 3.64285,-6.03391 -0.67695,-0.41185 -1.93628,-0.47855 -3.17473,-0.16647 l -0.79122,0.19896 -0.48262,1.71701 c -0.26509,0.94436 -0.90665,2.88006 -1.42523,4.30181 -0.63228,1.73267 -0.9432,2.87251 -0.9432,3.45606 0,0.98322 -0.24421,1.27616 -0.59573,0.71407 -0.31904,-0.51046 -0.48146,-0.47566 -0.55223,0.11776 -0.0754,0.63633 -0.31672,0.6984 -0.88345,0.22796 z"
     id="path16-5" /><path
     style="display:inline;fill:#ffffff;fill-opacity:1;stroke-width:0.58007"
     d="m 122.05925,180.96744 c -0.4426,-0.36834 -0.44782,-0.40605 -0.23783,-1.6184 0.22913,-1.32372 1.18856,-4.41492 1.99776,-6.43821 0.2709,-0.67752 0.45246,-1.27209 0.40315,-1.32198 -0.0493,-0.0493 -0.61081,0.12182 -1.24773,0.38111 -0.63692,0.25871 -1.23555,0.42229 -1.33126,0.3637 -0.0951,-0.0591 -0.12182,-0.33934 -0.0597,-0.62299 0.0812,-0.37009 0.0319,-0.54701 -0.1746,-0.62648 -0.15894,-0.0603 -0.2883,-0.27611 -0.2883,-0.47914 0,-0.45361 1.08648,-1.11315 2.81567,-1.70947 1.22569,-0.42345 1.23903,-0.43505 1.35679,-1.21815 0.065,-0.43447 0.18794,-0.83298 0.27263,-0.88577 0.3086,-0.19026 1.86609,0.52787 1.86609,0.86025 0,0.28888 0.1601,0.31092 1.53777,0.21404 2.48734,-0.17576 4.26294,0.55687 4.80879,1.98269 0.0986,0.25523 0.17634,0.95537 0.17402,1.55633 -0.009,2.11204 -1.39101,3.98335 -4.41086,5.97241 -2.03721,1.34171 -4.5089,2.67355 -4.96947,2.67761 -0.33238,0.003 -0.3347,-0.0174 -0.0418,-0.34166 0.18273,-0.20186 0.26104,-0.47566 0.18969,-0.66186 -0.23145,-0.60328 0.36428,-1.21641 2.54477,-2.61728 4.02105,-2.58422 5.44107,-4.93641 3.64285,-6.03391 -0.67695,-0.41185 -1.93628,-0.47855 -3.17473,-0.16647 l -0.79122,0.19896 -0.48262,1.71701 c -0.26509,0.94436 -0.90665,2.88006 -1.42523,4.30181 -0.63228,1.73267 -0.9432,2.87251 -0.9432,3.45606 0,0.98322 -0.24421,1.27616 -0.59573,0.71407 -0.31904,-0.51046 -0.48146,-0.47566 -0.55223,0.11776 -0.0754,0.63633 -0.31672,0.6984 -0.88345,0.22796 z m -6.74739,-1.75123 c -1.85565,-0.681 -2.75012,-1.97805 -2.87716,-4.17187 -0.10847,-1.86899 0.26394,-3.01638 1.38231,-4.26005 1.27964,-1.42349 4.48105,-2.75243 5.41961,-2.25009 0.20592,0.11021 0.54991,0.2007 0.76395,0.2007 0.51627,0 0.68275,0.48842 0.30744,0.90317 -0.1659,0.18273 -0.30106,0.42752 -0.30106,0.54353 0,0.29119 -0.50292,0.52206 -1.45597,0.66708 -3.68752,0.56383 -5.57507,5.19976 -2.72054,6.68126 1.69613,0.87997 3.52103,0.51627 5.10115,-1.01745 l 0.76047,-0.73784 -0.12297,0.98148 c -0.15372,1.22627 -0.71059,1.86551 -2.06738,2.37307 -1.16884,0.43737 -3.12484,0.47798 -4.18985,0.087 z"
     id="path17" /><g
     style="display:inline;fill:#ffffff"
     id="g30"
     transform="matrix(0.58007124,0,0,0.58007124,58.937055,144.28142)"><path
       style="display:inline;fill:#ffffff;fill-opacity:1;stroke-width:1"
       d="m 54.24,32.64 c -0.109,-0.176 -0.472,-0.32 -0.807,-0.32 -0.335,0 -1.527,-0.858 -2.649,-1.907 -2.344,-2.194 -2.963,-3.626 -3.297,-7.631 -0.388,-4.658 1.366,-9.094 5.213,-13.184 2.173,-2.31 2.455,-2.499 4.739,-3.177 2.276,-0.676 2.495,-0.69 3.496,-0.214 0.587,0.278 1.304,0.867 1.593,1.31 0.29,0.441 0.742,0.803 1.005,0.803 0.36,0 0.427,0.218 0.269,0.88 -0.31,1.296 -0.382,1.36 -1.545,1.36 -1.816,0 -5.929,2.27 -7.778,4.294 -3.72,4.072 -4.559,8.597 -2.231,12.051 1.646,2.444 5.626,3.964 7.74,2.957 l 0.972,-0.464 0.056,-3.1 c 0.03,-1.703 0.103,-3.528 0.16,-4.053 0.101,-0.93 0.073,-0.952 -1.166,-0.85 -0.698,0.059 -2.102,0.526 -3.12,1.04 -1.017,0.514 -1.85,0.788 -1.85,0.61 0,-0.179 0.132,-0.325 0.294,-0.325 0.162,0 0.6,-0.497 0.976,-1.104 0.812,-1.314 2.165,-2.201 4.675,-3.065 1.018,-0.35 2.1,-0.863 2.406,-1.14 0.432,-0.39 0.701,-0.424 1.21,-0.152 0.359,0.192 0.839,0.312 1.066,0.265 0.587,-0.12 0.387,1.791 -0.594,5.676 -0.643,2.546 -0.781,3.756 -0.677,5.92 0.072,1.496 0.244,2.972 0.382,3.28 0.437,0.976 -0.375,0.622 -1.674,-0.73 l -1.24,-1.29 -1.412,1.29 c -1.375,1.256 -1.472,1.29 -3.713,1.29 -1.266,0 -2.39,-0.144 -2.499,-0.32 z"
       transform="translate(0,-0.084)"
       id="path18" /><path
       style="display:inline;fill:#ffffff;fill-opacity:1;stroke-width:2.5"
       d="m 121.424,21.928 c -2.112,-0.098 -7.529,1.527 -9.104,2.883 -1.05,0.904 -1.606,0.992 -2.021,0.32 -0.315,-0.51 -0.927,-0.676 -1.36,-0.37 -1.113,0.79 -6.46,9.788 -7.148,12.03 -0.316,1.03 -2.115,4.09 -3.996,6.8 -1.882,2.712 -5.196,8.348 -7.367,12.528 -3.247,6.252 -4.474,7.86 -6.905,9.067 -3.288,1.63 -3.768,2.87 -1.355,3.501 0.88,0.23 1.602,0.747 1.602,1.147 0,0.978 -4.914,10.682 -9.801,19.357 -3.61,6.408 -6.21,13.38 -6.164,16.53 0.012,0.84 0.488,0.633 1.59,-0.69 0.865,-1.039 1.574,-2.389 1.574,-3 0,-0.611 0.397,-1.111 0.885,-1.111 0.487,0 0.679,0.54 0.425,1.2 -1.011,2.636 0.786,0.953 2.157,-2.02 1.707,-3.704 2.919,-4.105 2.964,-0.98 l 0.034,2.2 1.252,-2.4 c 0.688,-1.32 2.087,-3.66 3.11,-5.2 1.025,-1.54 3.713,-7.48 5.974,-13.2 2.26,-5.72 4.715,-10.99 5.455,-11.711 0.74,-0.722 4.585,-2.478 8.545,-3.903 3.96,-1.425 7.644,-2.946 8.189,-3.379 1.42,-1.129 1.7,0.141 2.154,9.793 0.816,17.348 1.626,21.766 3.262,17.8 0.441,-1.07 0.916,-0.454 2.012,2.6 l 1.435,4 0.576,-2.616 c 0.669,-3.032 1.771,-4.033 2.461,-2.235 1.468,3.824 1.91,-0.74 1.912,-19.75 0.002,-11.55 0.383,-25.99 0.844,-32.09 0.734,-9.69 0.682,-11.263 -0.404,-12.463 -0.683,-0.755 -1.242,-1.952 -1.242,-2.662 0,-0.71 -0.389,-1.53 -0.864,-1.824 -0.145,-0.09 -0.38,-0.138 -0.681,-0.152 z m -10.522,16.992 0.034,7.33 0.033,7.332 -5.67,3.27 c -5.22,3.01 -7.131,3.796 -7.131,2.937 0,-1.327 8.058,-15.58 10.139,-17.934 z"
       transform="matrix(0.4,0,0,0.4,-4.067,-3.652)"
       id="path19" /><path
       style="display:inline;fill:#ffffff;fill-opacity:1;stroke-width:2.5"
       d="m 199.88,18.494 c -1.32,-0.081 -2.83,0.563 -4.216,1.95 -2.445,2.444 -7.24,11.56 -9.088,17.277 -0.782,2.42 -2.06,5.659 -2.84,7.199 -1.718,3.397 -6.701,16.777 -7.894,21.2 -0.475,1.76 -0.854,6.44 -0.842,10.4 0.026,8.498 1.024,10.296 6.203,11.171 2.862,0.484 3.931,0.215 7.55,-1.912 2.32,-1.362 4.826,-3.282 5.573,-4.267 a 169.97,169.97 0 0 1 3.297,-4.15 l 1.938,-2.36 0.117,5.742 c 0.065,3.159 0.46,6.64 0.877,7.736 0.91,2.395 4.15,3.399 6.91,2.141 1.088,-0.496 2.317,-0.9 2.73,-0.9 0.937,0 -2.593,8.128 -5.343,12.304 -1.712,2.6 -1.903,3.418 -1.168,5.03 0.737,1.618 1.134,1.787 2.482,1.066 0.882,-0.472 1.604,-1.243 1.604,-1.715 0,-0.471 0.512,-0.66 1.14,-0.42 0.628,0.241 1.577,-0.085 2.108,-0.724 0.53,-0.64 1.535,-1.07 2.232,-0.953 0.756,0.125 2.409,-1.432 4.094,-3.86 1.554,-2.239 4.327,-6.02 6.162,-8.4 1.835,-2.381 5.58,-8.65 8.322,-13.93 5.31,-10.226 7.449,-13.2 9.494,-13.2 0.701,0 2.638,-0.925 4.305,-2.058 3.523,-2.393 9.25,-5.097 10.85,-5.123 0.863,-0.013 0.995,0.82 0.587,3.782 -0.564,4.106 1.032,19.4 2.026,19.4 0.333,0 0.82,1.35 1.08,3 0.26,1.65 0.987,4.718 1.613,6.818 0.626,2.1 0.939,4.82 0.694,6.045 -0.298,1.49 -0.027,2.575 0.822,3.28 0.698,0.579 1.27,1.527 1.27,2.107 0,0.58 0.42,1.317 0.935,1.635 0.626,0.387 0.77,0.143 0.433,-0.735 -0.276,-0.72 -0.125,-4.288 0.336,-7.93 0.462,-3.64 1.132,-12.02 1.489,-18.62 1.396,-25.832 3.361,-44.878 4.933,-47.83 1.271,-2.387 0.04,-4.465 -2.978,-5.032 -1.52,-0.285 -3.649,-1.216 -4.733,-2.068 -2.633,-2.071 -5.214,-0.832 -5.214,2.504 0,1.756 -0.824,2.994 -3.4,5.107 -1.87,1.534 -4.482,4.29 -5.802,6.125 -1.32,1.835 -4.485,5.733 -7.035,8.664 -2.55,2.931 -5.881,7.55 -7.402,10.264 -1.967,3.509 -4.174,5.992 -7.643,8.6 -2.682,2.016 -5.422,3.666 -6.086,3.666 -0.88,0 -1.073,0.528 -0.716,1.95 0.269,1.074 0.127,2.175 -0.315,2.448 -1.614,0.998 -0.751,2.02 1.275,1.512 1.993,-0.5 1.923,-0.29 -1.742,5.22 -2.946,4.432 -4.199,5.69 -5.478,5.506 -2.124,-0.303 -2.515,-2.924 -1.27,-8.492 1.014,-4.532 1.428,-5.562 9.21,-22.943 2.757,-6.16 5.279,-12.101 5.603,-13.201 0.324,-1.1 1.146,-2.632 1.826,-3.407 0.978,-1.113 1.048,-1.783 0.338,-3.2 -0.494,-0.987 -1.003,-2.694 -1.131,-3.794 -0.17,-1.459 -0.773,-2.062 -2.232,-2.232 -1.1,-0.129 -2.835,-0.651 -3.854,-1.162 -2.657,-1.334 -3.811,-0.294 -7.314,6.595 -5.188,10.203 -6.554,13.464 -7.622,18.213 -2.038,9.064 -5.474,15.621 -11.18,21.326 -6.271,6.273 -11.3,10.06 -13.35,10.06 -2.26,0 -1.903,-4.495 0.92,-11.599 1.32,-3.323 2.4,-6.417 2.4,-6.875 0,-0.458 0.9,-2.01 2,-3.453 1.1,-1.442 2,-3.355 2,-4.25 0,-0.894 0.588,-2.115 1.308,-2.713 0.72,-0.597 1.951,-2.582 2.734,-4.41 0.784,-1.828 1.813,-3.563 2.29,-3.857 0.476,-0.295 0.867,-1.412 0.867,-2.483 0,-1.07 1.62,-4.55 3.6,-7.732 3.818,-6.136 4.278,-7.868 2.486,-9.356 -0.613,-0.508 -1.557,-1.991 -2.098,-3.296 -0.626,-1.512 -1.756,-2.32 -3.076,-2.4 z m 56.784,19.877 c 0.58,-0.045 0.779,0.536 0.367,1.95 -0.288,0.99 -0.741,2.997 -1.008,4.462 -0.336,1.85 -1.088,2.894 -2.462,3.416 -1.089,0.414 -2.887,1.465 -3.995,2.336 -3.094,2.434 -3.592,1.909 -1.716,-1.814 2.677,-5.315 7.209,-10.225 8.814,-10.35 z"
       transform="matrix(0.4,0,0,0.4,-4.067,-3.652)"
       id="path20" /><path
       style="display:inline;fill:#ffffff;fill-opacity:1;stroke-width:1"
       d="M 7.196,39.764 C 4.278,38.719 0,35.654 0,34.609 0,33.947 1.15,34.22 1.944,35.07 c 1.403,1.502 3.456,2.493 5.112,2.468 4.383,-0.066 9.031,-4.89 12.017,-12.469 1.639,-4.16 4.32,-14.902 3.84,-15.383 -0.073,-0.073 -1.695,0.085 -3.603,0.35 -7.097,0.99 -6.946,0.99 -8.716,-0.028 -0.069,-0.04 0.06,-0.296 0.287,-0.57 0.346,-0.416 0.29,-0.627 -0.341,-1.3 L 9.785,7.335 10.493,7.15 c 0.766,-0.2 0.935,-0.62 0.33,-0.823 -0.211,-0.07 -0.286,-0.364 -0.17,-0.666 0.169,-0.442 0.65,-0.541 2.63,-0.541 1.333,0 3.462,-0.212 4.73,-0.47 1.27,-0.259 4.895,-0.847 8.057,-1.308 3.163,-0.461 6.115,-1.021 6.56,-1.245 1.361,-0.683 12.017,-2.357 12.423,-1.95 0.41,0.409 -1.152,1.113 -2.493,1.125 -1.72,0.014 -3.84,0.557 -3.84,0.983 0,0.168 0.288,0.305 0.64,0.305 0.352,0 0.64,0.07 0.64,0.157 0,0.364 -2.054,2.083 -2.49,2.083 -0.26,0 -0.923,0.274 -1.472,0.61 -0.549,0.334 -1.618,0.791 -2.377,1.015 -0.758,0.224 -1.513,0.659 -1.677,0.965 -0.164,0.307 -0.722,0.65 -1.24,0.765 -0.517,0.113 -1.079,0.377 -1.249,0.586 -0.17,0.208 -0.776,2.323 -1.347,4.699 -2.725,11.345 -7.42,21.222 -11.6,24.405 -3.013,2.294 -6.377,2.984 -9.352,1.919 z"
       transform="translate(0,-0.084)"
       id="path21" /><g
       style="display:inline;fill:#ffffff;fill-opacity:1"
       transform="translate(0,-0.084)"
       id="g29"><path
         style="display:inline;fill:#ffffff;fill-opacity:1;stroke-width:1"
         d="m 109.44,36.636 c 0,-0.09 0.128,-0.415 0.286,-0.72 0.157,-0.306 0.472,-0.988 0.7,-1.516 0.403,-0.93 0.42,-0.936 0.542,-0.203 0.07,0.416 -0.03,0.913 -0.22,1.104 -0.192,0.19 -0.348,0.606 -0.348,0.923 0,0.317 -0.216,0.576 -0.48,0.576 -0.264,0 -0.48,-0.074 -0.48,-0.164 z"
         id="path22" /><path
         style="display:inline;fill:#ffffff;fill-opacity:1;stroke-width:1"
         d="m 149.81,42.247 c -1.675,-1.082 -2.46,-1.927 -1.792,-1.927 0.394,0 3.982,2.606 3.982,2.892 0,0.445 -0.03,0.432 -2.19,-0.965 z"
         id="path23" /><path
         style="display:inline;fill:#ffffff;fill-opacity:1;stroke-width:1"
         d="m 146.972,43.427 a 343.254,343.254 0 0 1 -5.406,-4.02 c -1.703,-1.294 -3.832,-2.83 -4.731,-3.412 -0.9,-0.582 -2.571,-2.024 -3.715,-3.203 -1.144,-1.18 -2.855,-2.668 -3.803,-3.308 l -2.721,-1.839 c -0.55,-0.371 -1.845,-1.638 -2.879,-2.816 -1.288,-1.468 -2.477,-2.443 -3.779,-3.1 -2.167,-1.094 -2.437,-1.977 -0.655,-2.15 1.224,-0.118 1.263,-0.257 0.346,-1.233 -0.533,-0.567 -0.623,-0.89 -0.393,-1.404 l 0.298,-0.669 0.847,0.666 c 0.466,0.367 1.264,0.75 1.774,0.852 0.869,0.174 1.032,0.025 2.595,-2.354 1.027,-1.565 1.592,-2.736 1.472,-3.049 -0.108,-0.28 -0.868,-0.86 -1.689,-1.29 -1.243,-0.65 -1.735,-0.74 -2.933,-0.542 -2.057,0.34 -2.392,0.54 -2.979,1.771 -0.352,0.738 -0.68,1.04 -1,0.917 -0.328,-0.126 -0.54,0.098 -0.687,0.727 -0.116,0.5 -0.652,1.61 -1.19,2.465 -0.619,0.986 -1.254,2.744 -1.734,4.8 -0.417,1.784 -0.896,3.82 -1.066,4.524 -0.17,0.704 -0.458,2.216 -0.64,3.36 -0.425,2.673 -0.88,3.82 -1.269,3.193 -0.361,-0.585 -0.321,-0.643 -1.878,2.705 -1.022,2.196 -1.417,2.77 -1.707,2.48 -0.513,-0.513 -0.89,-0.476 -0.89,0.087 0,1.208 -1.317,2.805 -1.863,2.259 -0.42,-0.42 0.039,-3.576 0.717,-4.93 0.406,-0.81 0.841,-2.036 0.966,-2.723 0.125,-0.688 0.649,-2.142 1.164,-3.231 0.515,-1.09 0.934,-2.328 0.932,-2.751 -0.004,-0.802 1.349,-5.21 3.036,-9.889 a 22.84,22.84 0 0 0 0.615,-2.013 l 0.212,-0.893 -0.954,0.493 c -1.07,0.553 -2.905,0.663 -2.905,0.173 0,-0.176 -0.206,-0.32 -0.458,-0.32 -0.747,0 -2.714,-1.4 -2.728,-1.941 -0.007,-0.276 0.454,-0.93 1.026,-1.454 0.572,-0.524 1.184,-1.183 1.36,-1.464 0.49,-0.784 8.98,-4.018 11.2,-4.268 1.056,-0.119 2.296,-0.437 2.756,-0.708 0.723,-0.425 1.2,-0.438 3.514,-0.1 3.002,0.439 3.4,0.605 5.345,2.228 1.954,1.63 2.625,2.913 2.625,5.018 0,3.003 -1.661,5.371 -5.693,8.117 l -1.626,1.108 1.18,1.14 c 0.648,0.626 1.957,2.051 2.909,3.166 0.95,1.115 2.167,2.294 2.703,2.62 1.013,0.616 4.066,3.129 7.192,5.918 0.998,0.891 2.94,2.538 4.316,3.66 2.274,1.855 3.35,3.055 3.03,3.376 -0.19,0.19 -3.783,-2.227 -5.371,-3.613 a 36.112,36.112 0 0 0 -2.88,-2.233 c -0.792,-0.537 -1.728,-1.296 -2.08,-1.687 -0.352,-0.392 -1.302,-1.048 -2.11,-1.458 -0.809,-0.41 -1.718,-1.123 -2.02,-1.584 -0.302,-0.46 -1.08,-1.323 -1.73,-1.916 a 220.502,220.502 0 0 1 -2.716,-2.542 c -0.845,-0.804 -1.752,-1.463 -2.016,-1.463 -0.263,0 -1.372,-0.58 -2.464,-1.29 -1.899,-1.236 -1.935,-1.246 -0.846,-0.24 0.626,0.577 2.482,2.202 4.124,3.61 1.642,1.408 3.722,3.257 4.622,4.11 0.9,0.852 2.284,1.983 3.076,2.513 0.792,0.53 2.483,1.921 3.759,3.09 l 4.8,4.4 c 1.364,1.25 3.381,2.875 4.481,3.611 1.1,0.737 2,1.406 2,1.488 0,0.362 -0.632,0.012 -2.788,-1.545 z"
         id="path24" /><path
         style="display:inline;fill:#ffffff;fill-opacity:1;stroke-width:1"
         d="m 155.42,45.78 c -2.132,-1.186 -3.164,-1.94 -2.653,-1.94 0.506,0 5.313,2.638 5.313,2.916 0,0.441 -0.321,0.323 -2.66,-0.977 z"
         id="path25" /><path
         style="display:inline;fill:#ffffff;fill-opacity:1;stroke-width:1"
         d="m 152.235,46.828 c -0.659,-0.469 -1.136,-0.913 -1.061,-0.988 0.143,-0.144 3.066,1.487 3.066,1.71 0,0.373 -0.945,0.032 -2.005,-0.722 z"
         id="path26" /><path
         style="display:inline;fill:#ffffff;fill-opacity:1;stroke-width:1"
         d="m 148.471,47.273 c -1.315,-0.928 -3.097,-2.188 -3.96,-2.8 a 60.465,60.465 0 0 1 -3.36,-2.63 c -0.985,-0.835 -1.927,-1.519 -2.094,-1.52 -0.166,-0.002 -0.67,-0.345 -1.12,-0.764 -0.45,-0.418 -2.462,-1.87 -4.473,-3.226 A 79.332,79.332 0 0 1 121.248,26.161 c -2.05,-2.086 -2.962,-2.801 -3.577,-2.801 -0.993,0 -1.831,-0.762 -1.831,-1.664 0,-0.593 0.131,-0.637 1.343,-0.443 1.717,0.275 3.82,1.873 6.549,4.979 1.164,1.324 2.349,2.552 2.633,2.728 0.671,0.417 3.43,2.945 4.488,4.113 0.455,0.503 1.475,1.244 2.267,1.648 1.624,0.828 4.12,2.706 5.582,4.198 1.659,1.695 4.698,4.086 7.378,5.803 2.13,1.366 5.476,4.238 4.936,4.238 -0.084,0 -1.23,-0.76 -2.545,-1.687 z"
         id="path27" /><path
         style="display:inline;fill:#ffffff;fill-opacity:1;stroke-width:1"
         d="m 152.48,50.24 c -0.109,-0.176 -0.054,-0.32 0.122,-0.32 0.176,0 0.41,0.144 0.518,0.32 0.109,0.176 0.054,0.32 -0.122,0.32 -0.176,0 -0.41,-0.144 -0.518,-0.32 z"
         id="path28" /><path
         style="display:inline;fill:#ffffff;fill-opacity:1;stroke-width:1"
         d="m 149.92,51.802 c -2.388,-1.772 -7.033,-4.912 -11.52,-7.79 -2.9,-1.86 -8.142,-5.94 -8.506,-6.62 -0.177,-0.331 -0.943,-0.894 -1.703,-1.25 -1.394,-0.656 -8.193,-7.28 -8.603,-8.382 -0.114,-0.308 -0.413,-0.56 -0.664,-0.56 -0.251,0 -1.143,-0.648 -1.981,-1.44 -1.313,-1.24 -1.426,-1.44 -0.817,-1.44 0.389,0 1.24,0.276 1.89,0.613 0.651,0.338 1.587,0.77 2.08,0.961 0.576,0.223 1.073,0.777 1.388,1.547 0.542,1.326 5.536,6.383 7.716,7.813 0.748,0.49 1.36,1.094 1.36,1.34 0,0.246 0.792,0.994 1.76,1.66 0.968,0.667 1.76,1.34 1.76,1.496 0,0.155 0.522,0.5 1.16,0.767 0.638,0.267 2.27,1.376 3.626,2.464 1.357,1.088 3.3,2.555 4.32,3.259 1.018,0.704 2.878,2.079 4.133,3.055 1.255,0.976 2.958,2.238 3.785,2.804 1.467,1.005 2.155,1.69 1.635,1.631 -0.143,-0.016 -1.411,-0.884 -2.819,-1.928 z"
         id="path29" /></g><path
       style="display:inline;opacity:0.470696;fill:#ffffff;fill-opacity:1;stroke-width:1"
       d="m 149.92,51.802 c -2.388,-1.772 -7.033,-4.912 -11.52,-7.79 -2.9,-1.86 -8.142,-5.94 -8.506,-6.62 -0.177,-0.331 -0.943,-0.894 -1.703,-1.25 -1.394,-0.656 -8.193,-7.28 -8.603,-8.382 -0.114,-0.308 -0.413,-0.56 -0.664,-0.56 -0.251,0 -1.143,-0.648 -1.981,-1.44 -1.313,-1.24 -1.426,-1.44 -0.817,-1.44 0.389,0 1.24,0.276 1.89,0.613 0.651,0.338 1.587,0.77 2.08,0.961 0.576,0.223 1.073,0.777 1.388,1.547 0.542,1.326 5.536,6.383 7.716,7.813 0.748,0.49 1.36,1.094 1.36,1.34 0,0.246 0.792,0.994 1.76,1.66 0.968,0.667 1.76,1.34 1.76,1.496 0,0.155 0.522,0.5 1.16,0.767 0.638,0.267 2.27,1.376 3.626,2.464 1.357,1.088 3.3,2.555 4.32,3.259 1.018,0.704 2.878,2.079 4.133,3.055 1.255,0.976 2.958,2.238 3.785,2.804 1.467,1.005 2.155,1.69 1.635,1.631 -0.143,-0.016 -1.411,-0.884 -2.819,-1.928 z m 2.56,-1.562 c -0.109,-0.176 -0.054,-0.32 0.122,-0.32 0.176,0 0.41,0.144 0.518,0.32 0.109,0.176 0.054,0.32 -0.122,0.32 -0.176,0 -0.41,-0.144 -0.518,-0.32 z m -4.009,-2.967 c -1.315,-0.928 -3.097,-2.188 -3.96,-2.8 a 60.465,60.465 0 0 1 -3.36,-2.63 c -0.985,-0.835 -1.927,-1.519 -2.094,-1.52 -0.166,-0.002 -0.67,-0.345 -1.12,-0.764 -0.45,-0.418 -2.462,-1.87 -4.473,-3.226 A 79.332,79.332 0 0 1 121.248,26.161 c -2.05,-2.086 -2.962,-2.801 -3.577,-2.801 -0.993,0 -1.831,-0.762 -1.831,-1.664 0,-0.593 0.131,-0.637 1.343,-0.443 1.717,0.275 3.82,1.873 6.549,4.979 1.164,1.324 2.349,2.552 2.633,2.728 0.671,0.417 3.43,2.945 4.488,4.113 0.455,0.503 1.475,1.244 2.267,1.648 1.624,0.828 4.12,2.706 5.582,4.198 1.659,1.695 4.698,4.086 7.378,5.803 2.13,1.366 5.476,4.238 4.936,4.238 -0.084,0 -1.23,-0.76 -2.545,-1.687 z m 3.764,-0.445 c -0.659,-0.469 -1.136,-0.913 -1.061,-0.988 0.143,-0.144 3.066,1.487 3.066,1.71 0,0.373 -0.945,0.032 -2.005,-0.722 z m 3.185,-1.049 c -2.132,-1.185 -3.164,-1.939 -2.653,-1.939 0.506,0 5.313,2.638 5.313,2.916 0,0.441 -0.321,0.323 -2.66,-0.977 z m -8.448,-2.352 a 343.254,343.254 0 0 1 -5.406,-4.02 c -1.703,-1.294 -3.832,-2.83 -4.731,-3.412 -0.9,-0.582 -2.571,-2.024 -3.715,-3.203 -1.144,-1.18 -2.855,-2.668 -3.803,-3.308 l -2.721,-1.839 c -0.55,-0.371 -1.845,-1.638 -2.879,-2.816 -1.288,-1.468 -2.477,-2.443 -3.779,-3.1 -2.167,-1.094 -2.437,-1.977 -0.655,-2.15 1.224,-0.118 1.263,-0.257 0.346,-1.233 -0.533,-0.567 -0.623,-0.89 -0.393,-1.404 l 0.298,-0.669 0.847,0.666 c 0.466,0.367 1.264,0.75 1.774,0.852 0.869,0.174 1.032,0.025 2.595,-2.354 1.027,-1.565 1.592,-2.736 1.472,-3.049 -0.108,-0.28 -0.868,-0.86 -1.689,-1.29 -1.243,-0.65 -1.735,-0.74 -2.933,-0.542 -2.057,0.34 -2.392,0.54 -2.979,1.771 -0.352,0.738 -0.68,1.04 -1,0.917 -0.328,-0.126 -0.54,0.098 -0.687,0.727 -0.116,0.5 -0.652,1.61 -1.19,2.465 -0.619,0.986 -1.254,2.744 -1.734,4.8 -0.417,1.784 -0.896,3.82 -1.066,4.524 -0.17,0.704 -0.458,2.216 -0.64,3.36 -0.425,2.673 -0.88,3.82 -1.269,3.193 -0.361,-0.585 -0.321,-0.643 -1.878,2.705 -1.022,2.196 -1.417,2.77 -1.707,2.48 -0.513,-0.513 -0.89,-0.476 -0.89,0.087 0,1.208 -1.317,2.805 -1.863,2.259 -0.42,-0.42 0.039,-3.576 0.717,-4.93 0.406,-0.81 0.841,-2.036 0.966,-2.723 0.125,-0.688 0.649,-2.142 1.164,-3.231 0.515,-1.09 0.934,-2.328 0.932,-2.751 -0.004,-0.802 1.349,-5.21 3.036,-9.889 a 22.84,22.84 0 0 0 0.615,-2.013 l 0.212,-0.893 -0.954,0.493 c -1.07,0.553 -2.905,0.663 -2.905,0.173 0,-0.176 -0.206,-0.32 -0.458,-0.32 -0.747,0 -2.714,-1.4 -2.728,-1.941 -0.007,-0.276 0.454,-0.93 1.026,-1.454 0.572,-0.524 1.184,-1.183 1.36,-1.464 0.49,-0.784 8.98,-4.018 11.2,-4.268 1.056,-0.119 2.296,-0.437 2.756,-0.708 0.723,-0.425 1.2,-0.438 3.514,-0.1 3.002,0.439 3.4,0.605 5.345,2.228 1.954,1.63 2.625,2.913 2.625,5.018 0,3.003 -1.661,5.371 -5.693,8.117 l -1.626,1.108 1.18,1.14 c 0.648,0.626 1.957,2.051 2.909,3.166 0.95,1.115 2.167,2.294 2.703,2.62 1.013,0.616 4.066,3.129 7.192,5.918 0.998,0.891 2.94,2.538 4.316,3.66 2.274,1.855 3.35,3.055 3.03,3.376 -0.19,0.19 -3.783,-2.227 -5.371,-3.613 a 36.112,36.112 0 0 0 -2.88,-2.233 c -0.792,-0.537 -1.728,-1.296 -2.08,-1.687 -0.352,-0.392 -1.302,-1.048 -2.11,-1.458 -0.809,-0.41 -1.718,-1.123 -2.02,-1.584 -0.302,-0.46 -1.08,-1.323 -1.73,-1.916 a 220.502,220.502 0 0 1 -2.716,-2.542 c -0.845,-0.804 -1.752,-1.463 -2.016,-1.463 -0.263,0 -1.372,-0.58 -2.464,-1.29 -1.899,-1.236 -1.935,-1.246 -0.846,-0.24 0.626,0.577 2.482,2.202 4.124,3.61 1.642,1.408 3.722,3.257 4.622,4.11 0.9,0.852 2.284,1.983 3.076,2.513 0.792,0.53 2.483,1.921 3.759,3.09 l 4.8,4.4 c 1.364,1.25 3.381,2.875 4.481,3.611 1.1,0.737 2,1.406 2,1.488 0,0.362 -0.632,0.012 -2.788,-1.545 z m 2.838,-1.18 c -1.675,-1.082 -2.46,-1.927 -1.792,-1.927 0.394,0 3.982,2.606 3.982,2.892 0,0.445 -0.03,0.432 -2.19,-0.965 z m -40.37,-5.611 c 0,-0.09 0.128,-0.415 0.286,-0.72 0.157,-0.306 0.472,-0.988 0.7,-1.516 0.403,-0.93 0.42,-0.936 0.542,-0.203 0.07,0.416 -0.03,0.913 -0.22,1.104 -0.192,0.19 -0.348,0.606 -0.348,0.923 0,0.317 -0.216,0.576 -0.48,0.576 -0.264,0 -0.48,-0.074 -0.48,-0.164 z M 7.196,39.764 C 4.278,38.719 0,35.654 0,34.609 0,33.947 1.15,34.22 1.944,35.07 c 1.403,1.502 3.456,2.493 5.112,2.468 4.383,-0.066 9.031,-4.89 12.017,-12.469 1.639,-4.16 4.32,-14.902 3.84,-15.383 -0.073,-0.073 -1.695,0.085 -3.603,0.35 -7.097,0.99 -6.946,0.99 -8.716,-0.028 -0.069,-0.04 0.06,-0.296 0.287,-0.57 0.346,-0.416 0.29,-0.627 -0.341,-1.3 L 9.785,7.335 10.493,7.15 c 0.766,-0.2 0.935,-0.62 0.33,-0.823 -0.211,-0.07 -0.286,-0.364 -0.17,-0.666 0.169,-0.442 0.65,-0.541 2.63,-0.541 1.333,0 3.462,-0.212 4.73,-0.47 1.27,-0.259 4.895,-0.847 8.057,-1.308 3.163,-0.461 6.115,-1.021 6.56,-1.245 1.361,-0.683 12.017,-2.357 12.423,-1.95 0.41,0.409 -1.152,1.113 -2.493,1.125 -1.72,0.014 -3.84,0.557 -3.84,0.983 0,0.168 0.288,0.305 0.64,0.305 0.352,0 0.64,0.07 0.64,0.157 0,0.364 -2.054,2.083 -2.49,2.083 -0.26,0 -0.923,0.274 -1.472,0.61 -0.549,0.334 -1.618,0.791 -2.377,1.015 -0.758,0.224 -1.513,0.659 -1.677,0.965 -0.164,0.307 -0.722,0.65 -1.24,0.765 -0.517,0.113 -1.079,0.377 -1.249,0.586 -0.17,0.208 -0.776,2.323 -1.347,4.699 -2.725,11.345 -7.42,21.222 -11.6,24.405 -3.013,2.294 -6.377,2.984 -9.352,1.919 z M 75.885,3.83 c -0.528,-0.033 -1.132,0.225 -1.687,0.78 -0.978,0.977 -2.896,4.623 -3.635,6.91 -0.313,0.968 -0.824,2.264 -1.136,2.88 -0.687,1.359 -2.68,6.711 -3.158,8.48 -0.19,0.704 -0.341,2.576 -0.336,4.16 0.01,3.4 0.41,4.119 2.48,4.469 1.146,0.193 1.573,0.085 3.021,-0.765 0.928,-0.545 1.93,-1.313 2.229,-1.707 a 67.99,67.99 0 0 1 1.319,-1.66 l 0.775,-0.944 0.047,2.297 c 0.026,1.263 0.184,2.655 0.35,3.094 0.365,0.958 1.66,1.36 2.764,0.856 0.436,-0.198 0.927,-0.36 1.093,-0.36 0.374,0 -1.038,3.251 -2.138,4.922 -0.684,1.04 -0.76,1.367 -0.467,2.012 0.295,0.647 0.454,0.715 0.993,0.426 0.353,-0.188 0.641,-0.497 0.641,-0.686 0,-0.188 0.205,-0.264 0.457,-0.168 0.25,0.097 0.63,-0.033 0.843,-0.29 0.212,-0.255 0.614,-0.427 0.893,-0.38 0.302,0.05 0.963,-0.573 1.637,-1.544 a 99.798,99.798 0 0 1 2.465,-3.36 c 0.734,-0.953 2.232,-3.46 3.329,-5.572 2.124,-4.09 2.98,-5.28 3.797,-5.28 0.28,0 1.056,-0.37 1.722,-0.824 1.41,-0.957 3.7,-2.039 4.34,-2.049 0.346,-0.005 0.398,0.329 0.235,1.513 -0.226,1.642 0.413,7.76 0.81,7.76 0.134,0 0.328,0.54 0.432,1.2 0.105,0.66 0.395,1.887 0.646,2.727 0.25,0.84 0.375,1.928 0.277,2.418 -0.119,0.596 -0.01,1.03 0.329,1.312 0.28,0.232 0.508,0.61 0.508,0.843 0,0.232 0.168,0.527 0.374,0.654 0.25,0.155 0.308,0.057 0.174,-0.294 -0.111,-0.288 -0.05,-1.715 0.134,-3.172 0.185,-1.456 0.452,-4.808 0.595,-7.448 0.559,-10.333 1.345,-17.951 1.974,-19.132 0.508,-0.955 0.016,-1.786 -1.192,-2.013 -0.607,-0.114 -1.46,-0.486 -1.893,-0.827 -1.053,-0.829 -2.086,-0.333 -2.086,1.001 0,0.703 -0.33,1.198 -1.36,2.043 -0.748,0.614 -1.792,1.716 -2.32,2.45 -0.528,0.734 -1.794,2.294 -2.814,3.466 -1.02,1.172 -2.353,3.02 -2.961,4.106 -0.787,1.403 -1.67,2.396 -3.057,3.44 -1.073,0.806 -2.169,1.466 -2.435,1.466 -0.352,0 -0.43,0.211 -0.286,0.78 0.107,0.43 0.05,0.87 -0.126,0.98 -0.646,0.398 -0.3,0.807 0.51,0.604 0.797,-0.2 0.769,-0.116 -0.697,2.088 -1.178,1.773 -1.68,2.276 -2.191,2.202 -0.85,-0.121 -1.006,-1.17 -0.508,-3.396 0.406,-1.813 0.571,-2.225 3.684,-9.178 1.103,-2.464 2.111,-4.84 2.241,-5.28 0.13,-0.44 0.458,-1.053 0.73,-1.363 0.392,-0.445 0.42,-0.713 0.136,-1.28 A 5.484,5.484 0 0 1 87.933,7.68 C 87.865,7.096 87.624,6.855 87.04,6.787 A 5.564,5.564 0 0 1 85.499,6.322 C 84.436,5.788 83.974,6.204 82.573,8.96 c -2.075,4.081 -2.621,5.386 -3.048,7.285 -0.816,3.626 -2.19,6.249 -4.472,8.53 -2.509,2.51 -4.52,4.025 -5.34,4.025 -0.904,0 -0.762,-1.799 0.367,-4.64 0.528,-1.33 0.96,-2.567 0.96,-2.75 0,-0.183 0.36,-0.804 0.8,-1.381 0.44,-0.577 0.8,-1.342 0.8,-1.7 0,-0.358 0.236,-0.846 0.524,-1.085 0.288,-0.24 0.78,-1.033 1.094,-1.764 0.313,-0.731 0.725,-1.426 0.915,-1.543 0.19,-0.118 0.347,-0.565 0.347,-0.993 0,-0.429 0.648,-1.82 1.44,-3.093 1.527,-2.455 1.711,-3.147 0.994,-3.742 -0.245,-0.204 -0.622,-0.797 -0.839,-1.32 -0.25,-0.604 -0.702,-0.927 -1.23,-0.96 z m 22.713,7.95 c 0.232,-0.018 0.312,0.215 0.147,0.78 -0.115,0.396 -0.297,1.2 -0.403,1.785 -0.135,0.74 -0.436,1.158 -0.985,1.367 -0.436,0.165 -1.155,0.586 -1.598,0.934 -1.238,0.974 -1.437,0.763 -0.687,-0.726 1.071,-2.126 2.884,-4.09 3.526,-4.14 z M 44.502,5.203 c -0.845,-0.04 -3.011,0.611 -3.641,1.153 -0.42,0.362 -0.643,0.397 -0.809,0.128 -0.126,-0.203 -0.37,-0.27 -0.544,-0.147 -0.445,0.316 -2.584,3.915 -2.86,4.811 -0.126,0.412 -0.845,1.636 -1.598,2.72 -0.752,1.085 -2.078,3.34 -2.946,5.012 -1.3,2.5 -1.79,3.144 -2.762,3.626 -1.316,0.653 -1.508,1.149 -0.542,1.401 0.352,0.092 0.64,0.299 0.64,0.459 0,0.391 -1.965,4.272 -3.92,7.743 -1.444,2.562 -2.484,5.352 -2.466,6.611 0.005,0.336 0.196,0.254 0.636,-0.276 0.346,-0.415 0.63,-0.955 0.63,-1.2 0,-0.244 0.16,-0.444 0.354,-0.444 0.195,0 0.272,0.216 0.17,0.48 -0.404,1.054 0.314,0.381 0.863,-0.808 0.683,-1.482 1.167,-1.642 1.186,-0.392 l 0.013,0.88 0.5,-0.96 a 27.98,27.98 0 0 1 1.245,-2.08 c 0.41,-0.616 1.485,-2.992 2.39,-5.28 0.904,-2.288 1.886,-4.396 2.181,-4.685 0.296,-0.288 1.834,-0.99 3.418,-1.56 1.584,-0.57 3.058,-1.179 3.276,-1.352 0.568,-0.452 0.68,0.056 0.862,3.917 0.326,6.939 0.65,8.706 1.305,7.12 0.176,-0.428 0.366,-0.182 0.804,1.04 l 0.574,1.6 0.23,-1.047 c 0.268,-1.212 0.71,-1.613 0.985,-0.893 0.587,1.529 0.764,-0.297 0.765,-7.9 0,-4.62 0.153,-10.397 0.338,-12.836 C 46.072,8.168 46.051,7.538 45.617,7.059 45.344,6.756 45.12,6.277 45.12,5.994 45.12,5.71 44.965,5.381 44.775,5.264 A 0.596,0.596 0 0 0 44.502,5.204 Z M 40.293,12 l 0.014,2.932 0.013,2.933 -2.268,1.308 c -2.088,1.203 -2.852,1.518 -2.852,1.175 0,-0.531 3.223,-6.233 4.055,-7.174 z M 54.24,32.64 c -0.109,-0.176 -0.472,-0.32 -0.807,-0.32 -0.335,0 -1.527,-0.858 -2.649,-1.907 -2.344,-2.194 -2.963,-3.626 -3.297,-7.631 -0.388,-4.658 1.366,-9.094 5.213,-13.184 2.173,-2.31 2.455,-2.499 4.739,-3.177 2.276,-0.676 2.495,-0.69 3.496,-0.214 0.587,0.278 1.304,0.867 1.593,1.31 0.29,0.441 0.742,0.803 1.005,0.803 0.36,0 0.427,0.218 0.269,0.88 -0.31,1.296 -0.382,1.36 -1.545,1.36 -1.816,0 -5.929,2.27 -7.778,4.294 -3.72,4.072 -4.559,8.597 -2.231,12.051 1.646,2.444 5.626,3.964 7.74,2.957 l 0.972,-0.464 0.056,-3.1 c 0.03,-1.703 0.103,-3.528 0.16,-4.053 0.101,-0.93 0.073,-0.952 -1.166,-0.85 -0.698,0.059 -2.102,0.526 -3.12,1.04 -1.017,0.514 -1.85,0.788 -1.85,0.61 0,-0.179 0.132,-0.325 0.294,-0.325 0.162,0 0.6,-0.497 0.976,-1.104 0.812,-1.314 2.165,-2.201 4.675,-3.065 1.018,-0.35 2.1,-0.863 2.406,-1.14 0.432,-0.39 0.701,-0.424 1.21,-0.152 0.359,0.192 0.839,0.312 1.066,0.265 0.587,-0.12 0.387,1.791 -0.594,5.676 -0.643,2.546 -0.781,3.756 -0.677,5.92 0.072,1.496 0.244,2.972 0.382,3.28 0.437,0.976 -0.375,0.622 -1.674,-0.73 l -1.24,-1.29 -1.412,1.29 c -1.375,1.256 -1.472,1.29 -3.713,1.29 -1.266,0 -2.39,-0.144 -2.499,-0.32 z"
       transform="translate(0,-0.084)"
       id="path30" /></g></svg>
