<?xml version="1.0" encoding="UTF-8" standalone="no"?>
<!-- Created with Inkscape (http://www.inkscape.org/) -->

<svg
   width="215mm"
   height="135mm"
   viewBox="0 0 215 135"
   version="1.1"
   id="svg1"
   inkscape:version="1.4.2 (f4327f4, 2025-05-13)"
   sodipodi:docname="c64.svg"
   xmlns:inkscape="http://www.inkscape.org/namespaces/inkscape"
   xmlns:sodipodi="http://sodipodi.sourceforge.net/DTD/sodipodi-0.dtd"
   xmlns="http://www.w3.org/2000/svg"
   xmlns:svg="http://www.w3.org/2000/svg">
  <sodipodi:namedview
     id="namedview1"
     pagecolor="#ffffff"
     bordercolor="#000000"
     borderopacity="0.25"
     inkscape:showpageshadow="2"
     inkscape:pageopacity="0.0"
     inkscape:pagecheckerboard="0"
     inkscape:deskcolor="#d1d1d1"
     inkscape:document-units="mm"
     inkscape:zoom="0.73851712"
     inkscape:cx="396.74097"
     inkscape:cy="561.25984"
     inkscape:window-width="1920"
     inkscape:window-height="1009"
     inkscape:window-x="-8"
     inkscape:window-y="-8"
     inkscape:window-maximized="1"
     inkscape:current-layer="layer1" />
  <defs
     id="defs1" />
  <g
     inkscape:label="Camada 1"
     inkscape:groupmode="layer"
     id="layer1">
    <path
       d="m 201.43452,3.2264018 c 3.49727,0 6.35975,2.89326 6.35975,6.432279 V 125.11894 c 0,3.53724 -2.86248,6.43235 -6.35975,6.43235 H 176.74832 37.86258 13.176425 c -3.4973157,0 -6.3597397,-2.89326 -6.3597397,-6.43235 V 9.6586808 c 0,-3.537236 2.862424,-6.432279 6.3597397,-6.432279 h 6.381506 87.773849 -0.0549 87.77383 z M 84.087708,123.58981 v -3.49186 c 0,-1.32784 -1.086592,-2.41438 -2.414366,-2.41438 h -4.44057 c -1.32786,0 -2.414383,1.08654 -2.414383,2.41438 v 3.49186 c 0,1.32784 1.086523,2.41436 2.414383,2.41436 h 4.44057 c 1.327774,0.002 2.414366,-1.08652 2.414366,-2.41436 z m 48.851702,2.41622 h 4.44057 c 1.32786,0 2.41438,-1.08659 2.41438,-2.41445 v -3.49184 c 0,-1.32779 -1.08652,-2.41439 -2.41438,-2.41439 h -4.44057 c -1.32777,0 -2.41436,1.0866 -2.41436,2.41439 v 3.49184 c 0,1.32607 1.08659,2.41445 2.41436,2.41445 z m 17.76593,-1.01406 c 0,2.85699 2.3164,5.17524 5.17339,5.17524 2.85699,0 5.17526,-2.3164 5.17526,-5.17524 0,-2.85877 -2.31641,-5.17518 -5.17526,-5.17518 -2.85699,0 -5.17339,2.31818 -5.17339,5.17518 z m -91.971348,-5.17518 c -2.856975,0 -5.175229,2.31641 -5.175229,5.17518 0,2.85884 2.316431,5.17524 5.175229,5.17524 2.858798,0 5.173405,-2.3164 5.173405,-5.17524 0,-2.85877 -2.316413,-5.17518 -5.173405,-5.17518 z M 74.880026,60.866757 c 0,-6.064059 -4.915812,-10.979871 -10.979871,-10.979871 -6.064059,0 -10.979888,4.915812 -10.979888,10.979871 0,6.064042 4.915829,10.979871 10.979888,10.979871 6.064059,0 10.979871,-4.915829 10.979871,-10.979871 z m 87.282284,0.187166 c 0,-6.064059 -4.91583,-10.979871 -10.97987,-10.979871 -6.06413,0 -10.97994,4.915812 -10.97994,10.979871 0,6.064041 4.91581,10.97987 10.97994,10.97987 6.06404,0 10.97987,-4.917618 10.97987,-10.97987 z"
       fill="#515151"
       id="path934"
       style="stroke-width:1.81396" />
    <circle
       cx="14.101531"
       cy="110.63274"
       fill="#212121"
       r="2.0697269"
       id="circle934"
       style="stroke-width:1.81396" />
    <circle
       cx="200.51122"
       cy="110.63274"
       fill="#212121"
       r="2.0697269"
       id="circle935"
       style="stroke-width:1.81396" />
    <path
       d="M 107.6202,39.627087 H 19.88807 c 7.834492,-16.354631 24.542866,-27.650149 43.890548,-27.650149 19.307789,0 35.987105,11.348101 43.841582,27.650149"
       fill="#341d0e"
       id="path935"
       style="stroke-width:1.81396" />
    <path
       d="M 107.90501,81.609374 H 19.775605 c 7.86896,16.265762 24.722439,27.644726 44.003013,27.644726 19.311419,0 36.273752,-11.337274 44.126392,-27.644726"
       fill="#341d0e"
       id="path936"
       style="stroke-width:1.81396" />
    <path
       d="M 21.145141,4.1061518 H 31.234375"
       fill="none"
       stroke="#404040"
       stroke-miterlimit="10"
       stroke-width="1.29353"
       id="path937" />
    <path
       d="M 39.93413,10.801492 H 32.948574 V 4.1080028 h 7.794582 v 5.886276 c -0.0017,0.4428912 -0.364594,0.8072132 -0.809026,0.8072132 z"
       fill="none"
       stroke="#404040"
       stroke-miterlimit="10"
       stroke-width="1.29353"
       id="path938" />
    <path
       d="M 6.8184968,122.2529 V 85.645434 L 3.843608,88.620286 v 30.657764 z"
       fill="#545454"
       stroke="#404040"
       stroke-miterlimit="10"
       stroke-width="1.29353"
       id="path939" />
    <circle
       cx="107.4586"
       cy="19.499361"
       fill="#414141"
       r="2.0697269"
       id="circle939"
       style="stroke-width:1.81396" />
    <path
       d="M 193.46761,4.1061518 H 183.3784"
       fill="none"
       stroke="#404040"
       stroke-miterlimit="10"
       stroke-width="1.29353"
       id="path940" />
    <path
       d="m 174.67859,10.801492 h 6.98556 V 4.1080028 h -7.79455 v 5.886276 c 0.002,0.4428912 0.36473,0.8072132 0.80899,0.8072132 z"
       fill="none"
       stroke="#404040"
       stroke-miterlimit="10"
       stroke-width="1.29353"
       id="path941" />
    <path
       d="M 207.79427,122.2529 V 85.645434 l 2.97483,2.974852 v 30.657764 z"
       fill="#545454"
       stroke="#404040"
       stroke-miterlimit="10"
       stroke-width="1.29353"
       id="path942" />
    <circle
       cx="26.285952"
       cy="119.81681"
       fill="#939393"
       r="8.0195112"
       id="circle942"
       style="stroke-width:1.81396" />
    <circle
       cx="26.285952"
       cy="119.81681"
       fill="#232323"
       r="1.616237"
       id="circle943"
       style="stroke-width:1.81396" />
    <path
       d="m 29.309771,119.81679 v 0.87248 l 2.586702,1.45482 c 0.455304,0 0.825352,-0.69476 0.825352,-1.55278 v -0.77638 -0.77636 c 0,-0.85802 -0.370082,-1.55271 -0.825352,-1.55271 l -2.586702,1.45474 z"
       fill="#717171"
       id="path943"
       style="stroke-width:1.81396" />
    <path
       d="m 27.731628,117.17562 0.756421,0.43741 2.554052,-1.51284 c 0.228572,-0.39353 -0.18868,-1.06121 -0.93237,-1.49108 l -0.672987,-0.38804 -0.67297,-0.38806 c -0.741902,-0.42779 -1.529166,-0.45728 -1.755915,-0.0618 l -0.03286,2.96764 z"
       fill="#717171"
       id="path944"
       style="stroke-width:1.81396" />
    <path
       d="m 23.381751,119.77504 v 0.87255 l -2.586699,1.45475 c -0.455301,0 -0.825355,-0.69471 -0.825355,-1.55272 v -0.77637 -0.77636 c 0,-0.85802 0.36823,-1.55279 0.825355,-1.55279 l 2.586699,1.45482 z"
       fill="#717171"
       id="path945"
       style="stroke-width:1.81396" />
    <path
       d="m 24.927242,117.17562 -0.75642,0.43741 -2.554052,-1.51284 c -0.228572,-0.39353 0.188679,-1.06121 0.932387,-1.49108 l 0.67297,-0.38804 0.67297,-0.38806 c 0.741901,-0.42779 1.529166,-0.45728 1.755915,-0.0618 l 0.03286,2.96764 z"
       fill="#717171"
       id="path946"
       style="stroke-width:1.81396" />
    <path
       d="m 24.958087,122.45967 -0.75642,-0.43741 -2.554052,1.51282 c -0.228573,0.39353 0.188662,1.06117 0.932369,1.4911 l 0.67297,0.38804 0.672987,0.38804 c 0.741902,0.42782 1.529167,0.4573 1.755898,0.0618 l 0.03286,-2.96764 z"
       fill="#717171"
       id="path947"
       style="stroke-width:1.81396" />
    <path
       d="m 27.764279,122.45967 0.75642,-0.43741 2.554052,1.51282 c 0.228573,0.39353 -0.188662,1.06117 -0.932369,1.4911 l -0.67297,0.38804 -0.672988,0.38804 c -0.741901,0.42782 -1.529166,0.4573 -1.755915,0.0618 l -0.03286,-2.96764 z"
       fill="#717171"
       id="path948"
       style="stroke-width:1.81396" />
    <circle
       cx="188.32675"
       cy="119.81681"
       fill="#939393"
       r="8.0195112"
       id="circle948"
       style="stroke-width:1.81396" />
    <circle
       cx="188.32675"
       cy="119.81681"
       fill="#232323"
       r="1.616237"
       id="circle949"
       style="stroke-width:1.81396" />
    <path
       d="m 185.30298,119.81679 v 0.87248 l -2.58673,1.45482 c -0.45524,0 -0.82532,-0.69476 -0.82532,-1.55278 v -0.77638 -0.77636 c 0,-0.85802 0.37022,-1.55271 0.82532,-1.55271 l 2.58673,1.45474 z"
       fill="#717171"
       id="path949"
       style="stroke-width:1.81396" />
    <path
       d="m 186.88114,117.17562 -0.75647,0.43741 -2.55403,-1.51284 c -0.22832,-0.39353 0.18852,-1.06121 0.9324,-1.49108 l 0.67325,-0.38804 0.67324,-0.38806 c 0.74188,-0.42779 1.52915,-0.45728 1.75586,-0.0618 l 0.0342,2.96764 z"
       fill="#717171"
       id="path950"
       style="stroke-width:1.81396" />
    <path
       d="m 191.231,119.77504 v 0.87255 l 2.58667,1.45475 c 0.45524,0 0.82539,-0.69471 0.82539,-1.55272 v -0.77637 -0.77636 c 0,-0.85802 -0.37022,-1.55279 -0.82539,-1.55279 l -2.58667,1.45482 z"
       fill="#717171"
       id="path951"
       style="stroke-width:1.81396" />
    <path
       d="m 189.68548,117.17562 0.75642,0.43741 2.5541,-1.51284 c 0.2283,-0.39353 -0.18854,-1.06121 -0.9324,-1.49108 l -0.67327,-0.38804 -0.67324,-0.38806 c -0.74194,-0.42779 -1.52913,-0.45728 -1.75593,-0.0618 l -0.0342,2.96764 z"
       fill="#717171"
       id="path952"
       style="stroke-width:1.81396" />
    <path
       d="m 189.65463,122.45967 0.75641,-0.43741 2.5541,1.51282 c 0.2283,0.39353 -0.18854,1.06117 -0.93241,1.4911 l -0.67324,0.38804 -0.67325,0.38804 c -0.74188,0.42782 -1.52914,0.4573 -1.75593,0.0618 l -0.0342,-2.96764 z"
       fill="#717171"
       id="path953"
       style="stroke-width:1.81396" />
    <path
       d="m 186.84844,122.45967 -0.75642,-0.43741 -2.55402,1.51282 c -0.22831,0.39353 0.18853,1.06117 0.93234,1.4911 l 0.67324,0.38804 0.67325,0.38804 c 0.74188,0.42782 1.52915,0.4573 1.75586,0.0618 l 0.0342,-2.96764 z"
       fill="#717171"
       id="path954"
       style="stroke-width:1.81396" />
    <path
       d="m 118.13025,20.68394 h 55.11718 v 1.501922 h -55.11718 z"
       fill="#ff0000"
       id="path955"
       style="stroke-width:1.81396" />
    <path
       d="m 118.13025,23.689637 h 55.11718 v 1.501993 h -55.11718 z"
       fill="#fd4120"
       id="path956"
       style="stroke-width:1.81396" />
    <path
       d="m 118.13025,26.695403 h 55.11718 v 1.501924 h -55.11718 z"
       fill="#ffcc00"
       id="path957"
       style="stroke-width:1.81396" />
    <path
       d="m 118.13025,29.69932 h 55.11718 v 1.503773 h -55.11718 z"
       fill="#4dac26"
       id="path958"
       style="stroke-width:1.81396" />
    <path
       d="m 118.13025,32.705025 h 55.11718 v 1.503758 h -55.11718 z"
       fill="#00a0c6"
       id="path959"
       style="stroke-width:1.81396" />
    <path
       d="m 189.42613,29.6322 c 0,1.904639 -1.63987,2.857 -4.91767,2.857 h -1.67792 c -1.84657,0 -3.1291,-0.326352 -3.84377,-0.975946 -0.71651,-0.65131 -1.07383,-1.777668 -1.07383,-3.381196 V 25.97526 c 0,-1.594478 0.35718,-2.715488 1.07383,-3.366731 0.71467,-0.651312 1.9972,-0.97587 3.84377,-0.97587 h 1.67792 c 1.52194,0 2.66652,0.20842 3.43383,0.625945 0.76733,0.416839 1.15188,1.030306 1.15188,1.835668 v 0.772798 h -3.94175 v -0.275607 c 0,-0.252298 -0.0726,-0.417525 -0.21389,-0.494996 -0.1433,-0.0761 -0.42988,-0.11586 -0.85802,-0.11586 h -0.93783 c -0.53338,0 -0.87432,0.04113 -1.02488,0.132323 -0.14881,0.08706 -0.22283,0.295491 -0.22283,0.625945 v 1.485676 c 0.57111,-0.320856 1.28062,-0.480599 2.12596,-0.480599 h 1.38585 c 1.39311,0 2.41074,0.241327 3.05287,0.721994 0.64377,0.480599 0.96689,1.222545 0.96689,2.222069 z m -88.44868,-5.218785 h -1.899234 v 5.565213 h 1.980884 v -2.909577 c 0,-0.758196 0.45317,-1.139177 1.28063,-1.139177 0.82539,0 1.03214,0.252297 1.07205,0.968671 h 1.85754 c 0,-1.897373 -0.24819,-2.613883 -2.22941,-2.613883 -1.19718,0 -1.6108,0.253667 -2.06425,1.180861 z m -77.913141,3.343146 h -3.188937 v 2.67017 h 5.7321 z m 2.543163,-3.219807 h -5.7321 v 2.670168 h 3.152657 z m 84.492378,4.346232 c -1.89921,0 -2.18765,-0.168656 -2.18765,-1.139109 h 5.20248 c -0.0836,-2.697388 -0.0836,-3.330462 -3.59168,-3.330462 -2.97306,0 -3.63335,0.547788 -3.63335,2.95133 0,2.234821 0.86713,2.782607 3.26333,2.826142 2.68287,0 3.96347,-0.126835 3.96347,-1.939124 h -1.94089 c -0.0836,0.420952 -0.2482,0.631429 -1.07571,0.631429 z m -2.22933,-2.318188 c 0.0815,-0.589607 0.24681,-0.801797 1.56725,-0.801797 1.44756,0 1.6525,0.08501 1.736,0.801797 z m -73.81361,0.210477 h 1.980841 c -0.165146,-1.89744 -0.702009,-2.361791 -3.466484,-2.361791 -3.138136,0 -3.840144,0.504595 -3.840144,2.867893 0,2.361793 0.660292,2.909579 3.591634,2.909579 3.096436,0 3.714994,-0.422323 3.714994,-2.403475 H 34.05691 c 0,0.547788 -0.206776,0.801731 -1.734153,0.801731 -1.322373,0 -1.610793,-0.337311 -1.610793,-1.433022 0,-1.05389 0.28842,-1.05389 1.857497,-1.05389 1.157295,-0.0019 1.362282,0.124771 1.487449,0.673249 z m 46.030996,0.335254 c 0,-2.276573 -0.660223,-2.739071 -3.840127,-2.739071 -3.426591,0 -3.838355,0.589607 -3.838355,2.951261 0,2.361791 0.576859,2.867895 3.838355,2.867895 3.468256,0 3.840127,-0.591665 3.840127,-3.080085 z m -5.655925,0.128899 c 0,-1.139177 0.248184,-1.264297 1.692455,-1.264297 1.610793,0 1.89923,0.04113 1.89923,1.264297 0,1.139178 -0.207051,1.349586 -1.734205,1.349586 -1.652475,-0.0017 -1.85748,-0.17072 -1.85748,-1.349586 z m 23.447204,-0.128899 c 0,-2.276573 -0.618397,-2.739071 -3.796599,-2.739071 -3.384823,0 -3.798445,0.545728 -3.798445,2.909577 0,2.403475 0.576584,2.909579 3.798445,2.909579 3.466479,0 3.796599,-0.591665 3.796599,-3.080085 z m -5.61238,0.128899 c 0,-1.139177 0.246808,-1.264297 1.692455,-1.264297 1.610793,0 1.899213,0.04113 1.899213,1.264297 0,1.139178 -0.207034,1.349586 -1.734119,1.349586 -1.650703,-0.0017 -1.857549,-0.17072 -1.857549,-1.349586 z M 44.831811,27.110529 c 0,-2.276573 -0.618541,-2.739071 -3.798428,-2.739071 -3.426573,0 -3.840143,0.545728 -3.840143,2.909577 0,2.403475 0.57863,2.909579 3.840143,2.909579 3.46829,0 3.798428,-0.591665 3.798428,-3.080085 z m -5.574298,0.128899 c 0,-1.139177 0.248528,-1.264297 1.652527,-1.264297 1.608987,0 1.899214,0.04113 1.899214,1.264297 0,1.139178 -0.206777,1.349586 -1.734137,1.349586 -1.61081,-0.0017 -1.817604,-0.17072 -1.817604,-1.349586 z M 86.98098,22.051495 v 3.247026 c -0.453188,-0.6328 -0.867068,-0.968671 -2.517771,-0.968671 -2.642956,0 -3.138153,0.716512 -3.138153,2.909578 0,2.23482 0.701974,2.866044 3.261496,2.866044 1.610793,0 2.10599,-0.420953 2.477861,-1.137326 v 1.012206 h 1.980806 V 22.053346 H 86.98098 Z m -1.443926,3.880101 c 1.113737,0 1.485608,0.168655 1.485608,1.053889 0,1.349586 -0.0836,1.476557 -1.650703,1.476557 -1.569042,0 -1.982664,-0.04113 -1.982664,-1.180861 0.0017,-1.307901 0.497055,-1.349585 2.147759,-1.349585 z M 19.697605,24.355208 v -3.439265 c -0.680242,-0.183053 -1.146423,-0.257781 -1.826653,-0.257781 -3.546292,0 -6.662674,3.038399 -6.662674,6.805994 0,3.87825 3.150846,6.769726 6.698949,6.769726 0.643975,0 1.003121,-0.07466 1.790378,-0.294115 v -3.511802 c -0.789073,0.402442 -1.182699,0.51145 -1.826653,0.51145 -1.969963,0 -3.475546,-1.68333 -3.475546,-3.549919 0,-1.939125 1.469302,-3.586189 3.439264,-3.586189 0.680243,0.0019 1.253446,0.18511 1.862935,0.551217 z m 28.270552,0.05484 H 46.11066 v 5.565215 h 1.980841 v -2.867826 c 0,-0.843483 0.413622,-1.137395 1.52736,-1.137395 1.032128,0 1.322372,0.379132 1.322372,1.433022 v 2.572199 H 52.96379 V 27.024 c 0,-0.801797 0.618541,-1.053958 1.569076,-1.053958 0.908802,0 1.320566,0.252297 1.320566,1.053958 v 2.951263 h 1.980841 v -3.288709 c 0,-1.643428 -0.992235,-2.403475 -2.808016,-2.403475 -1.569076,0 -2.147724,0.591665 -2.352694,1.222614 -0.411764,-0.71651 -0.990429,-1.222614 -2.559505,-1.222614 -1.485626,0 -1.899214,0.505966 -2.147724,1.433022 z m 13.336212,0 h -1.85748 v 5.565215 h 1.980824 v -2.867826 c 0,-0.843483 0.495214,-1.137395 1.485643,-1.137395 1.032145,0 1.320566,0.337311 1.320566,1.433022 v 2.572199 h 2.024381 V 27.024 c 0,-0.801797 0.57863,-1.053958 1.527342,-1.053958 0.906979,0 1.360477,0.295489 1.360477,1.053958 v 2.951263 h 1.982647 v -3.288709 c 0,-1.643428 -0.990412,-2.403475 -2.806193,-2.403475 -1.569076,0 -2.106007,0.547788 -2.352694,1.222614 -0.413622,-0.71651 -0.992235,-1.222614 -2.559505,-1.222614 -1.44391,0 -1.815764,0.505966 -2.106008,1.433022 z m 142.397601,5.962513 h -1.67792 v 1.982663 h -3.94172 v -1.982663 h -7.12342 l 0.0206,-2.886061 5.6396,-5.726601 h 5.40377 v 6.26719 h 1.6779 v 2.345472 z m -5.61964,-2.347256 v -3.51187 l -3.4139,3.51187 z m -12.59794,1.443854 v -0.770875 c 0,-0.27218 -0.0891,-0.444264 -0.26327,-0.516937 -0.17413,-0.07266 -0.55533,-0.109013 -1.14096,-0.109013 h -0.76189 c -0.58618,0 -0.96861,0.03429 -1.15186,0.101461 -0.181,0.06855 -0.27218,0.243386 -0.27218,0.524478 v 0.770878 c 0,0.292062 0.0905,0.473744 0.27218,0.54573 0.18304,0.07266 0.56561,0.109014 1.15186,0.109014 h 0.76189 c 0.59852,0 0.98314,-0.03428 1.15,-0.109014 0.17065,-0.07266 0.25368,-0.253668 0.25368,-0.54573 z"
       fill="#ffffff"
       id="path960"
       style="stroke-width:1.81396" />
    <path
       d="M 197.86643,81.609374 H 16.227501 c -1.706935,0 -3.105498,-1.39676 -3.105498,-3.10554 V 42.725329 c 0,-1.706904 1.396753,-3.105519 3.105498,-3.105519 H 197.86643 c 1.70698,0 3.10366,1.396757 3.10366,3.105519 v 35.778505 c 0.002,1.70878 -1.3949,3.10554 -3.10366,3.10554 z M 162.16231,60.937495 c 0,-6.064111 -4.91583,-10.97994 -10.97987,-10.97994 -6.06413,0 -10.97994,4.915829 -10.97994,10.97994 0,6.064058 4.91581,10.979888 10.97994,10.979888 6.06404,0 10.97987,-4.91583 10.97987,-10.979888 z M 74.811129,60.781122 c 0,-6.064059 -4.915846,-10.979871 -10.979922,-10.979871 -6.064059,0 -10.979871,4.915812 -10.979871,10.979871 0,6.064041 4.915812,10.97994 10.979871,10.97994 6.064076,0 10.979922,-4.915899 10.979922,-10.97994 z"
       fill="#5a5a5b"
       stroke="#2d2c2c"
       stroke-miterlimit="10"
       stroke-width="0.25867"
       id="path961" />
    <path
       d="m 66.925837,130.74772 h 7.890694"
       fill="none"
       stroke="#292929"
       stroke-miterlimit="10"
       stroke-width="1.55238"
       id="path962" />
    <path
       d="M 66.925837,130.74772 H 40.968082"
       fill="none"
       stroke="#404040"
       stroke-miterlimit="10"
       stroke-width="1.29353"
       id="path963" />
    <path
       d="m 74.816531,130.74772 h 8.409528"
       fill="none"
       stroke="#404040"
       stroke-miterlimit="10"
       stroke-width="1.29353"
       id="path964" />
    <path
       d="m 84.432364,114.88102 -10.972645,2.63019 h 10.972645 z"
       fill="#292929"
       id="path965"
       style="stroke-width:1.81396" />
    <path
       d="m 147.68688,130.74772 h -7.89066"
       fill="none"
       stroke="#292929"
       stroke-miterlimit="10"
       stroke-width="1.55238"
       id="path966" />
    <path
       d="m 149.19615,50.157141 c 5.9806,-1.05389 11.6837,2.938584 12.73759,8.919192 1.05389,5.980678 -2.93859,11.683772 -8.91926,12.737661 -5.98061,1.05389 -11.68371,-2.938653 -12.7376,-8.919261 -1.05389,-5.980625 2.94043,-11.683702 8.91927,-12.737592 z M 139.08876,63.10335 c 1.16996,6.637271 7.49892,11.068794 14.13619,9.898767 6.63727,-1.170025 11.06872,-7.49892 9.89877,-14.13619 -1.17004,-6.63727 -7.49892,-11.068723 -14.13621,-9.898766 -6.63727,1.170025 -11.06879,7.500708 -9.89875,14.136189 z"
       fill="#9d9d9d"
       id="path967"
       style="stroke-width:1.81396" />
    <path
       d="m 151.157,72.242067 c -2.2874,0 -4.51859,-0.698344 -6.4305,-2.038883 -2.46332,-1.72507 -4.10675,-4.304548 -4.62739,-7.264928 -1.07747,-6.111211 3.01846,-11.959445 9.12967,-13.036919 6.11307,-1.077475 11.95944,3.018456 13.03692,9.129667 0.52241,2.960398 -0.13986,5.947992 -1.86474,8.409528 -1.72509,2.461553 -4.30455,4.106769 -7.26493,4.627392 -0.66022,0.115946 -1.32237,0.174143 -1.97903,0.174143 z m -1.83937,-21.83098 c -5.83005,1.028516 -9.7373,6.608267 -8.70879,12.438317 0.49912,2.824289 2.0661,5.285842 4.41522,6.931127 2.34903,1.645267 5.19876,2.276503 8.02312,1.779517 2.82429,-0.499119 5.28582,-2.066097 6.93111,-4.415213 1.64528,-2.34903 2.2765,-5.198763 1.77952,-8.023121 -1.03038,-5.831908 -6.60827,-9.73916 -12.44018,-8.710627 z"
       fill="#e4e4e3"
       id="path968"
       style="stroke-width:1.81396" />
    <path
       d="m 140.5278,63.559549 2.96904,-0.523788 0.13504,0.764557 -2.96902,0.523805 z"
       fill="#e4e4e3"
       id="path969"
       style="stroke-width:1.81399" />
    <path
       d="m 140.18151,61.587654 2.96897,-0.523788 0.13504,0.764557 -2.96895,0.523788 z"
       fill="#e4e4e3"
       id="path970"
       style="stroke-width:1.81399" />
    <path
       d="m 159.17074,60.273367 2.96895,-0.523788 0.13504,0.764574 -2.96895,0.523788 z"
       fill="#e4e4e3"
       id="path971"
       style="stroke-width:1.81399" />
    <path
       d="m 158.82424,58.301334 2.96895,-0.523788 0.13504,0.764574 -2.96894,0.523789 z"
       fill="#e4e4e3"
       id="path972"
       style="stroke-width:1.81399" />
    <path
       d="m 148.00143,71.537564 1.03072,-2.833011 0.7296,0.265334 -1.03078,2.832994 z"
       fill="#e4e4e3"
       id="path973"
       style="stroke-width:1.81389" />
    <path
       d="m 146.11915,70.85183 1.03078,-2.833063 0.72954,0.265317 -1.03079,2.832994 z"
       fill="#e4e4e3"
       id="path974"
       style="stroke-width:1.81389" />
    <path
       d="m 154.49391,53.746142 1.03168,-2.832667 0.72946,0.265335 -1.03168,2.83265 z"
       fill="#e4e4e3"
       id="path975"
       style="stroke-width:1.81392" />
    <path
       d="m 152.61319,53.061096 1.03168,-2.832719 0.72948,0.265318 -1.03161,2.832718 z"
       fill="#e4e4e3"
       id="path976"
       style="stroke-width:1.81392" />
    <path
       d="m 156.71817,66.640107 0.5944,-0.499102 1.93791,2.309343 -0.59443,0.499103 z"
       fill="#e4e4e3"
       id="path977"
       style="stroke-width:1.81391" />
    <path
       d="m 155.18491,67.929227 0.59442,-0.49912 1.93789,2.309344 -0.59441,0.499119 z"
       fill="#e4e4e3"
       id="path978"
       style="stroke-width:1.81391" />
    <path
       d="m 144.56944,52.177169 0.59441,-0.499119 1.93788,2.309343 -0.5944,0.49912 z"
       fill="#e4e4e3"
       id="path979"
       style="stroke-width:1.81391" />
    <path
       d="m 143.01636,53.428099 0.59441,-0.49912 1.93797,2.309344 -0.59442,0.499119 z"
       fill="#e4e4e3"
       id="path980"
       style="stroke-width:1.81391" />
    <path
       d="m 148.63561,46.986354 c 7.74017,-1.364123 15.11933,3.803864 16.48345,11.542194 1.36412,7.74017 -3.80386,15.119324 -11.54219,16.483446 -7.74019,1.36412 -15.11941,-3.803862 -16.48345,-11.542192 -1.36412,-7.738398 3.802,-15.117552 11.54219,-16.483448 z m -9.54685,16.133322 c 1.16996,6.63727 7.49892,11.068788 14.13619,9.898749 6.63727,-1.169956 11.06872,-7.49892 9.89877,-14.13619 -1.17004,-6.63727 -7.49892,-11.068723 -14.13621,-9.898766 -6.63727,1.170042 -11.06879,7.498937 -9.89875,14.136207 z"
       fill="#bcbdbc"
       id="path981"
       style="stroke-width:1.81396" />
    <path
       d="m 148.62656,46.986354 c 7.7401,-1.364123 15.11933,3.803864 16.48345,11.542194 1.36404,7.74017 -3.80386,15.119324 -11.54226,16.483446 -7.74012,1.36412 -15.11934,-3.803862 -16.48345,-11.542192 -1.36405,-7.738398 3.80208,-15.117552 11.54226,-16.483448 z m -19.05024,17.862039 c 2.07158,11.748951 13.39069,19.574431 25.28115,17.477491 11.89055,-2.09696 19.85019,-13.321729 17.77861,-25.07075 -2.07152,-11.74897 -13.39061,-19.574448 -25.28116,-17.477489 -11.89048,2.096941 -19.8501,13.32171 -17.7786,25.070748 z"
       fill="#cccccc"
       id="path982"
       style="stroke-width:1.81396" />
    <path
       d="m 139.46966,44.229104 c 2.26383,-1.583578 4.8832,-2.73179 7.76015,-3.29776 l 0.76368,4.331712 c -2.08969,0.422997 -4.00522,1.23715 -5.68314,2.350888 z"
       fill="#9c9c9c"
       id="path983"
       style="stroke-width:1.81396" />
    <path
       d="m 147.47106,42.300887 c -2.62842,0.520364 -5.02469,1.563623 -7.10347,3.00029 l 1.10469,1.318725 c 1.85205,-1.253458 3.97436,-2.164066 6.29626,-2.630277 z"
       fill="#525252"
       id="path984"
       style="stroke-width:1.81396" />
    <path
       d="m 156.45559,41.23425 c -2.66832,-0.71467 -5.52354,-0.896072 -8.42042,-0.44426 l 0.76368,4.331694 c 2.10785,-0.317425 4.18662,-0.208428 6.14391,0.266693 z"
       fill="#9c9c9c"
       id="path985"
       style="stroke-width:1.81396" />
    <path
       d="m 148.27642,42.159377 c 2.64658,-0.409975 5.25691,-0.250231 7.70028,0.390106 l -0.58754,1.616212 c -2.16763,-0.544363 -4.475,-0.674622 -6.81505,-0.317425 z"
       fill="#525252"
       id="path986"
       style="stroke-width:1.81396" />
    <path
       d="m 130.81347,62.751434 c -0.24132,-2.751745 0.076,-5.596058 1.02488,-8.369617 l 4.13399,1.503775 c -0.67805,2.020785 -0.93055,4.086882 -0.80537,6.096744 z"
       fill="#9c9c9c"
       id="path987"
       style="stroke-width:1.81396" />
    <path
       d="m 133.14619,54.857076 c -0.86342,2.535921 -1.15912,5.133495 -0.95413,7.651319 l 1.69422,-0.297538 c -0.15981,-2.229334 0.11251,-4.524021 0.8707,-6.766033 z"
       fill="#525252"
       id="path988"
       style="stroke-width:1.81396" />
    <path
       d="m 136.71429,46.541888 c -1.95366,1.95366 -3.53903,4.335393 -4.59478,7.07083 l 4.13399,1.503775 c 0.77821,-1.984505 1.91375,-3.729479 3.30324,-5.187925 z"
       fill="#9c9c9c"
       id="path989"
       style="stroke-width:1.81396" />
    <path
       d="m 133.42558,54.087977 c 0.96866,-2.497816 2.41259,-4.678208 4.18839,-6.474033 l 1.10655,1.316953 c -1.55457,1.605374 -2.8225,3.539011 -3.68238,5.742988 -0.002,0.0017 -1.61256,-0.586183 -1.61256,-0.586183 z"
       fill="#525252"
       id="path990"
       style="stroke-width:1.81396" />
    <path
       d="m 142.52617,79.506994 c -2.50323,-1.16824 -4.80695,-2.86425 -6.73517,-5.07186 l 3.37029,-2.827916 c 1.41129,1.598046 3.07288,2.849716 4.87777,3.745786 z"
       fill="#9c9c9c"
       id="path991"
       style="stroke-width:1.81396" />
    <path
       d="m 136.85578,73.540854 c 1.765,2.0153 3.86736,3.56987 6.14928,4.65098 l 0.58961,-1.61622 c -2.00981,-0.97771 -3.86187,-2.35993 -5.42557,-4.137608 z"
       fill="#525252"
       id="path992"
       style="stroke-width:1.81396" />
    <path
       d="m 131.43928,66.294092 c 0.71472,2.668312 1.9863,5.231465 3.82566,7.513452 l 3.37029,-2.827984 c -1.32963,-1.667012 -2.27286,-3.520931 -2.84246,-5.454567 z"
       fill="#9c9c9c"
       id="path993"
       style="stroke-width:1.81396" />
    <path
       d="m 136.32974,72.913265 c -1.67792,-2.087893 -2.84431,-4.427892 -3.51365,-6.864071 l 1.69422,-0.298914 c 0.61292,2.14953 1.65433,4.211997 3.13274,6.060411 z"
       fill="#525252"
       id="path994"
       style="stroke-width:1.81396" />
    <path
       d="m 162.89336,77.742014 c -2.26383,1.58358 -4.8832,2.73181 -7.76013,3.29776 l -0.76368,-4.33176 c 2.08967,-0.42233 4.00522,-1.23708 5.68312,-2.35089 z"
       fill="#9c9c9c"
       id="path995"
       style="stroke-width:1.81396" />
    <path
       d="m 154.8901,79.668394 c 2.62849,-0.52037 5.02471,-1.56363 7.10349,-3.00029 l -1.10469,-1.31873 c -1.85206,1.25346 -3.97438,2.16407 -6.29626,2.63026 z"
       fill="#525252"
       id="path996"
       style="stroke-width:1.81396" />
    <path
       d="m 145.90743,80.736814 c 2.66832,0.71472 5.52347,0.89613 8.42035,0.44426 l -0.76368,-4.33176 c -2.10778,0.31742 -4.18655,0.20841 -6.14384,-0.26669 z"
       fill="#9c9c9c"
       id="path997"
       style="stroke-width:1.81396" />
    <path
       d="m 154.08653,79.811744 c -2.64837,0.40999 -5.25684,0.25024 -7.70021,-0.39009 l 0.58754,-1.61621 c 2.16772,0.54434 4.47507,0.67462 6.81505,0.31742 z"
       fill="#525252"
       id="path998"
       style="stroke-width:1.81396" />
    <path
       d="m 171.54955,59.225102 c 0.24132,2.751763 -0.076,5.596059 -1.02488,8.369618 l -4.13405,-1.503775 c 0.67873,-2.020768 0.93056,-4.086865 0.80543,-6.096744 z"
       fill="#9c9c9c"
       id="path999"
       style="stroke-width:1.81396" />
    <path
       d="m 169.21676,67.11762 c 0.86344,-2.53592 1.15914,-5.133495 0.95413,-7.65125 l -1.69422,0.297539 c 0.15981,2.229333 -0.11251,4.524003 -0.8707,6.766101 z"
       fill="#525252"
       id="path1000"
       style="stroke-width:1.81396" />
    <path
       d="m 165.65052,75.432804 c 1.95366,-1.953587 3.53903,-4.33532 4.59476,-7.070757 l -4.13397,-1.503775 c -0.77821,1.984436 -1.91376,3.729462 -3.30325,5.187925 z"
       fill="#9c9c9c"
       id="path1001"
       style="stroke-width:1.81396" />
    <path
       d="m 168.93746,67.886788 c -0.96869,2.497816 -2.41259,4.678191 -4.18848,6.473966 l -1.10648,-1.316886 c 1.55457,-1.605374 2.8225,-3.539079 3.68231,-5.742987 z"
       fill="#525252"
       id="path1002"
       style="stroke-width:1.81396" />
    <path
       d="m 168.75783,55.874685 3.26698,-0.576583 C 170.3342,49.074385 166.01697,44.138618 160.50977,41.49752 l -1.10469,2.798915 -0.9451,2.392571 c 3.77671,1.926445 6.75156,5.324032 8.05398,9.579553 z"
       fill="#525252"
       id="path1003"
       style="stroke-width:1.81396" />
    <path
       d="m 160.48802,41.377531 0.0206,0.121279 c 5.50721,2.641167 9.82446,7.576951 11.51505,13.8006 l -3.26698,0.576583 c 0.62938,0.567672 0.89065,0.974086 0.78363,1.215354 -0.15775,0.355821 -1.10832,0.359244 -2.85515,0.01376 0.0686,-0.634866 0.42782,-4.485968 -2.41259,-7.783727 -2.82792,-3.283293 -5.92981,-2.8733 -6.57015,-2.900532 -0.0206,-1.779449 0.16188,-2.715482 0.54094,-2.802545 0.25778,-0.06176 0.60743,0.272181 1.04847,0.995882 l 1.17182,-3.103731 m 7.09071,13.12947 2.88421,-0.50803 c -1.66338,-4.690938 -4.94845,-8.494802 -9.08429,-10.871064 l -1.11922,2.403477 c 0.48609,0.02735 2.77534,0.275605 4.93941,2.873317 2.17312,2.608464 2.54862,5.583381 2.49782,6.082208"
       fill="#9c9c9c"
       id="path1004"
       style="stroke-width:1.81396" />
    <path
       d="m 147.68688,130.74772 h 25.95777"
       fill="none"
       stroke="#404040"
       stroke-miterlimit="10"
       stroke-width="1.29353"
       id="path1005" />
    <path
       d="m 139.79622,130.74772 h -8.40953"
       fill="none"
       stroke="#404040"
       stroke-miterlimit="10"
       stroke-width="1.29353"
       id="path1006" />
    <path
       d="m 130.18039,114.88102 10.97261,2.63019 h -10.97261 z"
       fill="#292929"
       id="path1007"
       style="stroke-width:1.81396" />
    <path
       d="m 84.432364,114.88102 h 45.746256 v 1.55272 H 84.432364 Z"
       fill="#292929"
       id="path1008"
       style="stroke-width:1.81396" />
    <path
       d="m 103.32107,124.62558 h 8.01772 v 4.18301 h -8.01772 z"
       fill="#100b06"
       id="path1009"
       style="stroke-width:1.81396" />
    <path
       d="M 7.4642675,98.836546 H 207.06322 v 1.208084 H 7.4642675 Z"
       fill="#434343"
       id="path1010"
       style="stroke-width:1.81396" />
    <path
       d="M 7.4642675,100.90628 H 207.06322 v 1.20808 H 7.4642675 Z"
       fill="#434343"
       id="path1011"
       style="stroke-width:1.81396" />
    <path
       d="M 7.4642675,102.97601 H 207.06322 v 1.20807 H 7.4642675 Z"
       fill="#434343"
       id="path1012"
       style="stroke-width:1.81396" />
    <path
       d="M 7.4642675,105.04566 H 207.06322 v 1.20815 H 7.4642675 Z"
       fill="#434343"
       id="path1013"
       style="stroke-width:1.81396" />
    <path
       d="M 7.4642675,107.11541 H 207.06322 v 1.20814 H 7.4642675 Z"
       fill="#434343"
       id="path1014"
       style="stroke-width:1.81396" />
    <path
       d="M 7.4642675,109.18513 H 207.06322 v 1.20815 H 7.4642675 Z"
       fill="#434343"
       id="path1015"
       style="stroke-width:1.81396" />
    <path
       d="M 7.4642675,111.25486 H 207.06322 v 1.20815 H 7.4642675 Z"
       fill="#434343"
       id="path1016"
       style="stroke-width:1.81396" />
    <path
       d="M 7.4642675,113.32459 H 207.06322 v 1.20814 H 7.4642675 Z"
       fill="#434343"
       id="path1017"
       style="stroke-width:1.81396" />
    <path
       d="M 7.4642675,115.41427 H 207.06322 v 1.20815 H 7.4642675 Z"
       fill="#434343"
       id="path1018"
       style="stroke-width:1.81396" />
    <path
       d="M 7.4642675,118.69214 H 75.273693 c 0.438772,-0.60949 1.153631,-1.00857 1.957221,-1.00857 h 4.44057 c 0.803573,0 1.518311,0.39901 1.95729,1.00857 h 47.351576 c 0.43877,-0.60949 1.1537,-1.00857 1.95729,-1.00857 h 4.44057 c 0.80357,0 1.51824,0.39901 1.95722,1.00857 h 67.72601 V 117.484 H 7.4642675 Z"
       fill="#434343"
       id="path1019"
       style="stroke-width:1.81396" />
    <path
       d="m 61.707068,120.7618 h 13.109463 v -0.66364 c 0,-0.18717 0.02064,-0.36816 0.06176,-0.5423 H 7.4606685 v 1.20807 H 55.755497 c 0.841695,-0.59304 1.866563,-0.94508 2.9749,-0.94508 1.108336,0 2.133222,0.35034 2.974899,0.94323 z"
       fill="#434343"
       id="path1020"
       style="stroke-width:1.81396" />
    <path
       d="m 84.087708,120.09795 v 0.66365 h 46.437342 v -0.66365 c 0,-0.18717 0.0205,-0.36816 0.0617,-0.5423 H 84.020635 c 0.04111,0.17414 0.06864,0.35582 0.06864,0.5423 z"
       fill="#434343"
       id="path1021"
       style="stroke-width:1.81396" />
    <path
       d="m 139.79622,120.7618 h 13.10945 c 0.84169,-0.59303 1.8666,-0.94501 2.97492,-0.94501 1.10831,0 2.13322,0.35171 2.97484,0.94501 h 48.21142 v -1.20808 h -67.33233 c 0.0411,0.17415 0.0617,0.35582 0.0617,0.5423 v 0.66571 z"
       fill="#434343"
       id="path1022"
       style="stroke-width:1.81396" />
    <path
       d="M 74.816531,121.62345 H 62.655763 c 0.312022,0.36269 0.571371,0.76917 0.774569,1.20808 h 11.386199 z"
       fill="#434343"
       id="path1023"
       style="stroke-width:1.81396" />
    <path
       d="m 207.065,122.83153 v -1.20808 h -47.26263 c 0.31194,0.36269 0.5711,0.76917 0.7745,1.20808 z"
       fill="#434343"
       id="path1024"
       style="stroke-width:1.81396" />
    <path
       d="m 139.79622,122.83153 h 11.38622 c 0.20294,-0.43877 0.46277,-0.84526 0.77452,-1.20808 h -12.16074 z"
       fill="#434343"
       id="path1025"
       style="stroke-width:1.81396" />
    <path
       d="m 7.4642675,121.62345 v 1.20808 H 54.035846 c 0.203129,-0.43877 0.462563,-0.84526 0.774552,-1.20808 z"
       fill="#434343"
       id="path1026"
       style="stroke-width:1.81396" />
    <path
       d="m 84.087708,121.62345 h 46.437342 v 1.20808 H 84.087708 Z"
       fill="#434343"
       id="path1027"
       style="stroke-width:1.81396" />
    <path
       d="m 7.4642675,123.6932 v 1.20807 H 53.564216 c 0.0069,-0.41752 0.0652,-0.8199 0.166866,-1.20807 z"
       fill="#434343"
       id="path1028"
       style="stroke-width:1.81396" />
    <path
       d="m 83.695899,124.90127 h 47.219181 c -0.22831,-0.35035 -0.36679,-0.76368 -0.38668,-1.20807 H 84.080173 c -0.01376,0.44426 -0.156372,0.858 -0.384618,1.20807 z"
       fill="#434343"
       id="path1029"
       style="stroke-width:1.81396" />
    <path
       d="m 207.065,124.90127 v -1.20807 h -46.18152 c 0.0994,0.38666 0.15981,0.79089 0.16652,1.20807 z"
       fill="#434343"
       id="path1030"
       style="stroke-width:1.81396" />
    <path
       d="m 139.4044,124.90127 h 11.30457 c 0.007,-0.41752 0.0686,-0.8199 0.16652,-1.20807 h -11.0851 c -0.0206,0.44426 -0.15775,0.858 -0.38599,1.20807 z"
       fill="#434343"
       id="path1031"
       style="stroke-width:1.81396" />
    <path
       d="M 74.822018,123.6932 H 63.736884 c 0.09978,0.38666 0.159641,0.79089 0.166867,1.20807 H 75.20834 c -0.228315,-0.35035 -0.366108,-0.76368 -0.386683,-1.20807 z"
       fill="#434343"
       id="path1032"
       style="stroke-width:1.81396" />
    <path
       d="m 137.37998,126.00603 h -4.44057 c -0.37364,0 -0.72556,-0.0891 -1.04298,-0.24134 H 82.714536 c -0.31536,0.15225 -0.669134,0.24134 -1.043052,0.24134 h -4.44057 c -0.373643,0 -0.725559,-0.0891 -1.042983,-0.24134 H 63.842096 c -0.06382,0.42095 -0.172354,0.82532 -0.330103,1.20808 h 87.585157 c -0.15775,-0.38118 -0.2667,-0.78726 -0.33045,-1.20808 h -12.34585 c -0.314,0.15225 -0.66776,0.24134 -1.0412,0.24134 z"
       fill="#434343"
       id="path1033"
       style="stroke-width:1.81396" />
    <path
       d="m 207.065,126.971 v -1.20808 h -46.0745 c -0.0618,0.42095 -0.17208,0.82537 -0.33045,1.20808 z"
       fill="#434343"
       id="path1034"
       style="stroke-width:1.81396" />
    <path
       d="M 7.4642675,125.76292 V 126.971 H 53.952395 c -0.157749,-0.3812 -0.266624,-0.78727 -0.330171,-1.20808 z"
       fill="#434343"
       id="path1035"
       style="stroke-width:1.81396" />
    <path
       d="M 151.55971,127.83807 H 63.051219 c -0.301117,0.45523 -0.671199,0.85802 -1.095641,1.19724 h 90.699772 c -0.42437,-0.33936 -0.79452,-0.74196 -1.09564,-1.19724 z"
       fill="#434343"
       id="path1036"
       style="stroke-width:1.81396" />
    <path
       d="M 54.414959,127.83807 H 8.2823632 v 1.19724 H 55.5106 c -0.42446,-0.33936 -0.794525,-0.74196 -1.095641,-1.19724 z"
       fill="#434343"
       id="path1037"
       style="stroke-width:1.81396" />
    <path
       d="m 159.10217,129.03531 h 47.04319 v -1.19724 h -45.94762 c -0.30096,0.45523 -0.67118,0.85802 -1.09557,1.19724 z"
       fill="#434343"
       id="path1038"
       style="stroke-width:1.81396" />
    <path
       d="m 84.432364,117.42415 h -42.00766 v 1.55272 H 75.09592 c 0.406552,-0.76725 1.211707,-1.2933 2.134994,-1.2933 h 4.44057 c 0.923356,0 1.730507,0.52585 2.135063,1.2933 h 0.623891 v -1.55272 z"
       fill="#292929"
       id="path1039"
       style="stroke-width:1.81396" />
    <path
       d="m 172.18626,117.42415 h -42.00587 v 1.55272 h 0.62389 c 0.40655,-0.76725 1.21172,-1.2933 2.13499,-1.2933 h 4.44057 c 0.92329,0 1.73051,0.52585 2.13508,1.2933 h 32.6712 z"
       fill="#292929"
       id="path1040"
       style="stroke-width:1.81396" />
    <path
       d="m 155.87873,119.81679 c 2.04251,0 3.80386,1.18628 4.64557,2.90595 l 2.08062,-4.52402 h -6.71166 -6.71165 l 2.0661,4.49139 c 0.84897,-1.69972 2.6012,-2.87332 4.63102,-2.87332 z"
       fill="#292929"
       id="path1041"
       style="stroke-width:1.81396" />
    <path
       d="m 58.733992,119.81679 c 2.029817,0 3.782102,1.17181 4.629232,2.87332 l 2.066097,-4.49139 h -6.711654 -6.711638 l 2.080599,4.52402 c 0.843501,-1.71783 2.604852,-2.90595 4.647364,-2.90595 z"
       fill="#292929"
       id="path1042"
       style="stroke-width:1.81396" />
    <path
       d="M 107.79251,81.609374 H 19.775605 c -3.087358,-6.31622 -4.817872,-13.397885 -4.817872,-20.876867 0,-7.569674 1.772239,-14.733003 4.930337,-21.10721 l 87.73213,0.0017 c 3.15811,6.374275 5.10088,13.535746 5.10088,21.10542 0,7.478982 -1.73057,14.560647 -4.81793,20.876867 M 74.887286,60.937426 c 0,-6.06411 -4.915813,-10.97994 -10.979889,-10.97994 -6.064058,0 -10.979888,4.91583 -10.979888,10.97994 0,6.064059 4.91583,10.979888 10.979888,10.979888 6.064076,0 10.979889,-4.915829 10.979889,-10.979888 z"
       fill="#392010"
       id="path1043"
       style="stroke-width:1.81396" />
    <path
       d="m 74.827437,60.781466 c 0,6.073159 -4.923089,10.996248 -10.99623,10.996248 -6.073125,0 -10.996214,-4.923089 -10.996214,-10.996248 0,-6.073107 4.923089,-10.996196 10.996214,-10.996196 6.073141,0 10.99623,4.923089 10.99623,10.996196 z M 63.83303,48.578981 c -6.738852,0 -12.202502,5.463667 -12.202502,12.202485 0,6.738869 5.46365,12.202485 12.202502,12.202485 6.738852,0 12.202485,-5.463616 12.202485,-12.202485 0,-6.738818 -5.463633,-12.202485 -12.202485,-12.202485 z"
       fill="#9d9d9d"
       id="path1044"
       style="stroke-width:1.81396" />
    <path
       d="m 63.83303,72.12237 c -6.205551,0 -11.253789,-5.04829 -11.253789,-11.253841 0,-6.205551 5.048238,-11.253755 11.253789,-11.253755 6.205551,0 11.253773,5.048204 11.253773,11.253755 0,6.205551 -5.048222,11.253841 -11.253773,11.253841 z m 0,-21.990672 c -5.92076,0 -10.736814,4.816071 -10.736814,10.736831 0,5.92076 4.816054,10.736831 10.736814,10.736831 5.92076,0 10.736831,-4.816071 10.736831,-10.736831 0,-5.92076 -4.817877,-10.736831 -10.736831,-10.736831 z"
       fill="#e4e4e3"
       id="path1045"
       style="stroke-width:1.81396" />
    <path
       d="m 62.441727,49.917662 h 0.776375 v 3.014809 h -0.776375 z"
       fill="#e4e4e3"
       id="path1046"
       style="stroke-width:1.81396" />
    <path
       d="m 64.444346,49.917662 h 0.776358 v 3.014809 h -0.776358 z"
       fill="#e4e4e3"
       id="path1047"
       style="stroke-width:1.81396" />
    <path
       d="m 62.443533,68.848127 h 0.776375 v 3.014809 h -0.776375 z"
       fill="#e4e4e3"
       id="path1048"
       style="stroke-width:1.81396" />
    <path
       d="m 64.446152,68.848127 h 0.776376 v 3.014809 h -0.776376 z"
       fill="#e4e4e3"
       id="path1049"
       style="stroke-width:1.81396" />
    <path
       d="m 53.60927,56.594361 0.388179,-0.672575 2.610821,1.507336 -0.388196,0.672575 z"
       fill="#e4e4e3"
       id="path1050"
       style="stroke-width:1.81392" />
    <path
       d="m 54.66789,54.91603 0.388197,-0.672557 2.610804,1.507336 -0.38818,0.672557 z"
       fill="#e4e4e3"
       id="path1051"
       style="stroke-width:1.81392" />
    <path
       d="m 70.022548,66.079505 0.388179,-0.672574 2.610821,1.507422 -0.388179,0.672557 z"
       fill="#e4e4e3"
       id="path1052"
       style="stroke-width:1.81392" />
    <path
       d="m 71.023866,64.3453 0.38818,-0.672557 2.610855,1.507405 -0.388248,0.672557 z"
       fill="#e4e4e3"
       id="path1053"
       style="stroke-width:1.81392" />
    <path
       d="m 54.683803,66.846609 2.610821,-1.50768 0.388248,0.672557 -2.610804,1.50768 z"
       fill="#e4e4e3"
       id="path1054"
       style="stroke-width:1.81401" />
    <path
       d="m 53.68245,65.112334 2.610821,-1.507679 0.388248,0.672574 -2.610803,1.50768 z"
       fill="#e4e4e3"
       id="path1055"
       style="stroke-width:1.81401" />
    <path
       d="m 71.076403,57.380662 2.610821,-1.50768 0.388248,0.672557 -2.610821,1.507749 z"
       fill="#e4e4e3"
       id="path1056"
       style="stroke-width:1.81401" />
    <path
       d="m 70.075051,55.646595 2.610821,-1.50768 0.388248,0.672557 -2.610821,1.507749 z"
       fill="#e4e4e3"
       id="path1057"
       style="stroke-width:1.81401" />
    <path
       d="m 78.061719,60.781466 c 0,7.858095 -6.370611,14.228668 -14.228689,14.228668 -7.85806,0 -14.228689,-6.370573 -14.228689,-14.228668 0,-7.858043 6.370629,-14.228689 14.228689,-14.228689 7.858078,0 14.228689,6.370646 14.228689,14.228689 z M 63.83303,48.578981 c -6.738852,0 -12.202502,5.463667 -12.202502,12.202485 0,6.738869 5.46365,12.202485 12.202502,12.202485 6.738852,0 12.202485,-5.463616 12.202485,-12.202485 0,-6.738818 -5.463633,-12.202485 -12.202485,-12.202485 z"
       fill="#bcbdbc"
       id="path1058"
       style="stroke-width:1.81396" />
    <path
       d="m 78.061719,60.781466 c 0,7.858095 -6.370611,14.228668 -14.228689,14.228668 -7.85806,0 -14.228689,-6.370573 -14.228689,-14.228668 0,-7.858043 6.370629,-14.228689 14.228689,-14.228689 7.858078,0 14.228689,6.370646 14.228689,14.228689 z M 63.778618,38.919625 c -11.930407,0 -21.602441,9.78817 -21.602441,21.861841 0,12.073722 9.672034,21.861838 21.602441,21.861838 11.930424,0 21.602459,-9.788116 21.602459,-21.861838 0,-12.073671 -9.672035,-21.861841 -21.602459,-21.861841 z"
       fill="#cccccc"
       id="path1059"
       style="stroke-width:1.81396" />
    <path
       d="m 82.368039,52.243193 c 1.166395,2.503218 1.841155,5.284054 1.899231,8.21543 h -4.398819 c -0.05488,-2.131433 -0.522429,-4.159409 -1.329632,-6.004211 z"
       fill="#9c9c9c"
       id="path1060"
       style="stroke-width:1.81396" />
    <path
       d="m 82.876001,60.458623 c -0.05488,-2.679219 -0.667775,-5.220576 -1.721458,-7.517103 l -1.489308,0.859877 c 0.912449,2.040655 1.442138,4.290012 1.496516,6.657226 z"
       fill="#525252"
       id="path1061"
       style="stroke-width:1.81396" />
    <path
       d="m 82.368039,69.490321 c 1.166395,-2.503304 1.841155,-5.284053 1.899231,-8.215447 h -4.398819 c -0.05488,2.131364 -0.522429,4.159426 -1.329632,6.004211 z"
       fill="#9c9c9c"
       id="path1062"
       style="stroke-width:1.81396" />
    <path
       d="m 82.876001,61.274874 c -0.05488,2.679236 -0.667775,5.220576 -1.721458,7.517034 L 79.665235,67.9321 c 0.912449,-2.040724 1.442138,-4.290012 1.496516,-6.657226 z"
       fill="#525252"
       id="path1063"
       style="stroke-width:1.81396" />
    <path
       d="m 65.630662,40.503272 c 2.75178,0.24132 5.4963,1.046613 8.064871,2.463325 l -2.200347,3.809282 c -1.871999,-1.019415 -3.861905,-1.627118 -5.864524,-1.851992 z"
       fill="#9c9c9c"
       id="path1064"
       style="stroke-width:1.81396" />
    <path
       d="m 72.998961,44.169256 c -2.347258,-1.289739 -4.85414,-2.033464 -7.370105,-2.267455 v 1.7196 c 2.223914,0.230362 4.435134,0.896141 6.512103,2.031675 z"
       fill="#525252"
       id="path1065"
       style="stroke-width:1.81396" />
    <path
       d="M 80.566795,49.126767 C 78.981427,46.8648 76.9117,44.889396 74.401137,43.374731 l -2.200313,3.809351 c 1.819393,1.111949 3.339494,2.532222 4.536733,4.153922 z"
       fill="#9c9c9c"
       id="path1066"
       style="stroke-width:1.81396" />
    <path
       d="m 73.708229,44.579179 c 2.291023,1.387691 4.188395,3.187164 5.64863,5.249631 l -1.489238,0.859791 C 76.556155,48.878309 74.872749,47.29473 72.850227,46.06484 Z"
       fill="#525252"
       id="path1067"
       style="stroke-width:1.81396" />
    <path
       d="m 47.095636,49.128608 c 1.585402,-2.262036 3.655128,-4.237423 6.16564,-5.752036 l 2.20033,3.809282 c -1.819393,1.111966 -3.339493,2.532308 -4.536698,4.15399 z"
       fill="#9c9c9c"
       id="path1068"
       style="stroke-width:1.81396" />
    <path
       d="m 53.956025,44.579179 c -2.291022,1.387691 -4.186624,3.187164 -5.648665,5.249631 l 1.489256,0.859791 c 1.3115,-1.810292 2.994854,-3.393871 5.017412,-4.623761 z"
       fill="#525252"
       id="path1069"
       style="stroke-width:1.81396" />
    <path
       d="m 62.031769,40.503272 c -2.75178,0.24132 -5.496301,1.046613 -8.064855,2.463325 l 2.20033,3.809282 c 1.871999,-1.019415 3.861923,-1.627118 5.864525,-1.851992 z"
       fill="#9c9c9c"
       id="path1070"
       style="stroke-width:1.81396" />
    <path
       d="m 54.663469,44.171045 c 2.347259,-1.289739 4.854158,-2.033395 7.370106,-2.267455 v 1.719669 c -2.223898,0.230361 -4.435117,0.896055 -6.512103,2.033464 0,-0.0017 -0.858003,-1.485678 -0.858003,-1.485678 z"
       fill="#525252"
       id="path1071"
       style="stroke-width:1.81396" />
    <path
       d="M 45.298004,69.492093 C 44.131626,66.988875 43.456832,64.20804 43.39879,61.276663 h 4.398854 c 0.05281,2.131433 0.522412,4.159409 1.329632,6.004194 z"
       fill="#9c9c9c"
       id="path1072"
       style="stroke-width:1.81396" />
    <path
       d="m 44.788288,61.276663 c 0.05625,2.679219 0.667551,5.220576 1.721441,7.517086 l 1.489256,-0.85986 C 47.08657,65.893234 46.556881,63.643946 46.502469,61.276663 Z"
       fill="#525252"
       id="path1073"
       style="stroke-width:1.81396" />
    <path
       d="m 45.298004,52.243193 c -1.166378,2.503218 -1.841172,5.284054 -1.899214,8.21543 h 4.398854 c 0.05281,-2.131433 0.522412,-4.159409 1.329632,-6.004211 z"
       fill="#9c9c9c"
       id="path1074"
       style="stroke-width:1.81396" />
    <path
       d="m 44.788288,60.458623 c 0.05625,-2.679219 0.667551,-5.220576 1.721441,-7.517103 l 1.489256,0.859877 c -0.912415,2.040655 -1.442104,4.290012 -1.496516,6.657226 z"
       fill="#525252"
       id="path1075"
       style="stroke-width:1.81396" />
    <path
       d="m 62.029962,81.230224 c -2.751779,-0.24132 -5.4963,-1.04661 -8.064871,-2.46332 l 2.20033,-3.80934 c 1.872016,1.01947 3.861922,1.6271 5.864541,1.85205 z"
       fill="#9c9c9c"
       id="path1076"
       style="stroke-width:1.81396" />
    <path
       d="m 54.65984,77.564244 c 2.347258,1.28974 4.854157,2.03346 7.370122,2.26745 v -1.71967 c -2.223914,-0.23036 -4.436957,-0.89607 -6.51212,-2.0316 z"
       fill="#525252"
       id="path1077"
       style="stroke-width:1.81396" />
    <path
       d="m 47.092006,72.606661 c 1.585402,2.262033 3.655129,4.237443 6.165641,5.752033 l 2.200347,-3.80926 c -1.81941,-1.111968 -3.339511,-2.53231 -4.536716,-4.15401 z"
       fill="#9c9c9c"
       id="path1078"
       style="stroke-width:1.81396" />
    <path
       d="m 53.952395,77.156104 c -2.291022,-1.38771 -4.186606,-3.18716 -5.648664,-5.249628 l 1.489255,-0.859809 c 1.311501,1.810311 2.994855,3.393887 5.017412,4.623767 z"
       fill="#525252"
       id="path1079"
       style="stroke-width:1.81396" />
    <path
       d="m 65.812064,79.064384 v 3.31772 c 6.421411,-0.58414 12.031972,-3.97801 15.590937,-8.94278 l -2.564924,-1.57453 -2.191212,-1.345957 c -2.552263,3.384837 -6.414186,5.724817 -10.832994,6.269047 v 2.2765 z"
       fill="#525252"
       id="path1080"
       style="stroke-width:1.81396" />
    <path
       d="M 81.526414,73.437466 H 81.40307 c -3.558965,4.964768 -9.16772,8.358728 -15.590937,8.942848 v -3.31779 c -0.66934,0.52037 -1.113772,0.70747 -1.333261,0.56081 -0.322913,-0.21732 -0.161362,-1.15549 0.484307,-2.81345 0.613122,0.17963 4.342618,1.20082 8.08481,-1.02488 3.72406,-2.214802 3.858293,-5.340277 3.996172,-5.966077 1.755933,0.292051 2.644728,0.631426 2.666541,1.019398 0.01376,0.26463 -0.37366,0.55121 -1.162766,0.859861 l 2.851504,1.692385 m -14.159757,4.703633 v 2.92768 c 4.908587,-0.82353 9.22399,-3.39752 12.28234,-7.05808 L 77.348907,72.4437 c -0.109065,0.475121 -0.754631,2.686494 -3.68599,4.366184 -2.945861,1.68883 -5.940715,1.54004 -6.423234,1.40402"
       fill="#9c9c9c"
       id="path1081"
       style="stroke-width:1.81396" />
    <path
       d="m 176.74832,130.74772 h 24.6862 c 3.49727,0 6.35975,-2.86248 6.35975,-6.35976 V 10.20832 c 0,-3.4973352 -2.86248,-6.3597462 -6.35975,-6.3597462 h -6.38154 v 9.2820072 c 0,0.444263 -0.36475,0.809066 -0.80901,0.809066 h -11.77076 c -0.44426,0 -0.80906,-0.364734 -0.80906,-0.809066 V 3.8485738 h -74.38138 0.048 -74.381388 v 9.2820072 c 0,0.444263 -0.364594,0.809066 -0.809026,0.809066 H 20.369577 c -0.444399,0 -0.809025,-0.364734 -0.809025,-0.809066 V 3.8485738 H 13.17903 c -3.4973157,0 -6.3597385,2.862411 -6.3597385,6.3597462 v 114.17964 c 0,3.49728 2.8624228,6.35976 6.3597385,6.35976 h 24.686165"
       fill="none"
       stroke="#404040"
       stroke-miterlimit="10"
       stroke-width="1.29353"
       id="path1082" />
    <path
       d="m 15.679688,8.7626148 c 0,2.2130182 -1.794005,4.0088542 -4.008847,4.0088542 -2.2130344,0 -4.0088485,-1.794054 -4.0088485,-4.0088542"
       fill="#3a3a3a"
       id="path1083"
       style="stroke-width:1.81396" />
    <path
       d="m 7.6619925,8.7626148 c 0,-2.213088 1.7940051,-4.008855 4.0088485,-4.008855 2.213025,0 4.008847,1.793985 4.008847,4.008855"
       fill="#525252"
       id="path1084"
       style="stroke-width:1.81396" />
    <path
       d="m 10.569767,7.9444978 h 2.069724 v 2.0697312 h -2.069724 z"
       fill="#1f1f1f"
       id="path1085"
       style="stroke-width:1.81396" />
    <path
       d="m 9.7964823,10.525954 2.7345627,-3.6288322 0.821371,0.619089 -2.734561,3.6287622 z"
       fill="#1f1f1f"
       id="path1086"
       style="stroke-width:1.81389" />
    <path
       d="M 13.151031,10.786821 9.5222123,8.0522728 10.141162,7.2308678 13.769976,9.9654138 Z"
       fill="#1f1f1f"
       id="path1087"
       style="stroke-width:1.81389" />
    <circle
       cx="11.67085"
       cy="8.762536"
       fill="none"
       r="4.0088487"
       stroke="#404040"
       stroke-miterlimit="10"
       stroke-width="0.25867"
       id="circle1087" />
    <path
       d="m 198.93307,8.7626148 c 0,2.2130182 1.79398,4.0088542 4.00885,4.0088542 2.21303,0 4.00887,-1.794054 4.00887,-4.0088542"
       fill="#3a3a3a"
       id="path1088"
       style="stroke-width:1.81396" />
    <path
       d="m 206.95079,8.7626148 c 0,-2.213088 -1.79406,-4.008855 -4.00887,-4.008855 -2.21308,0 -4.00885,1.793985 -4.00885,4.008855"
       fill="#525252"
       id="path1089"
       style="stroke-width:1.81396" />
    <path
       d="m 204.04387,10.013611 h -2.06972 V 7.9439508 h 2.06972 z"
       fill="#1f1f1f"
       id="path1090"
       style="stroke-width:1.81396" />
    <path
       d="m 203.97757,11.161085 -2.73454,-3.6288312 0.82135,-0.619089 2.73454,3.6288312 z"
       fill="#1f1f1f"
       id="path1091"
       style="stroke-width:1.81389" />
    <path
       d="m 200.82661,9.9480688 3.62875,-2.734546 0.61909,0.821338 -3.62882,2.7345462 z"
       fill="#1f1f1f"
       id="path1092"
       style="stroke-width:1.81389" />
    <circle
       cx="202.94183"
       cy="8.762536"
       fill="none"
       r="4.0088487"
       stroke="#404040"
       stroke-miterlimit="10"
       stroke-width="0.25867"
       id="circle1092" />
    <path
       d="m 15.728666,126.26175 c 0,2.21302 -1.794005,4.00885 -4.008848,4.00885 -2.2130317,0 -4.0088545,-1.79398 -4.0088545,-4.00885"
       fill="#3a3a3a"
       id="path1093"
       style="stroke-width:1.81396" />
    <path
       d="m 7.7127795,126.26175 c 0,-2.21301 1.7940068,-4.00885 4.0088485,-4.00885 2.213033,0 4.008848,1.79405 4.008848,4.00885"
       fill="#525252"
       id="path1094"
       style="stroke-width:1.81396" />
    <path
       d="m 10.618739,125.44364 h 2.06973 v 2.06973 h -2.06973 z"
       fill="#1f1f1f"
       id="path1095"
       style="stroke-width:1.81396" />
    <path
       d="m 9.8419503,128.02338 2.7345617,-3.62883 0.821372,0.61909 -2.734561,3.62883 z"
       fill="#1f1f1f"
       id="path1096"
       style="stroke-width:1.81389" />
    <path
       d="m 13.198295,128.29179 -3.6288187,-2.73454 0.6189507,-0.82135 3.628813,2.73455 z"
       fill="#1f1f1f"
       id="path1097"
       style="stroke-width:1.81389" />
    <circle
       cx="11.721588"
       cy="126.26179"
       fill="none"
       r="4.0088487"
       stroke="#404040"
       stroke-miterlimit="10"
       stroke-width="0.25867"
       id="circle1097" />
    <path
       d="m 198.88406,126.26175 c 0,2.21302 1.79405,4.00885 4.00885,4.00885 2.21301,0 4.00885,-1.79398 4.00885,-4.00885"
       fill="#3a3a3a"
       id="path1098"
       style="stroke-width:1.81396" />
    <path
       d="m 206.89997,126.26175 c 0,-2.21301 -1.79405,-4.00885 -4.00885,-4.00885 -2.21301,0 -4.00885,1.79405 -4.00885,4.00885"
       fill="#525252"
       id="path1099"
       style="stroke-width:1.81396" />
    <path
       d="m 203.99252,127.51522 h -2.06965 v -2.06974 h 2.06965 z"
       fill="#1f1f1f"
       id="path1100"
       style="stroke-width:1.81396" />
    <path
       d="m 203.92142,128.6629 -2.73454,-3.62884 0.82141,-0.61909 2.73455,3.62884 z"
       fill="#1f1f1f"
       id="path1101"
       style="stroke-width:1.81389" />
    <path
       d="m 200.77498,127.44261 3.62876,-2.73454 0.61909,0.82141 -3.62876,2.73454 z"
       fill="#1f1f1f"
       id="path1102"
       style="stroke-width:1.81389" />
    <circle
       cx="202.89288"
       cy="126.26179"
       fill="none"
       r="4.0088487"
       stroke="#404040"
       stroke-miterlimit="10"
       stroke-width="0.25867"
       id="circle1102" />
    <path
       d="m 125.13575,121.7867 -0.30097,-3.32676 H 89.778244 l -0.300961,3.32676 -0.514877,-0.048 0.344845,-3.79845 h 35.999839 l 0.34484,3.79845 z"
       fill="#b7b8b6"
       id="path1103"
       style="stroke-width:1.81396" />
    <path
       d="m 111.46761,109.44634 c 0,2.21308 -1.79399,4.00885 -4.00885,4.00885 -2.21487,0 -4.00885,-1.79398 -4.00885,-4.00885"
       fill="#3a3a3a"
       id="path1104"
       style="stroke-width:1.81396" />
    <path
       d="m 103.44991,109.44634 c 0,-2.21303 1.79398,-4.00885 4.00885,-4.00885 2.21486,0 4.00885,1.79405 4.00885,4.00885"
       fill="#525252"
       id="path1105"
       style="stroke-width:1.81396" />
    <path
       d="m 106.3577,108.6283 h 2.06972 v 2.06973 h -2.06972 z"
       fill="#1f1f1f"
       id="path1106"
       style="stroke-width:1.81396" />
    <path
       d="m 105.57941,111.21173 2.73455,-3.62875 0.82134,0.61909 -2.73454,3.62882 z"
       fill="#1f1f1f"
       id="path1107"
       style="stroke-width:1.81389" />
    <path
       d="m 108.94115,111.47576 -3.62878,-2.73456 0.6191,-0.82139 3.62882,2.73454 z"
       fill="#1f1f1f"
       id="path1108"
       style="stroke-width:1.81389" />
    <circle
       cx="107.4586"
       cy="109.44633"
       fill="none"
       r="4.0088487"
       stroke="#404040"
       stroke-miterlimit="10"
       stroke-width="0.25867"
       id="circle1108" />
    <path
       d="m 40.345894,130.92 -1.514647,-0.3428 6.105775,-26.99896 c 0.04868,-2.09696 1.770435,-3.789404 3.880055,-3.789404 H 165.79745 c 2.10964,0 3.83108,1.690604 3.8801,3.789404 l 6.10396,26.99896 -1.51469,0.3428 -6.14207,-27.16399 v -0.0871 c 0,-1.28432 -1.04484,-2.32916 -2.32909,-2.32916 H 48.81527 c -1.284285,0 -2.329126,1.04484 -2.329126,2.32916 v 0.0871 l -0.01789,0.085 z"
       fill="#292929"
       id="path1109"
       style="stroke-width:1.81396" />
    <path
       d="m 69.082627,118.20051 h 1.552751 v 9.44346 h -1.552751 z"
       fill="#292929"
       id="path1110"
       style="stroke-width:1.81396" />
    <path
       d="m 143.97736,118.20051 h 1.55273 v 9.44346 h -1.55273 z"
       fill="#292929"
       id="path1111"
       style="stroke-width:1.81396" />
    <path
       d="m 131.38669,131.52408 h -9.91693 v -12.67596 h 1.55272 v 11.12315 h 8.36421 z"
       fill="#292929"
       id="path1112"
       style="stroke-width:1.81396" />
    <path
       d="m 93.142991,131.52408 h -9.916932 v -1.55281 h 8.364147 v -11.12315 h 1.552785 z"
       fill="#292929"
       id="path1113"
       style="stroke-width:1.81396" />
    <path
       d="M 127.72248,124.88316 H 86.89027 v -1.76682 h 0.516942 v 1.24983 h 39.798258 v -1.24983 h 0.51694 z"
       fill="#81472e"
       id="path1114"
       style="stroke-width:1.81396" />
    <path
       d="m 14.957733,60.959239 c -2.113265,28.997937 -2.925916,50.014461 -2.925916,50.014461 -0.364596,3.42843 5.175222,16.46172 14.254096,17.20545 50.988541,2.32909 105.222267,0.93782 162.039087,0 9.07887,-0.74373 14.61871,-13.77702 14.25411,-17.20545 -0.49705,-9.12055 -17.93821,-47.340661 -29.69265,-51.440222"
       fill="none"
       stroke="#f2f2f2"
       stroke-miterlimit="10"
       stroke-width="0.129335"
       id="path1115" />
    <path
       d="m 85.812796,53.478485 v 15.09211"
       fill="none"
       stroke="#ffffff"
       stroke-miterlimit="10"
       stroke-width="0.25867"
       id="path1116" />
    <path
       d="m 91.354425,53.478485 v 15.09211"
       fill="none"
       stroke="#ffffff"
       stroke-miterlimit="10"
       stroke-width="0.25867"
       id="path1117" />
    <path
       d="m 96.656645,53.478485 v 15.09211"
       fill="none"
       stroke="#ffffff"
       stroke-miterlimit="10"
       stroke-width="0.25867"
       id="path1118" />
    <path
       d="m 102.02592,53.478485 v 15.09211"
       fill="none"
       stroke="#ffffff"
       stroke-miterlimit="10"
       stroke-width="0.25867"
       id="path1119" />
    <path
       d="m 107.45876,53.478485 v 15.09211"
       fill="none"
       stroke="#ffffff"
       stroke-miterlimit="10"
       stroke-width="0.25867"
       id="path1120" />
    <path
       d="m 112.82624,53.478485 v 15.09211"
       fill="none"
       stroke="#ffffff"
       stroke-miterlimit="10"
       stroke-width="0.25867"
       id="path1121" />
    <path
       d="m 118.19559,53.478485 v 15.09211"
       fill="none"
       stroke="#ffffff"
       stroke-miterlimit="10"
       stroke-width="0.25867"
       id="path1122" />
    <path
       d="m 123.62834,53.478485 v 15.09211"
       fill="none"
       stroke="#ffffff"
       stroke-miterlimit="10"
       stroke-width="0.25867"
       id="path1123" />
    <path
       d="m 129.06116,53.478485 v 15.09211"
       fill="none"
       stroke="#ffffff"
       stroke-miterlimit="10"
       stroke-width="0.25867"
       id="path1124" />
  </g>
</svg>
