<?xml version="1.0" encoding="UTF-8" standalone="no"?>
<!-- Created with Inkscape (http://www.inkscape.org/) -->

<svg
   width="210mm"
   height="210mm"
   viewBox="0 0 210 210"
   version="1.1"
   id="svg1"
   inkscape:version="1.4.2 (f4327f4, 2025-05-13)"
   sodipodi:docname="cdi.svg"
   xmlns:inkscape="http://www.inkscape.org/namespaces/inkscape"
   xmlns:sodipodi="http://sodipodi.sourceforge.net/DTD/sodipodi-0.dtd"
   xmlns="http://www.w3.org/2000/svg"
   xmlns:svg="http://www.w3.org/2000/svg">
  <sodipodi:namedview
     id="namedview1"
     pagecolor="#ffffff"
     bordercolor="#000000"
     borderopacity="0.25"
     inkscape:showpageshadow="2"
     inkscape:pageopacity="0.0"
     inkscape:pagecheckerboard="0"
     inkscape:deskcolor="#d1d1d1"
     inkscape:document-units="mm"
     inkscape:zoom="0.73851712"
     inkscape:cx="396.74097"
     inkscape:cy="561.25984"
     inkscape:window-width="1920"
     inkscape:window-height="1009"
     inkscape:window-x="-8"
     inkscape:window-y="-8"
     inkscape:window-maximized="1"
     inkscape:current-layer="layer1" />
  <defs
     id="defs1" />
  <g
     inkscape:label="Camada 1"
     inkscape:groupmode="layer"
     id="layer1">
    <g
       transform="matrix(1.1284006,0,0,1.1284006,1.0721082,1.0207079)"
       id="g128">
      <path
         d="M 92.348,0 C 41.427,0 0,41.427 0,92.348 c 0,50.921 41.428,92.349 92.349,92.349 50.921,0 92.349,-41.428 92.349,-92.349 C 184.698,41.427 143.269,0 92.348,0 Z m 0,108.782 c -9.062,0 -16.435,-7.373 -16.435,-16.435 0,-9.062 7.373,-16.434 16.435,-16.434 9.062,0 16.435,7.373 16.435,16.434 0,9.063 -7.373,16.435 -16.435,16.435 z"
         fill="#6c5353"
         id="path96" />
      <path
         d="m 92.349049,2.8344982 c -49.548337,0 -89.8609035,40.1560058 -89.8609035,89.5140048 0,49.357997 40.3115765,89.514007 89.8609035,89.514007 49.549221,0 89.860801,-40.155 89.860801,-89.514007 0,-49.357999 -40.31059,-89.5140048 -89.860801,-89.5140048 z m 0,105.9480018 c -9.097109,0 -16.49868,-7.37299 -16.49868,-16.434993 0,-9.062003 7.401571,-16.434007 16.49868,-16.434007 9.097101,0 16.498681,7.373001 16.498681,16.434007 0,9.063003 -7.40158,16.434993 -16.498681,16.434993 z"
         fill="#c8b7b7"
         stroke-width="1.00193"
         id="path97" />
      <g
         clip-rule="evenodd"
         fill="#1a1a1a"
         fill-rule="evenodd"
         transform="matrix(0.34911542,0,0,0.34911542,-246.5258,-59.86823)"
         id="g104">
        <path
           d="m 816.408,447.397 c -0.273,0.052 -0.426,0.104 -0.577,0.104 -1.967,0.006 -3.933,0.004 -6.009,0.004 0,-7.618 0,-15.171 0,-22.797 h 6.532 v 8.909 h 6.802 c 0,-2.943 0,-5.864 0,-8.881 h 6.62 v 22.675 c -2.162,0 -4.301,0 -6.563,0 0,-2.936 0,-5.849 0,-8.838 -2.308,0 -4.49,0 -6.805,0 z"
           id="path98" />
        <path
           d="m 879.555,442.001 v 5.419 c -2.241,0 -4.382,0 -6.594,0 0,-7.568 0,-15.098 0,-22.765 4.318,-0.397 8.625,-0.989 12.914,0.07 3.743,0.924 5.663,3.295 6.021,7.177 0.374,4.074 -1.378,7.583 -4.741,9.039 -1.341,0.58 -2.845,0.807 -4.298,1.029 -1.016,0.156 -2.071,0.031 -3.302,0.031 z m 0.084,-4.07 c 2.063,-0.055 4.029,-0.053 5.063,-2.135 0.916,-1.843 1.039,-3.852 -0.146,-5.607 -1.186,-1.756 -3.042,-1.709 -4.917,-1.554 z"
           id="path99" />
        <path
           d="m 788.308,424.627 c 4.098,-0.315 8.131,-0.9 12.17,-0.041 4.565,0.971 6.775,3.72 6.743,8.337 -0.03,4.584 -2.631,7.96 -6.936,8.772 -1.719,0.324 -3.495,0.314 -5.404,0.471 v 5.251 c -2.259,0 -4.364,0 -6.573,0 0,-7.522 0,-15.078 0,-22.79 z m 6.61,13.085 c 1.802,0.498 3.872,-0.127 4.819,-1.435 1.029,-1.422 1.175,-4.345 0.291,-5.861 -0.873,-1.495 -2.803,-2.146 -5.11,-1.682 z"
           id="path100" />
        <path
           d="m 909.368,429.636 c -1.689,-0.307 -3.218,-0.646 -4.763,-0.839 -0.822,-0.103 -1.72,-0.111 -2.496,0.135 -0.598,0.189 -1.287,0.736 -1.528,1.31 -0.354,0.84 0.283,1.515 0.994,1.906 0.741,0.406 1.535,0.711 2.309,1.051 1.253,0.553 2.553,1.012 3.756,1.664 2.093,1.137 3.204,2.952 3.188,5.484 -0.017,2.688 -0.905,4.979 -3.302,6.082 -1.758,0.81 -3.748,1.393 -5.652,1.448 -2.369,0.071 -4.763,-0.469 -7.132,-0.846 -0.348,-0.057 -0.796,-0.633 -0.882,-1.04 -0.29,-1.378 -0.437,-2.789 -0.643,-4.224 1.878,0.477 3.663,1.076 5.494,1.348 1.319,0.193 2.721,0.081 4.042,-0.161 0.494,-0.09 1.16,-0.896 1.211,-1.433 0.059,-0.609 -0.333,-1.463 -0.799,-1.882 -0.61,-0.553 -1.475,-0.81 -2.25,-1.147 -0.85,-0.37 -1.736,-0.65 -2.58,-1.034 -3.505,-1.591 -4.891,-3.973 -4.44,-7.568 0.353,-2.824 2.724,-5.156 6.12,-5.435 2.653,-0.218 5.351,0.085 8.022,0.243 0.316,0.02 0.804,0.554 0.867,0.917 0.234,1.308 0.318,2.646 0.464,4.021 z"
           id="path101" />
        <path
           d="m 852.696,442.816 h 6.352 c -0.338,1.618 -0.641,3.073 -0.961,4.607 -3.946,0 -7.863,0 -11.879,0 0,-7.533 0,-15.085 0,-22.711 h 6.488 z"
           id="path102" />
        <path
           d="m 861.391,424.708 h 6.564 v 22.724 c -2.21,0 -4.353,0 -6.564,0 0,-7.595 0,-15.121 0,-22.724 z"
           id="path103" />
        <path
           d="m 834.713,424.694 h 6.483 v 22.709 c -2.109,0 -4.249,0 -6.483,0 0,-7.54 0,-15.094 0,-22.709 z"
           id="path104" />
      </g>
      <g
         fill="#1a1a1a"
         stroke-width="0.264583"
         transform="matrix(0.32474437,0,0,0.32474437,4.0109641,45.490838)"
         id="g106">
        <path
           d="m 24.337992,164.63432 c -4.75095,-0.79529 -9.283423,-4.21569 -11.370444,-8.58062 -0.58296,-1.21924 -1.081728,-2.79254 -1.228637,-3.57638 -0.01972,-0.10524 -0.104287,-0.42453 -0.122377,-0.68882 -0.01809,-0.26428 -0.0681,-0.53916 -0.08432,-0.94913 -0.01622,-0.40997 -0.03144,-0.88945 -0.04555,-1.43174 -0.01411,-0.5423 -0.02711,-1.14742 -0.03887,-1.80868 -0.01176,-0.66126 -0.02229,-1.37866 -0.03147,-2.14552 -0.0092,-0.76687 -0.01701,-1.58319 -0.02336,-2.44229 -0.0064,-0.8591 -0.01124,-1.76099 -0.01454,-2.69897 -0.0033,-0.93798 -0.005,-1.91205 -0.005,-2.91555 v -13.58993 h 15.490814 15.490814 l -0.0796,14.35364 -0.0099,1.79421 -0.01,1.7942 -0.0099,1.79421 -0.01,1.79421 -0.0099,1.7942 -0.01,1.79421 -0.03309,1.60866 -0.18195,1.97577 -0.202645,0.87065 -0.295413,0.91703 c -0.219789,0.68228 -0.498221,1.31442 -0.788705,1.94035 -0.290485,0.62594 -0.639404,1.24566 -1.000169,1.81033 -0.360764,0.56467 -0.802949,1.07429 -1.233579,1.57278 -0.43063,0.49848 -0.89609,0.96266 -1.396171,1.39005 -0.50008,0.42739 -0.935162,0.84325 -1.485435,1.20028 -0.550273,0.35703 -1.122969,0.67842 -1.712741,0.96326 -0.589772,0.28484 -1.19662,0.53313 -1.815197,0.74394 -0.618578,0.21082 -1.248884,0.38417 -1.885573,0.51913 -0.82463,0.1748 -1.920528,0.28517 -2.993206,0.32123 -1.072677,0.0361 -2.122134,-0.002 -2.85388,-0.12471 z m 5.632148,-0.73607 c 5.568817,-1.18002 10.263957,-5.88988 11.450157,-11.48606 0.28946,-1.36558 0.37202,-4.64351 0.3756,-14.91332 l 0.005,-13.16302 H 26.851534 11.902576 v 13.43817 c 0,14.79936 0.01922,15.01186 1.6565,18.31183 1.192003,2.40252 4.23256,5.40445 6.660752,6.57614 3.22187,1.55467 6.366203,1.95334 9.750312,1.23626 z m -5.764439,-0.65631 c -4.934826,-1.0699 -8.950007,-4.58769 -10.779809,-9.44444 -0.568899,-1.51 -0.585382,-1.88183 -0.669733,-15.108 l -0.08648,-13.5599 h 14.181855 14.181853 l -0.081,13.5599 -0.01013,1.69499 -0.01013,1.69499 -0.01012,1.69498 -0.01013,1.69499 -0.01013,1.69499 -0.01012,1.69499 -0.01013,1.69498 -0.206915,1.59659 -0.47391,1.82218 c -0.191895,0.73783 -0.574061,1.36809 -0.877743,2.02147 -0.303681,0.65338 -0.660072,1.23148 -1.062803,1.7994 -0.402732,0.56792 -0.712652,0.88017 -1.201697,1.36164 -0.489044,0.48147 -1.031646,0.99302 -1.594267,1.38704 -0.562621,0.39402 -1.15322,0.88885 -1.77668,1.19442 -0.623461,0.30558 -1.274157,0.65945 -1.945721,0.87557 -0.671563,0.21613 -1.363994,0.38729 -2.070924,0.51297 -0.706929,0.12568 -1.428358,0.2059 -2.157917,0.24014 -1.236927,0.0581 -2.725208,0.002 -3.307291,-0.12389 z m 6.800216,-1.30552 c 5.24323,-1.81286 8.69278,-6.33068 9.11362,-11.93598 0.28595,-3.80851 -1.02877,-7.40259 -3.77136,-10.30988 -2.59383,-2.7496 -5.92171,-4.24221 -9.458309,-4.24221 -6.207602,0 -11.74347,4.40066 -13.018978,10.34924 -1.017473,4.74519 0.117239,9.0728 3.255997,12.41787 1.974371,2.10414 3.850007,3.25889 6.425721,3.95602 2.378867,0.64385 5.165465,0.55596 7.453309,-0.23506 z m -8.053825,-0.80351 c -4.02493,-1.29884 -7.714324,-5.38391 -8.294588,-9.18415 -0.164772,-1.07912 -0.153242,-1.09896 0.826517,-1.42231 1.377527,-0.45463 3.665715,-0.18556 5.414388,0.63666 2.024931,0.95213 3.745576,0.92262 6.085417,-0.10434 2.030385,-0.89114 3.706241,-1.02108 5.187401,-0.40222 0.68883,0.28782 0.90197,0.51561 0.80458,0.8599 -0.0729,0.2576 -0.21418,1.00414 -0.31403,1.65899 -0.24346,1.59676 -0.5024,1.84749 -1.94004,1.87846 -0.673401,0.0145 -1.522026,0.11338 -1.885828,0.21973 -0.648807,0.18966 -0.644864,0.19718 0.206164,0.39322 0.831526,0.19155 0.860352,0.24019 0.692854,1.16933 -0.236589,1.3124 -0.20356,1.28132 -1.581472,1.48795 -1.424775,0.21366 -1.345367,0.4455 0.224347,0.65501 l 1.119565,0.14942 v 1.19063 1.19062 l -2.513541,0.0565 c -1.848474,0.0416 -2.915246,-0.0731 -4.031734,-0.43341 z m 6.1484,-0.77964 c 0,-0.71308 -0.08215,-0.77056 -1.33983,-0.93739 -1.188038,-0.1576 -1.330421,-0.2439 -1.256771,-0.76169 0.06642,-0.46695 0.337511,-0.6331 1.35289,-0.82918 1.156765,-0.22339 1.262778,-0.30584 1.190625,-0.92604 -0.05514,-0.47396 -0.260085,-0.70651 -0.674518,-0.76537 -0.425187,-0.0604 -0.595312,-0.26288 -0.595312,-0.70857 0,-0.64638 0.06796,-0.66555 3.571871,-1.00735 0.42151,-0.0411 0.57757,-0.33696 0.76706,-1.45414 0.2935,-1.73038 0.10785,-1.95397 -1.74993,-2.10767 -1.133138,-0.0937 -1.699487,0.0245 -2.985876,0.62348 -1.068208,0.49737 -2.158307,0.77486 -3.332481,0.84829 -1.512976,0.0946 -1.993774,-6e-5 -3.616223,-0.71216 -1.9376,-0.85042 -3.452275,-1.02842 -4.703423,-0.55273 -0.843415,0.32067 -0.785833,0.791 0.414187,3.38311 1.335232,2.88419 4.728991,5.69482 7.740526,6.41053 0.468369,0.11131 1.833846,0.21457 3.034393,0.22947 l 2.182812,0.0271 z m 1.058334,0.66045 c 0,-0.20009 0.07215,-0.72457 0.160341,-1.16551 0.14256,-0.71281 0.28192,-0.81397 1.25677,-0.91228 1.06772,-0.10768 1.48089,0.10968 1.48925,0.78349 0.002,0.17945 -0.5873,0.62593 -1.31007,0.99219 -1.52542,0.77299 -1.596291,0.7864 -1.596291,0.30211 z m 1.653641,-0.95016 c 0.94638,-0.47209 0.92744,-0.74039 -0.0422,-0.59807 -0.47311,0.0694 -0.82052,0.30686 -0.90136,0.616 -0.0724,0.27666 -0.0533,0.46747 0.0422,0.42402 0.0956,-0.0434 0.50118,-0.24232 0.90136,-0.44195 z m 1.66517,-2.05948 c 0.10226,-0.98226 0.22302,-1.82776 0.26835,-1.87888 0.18099,-0.20412 3.43769,-0.49333 3.62606,-0.32202 0.22855,0.20786 -3.37677,3.98684 -3.80362,3.98684 -0.18361,0 -0.21416,-0.60096 -0.0908,-1.78594 z m 1.74401,-0.39687 1.07287,-1.12448 -0.70895,-0.0859 c -1.11179,-0.13468 -1.39105,0.0991 -1.50146,1.25681 -0.0565,0.59291 -0.0651,1.07802 -0.0191,1.07802 0.0461,0 0.56653,-0.50601 1.15661,-1.12448 z m -4.04049,0.67586 c -0.53036,-0.0836 -0.73639,-0.30447 -0.8599,-0.92204 -0.280686,-1.40343 -0.218649,-1.54002 0.69746,-1.53571 1.20016,0.006 1.4525,0.23934 1.55992,1.44454 0.10047,1.12738 -0.0375,1.22744 -1.39748,1.01321 z m 0.78201,-1.20503 c -0.0838,-0.59001 -1.27518,-1.06002 -1.27518,-0.50306 0,0.62767 0.36018,1.09837 0.84046,1.09837 0.38716,0 0.49776,-0.15145 0.43472,-0.59531 z m 3.48732,-2.03244 -1.71979,-0.15037 -0.20799,-1.68819 c -0.11439,-0.92851 -0.14797,-1.74821 -0.0746,-1.82155 0.0734,-0.0734 0.49409,0.0161 0.93498,0.19868 0.82536,0.34187 3.41017,0.26147 4.34818,-0.13524 0.44625,-0.18874 0.48145,-0.12823 0.31387,0.53948 -0.27993,1.11532 -1.30645,3.14011 -1.61024,3.17616 -0.14552,0.0173 -1.03849,-0.0363 -1.98438,-0.11897 z m 2.53514,-1.73787 c 0.20202,-0.58208 0.3686,-1.05833 0.37016,-1.05833 h -2.17883 -2.18167 l 0.0937,1.13594 0.0937,1.13594 1.71781,-0.0776 1.71782,-0.0776 z m -17.458143,-3.07894 c -1.583642,-0.70595 -2.040381,-0.7962 -3.439583,-0.67968 -0.887397,0.0739 -1.881341,0.21957 -2.208763,0.32371 -0.978563,0.31123 -0.702786,-0.38364 0.322231,-0.81192 1.520346,-0.63525 3.393027,-0.48474 5.5056,0.44247 1.632197,0.71638 2.094035,0.80777 3.483931,0.6894 0.920285,-0.0784 2.221706,-0.4288 3.057509,-0.82327 1.97625,-0.93272 3.727558,-0.92348 5.746848,0.0303 1.61161,0.76126 4.15019,0.98636 5.69638,0.50511 1.08813,-0.33868 0.93006,0.30248 -0.18994,0.77044 -1.46467,0.61198 -3.44589,0.48662 -5.14234,-0.32536 -2.27629,-1.08953 -4.015466,-1.12085 -6.310244,-0.11367 -2.493814,1.09454 -4.053344,1.09273 -6.521629,-0.008 z m 0,-1.57079 c -1.594721,-0.72548 -2.030592,-0.81373 -3.439583,-0.69639 -0.887397,0.0739 -1.881341,0.21957 -2.208763,0.32371 -0.978563,0.31123 -0.702786,-0.38364 0.322231,-0.81192 1.518267,-0.63438 3.393236,-0.48465 5.497744,0.43903 2.235218,0.98104 4.025026,0.9721 6.152421,-0.0307 0.770893,-0.36339 2.003922,-0.67096 2.954935,-0.7371 1.393468,-0.0969 1.857548,-0.004 3.174998,0.63888 1.20781,0.58893 1.91656,0.75323 3.26277,0.75639 0.94589,0.002 2.04722,-0.0979 2.4474,-0.22243 1.12382,-0.34978 0.91213,0.30997 -0.25607,0.79808 -1.32973,0.55559 -3.61502,0.36874 -5.11766,-0.41844 -0.69441,-0.36378 -1.83804,-0.66964 -2.79708,-0.74807 -1.38259,-0.11307 -1.851841,-0.0256 -3.174998,0.59147 -1.019946,0.47571 -2.142662,0.7626 -3.27242,0.83621 -1.501021,0.0978 -1.95209,0.006 -3.545925,-0.7187 z m 1.538455,-1.01111 c -1.292398,-0.32884 -1.365037,-0.4437 -1.225624,-1.93801 0.208738,-2.23737 0.418953,-2.58524 1.5729,-2.60286 1.326808,-0.0203 3.414697,-0.44027 2.403413,-0.48349 -0.911207,-0.0389 -1.003873,-0.21347 -0.824275,-1.55248 0.143139,-1.06718 0.183631,-1.10674 1.305015,-1.2749 1.452715,-0.21785 1.512638,-0.64263 0.09065,-0.64263 -1.145949,0 -1.266846,-0.1386 -1.376848,-1.57843 l -0.07006,-0.91697 1.446395,-0.23681 c 1.902199,-0.31145 4.69421,0.1491 6.755692,1.11437 3.08751,1.4457 5.65798,4.47918 6.62263,7.81556 0.42269,1.46196 0.42351,1.58922 0.0122,1.88998 -0.60555,0.44278 -2.64467,0.71873 -3.6713,0.49682 -0.46578,-0.10068 -1.42315,-0.47348 -2.12749,-0.82845 -1.77386,-0.89398 -4.054779,-0.8877 -6.031789,0.0166 -1.611552,0.73714 -3.641416,1.03724 -4.881529,0.7217 z m 4.768668,-1.2828 c 1.917072,-0.96263 4.55099,-0.92905 6.48592,0.0827 1.43996,0.75294 3.11184,0.96334 4.54991,0.57259 0.64739,-0.17591 0.68418,-0.26109 0.48816,-1.13021 -1.20235,-5.33108 -7.12295,-9.57383 -12.516807,-8.96966 -1.206523,0.13515 -1.506545,0.25672 -1.389063,0.56288 0.08242,0.21477 0.149849,0.55935 0.149849,0.76573 0,0.24832 0.296102,0.37524 0.875472,0.37524 1.092295,0 1.915965,0.56185 1.689363,1.15236 -0.107486,0.2801 -0.476306,0.43658 -1.035177,0.43919 -1.100324,0.005 -1.404606,0.21477 -1.626252,1.12043 -0.164561,0.6724 -0.117468,0.7276 0.62072,0.7276 0.614306,0 0.79879,0.11861 0.79879,0.51355 0,0.69846 -0.17973,0.7732 -2.343047,0.97425 -1.858264,0.17271 -1.88226,0.18473 -2.039237,1.02149 -0.30258,1.61289 -0.06374,2.36565 0.810409,2.55418 1.233097,0.26595 3.048131,-0.0428 4.48099,-0.76231 z m -12.15042,-0.34827 c 0.107399,-0.48899 0.417912,-1.40847 0.690027,-2.04329 l 0.494755,-1.15421 1.522532,0.16539 c 2.664948,0.28949 2.713158,0.31259 2.713158,1.30015 0,0.48836 0.07841,1.27999 0.174246,1.75916 0.15684,0.7842 0.123802,0.85003 -0.330729,0.659 -1.390281,-0.5843 -3.586931,-0.58646 -4.966493,-0.005 -0.443011,0.18676 -0.47305,0.11797 -0.297496,-0.68133 z m 3.686971,-0.31564 1.204334,0.13574 v -1.09274 c 0,-1.06475 -0.02287,-1.09274 -0.892968,-1.09274 -0.491133,0 -1.247556,-0.0709 -1.680939,-0.1576 -0.727421,-0.14548 -0.821453,-0.0739 -1.223698,0.9314 -0.597055,1.49219 -0.565601,1.58101 0.476605,1.34596 0.501783,-0.11317 1.454283,-0.14468 2.116666,-0.07 z m -1.799148,-3.90953 c 0.538588,-0.92554 3.152218,-3.43188 3.578799,-3.43188 0.304019,0 0.03974,2.49867 -0.340915,3.22323 -0.263403,0.50137 -0.612358,0.62642 -2.444134,0.87582 l -1.28369,0.17478 z m 2.528005,-0.32302 c 0.390328,-0.3078 0.821187,-2.05053 0.506955,-2.05053 -0.228528,0 -2.148144,1.93948 -2.148144,2.17037 0,0.33201 1.177178,0.24605 1.641189,-0.11984 z m 2.056429,0.18121 c -0.141919,-0.37328 -0.258035,-0.98381 -0.258035,-1.35673 0,-0.64858 0.04845,-0.67031 1.114546,-0.49983 0.613,0.098 1.14333,0.20701 1.17851,0.24219 0.03518,0.0352 0.144164,0.5655 0.242186,1.1785 l 0.178223,1.11455 h -1.098698 c -0.935928,0 -1.136925,-0.10054 -1.356732,-0.67868 z m 1.660442,-0.50338 c -0.06864,-0.3591 -0.358764,-0.72716 -0.644708,-0.81791 -0.684092,-0.21713 -0.806289,-0.0577 -0.596504,0.77813 0.123174,0.49076 0.347607,0.69267 0.769936,0.69267 0.49107,0 0.574097,-0.11502 0.471276,-0.65289 z m -2.005602,-2.29753 c -0.08356,-0.31954 -0.08278,-0.69288 0.0017,-0.82964 0.211948,-0.34294 2.47746,-1.32439 2.652675,-1.14917 0.184652,0.18465 -0.149395,1.96782 -0.394726,2.10708 -0.103504,0.0588 -0.620092,0.18465 -1.147973,0.27977 -0.839078,0.1512 -0.978891,0.0999 -1.111716,-0.40804 z m 2.022806,-0.78026 c 0.158735,-0.607 0.103744,-0.61312 -0.890487,-0.099 -0.996687,0.51541 -1.001889,0.86007 -0.01078,0.71461 0.472877,-0.0694 0.820529,-0.30687 0.901271,-0.61563 z m 17.643487,-2.35473 V 125.65877 H 26.851534 13.225493 l 0.0089,9.98802 0.0089,9.98802 0.533334,-1.55055 c 0.902448,-2.62366 2.4462,-4.67702 4.842539,-6.4411 2.655552,-1.95491 4.946768,-2.71592 8.191723,-2.72083 5.294898,-0.008 9.914908,2.88036 12.332168,7.7099 0.58851,1.1758 1.07001,2.36215 1.07001,2.63635 0,0.27419 0.0595,0.49852 0.13229,0.49852 0.0728,0 0.13229,-4.52437 0.13229,-10.05416 z"
           id="path105" />
        <path
           d="m 37.107155,133.10738 c -0.626273,-0.0918 -0.712303,-0.11433 -0.774037,-0.20247 -0.09858,-0.14075 -0.09295,-1.37003 0.0067,-1.46971 0.04282,-0.0428 0.106637,-0.0611 0.16119,-0.0462 0.41148,0.11241 0.807585,0.16272 1.115112,0.14164 0.385029,-0.0264 0.556759,-0.11577 0.578995,-0.30137 0.01569,-0.13104 -0.04975,-0.16943 -0.787101,-0.46167 -0.374644,-0.14849 -0.519622,-0.23149 -0.698181,-0.39972 -0.711683,-0.6705 -0.684711,-1.97501 0.05615,-2.71587 0.431072,-0.43108 0.880483,-0.56189 1.695142,-0.49342 0.271876,0.0228 0.536459,0.0418 0.587963,0.0422 0.205368,0.002 0.228738,0.085 0.228738,0.81739 0,0.57595 -0.01098,0.6926 -0.07089,0.75249 -0.0442,0.0442 -0.104885,0.0609 -0.161191,0.0442 -0.453558,-0.13397 -1.110877,-0.12123 -1.267362,0.0246 -0.197704,0.18419 -0.09893,0.31111 0.381849,0.4907 0.853538,0.31881 1.184243,0.54638 1.393155,0.95864 0.304738,0.60138 0.240246,1.45177 -0.155395,2.04908 -0.174163,0.26294 -0.558784,0.546 -0.903465,0.66492 -0.266749,0.092 -1.063425,0.15206 -1.387406,0.10456 z m -22.6293,-0.17531 c -0.08689,-0.0608 -0.08782,-0.0906 -0.08717,-2.79931 3.9e-4,-1.64762 0.01687,-2.76348 0.04136,-2.80228 0.07946,-0.12587 2.010794,-0.17575 2.484124,-0.0642 0.801283,0.18891 1.351082,0.78809 1.533498,1.67122 0.124692,0.60367 0.05496,1.14449 -0.219526,1.7027 -0.366011,0.74433 -1.032863,1.15096 -1.920214,1.17092 l -0.372472,0.008 -0.0026,0.36675 c -0.004,0.58233 -0.02044,0.69715 -0.108886,0.76182 -0.11561,0.0845 -1.223403,0.0713 -1.348181,-0.0161 z m 1.822239,-2.63948 c 0.412533,-0.10388 0.614834,-0.42864 0.573969,-0.92142 -0.03398,-0.40974 -0.256224,-0.61891 -0.695024,-0.65412 l -0.284564,-0.0229 v 0.2355 c 0,0.12953 0.01267,0.49969 0.02815,0.82259 0.03162,0.65931 0.01265,0.63216 0.377463,0.5403 z m 2.627834,2.64425 c -0.05999,-0.06 -0.06755,-0.37439 -0.06755,-2.81239 0,-2.438 0.0076,-2.7524 0.06755,-2.8124 0.05529,-0.0553 0.182413,-0.0675 0.700642,-0.0675 0.435095,0 0.649227,0.0161 0.684676,0.0516 0.0371,0.0371 0.05158,0.32668 0.05158,1.03161 v 0.98005 h 0.537302 0.537301 v -0.96408 c 0,-0.81912 0.01016,-0.97423 0.06755,-1.03162 0.05533,-0.0553 0.181599,-0.0674 0.698492,-0.0669 0.34702,3.3e-4 0.657327,0.0174 0.689572,0.0378 0.04856,0.0308 0.05838,0.51597 0.05717,2.82361 -0.0014,2.61592 -0.0061,2.78987 -0.07759,2.84213 -0.120174,0.0879 -1.277955,0.0778 -1.36765,-0.0118 -0.05768,-0.0577 -0.06755,-0.21935 -0.06755,-1.10684 l -1e-5,-1.0393 -0.537292,-0.004 -0.537293,-0.004 v 1.04336 c 0,0.8912 -0.0099,1.05321 -0.06755,1.11091 -0.09945,0.0994 -1.269899,0.0994 -1.369352,0 z m 5.013182,0.016 c -0.03906,-0.0391 -0.05158,-0.73161 -0.05158,-2.85385 0,-2.51564 0.0069,-2.80493 0.06799,-2.82835 0.0374,-0.0143 0.345501,-0.0261 0.684676,-0.0261 0.503309,0 0.629102,0.0124 0.684231,0.0676 0.05999,0.06 0.06755,0.37439 0.06755,2.81239 0,2.438 -0.0076,2.7524 -0.06755,2.8124 -0.0553,0.0553 -0.182413,0.0676 -0.700641,0.0676 -0.435095,0 -0.649227,-0.0161 -0.684676,-0.0516 z m 2.423077,-0.016 c -0.06001,-0.06 -0.06755,-0.37584 -0.06755,-2.82836 0,-2.08998 0.01252,-2.77334 0.05158,-2.81239 0.08063,-0.0806 1.339884,-0.0715 1.407701,0.0103 0.03835,0.0462 0.05019,0.58442 0.04681,2.12954 l -0.0045,2.0677 0.60049,-0.006 c 0.330269,-0.003 0.621055,0.007 0.64619,0.0222 0.02918,0.018 0.0457,0.27541 0.0457,0.71194 0,0.63196 -0.0063,0.68706 -0.08314,0.72819 -0.05183,0.0277 -0.552536,0.0445 -1.32944,0.0445 -1.075683,0 -1.255542,-0.009 -1.313841,-0.0676 z m 3.184704,0.0135 c -0.06859,-0.0501 -0.07412,-0.25478 -0.07617,-2.81762 -0.0017,-2.09319 0.01033,-2.77865 0.04951,-2.82585 0.07882,-0.095 1.2965,-0.0904 1.392126,0.005 0.05999,0.06 0.06755,0.37272 0.06755,2.79397 0,2.66911 -0.0018,2.72823 -0.08597,2.81239 -0.07767,0.0777 -0.14328,0.086 -0.67953,0.086 -0.409054,0 -0.616553,-0.0168 -0.667523,-0.0541 z m 2.464641,0.0228 c -0.03546,-0.0135 -0.07869,-0.0458 -0.09606,-0.0719 -0.04787,-0.0717 -0.03896,-5.49457 0.0091,-5.57075 0.08101,-0.12826 2.006292,-0.17679 2.490025,-0.0628 0.908604,0.21417 1.499714,0.97117 1.57621,2.01854 0.05182,0.70952 -0.209317,1.45882 -0.668628,1.91854 -0.402873,0.40324 -0.89634,0.596 -1.551842,0.6062 l -0.384224,0.006 0.0038,0.53143 c 0.0026,0.35601 -0.01319,0.55198 -0.04782,0.5937 -0.04094,0.0493 -0.17802,0.0616 -0.658951,0.0589 -0.333992,-0.002 -0.636274,-0.0145 -0.671736,-0.028 z m 1.831508,-2.69715 c 0.366825,-0.10894 0.532621,-0.3625 0.532621,-0.8146 0,-0.46719 -0.290673,-0.75534 -0.761956,-0.75534 h -0.219002 l 0.0013,0.8167 0.0013,0.81671 h 0.115988 c 0.06379,0 0.212158,-0.0286 0.329701,-0.0635 z"
           id="path106" />
      </g>
      <path
         d="m 92.348,108.782 c -9.062,0 -16.435,-7.373 -16.435,-16.435 0,-9.062 7.373,-16.434 16.435,-16.434 9.062,0 16.435,7.373 16.435,16.434 0,9.063 -7.373,16.435 -16.435,16.435 z m 15.075,-16.434 c 0,-8.312 -6.762,-15.074 -15.074,-15.074 -8.312,0 -15.073,6.762 -15.073,15.074 0,8.312 6.762,15.074 15.073,15.074 8.312,0 15.074,-6.762 15.074,-15.074 z"
         fill="#6c5353"
         fill-opacity="0.913725"
         id="path107" />
      <path
         d="m 92.348,103.436 v -0.15 a 10.9,10.9 0 0 1 -7.73,-3.207 10.908,10.908 0 0 1 -3.208,-7.731 c 0,-3.016 1.227,-5.749 3.208,-7.73 a 10.902,10.902 0 0 1 7.73,-3.207 10.9,10.9 0 0 1 7.73,3.207 10.907,10.907 0 0 1 3.208,7.73 c 0,3.016 -1.227,5.749 -3.208,7.731 a 10.902,10.902 0 0 1 -7.73,3.207 v 0.3 c 6.196,0 11.238,-5.041 11.238,-11.238 0,-6.196 -5.041,-11.237 -11.238,-11.237 -6.196,0 -11.238,5.041 -11.238,11.237 0,6.197 5.041,11.238 11.238,11.238 z"
         fill="#bcbcbc"
         id="path108" />
      <g
         transform="matrix(0.63520083,0,0,0.63520083,81.7736,112.03566)"
         id="g127">
        <path
           d="m 32.491,24.145 a 0.68,0.68 0 0 0 0.68,-0.68 v -5.818 a 0.68,0.68 0 0 0 -0.68,-0.68 H 0.796 a 0.68,0.68 0 0 0 -0.68,0.68 v 5.818 c 0,0.375 0.305,0.68 0.68,0.68 z"
           id="path109" />
        <path
           d="m 11.267,19.85 c -0.298,-0.312 -0.717,-0.478 -1.212,-0.478 -0.452,0 -0.847,0.159 -1.144,0.46 -0.375,0.38 -0.585,0.977 -0.575,1.636 -0.009,0.608 0.18,1.14 0.53,1.495 0.301,0.306 0.712,0.467 1.189,0.467 0.919,0 1.533,-0.514 1.682,-1.409 l 0.009,-0.055 H 11.37 l -0.007,0.039 c -0.129,0.682 -0.619,1.088 -1.309,1.088 -0.361,0 -0.663,-0.121 -0.897,-0.36 C 8.872,22.444 8.712,21.991 8.71,21.486 h 3.054 l 0.002,-0.045 C 11.798,20.785 11.62,20.22 11.267,19.85 Z"
           fill="#ffffff"
           id="path110" />
        <path
           d="m 10.054,19.71 c -0.788,0 -1.264,0.715 -1.339,1.438 h 2.674 C 11.356,20.425 10.896,19.71 10.054,19.71 Z"
           id="path111" />
        <path
           d="M 1.336,17.987 H 1.289 v 5.354 H 1.707 V 17.987 H 1.66 Z m 2.946,1.385 c -0.577,0 -1.085,0.296 -1.323,0.752 V 19.461 H 2.584 v 3.88 h 0.374 v -2.095 c 0,-0.492 0.15,-0.914 0.424,-1.188 0.229,-0.228 0.538,-0.348 0.892,-0.348 0.322,0 0.572,0.086 0.742,0.256 0.257,0.257 0.286,0.656 0.286,0.935 v 2.441 h 0.375 v -2.389 c 0,-0.277 0,-0.855 -0.374,-1.228 C 5.07,19.49 4.727,19.372 4.282,19.372 Z m 2.882,0.089 V 18.282 H 6.789 v 1.179 H 6.09 v 0.337 h 0.699 v 2.598 c -0.012,0.334 0.062,0.574 0.226,0.732 0.233,0.227 0.615,0.233 0.923,0.213 L 7.982,23.339 V 23.003 L 7.933,23.004 C 7.624,23.013 7.421,22.995 7.301,22.878 7.207,22.787 7.164,22.634 7.164,22.396 v -2.598 h 0.824 v -0.337 z m 7.06,-0.023 c -0.607,-0.026 -1.195,0.283 -1.428,0.727 V 19.46 h -0.374 v 3.88 h 0.374 v -2.117 c 0.03,-0.571 0.151,-0.789 0.414,-1.057 a 1.232,1.232 0 0 1 1.006,-0.354 l 0.054,0.007 V 19.44 Z"
           fill="#ffffff"
           id="path112" />
        <path
           d="m 17.853,22.982 a 1.217,1.217 0 0 1 -0.199,0.021 c -0.059,0 -0.103,-0.015 -0.133,-0.045 -0.07,-0.07 -0.07,-0.22 -0.07,-0.364 v -2.188 c 0,-0.285 -0.086,-0.517 -0.257,-0.687 -0.23,-0.231 -0.605,-0.348 -1.116,-0.348 -0.938,0 -1.453,0.449 -1.491,1.298 l -0.002,0.049 h 0.374 l 0.002,-0.044 c 0.035,-0.613 0.442,-0.965 1.117,-0.965 0.347,0 0.616,0.093 0.8,0.277 a 0.677,0.677 0 0 1 0.206,0.419 c 0,0.565 0,0.652 -1.26,0.741 -0.617,0.051 -1.436,0.228 -1.436,1.167 0,0.332 0.094,0.595 0.281,0.782 0.222,0.221 0.569,0.333 1.033,0.333 0.714,0 1.166,-0.356 1.375,-0.713 v 0.025 c 0,0.162 0.016,0.345 0.136,0.465 0.091,0.091 0.228,0.134 0.42,0.134 0.071,0 0.142,-0.013 0.216,-0.026 l 0.02,-0.003 0.039,-0.007 v -0.331 z"
           fill="#ffffff"
           id="path113" />
        <path
           d="m 16.182,21.442 a 7.795,7.795 0 0 0 -0.424,0.042 c -0.698,0.078 -0.996,0.326 -0.996,0.83 0,0.208 0.071,0.389 0.206,0.523 0.167,0.166 0.423,0.254 0.741,0.254 1.33,0 1.367,-1.229 1.367,-1.242 v -0.604 c -0.199,0.138 -0.538,0.167 -0.894,0.197 z"
           id="path114" />
        <path
           d="m 21.278,21.914 h -0.042 l -0.005,0.041 c -0.095,0.681 -0.605,1.138 -1.272,1.138 -0.391,0 -0.711,-0.122 -0.95,-0.361 -0.302,-0.302 -0.461,-0.774 -0.461,-1.367 0,-0.508 0.175,-0.974 0.48,-1.279 0.246,-0.245 0.567,-0.375 0.931,-0.375 0.716,0 1.188,0.373 1.235,0.973 l 0.003,0.044 h 0.376 l -0.005,-0.052 c -0.077,-0.815 -0.679,-1.303 -1.609,-1.303 -1.051,0 -1.785,0.819 -1.785,1.992 0,0.669 0.2,1.238 0.563,1.602 0.308,0.308 0.719,0.464 1.222,0.464 0.877,0 1.522,-0.574 1.646,-1.462 l 0.008,-0.053 h -0.335 z m 1.644,-2.453 v -1.179 h -0.374 v 1.179 h -0.7 v 0.337 h 0.7 v 2.598 c -0.012,0.334 0.062,0.574 0.225,0.732 0.233,0.227 0.616,0.233 0.923,0.213 l 0.045,-0.002 v -0.336 l -0.049,0.001 c -0.31,0.009 -0.512,-0.009 -0.632,-0.126 -0.094,-0.091 -0.138,-0.244 -0.138,-0.482 v -2.598 h 0.825 v -0.337 z m 1.454,0 h -0.047 v 3.88 h 0.374 v -3.88 h -0.047 z m 0,-1.474 h -0.047 v 0.854 h 0.374 v -0.854 h -0.047 z m 4.14,1.474 h -0.342 l -0.012,0.03 -1.246,3.366 -1.332,-3.367 -0.012,-0.029 h -0.426 l 0.026,0.064 1.524,3.787 0.012,0.029 h 0.411 l 0.012,-0.03 1.429,-3.787 0.024,-0.063 z"
           fill="#ffffff"
           id="path115" />
        <path
           d="m 31.724,19.85 c -0.298,-0.312 -0.717,-0.478 -1.213,-0.478 -0.451,0 -0.848,0.159 -1.144,0.46 -0.375,0.38 -0.585,0.977 -0.576,1.636 -0.008,0.608 0.18,1.14 0.53,1.495 0.302,0.306 0.713,0.467 1.189,0.467 0.92,0 1.533,-0.514 1.683,-1.409 l 0.009,-0.055 h -0.375 l -0.007,0.039 c -0.129,0.682 -0.619,1.088 -1.31,1.088 -0.36,0 -0.662,-0.121 -0.896,-0.36 -0.285,-0.289 -0.445,-0.742 -0.447,-1.247 h 3.054 l 0.002,-0.045 C 32.254,20.785 32.077,20.22 31.724,19.85 Z"
           fill="#ffffff"
           id="path116" />
        <path
           d="m 30.511,19.71 c -0.788,0 -1.264,0.715 -1.339,1.438 h 2.674 C 31.813,20.425 31.353,19.71 30.511,19.71 Z M 13.728,15.538 c 0.197,0 0.357,-0.16 0.357,-0.357 V 4.487 A 0.357,0.357 0 0 0 13.728,4.13 h -3.154 a 0.357,0.357 0 0 0 -0.357,0.357 v 10.694 c 0,0.197 0.16,0.357 0.357,0.357 z"
           id="path117" />
        <path
           d="M 13.226,14.894 A 0.214,0.214 0 0 0 13.44,14.68 V 4.99 A 0.214,0.214 0 0 0 13.226,4.776 h -2.15 A 0.215,0.215 0 0 0 10.861,4.99 v 9.69 c 0,0.118 0.097,0.214 0.215,0.214 z"
           fill="#ffffff"
           id="path118" />
        <path
           d="M 0,6.201 C 0,5.058 0.926,4.132 2.069,4.132 L 4.992,4.13 A 0.214,0.214 0 0 0 5.206,3.916 V 0.619 c 0,-0.197 0.16,-0.357 0.357,-0.357 h 3.154 c 0.197,0 0.357,0.16 0.357,0.357 v 14.562 c 0,0.197 -0.16,0.357 -0.357,0.357 L 2.069,15.537 A 2.07,2.07 0 0 1 0,13.468 Z"
           id="path119" />
        <path
           d="M 8.216,14.894 A 0.215,0.215 0 0 0 8.431,14.68 V 1.121 A 0.214,0.214 0 0 0 8.216,0.907 H 6.066 A 0.214,0.214 0 0 0 5.852,1.121 L 5.851,4.418 c 0,0.197 -0.16,0.356 -0.357,0.356 L 2.069,4.775 c -0.794,0 -1.426,0.631 -1.426,1.426 v 7.267 c 0,0.794 0.631,1.425 1.426,1.425 z"
           fill="#ffffff"
           id="path120" />
        <path
           d="m 3.215,7.206 a 1.322,1.322 0 0 1 2.643,0 v 5.332 a 1.3215,1.3215 0 0 1 -2.643,0 z"
           id="path121" />
        <path
           d="m 3.87,7.206 a 0.667,0.667 0 0 1 1.333,0 v 5.332 a 0.6665,0.6665 0 0 1 -1.333,0 z"
           fill="#ffffff"
           id="path122" />
        <path
           d="m 18.821,7.155 a 0.447,0.447 0 1 0 0,0.894 l 2.685,-0.003 c 1.163,0 2.104,0.942 2.104,2.104 v 3.286 A 2.104,2.104 0 0 1 21.506,15.54 L 15.384,15.537 A 0.356,0.356 0 0 1 15.028,15.18 v -2.31 c 0,-0.197 0.16,-0.357 0.356,-0.357 l 4.442,-0.003 a 0.556,0.556 0 1 0 0,-1.11 H 17.129 A 2.104,2.104 0 0 1 15.025,9.296 V 6.232 c 0,-1.162 0.942,-2.104 2.104,-2.104 l 5.737,0.002 c 0.197,0 0.357,0.16 0.357,0.357 v 2.312 c 0,0.197 -0.16,0.357 -0.357,0.357 z"
           id="path123" />
        <path
           d="m 17.129,4.776 c -0.804,0 -1.456,0.652 -1.456,1.456 v 3.063 c 0,0.804 0.652,1.456 1.456,1.456 l 2.697,0.003 a 1.201,1.201 0 0 1 0,2.402 l -3.94,10e-4 a 0.214,0.214 0 0 0 -0.214,0.214 v 1.308 c 0,0.118 0.096,0.214 0.214,0.214 l 5.62,-0.002 c 0.804,0 1.456,-0.651 1.456,-1.455 V 10.15 c 0,-0.804 -0.652,-1.456 -1.456,-1.456 L 18.821,8.691 a 1.09,1.09 0 0 1 -1.096,-1.09 c 0,-0.605 0.491,-1.096 1.096,-1.096 L 22.352,6.51 A 0.214,0.214 0 0 0 22.566,6.296 V 4.989 A 0.214,0.214 0 0 0 22.352,4.775 Z"
           fill="#ffffff"
           id="path124" />
        <path
           d="M 33.23,10.737 A 0.357,0.357 0 0 0 32.873,10.38 h -2.906 a 0.357,0.357 0 0 0 -0.357,0.357 l -0.004,1.708 a 0.715,0.715 0 1 1 -1.43,0 V 7.273 a 0.715,0.715 0 1 1 1.43,0 l 0.004,1.361 c 0,0.197 0.16,0.357 0.357,0.357 h 2.906 c 0.197,0 0.357,-0.16 0.357,-0.357 L 33.233,6.232 A 2.104,2.104 0 0 0 31.129,4.128 h -4.477 a 2.104,2.104 0 0 0 -2.104,2.104 v 7.205 c 0,1.162 0.942,2.104 2.104,2.104 h 4.477 a 2.104,2.104 0 0 0 2.104,-2.104 z"
           id="path125" />
        <path
           d="m 27.527,7.273 a 1.363,1.363 0 1 1 2.726,0 v 0.858 c 0,0.118 0.096,0.214 0.214,0.214 h 1.902 a 0.215,0.215 0 0 0 0.215,-0.214 l -0.002,-1.9 c 0,-0.804 -0.651,-1.456 -1.455,-1.456 H 26.65 c -0.804,0 -1.456,0.652 -1.456,1.456 v 7.205 c 0,0.804 0.652,1.455 1.456,1.455 h 4.477 c 0.804,0 1.455,-0.651 1.455,-1.455 l 0.002,-2.198 a 0.215,0.215 0 0 0 -0.215,-0.214 h -1.902 a 0.214,0.214 0 0 0 -0.214,0.214 v 1.206 a 1.364,1.364 0 1 1 -2.726,0 z"
           fill="#ffffff"
           id="path126" />
        <path
           d="m 31.807,0.563 h -0.85 V 0.039 h 2.339 V 0.563 H 32.449 V 2.988 H 31.807 Z M 17.276,0.033 h 1.083 l 0.844,1.84 0.844,-1.837 H 21.13 V 2.985 H 20.486 L 20.487,0.66 19.417,2.985 H 18.989 L 17.919,0.66 V 2.985 L 17.276,2.982 Z m 4.875,2.954 h 0.643 V 2.239 H 23.6 c 0.737,0 1.031,-0.398 1.031,-1.127 0,-0.729 -0.293,-1.073 -1.031,-1.073 h -1.442 l 0.637,0.547 h 0.75 c 0.329,0.013 0.438,0.305 0.438,0.526 0,0.221 -0.108,0.573 -0.438,0.586 h -0.75 V 0.585 L 22.152,0.038 V 2.987 Z M 15.909,1.51 c 0,-0.785 -0.32,-0.939 -0.761,-0.939 -0.439,0 -0.761,0.154 -0.761,0.939 0,0.785 0.321,0.939 0.761,0.939 0.441,0.001 0.761,-0.154 0.761,-0.939 l 0.643,0.012 c 0,0.999 -0.19,1.498 -1.403,1.498 -1.213,0 -1.403,-0.5 -1.403,-1.498 0,-0.999 0.19,-1.522 1.403,-1.522 1.213,0 1.403,0.523 1.403,1.522 z M 13.129,0.952 C 13.036,0.325 12.716,0 11.76,0 c -1.213,0 -1.403,0.523 -1.403,1.522 0,0.999 0.19,1.498 1.403,1.498 0.967,0 1.283,-0.317 1.373,-0.951 L 12.436,2.068 C 12.312,2.375 12.064,2.45 11.76,2.45 c -0.44,0 -0.761,-0.155 -0.761,-0.939 0,-0.784 0.321,-0.939 0.761,-0.939 0.303,0 0.549,0.079 0.673,0.379 z M 26.874,2.4 27.058,2.982 h 0.643 L 26.775,0.033 h -0.983 l -0.926,2.949 h 0.643 L 25.693,2.4 25.835,1.932 26.057,1.145 c 0.034,-0.11 0.106,-0.249 0.228,-0.249 0.121,0 0.193,0.139 0.227,0.249 l 0.222,0.787 H 25.836 L 25.693,2.4 Z M 30.799,0.952 C 30.706,0.325 30.385,0 29.429,0 c -1.213,0 -1.403,0.523 -1.403,1.522 0,0.999 0.19,1.498 1.403,1.498 0.967,0 1.284,-0.317 1.373,-0.951 L 30.105,2.068 c -0.124,0.307 -0.371,0.381 -0.676,0.381 -0.439,0 -0.761,-0.155 -0.761,-0.939 0,-0.784 0.321,-0.939 0.761,-0.939 0.303,0 0.549,0.079 0.673,0.379 z"
           id="path127" />
      </g>
      <path
         d="m 132.1299,95.68798 c -1.8866,-0.23923 -3.4819,-0.766 -4.6045,-1.52046 -0.9669,-0.64977 -1.4066,-1.47781 -1.2084,-2.27564 0.2347,-0.94432 1.469,-1.9214 3.0907,-2.44646 1.7021,-0.55107 2.1508,-0.60715 4.8446,-0.60535 2.3758,0.002 2.7324,0.0291 3.6911,0.28473 1.2236,0.32629 2.1719,0.71417 2.8935,1.18352 0.5989,0.38953 1.19,1.00762 1.1159,1.16682 -0.029,0.062 -0.5049,0.11272 -1.0579,0.11272 -0.9048,0 -1.0377,-0.029 -1.3267,-0.28955 -0.8924,-0.80441 -2.9442,-1.31294 -5.319,-1.31828 -3.0287,-0.007 -5.4962,0.81651 -5.8181,1.94136 -0.2896,1.01173 0.7055,1.8277 2.8691,2.35268 1.3549,0.32874 4.4506,0.36445 5.6493,0.0652 1.4793,-0.36935 2.6102,-0.88701 2.7922,-1.27808 0.076,-0.16252 2.2618,-0.16861 2.2618,-0.006 0,0.12258 -0.8274,0.9829 -1.1534,1.19936 -0.6703,0.44495 -2.8338,1.21043 -3.7372,1.32231 -0.2284,0.0283 -0.8721,0.10766 -1.4303,0.17642 -1.2392,0.1526 -1.9377,0.13983 -3.5527,-0.0649 z m 10.427,-0.0961 c -0.025,-0.0334 -0.034,-1.47194 -0.02,-3.19684 l 0.026,-3.13617 3.8956,0.001 c 4.1408,10e-4 5.2605,0.10274 6.6485,0.60303 1.5207,0.54815 2.4609,1.49442 2.4609,2.47689 0,0.9246 -0.5088,1.63721 -1.5688,2.1974 -0.6357,0.33599 -0.8967,0.42439 -2.2146,0.75027 -0.9553,0.23622 -1.4662,0.26751 -5.1217,0.31369 -2.2333,0.0282 -4.0812,0.024 -4.1063,-0.009 z m 8.3052,-1.36363 c 1.4965,-0.27324 2.2022,-0.61414 2.5751,-1.24381 0.2451,-0.41402 0.2451,-0.78555 0,-1.19957 -0.6177,-1.04317 -2.3442,-1.41959 -6.5199,-1.42156 l -2.6068,-0.001 v 2.02257 2.02256 l 2.7913,-10e-4 c 1.9196,-7.4e-4 3.0941,-0.0563 3.7603,-0.17794 z m 10.6734,1.32304 c -0.034,-0.045 -0.062,-0.98268 -0.062,-2.08385 v -2.00213 h 0.7844 0.7843 v 2.08385 2.08385 h -0.7228 c -0.3976,0 -0.7505,-0.0368 -0.7844,-0.0817 z m -28.1599,-2.41961 c -0.5656,-0.1857 -1.0212,-0.49307 -1.0915,-0.73651 -0.2259,-0.78214 1.7348,-1.34414 3.0576,-0.8764 0.5904,0.20876 0.7561,0.37433 0.7561,0.75548 0,0.37834 -0.2774,0.6074 -1.0155,0.83848 -0.7055,0.22086 -1.079,0.22501 -1.7067,0.019 z m 1.7558,-0.4542 c 0.5633,-0.18844 0.6781,-0.40075 0.3642,-0.67396 -0.1953,-0.16999 -0.4465,-0.21306 -1.2289,-0.21068 -1.0662,0.003 -1.5231,0.1565 -1.4741,0.49451 0.062,0.42959 1.5026,0.66984 2.3388,0.39013 z m 21.4374,-0.11359 c 0.03,-0.71155 0.043,-0.74797 0.2407,-0.682 0.115,0.0383 0.4953,0.12465 0.845,0.19181 0.3498,0.0672 0.9841,0.22265 1.4096,0.34554 l 0.7736,0.22344 -0.6352,0.15797 c -0.7451,0.18529 -1.5581,0.34988 -2.2039,0.44615 l -0.4614,0.0688 z m 4.9052,-2.63083 v -0.67419 h 0.7843 0.7844 v 0.67419 0.67419 h -0.7844 -0.7843 z"
         stroke-width="0.106355"
         id="path128" />
    </g>
  </g>
</svg>
