<?xml version="1.0" encoding="UTF-8" standalone="no"?>
<!-- Created with Inkscape (http://www.inkscape.org/) -->

<svg
   width="210mm"
   height="297mm"
   viewBox="0 0 210 297"
   version="1.1"
   id="svg1"
   inkscape:version="1.4.2 (f4327f4, 2025-05-13)"
   sodipodi:docname="gamate.svg"
   xmlns:inkscape="http://www.inkscape.org/namespaces/inkscape"
   xmlns:sodipodi="http://sodipodi.sourceforge.net/DTD/sodipodi-0.dtd"
   xmlns="http://www.w3.org/2000/svg"
   xmlns:svg="http://www.w3.org/2000/svg">
  <sodipodi:namedview
     id="namedview1"
     pagecolor="#ffffff"
     bordercolor="#000000"
     borderopacity="0.25"
     inkscape:showpageshadow="2"
     inkscape:pageopacity="0.0"
     inkscape:pagecheckerboard="0"
     inkscape:deskcolor="#d1d1d1"
     inkscape:document-units="mm"
     inkscape:zoom="0.73851712"
     inkscape:cx="597.81959"
     inkscape:cy="428.56149"
     inkscape:window-width="1920"
     inkscape:window-height="1009"
     inkscape:window-x="-8"
     inkscape:window-y="-8"
     inkscape:window-maximized="1"
     inkscape:current-layer="layer1" />
  <defs
     id="defs1" />
  <g
     inkscape:label="Camada 1"
     inkscape:groupmode="layer"
     id="layer1">
    <path
       d="M 187.34561,295.0989 H 22.703273 a 8.9720616,8.9720616 0 0 1 -8.948715,-8.94871 V 11.031426 A 8.9720616,8.9720616 0 0 1 22.703273,2.0827117 H 187.34561 a 8.975397,8.975397 0 0 1 8.94871,8.9487143 V 286.15019 a 8.9720616,8.9720616 0 0 1 -8.94871,8.94871 z"
       fill="#2e2e34"
       id="path84"
       style="stroke-width:3.33534" />
    <path
       id="path85"
       style="stroke-width:3.33534;fill:#ffffff;fill-opacity:1"
       d="M 23.367049 55.889095 L 23.367049 177.71835 A 5.7601303 5.7601303 0 0 0 29.110368 183.46167 L 180.94193 183.46167 C 184.10049 183.46167 186.68525 180.87692 186.68525 177.71835 L 186.68525 55.889095 L 23.367049 55.889095 z " />
    <path
       d="M 181.74224,284.67931 H 28.306642 a 4.9563136,4.9563136 0 0 1 -4.939637,-4.93964 V 200.2452 c 0,-2.7183 2.224671,-4.93964 4.939637,-4.93964 H 181.74224 c 2.7183,0 4.93963,2.22468 4.93963,4.93964 v 79.49447 a 4.9496429,4.9496429 0 0 1 -4.93963,4.93964 z"
       fill="#14191c"
       id="path86"
       style="stroke-width:3.33534" />
    <path
       d="M 186.68521,250.93902 H 23.37034 v -51.73444 c 0,-2.14463 1.754389,-3.89902 3.895676,-3.89902 H 182.7862 c 2.14462,0 3.89567,1.75439 3.89567,3.89902 v 51.73444 z"
       fill="#070c12"
       id="path87"
       style="stroke-width:3.33534" />
    <path
       d="m 36.905146,252.85684 h -0.490295 a 2.4381327,2.4381327 0 0 0 -2.431462,2.43146 v 10.57302 h 5.336542 v -10.5897 a 2.4181207,2.4181207 0 0 0 -2.414785,-2.41478 z"
       fill="#eac664"
       id="path88"
       style="stroke-width:3.33534" />
    <circle
       cx="36.651661"
       cy="255.32166"
       r="0.77713394"
       fill="#57493e"
       id="circle88"
       style="stroke-width:3.33534" />
    <path
       d="m 45.453619,252.85684 h -0.490295 a 2.4381327,2.4381327 0 0 0 -2.431462,2.43146 v 10.57302 h 5.339878 v -10.5897 a 2.4281267,2.4281267 0 0 0 -2.418121,-2.41478 z"
       fill="#eac664"
       id="path89"
       style="stroke-width:3.33534" />
    <circle
       cx="45.200123"
       cy="255.32166"
       r="0.77713394"
       fill="#57493e"
       id="circle89"
       style="stroke-width:3.33534" />
    <path
       d="m 53.998758,252.85684 h -0.490295 a 2.4381327,2.4381327 0 0 0 -2.431462,2.43146 v 10.57302 h 5.339877 v -10.5897 a 2.4247914,2.4247914 0 0 0 -2.41812,-2.41478 z"
       fill="#eac664"
       id="path90"
       style="stroke-width:3.33534" />
    <circle
       cx="53.745274"
       cy="255.32166"
       r="0.77713394"
       fill="#57493e"
       id="circle90"
       style="stroke-width:3.33534" />
    <path
       d="m 62.547231,252.85684 h -0.490295 a 2.4381327,2.4381327 0 0 0 -2.431462,2.43146 v 10.57302 h 5.339878 v -10.5897 a 2.4281267,2.4281267 0 0 0 -2.418121,-2.41478 z"
       fill="#eac664"
       id="path91"
       style="stroke-width:3.33534" />
    <circle
       cx="62.293732"
       cy="255.32166"
       r="0.77713394"
       fill="#57493e"
       id="circle91"
       style="stroke-width:3.33534" />
    <path
       d="M 71.092369,252.85684 H 70.60541 a 2.4381327,2.4381327 0 0 0 -2.431462,2.43146 v 10.57302 h 5.339877 v -10.5897 a 2.4314621,2.4314621 0 0 0 -2.421456,-2.41478 z"
       fill="#eac664"
       id="path92"
       style="stroke-width:3.33534" />
    <circle
       cx="70.83886"
       cy="255.32166"
       r="0.77713394"
       fill="#57493e"
       id="circle92"
       style="stroke-width:3.33534" />
    <path
       d="m 79.637508,252.85684 h -0.48696 a 2.4381327,2.4381327 0 0 0 -2.431462,2.43146 v 10.57302 h 5.336542 v -10.5897 a 2.4247914,2.4247914 0 0 0 -2.41812,-2.41478 z"
       fill="#eac664"
       id="path93"
       style="stroke-width:3.33534" />
    <circle
       cx="79.387344"
       cy="255.32166"
       r="0.77713394"
       fill="#57493e"
       id="circle93"
       style="stroke-width:3.33534" />
    <path
       d="m 88.185981,252.85684 h -0.490295 a 2.4381327,2.4381327 0 0 0 -2.431462,2.43146 v 10.57302 h 5.336543 v -10.5897 a 2.421456,2.421456 0 0 0 -2.414786,-2.41478 z"
       fill="#eac664"
       id="path94"
       style="stroke-width:3.33534" />
    <circle
       cx="87.932472"
       cy="255.32166"
       r="0.77713394"
       fill="#57493e"
       id="circle94"
       style="stroke-width:3.33534" />
    <path
       d="m 96.73112,252.85684 h -0.490295 a 2.4381327,2.4381327 0 0 0 -2.431462,2.43146 v 10.57302 h 5.336542 v -10.5897 a 2.4181207,2.4181207 0 0 0 -2.414785,-2.41478 z"
       fill="#eac664"
       id="path95"
       style="stroke-width:3.33534" />
    <path
       d="m 97.258103,255.32165 a 0.77713396,0.77713396 0 1 1 -1.550933,0 0.77713396,0.77713396 0 0 1 1.550933,0 z"
       fill="#57493e"
       id="path96"
       style="stroke-width:3.33534" />
    <path
       d="m 105.27959,252.85684 h -0.49029 a 2.4381327,2.4381327 0 0 0 -2.43146,2.43146 v 10.57302 h 5.33654 v -10.5897 a 2.421456,2.421456 0 0 0 -2.41479,-2.41478 z"
       fill="#eac664"
       id="path97"
       style="stroke-width:3.33534" />
    <path
       d="m 105.80324,255.32165 a 0.77713396,0.77713396 0 1 1 -1.55093,0 0.77713396,0.77713396 0 0 1 1.55093,0 z"
       fill="#57493e"
       id="path98"
       style="stroke-width:3.33534" />
    <path
       d="m 113.82473,252.85684 h -0.49029 a 2.4381327,2.4381327 0 0 0 -2.43147,2.43146 v 10.57302 h 5.33655 v -10.5897 a 2.4181207,2.4181207 0 0 0 -2.41479,-2.41478 z"
       fill="#eac664"
       id="path99"
       style="stroke-width:3.33534" />
    <circle
       cx="113.57126"
       cy="255.32166"
       r="0.77713394"
       fill="#57493e"
       id="circle99"
       style="stroke-width:3.33534" />
    <path
       d="m 122.3732,252.85684 h -0.49029 a 2.4381327,2.4381327 0 0 0 -2.43146,2.43146 v 10.57302 h 5.33988 v -10.5897 a 2.4281267,2.4281267 0 0 0 -2.41813,-2.41478 z"
       fill="#eac664"
       id="path100"
       style="stroke-width:3.33534" />
    <circle
       cx="122.1197"
       cy="255.32166"
       r="0.77713394"
       fill="#57493e"
       id="circle100"
       style="stroke-width:3.33534" />
    <path
       d="m 130.91834,252.85684 h -0.49029 a 2.4381327,2.4381327 0 0 0 -2.43146,2.43146 v 10.57302 h 5.33987 v -10.5897 a 2.4247914,2.4247914 0 0 0 -2.41812,-2.41478 z"
       fill="#eac664"
       id="path101"
       style="stroke-width:3.33534" />
    <circle
       cx="130.66487"
       cy="255.32166"
       r="0.77713394"
       fill="#57493e"
       id="circle101"
       style="stroke-width:3.33534" />
    <path
       d="m 139.46682,252.85684 h -0.4903 a 2.4381327,2.4381327 0 0 0 -2.43146,2.43146 v 10.57302 h 5.33988 v -10.5897 a 2.4281267,2.4281267 0 0 0 -2.41812,-2.41478 z"
       fill="#eac664"
       id="path102"
       style="stroke-width:3.33534" />
    <circle
       cx="139.2133"
       cy="255.32166"
       r="0.77713394"
       fill="#57493e"
       id="circle102"
       style="stroke-width:3.33534" />
    <path
       d="M 148.01196,252.85684 H 147.525 a 2.4381327,2.4381327 0 0 0 -2.43147,2.43146 v 10.57302 h 5.33988 v -10.5897 a 2.4314621,2.4314621 0 0 0 -2.42145,-2.41478 z"
       fill="#eac664"
       id="path103"
       style="stroke-width:3.33534" />
    <circle
       cx="147.75848"
       cy="255.32166"
       r="0.77713394"
       fill="#57493e"
       id="circle103"
       style="stroke-width:3.33534" />
    <path
       d="m 156.55709,252.85684 h -0.48696 a 2.4381327,2.4381327 0 0 0 -2.43146,2.43146 v 10.57302 h 5.33988 v -10.5897 a 2.4281267,2.4281267 0 0 0 -2.42146,-2.41478 z"
       fill="#eac664"
       id="path104"
       style="stroke-width:3.33534" />
    <circle
       cx="156.30692"
       cy="255.32166"
       r="0.77713394"
       fill="#57493e"
       id="circle104"
       style="stroke-width:3.33534" />
    <path
       d="m 165.10557,252.85684 h -0.4903 a 2.4381327,2.4381327 0 0 0 -2.43146,2.43146 v 10.57302 h 5.33654 v -10.5897 a 2.421456,2.421456 0 0 0 -2.41478,-2.41478 z"
       fill="#eac664"
       id="path105"
       style="stroke-width:3.33534" />
    <circle
       cx="164.8521"
       cy="255.32166"
       r="0.77713394"
       fill="#57493e"
       id="circle105"
       style="stroke-width:3.33534" />
    <path
       d="m 173.65071,252.85684 h -0.4903 a 2.4381327,2.4381327 0 0 0 -2.43146,2.43146 v 10.57302 h 5.33654 v -10.5897 a 2.4181207,2.4181207 0 0 0 -2.41478,-2.41478 z"
       fill="#eac664"
       id="path106"
       style="stroke-width:3.33534" />
    <path
       d="m 174.17769,255.32165 a 0.77713396,0.77713396 0 1 1 -1.55093,0 0.77713396,0.77713396 0 0 1 1.55093,0 z"
       fill="#57493e"
       id="path107"
       style="stroke-width:3.33534" />
    <path
       d="m 32.632577,269.90709 h -0.490295 a 2.4381327,2.4381327 0 0 0 -2.431462,2.43146 v 10.57303 h 5.336542 v -10.5897 a 2.421456,2.421456 0 0 0 -2.414785,-2.41479 z"
       fill="#eac664"
       id="path108"
       style="stroke-width:3.33534" />
    <circle
       cx="32.379097"
       cy="272.37189"
       r="0.77713394"
       fill="#57493e"
       id="circle108"
       style="stroke-width:3.33534" />
    <path
       d="m 41.18105,269.90709 h -0.490295 a 2.4381327,2.4381327 0 0 0 -2.431462,2.43146 v 10.57303 h 5.336543 v -10.5897 a 2.421456,2.421456 0 0 0 -2.414786,-2.41479 z"
       fill="#eac664"
       id="path109"
       style="stroke-width:3.33534" />
    <circle
       cx="40.927559"
       cy="272.37189"
       r="0.77713394"
       fill="#57493e"
       id="circle109"
       style="stroke-width:3.33534" />
    <path
       d="m 49.726188,269.90709 h -0.490294 a 2.4381327,2.4381327 0 0 0 -2.431462,2.43146 v 10.57303 h 5.339877 v -10.5897 a 2.4281267,2.4281267 0 0 0 -2.418121,-2.41479 z"
       fill="#eac664"
       id="path110"
       style="stroke-width:3.33534" />
    <circle
       cx="49.47271"
       cy="272.37189"
       r="0.77713394"
       fill="#57493e"
       id="circle110"
       style="stroke-width:3.33534" />
    <path
       d="m 58.274662,269.90709 h -0.490295 a 2.4381327,2.4381327 0 0 0 -2.431462,2.43146 v 10.57303 h 5.339878 v -10.5897 a 2.4281267,2.4281267 0 0 0 -2.418121,-2.41479 z"
       fill="#eac664"
       id="path111"
       style="stroke-width:3.33534" />
    <circle
       cx="58.021194"
       cy="272.37189"
       r="0.77713394"
       fill="#57493e"
       id="circle111"
       style="stroke-width:3.33534" />
    <path
       d="m 66.8198,269.90709 h -0.486959 a 2.4381327,2.4381327 0 0 0 -2.431462,2.43146 v 10.57303 h 5.339877 v -10.5897 A 2.4347974,2.4347974 0 0 0 66.8198,269.90709 Z"
       fill="#eac664"
       id="path112"
       style="stroke-width:3.33534" />
    <circle
       cx="66.566322"
       cy="272.37189"
       r="0.77713394"
       fill="#57493e"
       id="circle112"
       style="stroke-width:3.33534" />
    <path
       d="m 75.364939,269.90709 h -0.48696 a 2.4381327,2.4381327 0 0 0 -2.431462,2.43146 v 10.57303 h 5.339878 v -10.5897 a 2.4281267,2.4281267 0 0 0 -2.421456,-2.41479 z"
       fill="#eac664"
       id="path113"
       style="stroke-width:3.33534" />
    <circle
       cx="75.114807"
       cy="272.37189"
       r="0.77713394"
       fill="#57493e"
       id="circle113"
       style="stroke-width:3.33534" />
    <path
       d="m 83.913412,269.90709 h -0.490295 a 2.4381327,2.4381327 0 0 0 -2.431462,2.43146 v 10.57303 h 5.336542 v -10.5897 a 2.421456,2.421456 0 0 0 -2.414785,-2.41479 z"
       fill="#eac664"
       id="path114"
       style="stroke-width:3.33534" />
    <circle
       cx="83.659935"
       cy="272.37189"
       r="0.77713394"
       fill="#57493e"
       id="circle114"
       style="stroke-width:3.33534" />
    <path
       d="m 92.45855,269.90709 h -0.490294 a 2.4381327,2.4381327 0 0 0 -2.431462,2.43146 v 10.57303 h 5.336542 v -10.5897 a 2.421456,2.421456 0 0 0 -2.414786,-2.41479 z"
       fill="#eac664"
       id="path115"
       style="stroke-width:3.33534" />
    <path
       d="m 92.982199,272.37191 a 0.77713396,0.77713396 0 1 1 -1.550933,0 0.77713396,0.77713396 0 0 1 1.550933,0 z"
       fill="#57493e"
       id="path116"
       style="stroke-width:3.33534" />
    <path
       d="m 101.00702,269.90709 h -0.49029 a 2.4381327,2.4381327 0 0 0 -2.431463,2.43146 v 10.57303 h 5.336543 v -10.5897 a 2.421456,2.421456 0 0 0 -2.41479,-2.41479 z"
       fill="#eac664"
       id="path117"
       style="stroke-width:3.33534" />
    <path
       d="m 101.53067,272.37191 a 0.77713396,0.77713396 0 1 1 -1.55093,0 0.77713396,0.77713396 0 0 1 1.55093,0 z"
       fill="#57493e"
       id="path118"
       style="stroke-width:3.33534" />
    <path
       d="m 109.55216,269.90709 h -0.49029 a 2.4381327,2.4381327 0 0 0 -2.43146,2.43146 v 10.57303 h 5.33654 v -10.5897 a 2.421456,2.421456 0 0 0 -2.41479,-2.41479 z"
       fill="#eac664"
       id="path119"
       style="stroke-width:3.33534" />
    <circle
       cx="109.29868"
       cy="272.37189"
       r="0.77713394"
       fill="#57493e"
       id="circle119"
       style="stroke-width:3.33534" />
    <path
       d="m 118.10064,269.90709 h -0.4903 a 2.4381327,2.4381327 0 0 0 -2.43146,2.43146 v 10.57303 h 5.33654 v -10.5897 a 2.421456,2.421456 0 0 0 -2.41478,-2.41479 z"
       fill="#eac664"
       id="path120"
       style="stroke-width:3.33534" />
    <circle
       cx="117.84716"
       cy="272.37189"
       r="0.77713394"
       fill="#57493e"
       id="circle120"
       style="stroke-width:3.33534" />
    <path
       d="m 126.64577,269.90709 h -0.49029 a 2.4381327,2.4381327 0 0 0 -2.43146,2.43146 v 10.57303 h 5.33987 v -10.5897 a 2.4281267,2.4281267 0 0 0 -2.41812,-2.41479 z"
       fill="#eac664"
       id="path121"
       style="stroke-width:3.33534" />
    <circle
       cx="126.39228"
       cy="272.37189"
       r="0.77713394"
       fill="#57493e"
       id="circle121"
       style="stroke-width:3.33534" />
    <path
       d="m 135.19425,269.90709 h -0.4903 a 2.4381327,2.4381327 0 0 0 -2.43146,2.43146 v 10.57303 h 5.33988 v -10.5897 a 2.4281267,2.4281267 0 0 0 -2.41812,-2.41479 z"
       fill="#eac664"
       id="path122"
       style="stroke-width:3.33534" />
    <circle
       cx="134.94077"
       cy="272.37189"
       r="0.77713394"
       fill="#57493e"
       id="circle122"
       style="stroke-width:3.33534" />
    <path
       d="m 143.73939,269.90709 h -0.4903 a 2.4381327,2.4381327 0 0 0 -2.43146,2.43146 v 10.57303 h 5.33988 v -10.5897 a 2.4281267,2.4281267 0 0 0 -2.41812,-2.41479 z"
       fill="#eac664"
       id="path123"
       style="stroke-width:3.33534" />
    <circle
       cx="143.4859"
       cy="272.37189"
       r="0.77713394"
       fill="#57493e"
       id="circle123"
       style="stroke-width:3.33534" />
    <path
       d="m 152.28452,269.90709 h -0.48696 a 2.4381327,2.4381327 0 0 0 -2.43146,2.43146 v 10.57303 h 5.33988 v -10.5897 a 2.4281267,2.4281267 0 0 0 -2.42146,-2.41479 z"
       fill="#eac664"
       id="path124"
       style="stroke-width:3.33534" />
    <circle
       cx="152.03438"
       cy="272.37189"
       r="0.77713394"
       fill="#57493e"
       id="circle124"
       style="stroke-width:3.33534" />
    <path
       d="m 160.833,269.90709 h -0.48696 a 2.4381327,2.4381327 0 0 0 -2.43146,2.43146 v 10.57303 h 5.33654 v -10.5897 a 2.4281267,2.4281267 0 0 0 -2.41812,-2.41479 z"
       fill="#eac664"
       id="path125"
       style="stroke-width:3.33534" />
    <circle
       cx="160.57951"
       cy="272.37189"
       r="0.77713394"
       fill="#57493e"
       id="circle125"
       style="stroke-width:3.33534" />
    <path
       d="m 169.37814,269.90709 h -0.4903 a 2.4381327,2.4381327 0 0 0 -2.43146,2.43146 v 10.57303 h 5.33654 v -10.5897 a 2.421456,2.421456 0 0 0 -2.41478,-2.41479 z"
       fill="#eac664"
       id="path126"
       style="stroke-width:3.33534" />
    <circle
       cx="169.12799"
       cy="272.37189"
       r="0.77713394"
       fill="#57493e"
       id="circle126"
       style="stroke-width:3.33534" />
    <path
       d="m 177.92661,269.90709 h -0.4903 a 2.4381327,2.4381327 0 0 0 -2.43146,2.43146 v 10.57303 h 5.33655 v -10.5897 a 2.421456,2.421456 0 0 0 -2.41479,-2.41479 z"
       fill="#eac664"
       id="path127"
       style="stroke-width:3.33534" />
    <path
       d="m 178.45026,272.37191 a 0.77713396,0.77713396 0 1 1 -1.55093,0 0.77713396,0.77713396 0 0 1 1.55093,0 z"
       fill="#57493e"
       id="path128"
       style="stroke-width:3.33534" />
    <g
       id="g4"
       style="fill:#000000"
       transform="translate(-223.91435,8.5983112)">
      <path
         id="rect3"
         style="fill:#000000;fill-opacity:1;stroke-width:0.241134"
         d="m 252.43255,20.062859 -0.10644,0.131257 8.9459,10.507884 8.62056,-10.639145 z" />
      <rect
         style="fill:#000000;fill-opacity:1;stroke-width:0.241016"
         id="rect4"
         width="6.8069963"
         height="13.972256"
         x="258.10382"
         y="8.5818558" />
    </g>
    <g
       id="g5"
       style="fill:#000000"
       transform="translate(-86.341375,8.5983112)">
      <path
         id="path4"
         style="fill:#000000;fill-opacity:1;stroke-width:0.241134"
         d="m 252.43255,20.062859 -0.10644,0.131257 8.9459,10.507884 8.62056,-10.639145 z" />
      <rect
         style="fill:#000000;fill-opacity:1;stroke-width:0.241016"
         id="rect5"
         width="6.8069963"
         height="13.972256"
         x="258.10382"
         y="8.5818558" />
    </g>
    <g
       id="g6"
       style="fill:#333333"
       transform="translate(-222.83956,8.2400482)">
      <path
         id="path5"
         style="fill:#333333;fill-opacity:1;stroke-width:0.241134"
         d="m 252.43255,20.062859 -0.10644,0.131257 8.9459,10.507884 8.62056,-10.639145 z" />
      <rect
         style="fill:#333333;fill-opacity:1;stroke-width:0.241016"
         id="rect6"
         width="6.8069963"
         height="13.972256"
         x="258.10382"
         y="8.5818558" />
    </g>
    <g
       id="g7"
       style="fill:#333333"
       transform="translate(-85.266586,8.2400482)">
      <path
         id="path6"
         style="fill:#333333;fill-opacity:1;stroke-width:0.241134"
         d="m 252.43255,20.062859 -0.10644,0.131257 8.9459,10.507884 8.62056,-10.639145 z" />
      <rect
         style="fill:#333333;fill-opacity:1;stroke-width:0.241016"
         id="rect7"
         width="6.8069963"
         height="13.972256"
         x="258.10382"
         y="8.5818558" />
    </g>
    <path
       style="fill:#000000;fill-opacity:1;stroke-width:0.264583"
       id="path7"
       sodipodi:type="arc"
       sodipodi:cx="103.89624"
       sodipodi:cy="22.570566"
       sodipodi:rx="13.25573"
       sodipodi:ry="13.25573"
       sodipodi:start="3.1415927"
       sodipodi:end="0.0093996121"
       sodipodi:arc-type="slice"
       d="m 90.640511,22.570566 a 13.25573,13.25573 0 0 1 6.663866,-11.500509 13.25573,13.25573 0 0 1 13.291533,0.06247 13.25573,13.25573 0 0 1 6.55547,11.562637 l -13.25514,-0.124597 z" />
    <path
       style="fill:#4d4d4d;fill-opacity:1;stroke-width:0.264583"
       id="path8"
       sodipodi:type="arc"
       sodipodi:cx="103.89624"
       sodipodi:cy="25.078407"
       sodipodi:rx="13.25573"
       sodipodi:ry="13.25573"
       sodipodi:start="3.1415927"
       sodipodi:end="0.046943654"
       sodipodi:arc-type="slice"
       d="m 90.640511,25.078407 a 13.25573,13.25573 0 0 1 6.808303,-11.582101 13.25573,13.25573 0 0 1 13.431256,0.315314 13.25573,13.25573 0 0 1 6.2573,11.888831 l -13.24113,-0.622044 z" />
  </g>
</svg>
