<?xml version="1.0" encoding="UTF-8" standalone="no"?>
<svg
   viewBox="0 0 232.42799 266.667"
   version="1.1"
   id="svg61"
   sodipodi:docname="gb.svg"
   width="232.42799"
   height="266.66699"
   inkscape:version="1.4.2 (f4327f4, 2025-05-13)"
   xmlns:inkscape="http://www.inkscape.org/namespaces/inkscape"
   xmlns:sodipodi="http://sodipodi.sourceforge.net/DTD/sodipodi-0.dtd"
   xmlns="http://www.w3.org/2000/svg"
   xmlns:svg="http://www.w3.org/2000/svg">
  <defs
     id="defs61" />
  <sodipodi:namedview
     id="namedview61"
     pagecolor="#ffffff"
     bordercolor="#000000"
     borderopacity="0.25"
     inkscape:showpageshadow="2"
     inkscape:pageopacity="0.0"
     inkscape:pagecheckerboard="0"
     inkscape:deskcolor="#d1d1d1"
     inkscape:zoom="1.5543731"
     inkscape:cx="305.91111"
     inkscape:cy="141.21449"
     inkscape:window-width="1920"
     inkscape:window-height="1009"
     inkscape:window-x="-8"
     inkscape:window-y="-8"
     inkscape:window-maximized="1"
     inkscape:current-layer="svg61" />
  <path
     fill="#a3a3a3"
     d="M 4.3172333,19.811488 H 228.08053 V 64.266092 H 4.3172333 Z"
     id="path1"
     style="stroke-width:1.72485" />
  <path
     d="m 199.36864,23.33536 h 31.09908 v -6.701049 c 0,-0.98834 -0.80378,-1.790395 -1.7904,-1.790395 H 210.15414 V 4.0998144 c 0,-0.98834 -0.80205,-1.7903961 -1.79039,-1.7903961 H 3.7204346 c -0.98834,0 -1.7903961,0.8020561 -1.7903961,1.7903961 V 23.337085 H 32.037326 a 25.344971,25.344971 0 0 0 -4.969298,5.624742 H 1.9300385 v 3.751552 H 25.058576 c -0.551952,1.27984 -0.996964,2.614875 -1.329861,3.994757 H 1.9300385 v 3.641162 H 23.121568 a 25.551953,25.551953 0 0 0 0.01897,4.922727 H 1.9300385 v 3.82917 H 23.833931 c 0.350145,1.338485 0.81413,2.633849 1.369533,3.877467 H 1.9300385 v 3.741203 H 27.268111 a 25.408791,25.408791 0 0 0 4.820961,5.35739 H 1.9300385 V 261.72367 l 9.3486965,2.36995 H 221.1173 l 9.34869,-2.36995 V 62.077255 H 199.3169 a 25.408791,25.408791 0 0 0 4.82096,-5.35739 h 26.32986 v -3.741203 h -24.26349 c 0.5554,-1.243618 1.01939,-2.538982 1.36781,-3.877467 h 22.89568 v -3.82917 h -22.20229 c 0.0862,-0.850352 0.13109,-1.714503 0.13109,-2.585553 0,-0.788257 -0.0414,-1.56789 -0.11212,-2.337174 h 22.18332 v -3.641162 h -22.78874 a 25.12764,25.12764 0 0 0 -1.33159,-3.994757 h 24.12033 v -3.751552 h -26.12978 a 25.35877,25.35877 0 0 0 -4.9693,-5.626467 z"
     fill="#bcbcbc"
     id="path2"
     style="stroke-width:1.72485" />
  <path
     d="m 51.455707,66.751603 c -13.293432,0 -24.066856,-10.775149 -24.066856,-24.065131 0,-13.293432 10.775149,-24.068581 24.066856,-24.068581 H 179.94854 c 13.29171,0 24.06858,10.775149 24.06858,24.068581 0,13.291707 -10.77515,24.065131 -24.06858,24.065131 z M 203.66525,227.46467 a 4.1775909,4.1775909 0 0 1 -4.17759,4.17586 H 31.318063 a 4.1793157,4.1793157 0 0 1 -4.177591,-4.17586 V 79.084293 a 4.1793157,4.1793157 0 0 1 4.177591,-4.177591 H 199.48938 a 4.1775909,4.1775909 0 0 1 4.17759,4.177591 V 227.46467 Z m -72.94743,9.29695 c 2.13364,0 2.62522,2.04912 1.24362,3.43073 -2.53554,2.53898 -15.26494,16.16186 -15.26494,16.16186 0,0 -0.5968,0.67096 -1.29364,0.67096 -0.74341,0 -1.29191,-0.67096 -1.29191,-0.67096 0,0 -12.72941,-13.62288 -15.266667,-16.16186 -1.381606,-1.37988 -0.890023,-3.43073 1.243617,-3.43073 z m -119.439085,27.332 -9.3486965,-2.36995 v -151.561 h 8.7536225 c 0.329447,0 0.596799,0.26563 0.596799,0.59508 v 153.33587 z m 209.840285,0 9.3487,-2.36995 v -151.561 h -8.7519 a 0.5967987,0.5967987 0 0 0 -0.5968,0.59508 z"
     fill="#a3a3a3"
     id="path3"
     style="stroke-width:1.72485" />
  <g
     fill="#bcbcbc"
     id="g4"
     transform="matrix(1.7248517,0,0,1.7248517,1.9300385,-195.86742)">
    <path
       d="m 102.953,141.371 v -2.621 h -0.979 v -0.351 h 2.355 v 0.351 h -0.984 v 2.621 z m 2.078,0 v -2.972 h 0.592 l 0.703,2.104 c 0.065,0.196 0.112,0.343 0.142,0.44 0.034,-0.108 0.087,-0.267 0.159,-0.476 l 0.711,-2.068 h 0.529 v 2.972 h -0.379 v -2.487 l -0.864,2.487 h -0.354 l -0.86,-2.53 v 2.53 z"
       id="path4" />
  </g>
  <g
     fill-rule="evenodd"
     clip-rule="evenodd"
     fill="#bcbcbc"
     id="g5"
     transform="matrix(1.7248517,0,0,1.7248517,1.9300385,-195.86742)">
    <path
       d="m 74.858,138.517 c 0.112,-0.202 0.229,-0.401 0.337,-0.604 0.612,-1.155 1.24,-2.302 1.821,-3.472 0.303,-0.532 0.133,-0.503 0.752,-0.446 0.395,0.036 0.387,0.008 0.4,0.411 0.028,0.933 0.068,1.865 0.101,2.798 0.015,0.396 0.024,0.793 0.038,1.19 l 0.104,2.744 c 0.003,0.074 0.001,0.148 0.001,0.234 h -1.035 l -0.161,-4.862 a 0.876,0.876 0 0 1 -0.06,-0.015 l -2.625,4.898 -0.064,-0.016 -1.228,-5.087 -0.056,-0.001 c -0.094,0.279 -0.189,0.558 -0.281,0.837 -0.453,1.375 -0.903,2.751 -1.361,4.124 -0.018,0.053 -0.085,0.126 -0.132,0.127 -0.327,0.012 -0.653,0.006 -1.007,0.006 l 0.293,-0.911 1.553,-4.795 c 0.165,-0.511 0.329,-1.023 0.488,-1.535 0.033,-0.108 0.088,-0.147 0.201,-0.142 0.198,0.009 0.398,0.013 0.596,-0.001 0.147,-0.01 0.205,0.045 0.238,0.184 0.21,0.897 0.43,1.794 0.645,2.691 0.131,0.543 0.259,1.087 0.388,1.63 z m 11.306,2.836 1.097,-7.38 c 0.108,-0.006 0.206,-0.017 0.302,-0.017 0.445,-0.002 0.889,0 1.334,0 0.763,-10e-4 1.485,0.535 1.639,1.282 0.138,0.667 0.06,1.314 -0.396,1.868 -0.059,0.07 -0.111,0.147 -0.175,0.234 l 0.155,0.12 c 0.508,0.386 0.793,0.888 0.819,1.536 0.048,1.235 -0.811,2.267 -2.048,2.353 -0.878,0.063 -1.765,0.026 -2.646,0.031 -0.021,0 -0.043,-0.015 -0.081,-0.027 z m 1.933,-0.969 0.002,0.018 c 0.272,-0.019 0.551,-0.012 0.818,-0.061 0.57,-0.109 1.013,-0.662 0.988,-1.197 -0.027,-0.601 -0.488,-1.124 -1.082,-1.192 -0.316,-0.037 -0.64,-0.022 -0.959,-0.039 -0.122,-0.006 -0.165,0.046 -0.18,0.157 -0.041,0.313 -0.09,0.623 -0.134,0.935 -0.056,0.392 -0.105,0.784 -0.161,1.177 -0.02,0.145 0.017,0.218 0.183,0.206 0.174,-0.014 0.35,-0.004 0.525,-0.004 z m 0.153,-3.481 c 0.653,-0.001 1.002,-0.199 1.231,-0.698 0.233,-0.504 0.029,-1.238 -0.67,-1.248 -0.151,-0.003 -0.303,0 -0.453,-0.017 -0.178,-0.021 -0.247,0.051 -0.268,0.225 -0.053,0.445 -0.123,0.887 -0.186,1.33 -0.058,0.408 -0.057,0.408 0.346,0.408 z m 9.392,-0.206 c -0.03,0.895 -0.286,1.726 -0.614,2.544 -0.274,0.677 -0.677,1.257 -1.26,1.692 -0.95,0.707 -2.471,0.769 -3.395,-0.065 -0.486,-0.438 -0.741,-0.999 -0.798,-1.644 -0.077,-0.883 0.111,-1.729 0.405,-2.553 0.206,-0.578 0.425,-1.15 0.806,-1.644 0.506,-0.659 1.175,-1.028 1.995,-1.143 0.572,-0.08 1.117,-0.01 1.621,0.287 0.614,0.362 0.985,0.904 1.134,1.592 0.064,0.305 0.073,0.623 0.106,0.934 z m -1.026,-0.144 c -0.027,-0.187 -0.041,-0.416 -0.097,-0.635 a 1.367,1.367 0 0 0 -0.735,-0.912 c -0.71,-0.358 -1.732,0.008 -2.201,0.643 -0.351,0.476 -0.568,1.016 -0.733,1.58 -0.189,0.643 -0.32,1.287 -0.235,1.963 0.091,0.723 0.622,1.281 1.438,1.279 0.668,-0.002 1.212,-0.312 1.59,-0.853 0.632,-0.904 0.921,-1.927 0.973,-3.065 z m -32.082,-1.511 c -0.698,-0.17 -1.382,-0.204 -2.057,-0.07 -1.064,0.211 -2.011,0.641 -2.563,1.647 a 3.13,3.13 0 0 0 -0.253,2.539 c 0.147,0.466 0.453,0.805 0.887,1.014 0.675,0.327 1.361,0.327 2.045,0.009 0.128,-0.06 0.214,-0.141 0.225,-0.301 0.016,-0.244 0.052,-0.487 0.092,-0.728 0.025,-0.144 -0.035,-0.171 -0.159,-0.168 -0.291,0.005 -0.583,0.002 -0.911,0.002 0.035,-0.27 0.067,-0.52 0.101,-0.772 0.033,-0.246 0.034,-0.246 0.283,-0.246 0.58,0 1.158,0.003 1.738,-10e-4 0.12,-0.001 0.171,0.029 0.153,0.159 -0.111,0.768 -0.215,1.535 -0.329,2.304 a 0.467,0.467 0 0 1 -0.122,0.237 c -0.43,0.449 -0.984,0.636 -1.581,0.711 -0.646,0.081 -1.286,0.043 -1.881,-0.244 -0.926,-0.447 -1.493,-1.175 -1.639,-2.205 -0.104,-0.74 -0.064,-1.47 0.175,-2.18 0.298,-0.888 0.879,-1.553 1.651,-2.068 a 4.694,4.694 0 0 1 2.122,-0.755 6.325,6.325 0 0 1 1.898,0.067 c 0.273,0.051 0.277,0.046 0.239,0.323 -0.033,0.236 -0.073,0.471 -0.114,0.726 z m 19.305,6.328 h -4.74 c 0.35,-2.46 0.699,-4.903 1.047,-7.357 h 3.847 c -0.05,0.309 -0.095,0.611 -0.155,0.91 -0.005,0.028 -0.104,0.054 -0.159,0.054 -0.777,0.003 -1.555,0.009 -2.333,-0.001 -0.189,-0.003 -0.264,0.045 -0.288,0.244 -0.065,0.562 -0.156,1.12 -0.237,1.68 -0.008,0.056 0,0.114 0,0.193 h 0.217 c 0.666,0 1.332,0.005 1.999,-0.003 0.153,-0.002 0.195,0.048 0.168,0.194 -0.052,0.274 -0.092,0.55 -0.14,0.843 h -0.199 c -0.672,0 -1.345,0.003 -2.017,-0.004 -0.149,-0.002 -0.22,0.037 -0.241,0.196 a 91.408,91.408 0 0 1 -0.272,1.869 c -0.024,0.155 0.025,0.201 0.183,0.201 1.087,-0.007 2.174,-0.003 3.262,-0.003 h 0.204 z m -13.946,0.012 c -0.338,0 -0.664,0.003 -0.989,-0.005 -0.032,-0.001 -0.082,-0.072 -0.09,-0.114 a 83.903,83.903 0 0 1 -0.294,-1.725 c -0.022,-0.145 -0.079,-0.196 -0.226,-0.195 -0.579,0.007 -1.158,0.01 -1.736,-0.002 -0.164,-0.003 -0.224,0.076 -0.28,0.202 -0.253,0.564 -0.513,1.125 -0.762,1.691 -0.042,0.097 -0.093,0.128 -0.195,0.127 -0.326,-0.005 -0.651,-10e-4 -0.998,-10e-4 0.193,-0.43 0.374,-0.839 0.56,-1.247 0.465,-1.019 0.933,-2.036 1.397,-3.055 0.445,-0.976 0.886,-1.955 1.337,-2.927 0.03,-0.065 0.134,-0.127 0.209,-0.133 0.215,-0.018 0.432,0.003 0.648,-0.01 0.135,-0.007 0.185,0.044 0.206,0.171 0.102,0.622 0.211,1.243 0.317,1.865 l 0.725,4.26 0.164,0.967 c 0.005,0.036 0.004,0.076 0.007,0.131 z m -1.974,-5.297 -0.053,-0.006 -1.017,2.225 c 0.045,0.023 0.06,0.036 0.075,0.037 l 1.262,0.005 c 0.112,0 0.113,-0.062 0.097,-0.154 -0.078,-0.453 -0.15,-0.909 -0.227,-1.363 -0.042,-0.248 -0.09,-0.495 -0.137,-0.744 z m 29.67,-2.119 c 0.294,0 0.551,0.024 0.803,-0.005 0.312,-0.036 0.456,0.094 0.591,0.369 0.35,0.718 0.742,1.415 1.12,2.12 0.013,0.024 0.032,0.046 0.067,0.09 0.131,-0.172 0.255,-0.33 0.376,-0.492 0.496,-0.664 0.991,-1.33 1.489,-1.992 0.034,-0.045 0.098,-0.094 0.15,-0.096 0.384,-0.007 0.769,-0.005 1.206,-0.005 -0.135,0.189 -0.244,0.35 -0.361,0.505 -0.779,1.028 -1.555,2.058 -2.341,3.083 -0.173,0.227 -0.156,0.496 -0.196,0.749 -0.152,0.979 -0.291,1.96 -0.432,2.941 -0.019,0.136 -0.067,0.2 -0.223,0.191 -0.284,-0.017 -0.568,-0.005 -0.879,-0.005 l 0.135,-0.918 c 0.135,-0.924 0.271,-1.846 0.397,-2.771 a 0.507,0.507 0 0 0 -0.071,-0.278 c -0.578,-1.099 -1.161,-2.197 -1.742,-3.295 -0.024,-0.048 -0.045,-0.096 -0.089,-0.191 z"
       id="path5" />
  </g>
  <g
     fill="#bcbcbc"
     id="g6"
     transform="matrix(1.7248517,0,0,1.7248517,1.9300385,-195.86742)">
    <path
       d="m 28.528,139.995 a 0.272,0.272 0 0 1 -0.081,-0.094 c -0.616,-0.995 -1.231,-1.991 -1.845,-2.987 -0.037,-0.061 -0.074,-0.085 -0.147,-0.085 -0.404,0.005 -0.809,0.002 -1.214,0.002 l -0.101,0.005 v 4.564 h 1.398 v -3.154 l 0.024,-0.007 0.061,0.094 c 0.618,0.994 1.236,1.989 1.851,2.984 0.042,0.068 0.086,0.092 0.165,0.092 0.394,-0.005 0.789,-0.003 1.184,-0.003 h 0.102 v -4.567 h -1.398 z m 22.516,-1.475 c -0.255,-0.139 -0.501,-0.251 -0.78,-0.271 -0.275,-0.02 -0.537,0.02 -0.786,0.138 -0.252,0.12 -0.459,0.292 -0.627,0.514 -0.414,0.549 -0.465,1.299 -0.073,1.845 0.594,0.829 1.374,0.927 2.262,0.5 0.004,0.053 0.008,0.103 0.01,0.151 h 1.343 v -4.562 h -1.349 z m -10e-4,2.01 c -0.011,0.295 -0.254,0.493 -0.545,0.483 a 0.516,0.516 0 0 1 -0.523,-0.51 c -0.009,-0.213 -0.002,-0.427 -0.002,-0.641 h -10e-4 c 0,-0.197 -0.005,-0.394 10e-4,-0.593 0.009,-0.322 0.211,-0.526 0.523,-0.537 0.305,-0.009 0.537,0.181 0.549,0.496 0.017,0.434 0.016,0.869 -0.002,1.302 z M 36.49,138.699 c -0.568,-0.584 -1.531,-0.624 -2.162,-0.092 l -0.101,0.079 v -0.308 h -1.345 v 3.024 h 1.34 c 0.002,-0.044 0.006,-0.085 0.006,-0.128 0,-0.595 -0.004,-1.191 0,-1.786 0,-0.096 0.015,-0.201 0.055,-0.286 0.125,-0.271 0.464,-0.414 0.769,-0.338 0.29,0.07 0.471,0.309 0.471,0.623 v 1.912 h 1.349 c 0.003,-0.017 0.006,-0.026 0.006,-0.036 0,-0.562 0.007,-1.125 -0.002,-1.688 -0.007,-0.37 -0.122,-0.704 -0.386,-0.976 z m 11.562,0.838 a 1.251,1.251 0 0 0 -0.458,-0.92 1.608,1.608 0 0 0 -2.076,-0.01 l -0.102,0.085 v -0.318 h -1.349 v 3.023 h 1.35 v -0.135 l -0.002,-1.807 c 0,-0.126 0.034,-0.239 0.109,-0.341 a 0.691,0.691 0 0 1 0.767,-0.237 c 0.273,0.092 0.42,0.307 0.42,0.621 l 0.001,1.777 c 0,0.041 0.004,0.082 0.007,0.123 h 1.338 c 0.004,-0.02 0.009,-0.034 0.009,-0.046 -0.003,-0.605 0.008,-1.211 -0.014,-1.815 z m 8.241,-0.865 c -0.79,-0.687 -2.096,-0.677 -2.886,0.02 -0.725,0.64 -0.737,1.675 -0.023,2.327 a 2.11,2.11 0 0 0 1.444,0.551 c 0.551,-0.003 1.021,-0.148 1.425,-0.474 0.805,-0.653 0.821,-1.745 0.04,-2.424 z m -0.872,1.19 h -0.01 c 0,0.26 0.012,0.52 -0.003,0.779 -0.019,0.346 -0.267,0.567 -0.593,0.554 -0.256,-0.01 -0.466,-0.208 -0.514,-0.489 a 1.343,1.343 0 0 1 -0.02,-0.236 c -10e-4,-0.405 -10e-4,-0.808 0.002,-1.213 10e-4,-0.085 0.007,-0.172 0.025,-0.254 0.062,-0.3 0.295,-0.491 0.566,-0.476 0.289,0.016 0.505,0.237 0.537,0.547 0.004,0.046 0.01,0.092 0.01,0.138 z M 43.16,138.798 a 2.098,2.098 0 0 0 -1.375,-0.611 c -0.621,-0.044 -1.18,0.116 -1.652,0.532 -0.315,0.277 -0.511,0.625 -0.54,1.051 -0.038,0.553 0.184,0.999 0.609,1.335 0.634,0.501 1.353,0.602 2.115,0.372 0.531,-0.16 0.945,-0.481 1.185,-0.997 0.019,-0.04 0.03,-0.082 0.045,-0.123 h -1.34 c -0.01,0.125 -0.012,0.243 -0.029,0.359 -0.04,0.287 -0.258,0.491 -0.525,0.5 -0.292,0.011 -0.537,-0.158 -0.58,-0.452 -0.041,-0.281 -0.031,-0.569 -0.043,-0.868 h 2.6 c 0,-0.049 0.003,-0.085 -0.001,-0.12 a 1.573,1.573 0 0 0 -0.469,-0.978 z m -1.311,0.634 c -0.234,0 -0.467,-0.003 -0.701,0.002 -0.089,0.002 -0.117,-0.028 -0.107,-0.113 0.013,-0.107 0.007,-0.218 0.028,-0.324 a 0.56,0.56 0 0 1 1.106,0.018 c 0.021,0.132 0.021,0.266 0.032,0.416 z m -2.099,-1.514 h -0.737 v -0.61 h -1.375 v 0.611 h -0.114 c -0.182,10e-4 -0.363,-0.001 -0.543,0.004 -0.029,0.001 -0.081,0.031 -0.082,0.05 -0.007,0.127 -0.004,0.255 -0.004,0.393 h 0.749 v 3.033 h 1.373 v -3.036 h 0.733 z m -9.01,3.482 h 1.357 v -3.025 H 30.74 Z m 1.357,-4.562 h -1.363 v 0.911 h 1.363 z"
       id="path6" />
  </g>
</svg>
