<?xml version="1.0" encoding="UTF-8" standalone="no"?>
<svg
   viewBox="0 0 255.738 291.168"
   version="1.1"
   id="svg50"
   sodipodi:docname="gbc.svg"
   width="255.73801"
   height="291.168"
   inkscape:version="1.4.2 (f4327f4, 2025-05-13)"
   xmlns:inkscape="http://www.inkscape.org/namespaces/inkscape"
   xmlns:sodipodi="http://sodipodi.sourceforge.net/DTD/sodipodi-0.dtd"
   xmlns="http://www.w3.org/2000/svg"
   xmlns:svg="http://www.w3.org/2000/svg">
  <defs
     id="defs50" />
  <sodipodi:namedview
     id="namedview50"
     pagecolor="#ffffff"
     bordercolor="#000000"
     borderopacity="0.25"
     inkscape:showpageshadow="2"
     inkscape:pageopacity="0.0"
     inkscape:pagecheckerboard="0"
     inkscape:deskcolor="#d1d1d1"
     inkscape:zoom="1.4235768"
     inkscape:cx="314.34905"
     inkscape:cy="256.74766"
     inkscape:window-width="1920"
     inkscape:window-height="1009"
     inkscape:window-x="-8"
     inkscape:window-y="-8"
     inkscape:window-maximized="1"
     inkscape:current-layer="svg50" />
  <path
     fill="#a3a3a3"
     d="M 4.7212536,21.581175 H 249.73338 V 70.257242 H 4.7212536 Z"
     id="path1"
     style="stroke-width:1.88865" />
  <path
     d="m 218.29499,25.439678 h 34.05228 v -7.337389 c 0,-1.082194 -0.88011,-1.960414 -1.96042,-1.960414 H 230.10469 V 4.3775004 c 0,-1.082194 -0.87822,-1.9604143 -1.96042,-1.9604143 H 4.0677822 c -1.082194,0 -1.9604143,0.8782203 -1.9604143,1.9604143 V 25.441567 H 35.07368 A 27.751761,27.751761 0 0 0 29.632491,31.60044 H 2.1073679 v 4.107805 H 27.432219 c -0.604366,1.401375 -1.091637,2.863187 -1.456146,4.374104 H 2.1073679 V 44.06928 H 25.31127 a 27.978398,27.978398 0 0 0 0.02078,5.390195 H 2.1073679 v 4.192793 H 26.091281 c 0.383395,1.46559 0.89144,2.883963 1.499584,4.245676 H 2.1073679 v 4.096473 H 29.851574 a 27.821641,27.821641 0 0 0 5.278765,5.866134 H 2.1073679 V 286.46563 l 10.2364601,2.595 H 242.10892 l 10.23646,-2.595 V 67.860551 h -34.10705 a 27.821641,27.821641 0 0 0 5.27876,-5.866134 h 28.83018 v -4.096473 h -26.56758 c 0.60814,-1.361713 1.11619,-2.780086 1.49769,-4.245676 h 25.06989 v -4.192793 h -24.31065 c 0.0944,-0.931103 0.14354,-1.877314 0.14354,-2.83108 0,-0.863111 -0.0453,-1.716779 -0.12276,-2.559115 h 24.28987 v -3.986931 h -24.95279 a 27.513792,27.513792 0 0 0 -1.45803,-4.374104 h 26.41082 V 31.60044 h -28.6111 a 27.76687,27.76687 0 0 0 -5.44118,-6.160762 z"
     fill="#bcbcbc"
     id="path2"
     style="stroke-width:1.88865" />
  <path
     d="m 56.336054,72.978781 c -14.555793,0 -26.352274,-11.79837 -26.352274,-26.350386 0,-14.555793 11.79837,-26.354163 26.352274,-26.354163 H 197.03072 c 14.55391,0 26.35417,11.79837 26.35417,26.354163 0,14.553904 -11.79837,26.350386 -26.35417,26.350386 z M 222.9996,248.95335 a 4.5743001,4.5743001 0 0 1 -4.5743,4.57241 H 34.286115 a 4.5761887,4.5761887 0 0 1 -4.5743,-4.57241 V 86.482598 a 4.5761887,4.5761887 0 0 1 4.5743,-4.5743 H 218.42719 a 4.5743001,4.5743001 0 0 1 4.5743,4.5743 V 248.95335 Z m -79.8746,10.1798 c 2.33625,0 2.87451,2.24371 1.36171,3.75652 -2.77631,2.78008 -16.71452,17.69661 -16.71452,17.69661 0,0 -0.65347,0.73468 -1.41648,0.73468 -0.81401,0 -1.4146,-0.73468 -1.4146,-0.73468 0,0 -13.9382,-14.91653 -16.7164,-17.69661 -1.51281,-1.51092 -0.97454,-3.75652 1.36171,-3.75652 z M 12.343828,289.06063 2.1073679,286.46563 V 120.51222 h 9.5848771 c 0.360732,0 0.653472,0.29085 0.653472,0.65158 v 167.89683 z m 229.766982,0 10.23646,-2.595 V 120.51222 h -9.58299 a 0.65347144,0.65347144 0 0 0 -0.65347,0.65158 z"
     fill="#a3a3a3"
     id="path3"
     style="stroke-width:1.88865" />
  <g
     fill="#bcbcbc"
     id="g4"
     transform="matrix(1.8886458,0,0,1.8886458,2.1073679,-260.85258)">
    <path
       d="m 102.953,165.872 v -2.621 h -0.979 V 162.9 h 2.355 v 0.351 h -0.984 v 2.621 z m 2.078,0 V 162.9 h 0.592 l 0.703,2.104 c 0.065,0.196 0.112,0.343 0.142,0.44 0.034,-0.108 0.087,-0.267 0.159,-0.476 l 0.711,-2.068 h 0.529 v 2.972 h -0.379 v -2.487 l -0.864,2.487 h -0.354 l -0.86,-2.53 v 2.53 z"
       id="path4" />
  </g>
  <g
     fill-rule="evenodd"
     clip-rule="evenodd"
     fill="#bcbcbc"
     id="g5"
     transform="matrix(1.8886458,0,0,1.8886458,2.1073679,-260.85258)">
    <path
       d="m 74.858,163.018 c 0.112,-0.202 0.229,-0.401 0.337,-0.604 0.612,-1.155 1.24,-2.302 1.821,-3.472 0.303,-0.532 0.133,-0.503 0.752,-0.446 0.395,0.036 0.387,0.008 0.4,0.411 0.028,0.933 0.068,1.865 0.101,2.798 0.015,0.396 0.024,0.793 0.038,1.19 l 0.104,2.744 c 0.003,0.074 0.001,0.148 0.001,0.234 h -1.035 l -0.161,-4.862 a 0.876,0.876 0 0 1 -0.06,-0.015 l -2.625,4.898 -0.064,-0.016 -1.228,-5.087 -0.056,-0.001 c -0.094,0.279 -0.189,0.558 -0.281,0.837 -0.453,1.375 -0.903,2.751 -1.361,4.124 -0.018,0.053 -0.085,0.126 -0.132,0.127 -0.327,0.012 -0.653,0.006 -1.007,0.006 l 0.293,-0.911 1.553,-4.795 c 0.165,-0.511 0.329,-1.023 0.488,-1.535 0.033,-0.108 0.088,-0.147 0.201,-0.142 0.198,0.009 0.398,0.013 0.596,-0.001 0.147,-0.01 0.205,0.045 0.238,0.184 0.21,0.897 0.43,1.794 0.645,2.691 0.131,0.543 0.259,1.087 0.388,1.63 z m 11.306,2.836 1.097,-7.38 c 0.108,-0.006 0.206,-0.017 0.302,-0.017 0.445,-0.002 0.889,0 1.334,0 0.763,-0.001 1.485,0.535 1.639,1.282 0.138,0.667 0.06,1.314 -0.396,1.868 -0.059,0.07 -0.111,0.147 -0.175,0.234 l 0.155,0.12 c 0.508,0.386 0.793,0.888 0.819,1.536 0.048,1.235 -0.811,2.267 -2.048,2.353 -0.878,0.063 -1.765,0.026 -2.646,0.031 -0.021,0 -0.043,-0.015 -0.081,-0.027 z m 1.933,-0.969 0.002,0.018 c 0.272,-0.019 0.551,-0.012 0.818,-0.061 0.57,-0.109 1.013,-0.662 0.988,-1.197 -0.027,-0.601 -0.488,-1.124 -1.082,-1.192 -0.316,-0.037 -0.64,-0.022 -0.959,-0.039 -0.122,-0.006 -0.165,0.046 -0.18,0.157 -0.041,0.313 -0.09,0.623 -0.134,0.935 -0.056,0.392 -0.105,0.784 -0.161,1.177 -0.02,0.145 0.017,0.218 0.183,0.206 0.174,-0.014 0.35,-0.004 0.525,-0.004 z m 0.153,-3.481 c 0.653,-0.001 1.002,-0.199 1.231,-0.698 0.233,-0.504 0.029,-1.238 -0.67,-1.248 -0.151,-0.003 -0.303,0 -0.453,-0.017 -0.178,-0.021 -0.247,0.051 -0.268,0.225 -0.053,0.445 -0.123,0.887 -0.186,1.33 -0.058,0.408 -0.057,0.408 0.346,0.408 z m 9.392,-0.205 c -0.03,0.895 -0.286,1.726 -0.614,2.544 -0.274,0.677 -0.677,1.257 -1.26,1.692 -0.95,0.707 -2.471,0.769 -3.395,-0.065 -0.486,-0.438 -0.741,-0.999 -0.798,-1.644 -0.077,-0.883 0.111,-1.729 0.405,-2.553 0.206,-0.578 0.425,-1.15 0.806,-1.644 0.506,-0.659 1.175,-1.028 1.995,-1.143 0.572,-0.08 1.117,-0.01 1.621,0.287 0.614,0.362 0.985,0.904 1.134,1.592 0.064,0.304 0.073,0.622 0.106,0.934 z m -1.026,-0.145 c -0.027,-0.187 -0.041,-0.416 -0.097,-0.635 a 1.367,1.367 0 0 0 -0.735,-0.912 c -0.71,-0.358 -1.732,0.008 -2.201,0.643 -0.351,0.476 -0.568,1.016 -0.733,1.58 -0.189,0.643 -0.32,1.287 -0.235,1.963 0.091,0.723 0.622,1.281 1.438,1.279 0.668,-0.002 1.212,-0.312 1.59,-0.853 0.632,-0.904 0.921,-1.927 0.973,-3.065 z m -32.082,-1.511 c -0.698,-0.17 -1.382,-0.204 -2.057,-0.07 -1.064,0.211 -2.011,0.641 -2.563,1.647 a 3.13,3.13 0 0 0 -0.253,2.539 c 0.147,0.466 0.453,0.805 0.887,1.014 0.675,0.327 1.361,0.327 2.045,0.009 0.128,-0.06 0.214,-0.141 0.225,-0.301 0.016,-0.244 0.052,-0.487 0.092,-0.728 0.025,-0.144 -0.035,-0.171 -0.159,-0.168 -0.291,0.005 -0.583,0.002 -0.911,0.002 0.035,-0.27 0.067,-0.52 0.101,-0.772 0.033,-0.246 0.034,-0.246 0.283,-0.246 0.58,0 1.158,0.003 1.738,-0.002 0.12,-0.001 0.171,0.029 0.153,0.159 -0.111,0.768 -0.215,1.535 -0.329,2.304 a 0.467,0.467 0 0 1 -0.122,0.237 c -0.43,0.449 -0.984,0.636 -1.581,0.711 -0.646,0.081 -1.286,0.043 -1.881,-0.244 -0.926,-0.447 -1.493,-1.175 -1.639,-2.205 -0.104,-0.74 -0.064,-1.47 0.175,-2.18 0.298,-0.888 0.879,-1.553 1.651,-2.068 a 4.694,4.694 0 0 1 2.122,-0.755 6.325,6.325 0 0 1 1.898,0.067 c 0.273,0.051 0.277,0.046 0.239,0.323 -0.033,0.237 -0.073,0.472 -0.114,0.727 z m 19.305,6.328 h -4.74 c 0.35,-2.46 0.699,-4.903 1.047,-7.357 h 3.847 c -0.05,0.309 -0.095,0.611 -0.155,0.91 -0.005,0.028 -0.104,0.054 -0.159,0.054 -0.777,0.003 -1.555,0.009 -2.333,-0.001 -0.189,-0.003 -0.264,0.045 -0.288,0.244 -0.065,0.562 -0.156,1.12 -0.237,1.68 -0.008,0.056 0,0.114 0,0.193 h 0.217 c 0.666,0 1.332,0.005 1.999,-0.003 0.153,-0.002 0.195,0.048 0.168,0.194 -0.052,0.274 -0.092,0.55 -0.14,0.843 h -0.199 c -0.672,0 -1.345,0.003 -2.017,-0.004 -0.149,-0.002 -0.22,0.037 -0.241,0.196 a 91.408,91.408 0 0 1 -0.272,1.869 c -0.024,0.155 0.025,0.201 0.183,0.201 1.087,-0.007 2.174,-0.003 3.262,-0.003 h 0.204 z m -13.946,0.012 c -0.338,0 -0.664,0.003 -0.989,-0.005 -0.032,-10e-4 -0.082,-0.072 -0.09,-0.114 a 83.903,83.903 0 0 1 -0.294,-1.725 c -0.022,-0.145 -0.079,-0.196 -0.226,-0.195 -0.579,0.007 -1.158,0.01 -1.736,-0.002 -0.164,-0.003 -0.224,0.076 -0.28,0.202 -0.253,0.564 -0.513,1.125 -0.762,1.691 -0.042,0.097 -0.093,0.128 -0.195,0.127 -0.326,-0.005 -0.651,-0.002 -0.998,-0.002 0.193,-0.43 0.374,-0.839 0.56,-1.247 0.465,-1.019 0.933,-2.036 1.397,-3.055 0.445,-0.976 0.886,-1.955 1.337,-2.927 0.03,-0.065 0.134,-0.127 0.209,-0.133 0.215,-0.018 0.432,0.003 0.648,-0.01 0.135,-0.007 0.185,0.044 0.206,0.171 0.102,0.622 0.211,1.243 0.317,1.865 l 0.725,4.26 0.164,0.967 c 0.005,0.037 0.004,0.077 0.007,0.132 z m -1.974,-5.297 -0.053,-0.006 -1.017,2.225 c 0.045,0.023 0.06,0.036 0.075,0.037 l 1.262,0.005 c 0.112,0 0.113,-0.062 0.097,-0.154 -0.078,-0.453 -0.15,-0.909 -0.227,-1.363 -0.042,-0.247 -0.09,-0.495 -0.137,-0.744 z m 29.67,-2.119 c 0.294,0 0.551,0.024 0.803,-0.005 0.312,-0.036 0.456,0.094 0.591,0.369 0.35,0.718 0.742,1.415 1.12,2.12 0.013,0.024 0.032,0.046 0.067,0.09 0.131,-0.172 0.255,-0.33 0.376,-0.492 0.496,-0.664 0.991,-1.33 1.489,-1.992 0.034,-0.045 0.098,-0.094 0.15,-0.096 0.384,-0.007 0.769,-0.005 1.206,-0.005 -0.135,0.189 -0.244,0.35 -0.361,0.505 -0.779,1.028 -1.555,2.058 -2.341,3.083 -0.173,0.227 -0.156,0.496 -0.196,0.749 -0.152,0.979 -0.291,1.96 -0.432,2.941 -0.019,0.136 -0.067,0.2 -0.223,0.191 -0.284,-0.017 -0.568,-0.005 -0.879,-0.005 l 0.135,-0.918 c 0.135,-0.924 0.271,-1.846 0.397,-2.771 a 0.507,0.507 0 0 0 -0.071,-0.278 c -0.578,-1.099 -1.161,-2.197 -1.742,-3.295 -0.024,-0.048 -0.045,-0.096 -0.089,-0.191 z"
       id="path5" />
  </g>
  <g
     fill="#bcbcbc"
     id="g6"
     transform="matrix(1.8886458,0,0,1.8886458,2.1073679,-260.85258)">
    <path
       d="m 28.528,164.496 a 0.272,0.272 0 0 1 -0.081,-0.094 c -0.616,-0.995 -1.231,-1.991 -1.845,-2.987 -0.037,-0.061 -0.074,-0.085 -0.147,-0.085 -0.404,0.005 -0.809,0.002 -1.214,0.002 l -0.101,0.005 v 4.564 h 1.398 v -3.154 l 0.024,-0.007 0.061,0.094 c 0.618,0.994 1.236,1.989 1.851,2.984 0.042,0.068 0.086,0.092 0.165,0.092 0.394,-0.005 0.789,-0.003 1.184,-0.003 h 0.102 v -4.567 h -1.398 z m 22.516,-1.475 c -0.255,-0.139 -0.501,-0.251 -0.78,-0.271 -0.275,-0.02 -0.537,0.02 -0.786,0.138 -0.252,0.12 -0.459,0.292 -0.627,0.514 -0.414,0.549 -0.465,1.299 -0.073,1.845 0.594,0.829 1.374,0.927 2.262,0.5 0.004,0.053 0.008,0.103 0.01,0.151 h 1.343 v -4.562 h -1.349 z m -10e-4,2.01 c -0.011,0.295 -0.254,0.493 -0.545,0.483 a 0.516,0.516 0 0 1 -0.523,-0.51 c -0.009,-0.213 -0.002,-0.427 -0.002,-0.641 h -10e-4 c 0,-0.197 -0.005,-0.394 10e-4,-0.593 0.009,-0.322 0.211,-0.526 0.523,-0.537 0.305,-0.009 0.537,0.181 0.549,0.496 0.017,0.434 0.016,0.869 -0.002,1.302 z M 36.49,163.2 c -0.568,-0.584 -1.531,-0.624 -2.162,-0.092 l -0.101,0.079 v -0.308 h -1.345 v 3.024 h 1.34 c 0.002,-0.044 0.006,-0.085 0.006,-0.128 0,-0.595 -0.004,-1.191 0,-1.786 0,-0.096 0.015,-0.201 0.055,-0.286 0.125,-0.271 0.464,-0.414 0.769,-0.338 0.29,0.07 0.471,0.309 0.471,0.623 v 1.912 h 1.349 c 0.003,-0.017 0.006,-0.026 0.006,-0.036 0,-0.562 0.007,-1.125 -0.002,-1.688 -0.007,-0.37 -0.122,-0.704 -0.386,-0.976 z m 11.562,0.838 a 1.251,1.251 0 0 0 -0.458,-0.92 1.608,1.608 0 0 0 -2.076,-0.01 l -0.102,0.085 v -0.318 h -1.349 v 3.023 h 1.35 v -0.135 l -0.002,-1.807 c 0,-0.126 0.034,-0.239 0.109,-0.341 a 0.691,0.691 0 0 1 0.767,-0.237 c 0.273,0.092 0.42,0.307 0.42,0.621 l 0.001,1.777 c 0,0.041 0.004,0.082 0.007,0.123 h 1.338 c 0.004,-0.02 0.009,-0.034 0.009,-0.046 -0.003,-0.605 0.008,-1.211 -0.014,-1.815 z m 8.241,-0.865 c -0.79,-0.687 -2.096,-0.677 -2.886,0.02 -0.725,0.64 -0.737,1.675 -0.023,2.327 a 2.11,2.11 0 0 0 1.444,0.551 c 0.551,-0.003 1.021,-0.148 1.425,-0.474 0.805,-0.653 0.821,-1.745 0.04,-2.424 z m -0.872,1.191 h -0.01 c 0,0.26 0.012,0.52 -0.003,0.779 -0.019,0.346 -0.267,0.567 -0.593,0.554 -0.256,-0.01 -0.466,-0.208 -0.514,-0.489 a 1.343,1.343 0 0 1 -0.02,-0.236 c -10e-4,-0.405 -10e-4,-0.808 0.002,-1.213 10e-4,-0.085 0.007,-0.172 0.025,-0.254 0.062,-0.3 0.295,-0.491 0.566,-0.476 0.289,0.016 0.505,0.237 0.537,0.547 0.004,0.046 0.01,0.092 0.01,0.138 z M 43.16,163.299 a 2.098,2.098 0 0 0 -1.375,-0.611 c -0.621,-0.044 -1.18,0.116 -1.652,0.532 -0.315,0.277 -0.511,0.625 -0.54,1.051 -0.038,0.553 0.184,0.999 0.609,1.335 0.634,0.501 1.353,0.602 2.115,0.372 0.531,-0.16 0.945,-0.481 1.185,-0.997 0.019,-0.04 0.03,-0.082 0.045,-0.123 h -1.34 c -0.01,0.125 -0.012,0.243 -0.029,0.359 -0.04,0.287 -0.258,0.491 -0.525,0.5 -0.292,0.011 -0.537,-0.158 -0.58,-0.452 -0.041,-0.281 -0.031,-0.569 -0.043,-0.868 h 2.6 c 0,-0.049 0.003,-0.085 -0.001,-0.12 a 1.576,1.576 0 0 0 -0.469,-0.978 z m -1.311,0.634 c -0.234,0 -0.467,-0.003 -0.701,0.002 -0.089,0.002 -0.117,-0.028 -0.107,-0.113 0.013,-0.107 0.007,-0.218 0.028,-0.324 a 0.56,0.56 0 0 1 1.106,0.018 c 0.021,0.132 0.021,0.266 0.032,0.416 z M 39.75,162.42 h -0.737 v -0.61 h -1.375 v 0.611 h -0.114 c -0.182,0.001 -0.363,-0.001 -0.543,0.004 -0.029,10e-4 -0.081,0.031 -0.082,0.05 -0.007,0.127 -0.004,0.255 -0.004,0.393 h 0.749 v 3.033 h 1.373 v -3.036 h 0.733 z m -9.01,3.482 h 1.357 v -3.025 H 30.74 Z m 1.357,-4.563 h -1.363 v 0.911 h 1.363 z"
       id="path6" />
  </g>
</svg>
