<?xml version="1.0" encoding="UTF-8" standalone="no"?>
<!-- Created with Inkscape (http://www.inkscape.org/) -->

<svg
   width="210mm"
   height="297mm"
   viewBox="0 0 210 297"
   version="1.1"
   id="svg1"
   inkscape:version="1.4.2 (f4327f4, 2025-05-13)"
   sodipodi:docname="grade.svg"
   xmlns:inkscape="http://www.inkscape.org/namespaces/inkscape"
   xmlns:sodipodi="http://sodipodi.sourceforge.net/DTD/sodipodi-0.dtd"
   xmlns="http://www.w3.org/2000/svg"
   xmlns:svg="http://www.w3.org/2000/svg">
  <sodipodi:namedview
     id="namedview1"
     pagecolor="#ffffff"
     bordercolor="#000000"
     borderopacity="0.25"
     inkscape:showpageshadow="2"
     inkscape:pageopacity="0.0"
     inkscape:pagecheckerboard="0"
     inkscape:deskcolor="#d1d1d1"
     inkscape:document-units="mm"
     inkscape:zoom="0.73851712"
     inkscape:cx="397.41801"
     inkscape:cy="561.25984"
     inkscape:window-width="1920"
     inkscape:window-height="1009"
     inkscape:window-x="-8"
     inkscape:window-y="-8"
     inkscape:window-maximized="1"
     inkscape:current-layer="layer1" />
  <defs
     id="defs1" />
  <g
     inkscape:label="Camada 1"
     inkscape:groupmode="layer"
     id="layer1">
    <g
       fill="none"
       stroke="#1b3157"
       stroke-width="0.1"
       stroke-miterlimit="10"
       id="g129"
       transform="matrix(3.3353389,0,0,3.3353389,-371.84092,52.046446)">
      <path
         d="m 118.516,3.484 h 48.965 v 50.902 h -48.965 z m 0,47.908 h 48.966 m -48.966,-2.994 h 48.966 m -48.966,-2.994 h 48.966 M 118.516,42.41 h 48.966 m -48.966,-2.995 h 48.966 m -48.966,-2.994 h 48.966 m -48.966,-2.994 h 48.966 m -48.966,-2.994 h 48.966 m -48.966,-2.995 h 48.966 m -48.966,-2.994 h 48.966 M 118.516,21.45 h 48.966 m -48.966,-2.995 h 48.966 m -48.966,-2.994 h 48.966 m -48.966,-2.994 h 48.966 M 118.516,9.473 h 48.966 M 118.516,6.478 h 48.966 M 164.601,3.484 V 54.387 M 161.721,3.484 V 54.387 M 158.841,3.484 V 54.387 M 155.96,3.484 V 54.387 M 153.08,3.484 V 54.387 M 150.2,3.484 V 54.387 M 147.32,3.484 V 54.387 M 144.439,3.484 V 54.387 M 141.559,3.484 V 54.387 M 138.679,3.484 V 54.387 M 135.798,3.484 V 54.387 M 132.918,3.484 V 54.387 M 130.038,3.484 V 54.387 M 127.157,3.484 v 50.903 m -2.88,-50.903 v 50.903 m -2.88,-50.903 v 50.903"
         id="path129" />
    </g>
  </g>
</svg>
