<?xml version="1.0" encoding="UTF-8" standalone="no"?>
<!-- Created with Inkscape (http://www.inkscape.org/) -->

<svg
   width="210mm"
   height="130mm"
   viewBox="0 0 210 130"
   version="1.1"
   id="svg1"
   xml:space="preserve"
   inkscape:version="1.4.2 (f4327f4, 2025-05-13)"
   sodipodi:docname="laser310.svg"
   xmlns:inkscape="http://www.inkscape.org/namespaces/inkscape"
   xmlns:sodipodi="http://sodipodi.sourceforge.net/DTD/sodipodi-0.dtd"
   xmlns="http://www.w3.org/2000/svg"
   xmlns:svg="http://www.w3.org/2000/svg"><sodipodi:namedview
     id="namedview1"
     pagecolor="#ffffff"
     bordercolor="#000000"
     borderopacity="0.25"
     inkscape:showpageshadow="2"
     inkscape:pageopacity="0.0"
     inkscape:pagecheckerboard="0"
     inkscape:deskcolor="#d1d1d1"
     inkscape:document-units="mm"
     inkscape:zoom="0.73851712"
     inkscape:cx="397.41801"
     inkscape:cy="561.25984"
     inkscape:window-width="1920"
     inkscape:window-height="1009"
     inkscape:window-x="-8"
     inkscape:window-y="-8"
     inkscape:window-maximized="1"
     inkscape:current-layer="layer1" /><defs
     id="defs1" /><g
     inkscape:label="Camada 1"
     inkscape:groupmode="layer"
     id="layer1"><path
       d="m 197.85526,1.7224086 c 3.46524,0 6.30151,2.866776 6.30151,6.373397 V 122.49908 c 0,3.50485 -2.83627,6.37346 -6.30151,6.37346 H 173.39504 35.780762 11.320593 c -3.4652986,0 -6.3015175,-2.86678 -6.3015175,-6.37346 V 8.0958056 c 0,-3.504856 2.8362189,-6.373397 6.3015175,-6.373397 h 6.323085 86.970312 -0.0544 86.97032 z M 81.582721,120.98394 v -3.45989 c 0,-1.31569 -1.076645,-2.39226 -2.392275,-2.39226 h -4.399918 c -1.315697,0 -2.392274,1.07657 -2.392274,2.39226 v 3.45989 c 0,1.31568 1.076577,2.39227 2.392274,2.39227 h 4.399918 c 1.31563,0.002 2.392275,-1.07659 2.392275,-2.39227 z m 48.404469,2.3941 h 4.39993 c 1.31569,0 2.39227,-1.07664 2.39227,-2.39234 v -3.45988 c 0,-1.31563 -1.07658,-2.39229 -2.39227,-2.39229 h -4.39993 c -1.31562,0 -2.39227,1.07666 -2.39227,2.39229 v 3.45988 c 0,1.31392 1.07665,2.39234 2.39227,2.39234 z m 17.60329,-1.00476 c 0,2.83083 2.29519,5.12785 5.12603,5.12785 2.83084,0 5.12788,-2.2952 5.12788,-5.12785 0,-2.83261 -2.2952,-5.12781 -5.12788,-5.12781 -2.83084,0 -5.12603,2.29695 -5.12603,5.12781 z m -91.129377,-5.12781 c -2.830825,0 -5.127846,2.2952 -5.127846,5.12781 0,2.83265 2.295221,5.12785 5.127846,5.12785 2.832633,0 5.126052,-2.2952 5.126052,-5.12785 0,-2.83261 -2.29522,-5.12781 -5.126052,-5.12781 z M 72.459324,58.835081 c 0,-6.008534 -4.870806,-10.879349 -10.879355,-10.879349 -6.008552,0 -10.879378,4.870815 -10.879378,10.879349 0,6.008551 4.870826,10.879365 10.879378,10.879365 6.008549,0 10.879355,-4.870814 10.879355,-10.879365 z m 86.483246,0.185469 c 0,-6.008551 -4.87082,-10.879366 -10.87936,-10.879366 -6.00861,0 -10.87942,4.870815 -10.87942,10.879366 0,6.008533 4.87081,10.879347 10.87942,10.879347 6.00854,0 10.87936,-4.872587 10.87936,-10.879347 z"
       fill="#515151"
       id="path934"
       style="stroke-width:1.79735" /><circle
       cx="12.237231"
       cy="108.14548"
       fill="#212121"
       r="2.0507793"
       id="circle934"
       style="stroke-width:1.79735" /><circle
       cx="196.94046"
       cy="108.14548"
       fill="#212121"
       r="2.0507793"
       id="circle935"
       style="stroke-width:1.79735" /><path
       d="M 104.89977,37.789863 H 17.970795 c 7.762771,-16.204912 24.318186,-27.397024 43.488744,-27.397024 19.131043,0 35.657674,11.244216 43.440231,27.397024"
       fill="#341d0e"
       id="path935"
       style="stroke-width:1.79735" /><path
       d="M 105.18196,79.38781 H 17.859362 c 7.796919,16.11688 24.496117,27.39167 43.600177,27.39167 19.134643,0 35.941695,-11.23349 43.722421,-27.39167"
       fill="#341d0e"
       id="path936"
       style="stroke-width:1.79735" /><path
       d="m 19.216358,2.5941056 h 9.996881"
       fill="none"
       stroke="#404040"
       stroke-miterlimit="10"
       stroke-width="1.28169"
       id="path937" /><path
       d="M 37.833344,9.2281551 H 30.911735 V 2.5959396 h 7.723227 v 5.832389 c -0.0018,0.4388385 -0.361259,0.7998265 -0.801618,0.7998265 z"
       fill="none"
       stroke="#404040"
       stroke-miterlimit="10"
       stroke-width="1.28169"
       id="path938" /><path
       d="M 5.0208689,119.65928 V 83.38694 L 2.073215,86.33455 v 30.37711 z"
       fill="#545454"
       stroke="#404040"
       stroke-miterlimit="10"
       stroke-width="1.28169"
       id="path939" /><circle
       cx="104.73971"
       cy="17.846403"
       fill="#414141"
       r="2.0507793"
       id="circle939"
       style="stroke-width:1.79735" /><path
       d="m 189.96129,2.5941056 h -9.99687"
       fill="none"
       stroke="#404040"
       stroke-miterlimit="10"
       stroke-width="1.28169"
       id="path940" /><path
       d="m 171.34427,9.2281551 h 6.92159 V 2.5959396 h -7.72318 v 5.832389 c 0.002,0.4388385 0.36139,0.7998265 0.80159,0.7998265 z"
       fill="none"
       stroke="#404040"
       stroke-miterlimit="10"
       stroke-width="1.28169"
       id="path941" /><path
       d="M 204.15677,119.65928 V 83.38694 l 2.94762,2.94761 v 30.37711 z"
       fill="#545454"
       stroke="#404040"
       stroke-miterlimit="10"
       stroke-width="1.28169"
       id="path942" /><circle
       cx="24.310102"
       cy="117.24549"
       fill="#939393"
       r="7.9460959"
       id="circle942"
       style="stroke-width:1.79735" /><circle
       cx="24.310102"
       cy="117.24549"
       fill="#232323"
       r="1.6014413"
       id="circle943"
       style="stroke-width:1.79735" /><path
       d="m 27.306247,117.24547 v 0.86448 l 2.563025,1.44151 c 0.451133,0 0.817794,-0.68841 0.817794,-1.53857 v -0.76927 -0.76924 c 0,-0.85017 -0.366628,-1.53853 -0.817794,-1.53853 l -2.563025,1.44144 z"
       fill="#717171"
       id="path943"
       style="stroke-width:1.79735" /><path
       d="m 25.742553,114.62847 0.749494,0.4334 2.530671,-1.49898 c 0.226483,-0.38992 -0.186947,-1.0515 -0.92384,-1.47744 l -0.666816,-0.38448 -0.666815,-0.3845 c -0.735112,-0.42388 -1.515163,-0.45309 -1.739834,-0.0611 l -0.03259,2.94048 z"
       fill="#717171"
       id="path944"
       style="stroke-width:1.79735" /><path
       d="m 21.4325,117.2041 v 0.86456 l -2.563025,1.44143 c -0.451133,0 -0.8178,-0.68834 -0.8178,-1.53851 v -0.76926 -0.76925 c 0,-0.85016 0.364859,-1.53857 0.8178,-1.53857 l 2.563025,1.44149 z"
       fill="#717171"
       id="path945"
       style="stroke-width:1.79735" /><path
       d="m 22.963845,114.62847 -0.749502,0.4334 -2.53067,-1.49898 c -0.226483,-0.38992 0.186948,-1.0515 0.923841,-1.47744 l 0.666815,-0.38448 0.666815,-0.3845 c 0.735113,-0.42388 1.51517,-0.45309 1.739832,-0.0611 l 0.0326,2.94048 z"
       fill="#717171"
       id="path946"
       style="stroke-width:1.79735" /><path
       d="m 22.994401,119.86415 -0.749502,-0.4334 -2.530671,1.49898 c -0.226482,0.38992 0.186947,1.05145 0.923842,1.47743 l 0.666814,0.38449 0.666816,0.3845 c 0.735113,0.42388 1.515162,0.4531 1.739832,0.0611 l 0.03261,-2.94047 z"
       fill="#717171"
       id="path947"
       style="stroke-width:1.79735" /><path
       d="m 25.774903,119.86415 0.749494,-0.4334 2.530677,1.49898 c 0.226483,0.38992 -0.186947,1.05145 -0.923841,1.47743 l -0.666815,0.38449 -0.666815,0.3845 c -0.735119,0.42388 -1.51517,0.4531 -1.739839,0.0611 l -0.03261,-2.94047 z"
       fill="#717171"
       id="path948"
       style="stroke-width:1.79735" /><circle
       cx="184.86754"
       cy="117.24549"
       fill="#939393"
       r="7.9460959"
       id="circle948"
       style="stroke-width:1.79735" /><circle
       cx="184.86754"
       cy="117.24549"
       fill="#232323"
       r="1.6014413"
       id="circle949"
       style="stroke-width:1.79735" /><path
       d="m 181.8714,117.24547 v 0.86448 l -2.56306,1.44151 c -0.45106,0 -0.81776,-0.68841 -0.81776,-1.53857 v -0.76927 -0.76924 c 0,-0.85017 0.36684,-1.53853 0.81776,-1.53853 l 2.56306,1.44144 z"
       fill="#717171"
       id="path949"
       style="stroke-width:1.79735" /><path
       d="m 183.43512,114.62847 -0.74957,0.4334 -2.53064,-1.49898 c -0.22621,-0.38992 0.18681,-1.0515 0.92387,-1.47744 l 0.66708,-0.38448 0.66709,-0.3845 c 0.73509,-0.42388 1.51515,-0.45309 1.73979,-0.0611 l 0.034,2.94048 z"
       fill="#717171"
       id="path950"
       style="stroke-width:1.79735" /><path
       d="m 187.74516,117.2041 v 0.86456 l 2.56297,1.44143 c 0.45108,0 0.81784,-0.68834 0.81784,-1.53851 v -0.76926 -0.76925 c 0,-0.85016 -0.36683,-1.53857 -0.81784,-1.53857 l -2.56297,1.44149 z"
       fill="#717171"
       id="path951"
       style="stroke-width:1.79735" /><path
       d="m 186.21378,114.62847 0.74948,0.4334 2.53073,-1.49898 c 0.22621,-0.38992 -0.18682,-1.0515 -0.92387,-1.47744 l -0.66709,-0.38448 -0.66709,-0.3845 c -0.73516,-0.42388 -1.51514,-0.45309 -1.73986,-0.0611 l -0.034,2.94048 z"
       fill="#717171"
       id="path952"
       style="stroke-width:1.79735" /><path
       d="m 186.18321,119.86415 0.74949,-0.4334 2.53072,1.49898 c 0.22621,0.38992 -0.18682,1.05145 -0.92387,1.47743 l -0.6671,0.38449 -0.66709,0.3845 c -0.73508,0.42388 -1.51512,0.4531 -1.73985,0.0611 l -0.034,-2.94047 z"
       fill="#717171"
       id="path953"
       style="stroke-width:1.79735" /><path
       d="m 183.40272,119.86415 -0.7495,-0.4334 -2.53064,1.49898 c -0.22623,0.38992 0.18681,1.05145 0.9238,1.47743 l 0.66708,0.38449 0.66709,0.3845 c 0.73508,0.42388 1.51515,0.4531 1.73979,0.0611 l 0.034,-2.94047 z"
       fill="#717171"
       id="path954"
       style="stroke-width:1.79735" /><path
       d="M 194.31983,79.38781 H 14.343739 c -1.691311,0 -3.07707,-1.38397 -3.07707,-3.07709 V 40.859753 c 0,-1.69129 1.383968,-3.077086 3.07707,-3.077086 H 194.31983 c 1.69136,0 3.07526,1.383953 3.07526,3.077086 V 76.31072 c 0.002,1.69312 -1.38215,3.07709 -3.07526,3.07709 z M 158.94257,58.905187 c 0,-6.008603 -4.87082,-10.879418 -10.87936,-10.879418 -6.00861,0 -10.87942,4.870815 -10.87942,10.879418 0,6.008552 4.87081,10.879366 10.87942,10.879366 6.00854,0 10.87936,-4.870814 10.87936,-10.879366 z M 72.391053,58.750261 c 0,-6.008533 -4.870841,-10.879365 -10.87939,-10.879365 -6.00855,0 -10.87937,4.870832 -10.87937,10.879365 0,6.008533 4.87082,10.879419 10.87937,10.879419 6.008549,0 10.87939,-4.870886 10.87939,-10.879419 z"
       fill="#5a5a5b"
       stroke="#2d2c2c"
       stroke-miterlimit="10"
       stroke-width="0.256302"
       id="path961" /><path
       d="m 64.577952,128.07632 h 7.818467"
       fill="none"
       stroke="#292929"
       stroke-miterlimit="10"
       stroke-width="1.53818"
       id="path962" /><path
       d="M 64.577952,128.07632 H 38.857831"
       fill="none"
       stroke="#404040"
       stroke-miterlimit="10"
       stroke-width="1.28169"
       id="path963" /><path
       d="m 72.396419,128.07632 h 8.332538"
       fill="none"
       stroke="#404040"
       stroke-miterlimit="10"
       stroke-width="1.28169"
       id="path964" /><path
       d="m 81.924212,112.35488 -10.872224,2.60611 h 10.872224 z"
       fill="#292929"
       id="path965"
       style="stroke-width:1.79735" /><path
       d="m 144.59966,128.07632 h -7.81844"
       fill="none"
       stroke="#292929"
       stroke-miterlimit="10"
       stroke-width="1.53818"
       id="path966" /><path
       d="m 146.0951,48.223523 c 5.92586,-1.044249 11.57674,2.911664 12.62098,8.837541 1.04424,5.925929 -2.91168,11.5768 -8.83761,12.621049 -5.92586,1.044232 -11.57673,-2.911753 -12.62098,-8.837612 -1.04424,-5.925858 2.91352,-11.576748 8.83761,-12.620978 z m -10.01486,12.827701 c 1.15925,6.576498 7.43027,10.967456 14.00678,9.808136 6.57651,-1.159307 10.9674,-7.430277 9.80815,-14.006774 -1.15932,-6.576515 -7.43027,-10.967411 -14.00678,-9.808156 -6.57651,1.159328 -10.96747,7.432034 -9.80815,14.006794 z"
       fill="#9d9d9d"
       id="path967"
       style="stroke-width:1.79735" /><path
       d="m 148.038,70.106265 c -2.26646,0 -4.47722,-0.691941 -6.37162,-2.020198 -2.44078,-1.709299 -4.06916,-4.265147 -4.58504,-7.198438 -1.06761,-6.055259 2.99082,-11.849943 9.04609,-12.917556 6.05711,-1.067612 11.84997,2.990813 12.91758,9.04609 0.51763,2.933273 -0.13858,5.893525 -1.84767,8.33254 -1.70929,2.438997 -4.26515,4.069149 -7.19842,4.585034 -0.65418,0.114865 -1.31027,0.172475 -1.96092,0.172475 z m -1.82252,-21.63112 c -5.77669,1.019096 -9.64817,6.547763 -8.62907,12.324456 0.49455,2.79843 2.04719,5.237445 4.37479,6.867667 2.32754,1.630206 5.15117,2.255656 7.94967,1.763222 2.79844,-0.494541 5.23746,-2.047177 6.86767,-4.374783 1.63022,-2.327535 2.25567,-5.151171 1.76323,-7.949673 -1.02094,-5.778518 -6.54777,-9.650002 -12.32629,-8.630889 z"
       fill="#e4e4e3"
       id="path968"
       style="stroke-width:1.79735" /><path
       d="m 137.50612,61.503224 2.94184,-0.518987 0.13383,0.757563 -2.94184,0.519005 z"
       fill="#e4e4e3"
       id="path969"
       style="stroke-width:1.79738" /><path
       d="m 137.163,59.549392 2.94177,-0.519005 0.13383,0.757582 -2.94177,0.518986 z"
       fill="#e4e4e3"
       id="path970"
       style="stroke-width:1.79738" /><path
       d="m 155.97837,58.247139 2.94178,-0.518986 0.13383,0.757562 -2.94177,0.519006 z"
       fill="#e4e4e3"
       id="path971"
       style="stroke-width:1.79738" /><path
       d="m 155.63505,56.293165 2.94177,-0.519004 0.13384,0.757581 -2.94178,0.518987 z"
       fill="#e4e4e3"
       id="path972"
       style="stroke-width:1.79738" /><path
       d="m 144.91132,69.408209 1.02129,-2.807063 0.72293,0.262896 -1.02135,2.807064 z"
       fill="#e4e4e3"
       id="path973"
       style="stroke-width:1.7973" /><path
       d="m 143.04627,68.728765 1.02135,-2.807134 0.72285,0.262896 -1.02134,2.807064 z"
       fill="#e4e4e3"
       id="path974"
       style="stroke-width:1.7973" /><path
       d="m 151.34437,51.779658 1.02222,-2.806727 0.7228,0.262897 -1.02224,2.806726 z"
       fill="#e4e4e3"
       id="path975"
       style="stroke-width:1.79731" /><path
       d="m 149.48087,51.100887 1.02223,-2.80678 0.72279,0.26288 -1.02217,2.806797 z"
       fill="#e4e4e3"
       id="path976"
       style="stroke-width:1.79731" /><path
       d="m 153.54826,64.555599 0.58897,-0.494543 1.92015,2.288201 -0.58896,0.494542 z"
       fill="#e4e4e3"
       id="path977"
       style="stroke-width:1.79731" /><path
       d="m 152.02904,65.832911 0.58898,-0.494542 1.92014,2.2882 -0.58896,0.494543 z"
       fill="#e4e4e3"
       id="path978"
       style="stroke-width:1.79731" /><path
       d="m 141.51075,50.225055 0.58896,-0.494543 1.92015,2.2882 -0.58896,0.494543 z"
       fill="#e4e4e3"
       id="path979"
       style="stroke-width:1.79731" /><path
       d="m 139.9719,51.464522 0.58896,-0.494542 1.92022,2.288217 -0.58965,0.494525 z"
       fill="#e4e4e3"
       id="path980"
       style="stroke-width:1.79731" /><path
       d="m 145.53969,45.081754 c 7.66933,-1.35162 14.98092,3.769044 16.33256,11.436534 1.35162,7.669316 -3.76905,14.980922 -11.43653,16.332552 -7.66933,1.35163 -14.98099,-3.769041 -16.33256,-11.436531 -1.35163,-7.667561 3.76721,-14.979162 11.43653,-16.332555 z m -9.45945,15.985637 c 1.15925,6.576496 7.43027,10.967469 14.00678,9.808139 6.57651,-1.159258 10.9674,-7.430281 9.80815,-14.006778 -1.15932,-6.576515 -7.43027,-10.967394 -14.00678,-9.808156 -6.57651,1.159327 -10.96747,7.430279 -9.80815,14.006795 z"
       fill="#bcbdbc"
       id="path981"
       style="stroke-width:1.79735" /><path
       d="m 145.53072,45.081754 c 7.66926,-1.35162 14.98092,3.769044 16.33256,11.436534 1.35156,7.669316 -3.76905,14.980922 -11.4366,16.332552 -7.66926,1.35163 -14.98092,-3.769041 -16.33256,-11.436531 -1.35156,-7.667561 3.76728,-14.979162 11.4366,-16.332555 z M 126.65489,62.78027 c 2.05261,11.64141 13.26809,19.39525 25.04972,17.31749 11.78168,-2.07775 19.66846,-13.199754 17.61584,-24.841238 C 167.2679,43.615126 156.05243,35.861291 144.27073,37.939047 132.48911,40.016784 124.60234,51.138804 126.65489,62.78027 Z"
       fill="#cccccc"
       id="path982"
       style="stroke-width:1.79735" /><path
       d="m 136.45766,42.349761 c 2.2431,-1.569085 4.83849,-2.706803 7.6891,-3.267571 l 0.75669,4.292037 c -2.07055,0.419136 -3.96856,1.225836 -5.63112,2.329378 z"
       fill="#9c9c9c"
       id="path983"
       style="stroke-width:1.79735" /><path
       d="m 144.38581,40.439181 c -2.60435,0.515602 -4.9787,1.549321 -7.03845,2.97282 l 1.09458,1.306668 c 1.83511,-1.242002 3.93799,-2.144264 6.23862,-2.606191 z"
       fill="#525252"
       id="path984"
       style="stroke-width:1.79735" /><path
       d="m 153.28808,39.382312 c -2.64388,-0.708126 -5.47295,-0.887868 -8.34334,-0.440194 l 0.75669,4.292037 c 2.08856,-0.314515 4.14831,-0.20651 6.08768,0.264262 z"
       fill="#9c9c9c"
       id="path985"
       style="stroke-width:1.79735" /><path
       d="m 145.1838,40.298985 c 2.62236,-0.40623 5.20877,-0.247953 7.62979,0.38652 l -0.58218,1.601417 c -2.14779,-0.539372 -4.43402,-0.668454 -6.75265,-0.314516 z"
       fill="#525252"
       id="path986"
       style="stroke-width:1.79735" /><path
       d="m 127.88072,60.702533 c -0.23913,-2.726569 0.0753,-5.544852 1.0155,-8.293011 l 4.09613,1.490009 c -0.67252,2.002276 -0.92204,4.049454 -0.79799,6.040936 z"
       fill="#9c9c9c"
       id="path987"
       style="stroke-width:1.79735" /><path
       d="m 130.19207,52.880417 c -0.85552,2.51272 -1.14851,5.086507 -0.94539,7.581288 l 1.67872,-0.294822 c -0.15828,-2.208929 0.11141,-4.482593 0.86273,-6.70409 z"
       fill="#525252"
       id="path988"
       style="stroke-width:1.79735" /><path
       d="m 133.7275,44.641364 c -1.93578,1.93577 -3.50662,4.295707 -4.5527,7.006109 l 4.09614,1.490009 c 0.77108,-1.966346 1.89623,-3.695339 3.273,-5.140447 z"
       fill="#9c9c9c"
       id="path989"
       style="stroke-width:1.79735" /><path
       d="m 130.4689,52.11837 c 0.9598,-2.474946 2.3905,-4.635376 4.15007,-6.414765 l 1.09641,1.304894 c -1.54034,1.590676 -2.79667,3.506626 -3.64867,5.690402 -0.002,0.0018 -1.59781,-0.580798 -1.59781,-0.580798 z"
       fill="#525252"
       id="path990"
       style="stroke-width:1.79735" /><path
       d="m 139.48619,77.3047 c -2.48032,-1.15755 -4.76294,-2.83805 -6.67352,-5.02543 l 3.33944,-2.802036 c 1.39837,1.583416 3.04476,2.823646 4.83312,3.711486 z"
       fill="#9c9c9c"
       id="path991"
       style="stroke-width:1.79735" /><path
       d="m 133.86771,71.39316 c 1.74883,1.99684 3.83195,3.5372 6.09298,4.60841 l 0.58421,-1.60143 c -1.99142,-0.96877 -3.82651,-2.33832 -5.37589,-4.09972 z"
       fill="#525252"
       id="path992"
       style="stroke-width:1.79735" /><path
       d="m 128.50079,64.212739 c 0.70819,2.643894 1.96811,5.183576 3.79064,7.444671 l 3.33945,-2.802099 c -1.31747,-1.651742 -2.25207,-3.488686 -2.81645,-5.404619 z"
       fill="#9c9c9c"
       id="path993"
       style="stroke-width:1.79735" /><path
       d="m 133.34647,70.771315 c -1.66255,-2.068785 -2.81827,-4.38735 -3.48149,-6.801229 l 1.67873,-0.296169 c 0.60731,2.129852 1.63918,4.173432 3.10406,6.004935 z"
       fill="#525252"
       id="path994"
       style="stroke-width:1.79735" /><path
       d="m 159.66692,75.55588 c -2.2431,1.56906 -4.83849,2.70678 -7.68909,3.26757 l -0.75669,-4.29213 c 2.07055,-0.41844 3.96856,-1.22575 5.63111,-2.32936 z"
       fill="#9c9c9c"
       id="path995"
       style="stroke-width:1.79735" /><path
       d="m 151.73694,77.46461 c 2.60442,-0.5156 4.97869,-1.54932 7.03845,-2.97282 l -1.09459,-1.30667 c -1.8351,1.24201 -3.93798,2.14427 -6.23861,2.60619 z"
       fill="#525252"
       id="path996"
       style="stroke-width:1.79735" /><path
       d="m 142.8365,78.52325 c 2.64388,0.70818 5.47289,0.88792 8.34327,0.44019 l -0.75669,-4.2921 c -2.08848,0.31452 -4.14824,0.20651 -6.08761,-0.26427 z"
       fill="#9c9c9c"
       id="path997"
       style="stroke-width:1.79735" /><path
       d="m 150.94071,77.60665 c -2.62412,0.40623 -5.2087,0.24796 -7.62971,-0.38653 l 0.58217,-1.60141 c 2.14785,0.53938 4.43409,0.66844 6.75265,0.31452 z"
       fill="#525252"
       id="path998"
       style="stroke-width:1.79735" /><path
       d="m 168.24387,57.208475 c 0.23912,2.726568 -0.0754,5.544834 -1.0155,8.292993 l -4.0962,-1.490009 c 0.67253,-2.002277 0.92203,-4.049455 0.79806,-6.040937 z"
       fill="#9c9c9c"
       id="path999"
       style="stroke-width:1.79735" /><path
       d="m 165.93244,65.028746 c 0.85553,-2.51272 1.14851,-5.086506 0.9454,-7.581217 l -1.67872,0.294822 c 0.15828,2.208911 -0.11141,4.482593 -0.86273,6.704144 z"
       fill="#525252"
       id="path1000"
       style="stroke-width:1.79735" /><path
       d="m 162.39885,73.2678 c 1.93578,-1.9357 3.50662,-4.295637 4.5527,-7.006039 l -4.09614,-1.490009 c -0.77108,1.966275 -1.89623,3.695339 -3.27299,5.140447 z"
       fill="#9c9c9c"
       id="path1001"
       style="stroke-width:1.79735" /><path
       d="m 165.65569,65.790865 c -0.95981,2.474945 -2.39051,4.635358 -4.15014,6.414695 l -1.09635,-1.304821 c 1.54035,-1.590697 2.79668,-3.506702 3.6486,-5.690424 z"
       fill="#525252"
       id="path1002"
       style="stroke-width:1.79735" /><path
       d="m 165.4777,53.888735 3.23708,-0.571315 c -1.67513,-6.166738 -5.95284,-11.057336 -11.40964,-13.67425 l -1.09457,2.773295 -0.93644,2.37068 c 3.74214,1.908806 6.68975,5.275272 7.98025,9.491849 z"
       fill="#525252"
       id="path1003"
       style="stroke-width:1.79735" /><path
       d="m 157.28361,39.52428 0.0204,0.120184 c 5.4568,2.617003 9.73451,7.507582 11.40964,13.674268 l -3.23708,0.571297 c 0.62362,0.562469 0.8825,0.965172 0.77646,1.204227 -0.15623,0.352556 -1.09818,0.355959 -2.829,0.01418 0.0686,-0.629031 0.42389,-4.44489 -2.39051,-7.712461 -2.80203,-3.253231 -5.87553,-2.847 -6.51001,-2.873962 -0.0204,-1.763169 0.16032,-2.690637 0.53598,-2.77691 0.25542,-0.06115 0.60187,0.269685 1.03887,0.98678 l 1.1611,-3.075331 m 7.0258,13.009289 2.85781,-0.503388 c -1.64815,-4.647996 -4.90315,-8.417041 -9.00112,-10.771537 l -1.10898,2.381476 c 0.48163,0.02712 2.74994,0.273072 4.89418,2.847 2.15323,2.584581 2.52529,5.532266 2.47495,6.026542"
       fill="#9c9c9c"
       id="path1004"
       style="stroke-width:1.79735" /><path
       d="m 144.59966,128.07632 h 25.72013"
       fill="none"
       stroke="#404040"
       stroke-miterlimit="10"
       stroke-width="1.28169"
       id="path1005" /><path
       d="m 136.78122,128.07632 h -8.33253"
       fill="none"
       stroke="#404040"
       stroke-miterlimit="10"
       stroke-width="1.28169"
       id="path1006" /><path
       d="m 127.25343,112.35488 10.87216,2.60611 h -10.87216 z"
       fill="#292929"
       id="path1007"
       style="stroke-width:1.79735" /><path
       d="m 81.924212,112.35488 h 45.327448 v 1.53849 H 81.924212 Z"
       fill="#292929"
       id="path1008"
       style="stroke-width:1.79735" /><path
       d="m 100.64,122.01025 h 7.94431 v 4.14469 H 100.64 Z"
       fill="#100b06"
       id="path1009"
       style="stroke-width:1.79735" /><path
       d="M 5.6607285,96.45728 H 203.43243 v 1.19703 H 5.6607285 Z"
       fill="#434343"
       id="path1010"
       style="stroke-width:1.79735" /><path
       d="M 5.6607285,98.50807 H 203.43243 v 1.197008 H 5.6607285 Z"
       fill="#434343"
       id="path1011"
       style="stroke-width:1.79735" /><path
       d="M 5.6607285,100.55885 H 203.43243 v 1.19703 H 5.6607285 Z"
       fill="#434343"
       id="path1012"
       style="stroke-width:1.79735" /><path
       d="M 5.6607285,102.60957 H 203.43243 v 1.19709 H 5.6607285 Z"
       fill="#434343"
       id="path1013"
       style="stroke-width:1.79735" /><path
       d="M 5.6607285,104.66035 H 203.43243 v 1.19708 H 5.6607285 Z"
       fill="#434343"
       id="path1014"
       style="stroke-width:1.79735" /><path
       d="M 5.6607285,106.71112 H 203.43243 v 1.19711 H 5.6607285 Z"
       fill="#434343"
       id="path1015"
       style="stroke-width:1.79735" /><path
       d="M 5.6607285,108.76192 H 203.43243 V 109.959 H 5.6607285 Z"
       fill="#434343"
       id="path1016"
       style="stroke-width:1.79735" /><path
       d="M 5.6607285,110.8127 H 203.43243 v 1.19708 H 5.6607285 Z"
       fill="#434343"
       id="path1017"
       style="stroke-width:1.79735" /><path
       d="M 5.6607285,112.88325 H 203.43243 v 1.19709 H 5.6607285 Z"
       fill="#434343"
       id="path1018"
       style="stroke-width:1.79735" /><path
       d="M 5.6607285,116.13111 H 72.849387 c 0.43476,-0.60391 1.143081,-0.99932 1.939306,-0.99932 h 4.399919 c 0.796225,0 1.504411,0.39536 1.939376,0.99932 h 46.918062 c 0.43477,-0.60391 1.14316,-0.99932 1.93938,-0.99932 h 4.39992 c 0.79622,0 1.50434,0.39536 1.93931,0.99932 h 67.106 v -1.19708 H 5.6607285 Z"
       fill="#434343"
       id="path1019"
       style="stroke-width:1.79735" /><path
       d="m 59.406964,118.18184 h 12.989455 v -0.65759 c 0,-0.18545 0.02039,-0.36479 0.06114,-0.53734 H 5.6571623 v 1.19704 H 53.509882 c 0.833974,-0.58763 1.849474,-0.93644 2.947662,-0.93644 1.098178,0 2.113686,0.34713 2.947652,0.93459 z"
       fill="#434343"
       id="path1020"
       style="stroke-width:1.79735" /><path
       d="m 81.582721,117.52405 v 0.65758 h 46.012199 v -0.65758 c 0,-0.18545 0.0204,-0.36478 0.0611,-0.53733 H 81.516215 c 0.04075,0.17248 0.06793,0.35255 0.06793,0.53733 z"
       fill="#434343"
       id="path1021"
       style="stroke-width:1.79735" /><path
       d="m 136.78122,118.18184 h 12.98944 c 0.834,-0.58761 1.8495,-0.93637 2.94769,-0.93637 1.09817,0 2.11368,0.34847 2.94761,0.93637 h 47.77007 v -1.19704 h -66.71595 c 0.0408,0.17248 0.0611,0.35258 0.0611,0.53735 v 0.65962 z"
       fill="#434343"
       id="path1022"
       style="stroke-width:1.79735" /><path
       d="m 72.396419,119.0356 h -12.04944 c 0.309155,0.35934 0.56614,0.76212 0.767469,1.19701 h 11.281971 z"
       fill="#434343"
       id="path1023"
       style="stroke-width:1.79735" /><path
       d="m 203.43419,120.23261 v -1.19701 h -46.82996 c 0.30909,0.35934 0.56587,0.76212 0.76742,1.19701 z"
       fill="#434343"
       id="path1024"
       style="stroke-width:1.79735" /><path
       d="m 136.78122,120.23261 h 11.28199 c 0.20108,-0.43475 0.45853,-0.83753 0.76742,-1.19701 h -12.04941 z"
       fill="#434343"
       id="path1025"
       style="stroke-width:1.79735" /><path
       d="m 5.6607285,119.0356 v 1.19701 H 51.805958 c 0.201282,-0.43475 0.458334,-0.83753 0.767475,-1.19701 z"
       fill="#434343"
       id="path1026"
       style="stroke-width:1.79735" /><path
       d="m 81.582721,119.0356 h 46.012199 v 1.19701 H 81.582721 Z"
       fill="#434343"
       id="path1027"
       style="stroke-width:1.79735" /><path
       d="m 5.6607285,121.08638 v 1.19701 H 51.338651 c 0.0075,-0.41369 0.06454,-0.81239 0.16535,-1.19701 z"
       fill="#434343"
       id="path1028"
       style="stroke-width:1.79735" /><path
       d="m 81.194492,122.28339 h 46.786898 c -0.22621,-0.34711 -0.36276,-0.75668 -0.38314,-1.19701 H 81.575247 c -0.01365,0.44019 -0.154891,0.85016 -0.381095,1.19701 z"
       fill="#434343"
       id="path1029"
       style="stroke-width:1.79735" /><path
       d="m 203.43419,122.28339 v -1.19701 h -45.75875 c 0.0986,0.38312 0.15828,0.78365 0.16507,1.19701 z"
       fill="#434343"
       id="path1030"
       style="stroke-width:1.79735" /><path
       d="m 136.39299,122.28339 h 11.20109 c 0.007,-0.41369 0.0679,-0.81239 0.16506,-1.19701 h -10.98363 c -0.0204,0.44019 -0.15624,0.85016 -0.38313,1.19701 z"
       fill="#434343"
       id="path1031"
       style="stroke-width:1.79735" /><path
       d="M 72.401854,121.08638 H 61.418203 c 0.09884,0.38312 0.158153,0.78365 0.16535,1.19701 h 11.201101 c -0.226213,-0.34711 -0.362756,-0.75668 -0.382455,-1.19701 z"
       fill="#434343"
       id="path1032"
       style="stroke-width:1.79735" /><path
       d="m 134.38712,123.37804 h -4.39993 c -0.37022,0 -0.71891,-0.0883 -1.03344,-0.23912 H 80.222121 c -0.312485,0.15085 -0.663011,0.23912 -1.033509,0.23912 h -4.399919 c -0.370227,0 -0.718918,-0.0883 -1.033441,-0.23912 H 61.522451 c -0.06318,0.4171 -0.170774,0.81777 -0.327091,1.19701 h 86.78335 c -0.15624,-0.37769 -0.26426,-0.78003 -0.32676,-1.19701 h -12.23282 c -0.31112,0.15085 -0.66165,0.23912 -1.03167,0.23912 z"
       fill="#434343"
       id="path1033"
       style="stroke-width:1.79735" /><path
       d="m 203.43419,124.33418 v -1.19703 h -45.65271 c -0.0611,0.41711 -0.17051,0.81783 -0.32742,1.19703 z"
       fill="#434343"
       id="path1034"
       style="stroke-width:1.79735" /><path
       d="m 5.6607285,123.13715 v 1.19703 H 51.723286 c -0.15638,-0.37771 -0.264185,-0.78006 -0.32709,-1.19703 z"
       fill="#434343"
       id="path1035"
       style="stroke-width:1.79735" /><path
       d="M 148.43704,125.19332 H 60.738807 c -0.298354,0.45105 -0.665049,0.85014 -1.085606,1.18626 h 89.869449 c -0.4205,-0.33624 -0.78726,-0.73514 -1.08561,-1.18626 z"
       fill="#434343"
       id="path1036"
       style="stroke-width:1.79735" /><path
       d="M 52.181605,125.19332 H 6.471334 v 1.18626 h 46.795877 c -0.420565,-0.33624 -0.787244,-0.73514 -1.085606,-1.18626 z"
       fill="#434343"
       id="path1037"
       style="stroke-width:1.79735" /><path
       d="m 155.91044,126.37958 h 46.61252 v -1.18626 h -45.52697 c -0.29822,0.45105 -0.66505,0.85014 -1.08555,1.18626 z"
       fill="#434343"
       id="path1038"
       style="stroke-width:1.79735" /><path
       d="M 81.924212,114.87471 H 40.30111 v 1.53853 h 32.372129 c 0.402835,-0.76022 1.200623,-1.28145 2.115454,-1.28145 h 4.399919 c 0.914901,0 1.714658,0.52102 2.115522,1.28145 h 0.618175 v -1.53853 z"
       fill="#292929"
       id="path1039"
       style="stroke-width:1.79735" /><path
       d="m 168.87476,114.87471 h -41.62133 v 1.53853 h 0.61818 c 0.40283,-0.76022 1.20062,-1.28145 2.11545,-1.28145 h 4.39992 c 0.91483,0 1.71465,0.52102 2.11552,1.28145 h 32.37212 z"
       fill="#292929"
       id="path1040"
       style="stroke-width:1.79735" /><path
       d="m 152.71651,117.24547 c 2.02381,0 3.76905,1.1754 4.60304,2.87933 l 2.06158,-4.48259 h -6.65021 -6.65022 l 2.04718,4.45026 c 0.8412,-1.68415 2.57739,-2.847 4.58863,-2.847 z"
       fill="#292929"
       id="path1041"
       style="stroke-width:1.79735" /><path
       d="m 56.461103,117.24547 c 2.01124,0 3.747479,1.16108 4.586846,2.847 l 2.047182,-4.45026 h -6.650203 -6.650203 l 2.061565,4.48259 c 0.835767,-1.70208 2.580993,-2.87933 4.604813,-2.87933 z"
       fill="#292929"
       id="path1042"
       style="stroke-width:1.79735" /><path
       d="M 105.07048,79.38781 H 17.859362 c -3.059096,-6.25838 -4.773768,-13.275232 -4.773768,-20.685729 0,-7.500385 1.756015,-14.598121 4.885201,-20.91399 l 86.928975,0.0018 c 3.1292,6.315923 5.05418,13.411832 5.05418,20.912217 0,7.410497 -1.71473,14.427342 -4.77382,20.685722 M 72.466524,58.905187 c 0,-6.008603 -4.87082,-10.879418 -10.879369,-10.879418 -6.008549,0 -10.879376,4.870815 -10.879376,10.879418 0,6.008552 4.870827,10.879366 10.879376,10.879366 6.008549,0 10.879369,-4.870814 10.879369,-10.879366 z"
       fill="#392010"
       id="path1043"
       style="stroke-width:1.79735" /><path
       d="m 72.407221,58.75058 c 0,6.017574 -4.878022,10.895602 -10.895558,10.895602 -6.017537,0 -10.895551,-4.878028 -10.895551,-10.895602 0,-6.017503 4.878014,-10.895514 10.895551,-10.895514 6.017536,0 10.895558,4.878011 10.895558,10.895514 z M 61.513463,46.659809 c -6.677165,0 -12.09079,5.41366 -12.09079,12.090771 0,6.677182 5.413625,12.090773 12.09079,12.090773 6.677165,0 12.090778,-5.413591 12.090778,-12.090773 0,-6.677111 -5.413613,-12.090771 -12.090778,-12.090771 z"
       fill="#9d9d9d"
       id="path1044"
       style="stroke-width:1.79735" /><path
       d="m 61.513463,69.987659 c -6.148746,0 -11.150776,-5.002058 -11.150776,-11.150806 0,-6.148747 5.00203,-11.150735 11.150776,-11.150735 6.148746,0 11.150742,5.001988 11.150742,11.150735 0,6.148748 -5.001996,11.150806 -11.150742,11.150806 z m 0,-21.789343 c -5.866558,0 -10.638532,4.771972 -10.638532,10.638537 0,5.866565 4.771974,10.638538 10.638532,10.638538 5.86656,0 10.638539,-4.771973 10.638539,-10.638538 0,-5.866565 -4.77378,-10.638537 -10.638539,-10.638537 z"
       fill="#e4e4e3"
       id="path1045"
       style="stroke-width:1.79735" /><path
       d="m 60.134896,47.986239 h 0.769263 v 2.987215 h -0.769263 z"
       fill="#e4e4e3"
       id="path1046"
       style="stroke-width:1.79735" /><path
       d="m 62.119174,47.986239 h 0.769262 v 2.987215 h -0.769262 z"
       fill="#e4e4e3"
       id="path1047"
       style="stroke-width:1.79735" /><path
       d="m 60.13669,66.743399 h 0.76927 v 2.987213 h -0.76927 z"
       fill="#e4e4e3"
       id="path1048"
       style="stroke-width:1.79735" /><path
       d="m 62.120968,66.743399 h 0.769268 v 2.987213 h -0.769268 z"
       fill="#e4e4e3"
       id="path1049"
       style="stroke-width:1.79735" /><path
       d="m 51.383295,54.601805 0.384629,-0.666415 2.586909,1.493554 -0.384627,0.666398 z"
       fill="#e4e4e3"
       id="path1050"
       style="stroke-width:1.79731" /><path
       d="m 52.432232,52.938842 0.384628,-0.666397 2.586918,1.493536 -0.384628,0.666398 z"
       fill="#e4e4e3"
       id="path1051"
       style="stroke-width:1.79731" /><path
       d="m 67.64632,64.000114 0.384629,-0.666398 2.58689,1.493607 -0.384493,0.666398 z"
       fill="#e4e4e3"
       id="path1052"
       style="stroke-width:1.79731" /><path
       d="m 68.638465,62.281793 0.384629,-0.666398 2.586951,1.493607 -0.384491,0.666397 z"
       fill="#e4e4e3"
       id="path1053"
       style="stroke-width:1.79731" /><path
       d="m 52.447999,64.760213 2.586917,-1.493891 0.384696,0.666415 -2.586918,1.493873 z"
       fill="#e4e4e3"
       id="path1054"
       style="stroke-width:1.7974" /><path
       d="m 51.455805,63.04182 2.586918,-1.493891 0.384696,0.666415 -2.586911,1.493874 z"
       fill="#e4e4e3"
       id="path1055"
       style="stroke-width:1.7974" /><path
       d="m 68.690529,55.380906 2.586923,-1.493873 0.384494,0.666398 -2.586911,1.493961 z"
       fill="#e4e4e3"
       id="path1056"
       style="stroke-width:1.7974" /><path
       d="m 67.698343,53.662727 2.586903,-1.493891 0.384492,0.666415 -2.58689,1.493944 z"
       fill="#e4e4e3"
       id="path1057"
       style="stroke-width:1.7974" /><path
       d="m 75.611886,58.75058 c 0,7.786166 -6.312292,14.09842 -14.098423,14.09842 -7.786132,0 -14.098437,-6.312254 -14.098437,-14.09842 0,-7.786096 6.312305,-14.09842 14.098437,-14.09842 7.786131,0 14.098423,6.312324 14.098423,14.09842 z M 61.513463,46.659809 c -6.677165,0 -12.09079,5.41366 -12.09079,12.090771 0,6.677182 5.413625,12.090773 12.09079,12.090773 6.677165,0 12.090778,-5.413591 12.090778,-12.090773 0,-6.677111 -5.413613,-12.090771 -12.090778,-12.090771 z"
       fill="#bcbdbc"
       id="path1058"
       style="stroke-width:1.79735" /><path
       d="m 75.611886,58.75058 c 0,7.786166 -6.312292,14.09842 -14.098423,14.09842 -7.786132,0 -14.098437,-6.312254 -14.098437,-14.09842 0,-7.786096 6.312305,-14.09842 14.098437,-14.09842 7.786131,0 14.098423,6.312324 14.098423,14.09842 z M 61.459539,37.088882 c -11.821186,0 -21.404666,9.698572 -21.404666,21.661698 0,11.963196 9.58348,21.66171 21.404666,21.66171 11.821212,0 21.404708,-9.698514 21.404708,-21.66171 0,-11.963126 -9.583496,-21.661698 -21.404708,-21.661698 z"
       fill="#cccccc"
       id="path1059"
       style="stroke-width:1.79735" /><path
       d="m 79.878796,50.290465 c 1.155718,2.480316 1.824299,5.23569 1.881837,8.140229 h -4.35855 c -0.05435,-2.111914 -0.517638,-4.121335 -1.317461,-5.94924 z"
       fill="#9c9c9c"
       id="path1060"
       style="stroke-width:1.79735" /><path
       d="m 80.3821,58.430694 c -0.05435,-2.654689 -0.661652,-5.17278 -1.705691,-7.448271 l -1.475674,0.851991 c 0.904099,2.021988 1.428937,4.250735 1.482807,6.59628 z"
       fill="#525252"
       id="path1061"
       style="stroke-width:1.79735" /><path
       d="m 79.878796,67.379715 c 1.155718,-2.480387 1.824299,-5.23569 1.881837,-8.140229 h -4.35855 c -0.05435,2.11186 -0.517638,4.121333 -1.317461,5.949238 z"
       fill="#9c9c9c"
       id="path1062"
       style="stroke-width:1.79735" /><path
       d="m 80.3821,59.239486 c -0.05435,2.654688 -0.661652,5.17278 -1.705691,7.448199 l -1.475674,-0.85192 c 0.904099,-2.022041 1.428937,-4.250735 1.482807,-6.596279 z"
       fill="#525252"
       id="path1063"
       style="stroke-width:1.79735" /><path
       d="m 63.294639,38.65802 c 2.726584,0.239126 5.445982,1.037052 7.991034,2.440787 l -2.180192,3.774398 c -1.854868,-1.010073 -3.826564,-1.612213 -5.810842,-1.83503 z"
       fill="#9c9c9c"
       id="path1064"
       style="stroke-width:1.79735" /><path
       d="M 70.595489,42.29045 C 68.269713,41.012534 65.785774,40.275605 63.29284,40.043764 v 1.703856 c 2.203559,0.228243 4.394531,0.887922 6.452487,2.013073 z"
       fill="#525252"
       id="path1065"
       style="stroke-width:1.79735" /><path
       d="m 78.094033,47.202583 c -1.570847,-2.241261 -3.621629,-4.198585 -6.109211,-5.699389 l -2.180191,3.774469 c 1.802764,1.101788 3.30894,2.509051 4.495227,4.115911 z"
       fill="#9c9c9c"
       id="path1066"
       style="stroke-width:1.79735" /><path
       d="m 71.29824,42.696609 c 2.270065,1.375002 4.150067,3.158005 5.596938,5.201585 l -1.475606,0.851937 c -1.29946,-1.793746 -2.967449,-3.362814 -4.971495,-4.581435 z"
       fill="#525252"
       id="path1067"
       style="stroke-width:1.79735" /><path
       d="m 44.929292,47.204409 c 1.570881,-2.241332 3.621664,-4.198638 6.109197,-5.699371 l 2.180191,3.774397 c -1.802743,1.101789 -3.308926,2.509122 -4.495179,4.115964 z"
       fill="#9c9c9c"
       id="path1068"
       style="stroke-width:1.79735" /><path
       d="m 51.726879,42.696609 c -2.270057,1.375002 -4.148294,3.158005 -5.59696,5.201585 l 1.475628,0.851937 c 1.299487,-1.793746 2.967428,-3.362814 4.971481,-4.581435 z"
       fill="#525252"
       id="path1069"
       style="stroke-width:1.79735" /><path
       d="m 59.728694,38.65802 c -2.726585,0.239126 -5.445983,1.037052 -7.991033,2.440787 l 2.18019,3.774398 c 1.854869,-1.010073 3.826564,-1.612213 5.810843,-1.83503 z"
       fill="#9c9c9c"
       id="path1070"
       style="stroke-width:1.79735" /><path
       d="m 52.427843,42.292222 c 2.325776,-1.277933 4.809716,-2.014774 7.302645,-2.246703 v 1.703927 c -2.203555,0.22826 -4.394527,0.887869 -6.452496,2.014845 0,-0.0018 -0.850149,-1.472069 -0.850149,-1.472069 z"
       fill="#525252"
       id="path1071"
       style="stroke-width:1.79735" /><path
       d="m 43.148117,67.38147 c -1.155706,-2.480299 -1.82432,-5.235673 -1.881831,-8.140212 h 4.358577 c 0.05231,2.111914 0.517637,4.121335 1.317463,5.949221 z"
       fill="#9c9c9c"
       id="path1072"
       style="stroke-width:1.79735" /><path
       d="m 42.64306,59.241258 c 0.05569,2.654689 0.661448,5.172762 1.705684,7.44827 l 1.475626,-0.85199 c -0.904065,-2.021988 -1.428896,-4.250682 -1.482813,-6.59628 z"
       fill="#525252"
       id="path1073"
       style="stroke-width:1.79735" /><path
       d="m 43.148117,50.290465 c -1.155706,2.480316 -1.82432,5.23569 -1.881831,8.140229 h 4.358577 c 0.05231,-2.111914 0.517637,-4.121335 1.317463,-5.94924 z"
       fill="#9c9c9c"
       id="path1074"
       style="stroke-width:1.79735" /><path
       d="m 42.64306,58.430694 c 0.05569,-2.654689 0.661448,-5.17278 1.705684,-7.448271 l 1.475626,0.851991 c -0.904065,2.021988 -1.428896,4.250735 -1.482813,6.59628 z"
       fill="#525252"
       id="path1075"
       style="stroke-width:1.79735" /><path
       d="M 59.726892,79.01216 C 57.000309,78.77303 54.280918,77.9751 51.735866,76.57137 l 2.180185,-3.77447 c 1.854867,1.01014 3.826566,1.61222 5.810841,1.83511 z"
       fill="#9c9c9c"
       id="path1076"
       style="stroke-width:1.79735" /><path
       d="m 52.42425,75.37973 c 2.325777,1.27791 4.809715,2.01484 7.302642,2.24668 V 75.92249 C 57.52334,75.69425 55.330567,75.03464 53.274398,73.90948 Z"
       fill="#525252"
       id="path1077"
       style="stroke-width:1.79735" /><path
       d="m 44.925693,70.467524 c 1.570887,2.241336 3.621668,4.198636 6.109203,5.699386 l 2.180191,-3.77441 c -1.802744,-1.10178 -3.308926,-2.509106 -4.495179,-4.115966 z"
       fill="#9c9c9c"
       id="path1078"
       style="stroke-width:1.79735" /><path
       d="m 51.723286,74.97533 c -2.270059,-1.375 -4.148296,-3.15799 -5.59696,-5.201572 l 1.475627,-0.851937 c 1.299488,1.79373 2.967429,3.362809 4.97148,4.581439 z"
       fill="#525252"
       id="path1079"
       style="stroke-width:1.79735" /><path
       d="m 63.474372,76.86614 v 3.28734 c 6.362663,-0.57878 11.921832,-3.9416 15.448221,-8.86093 l -2.54145,-1.560112 -2.171158,-1.333628 c -2.528883,3.35385 -6.355461,5.67241 -10.733813,6.21166 v 2.25567 z"
       fill="#525252"
       id="path1080"
       style="stroke-width:1.79735" /><path
       d="m 79.04487,71.29072 h -0.122275 c -3.526389,4.91932 -9.083793,8.28221 -15.448222,8.86098 v -3.2874 c -0.663213,0.51559 -1.103573,0.70097 -1.321048,0.55567 -0.319957,-0.21533 -0.159978,-1.14491 0.479867,-2.7877 0.607511,0.17799 4.302866,1.18982 8.010801,-1.0155 3.689968,-2.19453 3.822978,-5.291382 3.959589,-5.911461 1.739859,0.28938 2.620523,0.625645 2.642125,1.010072 0.01365,0.262206 -0.370226,0.546162 -1.152117,0.851991 l 2.825405,1.676898 M 64.88887,75.90484 v 2.90086 c 4.86366,-0.81599 9.139536,-3.36639 12.16989,-6.99347 l -2.153223,-1.506173 c -0.108006,0.470776 -0.747722,2.661903 -3.652197,4.326213 -2.91894,1.67335 -5.886369,1.52594 -6.36447,1.39117"
       fill="#9c9c9c"
       id="path1081"
       style="stroke-width:1.79735" /><path
       d="m 173.39504,128.07632 h 24.46022 c 3.46524,0 6.30151,-2.83628 6.30151,-6.30154 V 8.6404121 c 0,-3.4653195 -2.83627,-6.3015245 -6.30151,-6.3015245 h -6.32313 v 9.1970344 c 0,0.440195 -0.36141,0.801658 -0.8016,0.801658 h -11.663 c -0.4402,0 -0.80167,-0.361396 -0.80167,-0.801658 V 2.3388876 h -73.70044 0.0475 -73.70044 v 9.1970344 c 0,0.440195 -0.36126,0.801658 -0.801626,0.801658 H 18.447878 c -0.440331,0 -0.801618,-0.361396 -0.801618,-0.801658 V 2.3388876 h -6.323086 c -3.4652982,0 -6.3015172,2.836205 -6.3015172,6.3015245 V 121.77478 c 0,3.46526 2.836219,6.30154 6.3015172,6.30154 h 24.460168"
       fill="none"
       stroke="#404040"
       stroke-miterlimit="10"
       stroke-width="1.28169"
       id="path1082" /><path
       d="m 13.800939,7.2079406 c 0,2.1927595 -1.777581,3.9721564 -3.9721479,3.9721564 -2.1927726,0 -3.9721481,-1.7776299 -3.9721481,-3.9721564"
       fill="#3a3a3a"
       id="path1083"
       style="stroke-width:1.79735" /><path
       d="m 5.856643,7.2079406 c 0,-2.192826 1.777582,-3.972154 3.9721481,-3.972154 2.1927659,0 3.9721479,1.777562 3.9721479,3.972154"
       fill="#525252"
       id="path1084"
       style="stroke-width:1.79735" /><path
       d="m 8.7377988,6.3973156 h 2.0507752 v 2.050781 H 8.7377988 Z"
       fill="#1f1f1f"
       id="path1085"
       style="stroke-width:1.79735" /><path
       d="M 7.9715932,8.9551381 10.681121,5.3595266 11.494973,5.9729476 8.7854455,9.5684911 Z"
       fill="#1f1f1f"
       id="path1086"
       style="stroke-width:1.79727" /><path
       d="M 11.295431,9.2136171 7.6998336,6.5041036 8.3131185,5.6902166 11.908709,8.3997316 Z"
       fill="#1f1f1f"
       id="path1087"
       style="stroke-width:1.79727" /><circle
       cx="9.8288012"
       cy="7.2078609"
       fill="none"
       r="3.9721496"
       stroke="#404040"
       stroke-miterlimit="10"
       stroke-width="0.256302"
       id="circle1087" /><path
       d="m 195.3767,7.2079406 c 0,2.1927595 1.77756,3.9721564 3.97217,3.9721564 2.19275,0 3.97216,-1.7776299 3.97216,-3.9721564"
       fill="#3a3a3a"
       id="path1088"
       style="stroke-width:1.79735" /><path
       d="m 203.32103,7.2079406 c 0,-2.192826 -1.77764,-3.972154 -3.97216,-3.972154 -2.19283,0 -3.97217,1.777562 -3.97217,3.972154"
       fill="#525252"
       id="path1089"
       style="stroke-width:1.79735" /><path
       d="m 200.44073,8.4474846 h -2.05079 v -2.050713 h 2.05079 z"
       fill="#1f1f1f"
       id="path1090"
       style="stroke-width:1.79735" /><path
       d="m 200.37504,9.5844541 -2.70952,-3.5956115 0.81383,-0.61342 2.70949,3.5956105 z"
       fill="#1f1f1f"
       id="path1091"
       style="stroke-width:1.79727" /><path
       d="m 197.25291,8.3825436 3.59554,-2.709514 0.61341,0.813819 -3.5956,2.7095155 z"
       fill="#1f1f1f"
       id="path1092"
       style="stroke-width:1.79727" /><circle
       cx="199.34882"
       cy="7.2078609"
       fill="none"
       r="3.9721496"
       stroke="#404040"
       stroke-miterlimit="10"
       stroke-width="0.256302"
       id="circle1092" /><path
       d="m 13.84947,123.63142 c 0,2.19277 -1.777583,3.97215 -3.9721479,3.97215 -2.1927732,0 -3.9721557,-1.77755 -3.9721557,-3.97215"
       fill="#3a3a3a"
       id="path1093"
       style="stroke-width:1.79735" /><path
       d="m 5.9069665,123.63142 c 0,-2.19275 1.7775824,-3.97214 3.9721486,-3.97214 2.1927719,0 3.9721479,1.77763 3.9721479,3.97214"
       fill="#525252"
       id="path1094"
       style="stroke-width:1.79735" /><path
       d="m 8.7863221,122.82081 h 2.0507819 v 2.05077 H 8.7863221 Z"
       fill="#1f1f1f"
       id="path1095"
       style="stroke-width:1.79735" /><path
       d="m 8.0166453,125.37692 2.7095267,-3.59561 0.813853,0.61344 -2.7095274,3.59561 z"
       fill="#1f1f1f"
       id="path1096"
       style="stroke-width:1.79727" /><path
       d="m 11.342263,125.64287 -3.5955978,-2.7095 0.6132849,-0.81382 3.5955909,2.70951 z"
       fill="#1f1f1f"
       id="path1097"
       style="stroke-width:1.79727" /><circle
       cx="9.8790741"
       cy="123.63147"
       fill="none"
       r="3.9721496"
       stroke="#404040"
       stroke-miterlimit="10"
       stroke-width="0.256302"
       id="circle1097" /><path
       d="m 195.32814,123.63142 c 0,2.19277 1.77762,3.97215 3.97217,3.97215 2.19274,0 3.97215,-1.77755 3.97215,-3.97215"
       fill="#3a3a3a"
       id="path1098"
       style="stroke-width:1.79735" /><path
       d="m 203.27068,123.63142 c 0,-2.19275 -1.77763,-3.97214 -3.97215,-3.97214 -2.19277,0 -3.97215,1.77763 -3.97215,3.97214"
       fill="#525252"
       id="path1099"
       style="stroke-width:1.79735" /><path
       d="m 200.38984,124.87341 h -2.05071 v -2.05078 h 2.05071 z"
       fill="#1f1f1f"
       id="path1100"
       style="stroke-width:1.79735" /><path
       d="m 200.3194,126.0106 -2.70952,-3.59562 0.8139,-0.61342 2.70951,3.5956 z"
       fill="#1f1f1f"
       id="path1101"
       style="stroke-width:1.79727" /><path
       d="m 197.20176,124.80147 3.59553,-2.70951 0.61344,0.81389 -3.59556,2.70951 z"
       fill="#1f1f1f"
       id="path1102"
       style="stroke-width:1.79727" /><circle
       cx="199.30032"
       cy="123.63147"
       fill="none"
       r="3.9721496"
       stroke="#404040"
       stroke-miterlimit="10"
       stroke-width="0.256302"
       id="circle1102" /><path
       d="m 122.25497,119.19733 -0.29822,-3.29631 H 87.221165 l -0.298219,3.29631 -0.510165,-0.0475 0.341697,-3.76367 h 35.670252 l 0.34169,3.76367 z"
       fill="#b7b8b6"
       id="path1103"
       style="stroke-width:1.79735" /><path
       d="m 108.71195,106.96994 c 0,2.19284 -1.77756,3.97217 -3.97216,3.97217 -2.19459,0 -3.97214,-1.77756 -3.97214,-3.97217"
       fill="#3a3a3a"
       id="path1104"
       style="stroke-width:1.79735" /><path
       d="m 100.76765,106.96994 c 0,-2.19274 1.77755,-3.97215 3.97214,-3.97215 2.1946,0 3.97216,1.77764 3.97216,3.97215"
       fill="#525252"
       id="path1105"
       style="stroke-width:1.79735" /><path
       d="m 103.64882,106.15939 h 2.05078 v 2.05078 h -2.05078 z"
       fill="#1f1f1f"
       id="path1106"
       style="stroke-width:1.79735" /><path
       d="m 102.87766,108.71918 2.70951,-3.59554 0.81383,0.61342 -2.70952,3.5956 z"
       fill="#1f1f1f"
       id="path1107"
       style="stroke-width:1.79727" /><path
       d="m 106.20861,108.98078 -3.59554,-2.70952 0.61341,-0.81387 3.59562,2.70951 z"
       fill="#1f1f1f"
       id="path1108"
       style="stroke-width:1.79727" /><circle
       cx="104.73971"
       cy="106.96992"
       fill="none"
       r="3.9721496"
       stroke="#404040"
       stroke-miterlimit="10"
       stroke-width="0.256302"
       id="circle1108" /><path
       d="m 38.24134,128.24702 -1.500788,-0.33965 6.049885,-26.7518 c 0.04823,-2.077762 1.75422,-3.75471 3.84454,-3.75471 H 162.54442 c 2.09032,0 3.79601,1.675118 3.84458,3.75471 l 6.04808,26.7518 -1.50081,0.33965 -6.08584,-26.91531 v -0.0864 c 0,-1.272572 -1.03528,-2.307852 -2.30777,-2.307852 H 46.633183 c -1.272526,0 -2.307802,1.03528 -2.307802,2.307852 v 0.0864 l -0.01772,0.0842 z"
       fill="#292929"
       id="path1109"
       style="stroke-width:1.79735" /><path
       d="m 66.715001,115.64398 h 1.538532 v 9.35701 h -1.538532 z"
       fill="#292929"
       id="path1110"
       style="stroke-width:1.79735" /><path
       d="m 140.92409,115.64398 h 1.53851 v 9.35701 h -1.53851 z"
       fill="#292929"
       id="path1111"
       style="stroke-width:1.79735" /><path
       d="m 128.44869,128.84558 h -9.82615 v -12.55992 h 1.53851 V 127.307 h 8.28764 z"
       fill="#292929"
       id="path1112"
       style="stroke-width:1.79735" /><path
       d="M 90.555105,128.84558 H 80.728957 V 127.307 h 8.287569 v -11.02134 h 1.538579 z"
       fill="#292929"
       id="path1113"
       style="stroke-width:1.79735" /><path
       d="M 124.81802,122.26546 H 84.359622 v -1.75067 h 0.512204 v 1.23841 h 39.433924 v -1.23841 h 0.5122 z"
       fill="#81472e"
       id="path1114"
       style="stroke-width:1.79735" /><path
       d="m 13.085594,58.926725 c -2.093918,28.732485 -2.89913,49.556605 -2.89913,49.556605 -0.3612599,3.39705 5.127845,16.31102 14.123598,17.04793 50.521767,2.30778 104.258998,0.92925 160.555678,0 8.99576,-0.73691 14.48488,-13.65088 14.12363,-17.04793 -0.49251,-9.037062 -17.77398,-46.90727 -29.42083,-50.96931"
       fill="none"
       stroke="#f2f2f2"
       stroke-miterlimit="10"
       stroke-width="0.128152"
       id="path1115" /><path
       d="M 83.292011,51.514456 V 66.468412"
       fill="none"
       stroke="#ffffff"
       stroke-miterlimit="10"
       stroke-width="0.256302"
       id="path1116" /><path
       d="M 88.78291,51.514456 V 66.468412"
       fill="none"
       stroke="#ffffff"
       stroke-miterlimit="10"
       stroke-width="0.256302"
       id="path1117" /><path
       d="M 94.036592,51.514456 V 66.468412"
       fill="none"
       stroke="#ffffff"
       stroke-miterlimit="10"
       stroke-width="0.256302"
       id="path1118" /><path
       d="M 99.356704,51.514456 V 66.468412"
       fill="none"
       stroke="#ffffff"
       stroke-miterlimit="10"
       stroke-width="0.256302"
       id="path1119" /><path
       d="M 104.73979,51.514456 V 66.468412"
       fill="none"
       stroke="#ffffff"
       stroke-miterlimit="10"
       stroke-width="0.256302"
       id="path1120" /><path
       d="M 110.05815,51.514456 V 66.468412"
       fill="none"
       stroke="#ffffff"
       stroke-miterlimit="10"
       stroke-width="0.256302"
       id="path1121" /><path
       d="M 115.37833,51.514456 V 66.468412"
       fill="none"
       stroke="#ffffff"
       stroke-miterlimit="10"
       stroke-width="0.256302"
       id="path1122" /><path
       d="M 120.76136,51.514456 V 66.468412"
       fill="none"
       stroke="#ffffff"
       stroke-miterlimit="10"
       stroke-width="0.256302"
       id="path1123" /><path
       d="M 126.14445,51.514456 V 66.468412"
       fill="none"
       stroke="#ffffff"
       stroke-miterlimit="10"
       stroke-width="0.256302"
       id="path1124" /><g
       id="g1"
       transform="matrix(0.06057828,0,0,0.06057828,66.914153,8.1600641)"
       style="fill:#ffffff"><g
         fill="#e58d6c"
         fill-opacity="0.969"
         id="g16"
         style="fill:#ffffff"><path
           d="m 260.34,221.18 -17.76,70.15 a 0.55,0.55 0 0 1 -0.54,0.42 L 14.16,291.73 a 0.55,0.55 0 0 1 -0.53,-0.69 L 92.4,0.91 A 0.55,0.55 0 0 1 92.93,0.5 h 88.86 a 0.55,0.55 0 0 1 0.53,0.7 l -61.59,218.6 a 0.55,0.55 0 0 0 0.53,0.7 H 259.8 a 0.55,0.55 0 0 1 0.54,0.68 z"
           id="path2"
           style="fill:#ffffff;fill-opacity:1" /><path
           d="m 839.26,223.5 h 137.57 a 0.58,0.58 0 0 1 0.57,0.69 l -10.84,58.08 a 0.58,0.58 0 0 1 -0.57,0.47 l -210.82,0.01 a 0.58,0.58 0 0 1 -0.57,-0.72 L 811.39,45.94 a 0.58,0.58 0 0 1 0.57,-0.44 h 203.87 a 0.58,0.58 0 0 1 0.57,0.68 l -9.85,56.07 a 0.58,0.58 0 0 1 -0.57,0.48 l -140.06,0.02 a 0.58,0.58 0 0 0 -0.57,0.46 l -6.65,31.59 a 0.58,0.58 0 0 0 0.56,0.7 h 113.53 a 0.58,0.58 0 0 1 0.57,0.71 l -11.8,51.07 a 0.58,0.58 0 0 1 -0.56,0.45 l -114.08,0.03 a 0.58,0.58 0 0 0 -0.57,0.45 l -7.65,34.58 a 0.58,0.58 0 0 0 0.56,0.71 z"
           id="path4"
           style="fill:#ffffff;fill-opacity:1" /><path
           d="m 1210.42,189.07 a 1,1 0 0 0 -0.54,1.32 l 39.12,91.95 a 1,1 0 0 1 -0.92,1.39 l -71.84,0.03 a 1.01,1 79.2 0 1 -0.93,-0.64 l -49.33,-126.27 a 1,0.99 -10.8 0 1 0.93,-1.36 q 20.31,0.04 41.08,-0.19 c 13.34,-0.15 25.18,-6.06 28.98,-19.5 5.27,-18.66 -10.54,-34.26 -28.45,-35.02 q -26.69,-1.13 -53.17,-2.08 a 1.01,1 -83.6 0 0 -1.02,0.82 l -33.71,181.38 a 1,1 0 0 1 -0.98,0.82 l -82.94,0.03 a 1,1 0 0 1 -0.98,-1.22 l 52.59,-233.21 a 1.01,1.01 0 0 1 0.97,-0.78 c 49.61,-0.51 99.78,-1.2 149.49,0.63 27,1 57.04,18.63 68.41,43.64 7.21,15.88 9.01,35.35 2.84,51.78 -5.01,13.33 -15.42,26.21 -28.41,32.59 q -15.32,7.53 -31.19,13.89 z"
           id="path6"
           style="fill:#ffffff;fill-opacity:1" /><path
           d="m 511.38,234.45 q 64.4,0.71 128.8,0.95 5.45,0.02 9.38,-1.13 c 10.01,-2.94 30.12,-12.58 13.14,-24.72 -21.07,-15.07 -45.36,-23.13 -67.98,-35.11 -7.73,-4.1 -17.56,-8.66 -24.76,-14.9 -7.87,-6.8 -12.26,-19.12 -13.63,-29.09 -3.25,-23.47 1.69,-45.91 20.45,-61.65 q 2.98,-2.5 12.24,-8.04 c 11.76,-7.03 21.61,-10.17 35.17,-10.2 q 69.08,-0.12 138.16,-0.04 a 1,1 0 0 1 0.99,1.13 l -6.76,52.2 a 1,0.99 3.6 0 1 -0.99,0.87 q -62.95,0.05 -125.9,0.03 c -13.83,-0.01 -13.42,20.78 -2.25,24.05 18.18,5.34 34.96,12.56 52.52,20.42 q 22.49,10.08 39.89,21.16 c 17.95,11.44 19.79,35.97 17.51,54.97 q -1.26,10.45 -5.22,19.21 c -6.79,15.04 -18.89,28.92 -34.58,35.07 q -5.84,2.29 -16.43,3.47 -23.77,2.63 -41.94,2.61 -96.69,-0.12 -193.72,1.02 a 1.01,1 0.5 0 1 -1.02,-1.03 l 1.01,-33.94 a 1,1 0 0 0 -1,-1.03 l -91.51,0.02 a 0.99,0.99 0 0 0 -0.84,0.47 l -25.43,40.07 a 1.02,1.01 16.5 0 1 -0.85,0.46 l -66.63,-0.01 q -1.84,0 -0.84,-1.54 L 410.22,54.96 a 1.02,1 -73.1 0 1 0.84,-0.46 h 78.54 a 1.01,1 -3.2 0 1 1,0.89 l 19.8,178.17 a 1,1 0 0 0 0.98,0.89 z m -78.8,-109.03 a 0.3,0.3 0 0 0 -0.55,-0.14 l -52.18,79.76 a 0.3,0.3 0 0 0 0.25,0.46 h 59.03 a 0.3,0.3 0 0 0 0.3,-0.33 z"
           id="path8"
           style="fill:#ffffff;fill-opacity:1" /><path
           d="m 1173.19,415.06 c -7.07,-5.77 -11.03,-18.17 -11.12,-26.89 q -0.04,-4.55 2.04,-12.12 c 5.12,-18.66 9.01,-38.68 15.32,-56.37 4.42,-12.38 19.48,-23.11 31.07,-25.94 8.88,-2.16 20.31,0.54 28.72,3.7 19.12,7.19 24.06,28.94 19.28,47.3 q -4.21,16.16 -16.05,50.45 c -4.08,11.81 -19.18,25.24 -31.2,27.31 -12.63,2.18 -27.41,1.27 -38.06,-7.44 z m 3.52,-24.55 c 2.08,17.95 16.19,19.61 30.89,17.78 9.23,-1.16 18.74,-11.44 21.69,-19.82 q 6.09,-17.24 11.31,-34.77 c 4.2,-14.09 7.15,-21.09 3.18,-32.87 -2.79,-8.26 -10.56,-10.46 -18.33,-12.22 q -6.3,-1.43 -10.64,-0.61 c -10.18,1.9 -19.55,9.79 -22.68,19.68 -5.67,17.88 -9.89,37.33 -14.5,54.56 q -1.31,4.9 -0.92,8.27 z"
           id="path10"
           style="fill:#ffffff;fill-opacity:1" /><path
           d="m 988.94,429 h -7 Q 958,426.74 941.88,409.09 a 0.99,0.99 0 0 1 0.06,-1.4 l 8.97,-8.38 a 1,1 0 0 1 1.32,-0.04 q 1.51,1.26 2.93,2.59 c 13.88,13.05 31.6,15.81 49.41,8.5 9.79,-4.02 14.97,-15.66 15.82,-25.55 a 1.02,1.01 26.7 0 0 -0.25,-0.74 c -6.5,-7.49 -16.57,-11.99 -25.32,-16.39 -4.74,-2.37 -4.34,-9.5 -0.26,-12.16 q 1.61,-1.04 6.15,-1.68 c 8.06,-1.12 17.71,-2.85 23.83,-7.82 5.09,-4.12 11.05,-11.51 10.61,-18.51 -1.11,-17.49 -13.15,-18.3 -27.89,-17.53 q -18.25,0.95 -30.92,13.75 a 0.99,0.99 0 0 1 -1.39,0.03 l -9.06,-8.49 a 1,1 0 0 1 -0.04,-1.42 c 14.91,-15.45 32.69,-19.77 53.42,-18.55 q 21.9,1.29 28.73,22.14 c 6.01,18.32 -5.1,35.02 -20.34,43.92 q -3.07,1.79 -6.45,2.77 -1.63,0.47 -0.23,1.43 6.01,4.12 10.69,9.78 c 3.09,3.73 3.46,9.99 2.64,15.01 -3.96,24.27 -21.32,36.76 -45.37,38.65 z"
           id="path12"
           style="fill:#ffffff;fill-opacity:1" /><path
           d="m 1115.78,326.03 q 0.63,-1.96 -1.16,-0.95 l -21.55,12.2 a 0.99,0.99 0 0 1 -1.43,-0.54 l -4.25,-12.03 a 1,0.99 65.6 0 1 0.45,-1.2 q 17.28,-9.7 37.22,-21.93 c 4.66,-2.85 10.6,-0.56 11.39,4.97 q 0.28,2 -0.9,5.64 -17.88,55.33 -35.92,110.61 a 1.01,1.01 0 0 1 -1.26,0.65 l -11.94,-3.82 a 0.99,0.99 0 0 1 -0.64,-1.26 z"
           id="path14"
           style="fill:#ffffff;fill-opacity:1" /></g><g
         fill="#a6a6a7"
         fill-opacity="0.969"
         id="g44"
         style="fill:#ffffff;fill-opacity:1"><path
           d="m 20.98,365.3 c 6.79,0.39 13.17,0.57 20.2,0.04 q 2.94,-0.22 3.35,-2.55 l 0.39,-2.21 a 1.01,1.01 0 0 1 0.99,-0.83 h 11.32 a 1,1 0 0 1 1,0.95 q 0.33,6.63 -2.64,12.68 a 0.99,0.99 0 0 1 -0.46,0.46 q -6.16,2.96 -13.89,2.96 c -10.09,0 -19.98,0.25 -30.01,-1.02 Q 2.42,374.66 1.53,365.77 C 0.49,355.48 -1.9,334.35 13.43,333.31 q 15.1,-1.03 30.18,-0.11 c 7.77,0.47 12.13,2.24 13.07,10.36 q 0.31,2.72 0.4,4.19 a 1,1 0 0 1 -1,1.06 l -10.22,-0.02 a 1,0.99 -2.9 0 1 -0.99,-0.89 q -0.24,-2.22 -1.92,-3.22 c -3.45,-2.03 -22.52,-0.47 -24.66,0.13 -3.47,0.96 -3.14,9.39 -2.92,12.38 0.34,4.46 0.5,7.82 5.61,8.11 z"
           id="path18"
           style="fill:#ffffff;fill-opacity:1" /><path
           d="m 74.26,373.46 c -4.91,-3.27 -4.98,-6.91 -5.28,-13.01 -0.29,-5.79 -0.65,-17.45 2.85,-22.36 2.78,-3.91 7.94,-4.69 12.49,-4.91 8.67,-0.43 33.87,-2.73 41.2,3.39 6.86,5.71 5.61,26.86 2.22,33.91 -2.8,5.83 -12.89,5.83 -18.93,6.09 -10.72,0.47 -27.19,1.79 -34.55,-3.11 z m 32.84,-7.9 c 5.14,-0.1 8.45,-0.49 8.59,-6.58 0.14,-6.03 1.91,-14.59 -5.25,-14.97 q -9.32,-0.49 -18.61,0.06 c -3.97,0.24 -7.78,0.15 -8.24,4.21 q -0.72,6.4 0.1,13.01 0.41,3.29 3.69,3.78 c 6.31,0.95 12.97,0.62 19.72,0.49 z"
           id="path20"
           style="fill:#ffffff;fill-opacity:1" /><path
           d="m 156,365.75 h 28.75 a 1,1 0 0 1 1,1 v 8.98 a 1,1 0 0 1 -1,1 q -16.48,-0.01 -32.93,0.23 -4.57,0.06 -9.12,-0.19 a 1,0.99 1.5 0 1 -0.95,-0.99 v -42.03 a 1,1 0 0 1 1,-1 H 154 a 1,1 0 0 1 1,1 v 31 a 1,1 0 0 0 1,1 z"
           id="path22"
           style="fill:#ffffff;fill-opacity:1" /><path
           d="m 204.49,376.06 c -11.92,-1.29 -11.47,-14.1 -11.19,-22.56 0.33,-9.89 0.37,-19.08 12.97,-20.07 q 16.81,-1.31 33.67,-0.32 c 9.2,0.55 13.45,4.72 14.46,13.93 q 0.99,8.92 -0.56,18.31 c -1.43,8.7 -6.9,10.18 -15.21,10.87 q -18.5,1.54 -34.14,-0.16 z m 4.19,-29.74 c -1.47,5.17 -1.52,12.1 0.31,17.22 a 0.99,0.99 0 0 0 0.42,0.51 c 5.06,3.13 21.35,1.68 27.09,0.89 q 3.02,-0.41 3.45,-3.43 c 0.59,-4.12 2.12,-16.65 -3.94,-17.35 -3.28,-0.37 -22.73,-1.65 -26.98,1.64 a 1.01,0.98 79.6 0 0 -0.35,0.52 z"
           id="path24"
           style="fill:#ffffff;fill-opacity:1" /><path
           d="m 315.75,359.09 q -2.69,1.13 0.2,1.53 2.68,0.38 4.48,2.12 1.65,1.61 1.91,4.98 0.32,4.05 0.14,8.08 a 1,0.99 1.2 0 1 -1,0.95 h -12.16 a 1,1 0 0 1 -1,-0.94 l -0.39,-6.89 q -0.16,-2.77 -3.17,-2.81 l -24.25,-0.28 a 1,1 0 0 0 -1.01,1 v 8.92 a 1,1 0 0 1 -1,1 h -11.41 a 1,1 0 0 1 -1,-1 l -0.12,-41.87 a 1,1 0 0 1 0.99,-1 q 21.23,-0.29 42.26,-0.05 c 5.73,0.06 11.49,1.35 13.34,7.32 1.77,5.67 2.21,16 -5.08,18.32 q -0.94,0.29 -1.73,0.62 z m -6.98,-13.37 q -0.39,-1.66 -3.52,-1.67 l -24.74,-0.14 a 1.01,1 0 0 0 -1.01,1 v 8.87 a 1.01,1 0 0 0 1.01,1 L 305,354.69 q 3.04,-0.01 3.63,-2.09 0.96,-3.41 0.14,-6.88 z"
           id="path26"
           style="fill:#ffffff;fill-opacity:1" /><path
           d="m 394.73,363.02 0.33,-2.41 a 1,1 0 0 1 0.99,-0.86 h 11.36 a 1,1 0 0 1 1,0.95 q 0.33,6.15 -1.69,10.74 c -3.26,7.4 -27.8,5.34 -34.97,5.27 -8.24,-0.09 -18.44,-0.52 -19.84,-10.39 -1.21,-8.5 -2.53,-26.6 5.83,-31.27 q 2.67,-1.48 8.79,-1.85 13.9,-0.85 27.79,0.05 c 6.28,0.4 10.22,1.38 12.01,7.61 q 0.96,3.34 1.08,6.84 a 1.01,1.01 0 0 1 -1,1.04 l -10.37,0.04 a 0.99,0.99 0 0 1 -1,-0.92 q -0.16,-2.2 -1.87,-3.19 c -2.6,-1.5 -21.11,-0.96 -24.36,0.07 q -2.35,0.75 -2.75,3.19 c -0.7,4.26 -2.23,16.66 4.36,17.33 q 10.53,1.08 21.4,-0.04 2.64,-0.27 2.91,-2.2 z"
           id="path28"
           style="fill:#ffffff;fill-opacity:1" /><path
           d="m 433.32,376.42 c -7.11,-0.34 -13.58,-4.46 -14.05,-12.15 q -0.69,-11.29 0.68,-20.78 c 1.14,-7.91 6.57,-9.63 14.07,-10.2 q 15.06,-1.15 30.12,-0.16 c 13.91,0.92 16.24,6.75 16.43,20.11 q 0.09,6.81 -1.27,13.52 c -1.9,9.31 -11.72,9.66 -19.48,9.9 q -13.26,0.4 -26.5,-0.24 z m 2.34,-12.02 c 6.43,2.23 16.46,1.34 22.28,0.99 3.7,-0.21 7.43,-0.3 7.91,-4.29 q 0.84,-7.07 -0.15,-13.31 -0.54,-3.36 -3.94,-3.6 -9.83,-0.7 -19.66,-0.11 c -4.15,0.24 -7.63,0.03 -8.31,4.39 -0.6,3.82 -0.96,11.25 1.31,15.46 a 1.04,1.03 -4.7 0 0 0.56,0.47 z"
           id="path30"
           style="fill:#ffffff;fill-opacity:1" /><path
           d="m 554.5,346.27 q 0,-3.04 -1.5,-0.4 l -17.18,30.37 a 0.98,0.98 0 0 1 -0.86,0.51 h -10.19 a 1.01,1 75 0 1 -0.87,-0.51 L 506.75,345.9 q -1.5,-2.64 -1.5,0.4 v 29.42 a 1,0.99 -90 0 1 -0.99,1 l -11.25,0.09 a 1,1 0 0 1 -1.01,-1 v -42.06 a 1,1 0 0 1 1,-1 h 19.77 a 1,0.98 -14.2 0 1 0.87,0.51 l 15.33,27.13 q 0.87,1.54 1.74,0 l 15.41,-27.13 a 1.01,1 -75 0 1 0.87,-0.51 h 19.76 a 1,1 0 0 1 1,1 v 42 a 1,1 0 0 1 -1,1 H 555.5 a 1,1 0 0 1 -1,-1 z"
           id="path32"
           style="fill:#ffffff;fill-opacity:1" /><path
           d="m 594.79,365.75 a 1,0.99 -88.6 0 0 -1.04,1 v 9 a 1,1 0 0 1 -1,1 H 581.5 a 1,1 0 0 1 -1,-1 v -41.99 a 1,1 0 0 1 1,-1 q 16.78,-0.02 33.75,0.02 c 7.35,0.01 16.71,0.01 18.78,9.19 1.77,7.9 1.61,22.81 -9.78,23.55 q -13.94,0.91 -29.46,0.23 z m 24.45,-20.48 c -1.39,-0.71 -2.66,-1.3 -4.25,-1.28 q -10.13,0.15 -20.2,-0.24 a 1,1 0 0 0 -1.04,1 v 9.03 a 1.01,1 0 0 0 1.01,1 l 20.99,-0.1 q 3.5,-0.01 4.21,-2.45 0.97,-3.32 -0.25,-6.43 a 1.03,0.97 -88.3 0 0 -0.47,-0.53 z"
           id="path34"
           style="fill:#ffffff;fill-opacity:1" /><path
           d="m 663.71,365.24 c 7.04,0.62 13.76,0.59 20.79,-0.05 q 2.79,-0.25 3.48,-2.98 c 2.02,-8.12 0.76,-19.91 0.83,-28.47 a 1,1 0 0 1 1,-0.99 h 11.07 a 1,1 0 0 1 1,0.97 q 0.42,13.83 -0.1,27.58 c -0.5,13.15 -8.97,15.32 -20.35,15.42 -10.64,0.1 -17.59,0.39 -24.11,-0.57 -8.21,-1.22 -11.95,-5.64 -12.45,-13.95 q -0.86,-14.23 -0.13,-28.5 a 1,1 0 0 1 1,-0.95 h 11.22 a 1,1 0 0 1 1,1.01 q -0.12,16.04 0.29,26.41 c 0.13,3.34 2.2,4.78 5.46,5.07 z"
           id="path36"
           style="fill:#ffffff;fill-opacity:1" /><path
           d="m 730.51,344.03 q -2.52,-0.08 -5.05,-0.2 c -4.34,-0.2 -8.81,0.44 -13.43,-0.17 a 1,0.99 -86.4 0 1 -0.87,-0.99 l 0.01,-8.92 a 1,1 0 0 1 1,-1 h 52.17 a 1.01,1 89.1 0 1 1,0.98 l 0.21,9.17 a 1,1 0 0 1 -1,1.02 h -18.66 a 1,1 0 0 0 -1,1 l 0.08,30.89 a 1.01,1 0 0 1 -1.01,1 l -11.43,-0.08 a 1,1 0 0 1 -0.99,-1 l -0.06,-30.7 a 1,1 0 0 0 -0.97,-1 z"
           id="path38"
           style="fill:#ffffff;fill-opacity:1" /><path
           d="m 787.25,365.75 h 34.73 a 1,0.99 0 0 1 1,0.99 l 0.06,9.06 a 1,1 0 0 1 -1.01,1.01 q -15.48,-0.21 -30.28,0.17 -6.75,0.17 -18.06,-0.36 a 1,1 0 0 1 -0.96,-1 l 0.1,-41.87 a 1,1 0 0 1 1,-1 h 48.15 a 1,0.99 0 0 1 1,0.99 l 0.06,9.09 a 0.99,0.99 0 0 1 -0.99,1 l -34.8,0.15 a 1,1 0 0 0 -1,1 v 3.77 a 1,1 0 0 0 1,1 h 32.5 a 1,1 0 0 1 1,1 v 7.14 a 1,1 0 0 1 -1,1 l -32.5,0.05 a 1,1 0 0 0 -1,1 v 4.81 a 1,1 0 0 0 1,1 z"
           id="path40"
           style="fill:#ffffff;fill-opacity:1" /><path
           d="m 873.83,366.68 q -2.33,-0.79 -4.85,-0.75 -10.64,0.16 -21.46,-0.05 a 1,1 0 0 0 -1.02,1 v 8.84 a 1,0.99 -90 0 1 -0.99,1 l -11.25,0.09 a 1,1 0 0 1 -1.01,-1 v -42.06 a 1,1 0 0 1 1,-1 h 42 q 2.74,0 5.42,0.63 8.21,1.92 8.65,10.55 c 0.35,6.87 0.51,14.07 -8.31,15.29 q -0.99,0.14 -0.94,0.8 a 0.51,0.51 0 0 0 0.49,0.48 c 9.32,0.35 8.23,8.79 8,15.27 a 0.99,0.99 0 0 1 -0.99,0.96 l -12.33,0.06 a 1,1 0 0 1 -1.01,-1.07 q 0.31,-4.24 -0.76,-8.34 a 1.01,1 2.9 0 0 -0.64,-0.7 z m 0.34,-22.45 a 1.04,1.03 63.7 0 0 -0.58,-0.2 l -26.09,-0.07 a 1,0.99 -89.7 0 0 -1,1 v 8.76 a 1,1 0 0 0 0.99,1 q 12.11,0.1 24.19,-0.03 c 5.65,-0.06 5.76,-8.08 2.49,-10.46 z"
           id="path42"
           style="fill:#ffffff;fill-opacity:1" /></g></g></g></svg>
