<?xml version="1.0" encoding="UTF-8" standalone="no"?>
<!-- Generator: Adobe Illustrator 19.0.0, SVG Export Plug-In . SVG Version: 6.00 Build 0)  -->

<svg
   version="1.1"
   id="Calque_1"
   x="0px"
   y="0px"
   viewBox="0 0 172 172"
   xml:space="preserve"
   sodipodi:docname="mega-msu.svg"
   inkscape:version="1.4.2 (f4327f4, 2025-05-13)"
   xmlns:inkscape="http://www.inkscape.org/namespaces/inkscape"
   xmlns:sodipodi="http://sodipodi.sourceforge.net/DTD/sodipodi-0.dtd"
   xmlns="http://www.w3.org/2000/svg"
   xmlns:svg="http://www.w3.org/2000/svg"><defs
   id="defs1" /><sodipodi:namedview
   id="namedview1"
   pagecolor="#ffffff"
   bordercolor="#000000"
   borderopacity="0.25"
   inkscape:showpageshadow="2"
   inkscape:pageopacity="0.0"
   inkscape:pagecheckerboard="0"
   inkscape:deskcolor="#d1d1d1"
   inkscape:zoom="4.6918605"
   inkscape:cx="86"
   inkscape:cy="86"
   inkscape:window-width="1920"
   inkscape:window-height="1009"
   inkscape:window-x="-8"
   inkscape:window-y="-8"
   inkscape:window-maximized="1"
   inkscape:current-layer="Calque_1" />
<g
   id="g1">
	<path
   d="M86,172c-47.5,0-86-38.5-86-86S38.5,0,86,0s86,38.5,86,86S133.5,172,86,172z M98.6,85.3c0-7-5.7-12.6-12.6-12.6   s-12.6,5.7-12.6,12.6c0,7,5.6,12.6,12.6,12.6S98.6,92.3,98.6,85.3z"
   id="path1" />
	<path
   id="XMLID_918_"
   fill="#FFFFFF"
   d="M86,1.4C39.3,1.4,1.4,39.3,1.4,86s37.9,84.6,84.6,84.6c46.7,0,84.6-37.9,84.6-84.6   S132.7,1.4,86,1.4z M150.2,135.2c-14.8,19.3-38,31.7-64.2,31.7s-49.4-12.4-64.2-31.7C11.3,121.6,5.1,104.5,5.1,86   C5.1,41.3,41.3,5.1,86,5.1c44.7,0,80.9,36.2,80.9,80.9C166.9,104.5,160.7,121.6,150.2,135.2L150.2,135.2z" />
	<path
   id="XMLID_917_"
   d="M150.2,135.2c-14.8,19.3-38,31.7-64.2,31.7s-49.4-12.4-64.2-31.7h43.3l5.8-8.6h27.7l5.7,8.6H150.2z" />
	<path
   id="XMLID_913_"
   fill="#939598"
   d="M86,5.1C41.3,5.1,5.1,41.3,5.1,86c0,18.5,6.2,35.6,16.7,49.2h43.3l5.8-8.6h27.7l5.7,8.6   h45.9c10.5-13.6,16.7-30.7,16.7-49.2C166.9,41.3,130.7,5.1,86,5.1z M86,112c-14.4,0-26-11.7-26-26s11.6-26,26-26s26,11.7,26,26   S100.4,112,86,112z" />
	<path
   id="XMLID_909_"
   fill="#BCBEC0"
   d="M86,60c-14.4,0-26,11.7-26,26s11.6,26,26,26s26-11.7,26-26S100.4,60,86,60z M86,110.1   c-13.3,0-24.1-10.8-24.1-24.1S72.7,61.9,86,61.9s24.1,10.8,24.1,24.1S99.3,110.1,86,110.1z" />
	<path
   id="XMLID_905_"
   fill="#939598"
   d="M86,61.9c-13.3,0-24.1,10.8-24.1,24.1s10.8,24.1,24.1,24.1s24.1-10.8,24.1-24.1   S99.3,61.9,86,61.9z M86,108.6c-12.5,0-22.6-10.1-22.6-22.6S73.5,63.4,86,63.4c12.5,0,22.6,10.1,22.6,22.6S98.5,108.6,86,108.6z" />
	<path
   id="XMLID_902_"
   fill="#58595B"
   stroke="#383839"
   stroke-width="1.977"
   stroke-miterlimit="10"
   d="M86,63.4   c-12.5,0-22.6,10.1-22.6,22.6s10.1,22.6,22.6,22.6c12.5,0,22.6-10.1,22.6-22.6S98.5,63.4,86,63.4z M86,97.9   c-7,0-12.6-5.6-12.6-12.6c0-7,5.6-12.6,12.6-12.6s12.6,5.7,12.6,12.6C98.6,92.3,93,97.9,86,97.9z" />
	<g
   id="megacd_1_">
		<path
   id="XMLID_901_"
   fill="#FFFFFF"
   d="M77.8,145c0-0.6,0-1.1,0-1.5c0,0,0.1-0.1,0.1-0.1c2,0,3.9-0.1,5.9,0    c1.1,0,1.9,1.3,1.8,2.4c-0.1,1.2-1,2.1-2.2,2.1c-1.7,0-3.5,0-5.2,0c-1.3,0-2.6,0-3.9,0c-1.4,0-2.2-0.8-2.2-2.2c0-1,0-2,0-3.1    c0.6,0,1.1,0,1.6,0c0.5,0,1,0,1.6,0c0,0.8,0,1.6,0,2.4c0,1,0.1,1.1,1.1,1.1c1.6,0,3.3,0,4.9,0c0.1,0,0.3,0,0.4,0    c0.4,0,0.7-0.2,0.6-0.6c-0.1-0.2-0.4-0.5-0.6-0.5c-1-0.1-2,0-3,0C78.4,145,78.1,145,77.8,145z" />
		<path
   id="XMLID_900_"
   fill="#FFFFFF"
   d="M69.8,143.3c0,0.6,0,1.1,0,1.7c-2.6,0-5.1,0-7.6,0c-0.1,0.9,0.1,1.2,0.9,1.2    c2.1,0,4.2,0,6.4,0c0.3,0,0.5,0,0.8,0c0,0.6,0,1.1,0,1.7c-0.2,0-0.5,0-0.7,0c-2.8,0-5.5,0-8.3,0c-1.7,0-2.4-0.8-2.4-2.4    c0-0.9,0-1.9,0-2.9c1.1,0,2.1,0,3.2,0c0.2,0.6,0.7,0.7,1.2,0.7c1.9,0,3.7,0,5.6,0C69.1,143.3,69.4,143.3,69.8,143.3z" />
		<path
   id="XMLID_899_"
   fill="#FFFFFF"
   d="M57,142.1c-5.8,0-11.6,0-17.4,0c0-0.6,0-1.2,0-1.8c0.2,0,0.4-0.1,0.5-0.1c5,0,10,0,15,0    C56.4,140.3,57.1,141,57,142.1z" />
		<path
   id="XMLID_898_"
   fill="#FFFFFF"
   d="M96.8,144.2c0-0.6,0-1.1,0-1.6c1.1,0,2.1,0,3.2,0c0,1.7,0,3.5,0,5.2c-1,0-2.1,0-3.2,0    c0-0.5,0-1-0.1-1.5c-1.9,0-3.8,0-5.7,0c0-0.7,0-1.4,0-2.1C93,144.2,94.8,144.2,96.8,144.2z" />
		<path
   id="XMLID_897_"
   fill="#FFFFFF"
   d="M122.7,147.9c0-0.6,0-1.1,0-1.7c0.3,0,0.5,0,0.8,0c1.6,0,3.2,0,4.8,0    c0.7,0,0.9-0.2,0.9-0.9c0-0.9,0-1.7,0-2.6c1.1,0,2.1,0,3.3,0c0,0.4,0,0.9,0,1.3c0,0.6,0,1.2,0,1.8c0,1.1-0.7,2-1.8,2.1    C127.9,148,125.3,147.9,122.7,147.9z" />
		<path
   id="XMLID_896_"
   fill="#FFFFFF"
   d="M72.1,142.1c-0.1-1,0.6-1.8,1.7-1.8c1.3,0,2.6,0,3.8,0c2.4,0,4.7,0,7.1,0    c0.3,0,0.5,0,0.8,0c0,0.6,0,1.2,0,1.8C81.1,142.1,76.6,142.1,72.1,142.1z" />
		<path
   id="XMLID_895_"
   fill="#FFFFFF"
   d="M132.3,142.1c-4.5,0-8.9,0-13.4,0c0-0.2,0-0.4,0-0.6c0-0.4,0-0.7,0-1.1    c0.2,0,0.4-0.1,0.5-0.1c3.7,0,7.4,0,11.1,0C131.7,140.3,132.4,141,132.3,142.1z" />
		<path
   id="XMLID_894_"
   fill="#FFFFFF"
   d="M87.2,142.1c0-1.1,0.6-1.8,1.6-1.8c3.2,0,6.4,0,9.5,0c1,0,1.7,0.8,1.6,1.8    C95.8,142.1,91.5,142.1,87.2,142.1z" />
		<path
   id="XMLID_893_"
   fill="#FFFFFF"
   d="M58.9,142.1c0-0.6,0-1.2,0-1.8c3.8,0,7.6,0,11.4,0c0,0.6,0,1.1,0,1.8    C66.5,142.1,62.8,142.1,58.9,142.1z" />
		<path
   id="XMLID_892_"
   fill="#FFFFFF"
   d="M53.8,147.9c0-1.8,0-3.5,0-5.2c1.1,0,2.1,0,3.2,0c0,1.7,0,3.5,0,5.2    C55.9,147.9,54.9,147.9,53.8,147.9z" />
		<path
   id="XMLID_891_"
   fill="#FFFFFF"
   d="M39.6,142.7c1.1,0,2.1,0,3.1,0c0,1.8,0,3.5,0,5.3c-1.1,0-2.1,0-3.1,0    C39.6,146.2,39.6,144.5,39.6,142.7z" />
		<path
   id="XMLID_890_"
   fill="#FFFFFF"
   d="M87.2,147.9c0-1.8,0-3.5,0-5.2c1.1,0,2.1,0,3.2,0c0,1.7,0,3.5,0,5.2    C89.3,147.9,88.3,147.9,87.2,147.9z" />
		<path
   id="XMLID_889_"
   fill="#FFFFFF"
   d="M49.9,147.9c-1.1,0-2.1,0-3.1,0c0-1.7,0-3.5,0-5.2c1,0,2,0,3.1,0    C49.9,144.4,49.9,146.1,49.9,147.9z" />
		<path
   id="XMLID_888_"
   fill="#FFFFFF"
   d="M119,147.9c0-1.8,0-3.5,0-5.2c1.1,0,2.1,0,3.2,0c0,1.7,0,3.5,0,5.2    C121.1,147.9,120,147.9,119,147.9z" />
		<path
   id="XMLID_887_"
   fill="#FFFFFF"
   d="M117.2,141.8v0.3h-11.1v-0.3c0-0.8,0.7-1.5,1.5-1.5h8C116.5,140.3,117.2,141,117.2,141.8z    " />
		<path
   id="XMLID_886_"
   fill="#FFFFFF"
   d="M117.2,146.2v0.3c0,0.8-0.7,1.5-1.5,1.5h-8c-0.8,0-1.5-0.6-1.5-1.5v-3.8h2.4v3    c0,0.3,0.3,0.6,0.6,0.6H117.2z" />
	</g>
	<g
   id="SEGA_7_">
		<path
   id="XMLID_885_"
   fill="#FFFFFF"
   d="M101.4,138.1l0,0.2l-0.1,0.3l-0.3,0.1h-5.3v-1.1c-0.3,0.8-0.5,1.2-1.2,1.2    c-0.2,0-0.5,0-0.9-0.1l-0.5-0.1h0c-0.2,0.1-0.3,0.1-0.6,0.1h-0.1c-0.6,0-1.1,0-1.7,0H88c-1.4,0-2.4-0.8-2.8-2v2h-4.1    c-0.3,0-0.6,0-0.9,0c-1.3-0.1-2.4-1.3-2.5-2.6v-0.2c-0.1,0.5-0.3,1-0.6,1.5c-0.6,0.8-1.4,1.2-2.4,1.3c-0.6,0-1.1,0-1.6,0l-3.1,0    V135h1.7c-0.6-0.3-1-0.8-1.3-1.5c-0.6-1.2-0.5-2.5,0.3-3.6c0.6-0.9,1.4-1.3,2.3-1.4c0.6,0,1.2,0,1.8,0h3v1.7h0v0.9    c0-1.3,1.1-2.5,2.3-2.6c0.7,0,1.3-0.1,2-0.1l3.3,0v1.9c0.4-1.2,1.4-1.9,2.7-1.9c0.6,0,2.8,0,2.8,0h1.7v2h0v1.3h0v3.4l1.6-5    c0.4-1.3,1.2-1.9,2.3-1.9c0.2,0,0.3,0,0.5,0c0.9,0.1,1.5,0.7,1.7,1.5c0.7,2.1,1.4,4.2,2.1,6.3L101.4,138.1z" />
		<path
   id="XMLID_884_"
   d="M101,138.2c-1.6,0-3.2,0-4.9,0c0-0.4,0-0.7,0-1.1c1.1,0,2.1,0,3.3,0c-0.2-0.7-0.4-1.3-0.6-1.9    c-0.5-1.5-0.9-3-1.5-4.5c-0.1-0.4-0.5-0.8-0.8-0.9c-0.5-0.1-0.7,0.4-0.9,0.9c-0.7,2.3-1.5,4.6-2.2,6.9c-0.2,0.5-0.4,0.7-1,0.7    c-1.5,0-3,0-4.5,0c-1.5,0-2.5-1-2.5-2.6c0-1.4,0-2.8,0-4.2c0-1.6,1-2.6,2.5-2.6c1.3,0,2.7,0,4.1,0c0,0.4,0,0.7,0,1.2    c-1.2,0-2.3,0-3.5,0c-1.6,0-2,0.4-2,2.1c0,1.1,0,2.1,0,3.2c0,1.1,0.5,1.7,1.6,1.7c0.9,0,1.7,0,2.7,0c0-1.3,0-2.4,0-3.7    c-0.7,0-1.5,0-2.2,0c0-0.4,0-0.8,0-1.2c1.1,0,2.2,0,3.5,0c0,1.6,0,3.3,0,4.9c0.1,0,0.1,0,0.2,0c0.7-2.3,1.5-4.5,2.2-6.8    c0.4-1.3,1.2-1.8,2.4-1.6c0.7,0.1,1.2,0.5,1.4,1.2c0.9,2.7,1.8,5.4,2.6,8.1C101,138.1,101,138.1,101,138.2z" />
		<path
   id="XMLID_883_"
   d="M70.4,138.2c0-0.4,0-0.8,0-1.2c1.3,0,2.6,0,3.9,0c1.1,0,1.9-0.8,1.9-1.8c0-1-0.8-1.8-1.8-1.9    c-0.4,0-0.9,0-1.3,0c-0.7-0.1-1.1-0.7-1.1-1.4c0-0.7,0.5-1.4,1.1-1.4c1.4,0,2.8,0,4.2,0c0,0.4,0,0.7,0,1.2c-0.7,0-1.4,0-2.1,0    c-0.7,0-1.3,0-2,0c0,0.1,0,0.3,0,0.4c0.4,0,0.8,0,1.2,0.1c1.5,0,2.5,0.9,2.9,2.4c0.4,1.8-0.8,3.7-2.6,3.8    C73.3,138.3,71.9,138.2,70.4,138.2z" />
		<path
   id="XMLID_882_"
   d="M70.4,136.6c0-0.4,0-0.7,0-1.2c1.4,0,2.7,0,4.1,0c0-0.1,0-0.2,0-0.3c-0.4,0-0.8,0-1.3,0    c-1.2,0-2.1-0.6-2.6-1.7c-0.5-1.1-0.4-2.2,0.2-3.2c0.5-0.7,1.1-1.2,2-1.2c1.4,0,2.9,0,4.4,0c0,0.4,0,0.7,0,1.2c-1.3,0-2.6,0-3.9,0    c-1.3,0-2.1,1.2-1.7,2.4c0.2,0.7,0.9,1.2,1.8,1.3c0.4,0,0.8,0,1.2,0c0.6,0.1,1.1,0.7,1.2,1.4c0,0.7-0.5,1.4-1.1,1.4    C73.3,136.6,71.9,136.6,70.4,136.6z" />
		<path
   id="XMLID_881_"
   d="M84.9,128.9c0,0.4,0,0.7,0,1.2c-1.3,0-2.6,0-3.8,0c-1.3,0-1.8,0.5-1.8,1.9c0,1.1,0,2.2,0,3.3    c0,1.3,0.5,1.8,1.7,1.8c1.3,0,2.6,0,3.9,0c0,0.4,0,0.7,0,1.2c-1,0-1.9,0-2.8,0c-0.6,0-1.2,0-1.8,0c-1.1-0.1-2.1-1.1-2.1-2.2    c0-1.6,0-3.3,0-4.9c0-1,0.9-2.1,1.9-2.2C81.6,128.8,83.2,128.9,84.9,128.9z" />
		<path
   id="XMLID_878_"
   d="M93.6,138.2c0.8-2.6,1.6-5.1,2.5-7.5c0.1-0.2,0.2-0.4,0.4-0.4c0.1,0,0.3,0.2,0.4,0.3c0.7,2,1.3,4,2,6.1    c-1,0-1.9,0-2.8,0c0-0.3-0.1-0.6-0.1-0.8c0,0-0.1,0-0.1,0c-0.2,0.5-0.3,0.9-0.5,1.4C95,138.3,95,138.3,93.6,138.2z M96,135.2    c0.4,0,0.6,0,1,0c-0.2-0.5-0.3-0.9-0.4-1.3c-0.1,0-0.1,0-0.2,0C96.3,134.4,96.2,134.8,96,135.2z" />
		<path
   id="XMLID_877_"
   d="M89.5,135.1c-0.4-0.1-0.6-0.2-0.8-0.2c0-0.3,0-0.7,0-1.1c0.6,0,1.2,0,1.8,0c0,0.9,0,1.8,0,2.8    c-0.9,0-1.8,0.1-2.8,0c-0.2,0-0.6-0.5-0.6-0.7c-0.1-1.5,0-3,0-4.5c0-0.5,0.3-0.8,0.8-0.8c1.4,0,2.8,0,4.2,0c0,0.4,0,0.7,0,1.2    c-1,0-2.1,0-3.1,0c-0.6,0-0.9,0.2-0.8,0.9c0,0.7,0,1.4,0,2.1C88.2,135.4,88.6,135.6,89.5,135.1z" />
		<path
   id="XMLID_876_"
   d="M80.9,135.3c1.3,0.2,2.6,0,3.9,0.1c0,0.4,0,0.7,0,1.1c-1.5,0-3,0-4.5,0c-0.2,0-0.6-0.5-0.6-0.8    c-0.1-0.6,0-1.2,0-1.9c1.4,0,2.8,0,4.2,0c0,0.4,0,0.7,0,1.1c-1,0-2,0-2.9,0C80.9,135.1,80.9,135.2,80.9,135.3z" />
		<path
   id="XMLID_875_"
   d="M84.9,130.5c0,0.4,0,0.7,0,1.1c-1.3,0.2-2.7-0.1-4,0.2c0,0.1,0,0.2,0,0.3c1,0,1.9,0,3,0    c0,0.4,0,0.8,0,1.2c-1.4,0-2.7,0-4.2,0c0-0.7-0.1-1.4,0-2.1c0-0.2,0.4-0.6,0.7-0.6C81.9,130.5,83.4,130.5,84.9,130.5z" />
	</g>
</g>
<g
   id="g5"
   transform="matrix(0.26113176,0,0,0.26113176,50.013203,17.799876)"><rect
     x="9.5"
     y="9.1667004"
     width="253.17"
     height="116.83"
     rx="0"
     ry="0"
     id="rect1" /><g
     id="g4"><path
       d="M 0,0 H 272.67 V 135 H 0 Z M 262.67,9.0829 H 9.42 v 116.92 h 253.25 z m -90.275,112.98 c -2.5357,-1.7749 -3.7662,-4.1983 -3.9525,-9.4624 -0.16732,-4.7276 0.46384,-7.0857 1.8145,-9.2154 1.3268,-2.0921 3.192,-2.822 5.6954,-2.6409 1.2353,0.0893 2.2824,0.37321 2.9606,0.85614 1.0831,0.77125 2.1574,2.7341 2.6951,4.4958 0.10103,0.33102 0.29409,1.0463 0.29409,1.0463 0,0 -0.80492,0.35708 -1.9479,0.78589 l -1.7844,0.66946 -0.29349,-0.88331 c -0.43224,-1.3009 -1.2972,-2.0345 -2.2061,-2.0345 -2.2168,0 -2.9419,1.5085 -2.9419,6.3174 0,3.8404 0.69012,5.2724 2.1199,5.7712 1.5502,0.54075 2.3391,-0.67375 2.916,-1.9094 0.28697,-0.61469 0.39515,-1.3972 0.46049,-2.0723 l 3.8389,1.7099 c -0.588,3.7894 -1.5114,4.9494 -2.5202,5.916 -0.87167,0.83512 -1.6372,1.24 -3.7477,1.3191 -1.8558,0.0695 -2.6251,-0.12604 -3.4007,-0.66894 z m -158.73,-21.088 h 5.628 l 2.2696,12.543 2.2001,-12.543 h 5.569 v 21.331 h -3.3886 v -15.557 l -2.7533,15.557 h -3.1312 l -2.6926,-15.809 v 15.809 h -3.7009 z m 18.667,0 h 11.333 v 4.4279 h -7.1667 v 3.5229 h 6.8333 v 4.747 h -6.8333 v 3.919 h 7.5 v 4.7145 h -11.667 z m 14,0 4.6856,-0.0296 c 3.8612,0.0998 3.9175,0.2922 4.9405,1.0219 0.66532,0.47451 1.4837,1.5657 2,2.6667 0.82891,1.7676 1.2659,2.138 1.2659,7.1968 0,5.1821 -0.76596,6.2687 -1.3369,7.2576 -1.3773,2.3856 -1.8497,3.1901 -6.9973,3.2178 h -4.5577 z m 7.2169,16.2 c 1.8427,-1.2907 1.9322,-9.0341 0.12338,-10.671 -0.32501,-0.29413 -1.1345,-0.62299 -1.7989,-0.73081 l -1.208,-0.0218 v 11.913 h 1.0925 c 0.60088,0 1.4069,-0.22019 1.7911,-0.4893 z m 8.1164,-16.2 h 4.3333 v 21.331 h -4.3333 z m 11.359,0 h 4.5843 l 5.1656,21.331 h -4.368 l -0.83696,-3.332 -4.7341,0.0181 -0.68605,3.3139 h -4.4026 z m 3.6278,13.214 -1.3987,-7.2877 -1.4818,7.2877 z m 28.346,-13.224 3.9933,0.0142 5.3123,11.597 0.0278,-11.58 h 3.6666 v 21.333 l -3.8333,-0.01 -5,-11.482 -0.1824,11.492 h -3.9843 z m 16.333,0.0318 h 4.1339 v 7.5979 h 4.8662 v -7.5979 h 4.3334 v 21.333 h -4.3334 v -8.598 h -4.8662 v 8.5979 h -4.1339 z m 129.33,5.3333 h -4.3333 v -5.3333 h 13 v 5.3333 h -4.6667 v 16 h -4 z m -159.68,-5.3639 h 11.333 v 4.4279 h -7.1667 v 3.5229 h 6.8333 v 4.747 h -6.8333 v 3.919 h 7.5 v 4.7145 h -11.667 z m 50.408,0.0727 h 4.5843 l 5.1656,21.331 h -4.368 l -0.83695,-3.332 -4.7341,0.0181 -0.68605,3.3139 h -4.4026 z m 3.6278,13.214 -1.3987,-7.2877 -1.4818,7.2877 z m 7.7201,-13.295 3.9933,0.0142 5.3123,11.597 0.0278,-11.58 h 3.6666 v 21.333 l -3.8333,-0.01 -5,-11.482 -0.1824,11.492 h -3.9843 z m 31.649,-0.0533 h 11.333 v 4.4279 h -7.1667 v 3.5229 h 6.8333 v 4.747 h -6.8333 v 3.919 h 7.5 v 4.7145 h -11.667 z m 32.394,0.14531 h 11.333 v 4.4279 h -7.1667 v 3.5229 h 6.8333 v 4.747 h -6.8333 v 3.919 h 7.5 v 4.7145 h -11.667 z m -18.504,0.001 h 5.628 l 2.2696,12.543 2.2001,-12.543 h 5.569 v 21.331 h -3.3886 v -15.557 l -2.7533,15.557 h -3.1312 l -2.6926,-15.809 v 15.809 h -3.7009 z m 32.54,-0.0364 3.9933,0.0142 5.3123,11.597 0.0278,-11.58 h 3.6666 v 21.333 l -3.8333,-0.01 -5,-11.482 -0.1824,11.492 h -3.9843 z"
       fill="#fdfdfd"
       id="path1-0" /><path
       d="m 114.67,73.358 h 34.704 c 3.668,0 5.4352,-0.9225 6.5944,-1.5924 4.7261,-2.7312 6.975,-6.7979 6.9538,-11.734 -0.0211,-4.9337 -2.6877,-9.8955 -7.8466,-12.301 -1.8611,-0.86787 -1.9922,-1.0636 -10.073,-1.0636 -1.5492,0 -3.5873,0.02965 -5.1476,0 -6.4629,-0.12283 -11.716,-5.0959 -11.676,-10.282 0.0437,-5.6015 2.4675,-10.908 12.784,-10.908 h 32.373 v 9.1887 h -33.49 c -1.8543,0 -2.0796,0.67625 -2.0796,1.2971 0,0.68335 0.25732,1.7219 2.0202,1.7219 h 6.1975 c 7.6131,0 9.116,0.18604 13.001,1.7551 6.0406,2.4399 11.515,8.2996 13.445,14.392 0.97855,3.0884 1.0417,8.7597 0.12806,11.5 -2.4725,7.416 -8.1954,13.289 -14.953,15.943 -1.7094,0.67154 -5.1564,1.0685 -8.825,1.0706 h -34.11 z m 0,-12.348 h 33.529 c 1.1224,0 2.0991,-0.30683 2.0991,-1.4964 0,-0.93342 -0.91527,-1.5068 -1.9515,-1.5068 h -6.751 c -7.7782,0 -9.4204,-0.25533 -13.151,-1.9916 -6.5962,-3.0698 -11.775,-9.0789 -13.262,-15.387 -0.65417,-2.7752 -0.64641,-6.8445 0.018,-9.4139 0.62436,-2.4146 2.4035,-6.0802 4.0198,-8.282 1.7952,-2.4456 5.5416,-5.7234 8.0247,-7.0211 4.3626,-2.2799 9.1638,-2.6374 13.601,-2.6434 h 32.491 v 8.7318 h -32.354 c -9.9584,0 -15.397,6.4609 -15.438,13.605 0.16422,6.4098 4.5496,13.395 13.806,13.395 1.6603,0 7.9384,-0.02755 9.702,0 4.2604,0.06656 8.1736,2.5413 10.173,5.9164 1.5466,2.6109 1.5255,6.3554 0.23243,9.1006 -1.3714,2.9118 -4.1456,5.3305 -7.5988,5.9573 -0.3613,0.06559 -1.2184,0.26557 -2.5254,0.26557 h -34.664 z"
       fill="#1d57a1"
       id="path2" /><path
       d="M 209.83,83.297 C 202.0585,82.30465 194.476,78.5304 188.821,72.84 184.3137,68.3041 178.338,58.835 178.329,48.522 V 12.993 l 27.107,0.17418 v 30.88 c 0,4.6626 3.4304,10.585 11.568,12.034 l -0.174,27.449 -2.3333,0.01732 c -1.2836,0.0095 -3.3833,-0.08642 -4.6667,-0.25029 z m 9.5,-27.244 c 0.52344,-0.03857 1.7467,-0.20522 2.1765,-0.32092 l 6.0611,27.475 c -2.3298,0.26134 -6.0002,0.32349 -8.0428,0.32349 z m 3.0905,-0.61358 c 0.78241,-0.23692 1.9176,-0.78881 2.3877,-1.0878 l 14.986,24.72 c -2.0467,1.2641 -6.2654,2.9484 -8.9666,3.5946 z m 3.5053,-1.8534 c 0.42977,-0.35263 1.4566,-1.2978 1.7484,-1.6395 l 21.156,20.093 c -1.7205,1.9165 -4.896,4.5651 -7.1174,5.9589 z m 2.6915,-2.8095 c 0.46663,-0.569 1.017,-1.4735 1.1818,-1.9308 l 25.159,14.015 c -0.47912,1.2849 -3.5647,6.2316 -4.8278,7.6472 z m 1.7444,-3.5888 c 0.17635,-0.4585 0.3876,-1.5778 0.44188,-2.0413 l 26.943,7.572 c -0.26134,2.1778 -1.2888,6.3404 -2.1381,8.3001 z m 0.51683,-3.9918 c 0.0386,-0.37713 0.0671,-0.99643 0.0709,-1.3417 l 27.297,-0.02092 -0.0396,2.5 c -0.0321,2.0272 -0.15251,5.1121 -0.26572,6.0309 z m 0.11809,-30.196 h 27.25 v 27.333 h -27.25 z"
       fill="#13ae16"
       id="path3" /><path
       d="m 13.333,87 h 246 v 9.6667 h -246 z m 0.0618,-4.5833 52.508,-68.417 v 56 l 43.283,-56 v 68.417 z"
       fill="#fc0100"
       id="path4" /></g></g><path
   style="fill:#939598;fill-opacity:1;stroke-width:0.213135"
   d="M 50.193309,35.380421 V 17.796778 H 85.680297 121.16729 V 35.380421 52.964064 H 85.680297 50.193309 Z m 68.416361,0.106568 V 20.141264 H 85.467162 52.324659 v 15.345725 15.345725 h 33.142503 33.142508 z"
   id="path5" /><path
   style="fill:#939598;fill-opacity:1;stroke-width:0.213135"
   d="m 20.932743,133.79554 c -0.516184,-0.67404 -1.399058,-1.92088 -1.961943,-2.77076 -0.562885,-0.84987 -1.121252,-1.54523 -1.240815,-1.54523 -0.119563,0 -0.163188,-0.0542 -0.09694,-0.12044 0.06624,-0.0662 -0.49607,-1.14524 -1.249584,-2.39777 C 13.554978,122.2597 10.885679,116.29221 9.0725673,110.6171 8.5856991,109.09318 8.130843,107.70248 8.0617762,107.52664 7.9927091,107.35081 7.9062304,107.01512 7.8696013,106.78067 7.8329719,106.54622 7.506213,105.10756 7.1434703,103.58364 6.7807277,102.05973 6.4342506,100.34076 6.3735215,99.763706 6.3127923,99.186658 6.1760539,98.551872 6.0696585,98.35307 5.963263,98.154266 5.9185372,97.949285 5.9702677,97.897555 6.0219983,97.845825 5.9222109,96.658307 5.7485181,95.258628 4.9427646,88.765572 5.0302368,81.631409 5.9992343,74.810409 6.1824172,73.520942 6.358721,72.226146 6.3910205,71.933086 c 0.0323,-0.293061 0.1055194,-0.676704 0.1627108,-0.852541 0.057191,-0.175836 0.4154996,-1.710409 0.7962407,-3.410161 1.4818164,-6.615312 4.415595,-14.396899 7.553392,-20.034696 0.554564,-0.996407 1.024829,-1.907559 1.045032,-2.024783 0.0202,-0.117225 0.0948,-0.261091 0.165762,-0.319703 0.07097,-0.05861 0.636531,-0.921809 1.256812,-1.918216 0.620282,-0.996406 1.6884,-2.602912 2.373595,-3.570012 0.685195,-0.9671 1.188001,-1.758364 1.117345,-1.758364 -0.07066,0 0.09796,-0.188631 0.374701,-0.419179 0.276741,-0.230549 0.412902,-0.42237 0.302578,-0.426271 -0.110323,-0.0039 -0.04955,-0.126979 0.135056,-0.273509 0.184604,-0.146531 1.294565,-1.417349 2.466581,-2.82404 C 28.18463,29.248106 34.186577,23.716213 39.442667,19.998166 47.796091,14.08913 58.112711,9.4640977 67.670384,7.34343 c 1.699752,-0.3771429 3.234325,-0.7325074 3.410161,-0.7896987 0.175837,-0.057191 0.55948,-0.1304113 0.852541,-0.1627108 0.29306,-0.032299 1.587856,-0.2086033 2.877323,-0.3917862 5.447157,-0.773828 11.855962,-0.9993832 16.944238,-0.5963451 1.348079,0.1067802 2.594919,0.1993174 2.770756,0.2056382 0.175836,0.00632 1.326766,0.1655609 2.557621,0.3538671 1.230855,0.1883061 2.52565,0.3753484 2.877323,0.4156495 0.351673,0.040301 0.783273,0.1197141 0.959103,0.1764732 0.17584,0.056759 1.71041,0.4117699 3.41017,0.7889128 8.14212,1.8065836 17.20412,5.580464 24.72366,10.296203 8.55146,5.362879 16.85612,13.250889 22.97739,21.824595 3.12753,4.380546 6.83642,11.150395 8.79714,16.057457 0.39813,0.996407 0.82085,1.882113 0.93936,1.968237 0.11852,0.08612 0.15009,0.158056 0.0702,0.159851 -0.12013,0.0027 1.207,4.246335 1.66738,5.33164 0.0746,0.175836 0.15681,0.463568 0.18271,0.639405 0.066,0.448031 0.73809,3.023594 0.8899,3.410161 0.0691,0.175836 0.16015,0.559479 0.20243,0.85254 0.0423,0.293061 0.27058,1.44399 0.50731,2.557621 0.23673,1.113631 0.47958,2.446043 0.53965,2.960915 0.0601,0.514873 0.209,1.569891 0.33093,2.344486 0.12193,0.774594 0.2244,1.55222 0.2277,1.728056 0.003,0.175837 0.0968,1.422677 0.20767,2.770756 0.31134,3.784081 0.26286,8.426127 -0.14022,13.427509 -0.25067,3.110415 -1.21284,8.552338 -2.16682,12.255268 -0.302,1.17224 -0.57081,2.27522 -0.59737,2.45105 -0.0265,0.17584 -0.1093,0.46357 -0.18389,0.63941 -0.46038,1.0853 -1.78751,5.32894 -1.66738,5.33164 0.0799,0.002 0.0485,0.0737 -0.0698,0.15985 -0.21161,0.15402 -1.08991,2.1955 -1.21358,2.82078 -0.0348,0.17583 -0.11411,0.36765 -0.1763,0.42627 -0.0622,0.0586 -0.52845,1.01772 -1.03615,2.13135 -1.01261,2.22118 -3.29903,6.48228 -4.41095,8.22048 -0.38918,0.60838 -0.64809,1.16564 -0.57536,1.23837 0.0727,0.0727 0.0339,0.13222 -0.0863,0.13222 -0.25025,0 -1.85994,2.34278 -1.6131,2.34775 0.0891,0.002 0.0479,0.0758 -0.0915,0.16447 -0.13944,0.0887 -0.71711,0.78254 -1.2837,1.54196 l -1.03016,1.38077 -22.96729,0.0542 -22.96729,0.0542 -2.81448,-4.26366 -2.814484,-4.26366 -13.963037,0.008 -13.963036,0.008 -2.842323,4.2544 -2.842322,4.2544 H 43.473729 21.871259 Z M 89.836431,111.7943 c 0.921336,-0.10108 3.623318,-0.72376 3.623448,-0.83504 8.1e-5,-0.071 0.26089,-0.14417 0.579574,-0.16267 0.318686,-0.0185 0.614541,-0.13899 0.65746,-0.26775 0.04292,-0.12875 0.166155,-0.17964 0.273861,-0.11307 0.270068,0.16691 4.2436,-1.73919 4.2436,-2.03565 0,-0.13157 0.08362,-0.18755 0.185828,-0.12438 0.317663,0.19632 3.171268,-1.95732 5.012318,-3.78284 1.81237,-1.79709 4.04577,-4.744966 3.84322,-5.072698 -0.0632,-0.102204 -0.007,-0.185828 0.12438,-0.185828 0.29606,0 2.16726,-3.902503 2.2076,-4.604097 0.0162,-0.280965 0.0933,-0.510912 0.17147,-0.510993 0.0782,-8.3e-5 0.36227,-0.887326 0.63137,-1.971651 0.42615,-1.717133 0.48928,-2.507732 0.48928,-6.127633 0,-3.619901 -0.0631,-4.4105 -0.48928,-6.127633 -0.2691,-1.084325 -0.57418,-1.9715 -0.67796,-1.9715 -0.10378,0 -0.13348,-0.143866 -0.066,-0.319702 0.0675,-0.175837 0.0108,-0.319703 -0.12583,-0.319703 -0.13669,0 -0.18899,-0.09632 -0.11624,-0.214032 0.17461,-0.282523 -1.71559,-4.261804 -2.0244,-4.261804 -0.13157,0 -0.18755,-0.08362 -0.12438,-0.185828 0.21006,-0.339881 -2.05719,-3.305544 -3.96001,-5.179886 -1.03239,-1.016944 -2.68062,-2.383647 -3.66274,-3.037123 -1.964862,-1.307377 -5.361742,-2.984262 -5.665253,-2.796682 -0.106035,0.06553 -0.227905,0.01381 -0.270824,-0.114948 -0.04292,-0.128755 -0.338774,-0.249242 -0.65746,-0.267747 -0.318684,-0.01851 -0.579493,-0.09171 -0.579574,-0.162669 -1.32e-4,-0.112934 -2.65395,-0.722455 -3.676732,-0.84446 -0.485916,-0.05796 -7.080378,-0.05796 -7.566294,0 -1.022782,0.122005 -3.6766,0.731526 -3.676732,0.84446 -8.1e-5,0.07096 -0.26089,0.144163 -0.579574,0.162669 -0.318686,0.0185 -0.614541,0.138992 -0.65746,0.267747 -0.04292,0.128755 -0.164789,0.180481 -0.270824,0.114948 -0.49355,-0.305033 -6.667442,3.135255 -6.950571,3.873078 -0.06132,0.159795 -0.181606,0.2472 -0.267305,0.194234 -0.187176,-0.115679 -3.274024,2.663069 -3.124475,2.81262 0.05736,0.05736 -0.164468,0.330444 -0.492958,0.606851 -1.348067,1.134324 -4.958671,7.396584 -4.599596,7.977577 0.07172,0.116048 0.01857,0.210995 -0.118115,0.210995 -0.136683,0 -0.193311,0.143866 -0.125835,0.319703 0.06747,0.175836 0.01952,0.319702 -0.106567,0.319702 -0.126089,0 -0.174044,0.143867 -0.106568,0.319703 0.06747,0.175836 0.04365,0.319703 -0.05293,0.319703 -0.150695,0 -0.767312,2.558113 -0.886216,3.67658 -0.02181,0.205142 -0.03965,1.907558 -0.03965,3.783147 0,1.875589 0.01784,3.578005 0.03965,3.783147 0.118904,1.118467 0.735521,3.67658 0.886216,3.67658 0.09659,0 0.120408,0.143867 0.05293,0.319703 -0.06748,0.175836 -0.01952,0.319703 0.106568,0.319703 0.126086,0 0.174041,0.143866 0.106567,0.319702 -0.06748,0.175837 -0.01085,0.319703 0.125835,0.319703 0.136684,0 0.188991,0.09632 0.116238,0.214032 -0.15765,0.255082 1.700361,4.261804 1.976297,4.261804 0.105122,0 0.191131,0.127329 0.191131,0.282954 0,0.386915 1.31941,2.276362 1.688498,2.417992 0.164072,0.063 0.246001,0.19912 0.182064,0.30257 -0.204558,0.33098 3.783623,4.09315 5.684321,5.36219 1.999847,1.33524 5.406095,3.0244 5.714471,2.83381 0.106035,-0.0655 0.227905,-0.0138 0.270824,0.11495 0.04292,0.12876 0.338774,0.24924 0.65746,0.26775 0.318684,0.0185 0.579493,0.0917 0.579574,0.16267 2.11e-4,0.17969 3.357297,0.88801 3.573994,0.75408 0.09701,-0.06 0.315662,-0.0219 0.485901,0.0846 0.245221,0.15337 5.830843,0.15057 7.236415,-0.004 z m 31.491959,-76.360595 -0.052,-17.743494 -0.0558,17.636927 -0.0558,17.636926 H 85.680297 50.195772 l -0.05576,-17.636926 -0.05576,-17.636927 -0.05204,17.743494 -0.05203,17.743495 h 35.700124 35.700124 z m -2.71872,0.05328 V 20.141264 H 85.467162 52.324659 v 15.345725 15.345725 h 33.142503 33.142508 z"
   id="path6" /><path
   style="fill:#939598;fill-opacity:1;stroke-width:0.213135"
   d="m 19.928129,132.42692 c -0.996407,-1.42417 -1.907559,-2.69829 -2.024783,-2.83139 -0.117225,-0.1331 -0.393273,-0.5733 -0.613441,-0.97824 -0.220167,-0.40494 -1.112218,-1.99721 -1.982333,-3.53837 -2.188666,-3.87662 -4.280432,-8.65175 -5.8263802,-13.30061 -0.7191533,-2.16258 -1.3609755,-4.07583 -1.4262715,-4.25167 -0.065296,-0.17583 -0.1455849,-0.518 -0.1784194,-0.76037 -0.032835,-0.24237 -0.1702694,-0.85129 -0.3054107,-1.35317 -0.4971627,-1.84632 -1.086,-4.62902 -1.1954476,-5.649394 C 6.3137468,99.186658 6.1760539,98.551872 6.0696585,98.35307 5.963263,98.154266 5.9185372,97.949285 5.9702677,97.897555 6.0219983,97.845825 5.9222109,96.658307 5.7485181,95.258628 4.9432105,88.769166 5.0299749,81.652428 5.9978143,74.810409 6.1802162,73.520942 6.3635083,72.178191 6.4051301,71.826518 6.5340606,70.737153 7.9606148,64.903814 8.6464014,62.66171 10.183643,57.63587 12.403055,52.258621 14.733079,47.914754 c 0.644163,-1.200916 1.157227,-2.247799 1.140141,-2.326405 -0.01709,-0.07861 0.05917,-0.201599 0.16945,-0.273319 0.110284,-0.07172 0.707025,-0.945637 1.326092,-1.942044 0.619067,-0.996406 1.640001,-2.545583 2.268742,-3.442613 0.628741,-0.897032 1.143165,-1.713179 1.143165,-1.813664 0,-0.100483 0.201161,-0.308323 0.447025,-0.461868 0.245864,-0.153545 0.391221,-0.334976 0.323016,-0.403181 -0.06821,-0.06821 0.0077,-0.229404 0.168619,-0.358218 0.160947,-0.128817 1.123633,-1.241273 2.139303,-2.472128 C 32.712284,23.691885 44.923408,15.022161 57.86921,10.274289 62.237279,8.6722995 69.364603,6.696507 71.826518,6.4051301 72.178191,6.3635083 73.520942,6.1802162 74.810409,5.9978143 80.275126,5.2248014 86.671171,5.0002314 91.754647,5.4028892 c 1.348079,0.1067802 2.594919,0.1993174 2.770756,0.2056382 0.175836,0.00632 1.326766,0.1650322 2.557621,0.352692 1.230855,0.1876598 2.573605,0.3833643 2.983886,0.4348988 1.8992,0.2385513 7.84118,1.7436028 10.97646,2.7802419 21.82656,7.2166509 39.7225,23.3888369 48.80872,44.1074069 0.77114,1.758364 1.50996,3.436803 1.64183,3.729864 0.13186,0.29306 0.26287,0.64974 0.29113,0.792619 0.0843,0.426535 1.62999,5.05095 1.76535,5.28173 0.0687,0.117224 0.15405,0.399982 0.18956,0.62835 0.0884,0.56848 0.68293,2.921447 0.83754,3.314649 0.0691,0.175836 0.15298,0.511524 0.18631,0.745973 0.0333,0.234448 0.26366,1.385378 0.51183,2.55762 0.24817,1.172243 0.49826,2.552611 0.55577,3.067483 0.0575,0.514873 0.20432,1.569891 0.32625,2.344486 0.12193,0.774594 0.227,1.55222 0.2335,1.728056 0.006,0.175837 0.0992,1.422677 0.20595,2.770756 0.66238,8.362472 -0.18999,17.572219 -2.41642,26.109047 -0.24458,0.93779 -0.46009,1.85063 -0.47892,2.02853 -0.0188,0.1779 -0.0887,0.41767 -0.15518,0.53284 -0.1134,0.19629 -1.66584,4.86065 -1.77219,5.32463 -0.0269,0.11722 -0.20681,0.5728 -0.39986,1.01239 -0.76988,1.7531 -0.96216,2.29134 -0.81967,2.29446 0.0819,0.002 0.0505,0.0737 -0.0698,0.15985 -0.12031,0.0861 -0.67655,1.159 -1.23608,2.38417 -0.55953,1.22517 -1.71923,3.47907 -2.5771,5.00868 -0.85787,1.5296 -1.74029,3.11671 -1.96094,3.5269 -0.22066,0.4102 -0.45548,0.79384 -0.52183,0.85254 -0.29653,0.26235 -1.47787,2.12466 -1.47787,2.32977 0,0.12541 -0.0812,0.22801 -0.18038,0.22801 -0.0992,0 -0.6507,0.66982 -1.22553,1.48849 l -1.04515,1.48848 -22.96477,0.003 -22.96477,0.003 -2.82457,-4.257 -2.824573,-4.257 H 84.72119 70.760843 l -2.824571,4.257 -2.82457,4.257 -21.685963,-0.002 -21.685962,-0.002 z m 69.908302,-20.6388 c 0.769782,-0.0748 2.709644,-0.49521 3.197026,-0.69279 0.293061,-0.11881 0.763917,-0.24612 1.046349,-0.28292 0.282429,-0.0368 0.570161,-0.14375 0.639405,-0.23767 0.06924,-0.0939 0.317716,-0.20155 0.552164,-0.23917 0.698363,-0.11206 3.942999,-1.7373 3.942999,-1.97506 0,-0.12079 0.07258,-0.17476 0.161282,-0.11994 0.406911,0.25148 4.417564,-2.94147 6.044894,-4.81246 0.58833,-0.67641 1.02462,-1.22984 0.96954,-1.22984 -0.0551,0 0.18434,-0.30455 0.53205,-0.67678 0.66374,-0.71053 1.36228,-1.87533 1.28773,-2.147264 -0.0241,-0.08792 0.0368,-0.159852 0.13544,-0.159852 0.3996,0 2.48481,-4.557439 2.25519,-4.928961 -0.0633,-0.102454 -0.0274,-0.18628 0.0799,-0.18628 0.10724,0 0.42462,-0.935131 0.70527,-2.078067 0.44501,-1.81226 0.51028,-2.582417 0.51028,-6.021066 0,-3.438649 -0.0653,-4.208806 -0.51028,-6.021066 -0.28065,-1.142936 -0.58936,-2.078067 -0.686,-2.078067 -0.0966,0 -0.12051,-0.143866 -0.053,-0.319702 0.0675,-0.175837 0.0369,-0.319703 -0.0679,-0.319703 -0.10482,0 -0.20443,-0.183918 -0.22137,-0.408705 -0.0438,-0.581113 -1.40446,-3.463588 -1.84086,-3.899669 -0.2011,-0.200954 -0.35083,-0.424126 -0.33274,-0.495933 0.059,-0.234116 -1.34058,-2.259451 -1.64101,-2.374734 -0.16084,-0.06172 -0.24683,-0.186003 -0.19109,-0.276187 0.14337,-0.231985 -2.94541,-3.345752 -4.47306,-4.509239 -2.222327,-1.692567 -6.919361,-4.162737 -6.93015,-3.644567 -0.0018,0.08621 -0.08518,0.02749 -0.185293,-0.13049 -0.100119,-0.157978 -0.43427,-0.301844 -0.742559,-0.319702 -0.308291,-0.01786 -0.560598,-0.09053 -0.560679,-0.161493 -1.45e-4,-0.122855 -2.709343,-0.719765 -3.836583,-0.845302 -0.692736,-0.07715 -6.553856,-0.07715 -7.246592,0 -1.12724,0.125537 -3.836438,0.722447 -3.836583,0.845302 -8.1e-5,0.07096 -0.26089,0.144163 -0.579574,0.162669 -0.318686,0.0185 -0.614541,0.138992 -0.65746,0.267747 -0.04292,0.128755 -0.159273,0.183891 -0.258566,0.122523 -0.429638,-0.26553 -5.363581,2.360935 -6.593602,3.509946 -0.348824,0.32585 -0.673612,0.553069 -0.72175,0.504928 -0.04814,-0.04814 -0.339239,0.211615 -0.646887,0.577234 -0.307647,0.365618 -0.559358,0.589476 -0.559358,0.497463 0,-0.09201 -0.429588,0.254311 -0.954638,0.76961 -0.525052,0.515301 -0.914015,0.977535 -0.864359,1.027189 0.04966,0.04965 -0.19239,0.328135 -0.537878,0.618842 -0.345488,0.290708 -0.574286,0.615728 -0.508442,0.722268 0.06585,0.10654 0.016,0.193708 -0.110775,0.193708 -0.601797,0 -4.243498,6.559858 -3.92647,7.072819 0.05907,0.09558 -0.0044,0.173773 -0.141119,0.173773 -0.136683,0 -0.193311,0.143866 -0.125835,0.319703 0.06747,0.175836 0.01952,0.319702 -0.106567,0.319702 -0.126089,0 -0.175223,0.140795 -0.109187,0.312876 0.06603,0.172083 0.03579,0.364962 -0.06722,0.428621 -0.226368,0.139904 -0.79276,2.655305 -0.864855,3.840907 -0.02851,0.468898 -0.05184,2.051425 -0.05184,3.516729 0,1.465304 0.02333,3.047831 0.05184,3.516729 0.07209,1.185602 0.638487,3.701003 0.864855,3.840907 0.103004,0.06366 0.13325,0.256538 0.06722,0.428621 -0.06604,0.172081 -0.0169,0.312876 0.109187,0.312876 0.126086,0 0.174041,0.143866 0.106567,0.319702 -0.06748,0.175837 -0.03692,0.319703 0.0679,0.319703 0.10482,0 0.204435,0.183918 0.221368,0.408705 0.04139,0.549416 1.393886,3.453029 1.795188,3.853996 0.175983,0.175837 0.33648,0.415614 0.35666,0.532838 0.06986,0.405818 1.371567,2.271763 1.662761,2.383503 0.16084,0.0617 0.249203,0.18217 0.196365,0.26766 -0.05284,0.0855 0.507878,0.77079 1.246035,1.52289 1.956614,1.99358 2.899738,2.87807 2.900966,2.72061 5.97e-4,-0.0763 0.289849,0.13095 0.642786,0.46064 1.129196,1.05483 5.160138,3.25188 6.329583,3.44992 0.210029,0.0356 0.438527,0.14151 0.507768,0.23544 0.06924,0.0939 0.356976,0.20088 0.639405,0.23767 0.282432,0.0368 0.753288,0.16411 1.046349,0.28292 0.780104,0.31625 2.94958,0.74037 3.150852,0.61598 0.0952,-0.0588 0.312382,-0.0188 0.482621,0.089 0.241832,0.15314 5.629191,0.14403 7.236415,-0.0122 z m 31.492069,-74.862469 -0.0519,-16.251549 -0.056,16.144981 -0.056,16.144981 H 85.680204 50.1958 L 50.14001,35.540273 50.08422,18.116481 50.0322,35.64684 49.98018,53.1772 h 35.700124 35.700126 z m -2.71883,-1.438662 V 20.141264 H 85.467162 52.324659 v 15.345725 15.345725 h 33.142503 33.142508 z"
   id="path7" /><path
   style="fill:#939598;fill-opacity:1;stroke-width:0.213135"
   d="m 19.928129,132.4358 c -0.996407,-1.42148 -1.907559,-2.6965 -2.024783,-2.83338 -0.117225,-0.13689 -0.393273,-0.58019 -0.613441,-0.98513 -0.220167,-0.40494 -1.112218,-1.99721 -1.982333,-3.53837 -2.191837,-3.88223 -4.270974,-8.63094 -5.9184351,-13.5176 -0.7678873,-2.27768 -1.4042443,-4.14125 -1.4141267,-4.14125 -0.00988,0 -0.041937,-0.19182 -0.071232,-0.42627 -0.04656,-0.37261 -0.9599795,-4.37487 -1.3376807,-5.86121 -0.074471,-0.29306 -0.1215254,-0.5992 -0.1045652,-0.68031 0.01696,-0.0811 -0.063804,-0.608624 -0.1794753,-1.172245 C 6.166385,98.716412 6.0261304,97.871623 5.9703798,97.402726 4.8154482,87.689036 4.8981805,82.580548 6.3828625,71.933086 6.4400726,71.5228 6.6729975,70.371871 6.9004733,69.375465 8.6619758,61.659604 10.52872,56.385302 13.915957,49.553903 c 1.133413,-2.285873 2.137925,-4.252044 2.232248,-4.369269 0.447931,-0.556685 4.632464,-7.018576 4.632464,-7.153601 0,-0.08467 0.143866,-0.209158 0.319703,-0.276634 0.175836,-0.06748 0.319702,-0.261564 0.319702,-0.431311 0,-0.169747 0.08155,-0.340601 0.181223,-0.379677 0.09967,-0.03907 1.23553,-1.317884 2.52413,-2.8418 C 34.01099,22.410804 46.71728,13.817967 60.956629,9.1939066 64.484631,8.0482298 69.973882,6.6422853 71.933086,6.3825413 c 0.410285,-0.054394 1.753035,-0.2407964 2.98389,-0.4142276 5.265338,-0.7419016 12.24639,-0.9712809 17.050806,-0.5602452 1.230855,0.1053042 2.381784,0.1924765 2.557621,0.1937161 0.175836,0.00124 1.27881,0.1507145 2.451053,0.3321664 1.172243,0.181452 2.514994,0.3796869 2.983891,0.440522 3.842353,0.4985106 12.285203,2.9960154 17.370513,5.138423 18.91018,7.966747 34.86074,23.716762 42.73442,42.197141 0.54938,1.289467 1.16594,2.728129 1.37013,3.197026 0.20419,0.468897 0.68913,1.859604 1.07764,3.090459 0.38852,1.230855 0.80244,2.477695 0.91983,2.770756 0.11739,0.29306 0.24903,0.719684 0.29254,0.948052 0.13248,0.69547 0.71836,2.97459 0.85208,3.314649 0.0691,0.175836 0.15669,0.511524 0.19456,0.745973 0.0379,0.234448 0.26687,1.385378 0.50888,2.55762 0.24201,1.172243 0.48874,2.56295 0.54829,3.090459 0.0596,0.527509 0.21241,1.582528 0.33969,2.344486 0.12728,0.761958 0.23144,1.529244 0.23148,1.70508 4e-5,0.175837 0.0864,1.326766 0.19184,2.557621 0.30266,3.531906 0.24972,9.100642 -0.13069,13.747212 -0.19607,2.395022 -1.15653,7.95526 -1.92112,11.12165 -0.41946,1.73712 -0.78569,3.30227 -0.81384,3.4781 -0.0281,0.17584 -0.10698,0.41562 -0.17517,0.53284 -0.0682,0.11722 -0.48713,1.36406 -0.93099,2.77076 -0.44386,1.40669 -1.02125,3.03717 -1.28308,3.62329 -0.40096,0.89759 -0.73534,1.77515 -0.85272,2.23792 -0.1446,0.57012 -3.15766,6.472 -4.4369,8.69085 -0.89725,1.5563 -1.63137,2.91503 -1.63137,3.01941 0,0.10438 -0.0775,0.22175 -0.17226,0.26083 -0.24905,0.10271 -1.53282,2.02406 -1.53282,2.29408 0,0.12541 -0.0719,0.23085 -0.15985,0.23431 -0.0879,0.003 -0.63941,0.67201 -1.22553,1.48565 l -1.06568,1.47935 -22.96477,0.006 -22.96477,0.006 -2.82457,-4.257 -2.824573,-4.257 H 84.72119 70.760843 l -2.824571,4.257 -2.82457,4.257 -21.685963,-3.9e-4 -21.685962,-3.8e-4 z m 69.908302,-20.67301 c 0.650452,-0.048 3.252443,-0.62202 3.487109,-0.76935 0.133515,-0.0838 0.480735,-0.18507 0.771601,-0.22498 0.290863,-0.0399 0.578595,-0.13826 0.639405,-0.21854 0.06081,-0.0803 0.302381,-0.17846 0.536829,-0.21819 0.652567,-0.11059 3.942999,-1.75866 3.942999,-1.97492 0,-0.10492 0.128825,-0.19076 0.286277,-0.19076 0.538899,0 3.229549,-2.07292 4.988819,-3.84347 0.9671,-0.9733 1.75836,-1.8393 1.75836,-1.92444 0,-0.0851 0.26497,-0.43844 0.58882,-0.78512 0.32385,-0.34669 0.77942,-1.00161 1.01239,-1.45539 0.23297,-0.453778 0.58472,-1.006406 0.78166,-1.228058 0.36816,-0.414332 1.81673,-3.62785 1.95203,-4.330403 0.0417,-0.216407 0.19225,-0.678965 0.33459,-1.027908 0.67057,-1.643828 0.92027,-3.684502 0.92645,-7.571261 0.006,-3.913652 -0.23903,-5.925796 -0.92219,-7.566295 -0.14645,-0.351673 -0.24669,-0.759294 -0.22275,-0.905824 0.0239,-0.14653 -0.0362,-0.266419 -0.1336,-0.266419 -0.0974,0 -0.19097,-0.183918 -0.20791,-0.408705 -0.0397,-0.526802 -1.38186,-3.435363 -1.77996,-3.857249 -0.16761,-0.177624 -0.49535,-0.69538 -0.72832,-1.150573 -0.23297,-0.45519 -0.68854,-1.111267 -1.01239,-1.45795 -0.32385,-0.346682 -0.58882,-0.697001 -0.58882,-0.778485 0,-0.360369 -3.94267,-4.022978 -5.43361,-5.047635 -1.667661,-1.146117 -4.763026,-2.78085 -5.542845,-2.927304 -0.234448,-0.04403 -0.586624,-0.149806 -0.782612,-0.235058 -0.195989,-0.08525 -0.483721,-0.174291 -0.639406,-0.197864 C 93.693673,61.177064 93.457055,61.089464 93.32354,61.005966 92.589109,60.546677 89.106431,60.130217 86,60.130217 c -3.289179,0 -6.761303,0.441783 -7.356877,0.936066 -0.136752,0.113493 -0.303532,0.151456 -0.370625,0.08436 -0.06709,-0.06709 -0.346001,9.85e-4 -0.619794,0.151279 -0.273796,0.150297 -0.6842,0.304163 -0.912012,0.341924 -1.195856,0.198225 -6.725822,3.397305 -6.725822,3.890881 0,0.11959 -0.136905,0.217439 -0.304233,0.217439 -0.167328,0 -0.492841,0.239776 -0.723364,0.532837 -0.230522,0.293061 -0.496671,0.532838 -0.591443,0.532838 -0.235048,0 -1.577986,1.317008 -1.577986,1.547516 0,0.101795 -0.28799,0.427413 -0.639977,0.723589 -0.351988,0.296179 -0.586104,0.625673 -0.52026,0.732213 0.06585,0.10654 0.02172,0.193708 -0.09805,0.193708 -0.522729,0 -3.836258,5.767642 -3.91514,6.814823 -0.01789,0.237473 -0.118285,0.431769 -0.223105,0.431769 -0.10482,0 -0.135377,0.143866 -0.0679,0.319703 0.06747,0.175836 0.01952,0.319702 -0.106567,0.319702 -0.126089,0 -0.175223,0.140795 -0.109187,0.312876 0.06603,0.172083 0.03479,0.365578 -0.06943,0.429988 -0.196069,0.121177 -0.636939,1.999213 -0.776234,3.306624 -0.103163,0.9683 -0.103163,7.13099 0,8.09929 0.139295,1.307411 0.580165,3.185447 0.776234,3.306624 0.104219,0.06441 0.13546,0.257905 0.06943,0.429988 -0.06604,0.172081 -0.0169,0.312876 0.109187,0.312876 0.126086,0 0.174041,0.143866 0.106567,0.319702 -0.06748,0.175837 -0.03692,0.319703 0.0679,0.319703 0.10482,0 0.203371,0.169785 0.219002,0.3773 0.03817,0.506697 1.406873,3.489718 1.785631,3.891687 0.165794,0.175955 0.492052,0.692347 0.725017,1.147548 0.232968,0.45519 0.688544,1.11126 1.012392,1.45795 0.32385,0.34668 0.588818,0.69522 0.588818,0.77454 0,0.25019 3.754303,3.86027 4.014482,3.86027 0.136521,0 0.248219,0.0979 0.248219,0.21744 0,0.49289 5.557661,3.69524 6.762253,3.89644 0.207775,0.0347 0.601785,0.18607 0.875581,0.33636 0.273793,0.1503 0.552701,0.21838 0.619794,0.15128 0.06709,-0.0671 0.226723,-0.0363 0.354732,0.0685 0.338961,0.27736 1.765794,0.62713 3.092598,0.75812 0.635123,0.0627 1.205967,0.16519 1.268542,0.22776 0.08838,0.0884 5.15069,-0.0158 6.848061,-0.1409 z m 31.492489,-70.894141 -0.0515,-12.30855 -0.0568,12.201983 -0.0568,12.201982 H 85.679971 50.19615 L 50.14,37.778191 50.08385,22.592317 50.03201,37.884758 49.98017,53.1772 h 35.700124 35.700126 z m -2.71925,-5.38166 V 20.141264 H 85.467162 52.324659 v 15.345725 15.345725 h 33.142503 33.142508 z"
   id="path8" /><path
   style="fill:#939598;fill-opacity:1;stroke-width:0.213135"
   d="m 19.821561,132.34174 c -1.055018,-1.47296 -2.09506,-2.98328 -2.311202,-3.35627 -3.427907,-5.91538 -4.893819,-8.84241 -6.637396,-13.25313 -1.0042443,-2.54043 -2.8037712,-7.82488 -3.0120447,-8.8451 -0.059826,-0.29306 -0.3947677,-1.77968 -0.7443134,-3.3036 C 6.7670591,102.05973 6.4342346,100.42924 6.376995,99.960347 6.3197554,99.49145 6.2240864,98.969239 6.1643972,98.79988 6.104708,98.630521 6.0100682,98.055056 5.9540866,97.521069 5.8981049,96.987083 5.7559109,95.686989 5.6381,94.63197 4.953242,88.498943 5.0743151,81.304366 5.9698714,74.916976 6.1424458,73.686121 6.3293716,72.343371 6.385262,71.933086 6.5083159,71.029762 7.1153463,68.351014 7.8825157,65.325898 9.1943331,60.153119 11.633454,53.880984 14.471828,48.38166 c 1.421774,-2.754674 5.818087,-9.786241 6.607421,-10.568065 0.187454,-0.185671 0.340825,-0.403936 0.340825,-0.485034 0,-0.30097 5.215987,-6.161871 7.627885,-8.571011 8.765244,-8.755218 19.609907,-15.472511 31.267812,-19.3675939 3.531597,-1.17996 9.399493,-2.6986367 11.617315,-3.0066902 0.410285,-0.056988 1.70508,-0.240383 2.877323,-0.4075439 4.836587,-0.6896937 12.170479,-0.9886037 16.052468,-0.654256 0.783533,0.067484 2.000072,0.1630125 2.703418,0.2122851 0.703346,0.049273 2.381784,0.2463595 3.729864,0.4379708 1.348079,0.1916113 2.69083,0.3818468 2.983891,0.4227456 0.70396,0.098242 2.92904,0.6146953 6.07435,1.4098867 6.49906,1.6430823 13.68344,4.5637548 19.63521,7.9823268 15.1684,8.712412 27.22152,22.124903 34.07978,37.923356 0.66155,1.523916 1.32818,3.058488 1.48141,3.410161 0.15324,0.351673 0.62991,1.742379 1.05929,3.090459 0.42937,1.348079 0.8209,2.571948 0.87005,2.71971 0.0491,0.14776 0.0979,0.313965 0.10844,0.369342 0.0105,0.05538 0.25791,0.941545 0.54981,1.969261 0.2919,1.027718 0.58201,2.156309 0.64467,2.507982 0.0627,0.351673 0.30397,1.550557 0.53622,2.664188 0.23225,1.113631 0.46476,2.360471 0.51668,2.770756 0.0519,0.410285 0.19458,1.465304 0.31699,2.344486 0.12242,0.879182 0.26315,2.173977 0.31273,2.877323 0.0496,0.703346 0.14562,1.922376 0.2134,2.708957 0.22945,2.662539 0.12648,8.940228 -0.20728,12.636768 -0.27085,2.999865 -1.19812,8.28284 -2.05721,11.72067 -0.35128,1.40573 -0.6613,2.70052 -0.68894,2.87733 -0.0276,0.1768 -0.10619,0.41737 -0.17456,0.53459 -0.0684,0.11722 -0.47873,1.36406 -0.9119,2.77076 -0.43318,1.40669 -1.00849,3.03717 -1.27847,3.62329 -0.26998,0.58612 -0.5626,1.30545 -0.65027,1.59851 -0.30402,1.01634 -3.04748,6.5151 -4.66666,9.35345 -0.89509,1.56906 -1.62743,2.89346 -1.62743,2.94311 0,0.0496 -0.27994,0.44432 -0.62208,0.87703 -0.34215,0.43272 -0.79772,1.08472 -1.01239,1.4489 -0.21468,0.36417 -0.86987,1.29536 -1.45599,2.06931 l -1.06568,1.40717 -22.96477,0.009 -22.96477,0.009 -2.82457,-4.25816 -2.824573,-4.25816 -13.96016,0.0487 -13.960159,0.0487 -2.833755,4.20942 -2.833752,4.20942 -21.676968,-6.1e-4 -21.676966,-6e-4 z m 70.01487,-20.59221 c 0.468362,-0.009 3.267506,-0.62859 3.516729,-0.77883 0.117224,-0.0707 0.340513,-0.14776 0.496197,-0.17134 0.155685,-0.0236 0.443417,-0.11261 0.639406,-0.19786 0.195988,-0.0853 0.53363,-0.18939 0.750314,-0.23142 0.531589,-0.10311 3.358529,-1.5266 3.778944,-1.90288 0.185068,-0.16563 0.43827,-0.30115 0.562675,-0.30115 0.650714,0 6.667134,-5.2252 6.667134,-5.79033 0,-0.0831 0.27898,-0.45659 0.61996,-0.82991 0.34097,-0.37332 0.79655,-1.02664 1.01239,-1.45181 0.21584,-0.425183 0.45504,-0.821014 0.53156,-0.879626 0.34171,-0.261745 2.13239,-4.15588 2.32905,-5.064924 0.0187,-0.08629 0.12426,-0.394426 0.23464,-0.684757 0.2272,-0.597579 0.75764,-3.11522 0.77566,-3.681546 0.0142,-0.445275 0.0161,-7.031234 0.002,-7.566294 -0.0183,-0.70458 -0.65336,-3.357021 -0.86753,-3.623297 -0.11785,-0.14653 -0.1354,-0.266418 -0.039,-0.266418 0.0964,0 0.0677,-0.107597 -0.0638,-0.239108 -0.13151,-0.131509 -0.18838,-0.371286 -0.12639,-0.532838 0.062,-0.16155 0.007,-0.29373 -0.12322,-0.29373 -0.12977,0 -0.23594,-0.200767 -0.23594,-0.446149 0,-0.414309 -1.58228,-3.791389 -1.88804,-4.029687 -0.0752,-0.05861 -0.31334,-0.454443 -0.52918,-0.879621 -0.21584,-0.425179 -0.67142,-1.078496 -1.01239,-1.451817 -0.34098,-0.373319 -0.61996,-0.756915 -0.61996,-0.852436 0,-0.34868 -4.29601,-4.265188 -5.6979,-5.19456 -1.544066,-1.023619 -4.652581,-2.650004 -5.307136,-2.776704 -0.218728,-0.04234 -0.558043,-0.146733 -0.754031,-0.231985 -0.195989,-0.08525 -0.483721,-0.174291 -0.639406,-0.197864 -0.155684,-0.02358 -0.400934,-0.116512 -0.545003,-0.20653 -1.63796,-1.023449 -12.215685,-1.028104 -14.550946,-0.0064 -0.175837,0.07693 -0.447081,0.165953 -0.602765,0.197832 -0.155685,0.03188 -0.443417,0.12771 -0.639406,0.212962 -0.195988,0.08525 -0.531552,0.189072 -0.745697,0.230713 -1.229293,0.239031 -6.75067,3.462132 -6.75067,3.940699 0,0.100239 -0.118853,0.182254 -0.264119,0.182254 -0.263399,0 -0.601531,0.289124 -2.155495,1.843087 -1.553963,1.553964 -1.843087,1.892096 -1.843087,2.155495 0,0.145266 -0.08854,0.264119 -0.196767,0.264119 -0.530231,0 -4.220624,6.610734 -3.942035,7.061504 0.06292,0.101797 0.0026,0.185088 -0.134124,0.185088 -0.136683,0 -0.193311,0.143866 -0.125835,0.319703 0.06747,0.175836 0.01952,0.319702 -0.106567,0.319702 -0.126089,0 -0.178529,0.13218 -0.116534,0.29373 0.06199,0.161552 0.03456,0.377352 -0.06095,0.479554 -1.132101,1.211334 -1.132101,13.440364 0,14.651698 0.09552,0.102202 0.122947,0.318002 0.06095,0.479554 -0.062,0.16155 -0.0096,0.29373 0.116534,0.29373 0.126086,0 0.174041,0.143866 0.106567,0.319702 -0.06748,0.175837 -0.0285,0.319703 0.08661,0.319703 0.115114,0 0.268648,0.296754 0.341187,0.659455 0.150394,0.751972 1.296826,3.23387 1.686687,3.651485 0.142719,0.152882 0.436087,0.624377 0.651926,1.047772 0.215842,0.42339 0.671419,1.07524 1.012392,1.44856 0.340976,0.37332 0.619955,0.74569 0.619955,0.8275 0,0.12659 3.300049,3.36448 4.262701,4.18241 0.841127,0.71467 2.557985,1.84338 2.560884,1.68361 0.0018,-0.0989 0.07373,-0.0721 0.159851,0.0597 0.178228,0.27261 3.471649,1.96182 4.04333,2.07383 0.206777,0.0405 0.536314,0.14341 0.732302,0.22867 0.195989,0.0853 0.483721,0.18108 0.639406,0.21296 0.155684,0.0319 0.426928,0.11567 0.602765,0.1862 0.748381,0.30018 2.272768,0.61339 3.488908,0.71684 0.718646,0.0611 1.341442,0.14512 1.38399,0.18662 0.04255,0.0415 1.385299,0.025 2.983891,-0.0366 1.598592,-0.0616 3.050398,-0.11474 3.226234,-0.11799 z m 31.493219,-67.151017 -0.0508,-8.578686 -0.0583,8.472118 -0.0583,8.472119 H 85.679626 50.196857 L 50.139989,40.975217 50.08312,28.986369 50.031648,41.081784 49.980173,53.1772 h 35.700124 35.700123 z m -2.71998,-9.111524 V 20.141264 H 85.467162 52.324659 v 15.345725 15.345725 h 33.142503 33.142508 z"
   id="path9" /><path
   style="fill:#939598;fill-opacity:1;stroke-width:0.213135"
   d="m 19.807856,132.34125 c -2.177446,-3.06385 -1.875836,-2.58921 -3.849982,-6.05872 -2.011217,-3.53466 -2.995059,-5.51821 -4.443715,-8.95905 -1.089157,-2.58696 -3.4227766,-9.21883 -3.6457046,-10.36066 -0.0491,-0.25149 -0.3840707,-1.73811 -0.7443787,-3.30359 C 6.7637674,102.09374 6.4248594,100.42924 6.3709464,99.960347 6.3170335,99.49145 6.2240864,98.969239 6.1643972,98.79988 6.104708,98.630521 6.0100682,98.055056 5.9540866,97.521069 5.8981049,96.987083 5.7553746,95.686989 5.6369082,94.63197 4.9456218,88.475626 5.0683464,81.504898 5.987757,74.703841 6.169999,73.355762 6.3507359,72.013011 6.3893945,71.71995 6.5219999,70.714703 7.7953328,65.523223 8.5258488,63.009457 9.9388246,58.14729 12.247914,52.541038 14.874813,47.594772 16.27411,44.959992 20.67895,38.056307 21.14496,37.7676 c 0.151313,-0.09374 0.275114,-0.262968 0.275114,-0.376055 0,-0.305344 4.749161,-5.75642 7.053543,-8.096042 C 37.351946,20.28141 48.315326,13.415766 60.210657,9.4206862 63.62348,8.2744797 69.566574,6.7034951 71.71995,6.378344 78.519758,5.3516008 86.359203,4.9230456 91.087845,5.3195686 c 0.777027,0.065158 1.988239,0.1611873 2.691585,0.2133989 0.703346,0.052212 2.237918,0.2396399 3.410161,0.4165075 1.172243,0.1768677 2.467038,0.3645402 2.877319,0.41705 1.28194,0.164067 5.52029,1.1847974 8.63197,2.0788557 22.78489,6.5466133 42.22682,23.7746313 51.57796,45.7046053 0.54663,1.281944 1.12151,2.618539 1.27751,2.970212 0.27284,0.615046 2.0068,5.805194 2.04545,6.122478 0.0104,0.08508 0.25649,0.996236 0.54696,2.024783 0.29047,1.028549 0.5781,2.15782 0.63919,2.509493 0.0611,0.351673 0.30108,1.550557 0.53333,2.664188 0.23225,1.113631 0.46382,2.360471 0.5146,2.770756 0.0508,0.410285 0.1931,1.417348 0.31626,2.237918 0.12317,0.82057 0.26621,2.06741 0.31788,2.770756 0.0517,0.703346 0.14751,1.917186 0.21299,2.697423 0.23354,2.783085 0.11032,10.09222 -0.22222,13.18114 -0.69839,6.487327 -3.13448,16.814097 -4.90217,20.780667 -0.15672,0.35167 -0.4488,1.07101 -0.64907,1.59851 -1.06,2.79208 -5.95746,12.2033 -6.93202,13.32095 -0.20444,0.23445 -0.64446,0.8678 -0.97783,1.40745 -0.33337,0.53965 -1.0791,1.61864 -1.65719,2.39777 l -1.05106,1.41659 h -22.97939 -22.97938 l -2.82457,-4.25816 -2.824573,-4.25816 -13.945157,0.0487 -13.945159,0.0487 -2.853107,4.20942 -2.853109,4.20942 H 43.398686 21.712366 Z M 89.802647,111.6725 c 1.507814,-0.11153 3.231004,-0.48377 3.539856,-0.76467 0.111363,-0.10129 0.417412,-0.18416 0.68011,-0.18416 0.262697,0 0.536908,-0.0959 0.609357,-0.21314 0.07245,-0.11722 0.320016,-0.21313 0.550147,-0.21313 0.747008,0 5.166623,-2.41662 6.626433,-3.6233 1.33482,-1.10336 4.43928,-4.09256 4.43928,-4.27446 0,-0.0867 0.26376,-0.45486 0.58612,-0.81825 0.94001,-1.05962 3.54253,-5.89815 3.7461,-6.96464 0.0431,-0.226078 0.18314,-0.665554 0.31108,-0.976617 1.14585,-2.785854 1.22245,-12.410927 0.11848,-14.886725 -0.0784,-0.175837 -0.15084,-0.383643 -0.16097,-0.461794 -0.0101,-0.07815 -0.0837,-0.207414 -0.16357,-0.287255 -0.0798,-0.07984 -0.0936,-0.279656 -0.0305,-0.444032 0.0631,-0.164374 0.009,-0.298865 -0.12125,-0.298865 -0.12977,0 -0.23594,-0.172916 -0.23594,-0.384261 0,-0.738157 -2.46261,-5.330406 -3.46345,-6.458594 -0.32236,-0.363389 -0.58612,-0.739734 -0.58612,-0.836325 0,-0.09659 -1.01288,-1.117514 -2.25086,-2.268716 -2.23551,-2.078819 -4.021902,-3.457639 -4.498416,-3.472079 -0.136761,-0.0041 -0.280627,-0.09178 -0.319703,-0.194748 -0.09138,-0.240802 -3.44756,-1.925413 -4.005577,-2.010573 -0.233064,-0.03557 -0.490164,-0.13108 -0.571334,-0.212251 -0.08117,-0.08117 -0.365715,-0.147583 -0.632319,-0.147583 -0.266604,0 -0.536356,-0.08352 -0.599447,-0.185606 C 93.068942,60.603324 90.342885,60.317224 86,60.317224 c -4.224578,0 -7.07715,0.299378 -7.370174,0.773502 -0.06309,0.102083 -0.343167,0.185606 -0.622391,0.185606 -0.279224,0 -0.566956,0.09591 -0.639405,0.213135 -0.07245,0.117224 -0.320016,0.213135 -0.550147,0.213135 -0.888918,0 -6.803013,3.351886 -6.803013,3.855692 0,0.106632 -0.113075,0.193875 -0.251276,0.193875 -0.336397,0 -4.005087,3.657385 -4.008636,3.996282 -0.0015,0.14653 -0.0887,0.266419 -0.193705,0.266419 -0.164455,0 -0.990535,1.166535 -1.880612,2.655669 -0.740236,1.238445 -1.978039,3.870859 -1.978039,4.206662 0,0.211345 -0.106171,0.384261 -0.235938,0.384261 -0.129765,0 -0.180732,0.143866 -0.113256,0.319703 0.06747,0.175836 0.01952,0.319702 -0.106567,0.319702 -0.126089,0 -0.175223,0.140795 -0.109187,0.312876 0.06603,0.172083 0.04073,0.36191 -0.05624,0.421837 -0.504589,0.311853 -0.765622,3.087159 -0.7528,8.003825 0.0095,3.653084 0.07689,4.578883 0.410995,5.64808 0.219781,0.703345 0.406477,1.34275 0.414876,1.420901 0.0084,0.07815 0.0806,0.207414 0.160442,0.287255 0.07984,0.07984 0.09356,0.279656 0.03048,0.444032 -0.06308,0.164374 -0.0085,0.298865 0.121253,0.298865 0.129767,0 0.235938,0.172916 0.235938,0.384261 0,0.383008 1.610873,3.883302 1.882072,4.089589 0.07849,0.0597 0.319309,0.456429 0.535148,0.881612 0.215842,0.42517 0.671419,1.07849 1.012392,1.45181 0.340976,0.37332 0.619955,0.74106 0.619955,0.8172 0,0.1664 2.93053,3.00888 4.33477,4.20452 0.550703,0.4689 1.455129,1.11468 2.009834,1.43507 2.077415,1.19989 4.315642,2.2948 4.69106,2.2948 0.213607,0 0.481541,0.0932 0.595412,0.20704 0.11387,0.11386 0.396807,0.24332 0.628749,0.28768 0.23194,0.0444 0.565577,0.14351 0.741414,0.22034 0.670211,0.29287 3.147129,0.71188 4.470996,0.75635 0.759293,0.0255 1.426106,0.0919 1.481802,0.14764 0.0924,0.0924 1.38644,0.0305 5.096441,-0.24395 z m 31.528123,-64.303231 -0.0496,-5.807931 -0.0604,5.701363 -0.0604,5.701363 H 85.67908 50.197838 l -0.05787,-9.218091 -0.05787,-9.218092 -0.05096,9.324659 -0.05096,9.32466 h 35.700124 35.700118 z m -2.7211,-11.88228 V 20.141264 H 85.467162 52.324659 v 15.345725 15.345725 h 33.142503 33.142508 z"
   id="path10" /><path
   style="fill:#939598;fill-opacity:1;stroke-width:0.213135"
   d="m 19.694291,132.19703 c -2.887848,-4.0694 -5.88574,-9.46073 -7.956332,-14.30846 -0.945026,-2.21253 -3.2813695,-8.57636 -3.435863,-9.35875 C 8.2605869,108.3196 8.1267997,107.84005 8.0047909,107.46414 7.6900597,106.49445 6.4780444,100.9777 6.3582215,99.969412 6.3030909,99.5055 6.2103437,99.048854 6.1521166,98.954639 6.0561775,98.799407 5.5763587,94.471503 5.3302502,91.541512 5.1460873,89.349 5.2038596,82.279359 5.4269155,79.712515 5.6120816,77.581696 6.0229006,74.122912 6.3762372,71.71995 6.4193295,71.42689 6.793371,69.748451 7.2074407,67.990087 9.8036021,56.965377 13.506806,48.86828 21.039371,37.746415 21.792179,36.634892 26.907691,30.848507 28.87799,28.879802 37.950447,19.814685 48.677963,13.223512 60.955717,9.170686 63.623034,8.2902176 69.962349,6.6293342 71.506815,6.4063265 81.840207,4.9142736 89.051964,4.79032 97.402726,5.9612351 c 3.781644,0.5302488 3.357864,0.4510601 6.820324,1.2744873 17.98272,4.2765826 33.65068,14.2113916 45.12569,28.6134936 7.25379,9.10412 12.49105,19.85915 15.39183,31.608033 0.15915,0.644599 1.00517,5.02782 1.09016,5.648079 0.0482,0.351673 0.18904,1.358736 0.31302,2.237919 0.12398,0.879182 0.26899,2.173977 0.32224,2.877323 0.0532,0.703346 0.14974,1.827631 0.21443,2.498412 0.14963,1.551807 0.14393,8.689826 -0.009,10.929097 -0.42059,6.169144 -1.98229,14.017861 -3.944,19.821561 -0.55473,1.64114 -1.10697,3.22367 -1.22722,3.51673 -0.12024,0.29306 -0.38508,0.96444 -0.58854,1.49194 -0.75118,1.94766 -2.9546,6.38346 -4.81717,9.69765 -1.99321,3.54664 -2.56239,4.43563 -4.60553,7.19331 l -1.22381,1.6518 -23.02118,-0.0119 -23.02119,-0.0119 -2.77076,-4.24844 -2.770753,-4.24844 -13.895846,-0.002 -13.895846,-0.002 -2.899758,4.2627 -2.899758,4.26271 H 43.394351 21.698371 Z m 68.506011,-20.42141 c 2.414452,-0.0726 5.005874,-0.59731 6.375492,-1.29082 0.203553,-0.10307 0.496358,-0.1874 0.65068,-0.1874 0.27273,0 3.237754,-1.42501 4.094468,-1.96783 1.266518,-0.80248 2.629038,-1.80009 3.391208,-2.48298 1.97814,-1.7724 3.53568,-3.30136 3.53568,-3.47082 0,-0.0997 0.26376,-0.47627 0.58612,-0.83692 1.08882,-1.21812 3.67658,-6.125537 3.67658,-6.972244 0,-0.243275 0.0841,-0.494301 0.18692,-0.557838 0.22453,-0.138768 0.59366,-1.545991 0.82023,-3.126945 0.0908,-0.633579 0.15997,-3.11813 0.1537,-5.521228 -0.01,-3.653084 -0.0769,-4.578883 -0.41099,-5.64808 -0.21978,-0.703345 -0.41847,-1.350743 -0.44152,-1.438661 -0.0231,-0.08792 -0.0659,-0.207807 -0.0952,-0.266419 -0.0293,-0.05861 -0.0653,-0.194486 -0.0799,-0.301942 -0.0146,-0.107454 -0.0986,-0.267306 -0.18649,-0.355224 -0.0879,-0.08792 -0.15985,-0.297577 -0.15985,-0.465909 0,-0.283273 -1.34741,-3.159917 -1.99401,-4.257102 -0.64188,-1.089174 -1.74681,-2.611593 -1.89571,-2.611977 -0.0879,-2.26e-4 -0.15985,-0.129074 -0.15985,-0.28633 0,-0.260389 -1.277,-1.551787 -3.53568,-3.575539 -0.76217,-0.682895 -2.12469,-1.680506 -3.391208,-2.482978 -0.986445,-0.625017 -3.842602,-1.967832 -4.185566,-1.967832 -0.204424,0 -0.430957,-0.09591 -0.503406,-0.213135 -0.07245,-0.117224 -0.360181,-0.213135 -0.639405,-0.213135 -0.279224,0 -0.5593,-0.08352 -0.622391,-0.185606 -0.285933,-0.462651 -3.204997,-0.773502 -7.263606,-0.773502 -4.690918,0 -6.925332,0.308302 -8.682362,1.197979 -0.203553,0.10307 -0.49399,0.187399 -0.645418,0.187399 -0.730448,0 -5.377696,2.59005 -6.766143,3.770971 -0.588048,0.500158 -4.0576,3.969707 -4.476491,4.476491 -1.275366,1.542966 -3.833552,6.116721 -3.833552,6.85397 0,0.204697 -0.115093,0.487267 -0.255762,0.627936 -0.140669,0.140669 -0.176881,0.255762 -0.08047,0.255762 0.09641,0 0.05589,0.143867 -0.09004,0.319703 -0.145931,0.175836 -0.210524,0.319703 -0.14354,0.319703 0.06698,0 -0.0157,0.329063 -0.183748,0.731253 -0.442424,1.05887 -0.63182,3.171646 -0.63182,7.048177 0,3.996031 0.178887,5.701316 0.750095,7.150483 0.22876,0.580369 0.35019,1.055217 0.269844,1.055217 -0.08035,0 -0.03099,0.115093 0.109677,0.255762 0.140669,0.140669 0.255762,0.390291 0.255762,0.554716 0,0.33479 1.434727,3.338533 2.185547,4.57566 1.810043,2.982404 5.688044,6.804924 8.684342,8.560094 1.47408,0.86348 3.89899,2.0389 4.206297,2.0389 0.151428,0 0.441865,0.0843 0.645418,0.1874 1.549085,0.78438 5.784417,1.49219 8.256091,1.37977 0.468898,-0.0213 1.6029,-0.0614 2.520005,-0.0889 z m 33.131948,-62.594703 -0.0482,-3.996283 -0.0632,3.889715 -0.0632,3.889715 H 85.678362 50.199055 l -0.05913,-7.086741 -0.05913,-7.086741 -0.05031,7.193309 -0.05031,7.193309 H 85.680297 121.38042 Z M 118.60967,35.486989 V 20.141264 H 85.467162 52.324659 v 15.345725 15.345725 h 33.142503 33.142508 z"
   id="path11" /><path
   style="fill:#939598;fill-opacity:1;stroke-width:0.213135"
   d="M 19.695287,132.19803 C 14.905495,125.44753 10.54076,116.26218 8.0224722,107.63321 7.7215783,106.60219 6.492079,101.06845 6.3650526,100.17348 6.3151382,99.821809 6.1863483,99.102478 6.0788528,98.574969 5.9122655,97.757481 5.658423,95.448704 5.3207923,91.680173 5.1488269,89.760749 5.2163101,82.129531 5.4266229,79.712515 5.617937,77.51384 6.06269,73.794315 6.3950566,71.613383 6.6019809,70.25558 7.993032,64.67418 8.7323187,62.23544 9.1587472,60.828748 10.178047,57.99938 10.997429,55.947955 17.072084,40.739304 27.525388,27.891682 41.241636,18.776351 c 5.518896,-3.667662 10.045895,-6.014926 16.017435,-8.30509 9.388951,-3.6007873 18.651618,-5.2696158 29.223518,-5.2651198 2.316851,9.853e-4 4.666665,0.051848 5.221809,0.1130277 0.555147,0.06118 1.584821,0.1587644 2.288167,0.2168542 1.528144,0.1262107 7.310305,0.9293525 7.815685,1.0855991 0.19578,0.060528 0.54918,0.1472608 0.78534,0.1927407 1.55007,0.2985153 6.81005,1.7871252 9.40889,2.6627755 25.25359,8.5089336 45.04577,29.5932816 52.12592,55.5290576 0.36398,1.333298 1.52757,6.775873 1.68599,7.885997 0.0502,0.351673 0.19059,1.322271 0.31201,2.156882 0.12143,0.834612 0.27082,2.129407 0.33198,2.877324 0.0612,0.747916 0.16189,1.818756 0.22384,2.379647 0.14601,1.322166 0.13711,9.622798 -0.0124,11.555168 -0.60882,7.869194 -2.73975,17.191916 -5.48066,23.977696 -0.9533,2.36013 -3.99696,8.50451 -5.54283,11.18959 -1.50515,2.61435 -3.71871,5.99034 -4.38674,6.69038 -0.15552,0.16297 -0.43106,0.52264 -0.6123,0.79925 l -0.32953,0.50294 -23.04736,-0.003 -23.04736,-0.003 -2.77076,-4.25878 -2.770753,-4.25877 -13.892775,-10e-4 -13.892773,-0.001 -2.859285,4.20942 -2.859286,4.20942 -21.738816,0.0543 -21.738816,0.0543 z m 71.151445,-20.71835 c 4.309035,-0.75834 8.536744,-2.82253 12.133348,-5.92413 1.19196,-1.02791 2.39085,-2.14834 2.66419,-2.48984 0.27335,-0.3415 0.7167,-0.89218 0.98523,-1.22373 0.48213,-0.59529 1.62979,-2.467094 2.6565,-4.332686 0.8515,-1.547225 2.03074,-5.291556 2.27613,-7.227197 0.28754,-2.268081 0.29221,-6.439088 0.01,-8.691815 -0.19023,-1.517046 -1.33665,-5.150803 -2.17262,-6.886441 -0.51493,-1.069106 -2.16187,-3.749133 -2.75051,-4.475836 -0.33233,-0.410285 -0.82225,-1.013314 -1.0887,-1.340063 -1.78393,-2.187629 -6.943051,-5.895046 -9.568915,-6.876354 -0.513091,-0.191749 -1.124716,-0.421508 -1.359165,-0.510582 -2.8863,-1.096567 -7.002073,-1.497207 -11.566096,-1.125871 -2.454252,0.19968 -3.427327,0.38488 -5.310456,1.010704 -4.284371,1.423834 -8.068554,4.00481 -11.483835,7.832468 -3.101183,3.475641 -5.392763,8.546141 -5.836646,12.91456 -0.731761,7.201514 0.372577,12.558137 3.697337,17.934043 1.426472,2.30651 6.181456,6.95576 8.251882,8.06839 3.625698,1.94842 5.901853,2.82934 8.60717,3.33117 2.086805,0.3871 7.688232,0.3946 9.855406,0.0132 z m 30.487368,-61.12652 -0.0463,-2.82404 -0.0666,2.717472 -0.0666,2.717472 H 85.677652 50.200755 l -0.0609,-5.275093 -0.06091,-5.275092 -0.04939,5.38166 -0.04939,5.381661 H 85.680297 121.38042 Z M 118.60967,35.486989 V 20.141264 H 85.467162 52.324659 v 15.345725 15.345725 h 33.142503 33.142508 z"
   id="path12" /><path
   style="fill:#939598;fill-opacity:1;stroke-width:0.213135"
   d="M 19.643909,132.15562 C 14.124221,124.34441 9.3015878,113.54218 7.2388076,104.36941 6.8252831,102.53054 6.4390051,100.69033 6.3804119,100.28005 6.3218187,99.869765 6.1868665,99.102478 6.0805182,98.574969 5.9741699,98.04746 5.7776679,96.512887 5.643847,95.164808 5.5100262,93.816729 5.3640595,92.426022 5.3194768,92.074349 5.274894,91.722677 5.2299526,89.324907 5.219607,86.745973 5.1814662,77.23826 6.4212557,69.240893 9.2756793,60.581936 15.9825,40.236644 30.531232,23.475065 50.067405,13.585827 c 1.300103,-0.658113 2.459733,-1.223447 2.576957,-1.256297 0.117224,-0.03285 1.747707,-0.681298 3.623296,-1.440996 9.683621,-3.9223027 19.181387,-5.7010967 30.356071,-5.6852528 2.277252,0.00323 4.722977,0.060744 5.434944,0.1278115 2.715514,0.255802 3.281334,0.3189464 5.663756,0.6320646 2.631241,0.34582 4.411291,0.6635346 5.434941,0.9700608 0.35168,0.1053066 0.87919,0.2359216 1.17225,0.2902557 1.15577,0.2142832 6.62797,1.8487674 8.8451,2.641933 16.20737,5.7980962 30.39319,16.8617712 39.95726,31.1630942 5.02387,7.512305 8.37735,14.847553 11.05936,24.19083 0.55488,1.932999 1.62758,7.352936 1.94044,9.804213 0.13465,1.055019 0.28221,2.205948 0.32792,2.557621 0.33632,2.587854 0.47425,11.950666 0.21508,14.599752 -0.268,2.739306 -0.3494,3.405412 -0.65107,5.328377 -1.04136,6.638036 -2.80621,13.361806 -4.83044,18.403116 -1.6047,3.99646 -5.78248,11.90623 -7.91714,14.98948 -0.60373,0.87201 -1.24156,1.79961 -1.41739,2.06134 -0.17584,0.26173 -0.59484,0.83181 -0.93112,1.26685 l -0.61142,0.79099 -23.04658,-7.3e-4 -23.04657,-7.2e-4 -2.77076,-4.25749 -2.770753,-4.25749 -13.894774,-0.004 -13.894774,-0.004 -2.844609,4.20942 -2.84461,4.20942 -21.76631,0.0543 -21.766308,0.0543 z m 71.096255,-20.68228 c 6.844394,-1.19356 13.781856,-5.90825 17.254506,-11.726128 2.65864,-4.454135 3.53699,-7.414136 3.73148,-12.574969 0.14857,-3.942355 -0.13731,-6.282465 -1.13266,-9.271376 -1.88752,-5.667984 -5.39684,-10.276098 -10.29368,-13.516685 -4.832372,-3.197929 -9.587016,-4.418336 -15.898323,-4.080735 -3.244108,0.173533 -4.671936,0.42305 -6.90227,1.206189 -3.945874,1.385521 -7.197403,3.513182 -10.259828,6.713589 -2.882692,3.012578 -4.521712,5.751315 -5.891198,9.843967 -1.521175,4.545962 -1.509779,11.350393 0.02671,15.948824 0.849889,2.543567 2.490668,5.797033 3.689907,7.316644 1.218263,1.54371 3.654344,4.00472 5.192674,5.24581 2.682669,2.16432 7.286627,4.23937 10.83004,4.8812 2.205266,0.39945 7.398249,0.4068 9.65264,0.0137 z m 30.596026,-60.374207 -0.0442,-2.078067 -0.0703,1.971499 -0.0703,1.971499 H 85.677002 50.202714 l -0.06298,-3.996282 -0.06298,-3.996283 -0.04829,4.10285 -0.04829,4.102851 H 85.680297 121.38042 Z M 118.60967,35.486989 V 20.141264 H 85.467162 52.324659 v 15.345725 15.345725 h 33.142503 33.142508 z"
   id="path13" /><path
   style="fill:#939598;fill-opacity:1;stroke-width:0.213135"
   d="M 19.666338,132.19803 C 14.146037,124.40423 9.292398,113.53792 7.2183945,104.32962 6.1166425,99.437981 5.8804701,98.007755 5.5290403,94.099133 5.4605316,93.337175 5.363349,92.473978 5.3130789,92.180917 5.2628088,91.887856 5.2177178,89.490087 5.2128767,86.85254 5.2045311,82.305728 5.3933787,78.933462 5.8573995,75.343247 5.9710303,74.464064 6.1212166,73.26518 6.191147,72.679058 6.4267172,70.704628 8.3955536,63.08492 9.4852898,59.930205 11.315394,54.632175 14.558513,47.65321 16.832763,44.118959 21.136495,37.430832 22.437379,35.730896 27.189779,30.584882 35.909685,21.142761 48.003717,13.432331 60.636927,9.2609845 69.331706,6.3900648 76.900691,5.2040803 86.509363,5.2070319 c 4.498137,0.00138 6.345037,0.093114 8.86858,0.4404884 0.761958,0.104886 1.960804,0.2556156 2.664101,0.3349546 1.064727,0.1201116 5.368286,0.9523746 6.500706,1.2571694 3.26675,0.8792529 6.14382,1.7453437 8.2057,2.470183 23.45625,8.2458737 42.09012,27.1479507 49.92854,50.6472047 1.54175,4.622108 1.9967,6.289313 2.51912,9.231568 0.052,0.29306 0.23119,1.204213 0.39813,2.024783 0.31605,1.553616 0.86698,5.620949 1.07911,7.966848 0.14762,1.632419 0.15946,12.168755 0.0145,12.859892 -0.0562,0.267721 -0.15965,1.110187 -0.22996,1.872145 -0.20038,2.171712 -1.3082,8.364442 -2.02076,11.296162 -0.80511,3.31245 -2.13642,7.53955 -3.25563,10.33705 -1.89372,4.73342 -6.16222,12.60365 -8.96192,16.52392 l -1.74618,2.4451 -23.12516,0.0531 -23.12515,0.0532 -2.77076,-4.25607 -2.770753,-4.25607 -13.90146,-0.006 -13.901462,-0.007 -2.829641,4.20942 -2.829643,4.20942 -21.776016,0.0543 -21.776016,0.0543 z m 72.521144,-21.00574 c 8.574948,-2.2827 15.325058,-8.38174 18.206528,-16.450434 0.85439,-2.392458 1.16786,-4.187236 1.31508,-7.529514 0.1673,-3.798084 -0.13908,-6.394623 -1.09045,-9.241458 -1.90108,-5.688679 -5.26333,-10.122129 -10.23202,-13.491899 -5.003632,-3.393464 -10.177789,-4.623222 -17.179506,-4.08311 -3.24545,0.250355 -6.005502,1.004184 -8.752958,2.390619 -4.450226,2.245696 -8.487571,6.097863 -11.008501,10.503584 -2.017121,3.525231 -2.897181,6.62021 -3.129236,11.004841 -0.41724,7.883647 1.767269,14.048127 6.883401,19.424301 3.284329,3.45127 6.801375,5.67083 11.103922,7.00753 2.934175,0.91157 4.118526,1.047 8.442231,0.9653 2.988556,-0.0565 4.191162,-0.16692 5.441509,-0.49976 z m 29.151868,-59.453752 -0.0411,-1.438662 -0.0757,1.332094 -0.0757,1.332094 H 85.675979 50.205012 l -0.06547,-3.037174 -0.06547,-3.037175 -0.04695,3.143742 -0.04695,3.143743 H 85.680297 121.38042 Z M 118.60967,35.486989 V 20.141264 H 85.467162 52.324659 v 15.345725 15.345725 h 33.142503 33.142508 z"
   id="path14" /><path
   style="fill:#939598;fill-opacity:1;stroke-width:0.213135"
   d="m 20.638847,133.5824 c -0.558744,-0.79126 -1.067122,-1.48661 -1.129728,-1.54523 -0.298447,-0.2794 -2.225864,-3.33367 -3.429764,-5.43494 C 10.332809,116.57229 6.2980713,104.22894 5.5245626,94.312268 5.446842,93.315861 5.3452018,92.435053 5.2986955,92.354916 5.2521891,92.274777 5.2114285,89.877008 5.2081163,87.026539 5.202921,82.555454 5.4303846,78.039258 5.7536198,76.195787 5.8050053,75.902726 5.9049502,75.039529 5.9757196,74.277571 6.4030977,69.67609 8.9959753,60.467384 11.555729,54.459951 14.018599,48.679892 18.539989,40.871064 21.810792,36.748576 32.94504,22.715081 47.3909,12.943166 64.047088,8.177792 65.277943,7.8256415 66.524783,7.4901422 66.817844,7.4322379 67.110905,7.3743333 68.070012,7.1425877 68.949195,6.9172474 72.91259,5.9014026 80.290702,5.1944981 86.822303,5.2048067 c 7.941728,0.012534 14.027647,0.8752704 21.237177,3.0105685 1.64114,0.4860684 3.0798,0.9012337 3.19703,0.9225901 0.11722,0.021356 0.30904,0.095295 0.42627,0.1643088 0.11722,0.069014 0.74064,0.297469 1.38537,0.5076785 3.42376,1.1162864 9.70178,4.0351954 13.56127,6.3051934 13.61221,8.006163 24.68232,19.775772 31.58491,33.58068 4.76798,9.535774 7.27116,18.143811 8.35687,28.737879 0.28343,2.765666 0.28163,12.39663 -0.003,15.117803 -0.75592,7.231232 -2.88186,16.097742 -5.35624,22.338922 -1.82762,4.60985 -6.19497,12.6616 -8.99259,16.57897 l -1.74618,2.4451 -23.12516,0.0526 -23.12515,0.0526 -2.77076,-4.25306 -2.770753,-4.25305 -13.897089,-0.009 -13.897086,-0.009 -2.834017,4.25549 -2.834014,4.25549 -21.782291,0.007 -21.782293,0.007 z m 71.597841,-22.42096 c 4.852112,-1.24809 9.052052,-3.73908 12.629742,-7.49072 2.78181,-2.91708 4.8604,-6.509418 5.96992,-10.31756 0.76286,-2.618354 1.10596,-7.176605 0.78436,-10.42073 -0.55367,-5.585119 -2.90235,-10.593231 -6.92216,-14.760185 -3.24167,-3.360324 -7.213422,-5.81174 -11.34539,-7.002517 -4.057932,-1.169442 -10.683112,-1.159868 -14.759171,0.02133 -4.05287,1.174474 -7.545463,3.287376 -10.827202,6.550086 -5.737165,5.703903 -8.028214,12.241383 -7.351113,20.976329 0.232666,3.001537 0.669205,4.814792 1.810976,7.522255 3.315815,7.862742 11.073053,13.960842 19.510649,15.337672 2.032805,0.33171 8.604947,0.0713 10.499389,-0.41596 z m 29.105312,-59.1032 -0.0384,-1.118959 -0.0798,1.012392 -0.0798,1.012391 H 85.67583 50.207729 l -0.06851,-2.291202 -0.06851,-2.291202 -0.04527,2.39777 -0.04527,2.39777 H 85.680297 121.38042 Z M 118.60967,35.486989 V 20.141264 H 85.467162 52.324659 v 15.345725 15.345725 h 33.142503 33.142508 z"
   id="path15" /><path
   style="fill:#939598;fill-opacity:1;stroke-width:0.213135"
   d="m 21.055674,134.22181 c -0.337345,-0.43959 -0.753025,-1.00477 -0.923733,-1.25595 -3.257542,-4.79318 -4.723747,-7.3086 -6.93071,-11.89034 C 8.9607565,112.27213 6.5689853,104.02424 5.5367008,94.644816 5.2253509,91.815863 5.0619458,81.813552 5.3079044,80.639792 5.3656458,80.364238 5.4662529,79.258293 5.5314756,78.182133 5.5966983,77.105976 5.691041,76.098913 5.7411261,75.944215 5.7912112,75.789519 5.8903825,75.054562 5.9615068,74.310978 6.4060625,69.663269 8.989583,60.49645 11.557309,54.45601 c 0.982699,-2.311748 4.132727,-8.650705 4.766109,-9.591078 0.197389,-0.293061 1.35891,-2.06741 2.581156,-3.942999 C 24.227314,32.753964 32.298463,24.708101 41.028501,18.86731 49.282135,13.345256 57.82893,9.6128818 67.883519,7.1397577 73.066124,5.8649938 79.403696,5.2092662 86.536614,5.2097829 c 6.856174,4.967e-4 12.53724,0.6474381 18.112706,2.0626156 1.17224,0.2975415 2.27522,0.5770598 2.45105,0.6211519 1.00059,0.2509037 4.25109,1.2582175 4.79554,1.4861147 0.35167,0.1472039 1.02305,0.3900687 1.49195,0.5396998 1.75004,0.5584631 5.92552,2.3652741 8.83925,3.8249181 12.97089,6.497812 24.50798,16.930873 32.05696,28.989298 0.77056,1.230855 1.4783,2.333829 1.57275,2.451053 0.42647,0.529272 3.95831,7.733135 5.01571,10.230484 2.91065,6.874358 4.85591,14.708397 5.68924,22.91202 0.29656,2.919536 0.29508,12.727017 -0.002,15.452292 -0.56825,5.20689 -2.12801,12.59672 -3.66638,17.37051 -1.30903,4.06211 -2.35699,6.56497 -4.50669,10.76332 -2.67325,5.22087 -4.0984,7.66081 -6.16225,10.55018 l -1.75076,2.45106 -23.12516,0.0518 -23.12515,0.0519 -2.81996,-4.26126 -2.819966,-4.26127 H 84.74355 70.903976 l -2.842323,4.2544 -2.842322,4.2544 -21.775151,0.008 -21.775151,0.008 z m 71.082064,-23.07185 c 8.748632,-2.10085 16.215022,-9.21038 18.690102,-17.7968 1.08921,-3.778631 1.18558,-10.006165 0.21439,-13.85378 C 108.88,70.933128 101.81894,63.617135 93.355722,61.174287 89.802246,60.148602 82.830974,60.084361 79.129947,61.043196 70.65059,63.239963 63.328588,70.582293 61.043674,79.179678 c -0.906063,3.409223 -0.900306,10.242101 0.01153,13.684094 2.528234,9.543558 10.989997,17.135468 20.85558,18.711658 2.010424,0.3212 8.18781,0.0642 10.226956,-0.42547 z M 121.34631,52.377943 c -0.0336,-0.786916 -0.0354,-0.788561 -0.12007,-0.106568 l -0.086,0.692689 H 85.675412 50.210547 l -0.0718,-1.758364 -0.07181,-1.758364 -0.04338,1.864932 -0.04338,1.864932 h 35.70012 35.700123 z M 118.60967,35.486989 V 20.141264 H 85.467162 52.324659 v 15.345725 15.345725 h 33.142503 33.142508 z"
   id="path16" /></svg>
