<?xml version="1.0" encoding="UTF-8" standalone="no"?>
<!-- Created with Inkscape (http://www.inkscape.org/) -->

<svg
   width="200mm"
   height="100mm"
   viewBox="0 0 200 100"
   version="1.1"
   id="svg1"
   inkscape:version="1.4.2 (f4327f4, 2025-05-13)"
   sodipodi:docname="naomi2.svg"
   xmlns:inkscape="http://www.inkscape.org/namespaces/inkscape"
   xmlns:sodipodi="http://sodipodi.sourceforge.net/DTD/sodipodi-0.dtd"
   xmlns="http://www.w3.org/2000/svg"
   xmlns:svg="http://www.w3.org/2000/svg">
  <sodipodi:namedview
     id="namedview1"
     pagecolor="#ffffff"
     bordercolor="#000000"
     borderopacity="0.25"
     inkscape:showpageshadow="2"
     inkscape:pageopacity="0.0"
     inkscape:pagecheckerboard="0"
     inkscape:deskcolor="#d1d1d1"
     inkscape:document-units="mm"
     inkscape:zoom="0.71891835"
     inkscape:cx="397.12437"
     inkscape:cy="561.25984"
     inkscape:window-width="1920"
     inkscape:window-height="1009"
     inkscape:window-x="-8"
     inkscape:window-y="-8"
     inkscape:window-maximized="1"
     inkscape:current-layer="layer1" />
  <defs
     id="defs1" />
  <g
     inkscape:label="Camada 1"
     inkscape:groupmode="layer"
     id="layer1">
    <path
       d="M 186.94462,95.726169 H 12.848797 c -2.169584,0 -3.9687503,-1.77271 -3.9687503,-3.96875 V 9.1544992 c 0,-2.16958 1.7727083,-3.96875 3.9687503,-3.96875 H 186.94462 c 2.16959,0 3.96875,1.77271 3.96875,3.96875 V 91.757419 c -0.0265,2.19604 -1.79916,3.96875 -3.96875,3.96875 z"
       style="fill:#414956;stroke-width:0.264583"
       id="path1" />
    <path
       d="M 187.15629,93.424289 H 12.266713 c -1.031875,0 -1.905,-0.84666 -1.905,-1.905 V 9.3926292 c 0,-1.03188 0.846667,-1.905 1.905,-1.905 H 187.15629 c 1.03187,0 1.905,0.84666 1.905,1.905 V 91.545749 c -0.0265,1.03188 -0.87313,1.87854 -1.905,1.87854 z"
       style="fill:#4f576c;stroke-width:0.264583"
       id="path2" />
    <circle
       cx="99.843803"
       cy="50.482414"
       r="47.572083"
       style="fill:#525b6d;stroke-width:0.264583"
       id="circle2" />
    <path
       d="m 17.531922,50.508879 c 0,0.13229 -0.07937,0.26458 -0.185209,0.34396 l -10.4775003,9.36625 c -0.3175,0.26458 -0.79375,0.0264 -0.79375,-0.37042 v -18.75896 c 0,-0.39687 0.47625,-0.635 0.79375,-0.37042 l 10.5039593,9.36625 c 0.105833,0.0794 0.15875,0.21167 0.185208,0.34396"
       style="fill:#565f72;stroke-width:0.264583"
       id="path3" />
    <circle
       class="st4"
       cx="17.875874"
       cy="12.012002"
       r="3.0691667"
       id="circle3"
       style="fill:#121a2b;stroke-width:0.264583" />
    <circle
       class="st4"
       cx="17.875874"
       cy="88.926369"
       r="3.0691667"
       id="circle4"
       style="fill:#121a2b;stroke-width:0.264583" />
    <circle
       class="st4"
       cx="181.5471"
       cy="88.926369"
       r="3.0691667"
       id="circle5"
       style="fill:#121a2b;stroke-width:0.264583" />
    <circle
       class="st4"
       cx="181.5471"
       cy="12.012002"
       r="3.0691667"
       id="circle6"
       style="fill:#121a2b;stroke-width:0.264583" />
    <circle
       class="st5"
       cx="33.115868"
       cy="38.576164"
       r="0.92604166"
       id="circle7"
       style="fill:#050102;stroke-width:0.264583" />
    <circle
       class="st5"
       cx="36.158577"
       cy="38.576164"
       r="0.92604166"
       id="circle8"
       style="fill:#050102;stroke-width:0.264583" />
    <circle
       class="st5"
       cx="33.115868"
       cy="41.539497"
       r="0.92604166"
       id="circle9"
       style="fill:#050102;stroke-width:0.264583" />
    <circle
       class="st5"
       cx="36.158577"
       cy="41.539497"
       r="0.92604166"
       id="circle10"
       style="fill:#050102;stroke-width:0.264583" />
    <circle
       class="st5"
       cx="33.115868"
       cy="44.529289"
       r="0.92604166"
       id="circle11"
       style="fill:#050102;stroke-width:0.264583" />
    <circle
       class="st5"
       cx="36.158577"
       cy="44.529289"
       r="0.92604166"
       id="circle12"
       style="fill:#050102;stroke-width:0.264583" />
    <circle
       class="st5"
       cx="33.115868"
       cy="47.492638"
       r="0.92604166"
       id="circle13"
       style="fill:#050102;stroke-width:0.264583" />
    <circle
       class="st5"
       cx="36.158577"
       cy="47.492638"
       r="0.92604166"
       id="circle14"
       style="fill:#050102;stroke-width:0.264583" />
    <circle
       class="st5"
       cx="33.115868"
       cy="50.455956"
       r="0.92604166"
       id="circle15"
       style="fill:#050102;stroke-width:0.264583" />
    <circle
       class="st5"
       cx="36.158577"
       cy="50.455956"
       r="0.92604166"
       id="circle16"
       style="fill:#050102;stroke-width:0.264583" />
    <circle
       class="st5"
       cx="33.115868"
       cy="53.445763"
       r="0.92604166"
       id="circle17"
       style="fill:#050102;stroke-width:0.264583" />
    <circle
       class="st5"
       cx="36.158577"
       cy="53.445763"
       r="0.92604166"
       id="circle18"
       style="fill:#050102;stroke-width:0.264583" />
    <circle
       class="st5"
       cx="33.115868"
       cy="56.409081"
       r="0.92604166"
       id="circle19"
       style="fill:#050102;stroke-width:0.264583" />
    <circle
       class="st5"
       cx="36.158577"
       cy="56.409081"
       r="0.92604166"
       id="circle20"
       style="fill:#050102;stroke-width:0.264583" />
    <circle
       class="st5"
       cx="33.115868"
       cy="59.372414"
       r="0.92604166"
       id="circle21"
       style="fill:#050102;stroke-width:0.264583" />
    <circle
       class="st5"
       cx="36.158577"
       cy="59.372414"
       r="0.92604166"
       id="circle22"
       style="fill:#050102;stroke-width:0.264583" />
    <circle
       class="st5"
       cx="33.115868"
       cy="62.362206"
       r="0.92604166"
       id="circle23"
       style="fill:#050102;stroke-width:0.264583" />
    <circle
       class="st5"
       cx="36.158577"
       cy="62.362206"
       r="0.92604166"
       id="circle24"
       style="fill:#050102;stroke-width:0.264583" />
    <path
       d="M 158.7665,63.288249 H 40.89463 c -0.238125,0 -0.449792,-0.21166 -0.449792,-0.44979 v -24.73854 c 0,-0.23813 0.211667,-0.44979 0.449792,-0.44979 H 158.7665 c 0.23812,0 0.44979,0.21166 0.44979,0.44979 v 24.73854 c 0,0.23813 -0.21167,0.44979 -0.44979,0.44979 z"
       style="fill:#aaaba9;stroke-width:0.264583"
       id="path24" />
    <path
       class="st7"
       d="M 158.34316,63.023669 H 41.794213 c -0.238125,0 -0.423333,-0.18521 -0.449792,-0.44979 v -24.23584 c 0,-0.23812 0.185209,-0.44979 0.449792,-0.44979 H 158.36962 c 0.23813,0 0.44979,0.18521 0.44979,0.44979 v 24.23584 c -0.0265,0.26458 -0.21166,0.44979 -0.47625,0.44979 z"
       id="path25"
       style="fill:#f2f2f2;stroke-width:0.264583" />
    <path
       class="st8"
       d="M 151.99316,49.424089 H 47.667963 c -0.15875,0 -0.3175,-0.1323 -0.3175,-0.3175 v -0.0265 c 0,-0.15875 0.132292,-0.3175 0.3175,-0.3175 H 151.99316 c 0.15875,0 0.3175,0.13229 0.3175,0.3175 v 0.0265 c 0,0.1852 -0.13229,0.3175 -0.3175,0.3175 z"
       id="path26"
       style="fill:#f36418;stroke-width:0.264583" />
    <path
       class="st7"
       d="m 30.205463,33.099289 v 36.11563 c 0,0.3175 -0.238125,0.55562 -0.555625,0.55562 H 20.57463 c -0.291042,0 -0.555625,-0.23812 -0.555625,-0.55562 v -36.11563 c 0,-0.3175 0.238125,-0.55562 0.555625,-0.55562 h 9.075208 c 0.291042,0 0.555625,0.23812 0.555625,0.55562 z"
       id="path27"
       style="fill:#f2f2f2;stroke-width:0.264583" />
    <path
       class="st9"
       d="m 22.400255,34.607419 c 0,0.29104 -0.105833,0.52917 -0.291042,0.71437 -0.185208,0.18521 -0.423333,0.29105 -0.687916,0.29105 -0.185209,0 -0.343959,-0.0529 -0.502709,-0.1323 -0.15875,-0.0794 -0.264583,-0.21166 -0.343958,-0.37041 -0.07938,-0.15875 -0.132292,-0.3175 -0.132292,-0.50271 0,-0.29104 0.105834,-0.52917 0.291042,-0.71438 0.185208,-0.1852 0.423333,-0.29104 0.687917,-0.29104 0.185208,0 0.343958,0.0529 0.502708,0.13229 0.15875,0.0794 0.264583,0.21167 0.343958,0.37042 0.105834,0.15875 0.132292,0.3175 0.132292,0.50271 z m -0.15875,0 c 0,-0.23813 -0.07938,-0.44979 -0.264583,-0.60854 -0.15875,-0.15875 -0.343959,-0.23813 -0.555625,-0.23813 -0.238125,0 -0.423334,0.0794 -0.582084,0.26459 -0.132291,0.15875 -0.211666,0.37041 -0.211666,0.58208 0,0.23812 0.07937,0.44979 0.264583,0.60854 0.15875,0.15875 0.343958,0.23813 0.555625,0.23813 0.238125,0 0.423333,-0.0794 0.582083,-0.26459 0.132292,-0.15875 0.211667,-0.37041 0.211667,-0.58208 z m -0.9525,0.3175 -0.05292,0.15875 c -0.105833,-0.0265 -0.185208,-0.0794 -0.264583,-0.18521 -0.05292,-0.0794 -0.105833,-0.21167 -0.105833,-0.3175 0,-0.15875 0.05292,-0.29104 0.132291,-0.37042 0.105834,-0.10583 0.238125,-0.15875 0.396875,-0.15875 0.15875,0 0.3175,0.0529 0.396875,0.15875 0.105834,0.10584 0.132292,0.23813 0.132292,0.39688 0,0.10583 -0.02646,0.21167 -0.07937,0.29104 -0.05292,0.0794 -0.132292,0.13229 -0.211667,0.15875 l -0.02646,-0.15875 c 0.05292,-0.0265 0.105833,-0.0529 0.15875,-0.13229 0.02646,-0.0529 0.05292,-0.10583 0.05292,-0.18521 0,-0.10583 -0.02646,-0.18521 -0.105834,-0.26458 -0.07938,-0.0794 -0.185208,-0.10584 -0.3175,-0.10584 -0.132291,0 -0.238125,0.0265 -0.291041,0.10584 -0.05292,0.0529 -0.105834,0.15875 -0.105834,0.23812 0,0.0794 0.02646,0.15875 0.05292,0.21167 0.07937,0.10583 0.15875,0.15875 0.238125,0.15875 z m -0.132292,1.03187 0.02646,0.15875 c -0.07937,0 -0.15875,0.0265 -0.211667,0.0529 -0.05292,0.0265 -0.07937,0.0794 -0.105833,0.13229 -0.02646,0.0529 -0.05292,0.13229 -0.05292,0.21167 0,0.10583 0.02646,0.18521 0.07937,0.26458 0.05292,0.0529 0.132292,0.0794 0.185208,0.0794 0.05292,0 0.07938,0 0.132292,-0.0265 0.02646,-0.0265 0.07938,-0.0529 0.07938,-0.10583 0.02646,-0.0529 0.05292,-0.1323 0.105833,-0.29105 0.02646,-0.13229 0.07937,-0.21166 0.105834,-0.26458 0.02646,-0.0529 0.07937,-0.10583 0.132291,-0.13229 0.05292,-0.0265 0.132292,-0.0529 0.185209,-0.0529 0.132291,0 0.238125,0.0529 0.3175,0.13229 0.07937,0.0794 0.132291,0.21167 0.132291,0.34396 0,0.10584 -0.02646,0.18521 -0.05292,0.26459 -0.02646,0.0794 -0.105834,0.13229 -0.15875,0.1852 -0.07937,0.0529 -0.15875,0.0794 -0.264584,0.0794 l -0.02646,-0.18521 c 0.105833,0 0.185208,-0.0529 0.238125,-0.10583 0.05292,-0.0529 0.07937,-0.13229 0.07937,-0.23813 0,-0.10583 -0.02646,-0.18521 -0.05292,-0.23812 -0.05292,-0.0529 -0.105833,-0.0794 -0.15875,-0.0794 -0.05292,0 -0.105833,0.0265 -0.15875,0.0529 -0.02646,0.0529 -0.07938,0.13229 -0.105833,0.26458 -0.02646,0.13229 -0.07937,0.23813 -0.105833,0.29104 -0.02646,0.0794 -0.07937,0.1323 -0.15875,0.18521 -0.07937,0.0529 -0.15875,0.0529 -0.238125,0.0529 -0.07938,0 -0.185209,-0.0265 -0.238125,-0.0794 -0.07938,-0.0529 -0.132292,-0.10583 -0.15875,-0.1852 -0.02646,-0.0794 -0.05292,-0.15875 -0.05292,-0.29105 0,-0.15875 0.05292,-0.3175 0.15875,-0.39687 0.05292,-0.0265 0.185208,-0.0794 0.343958,-0.0794 z m -0.529166,1.34938 h 1.613958 v 1.00542 h -0.185208 v -0.82021 h -0.502709 v 0.76729 H 21.36838 v -0.76729 h -0.555625 v 0.84666 h -0.185208 z m 0.635,1.93146 h 0.185208 v 0.58208 h -0.582083 c -0.07938,-0.0794 -0.132292,-0.18521 -0.185209,-0.26458 -0.05292,-0.0794 -0.05292,-0.18521 -0.05292,-0.29104 0,-0.1323 0.02646,-0.26459 0.105833,-0.37042 0.05292,-0.10583 0.15875,-0.18521 0.291042,-0.23813 0.132291,-0.0529 0.264583,-0.0794 0.449791,-0.0794 0.185209,0 0.3175,0.0265 0.449792,0.10583 0.132292,0.0794 0.238125,0.13229 0.291042,0.23813 0.05292,0.10583 0.07937,0.21166 0.07937,0.34396 0,0.10583 -0.02646,0.1852 -0.05292,0.26458 -0.02646,0.0794 -0.07938,0.13229 -0.15875,0.18521 -0.05292,0.0529 -0.15875,0.0794 -0.264583,0.10583 l -0.05292,-0.15875 c 0.07937,-0.0265 0.15875,-0.0529 0.211667,-0.0794 0.05292,-0.0265 0.07937,-0.0794 0.105833,-0.1323 0.02646,-0.0529 0.02646,-0.10583 0.02646,-0.1852 0,-0.10584 -0.02646,-0.18521 -0.07937,-0.26459 -0.05292,-0.0794 -0.105833,-0.13229 -0.211666,-0.18521 -0.105834,-0.0529 -0.211667,-0.0529 -0.370417,-0.0529 -0.211667,0 -0.370417,0.0529 -0.47625,0.13229 -0.105833,0.10583 -0.15875,0.21167 -0.15875,0.37042 0,0.0794 0.02646,0.13229 0.05292,0.21166 0.02646,0.0794 0.07937,0.13229 0.105833,0.18521 h 0.291042 z m -0.635,0.71437 1.613958,0.52917 v 0.18521 l -1.613958,0.55562 v -0.21166 l 0.47625,-0.15875 v -0.58209 l -0.47625,-0.15875 z m 0.661458,0.39688 v 0.47625 l 0.449792,-0.13229 c 0.132291,-0.0529 0.238125,-0.0794 0.343958,-0.10584 l -0.3175,-0.0794 z m -0.132292,1.42875 0.02646,0.15875 c -0.07937,0 -0.15875,0.0265 -0.211667,0.0529 -0.05292,0.0265 -0.07937,0.0794 -0.105833,0.1323 -0.02646,0.0529 -0.05292,0.13229 -0.05292,0.21166 0,0.10584 0.02646,0.18521 0.07937,0.26459 0.05292,0.0529 0.132292,0.0794 0.185208,0.0794 0.05292,0 0.07938,0 0.132292,-0.0265 0.02646,-0.0265 0.07938,-0.0529 0.07938,-0.10583 0.02646,-0.0529 0.05292,-0.13229 0.105833,-0.29104 0.02646,-0.13229 0.07937,-0.21167 0.105834,-0.26459 0.02646,-0.0529 0.07937,-0.10583 0.132291,-0.13229 0.05292,-0.0265 0.132292,-0.0529 0.185209,-0.0529 0.132291,0 0.238125,0.0529 0.3175,0.13229 0.07937,0.0794 0.132291,0.21166 0.132291,0.34396 0,0.10583 -0.02646,0.1852 -0.05292,0.26458 -0.02646,0.0794 -0.105834,0.13229 -0.15875,0.18521 -0.05292,0.0529 -0.15875,0.0529 -0.264584,0.0794 l -0.02646,-0.18521 c 0.105833,0 0.185208,-0.0529 0.238125,-0.10583 0.05292,-0.0529 0.07937,-0.13229 0.07937,-0.23812 0,-0.10584 -0.02646,-0.18521 -0.05292,-0.23813 -0.05292,-0.0529 -0.105833,-0.0794 -0.15875,-0.0794 -0.05292,0 -0.105833,0.0265 -0.15875,0.0529 -0.02646,0.0265 -0.07938,0.13229 -0.105833,0.26459 -0.02646,0.13229 -0.07937,0.23812 -0.105833,0.29104 -0.02646,0.0794 -0.07937,0.13229 -0.15875,0.18521 -0.07937,0.0529 -0.15875,0.0794 -0.238125,0.0529 -0.07938,0 -0.185209,-0.0265 -0.238125,-0.0794 -0.07938,-0.0529 -0.132292,-0.10584 -0.15875,-0.18521 -0.02646,-0.0794 -0.05292,-0.15875 -0.05292,-0.29104 0,-0.15875 0.05292,-0.3175 0.15875,-0.39688 0.05292,0 0.185208,-0.0529 0.343958,-0.0794 z m -0.529166,1.37583 h 1.613958 v 1.00542 h -0.185208 v -0.82021 h -0.502709 v 0.76729 H 21.36838 v -0.76729 h -0.555625 v 0.84667 h -0.185208 z m 0,1.29646 h 1.613958 v 0.60854 c 0,0.13229 -0.02646,0.21167 -0.05292,0.29104 -0.02646,0.0794 -0.07938,0.10584 -0.15875,0.15875 -0.07937,0.0265 -0.15875,0.0529 -0.238125,0.0529 -0.132291,0 -0.211666,-0.0265 -0.291041,-0.10583 -0.07937,-0.0529 -0.132292,-0.15875 -0.132292,-0.29105 -0.02646,0.0529 -0.05292,0.0794 -0.07937,0.10584 -0.05292,0.0529 -0.132292,0.10583 -0.211667,0.13229 l -0.423333,0.23812 v -0.23812 l 0.343958,-0.18521 c 0.132292,-0.0794 0.211667,-0.13229 0.264584,-0.15875 0.05292,-0.0265 0.07937,-0.0794 0.07937,-0.10583 0.02646,-0.0265 0.02646,-0.0794 0.02646,-0.13229 v -0.21167 h -0.714374 z m 0.899583,0.18521 v 0.39687 c 0,0.0794 0,0.15875 0.02646,0.18521 0.02646,0.0265 0.05292,0.0794 0.105834,0.10583 0.05292,0.0265 0.07937,0.0265 0.15875,0.0265 0.07938,0 0.132291,-0.0265 0.185208,-0.0794 0.05292,-0.0529 0.07937,-0.13229 0.07937,-0.21167 v -0.42333 z m -0.899583,1.74625 h 1.613958 v 0.18521 l -1.27,0.71437 h 1.27 v 0.18521 h -1.613958 v -0.18521 l 1.27,-0.71437 h -1.27 z m 0.608541,1.32291 c 0.211667,0 0.343959,0.0529 0.449792,0.1323 0.105833,0.0794 0.15875,0.21166 0.15875,0.34395 0,0.1323 -0.05292,0.23813 -0.15875,0.34396 -0.105833,0.0794 -0.238125,0.13229 -0.449792,0.13229 -0.211666,0 -0.370416,-0.0529 -0.47625,-0.13229 -0.105833,-0.0794 -0.15875,-0.21166 -0.15875,-0.34396 0,-0.13229 0.05292,-0.23812 0.15875,-0.34395 0.132292,-0.0794 0.291042,-0.1323 0.47625,-0.1323 z m 0,0.18521 c -0.15875,0 -0.264583,0.0265 -0.343958,0.0794 -0.07937,0.0529 -0.105833,0.13229 -0.105833,0.21166 0,0.0794 0.02646,0.15875 0.105833,0.21167 0.07937,0.0529 0.185208,0.0794 0.343958,0.0794 0.15875,0 0.264584,-0.0265 0.343959,-0.0794 0.07938,-0.0529 0.105833,-0.13229 0.105833,-0.21167 0,-0.0794 -0.02646,-0.15875 -0.105833,-0.21166 -0.07937,-0.0529 -0.185209,-0.0794 -0.343959,-0.0794 z m -0.635,1.00542 h 0.211667 v 0.18521 h -0.211667 z"
       id="path28"
       style="fill:#53554e;stroke-width:0.264583" />
    <path
       class="st10"
       d="m 24.622755,37.755959 v -0.18521 h 5.582708 v 0.18521 z m 0,-1.93146 v -0.18521 h 5.582708 v 0.18521 z m 0,-0.79375 v -0.18521 h 5.582708 v 0.18521 z m 0,2.32834 v -0.55563 h 5.582708 v 0.55563 z m 0,-0.7673 v -0.55562 h 5.582708 v 0.55562 z m 0,4.2598 v -0.18521 h 5.582708 v 0.18521 z m 0,-0.39688 v -0.18521 h 5.582708 v 0.18521 z m 0,-0.37042 v -0.1852 h 5.582708 v 0.1852 z m 0,-1.56104 v -0.55562 h 5.582708 v 0.55562 z m 0,1.16417 v -0.55563 h 5.582708 v 0.55563 z m 0,1.53458 v -0.18521 h 5.582708 v 0.18521 z m 0,2.72521 v -0.18521 h 5.582708 v 0.18521 z m 0,-1.56104 v -0.18521 h 5.582708 v 0.18521 z m 0,1.16417 v -0.55563 h 5.582708 v 0.55563 z m 0,-1.53459 v -0.55562 h 5.582708 v 0.55562 z m 0,3.46604 v -0.1852 h 5.582708 v 0.1852 z m 0,-0.37041 v -0.18521 h 5.582708 v 0.18521 z m 0,0.76729 v -0.18521 h 5.582708 v 0.18521 z m 0,-1.16417 v -0.55562 h 5.582708 v 0.55562 z m 0,2.32834 v -0.55563 h 5.582708 v 0.55563 z m 0,0.37041 v -0.18521 h 5.582708 v 0.18521 z m 0,2.72521 v -0.18521 h 5.582708 v 0.18521 z m 0,-1.56104 v -0.15875 h 5.582708 v 0.18521 z m 0,1.16417 v -0.55563 h 5.582708 v 0.55563 z m 0,-1.53459 v -0.58208 h 5.582708 v 0.55562 z m 0,2.32834 v -0.18521 h 5.582708 v 0.18521 z m 0,1.93145 v -0.1852 h 5.582708 v 0.1852 z m 0,0.7673 v -0.18521 h 5.582708 v 0.18521 z m 0,-1.16417 v -0.55563 h 5.582708 v 0.55563 z m 0,-0.76729 v -0.55563 h 5.582708 v 0.55563 z m 0,4.63021 v -0.18521 h 5.582708 v 0.18521 z m 0,-1.53459 v -0.18521 h 5.582708 v 0.18521 z m 0,1.93146 v -0.18521 h 5.582708 v 0.18521 z m 0,-2.32833 v -0.55563 h 5.582708 v 0.55563 z m 0,1.16416 v -0.55562 h 5.582708 v 0.55562 z m 0,3.4925 v -0.1852 h 5.582708 v 0.1852 z m 0,-1.56104 v -0.18521 h 5.582708 v 0.18521 z m 0,-0.37041 v -0.18521 h 5.582708 v 0.18521 z m 0,1.16416 v -0.55562 h 5.582708 v 0.55562 z m 0,1.53459 v -0.55563 h 5.582708 v 0.55563 z m 0,0.39687 v -0.18521 h 5.582708 v 0.18521 z m 0,2.69875 v -0.18521 h 5.582708 v 0.18521 z m 0,-1.53458 v -0.18521 h 5.582708 v 0.18521 z m 0,1.13771 v -0.55563 h 5.582708 v 0.55563 z m 0,-1.53459 v -0.55562 h 5.582708 v 0.55562 z m 0,4.25979 v -0.1852 h 5.582708 v 0.1852 z m 0,-1.16416 v -0.18521 h 5.582708 v 0.18521 z m 0,0.39687 v -0.18521 h 5.582708 v 0.18521 z m 0,-0.79375 v -0.55562 h 5.582708 v 0.55562 z m 0,2.32834 v -0.55563 h 5.582708 v 0.55563 z m 0,3.09562 v -0.18521 h 5.582708 v 0.18521 z m 0,-1.93146 v -0.18521 h 5.582708 v 0.18521 z m 0,-0.76729 v -0.18521 h 5.582708 v 0.18521 z m 0,2.32833 v -0.55562 h 5.582708 v 0.55562 z m 0,-0.79375 v -0.55562 h 5.582708 v 0.55562 z"
       id="path29"
       style="fill:#5f5f5f;stroke-width:0.264583" />
    <circle
       class="st5"
       cx="167.10086"
       cy="38.576164"
       r="0.92604166"
       id="circle29"
       style="fill:#050102;stroke-width:0.264583" />
    <circle
       class="st5"
       cx="164.08461"
       cy="38.576164"
       r="0.92604166"
       id="circle30"
       style="fill:#050102;stroke-width:0.264583" />
    <circle
       class="st5"
       cx="167.10086"
       cy="41.539497"
       r="0.92604166"
       id="circle31"
       style="fill:#050102;stroke-width:0.264583" />
    <circle
       class="st5"
       cx="164.08461"
       cy="41.539497"
       r="0.92604166"
       id="circle32"
       style="fill:#050102;stroke-width:0.264583" />
    <circle
       class="st5"
       cx="167.10086"
       cy="44.529289"
       r="0.92604166"
       id="circle33"
       style="fill:#050102;stroke-width:0.264583" />
    <circle
       class="st5"
       cx="164.08461"
       cy="44.529289"
       r="0.92604166"
       id="circle34"
       style="fill:#050102;stroke-width:0.264583" />
    <circle
       class="st5"
       cx="167.10086"
       cy="47.492638"
       r="0.92604166"
       id="circle35"
       style="fill:#050102;stroke-width:0.264583" />
    <circle
       class="st5"
       cx="164.08461"
       cy="47.492638"
       r="0.92604166"
       id="circle36"
       style="fill:#050102;stroke-width:0.264583" />
    <circle
       class="st5"
       cx="167.10086"
       cy="50.482414"
       r="0.92604166"
       id="circle37"
       style="fill:#050102;stroke-width:0.264583" />
    <circle
       class="st5"
       cx="164.08461"
       cy="50.482414"
       r="0.92604166"
       id="circle38"
       style="fill:#050102;stroke-width:0.264583" />
    <circle
       class="st5"
       cx="167.10086"
       cy="53.445763"
       r="0.92604166"
       id="circle39"
       style="fill:#050102;stroke-width:0.264583" />
    <circle
       class="st5"
       cx="164.08461"
       cy="53.445763"
       r="0.92604166"
       id="circle40"
       style="fill:#050102;stroke-width:0.264583" />
    <circle
       class="st5"
       cx="167.10086"
       cy="56.409081"
       r="0.92604166"
       id="circle41"
       style="fill:#050102;stroke-width:0.264583" />
    <circle
       class="st5"
       cx="164.08461"
       cy="56.409081"
       r="0.92604166"
       id="circle42"
       style="fill:#050102;stroke-width:0.264583" />
    <circle
       class="st5"
       cx="167.10086"
       cy="59.398888"
       r="0.92604166"
       id="circle43"
       style="fill:#050102;stroke-width:0.264583" />
    <circle
       class="st5"
       cx="164.08461"
       cy="59.398888"
       r="0.92604166"
       id="circle44"
       style="fill:#050102;stroke-width:0.264583" />
    <circle
       class="st5"
       cx="167.10086"
       cy="62.362206"
       r="0.92604166"
       id="circle45"
       style="fill:#050102;stroke-width:0.264583" />
    <circle
       class="st5"
       cx="164.08461"
       cy="62.362206"
       r="0.92604166"
       id="circle46"
       style="fill:#050102;stroke-width:0.264583" />
    <path
       class="st11"
       d="m 142.99733,45.481789 c 0.34396,0.34396 0.82021,0.52917 1.29646,0.52917 h 8.01687 l -1.71979,-5.15937 c -0.23812,-0.55563 -0.79375,-0.92605 -1.45521,-0.92605 -0.66145,0 -1.21708,0.39688 -1.4552,0.9525 l -0.58209,1.69334 v -2.54 h -2.80458 c -0.47625,0 -0.9525,0.18521 -1.29646,0.52916 v -0.52916 h -2.8575 c -0.50271,0 -1.00541,0.21166 -1.34937,0.58208 v -0.58208 h -2.69875 c -1.16417,0 -2.11667,0.89958 -2.11667,2.11666 0,0.55563 0.23813,1.05834 0.60854,1.42875 h -0.60854 v 2.46063 h 2.72521 c 0.76729,0 1.50812,-0.44979 1.77271,-1.00542 v -0.0265 c 0.3175,0.635 0.9525,1.03188 1.66687,1.03188 h 2.8575 z"
       id="path46"
       style="fill:#ffffff;stroke-width:0.264583" />
    <path
       class="st12"
       d="m 134.37192,45.587629 h 2.30187 c 0.92604,0 1.69333,-0.76729 1.69333,-1.69334 0,-0.92604 -0.76729,-1.69333 -1.69333,-1.69333 h -0.58208 c -0.0529,0 -0.0794,-0.0265 -0.0794,-0.0794 0,-0.0529 0.0265,-0.0794 0.0794,-0.0794 h 2.27541 v -0.71437 h -2.27541 c -0.44979,0 -0.79375,0.37041 -0.79375,0.79375 0,0.44979 0.37041,0.79375 0.79375,0.79375 h 0.60854 c 0.52917,0 0.97896,0.42333 0.97896,0.97895 0,0.52917 -0.42334,0.97896 -0.97896,0.97896 h -2.32833 z"
       id="path47"
       style="fill:#0057f0;stroke-width:0.264583" />
    <path
       class="st12"
       d="m 134.37192,44.714499 h 2.30187 c 0.44979,0 0.79375,-0.37041 0.79375,-0.79375 0,-0.44979 -0.37042,-0.79375 -0.79375,-0.79375 h -0.60854 c -0.52917,0 -0.9525,-0.44979 -0.9525,-0.97896 0,-0.52916 0.42333,-0.9525 0.9525,-0.9525 h 2.27542 v -0.71437 h -2.27542 c -0.92604,0 -1.69333,0.76729 -1.69333,1.69333 0,0.92604 0.76729,1.69334 1.69333,1.69334 h 0.58208 l 0.0794,0.0794 -0.0794,0.0794 h -2.27541 z m 5.76791,0.15875 c -0.39687,0 -0.71437,-0.3175 -0.71437,-0.71437 v -2.30188 c 0,-0.39687 0.3175,-0.71437 0.71437,-0.71437 h 2.43417 v -0.71438 h -2.43417 c -0.79375,0 -1.42875,0.635 -1.42875,1.42875 v 2.27542 c 0,0.79375 0.635,1.42875 1.42875,1.42875 h 2.43417 v -0.71438 z"
       id="path48"
       style="fill:#0057f0;stroke-width:0.264583" />
    <path
       class="st12"
       d="m 139.58421,41.856999 c 0,-0.29104 0.23812,-0.55562 0.55562,-0.55562 h 2.43417 v 0.71437 h -2.11667 c -0.15875,0 -0.15875,0.15875 -0.15875,0.15875 h 1.74625 v 0.71438 h -2.48708 z m 0.55562,2.8575 c -0.29104,0 -0.55562,-0.23812 -0.55562,-0.55562 v -1.05834 h 2.48708 v 0.71438 h -1.74625 c 0,0.15875 0.15875,0.15875 0.15875,0.15875 h 2.09021 v 0.71437 z m 4.15396,0.15875 c -0.39687,0 -0.71437,-0.3175 -0.71437,-0.71437 v -2.27542 c 0,-0.39687 0.3175,-0.71437 0.71437,-0.71437 h 2.38125 v -0.71438 h -2.38125 c -0.79375,0 -1.42875,0.635 -1.42875,1.42875 v 2.27542 c 0,0.79375 0.66146,1.42875 1.45521,1.42875 h 2.38125 v -3.38667 h -2.03729 v 0.71438 h 1.32291 v 1.95791 z"
       id="path49"
       style="fill:#0057f0;stroke-width:0.264583" />
    <path
       class="st12"
       d="m 143.76462,44.158879 c 0,0.29104 0.23813,0.55562 0.55563,0.55562 h 1.48167 v -1.61396 h -1.13771 v 0.71438 h 0.42333 v 0.15875 h -0.42333 c -0.10584,0 -0.15875,-0.0794 -0.15875,-0.15875 v -1.61396 c 0,0 0,-0.15875 0.15875,-0.15875 h 2.03729 v -0.71437 h -2.38125 c -0.29104,0 -0.55563,0.23812 -0.55563,0.55562 z"
       id="path50"
       style="fill:#0057f0;stroke-width:0.264583" />
    <path
       d="m 150.72316,40.481169 c 0,-0.10583 0.0529,-0.23813 0.1323,-0.3175 0.0794,-0.0794 0.1852,-0.13229 0.3175,-0.13229 0.23812,0 0.42333,0.18521 0.44979,0.42333 0,0.23813 -0.18521,0.42333 -0.44979,0.42333 -0.10584,0 -0.21167,-0.0529 -0.3175,-0.13229 -0.0794,-0.0265 -0.1323,-0.13229 -0.1323,-0.26458 m 0.4498,0.52917 c 0.29104,0 0.5027,-0.21167 0.52916,-0.50271 0,-0.29104 -0.21166,-0.50271 -0.50271,-0.52917 h -0.0264 c -0.29105,0 -0.50271,0.23813 -0.50271,0.50271 0,0.26458 0.21166,0.52917 0.50271,0.52917 z"
       id="path51"
       style="stroke-width:0.264583" />
    <path
       d="m 151.04066,40.481169 h 0.23813 c 0.0529,0 0.0794,-0.0529 0.0794,-0.0794 l -0.0264,-0.0794 -0.10584,-0.0265 h -0.18521 v 0.18521 m 0,0.0529 v 0.23812 h -0.0794 v -0.55562 h 0.21167 c 0.0794,0 0.13229,0 0.15875,0.0264 0.0529,0.0265 0.0529,0.0794 0.0529,0.1323 0,0.13229 -0.10583,0.15875 -0.13229,0.15875 l 0.15875,0.23812 h -0.0794 l -0.15876,-0.23796 z"
       id="path52"
       style="stroke-width:0.264583" />
    <path
       class="st12"
       d="m 150.72316,44.873249 h -1.905 v 0.71438 h 2.91042 l -1.50812,-4.49792 c -0.1323,-0.44979 -0.58209,-0.76729 -1.0848,-0.76729 -0.52916,0 -0.9525,0.3175 -1.08479,0.76729 l -1.53458,4.49792 h 0.76729 l 1.48167,-4.36563 c 0.0794,-0.21166 0.3175,-0.29104 0.52916,-0.21166 0.10584,0.0529 0.15875,0.10583 0.21167,0.21166 z"
       id="path53"
       style="fill:#0057f0;stroke-width:0.264583" />
    <path
       class="st12"
       d="m 147.44233,45.587629 1.45521,-4.28625 c 0.0529,-0.13229 0.18521,-0.18521 0.29104,-0.13229 0.0794,0.0265 0.13229,0.0794 0.13229,0.13229 l 1.13771,3.41312 h -1.69333 v -0.635 l -0.50271,1.53459 z m 1.93146,-1.66688 -0.26458,-0.76729 -0.26459,0.76729 z"
       id="path54"
       style="fill:#0057f0;stroke-width:0.264583" />
    <path
       class="st13"
       d="m 53.541713,46.513669 v -6.61458 h -1.11125 l 0.02646,4.25979 -5.106458,-4.20688 0.02646,6.64104 h 0.9525 v -4.3127 l 5.212292,4.23333 m 0.687917,0.10583 0.846666,-1.45521 h -0.767295 v -1.00541 h 1.269999 l 2.328334,-4.23334 3.730625,6.69396 h -1.296459 l -0.767291,-1.45521 h -3.307292 l -0.79375,1.45521 H 54.22963 m 2.487083,-2.48708 h 2.38125 l -1.190625,-2.19604 -1.190625,2.19604 m 14.340416,2.48708 h -1.084791 v -6.6675 l 3.677708,4.28625 3.730625,-4.36562 v 6.74687 h -1.164167 l -0.02646,-3.62479 -2.566458,3.09563 -2.592917,-3.06917 0.02646,3.59833 m 8.440209,-6.82625 h 1.084791 v 6.82625 h -1.084791 z"
       id="path55"
       style="fill:#070308;stroke-width:0.264583" />
    <path
       class="st8"
       d="m 61.611504,43.338669 c 0,-2.01083 1.640417,-3.62479 3.624792,-3.62479 1.984375,0 3.624792,1.64041 3.624792,3.62479 0,1.98437 -1.640417,3.62479 -3.624792,3.62479 -1.984375,0 -3.624792,-1.61396 -3.624792,-3.62479 m 3.624792,2.56646 c 1.402292,0 2.54,-1.13771 2.54,-2.54 0,-1.40229 -1.137708,-2.54 -2.54,-2.54 -1.402292,0 -2.54,1.13771 -2.54,2.54 0,1.40229 1.137708,2.54 2.54,2.54"
       id="path56"
       style="fill:#f36418;stroke-width:0.264583" />
    <path
       class="st13"
       d="m 81.905046,40.639919 -0.211667,-0.50271 v 0.50271 h -0.15875 v -0.76729 h 0.15875 l 0.211667,0.47625 0.211666,-0.47625 h 0.15875 v 0.76729 h -0.15875 v -0.50271 z m -0.820208,0 v -0.66146 h -0.211667 v -0.13229 h 0.582083 v 0.13229 h -0.238125 v 0.66146 z"
       id="path57"
       style="fill:#070308;stroke-width:0.264583" />
    <path
       class="st8"
       d="m 87.567129,45.825749 h -2.989792 c 0,0 2.8575,-2.01083 2.8575,-4.15396 0,-1.03187 -0.687916,-1.905 -1.931458,-1.905 -1.243542,0 -1.984375,0.68792 -1.984375,0.68792 l 0.3175,0.635 c 0,0 0.396875,-0.47625 1.455208,-0.52917 0.211667,0 0.423334,0.0265 0.608542,0.1323 0.291042,0.15875 0.635,0.47625 0.635,1.16416 0,1.56104 -3.201458,4.02167 -3.201458,4.02167 v 0.71437 h 4.206875 z"
       id="path58"
       style="fill:#f36418;stroke-width:0.264583" />
  </g>
</svg>
