<svg enable-background="new 0 0 678.6 595" viewBox="0 0 678.6 595" xmlns="http://www.w3.org/2000/svg"><path d="m666 507h-654c-6.6 0-12 5.4-12 12v64c0 6.6 5.4 12 12 12h654c6.6 0 12-5.4 12-12v-64c0-6.6-5.4-12-12-12z" fill="#811517"/><path d="m666.6 0h-8.7-18.9-3.1c-1.7 0-3 1.3-3 3v3h-.2c-1.3 2.4-3.8 4-6.6 4h-4c-1.2 1.8-3.2 3-5.5 3h-554c-2.3 0-4.3-1.2-5.5-3h-4c-2.7 0-5.1-1.5-6.4-3.6v-3.4c0-1.7-1.3-3-3-3h-3.1-18.8-9.1c-6.7 0-12.1 5.4-12.1 12v545c0 6.6 5.4 12 12 12h654c6.6 0 12-5.4 12-12v-545c0-6.6-5.4-12-12-12z" fill="#c02026"/><path d="m79.3 298.5c-11.4 0-20.8-9.3-20.8-20.8v-265c1.2.8 2.6 1.2 4.1 1.2h554c1.7 0 3.3-.6 4.6-1.6v265.4c0 11.4-9.3 20.8-20.8 20.8z" fill="#c02026"/><path d="m620.3 14.2v263.6c0 10.9-8.9 19.8-19.8 19.8h-521.3c-10.9 0-19.8-8.9-19.8-19.8v-263.4c1 .4 2 .6 3.1.6h554c1.4 0 2.7-.3 3.8-.8m1.8-4.2c-1.2 1.8-3.2 3-5.5 3h-554c-2 0-3.8-.9-5-2.4-.1.7-.1 1.4-.1 2v265.1c0 12 9.8 21.8 21.8 21.8h521.3c12 0 21.8-9.8 21.8-21.8v-265.1c-.1-.9-.2-1.7-.3-2.6z" fill="#aa1f23"/><path d="m678.6 67-56.3-.2" fill="#c02026" stroke="#aa1f23" stroke-miterlimit="10" stroke-width="2"/><path d="m678.6 87-56.3-.2" fill="#c02026" stroke="#aa1f23" stroke-miterlimit="10" stroke-width="2"/><path d="m678.6 107-56.3-.2" fill="#c02026" stroke="#aa1f23" stroke-miterlimit="10" stroke-width="2"/><path d="m678.6 127-56.3-.2" fill="#c02026" stroke="#aa1f23" stroke-miterlimit="10" stroke-width="2"/><path d="m678.6 147-56.3-.2" fill="#c02026" stroke="#aa1f23" stroke-miterlimit="10" stroke-width="2"/><path d="m678.6 167-56.3-.2" fill="#c02026" stroke="#aa1f23" stroke-miterlimit="10" stroke-width="2"/><path d="m58.5 67-57.9-.3" fill="#c02026" stroke="#aa1f23" stroke-miterlimit="10" stroke-width="2"/><path d="m58.5 87-57.9-.3" fill="#c02026" stroke="#aa1f23" stroke-miterlimit="10" stroke-width="2"/><path d="m58.5 107-57.9-.3" fill="#c02026" stroke="#aa1f23" stroke-miterlimit="10" stroke-width="2"/><path d="m58.5 127-57.9-.3" fill="#c02026" stroke="#aa1f23" stroke-miterlimit="10" stroke-width="2"/><path d="m58.5 147-57.9-.3" fill="#c02026" stroke="#aa1f23" stroke-miterlimit="10" stroke-width="2"/><path d="m58.5 167-57.9-.3" fill="#c02026" stroke="#aa1f23" stroke-miterlimit="10" stroke-width="2"/><path d="m618.5 277.3v-264.6c-.6.2-1.2.3-1.9.3h-554c-.9 0-1.8-.2-2.6-.6v264.8c0 10 8.2 18.3 18.3 18.3h522c10 0 18.2-8.2 18.2-18.2z"/><path d="m147 13h-84.4c-.9 0-1.8-.2-2.6-.6v65.9z" fill="#fabf13"/><path d="m386.8 111v-51.5h-75.8v51.5h-22.5v138.5h121v-138.5z" fill="none" stroke="#fff" stroke-miterlimit="10" stroke-width="3"/><path d="m382 59.5h-66l2.8-7h60.5z" fill="none" stroke="#fff" stroke-miterlimit="10" stroke-width="3"/><path d="m296.8 59.5-8.3 7.8v43.7h16.5v-51.5z" fill="none" stroke="#fff" stroke-miterlimit="10" stroke-width="3"/><path d="m401.3 59.5 8.2 7.8v43.7h-16.5v-51.5z" fill="none" stroke="#fff" stroke-miterlimit="10" stroke-width="3"/><path d="m305 62.8h6" fill="none" stroke="#fff" stroke-miterlimit="10" stroke-width="3"/><path d="m386.8 62.8h6.2" fill="none" stroke="#fff" stroke-miterlimit="10" stroke-width="3"/><path d="m393 76.4h16.5" fill="none" stroke="#fff" stroke-miterlimit="10" stroke-width="3"/><path d="m311 76.4h75.8" fill="none" stroke="#fff" stroke-miterlimit="10" stroke-width="3"/><path d="m288.5 76.4h16.5" fill="none" stroke="#fff" stroke-miterlimit="10" stroke-width="3"/><path d="m393 81.4h16.5" fill="none" stroke="#fff" stroke-miterlimit="10" stroke-width="3"/><path d="m311 81.4h75.7" fill="none" stroke="#fff" stroke-miterlimit="10" stroke-width="3"/><path d="m288.5 81.4h16.5" fill="none" stroke="#fff" stroke-miterlimit="10" stroke-width="3"/><path d="m393 86.4h16.5" fill="none" stroke="#fff" stroke-miterlimit="10" stroke-width="3"/><path d="m311 86.4h75.7" fill="none" stroke="#fff" stroke-miterlimit="10" stroke-width="3"/><path d="m288.5 86.4h16.5" fill="none" stroke="#fff" stroke-miterlimit="10" stroke-width="3"/><path d="m393 91.4h16.5" fill="none" stroke="#fff" stroke-miterlimit="10" stroke-width="3"/><path d="m311 91.4h75.7" fill="none" stroke="#fff" stroke-miterlimit="10" stroke-width="3"/><path d="m288.5 91.4h16.5" fill="none" stroke="#fff" stroke-miterlimit="10" stroke-width="3"/><path d="m393 96.4h16.5" fill="none" stroke="#fff" stroke-miterlimit="10" stroke-width="3"/><path d="m311 96.4h75.7" fill="none" stroke="#fff" stroke-miterlimit="10" stroke-width="3"/><path d="m288.5 96.4h16.5" fill="none" stroke="#fff" stroke-miterlimit="10" stroke-width="3"/><circle cx="349" cy="189" fill="none" r="19.6" stroke="#fff" stroke-miterlimit="10" stroke-width="3"/><circle cx="349" cy="189" fill="#fff" r="14"/><circle cx="349" cy="189" fill="none" r="31.6" stroke="#fff" stroke-miterlimit="10" stroke-width="3"/><g fill="#fff"><path d="m300.5 182.9v-6.1l-9.5 12.2 9.5 12.2v-6.1h12.8v-6.1-6.1z"/><path d="m397 195.1v6.1l9.5-12.2-9.5-12.2v6.1h-12.7v6.1 6.1z"/><path d="m456.5 195.1v6.1l9.5-12.2-9.5-12.2v6.1h-12.7v6.1 6.1z"/><path d="m425 182.9v-6.1l-9.5 12.2 9.5 12.2v-6.1h12.8v-6.1-6.1z"/><path d="m425 80.2v-6.1l-9.5 12.3 9.5 12.2v-6.1h12.8v-6.1-6.2z"/><path d="m274.8 91.4v6.1l9.5-12.2-9.5-12.3v6.1h-12.8v6.2 6.1z"/><path d="m262.5 220.4h-6.1l12.2 9.5 12.3-9.5h-6.2v-12.8h-6.1-6.1z"/><path d="m342.8 236.9h-6.2l12.3 9.5 12.2-9.5h-6.1v-12.8h-6.1-6.1z"/><path d="m181.2 70.9h11.1v4.3h-6.2v6.6h5.8v4.1h-5.8v10.6h-5v-25.6z"/><path d="m196.1 71.3c1.6-.3 3.5-.5 5.4-.5 2.7 0 5.2.4 6.8 1.9 1.6 1.4 2 3.1 2 5.3 0 2.7-1.3 5.2-4 6.4v.1c1.7.7 2.6 2.3 3.1 5.1s1.2 6 1.6 7h-5c-.3-.7-.9-3.3-1.3-6.1-.5-3.2-1.3-4.1-2.9-4.1h-.7v10.2h-5zm5 11.1h.9c2.2 0 3.4-1.7 3.4-4 0-2.2-.9-3.7-3.1-3.8-.4 0-.9 0-1.2.2z"/><path d="m224.8 85.2h-5.9v6.9h6.6v4.3h-11.5v-25.5h11.1v4.3h-6.2v5.9h5.9z"/><path d="m233.9 70.9v25.6h-5v-25.6z"/><path d="m238.4 96.5v-25.6h4.6l4 10c.8 2 2 5.3 2.7 7.5h.1c-.2-2.7-.5-7.1-.5-11.9v-5.7h4.4v25.6h-4.7l-3.9-9.7c-.8-2.2-2-5.4-2.6-7.7h-.1c.1 2.6.3 6.5.3 11.7v5.8z"/><path d="m449.4 93.7-1 5.9h-4.4l5-25.6h5.4l4.5 25.6h-4.4l-1-5.9zm3.8-3.8-.8-5.4c-.2-1.6-.5-4.1-.8-5.8h-.1c-.2 1.7-.6 4.4-.8 5.9l-.9 5.3z"/><path d="m472 99.2c-.7.3-1.9.6-3.5.6-5.9 0-8.7-5.4-8.7-12.7 0-9.7 4.8-13.4 9.3-13.4 1.6 0 2.7.3 3.1.7l-.8 4.2c-.5-.3-1.1-.5-2.1-.5-2.5 0-4.8 2.4-4.8 8.8 0 6.1 2.1 8.5 4.8 8.5.8 0 1.6-.2 2.2-.4z"/><path d="m485.2 99.2c-.7.3-1.9.6-3.5.6-5.9 0-8.7-5.4-8.7-12.7 0-9.7 4.8-13.4 9.3-13.4 1.6 0 2.7.3 3.1.7l-.8 4.2c-.5-.3-1.1-.5-2.1-.5-2.5 0-4.8 2.4-4.8 8.8 0 6.1 2.1 8.5 4.8 8.5.8 0 1.6-.2 2.2-.4z"/><path d="m497.5 88.4h-5.3v6.9h6v4.3h-10.5v-25.6h10.1v4.3h-5.6v5.9h5.3z"/><path d="m501.2 74h4.5v21.4h5.9v4.2h-10.4z"/><path d="m524 88.4h-5.3v6.9h6v4.3h-10.5v-25.6h10.1v4.3h-5.6v5.9h5.3z"/><path d="m527.8 74.4c1.4-.3 3.2-.5 4.9-.5 2.5 0 4.7.4 6.2 1.9 1.4 1.4 1.8 3.1 1.8 5.3 0 2.7-1.2 5.2-3.6 6.4v.1c1.6.7 2.4 2.3 2.8 5.1s1.1 6 1.5 7h-4.7c-.3-.7-.8-3.3-1.1-6.1-.4-3.2-1.1-4.1-2.6-4.1h-.7v10.2h-4.5zm4.5 11.1h.8c2 0 3.1-1.7 3.1-4 0-2.2-.8-3.7-2.8-3.8-.4 0-.8 0-1.1.2z"/><path d="m547.6 93.7-1 5.9h-4.4l5-25.6h5.4l4.5 25.6h-4.4l-1-5.9zm3.8-3.8-.8-5.4c-.2-1.6-.5-4.1-.8-5.8h-.1c-.2 1.7-.6 4.4-.8 5.9l-.9 5.3z"/><path d="m560.5 78.6h-4.1v-4.6h12.7v4.6h-4.1v21h-4.5z"/><path d="m581.3 88.4h-5.3v6.9h6v4.3h-10.5v-25.6h10.1v4.3h-5.6v5.9h5.3z"/><path d="m589.4 74v16.6c0 3.8 1 4.9 2.2 4.9 1.3 0 2.2-1 2.2-4.9v-16.6h4.5v15.8c0 6.6-2.2 10.1-6.7 10.1-4.8 0-6.7-3.7-6.7-10.1v-15.8z"/><path d="m602.2 74.4c1.4-.3 3.2-.5 4.9-.5 2.5 0 4.7.4 6.2 1.9 1.4 1.4 1.8 3.1 1.8 5.3 0 2.7-1.2 5.2-3.6 6.4v.1c1.6.7 2.4 2.3 2.8 5.1s1.1 6 1.5 7h-4.7c-.3-.7-.8-3.3-1.1-6.1-.4-3.2-1.1-4.1-2.6-4.1h-.7v10.2h-4.5zm4.5 11.1h.8c2 0 3.1-1.7 3.1-4 0-2.2-.8-3.7-2.8-3.8-.4 0-.8 0-1.1.2z"/><path d="m468.2 177.8c1.3-.3 3.1-.5 5.1-.5 3.2 0 5.5.8 7.1 2.3 2.2 2 3.3 5.4 3.3 10.3 0 5.2-1.3 8.9-3.6 10.8-1.7 1.7-4.3 2.5-7.8 2.5-1.6 0-3.1-.2-4.1-.3zm5 21.2c.2.1.6.1.9.1 2.4 0 4.5-2.4 4.5-9.4 0-5.2-1.4-8.4-4.4-8.4-.3 0-.7 0-1 .1z"/><path d="m491.8 177.4v25.6h-5v-25.6z"/><path d="m496.3 177.8c1.6-.3 3.5-.5 5.4-.5 2.7 0 5.2.4 6.8 1.9 1.6 1.4 2 3.1 2 5.3 0 2.7-1.3 5.2-4 6.4v.1c1.7.7 2.6 2.3 3.1 5.1s1.2 6 1.6 7h-5.2c-.3-.7-.9-3.3-1.3-6.1-.5-3.2-1.3-4.1-2.9-4.1h-.7v10.1h-5v-25.2zm5 11.1h.9c2.2 0 3.4-1.7 3.4-4 0-2.2-.9-3.7-3.1-3.8-.4 0-.9 0-1.2.2z"/><path d="m525 191.7h-5.9v6.9h6.6v4.3h-11.6v-25.6h11.1v4.3h-6.2v5.9h5.9v4.2z"/><path d="m541.4 202.6c-.7.3-2.1.6-3.9.6-6.5 0-9.7-5.4-9.7-12.7 0-9.7 5.4-13.4 10.3-13.4 1.7 0 3 .3 3.5.7l-.8 4.2c-.6-.3-1.2-.5-2.3-.5-2.8 0-5.4 2.4-5.4 8.8 0 6.1 2.3 8.5 5.4 8.5.8 0 1.8-.2 2.4-.4z"/><path d="m547.8 182h-4.5v-4.6h14.1v4.6h-4.6v21h-5z"/><path d="m564.9 177.4v25.6h-5v-25.6z"/><path d="m584.5 189.7c0 9.7-3.4 13.6-8.3 13.6-5.8 0-8.1-6.2-8.1-13.2s2.8-13 8.4-13c6.3 0 8 6.8 8 12.6zm-11.2.5c0 5.8 1.1 8.8 3.1 8.8 2.1 0 2.9-3.8 2.9-9 0-4.5-.7-8.5-2.9-8.5-2-.1-3.1 3.2-3.1 8.7z"/><path d="m587.7 203v-25.6h4.6l4 10c.8 2 2 5.3 2.7 7.5h.1c-.2-2.7-.5-7.1-.5-11.9v-5.7h4.4v25.7h-4.6l-3.9-9.7c-.8-2.2-2-5.4-2.6-7.7h-.1c.1 2.6.3 6.5.3 11.7v5.8h-4.4z"/><path d="m82.3 195.4-1.1 5.9h-4.6l5.3-25.6h5.7l4.8 25.6h-4.6l-1.1-5.9zm4-3.9-.8-5.4c-.3-1.6-.6-4.1-.8-5.8h-.1c-.3 1.7-.6 4.4-.9 5.9l-.9 5.3z"/><path d="m106.3 200.9c-.7.3-2 .6-3.7.6-6.3 0-9.3-5.4-9.3-12.7 0-9.7 5.1-13.4 9.9-13.4 1.7 0 2.8.3 3.3.7l-.8 4.2c-.5-.3-1.2-.5-2.2-.5-2.7 0-5.1 2.4-5.1 8.8 0 6.1 2.2 8.5 5.1 8.5.8 0 1.7-.2 2.3-.4z"/><path d="m120.3 200.9c-.7.3-2 .6-3.7.6-6.3 0-9.3-5.4-9.3-12.7 0-9.7 5.1-13.4 9.9-13.4 1.7 0 2.8.3 3.3.7l-.8 4.2c-.5-.3-1.2-.5-2.2-.5-2.7 0-5.1 2.4-5.1 8.8 0 6.1 2.2 8.5 5.1 8.5.8 0 1.7-.2 2.3-.4z"/><path d="m122.6 198.2c0-1.9 1.3-3.3 2.8-3.3s2.8 1.3 2.8 3.3-1.1 3.3-2.8 3.3c-1.6 0-2.8-1.3-2.8-3.3z"/><path d="m149 200.9c-.7.3-2 .6-3.7.6-6.3 0-9.3-5.4-9.3-12.7 0-9.7 5.1-13.4 9.9-13.4 1.7 0 2.8.3 3.3.7l-.8 4.2c-.5-.3-1.2-.5-2.2-.5-2.7 0-5.1 2.4-5.1 8.8 0 6.1 2.2 8.5 5.1 8.5.8 0 1.7-.2 2.3-.4z"/><path d="m156.4 175.6v10.3h5v-10.3h4.8v25.6h-4.8v-10.7h-5v10.7h-4.8v-25.6z"/><path d="m174.3 195.4-1.1 5.9h-4.6l5.3-25.6h5.7l4.8 25.6h-4.6l-1.1-5.9zm4-3.9-.8-5.4c-.3-1.6-.6-4.1-.8-5.8h-.1c-.3 1.7-.6 4.4-.9 5.9l-.9 5.3z"/><path d="m187.1 176c1.3-.3 3.2-.5 5-.5 2.8 0 5.1.4 6.7 2 1.5 1.3 2.1 3.5 2.1 5.6 0 2.8-.8 4.7-2.1 6.2-1.5 1.7-4 2.4-6 2.4-.3 0-.7 0-.9 0v9.5h-4.8zm4.8 11.6c.2.1.5.1.8.1 2.4 0 3.5-1.8 3.5-4.2 0-2.2-.9-4-3.1-4-.4 0-.9.1-1.2.2z"/><path d="m214.1 190h-5.6v6.9h6.3v4.3h-11.1v-25.6h10.7v4.3h-5.9v5.9h5.6z"/><path d="m222 195.4-1.1 5.9h-4.6l5.3-25.6h5.7l4.8 25.6h-4.6l-1.1-5.9zm4-3.9-.8-5.4c-.3-1.6-.6-4.1-.8-5.8h-.1c-.3 1.7-.6 4.4-.9 5.9l-.9 5.3z"/><path d="m238.8 175.6v16.6c0 3.8 1.1 4.9 2.3 4.9 1.4 0 2.4-1 2.4-4.9v-16.6h4.8v15.8c0 6.6-2.4 10.1-7.1 10.1-5.1 0-7.1-3.7-7.1-10.1v-15.8z"/><path d="m129.5 210c1.3-.3 3.1-.5 5.1-.5 3.2 0 5.5.8 7.1 2.3 2.2 2 3.3 5.4 3.3 10.3 0 5.2-1.3 8.9-3.6 10.8-1.7 1.7-4.3 2.5-7.8 2.5-1.6 0-3.1-.2-4.1-.3zm5 21.3c.2.1.6.1.9.1 2.4 0 4.5-2.4 4.5-9.4 0-5.2-1.4-8.4-4.4-8.4-.3 0-.7 0-1 .1z"/><path d="m159 224h-5.9v6.9h6.6v4.3h-11.6v-25.6h11.1v4.3h-6.2v5.9h5.9v4.2z"/><path d="m169.2 210c1.6-.3 3.5-.5 5.4-.5 2.7 0 5.2.4 6.8 1.9 1.6 1.4 2 3.1 2 5.3 0 2.7-1.3 5.2-4 6.4v.1c1.7.7 2.6 2.3 3.1 5.1s1.2 6 1.6 7h-5.2c-.3-.7-.9-3.3-1.3-6.1-.5-3.2-1.3-4.1-2.9-4.1h-.7v10.2h-5v-25.3zm5 11.2h.9c2.2 0 3.4-1.7 3.4-4 0-2.2-.9-3.7-3.1-3.8-.4 0-.9 0-1.2.2z"/><path d="m202.2 222c0 9.7-3.4 13.6-8.3 13.6-5.8 0-8.1-6.2-8.1-13.2s2.8-13 8.4-13c6.2 0 8 6.8 8 12.6zm-11.2.5c0 5.8 1.1 8.8 3.1 8.8 2.1 0 2.9-3.8 2.9-9 0-4.5-.7-8.5-2.9-8.5-2-.1-3.1 3.1-3.1 8.7z"/><path d="m210.2 209.7v16.6c0 3.8 1.1 4.9 2.4 4.9 1.4 0 2.5-1 2.5-4.9v-16.6h5v15.8c0 6.6-2.5 10.1-7.4 10.1-5.4 0-7.4-3.7-7.4-10.1v-15.8z"/><path d="m235.2 224h-5.9v6.9h6.6v4.3h-11.6v-25.6h11.1v4.3h-6.2v5.9h5.9v4.2z"/><path d="m238.7 230.2c1 .6 2.8 1 4.2 1 2.4 0 3.5-1.2 3.5-2.9 0-1.9-1.1-2.8-3.3-4.2-3.5-2.1-4.8-4.8-4.8-7.1 0-4.1 2.7-7.5 8.1-7.5 1.7 0 3.3.5 4 .9l-.8 4.3c-.7-.5-1.8-.9-3.3-.9-2.1 0-3.2 1.3-3.2 2.7 0 1.5.8 2.3 3.5 4 3.4 2.1 4.6 4.6 4.6 7.3 0 4.7-3.5 7.8-8.5 7.8-2.1 0-4.1-.5-4.9-1z"/><path d="m112.3 286.9h-2.1v-8.8c-.8.8-1.7 1.4-2.7 1.8v-2.1c.6-.2 1.2-.6 1.8-1.1s1.1-1.2 1.3-1.9h1.7z"/><path d="m115.5 284 2-.2c.1.9.5 1.3 1.2 1.3.5 0 .8-.2 1.1-.7.3-.4.5-1.4.6-2.7-.3.3-.6.6-.9.8s-.7.3-1.1.3c-.8 0-1.6-.4-2.2-1.1s-1-1.7-1-2.9c0-1.3.3-2.3 1-3s1.5-1.1 2.5-1.1c1.1 0 2 .5 2.7 1.4s1.1 2.5 1.1 4.7-.4 3.8-1.1 4.8-1.7 1.5-2.9 1.5c-.8 0-1.5-.2-2-.7-.5-.6-.8-1.3-1-2.4zm4.8-5c0-.8-.2-1.3-.5-1.7s-.7-.6-1.1-.6-.7.2-1 .5-.4.9-.4 1.7.1 1.4.4 1.7c.3.4.6.5 1 .5s.7-.2 1-.5c.4-.4.6-.9.6-1.6z"/><path d="m125.8 280.3c-.5-.2-.9-.6-1.2-1s-.4-.9-.4-1.5c0-1 .3-1.7.9-2.3s1.4-.8 2.4-.8c1.1 0 1.9.3 2.4.9.6.6.8 1.3.8 2.2 0 .6-.1 1.1-.4 1.5s-.6.8-1.1 1c.6.3 1.1.7 1.4 1.2s.5 1.1.5 1.8-.2 1.4-.5 2-.7 1-1.3 1.3c-.5.3-1.1.5-1.8.5-1.1 0-1.9-.3-2.6-1s-1-1.6-1-2.7c0-.7.2-1.4.5-1.9s.8-.9 1.4-1.2zm.2 2.9c0 .6.2 1.1.5 1.5s.7.5 1.1.5.8-.2 1.1-.5.4-.8.4-1.5c0-.6-.1-1-.4-1.4s-.7-.5-1.1-.5-.8.2-1.1.5c-.4.4-.5.8-.5 1.4zm.2-5.2c0 .5.1.8.4 1.1.2.3.6.4.9.4.4 0 .7-.1.9-.4s.4-.6.4-1.1-.1-.8-.4-1.1c-.2-.3-.6-.4-.9-.4-.4 0-.7.1-1 .4-.2.3-.3.6-.3 1.1z"/><path d="m132.5 283.7 2.1-.2c.1.5.2.9.5 1.2s.6.5 1 .5.8-.2 1.1-.6.5-1 .5-1.8-.2-1.3-.5-1.7-.7-.5-1.2-.5c-.6 0-1.1.3-1.6.9l-1.7-.3 1.1-6.3h5.5v2.2h-3.9l-.3 2.1c.5-.3 1-.4 1.4-.4.9 0 1.6.3 2.2.9.8.8 1.1 1.8 1.1 3.1 0 1.1-.3 2-1 2.9-.6.9-1.6 1.3-2.8 1.3-1 0-1.8-.3-2.4-.9-.6-.5-1-1.3-1.1-2.4z"/><path d="m145.7 286.9v-12.1h8.1v2h-5.9v2.7h5.5v2h-5.5v3.3h6.1v2h-8.3z"/><path d="m155.8 286.9v-12.1h3.5c1.3 0 2.2.1 2.6.2.6.2 1.2.6 1.6 1.2s.6 1.4.6 2.4c0 .9-.2 1.6-.5 2.2-.4.6-.8 1-1.4 1.2-.5.2-1.5.4-2.8.4h-1.4v4.6h-2.2zm2.2-10.1v3.4h1.2c.8 0 1.4-.1 1.7-.2s.5-.3.7-.6.3-.6.3-1-.1-.7-.3-1-.4-.5-.7-.6-.9-.1-1.8-.1h-1.1z"/><path d="m165.6 280.9c0-1.4.2-2.6.7-3.6.5-.9 1.1-1.6 1.8-2.1.8-.5 1.7-.7 2.8-.7 1.6 0 2.8.5 3.8 1.6s1.5 2.6 1.5 4.6-.5 3.6-1.6 4.8c-.9 1-2.2 1.5-3.7 1.5-1.6 0-2.8-.5-3.7-1.5-1.1-1.1-1.6-2.6-1.6-4.6zm2.2-.1c0 1.4.3 2.4.9 3.1s1.3 1 2.2 1 1.6-.3 2.2-1 .9-1.8.9-3.2-.3-2.4-.8-3.1c-.6-.7-1.3-1-2.2-1s-1.6.3-2.2 1-1 1.8-1 3.2z"/><path d="m184.9 282.4 2.1.8c-.3 1.4-.9 2.3-1.7 3-.8.6-1.7.9-2.9.9-1.4 0-2.6-.5-3.5-1.5-1-1.2-1.5-2.7-1.5-4.7 0-2.1.5-3.7 1.5-4.9.9-1 2.1-1.5 3.6-1.5 1.2 0 2.3.4 3.1 1.1.6.5 1 1.3 1.3 2.4l-2.2.6c-.1-.7-.4-1.2-.8-1.5s-.9-.5-1.5-.5c-.8 0-1.5.3-2 1s-.8 1.7-.8 3.2.2 2.6.7 3.3c.5.6 1.1 1 1.9 1 .6 0 1.1-.2 1.5-.6.7-.6 1-1.2 1.2-2.1z"/><path d="m188.9 286.9v-12.1h2.2v4.8h4.3v-4.8h2.2v12.1h-2.2v-5.3h-4.3v5.3z"/><path d="m211.2 282.4 2.1.8c-.3 1.4-.9 2.3-1.7 3-.8.6-1.7.9-2.9.9-1.4 0-2.6-.5-3.5-1.5-1-1.2-1.5-2.7-1.5-4.7 0-2.1.5-3.7 1.5-4.9.9-1 2.1-1.5 3.6-1.5 1.2 0 2.3.4 3.1 1.1.6.5 1 1.3 1.3 2.4l-2.2.6c-.1-.7-.4-1.2-.8-1.5s-.9-.5-1.5-.5c-.8 0-1.5.3-2 1s-.8 1.7-.8 3.2.2 2.6.7 3.3c.5.6 1.1 1 1.9 1 .6 0 1.1-.2 1.5-.6.7-.6 1-1.2 1.2-2.1z"/><path d="m214.7 280.9c0-1.4.2-2.6.7-3.6.5-.9 1.1-1.6 1.8-2.1.8-.5 1.7-.7 2.8-.7 1.6 0 2.8.5 3.8 1.6s1.5 2.6 1.5 4.6-.5 3.6-1.6 4.8c-.9 1-2.2 1.5-3.7 1.5-1.6 0-2.8-.5-3.7-1.5-1.1-1.1-1.6-2.6-1.6-4.6zm2.3-.1c0 1.4.3 2.4.9 3.1s1.3 1 2.2 1 1.6-.3 2.2-1 .9-1.8.9-3.2-.3-2.4-.8-3.1c-.6-.7-1.3-1-2.2-1s-1.6.3-2.2 1-1 1.8-1 3.2z"/><path d="m227 286.9v-2.3h2.1v2.3z"/><path d="m231.4 286.9v-12h2.2v10h5.5v2z"/><path d="m242 286.9v-10.1h-3.2v-2h8.7v2h-3.2v10.1z"/><path d="m248.8 274.7h4c1 0 1.8.1 2.3.3s1 .6 1.4 1c.4.5.8 1.1 1 1.9s.4 1.8.4 2.9c0 1-.1 2-.4 2.7-.3.8-.6 1.4-1 1.8-.4.5-.9.8-1.4 1-.6.2-1.3.3-2.2.3h-4.1zm2.2 2.1v8h1.7c.7 0 1.2-.1 1.5-.2s.6-.3.8-.5.4-.6.5-1.2c.1-.5.2-1.2.2-2.1s-.1-1.6-.2-2.1-.3-.9-.6-1.2-.6-.5-1-.6c-.3-.1-.9-.1-1.8-.1z"/><path d="m268.4 286.9v-12.1h7.5v2h-5.3v2.9h4.6v2h-4.6v5.1h-2.2z"/><path d="m286.7 286.9h-2.4l-1-2.7h-4.3l-.9 2.7h-2.3l4.3-12.1h2.3zm-4.1-4.8-1.5-4.5-1.5 4.5z"/><path d="m287.8 274.7h4.4c1.2 0 2 .1 2.5.3s.9.5 1.2 1 .5 1.1.5 1.7-.1 1.1-.4 1.6-.7.8-1.1 1c.6.2 1.2.6 1.5 1.1.4.5.5 1.1.5 1.9 0 .9-.2 1.6-.7 2.2s-1 1-1.7 1.1c-.4.1-1.5.1-3.1.1h-3.7v-12zm2.2 2.1v2.8h1.5 1.6c.4-.1.7-.2.9-.4s.3-.6.3-1-.1-.6-.3-.9c-.2-.2-.4-.4-.6-.4-.2-.1-.9-.1-2.1-.1zm0 4.8v3.2h2c.9 0 1.5 0 1.7-.1.3-.1.5-.3.6-.5s.3-.6.3-1-.1-.7-.3-1-.4-.4-.7-.5-.9-.1-1.9-.1z"/><path d="m298.9 286.9v-12.1h4.6c1.2 0 2 .1 2.5.3s.9.6 1.3 1.1c.3.5.5 1.2.5 1.9 0 .9-.3 1.7-.8 2.3s-1.2.9-2.1 1.1c.5.3.9.6 1.2 1s.7 1 1.3 2l1.3 2.4h-2.7l-1.6-2.6c-.6-1-1-1.5-1.2-1.8s-.4-.4-.7-.5c-.2-.1-.6-.1-1.1-.1h-.5v5.1h-2zm2.2-7h1.6c1 0 1.6 0 1.9-.1s.5-.2.7-.5c.2-.2.3-.6.3-1s-.1-.7-.3-.9-.4-.4-.7-.5c-.2-.1-.8-.1-1.8-.1h-1.7z"/><path d="m309.8 286.9v-12.1h2.2v12.1z"/><path d="m322.9 285.3c.5.4 1.1.8 1.8 1l-.8 1.7c-.3-.1-.6-.3-1-.4-.1 0-.6-.4-1.5-1.1-.7.3-1.5.5-2.5.5-1.6 0-2.8-.5-3.8-1.6s-1.5-2.6-1.5-4.7c0-2 .5-3.6 1.5-4.7s2.3-1.6 3.9-1.6 2.8.5 3.8 1.6 1.5 2.6 1.5 4.7c0 1-.1 1.8-.3 2.5-.3.9-.6 1.5-1.1 2.1zm-1.8-1.4c.6-.7.9-1.8.9-3.1 0-1.4-.3-2.5-.8-3.2-.6-.7-1.3-1-2.2-1s-1.6.3-2.2 1-.9 1.7-.9 3.1.3 2.5.9 3.2 1.3 1 2.1 1c.3 0 .6-.1.9-.2-.5-.3-.9-.6-1.4-.8l.6-1.4c.8.5 1.5.9 2.1 1.4z"/><path d="m326 274.7h2.2v6.6c0 1 0 1.7.1 2 .1.5.3.9.7 1.2s.9.4 1.5.4c.5 0 .9-.1 1.2-.3s.5-.5.7-.9c.1-.4.2-1.2.2-2.4v-6.7h2.2v6.4c0 1.6-.1 2.8-.3 3.5s-.6 1.3-1.3 1.8-1.6.7-2.6.7c-1.1 0-2-.2-2.7-.6-.6-.4-1.1-.9-1.4-1.6s-.4-1.9-.4-3.7v-6.4z"/><path d="m337 286.9v-12.1h8.1v2h-5.9v2.7h5.5v2h-5.5v3.3h6.1v2h-8.3z"/><path d="m360.7 286.9h-2.4l-1-2.7h-4.3l-.9 2.7h-2.3l4.3-12.1h2.3zm-4-4.8-1.5-4.5-1.5 4.5z"/><path d="m361.9 274.7h2.2v6.6c0 1 0 1.7.1 2 .1.5.3.9.7 1.2s.9.4 1.5.4c.5 0 .9-.1 1.2-.3s.5-.5.7-.9c.1-.4.2-1.2.2-2.4v-6.7h2.2v6.4c0 1.6-.1 2.8-.3 3.5s-.6 1.3-1.3 1.8c-.7.4-1.6.7-2.6.7-1.1 0-2-.2-2.7-.6-.6-.4-1.1-.9-1.4-1.6s-.4-1.9-.4-3.7v-6.4z"/><path d="m381.1 274.7h2.2v7.7c0 1.2-.1 2.2-.4 2.8s-.7 1.1-1.2 1.4-1.2.5-2 .5c-1 0-1.9-.3-2.5-1s-.9-1.6-.9-3l2.1-.3c0 .7.1 1.2.3 1.5.2.4.6.6 1.1.6s.8-.1 1-.4.3-.9.3-2z"/><path d="m395.5 286.9h-2.4l-1-2.7h-4.4l-.9 2.7h-2.3l4.3-12.1h2.3zm-4.1-4.8-1.5-4.5-1.5 4.5z"/><path d="m396.7 286.9v-12.1h3.5c1.3 0 2.2.1 2.6.2.6.2 1.2.6 1.6 1.2s.6 1.4.6 2.4c0 .9-.2 1.6-.5 2.2-.4.6-.8 1-1.4 1.2-.5.2-1.5.4-2.8.4h-1.4v4.6h-2.2zm2.2-10.1v3.4h1.2c.8 0 1.4-.1 1.7-.2s.5-.3.7-.6.3-.6.3-1-.1-.7-.3-1-.4-.5-.7-.6-.9-.1-1.8-.1h-1.1z"/><path d="m406.4 280.9c0-1.4.2-2.6.7-3.6.5-.9 1.1-1.6 1.8-2.1.8-.5 1.7-.7 2.8-.7 1.6 0 2.8.5 3.8 1.6s1.5 2.6 1.5 4.6-.5 3.6-1.6 4.8c-.9 1-2.2 1.5-3.7 1.5-1.6 0-2.8-.5-3.7-1.5-1.1-1.1-1.6-2.6-1.6-4.6zm2.3-.1c0 1.4.3 2.4.9 3.1s1.3 1 2.2 1 1.6-.3 2.2-1 .9-1.8.9-3.2-.3-2.4-.8-3.1c-.6-.7-1.3-1-2.2-1s-1.6.3-2.2 1-1 1.8-1 3.2z"/><path d="m418.7 286.9v-12.1h2.1l4.5 8.1v-8.1h2.1v12.1h-2.2l-4.4-7.9v7.9z"/><path d="m98.4 279.7-2.1.3c-.2-.7-.6-1.1-1.5-1.1-.5 0-1 .2-1.3.5s-.5.9-.5 1.6c0 .8.2 1.4.5 1.8.3.3.8.5 1.3.5.4 0 .7-.1 1-.3s.4-.5.6-1.1l2.1.3c-.4 1.7-1.7 2.6-3.7 2.6-1.3 0-2.3-.4-2.9-1.1s-1-1.6-1-2.6c0-1.2.4-2.1 1.1-2.8.7-.6 1.7-1 2.8-1 .9 0 1.7.2 2.3.5.6.6 1 1.1 1.3 1.9z"/></g><circle cx="94.7" cy="281.2" fill="none" r="6.4" stroke="#fff" stroke-miterlimit="10" stroke-width="2"/></svg>