<?xml version="1.0" encoding="UTF-8" standalone="no"?>
<!-- Created with Inkscape (http://www.inkscape.org/) -->

<svg
   xmlns:dc="http://purl.org/dc/elements/1.1/"
   xmlns:cc="http://creativecommons.org/ns#"
   xmlns:rdf="http://www.w3.org/1999/02/22-rdf-syntax-ns#"
   xmlns:svg="http://www.w3.org/2000/svg"
   xmlns="http://www.w3.org/2000/svg"
   xmlns:sodipodi="http://sodipodi.sourceforge.net/DTD/sodipodi-0.dtd"
   xmlns:inkscape="http://www.inkscape.org/namespaces/inkscape"
   version="1.1"
   id="svg2"
   width="283.65741"
   height="409.81152"
   viewBox="0 0 283.65741 409.81153"
   sodipodi:docname="switch_.svg"
   inkscape:version="0.92.4 (5da689c313, 2019-01-14)">
  <metadata
     id="metadata8">
    <rdf:RDF>
      <cc:Work
         rdf:about="">
        <dc:format>image/svg+xml</dc:format>
        <dc:type
           rdf:resource="http://purl.org/dc/dcmitype/StillImage" />
        <dc:title />
      </cc:Work>
    </rdf:RDF>
  </metadata>
  <defs
     id="defs6" />
  <sodipodi:namedview
     pagecolor="#ffffff"
     bordercolor="#666666"
     borderopacity="1"
     objecttolerance="10"
     gridtolerance="10"
     guidetolerance="10"
     inkscape:pageopacity="0"
     inkscape:pageshadow="2"
     inkscape:window-width="1600"
     inkscape:window-height="837"
     id="namedview4"
     showgrid="false"
     inkscape:zoom="1.1493507"
     inkscape:cx="197.79523"
     inkscape:cy="178.04413"
     inkscape:window-x="-8"
     inkscape:window-y="-8"
     inkscape:window-maximized="1"
     inkscape:current-layer="svg2" />
  <g
     id="g59"
     transform="matrix(1.0248664,0,0,1,-4.0945984,2.7490222)" />
  <g
     id="g905"
     transform="matrix(0.98786842,0,0,1,292.8928,26.43405)">
    <path
       inkscape:connector-curvature="0"
       id="path27"
       d="m -275.38484,190.99026 0.15558,-104.126458 h 120.27606 120.276072 l 0.15558,104.126458 0.15558,104.12647 H -154.9532 -275.54043 Z"
       style="opacity:1;fill:#ffffff;fill-opacity:1;stroke:#231915;stroke-width:0.52170897;stroke-miterlimit:4;stroke-dasharray:none;stroke-opacity:1" />
    <path
       inkscape:connector-curvature="0"
       id="path12"
       d="m -267.8398,378.00377 c -4.31281,-0.65954 -9.21237,-3.01975 -8.82117,-4.24933 0.23333,-0.73338 0.16693,-0.80087 -0.23705,-0.24095 -1.47709,2.04725 -9.49808,-5.36761 -12.64819,-11.69239 -3.77356,-7.57657 -3.51772,5.92415 -3.51772,-185.63218 0,-127.622321 0.1884,-176.152262 0.69311,-178.538409 0.38121,-1.80227 1.21176,-4.450452 1.84567,-5.884848 0.6339,-1.434395 1.15871,-2.818646 1.16623,-3.076114 0.008,-0.257467 0.587,-1.160247 1.28772,-2.006179 0.83427,-1.007164 1.15475,-1.166432 0.92846,-0.461417 -0.51696,1.610616 -0.0901,1.363757 3.45173,-1.996103 1.78153,-1.690008 4.00048,-3.418692 4.93101,-3.84152 0.93052,-0.422827 1.69186,-0.978045 1.69186,-1.233817 0,-0.255772 0.67579,-0.46504 1.50175,-0.46504 0.82596,0 1.68776,-0.300969 1.9151,-0.668819 0.22735,-0.367851 0.93619,-0.532095 1.57522,-0.364987 0.63902,0.167109 1.02754,0.08651 0.86338,-0.179109 -0.16416,-0.265618 0.55322,-0.653281 1.59418,-0.861473 1.46085,-0.292169 127.34739,-0.522567 219.062232,-0.400928 8.6337,0.01145 11.05901,0.197167 11.76255,0.900712 0.48745,0.487457 1.44496,0.740189 2.12779,0.561625 0.68283,-0.178563 1.42752,-0.02369 1.65486,0.34416 0.22734,0.36785 0.82698,0.668819 1.33252,0.668819 1.3163,0 5.24246,2.789025 4.69575,3.335728 -0.25197,0.251981 -0.18129,0.376258 0.15708,0.276172 0.98075,-0.290089 3.45579,1.310783 3.04762,1.971217 -0.20382,0.329779 -0.1361,0.523526 0.15049,0.430549 0.28659,-0.09298 1.53848,0.955833 2.78197,2.33069 1.93815,2.142904 3.21154,4.575488 5.77658,11.035164 0.26873,0.676745 0.81418,2.891547 1.21212,4.921782 0.523,2.668325 0.74433,3.147268 0.79862,1.728172 0.0414,-1.079742 0.39558,-2.161221 0.78725,-2.403289 0.4993,-0.308584 0.59374,0.0023 0.31601,1.040331 -0.21787,0.81425 -0.4275,79.275378 -0.46585,174.358071 -0.0407,101.03951 -0.29584,172.23849 -0.61386,171.33956 -0.40565,-1.14661 -0.46146,-0.84122 -0.2193,1.19993 0.17866,1.50588 0.61141,3.08328 0.96167,3.50532 0.43933,0.52936 0.43677,1.11122 -0.008,1.87619 -0.57701,0.9918 -0.65221,0.94648 -0.71239,-0.42921 -0.0641,-1.46634 -0.0958,-1.452 -0.67892,0.30761 -2.16302,6.5271 -6.60668,12.69591 -12.31754,17.09956 -1.49215,1.15059 -6.03915,3.40775 -9.73692,4.83347 -1.7764,0.68491 -21.85865,0.84373 -114.739062,0.90743 -61.92217,0.0425 -113.8316,-0.1133 -115.35428,-0.34615 z m 114.76498,-9.30896 c 0.22339,-0.36144 0.8078,-0.50303 1.29871,-0.31466 0.4909,0.18838 0.73513,0.0878 0.54274,-0.22351 -0.19241,-0.31131 1.24668,-1.84792 3.19796,-3.4147 1.95129,-1.56678 3.97637,-3.19627 4.5002,-3.6211 0.52382,-0.42483 1.2938,-0.65862 1.71109,-0.51952 0.41727,0.13909 0.68081,-0.11913 0.58564,-0.57381 -0.097,-0.46336 0.29726,-0.78964 0.89699,-0.74236 0.58851,0.0464 0.93132,-0.14008 0.7618,-0.41438 -0.16953,-0.27429 0.59479,-1.12946 1.69848,-1.90037 1.10369,-0.77091 2.14513,-1.55518 2.31432,-1.74282 0.16919,-0.18764 1.64264,-1.30838 3.27436,-2.49053 5.58148,-4.04372 6.35209,-4.79243 5.33876,-5.18707 -0.50756,-0.19766 -13.10425,-0.28717 -27.99264,-0.1989 -22.94056,0.13601 -27.0698,0.29419 -27.0698,1.03697 0,0.48206 2.63007,2.78374 5.84461,5.11484 3.21454,2.33109 6.39832,4.70517 7.07507,5.27574 0.67674,0.57057 3.44524,2.69055 6.15222,4.71108 2.70698,2.02053 5.45848,4.16612 6.11443,4.76798 1.3344,1.22434 3.13872,1.43438 3.75506,0.43712 z m 137.922252,-29.01632 c -0.13692,-1.10577 -0.25178,-0.34939 -0.25523,1.68085 -0.004,2.03023 0.10858,2.93495 0.24896,2.01049 0.14037,-0.92446 0.1432,-2.58557 0.006,-3.69134 z m -26.41359,-2.8564 c 2.45438,-0.68014 5.27153,-1.87545 6.26034,-2.65625 1.87637,-1.48163 2.32264,-2.34246 1.21439,-2.34246 -0.35835,0 -0.46877,-0.29572 -0.24538,-0.65716 0.22338,-0.36144 0.7901,-0.50983 1.25937,-0.32975 0.46927,0.18007 0.78734,-0.009 0.7068,-0.41948 -0.0805,-0.41078 0.26885,-0.6546 0.77641,-0.54181 0.50756,0.11279 0.73482,0.017 0.50502,-0.21274 -0.22979,-0.22979 0.11557,-1.36744 0.76748,-2.5281 1.1616,-2.06815 1.18544,-5.26284 1.19315,-159.9328 l 0.008,-157.822501 -1.9729,-2.88852 c -2.29329,-3.357614 -2.96883,-3.950088 -6.50107,-5.701631 -2.55881,-1.268851 -3.36906,-1.299739 -36.60576,-1.39551 l -33.989162,-0.09794 -0.16399,-2.460891 c -0.27635,-4.147311 -0.70688,-5.170923 -2.58288,-6.141038 -1.56351,-0.808525 -7.46364,-0.934025 -43.91136,-0.934025 -48.75442,0 -45.00997,-0.494674 -45.00997,5.946231 v 3.589723 l -35.06771,0.307612 c -38.41777,0.336998 -36.59139,0.153423 -40.50971,4.071747 -3.7374,3.737396 -3.47872,-8.386142 -3.47872,163.036383 0,104.33272 -0.20668,157.11431 -0.61522,157.11431 -1.0307,0 -0.69939,1.45591 1.15765,5.08705 0.97508,1.90662 1.59799,3.66277 1.38425,3.90257 -0.21374,0.2398 -0.0877,0.26472 0.28015,0.0554 0.36782,-0.20932 1.29578,0.0586 2.06213,0.59536 1.11485,0.78088 1.22712,1.09478 0.56168,1.57044 -0.63107,0.45108 -0.57198,0.51094 0.24495,0.24815 0.59215,-0.19049 1.51513,-0.17808 2.05106,0.0276 0.79168,0.30379 0.82053,0.48295 0.1538,0.95532 -0.55718,0.39477 -0.20746,0.47671 1.08946,0.25526 1.15122,-0.19658 2.408,0.0226 3.16338,0.5517 1.6749,1.17315 8.54779,1.23327 125.36545,1.09665 94.075632,-0.11002 96.075262,-0.13687 100.448912,-1.34888 z m 26.429,-87.28476 c -0.0912,-16.15729 -0.16588,-2.93769 -0.16588,29.37689 0,32.31458 0.0746,45.53418 0.16588,29.37689 0.0912,-16.15729 0.0912,-42.59649 0,-58.75378 z m 8e-5,-151.912123 c -0.0894,-22.61273 -0.16263,-4.29296 -0.16265,40.710593 -2e-5,45.00355 0.0732,63.50487 0.16262,41.11405 0.0895,-22.39083 0.0895,-59.21192 3e-5,-81.824643 z m -10e-4,-70.454621 c -0.10532,-4.503409 -0.19172,-0.98991 -0.19208,7.807777 -3.5e-4,8.797686 0.0858,12.482293 0.19138,8.188019 0.10561,-4.29428 0.10589,-11.492387 6.2e-4,-15.995796 z m -0.036,-12.648382 c -0.15474,-0.592152 -0.28136,-0.107664 -0.28136,1.076639 0,1.184304 0.12662,1.668792 0.28136,1.07664 0.15474,-0.592152 0.15474,-1.561127 0,-2.153279 z m -0.004,-5.190943 c -0.19639,-0.490784 -0.34217,-0.345002 -0.37169,0.371697 -0.0267,0.648547 0.11869,1.011913 0.32313,0.80748 0.20443,-0.204433 0.22628,-0.735063 0.0485,-1.179177 z M -288.33697,-10.971093 c -0.1964,-0.490783 -0.34218,-0.345002 -0.3717,0.371698 -0.0267,0.648547 0.11869,1.011913 0.32313,0.80748 0.20443,-0.204434 0.22629,-0.735064 0.0486,-1.179178 z"
       style="opacity:1;fill:#3d4146;fill-opacity:1;stroke:#3d4146;stroke-width:5.22200012;stroke-miterlimit:4;stroke-dasharray:none;stroke-opacity:1" />
    <g
       transform="translate(-284.83817,-0.829414)"
       id="g879">
      <path
         style="fill:#e60012"
         d="M 0,0 H 267.70001 V 88.800003 H 0 Z"
         id="rect866"
         inkscape:connector-curvature="0" />
      <path
         style="fill:#ffffff"
         inkscape:connector-curvature="0"
         d="m 28,34.9 c 0,2.5 2,4.5 4.5,4.5 2.5,0 4.5,-2 4.5,-4.5 0,-2.5 -2,-4.5 -4.5,-4.5 v 0 c -2.5,0 -4.5,2 -4.5,4.5 z m 11.7,29.5 h -6.9 c -2.2,0 -4.4,-0.9 -5.9,-2.4 -1.6,-1.6 -2.5,-3.7 -2.5,-5.9 V 32.8 c 0,-2.2 0.9,-4.3 2.4,-5.9 1.6,-1.6 3.7,-2.5 5.9,-2.5 h 6.9 z M 43.2,20.6 H 32.8 c -6.7,0 -12.2,5.5 -12.2,12.2 V 56 c 0,6.7 5.5,12.2 12.2,12.2 h 10.4 c 0.2,0 0.3,-0.2 0.3,-0.3 v 0 -47 c 0.1,-0.1 -0.1,-0.3 -0.3,-0.3 z M 57.7,42 c 2.7,0.1 4.8,2.3 4.7,4.9 -0.1,2.6 -2.1,4.7 -4.7,4.7 C 55,51.5 52.9,49.3 53,46.7 53.1,44.1 55.1,42 57.7,42 Z m -9,26.2 H 56 c 6.7,0 12.2,-5.5 12.2,-12.2 V 32.8 C 68.2,26.1 62.7,20.6 56,20.6 h -7.4 c -0.2,0 -0.3,0.1 -0.3,0.3 v 0 46.9 c 0,0.2 0.2,0.4 0.4,0.4 z M 208.2,32.1 h -2.9 v -7.7 h 2.9 c 2.1,0 3.8,1.7 3.8,3.9 0.1,2.1 -1.7,3.8 -3.8,3.8 z m -0.1,-10.5 h -5.5 v 13.3 h 5.5 c 3.8,0 6.8,-3 6.8,-6.6 0,-3.7 -3,-6.7 -6.8,-6.7 z m -10.2,24.8 c 2.8,0 5.5,1.5 6.9,3.9 l 4.1,-3.5 c -2.5,-3.7 -6.6,-5.9 -11.1,-5.9 -7.4,0 -13.4,6 -13.4,13.4 0,7.4 6,13.4 13.4,13.4 4.5,0 8.6,-2.2 11.1,-5.9 l -4.1,-3.5 c -1.4,2.4 -4,3.9 -6.9,3.9 -4.4,0 -7.9,-3.5 -7.9,-7.8 0,-4.5 3.5,-8 7.9,-8 z M 159.3,47 h 8 v 19.7 h 5.4 V 47 h 7.8 v -5.3 h -21.2 z m 72.2,4.6 h -11.7 v -9.9 h -5.2 v 25 h 5.2 v -10 h 11.7 v 10 h 5.2 v -25 h -5.2 c 0,0 0,9.9 0,9.9 z M 245.9,63 245,65.7 244.1,63 h -1 v 3.7 h 0.7 v -2.9 l 1,2.8 v 0 h 0.6 v 0 l 1,-2.8 v 2.9 h 0.7 V 63 Z M 230.6,32.4 c -2.3,0 -4.1,-1.9 -4.1,-4.1 0,-2.3 1.9,-4.1 4.1,-4.1 2.3,0 4.1,1.9 4.1,4.1 0,2.2 -1.9,4.1 -4.1,4.1 z m 0,-11.2 c -3.9,0 -7.1,3.2 -7.1,7.1 0,3.9 3.2,7.1 7.1,7.1 3.9,0 7.1,-3.2 7.1,-7.1 -0.1,-3.9 -3.2,-7.1 -7.1,-7.1 z m 8.5,42.5 h 1.1 v 3 h 0.7 v -3 H 242 V 63 h -3 z M 168.5,32.4 h -7.6 v -3.1 h 7.1 v -2.4 h -7.1 v -2.8 h 7.6 v -2.5 h -10.3 v 13.3 h 10.3 z m 22.9,2.5 V 21.6 h -2.7 v 8.7 l -6.6,-8.7 h -2.7 v 13.3 h 2.7 V 26 l 6.6,8.9 z m -88.5,0 h 3 V 21.6 h -3 z M 91.3,51.5 c -3.6,-0.6 -5.9,-1.3 -5.9,-3 0,-1.9 2.6,-2.7 6.1,-2.7 3.2,0 6.5,1.2 7.7,1.7 l 1.8,-4.3 c -1.3,-0.5 -5.3,-1.9 -9.7,-1.9 -5.4,0 -11.2,2.6 -11.2,7.5 0,4 2.8,6 10,7.2 5.1,0.9 7.8,1.3 7.8,3.5 0,1.2 -1,3.2 -6.7,3.2 -4.6,0 -7.8,-1.7 -8.9,-2.3 l -2.4,4.3 c 1.3,0.7 5.5,2.7 11,2.7 8,0 12.2,-2.8 12.2,-8 -0.1,-3 -1.2,-6.1 -11.8,-7.9 z m 39.8,8.4 -5.3,-18.2 h -4.4 l -5.3,18.1 -4.8,-18.1 h -5.4 l 7.1,25 h 6 l 4.7,-16.5 4.6,16.5 h 6 l 7.1,-25 H 136 Z M 118.5,26 l 6.6,8.9 h 2.6 V 21.6 H 125 v 8.7 l -6.5,-8.7 h -2.7 v 13.3 h 2.7 z m 29.1,40.7 h 5.6 v -25 h -5.6 z m 0.8,-45.1 h -11.2 v 2.8 h 4.2 v 10.5 h 2.9 V 24.4 h 4.1 z m -64.8,4.4 6.6,8.9 h 2.6 V 21.6 h -2.7 v 8.7 l -6.5,-8.7 h -2.7 v 13.3 h 2.7 z"
         id="path868" />
    </g>
    <path
       style="opacity:1;fill:#3d4146;fill-opacity:1;stroke:#010000;stroke-width:0.52170897;stroke-miterlimit:4;stroke-dasharray:none;stroke-opacity:1"
       d="M 27.415909,406.20247 C 23.579182,405.30039 16.538518,401.2486 13.42733,398.15225 11.833824,396.56635 9.5376859,393.63518 8.324802,391.63856 3.9391437,384.41899 4.2599852,399.25529 4.257287,203.54918 4.2552403,55.090587 4.3901344,26.539474 5.1045943,24.211726 7.2352264,17.270014 9.3100584,13.390783 10.499173,14.125696 c 0.305904,0.189059 1.643042,-0.638163 2.971418,-1.838271 3.404143,-3.0754388 6.454272,-4.8895721 11.073297,-6.5860934 L 28.542836,4.2325579 142.35906,4.224771 c 94.95402,-0.0065 114.27503,0.1326999 116.58473,0.839924 5.31747,1.628202 8.94935,3.6603037 12.78623,7.154112 3.12478,2.845391 4.38074,4.596944 6.55437,9.14065 1.47889,3.091424 2.87592,6.709018 3.10451,8.039098 0.29502,1.716579 0.5703,2.168061 0.94865,1.555874 0.29317,-0.474348 0.75571,-0.639777 1.0279,-0.367618 0.27217,0.272158 0.50976,79.028049 0.52796,175.013079 0.0319,168.10439 0.0204,169.96223 -0.31342,50.55084 l -0.34652,-123.9674 -0.14874,126.12068 c -0.0818,69.36638 -0.37882,126.06696 -0.66001,126.00128 -0.28119,-0.0657 -1.0173,1.04174 -1.6358,2.46089 -4.38625,10.06433 -14.29795,18.15117 -23.96134,19.54979 -4.95347,0.71693 -226.345535,0.6074 -229.411671,-0.1135 z M 148.27549,393.49923 c 2.47728,-1.94564 5.81903,-4.50651 7.4261,-5.69081 1.60707,-1.1843 5.62715,-4.22966 8.9335,-6.76745 l 6.01156,-4.61417 -27.02616,-0.16036 c -15.07013,-0.0894 -27.26666,0.0801 -27.5698,0.38328 -0.64828,0.64828 25.20678,20.38704 26.70422,20.38704 0.55903,0 3.04328,-1.59189 5.52058,-3.53753 z M 254.022,365.05481 c 5.00648,-0.95778 8.95339,-3.07402 8.78601,-4.71085 -0.0885,-0.86597 0.28395,-1.42697 1.08695,-1.63696 0.71331,-0.18653 1.78072,-1.55834 2.56515,-3.29668 l 1.34346,-2.97721 0.24422,-156.88182 0.24422,-156.881828 -2.31786,-3.496704 c -1.6226,-2.447858 -3.25529,-4.016431 -5.44314,-5.229394 l -3.12528,-1.73269 -34.22341,-0.19094 -34.22341,-0.190939 -0.41414,-3.660505 c -0.32482,-2.871059 -0.71912,-3.860341 -1.82832,-4.58711 -1.22426,-0.802167 -7.04846,-0.928057 -43.36843,-0.937407 -33.05791,-0.0085 -42.3074,0.157891 -43.619632,0.784729 -1.511751,0.722145 -1.682266,1.149704 -1.848536,4.635044 l -0.183158,3.839517 -18.273527,0.05885 C 69.372733,27.994283 53.37759,28.201917 43.878411,28.42333 l -17.271235,0.402571 -2.552546,1.689238 c -3.421162,2.264078 -4.361544,4.338292 -4.722899,10.417374 -0.677983,11.405722 -0.940961,62.534677 -0.954267,185.530597 -0.01396,129.05943 -0.01119,129.35298 1.243051,131.8115 0.691373,1.3552 1.476063,2.46401 1.743755,2.46401 0.267691,0 1.023403,0.48448 1.679359,1.07664 1.299559,1.17315 3.400961,2.25015 5.806818,2.97608 3.549533,1.07101 30.831089,1.31812 123.659793,1.12012 65.24638,-0.13917 99.26189,-0.42622 101.51176,-0.85665 z m 29.34966,-240.71557 c -0.14664,-0.76134 -0.26662,-0.13842 -0.26662,1.38425 0,1.52268 0.11998,2.14559 0.26662,1.38425 0.14664,-0.76133 0.14664,-2.00716 0,-2.7685 z"
       id="path14"
       inkscape:connector-curvature="0"
       transform="matrix(1.0248664,0,0,1,-300.58104,-23.685028)" />
    <path
       style="opacity:1;fill:#020100;fill-opacity:1;stroke:#020100;stroke-width:0.52170897;stroke-miterlimit:4;stroke-dasharray:none;stroke-opacity:1"
       d="m 140.821,395.81228 c 0,-0.28786 -3.11456,-2.86463 -6.92125,-5.72617 -3.80669,-2.86153 -8.99667,-6.82865 -11.53329,-8.81583 -2.53661,-1.98717 -4.6822,-3.54382 -4.76797,-3.45923 -0.0858,0.0846 -0.15595,0.0154 -0.15595,-0.15381 v -0.92283 c 0,-0.40158 9.34689,-0.59686 26.91599,-0.56234 14.8038,0.0291 26.19376,0.27153 25.31102,0.53878 -0.88275,0.26725 -3.78968,2.19106 -6.45984,4.27514 -2.67017,2.08408 -6.10068,4.762 -7.62336,5.95094 -9.41034,7.34778 -14.76535,10.56664 -14.76535,8.87535 z"
       id="path18"
       inkscape:connector-curvature="0"
       transform="matrix(1.0248664,0,0,1,-300.58104,-23.685028)" />
    <path
       inkscape:connector-curvature="0"
       style="opacity:1;fill:#231915;fill-opacity:1;stroke:#231915;stroke-width:0.52170897;stroke-miterlimit:4;stroke-dasharray:none;stroke-opacity:1"
       d="m 265.30664,110.54883 c -0.0293,0.029 -0.059,0.66999 -0.0898,1.65234 -0.0354,-0.81352 -0.0728,-1.30403 -0.11328,-1.24219 -0.38678,0.59081 -0.60729,27.59422 -0.61329,75.05664 -0.006,40.77389 -0.1939,87.63129 -0.41796,104.12696 l -0.40821,29.99219 H 141.95117 20.238281 l 0.02148,1.38281 c 0.01219,0.76134 0.266934,8.11372 0.566406,16.33789 0.581567,15.97111 0.577696,15.95697 4.132812,19.79101 0.786359,0.84804 1.429688,1.75253 1.429688,2.00977 0,0.25724 0.485973,0.47156 1.078125,0.47656 0.592152,0.005 1.490488,0.29129 1.998047,0.63477 0.68468,0.46333 0.487668,0.52204 -0.767578,0.23047 -2.374885,-0.55165 -2.119228,0.19798 0.30664,0.89843 2.260996,0.65283 222.011489,0.81322 227.478509,0.16602 0.84979,-0.1006 1.58833,-0.25443 2.1543,-0.41992 0.32371,-0.037 0.54816,-0.0763 0.61523,-0.11719 0.84224,-0.5136 1.00142,-0.67976 0.19727,-0.74219 -0.23613,-0.16682 -0.61338,-0.25419 -1.00781,-0.19336 -0.56996,0.0879 0.003,-0.403 1.27343,-1.09179 1.27017,-0.68878 3.07074,-2.42222 4,-3.85157 l 1.68946,-2.59765 0.0645,-50.98438 c 0.0515,-17.16721 0.093,-39.94754 0.14648,-70.74023 0.11591,-66.7085 -0.0235,-121.05734 -0.30858,-120.77539 z M 68.876953,326.38086 c 0.303611,0.0168 0.604278,0.30121 1.144531,0.86719 1.217243,1.27521 3.417361,7.68355 3.958985,11.52929 0.431094,3.06094 -0.893801,3.6516 -3.210938,1.43164 -2.098454,-2.01043 -2.751953,-2.02358 -4.02539,-0.0801 -1.11322,1.69899 -2.678454,2.02039 -3.201172,0.6582 -0.528869,-1.37821 2.853736,-12.48214 4.164062,-13.66797 0.55835,-0.5053 0.866311,-0.75505 1.169922,-0.73828 z m 91.013667,0.13086 c 0.5063,-0.0461 1.22161,0.32316 2.10157,1.20312 0.42705,0.42706 0.72847,0.71771 0.97656,0.90821 0.003,0.52068 0.1872,0.5879 0.63672,0.23437 0.2667,-0.0506 0.52919,-0.31394 0.96094,-0.79101 0.58023,-0.64114 1.7026,-1.16602 2.49609,-1.16602 1.73814,0 1.9454,1.88396 0.51953,4.74219 -0.93034,1.86491 -0.70435,5.3987 0.38867,6.07422 0.76495,0.47277 0.66258,3.18253 -0.13867,3.67773 -0.37054,0.22901 -1.50112,-0.19475 -2.51367,-0.94336 l -1.8418,-1.36133 -0.0957,0.10352 -0.0801,-0.0703 -0.13281,0.29883 -0.89258,0.95703 c -0.6567,0.70488 -1.24149,1.11463 -1.73437,1.28711 -0.30271,0.0426 -0.59618,0.0386 -0.87891,0.0117 -0.88238,-0.38801 -1.00931,-2.19497 0.10937,-4.77929 1.17041,-2.70381 1.18834,-3.03451 0.28711,-5.06055 -1.38444,-3.11236 -1.28182,-5.22467 -0.16797,-5.32617 z m 56.35157,0.125 c 2.264,-0.004 5.28648,0.72789 6.26367,1.70508 2.24078,2.24078 -0.0282,7.77347 -3.19727,7.79687 -1.91304,0.0141 -2.64399,0.69429 -3.24804,3.02539 -0.30078,1.16076 -0.86159,2.21558 -1.2461,2.34375 -1.34111,0.44704 -2.01172,-2.2626 -2.01172,-8.12109 0,-5.72148 0.0455,-5.91756 1.53125,-6.48242 0.48238,-0.1834 1.15354,-0.26632 1.90821,-0.26758 z m 12.24023,0.0254 c 0.83927,0.0385 1.80146,0.795 2.51953,2.18359 0.16474,0.31856 0.33225,0.56105 0.49805,0.76953 0.31573,0.74526 0.54457,0.92884 0.83203,0.59766 0.44844,0.0429 0.77149,-0.45709 0.77149,-1.52148 0,-1.50008 1.7706,-2.27935 2.52539,-1.11133 0.30522,0.47227 0.48599,3.76545 0.40039,7.31836 -0.14422,5.98933 -0.24762,6.47291 -1.41992,6.64062 -0.69542,0.0995 -1.76962,-0.3767 -2.38672,-1.05859 -1.11757,-1.23491 -1.12845,-1.23527 -2.66407,-0.0274 -1.86503,1.46704 -2.36062,1.50942 -2.84765,0.24024 -0.21625,-0.56353 -0.33068,-2.21142 -0.35938,-4.14648 -9.9e-4,-0.16552 -0.003,-0.33275 -0.004,-0.50977 -0.0224,-3.25154 0.18363,-7.10796 0.57031,-8.125 0.33322,-0.87643 0.91169,-1.27997 1.56445,-1.25 z m -136.041014,0.22266 c 1.001798,-0.13052 2.014935,0.87275 2.431641,2.63476 0.174377,0.73734 0.361765,1.27844 0.554687,1.65039 0.05546,0.16153 0.121376,0.28454 0.203125,0.32813 0.455049,0.5692 0.913564,0.13257 1.242188,-1.36719 0.64735,-2.95433 0.817694,-3.23047 2.015625,-3.23047 1.485268,0 1.943358,2.11608 1.943358,8.99805 0,5.1029 -0.0162,5.15234 -1.558592,5.15234 -1.579892,0 -1.740405,-0.2165 -2.400391,-3.22851 -0.271506,-1.2391 -0.608429,-1.74833 -0.957031,-1.56836 -0.269756,-0.19091 -0.503825,0.11287 -0.585938,0.9707 -0.140318,0.38705 -0.279323,0.85921 -0.410156,1.4707 -0.610676,2.85424 -1.302594,3.37209 -2.919922,2.18946 -0.911527,-0.66652 -1.095607,-1.78845 -1.123047,-6.82618 -0.01805,-3.31603 0.247835,-6.30839 0.589844,-6.65039 0.309349,-0.30935 0.640677,-0.47993 0.974609,-0.52343 z m 33.851564,0.006 c 1.84456,-0.14444 2.07405,1.45505 0.56055,4.62891 -0.90582,1.89953 -0.93912,2.46755 -0.23829,4.17383 1.43371,3.49053 1.54004,5.29967 0.33594,5.76172 -0.74427,0.28561 -1.51088,-0.0718 -2.42187,-1.13086 l -1.33203,-1.54883 -1.68165,1.44531 c -0.83944,0.72205 -1.73644,1.29938 -2.14648,1.4043 -0.11442,0.002 -0.22936,0.006 -0.33789,-0.004 -0.97226,-0.2339 -1.07002,-2.07623 -0.13867,-4.02929 0.81125,-1.70121 1.09754,-3.04079 0.86328,-4.41211 -0.15305,-0.89591 -0.52125,-1.80663 -1.13086,-2.83985 -0.7036,-1.19251 -1.10273,-2.45322 -0.88672,-2.80273 0.53145,-0.85991 2.97955,-0.80561 3.8711,0.0859 0.55195,0.55196 1.09326,0.55196 2.30468,0 0.96928,-0.44164 1.76405,-0.68428 2.37891,-0.73243 z m 80.01953,0.01 c 1.24639,0 1.56836,1.46149 1.56836,7.12695 0,4.35878 -0.19491,5.37265 -1.23047,6.40821 -2.63543,2.63543 -7.07152,0.726 -6.66016,-2.86719 0.1701,-1.48572 0.47463,-1.74609 2.04493,-1.74609 1.81122,0 1.85201,-0.069 2.15625,-3.69141 0.33493,-3.9877 0.83837,-5.23047 2.12109,-5.23047 z m -32.65039,0.01 c 0.79654,-0.004 1.72162,0.3052 2.23828,0.92773 0.69612,0.83878 0.9269,0.83878 2.20703,0 1.58627,-1.03936 3.67733,-1.23311 4.19922,-0.38867 0.18639,0.30159 -0.23736,1.85515 -0.94336,3.45117 -1.21681,2.75079 -1.23269,3.03562 -0.30273,5.4707 1.74703,4.57452 1.02427,6.11834 -2.01953,4.32032 -1.64624,-0.97242 -1.87167,-0.97459 -3.2129,-0.0352 -1.66971,1.16952 -1.78727,1.18577 -3.00781,0.41406 -0.78896,-0.49882 -0.79895,-0.85641 -0.0762,-2.60547 0.46945,-1.13603 0.78315,-2.16623 0.96094,-3.11914 0.261,-0.86647 0.31054,-1.53268 0.14453,-2.25781 -0.0701,-0.85865 -0.2914,-1.64705 -0.67188,-2.38281 -0.53937,-1.04301 -0.98046,-2.32525 -0.98046,-2.84961 0,-0.62487 0.66829,-0.94172 1.46484,-0.94531 z m -27.33203,0.0215 c 0.70486,-0.0606 1.6172,0.11827 2.44726,0.5625 0.1986,0.10629 0.41993,0.17414 0.65821,0.2168 0.44807,0.21586 0.78946,0.20085 1.28711,-0.043 0.33884,-0.0656 0.69392,-0.1582 1.08203,-0.30469 2.95128,-1.11398 3.62056,-0.0569 2.38476,3.76953 -0.90402,2.79909 -0.90307,3.30076 0.0176,6.17969 0.79563,2.48801 0.84436,3.28846 0.24024,3.89258 -0.60412,0.60412 -1.1255,0.55122 -2.53516,-0.25781 -1.52448,-0.87493 -1.93211,-0.89946 -2.89453,-0.16993 -1.48028,1.12204 -3.22718,1.11193 -3.66211,-0.0215 -0.19211,-0.50063 0.27024,-2.19176 1.0293,-3.75977 l 1.38085,-2.85156 -1.31835,-2.71484 c -0.72552,-1.49334 -1.32032,-3.12259 -1.32032,-3.6211 0,-0.51555 0.49827,-0.81639 1.20313,-0.87695 z m -6.13672,0.002 c 0.6878,-0.0501 1.27202,0.13163 1.53711,0.56055 0.20129,0.32569 -0.30832,1.91976 -1.13086,3.54297 l -1.49609,2.95117 1.20312,2.3457 c 2.07043,4.03569 0.51766,6.83915 -2.32226,4.19336 -1.23259,-1.14839 -1.29751,-1.14782 -2.75,-0.0312 -3.24886,2.49747 -4.47307,0.65189 -2.44336,-3.68164 l 1.36328,-2.91211 -1.34571,-2.58203 c -0.73998,-1.41968 -1.18608,-2.99469 -0.99218,-3.5 0.44326,-1.15514 2.20351,-1.18089 3.80859,-0.0566 1.05413,0.73833 1.39846,0.73833 2.4082,0 0.68079,-0.4978 1.47236,-0.77999 2.16016,-0.83008 z m -87.578126,0.01 c 0.509929,0.0412 1.052399,0.42887 1.4375,1.14844 0.350277,0.6545 0.636719,3.10977 0.636719,5.45703 v 4.26758 l 3.076172,0.4082 c 2.441566,0.32389 3.076172,0.64517 3.076172,1.55273 0,0.62889 -0.437422,1.31025 -0.972656,1.51563 -1.315629,0.50487 -7.948149,0.47568 -8.460938,-0.0371 -0.512727,-0.51272 -0.544795,-12.05785 -0.03711,-13.38086 0.256219,-0.66769 0.734212,-0.97289 1.24414,-0.93164 z m 56.779296,5.23437 c 4.74512,-0.0526 6.35513,0.74745 5.20117,2.58399 -0.50759,0.80785 -1.70148,1.10298 -5.02539,1.24023 -3.92944,0.16225 -4.43039,0.0495 -5.06836,-1.14257 -1.07649,-2.01145 0.0478,-2.62795 4.89258,-2.68165 z m -27.619139,0.25977 c 5.173581,0 6.136718,0.34988 6.136718,2.2207 0,1.42823 -0.146037,1.47071 -4.847656,1.47071 -5.074626,0 -6.622911,-0.7099 -5.863281,-2.68946 0.30266,-0.78872 1.271829,-1.00195 4.574219,-1.00195 z m 108.193359,0 c 5.26119,0 6.22266,0.34423 6.22266,2.2207 0,1.43783 -0.12411,1.47071 -5.25,1.47071 -4.09798,0 -5.32509,-0.20137 -5.60157,-0.92188 -0.11868,-0.30928 -0.18586,-0.57945 -0.22265,-0.82812 v -0.0527 c 0,-0.2757 0.0196,-0.5215 0.0586,-0.74414 0.3588,-0.85598 1.79632,-1.14453 4.79297,-1.14453 z M 31.925781,361.43359 c 0.278773,0 0.558048,0.0436 0.769531,0.12891 0.422967,0.17067 0.0764,0.30859 -0.769531,0.30859 -0.845929,0 -1.190544,-0.13792 -0.767578,-0.30859 0.211483,-0.0853 0.488805,-0.12891 0.767578,-0.12891 z"
       id="path22"
       transform="matrix(1.0248664,0,0,1,-300.58104,-23.685028)" />
    <path
       style="opacity:1;fill:#ffffff;fill-opacity:1;stroke:#231915;stroke-width:0.52170897;stroke-miterlimit:4;stroke-dasharray:none;stroke-opacity:1"
       d="M 22.698219,215.23842 V 111.57337 H 142.66667 262.63512 V 215.23842 318.90346 H 142.66667 22.698219 Z"
       id="path29"
       inkscape:connector-curvature="0"
       transform="matrix(1.0248664,0,0,1,-300.58104,-23.685028)" />
    <path
       inkscape:connector-curvature="0"
       style="opacity:1;fill:#020100;fill-opacity:1;stroke:#020100;stroke-width:0.52170897;stroke-miterlimit:4;stroke-dasharray:none;stroke-opacity:1"
       d="m 184.95508,16.71875 c -0.0489,-0.0024 -0.088,0.01042 -0.11524,0.03711 -0.2183,0.213497 -0.0165,0.767221 0.44727,1.230469 0.71365,0.712907 -1.05526,0.831028 -11.50781,0.773438 l -12.34766,-0.06836 11.07422,0.439453 c 6.09071,0.241719 11.14196,0.479817 11.22656,0.529297 0.53436,0.312581 0.0126,4.364444 -0.63086,4.898438 -0.43156,0.358161 -2.16243,0.756879 -3.8457,0.886718 -1.73947,0.134174 -0.47838,0.284627 2.91992,0.347657 5.06869,0.09401 5.92465,-0.0289 5.62695,-0.804688 -0.19314,-0.503325 -0.0694,-1.719558 0.27344,-2.703125 0.5418,-1.554224 0.39698,-2.059216 -1.10742,-3.853515 -0.83303,-0.993558 -1.67112,-1.696003 -2.01367,-1.712892 z m -85.037111,1.208984 c -0.225226,0.0164 -0.608288,0.127915 -1.150391,0.335938 -0.513868,0.19719 -0.813916,0.68121 -0.666016,1.076172 0.147903,0.394963 0.05395,1.963651 -0.208984,3.486328 l -0.478516,2.769531 -15.363281,0.324219 -15.363281,0.322266 15.804688,0.138671 c 8.693122,0.07567 15.95183,-0.099 16.130859,-0.388671 0.179029,-0.289671 1.787623,-0.412523 3.574223,-0.273438 2.72334,0.212009 3.04916,0.134108 2.01757,-0.480469 -1.6675,-0.993433 -2.75368,-1.948501 -3.23828,-2.791015 0.34678,0.438401 1.31816,1.188505 2.46875,1.878906 l 2.61524,1.568359 37.52929,-0.148437 c 28.38023,-0.113292 37.85057,-0.334792 38.85157,-0.908203 0.97317,-0.557471 1.30747,-1.31523 1.26367,-2.861329 l -0.0586,-2.103515 -10.5664,-0.439453 c -5.40259,-0.225074 -16.49056,-0.297822 -28.30078,-0.259766 -19.68371,0.06343 -41.37388,0.431643 -42.10157,0.894531 -0.50756,0.322862 -1.13098,0.590504 -1.38476,0.595703 -0.25378,0.0052 -0.46094,0.216924 -0.46094,0.470704 v 1.03125 c -0.38297,-0.90009 -0.0247,-1.652245 1.12305,-2.15625 0.56599,-0.248534 6.28967,-0.648073 12.71875,-0.886719 l 11.68945,-0.433594 -12.7168,0.07031 c -6.99372,0.03805 -12.92813,0.280951 -13.1875,0.541015 -0.25938,0.260063 -0.661187,1.644373 -0.894527,3.076172 l -0.423828,2.603516 -0.07813,-2.798828 c -0.04235,-1.539595 0.256062,-3.133016 0.662109,-3.539063 0.504916,-0.504914 0.568736,-0.74218 0.19336,-0.714844 z"
       id="path45"
       transform="matrix(1.0248664,0,0,1,-300.58104,-23.685028)" />
    <path
       transform="matrix(1.0248664,0,0,1,-300.58104,-23.685028)"
       style="fill:#231915;fill-opacity:1;fill-rule:evenodd;stroke-width:0.98779398"
       d="M 66.741891,324.27878 H 227.84231 c 7.09733,0 12.81105,5.71373 12.81105,12.81105 v 0.6655 c 0,7.09732 -5.71372,12.81105 -12.81105,12.81105 H 66.741891 c -7.09732,0 -12.811048,-5.71373 -12.811048,-12.81105 v -0.6655 c 0,-7.09732 5.713728,-12.81105 12.811048,-12.81105 z"
       id="rect881"
       inkscape:connector-curvature="0" />
    <path
       inkscape:connector-curvature="0"
       id="path16"
       d="m -160.25511,370.65923 c -2.19942,-1.68936 -4.59167,-3.61032 -5.31611,-4.2688 -0.72444,-0.65848 -1.60113,-1.19723 -1.9482,-1.19723 -0.34708,0 -0.72333,-0.22394 -0.83613,-0.49763 -0.11279,-0.2737 -1.86617,-1.72716 -3.89641,-3.22992 -2.03023,-1.50276 -4.38063,-3.3552 -5.2231,-4.11654 -0.84248,-0.76134 -1.71262,-1.38425 -1.93366,-1.38425 -0.22103,0 -0.53457,-0.34607 -0.69676,-0.76903 -0.23287,-0.60731 5.28409,-0.78206 26.23496,-0.83098 14.59141,-0.0341 25.56085,0.13712 24.37655,0.38043 -1.1843,0.24331 -1.91945,0.47882 -1.63365,0.52336 0.45283,0.0706 -0.47062,0.90628 -5.90986,5.34824 -0.59602,0.48674 -1.24155,0.88498 -1.43452,0.88498 -0.46821,0 -6.03884,4.48796 -6.3,5.07559 -0.11279,0.25378 -0.47363,0.46142 -0.80185,0.46142 -0.32823,0 -2.48136,1.52267 -4.78475,3.38372 -2.30338,1.86105 -4.57263,3.36674 -5.04277,3.34597 -0.47013,-0.0208 -2.65432,-1.41996 -4.85374,-3.10933 z"
       style="opacity:1;fill:#020100;fill-opacity:1;stroke:#020100;stroke-width:0.52170897;stroke-miterlimit:4;stroke-dasharray:none;stroke-opacity:1" />
    <path
       inkscape:connector-curvature="0"
       id="path20"
       d="m -154.56377,337.97615 110.43249,-0.31973 -110.52048,-0.15129 c -101.06119,-0.13834 -110.5531,-0.23629 -110.90157,-1.14438 -0.26217,-0.68323 -0.87484,-0.89871 -1.96353,-0.69059 -1.3127,0.25094 -1.53096,0.10561 -1.28039,-0.85258 0.16613,-0.63529 0.0419,-1.15508 -0.27608,-1.15508 -0.93859,0 -4.51443,-3.91288 -4.7876,-5.23885 -0.13835,-0.67154 -0.32996,-7.66605 -0.42581,-15.54334 -0.0958,-7.8773 -0.34746,-14.86805 -0.55914,-15.53499 -0.34529,-1.08792 -0.21931,-1.14968 1.22505,-0.60054 1.74869,0.66486 238.24283,0.89131 240.71737,0.2305 l 1.38425,-0.36965 0.0433,-104.05472 c 0.0238,-57.23009 0.282,-104.60841 0.57383,-105.28515 0.51587,-1.19631 0.30485,193.88204 -0.2449,226.39987 -0.24874,14.71276 -0.3607,16.0431 -1.39793,16.61101 -0.62014,0.33955 -1.23619,0.67988 -1.369,0.7563 -0.13282,0.0764 0.10872,0.5609 0.53674,1.07664 0.64286,0.77459 0.6046,0.9377 -0.21994,0.9377 -0.54899,0 -0.99816,0.29715 -0.99816,0.66033 0,0.36318 -0.48449,0.56285 -1.07664,0.44369 -0.59215,-0.11915 -1.61333,0.27583 -2.26929,0.87773 -0.65595,0.6019 -1.71048,1.09436 -2.34339,1.09436 -0.63291,0 -0.97928,0.27745 -0.7697,0.61656 0.20958,0.33911 1.54096,0.4779 2.95862,0.30844 2.52982,-0.30241 2.54338,-0.29418 0.7319,0.44454 -1.43119,0.58364 -27.19798,0.7583 -114.73906,0.7778 l -112.89339,0.0252 110.4325,-0.31972 z m 66.40985,-21.78357 c 0.42562,-0.79527 0.62824,-3.70031 0.51971,-7.45115 -0.17042,-5.88967 -0.2374,-6.15612 -1.596,-6.34871 -2.48677,-0.35253 -3.19606,0.88606 -3.19606,5.58108 0,3.69505 -0.12684,4.20129 -0.89331,3.56518 -0.49132,-0.40776 -1.4603,-0.56142 -2.15328,-0.34148 -0.98947,0.31405 -1.25997,0.92125 -1.25997,2.82837 0,2.05164 0.29342,2.60691 1.89091,3.57841 1.5456,0.93993 2.26524,1.03505 3.94066,0.52085 1.12736,-0.346 2.36366,-1.21564 2.74734,-1.93255 z m -147.77307,1.70158 c 1.02969,-0.27594 1.38425,-0.82533 1.38425,-2.14487 0,-1.71855 -0.096,-1.77392 -3.07612,-1.77392 -2.02489,0 -3.09267,-0.2628 -3.12458,-0.76903 -0.0267,-0.42296 -0.008,-2.483 0.0411,-4.57785 0.11184,-4.75667 -0.70893,-6.48505 -2.9563,-6.22542 l -1.65049,0.19068 -0.17423,7.33374 c -0.12957,5.45354 0.0282,7.46217 0.61522,7.83467 0.92028,0.58394 6.92403,0.67257 8.94116,0.132 z m 5.9481,0.0143 c 0.53524,-0.20539 0.97315,-0.70372 0.97315,-1.1074 0,-1.12491 1.28025,-2.15278 2.22825,-1.789 0.46633,0.17895 0.84787,0.81717 0.84787,1.41826 0,1.13712 1.85185,1.78037 3.90661,1.35697 0.92805,-0.19124 1.06356,-0.59305 0.73419,-2.17705 -0.22216,-1.06838 -0.55592,-2.98244 -0.74168,-4.25346 -0.18577,-1.27102 -0.58537,-2.46397 -0.888,-2.651 -0.30263,-0.18704 -0.55023,-0.8349 -0.55023,-1.43969 0,-0.60479 -0.43555,-1.9727 -0.9679,-3.0398 -0.75144,-1.5063 -1.36573,-1.94019 -2.74685,-1.94019 -2.15548,0 -2.58929,0.7241 -4.60869,7.69265 -1.80445,6.22676 -1.87638,7.5046 -0.44349,7.87905 0.59215,0.15475 1.12321,0.31347 1.18013,0.35273 0.0569,0.0392 0.54141,-0.0967 1.07664,-0.30207 z m 56.49701,-1.65438 1.07664,-1.23657 v 1.25788 c 0,1.36276 2.24027,2.28863 3.95007,1.63252 1.07938,-0.4142 1.34946,-3.62651 0.35649,-4.24019 -0.33837,-0.20913 -0.61522,-0.91759 -0.61522,-1.57437 0,-0.65677 -0.27685,-1.19413 -0.61522,-1.19413 -0.97439,0 -0.69388,-1.40253 0.61522,-3.07612 0.6617,-0.84593 1.20924,-2.43782 1.21676,-3.53753 0.0128,-1.87212 -0.12151,-1.99947 -2.10902,-1.99947 -1.30002,0 -2.33474,0.37888 -2.6698,0.97759 -0.49742,0.88883 -0.63943,0.88527 -1.56401,-0.0393 -1.52979,-1.52979 -4.96788,-1.03361 -5.2217,0.75359 -0.10813,0.76134 0.0995,1.38425 0.46142,1.38425 0.3619,0 0.65801,0.41528 0.65801,0.92284 0,0.50756 0.24684,0.92283 0.54852,0.92283 0.3017,0 0.72995,0.7228 0.95167,1.60623 0.28368,1.13028 -0.0806,2.53134 -1.22933,4.72828 -1.55377,2.97153 -1.57896,3.16117 -0.52252,3.93366 1.32833,0.9713 3.23233,0.47753 4.71202,-1.22197 z m 12.81217,0.75722 c 0.85151,-0.73852 1.55746,-0.9932 1.68581,-0.60818 0.42671,1.28016 2.42826,1.9039 4.08642,1.27347 1.35777,-0.51623 1.53017,-0.85633 1.1695,-2.30718 -0.23266,-0.93593 -0.9543,-2.42389 -1.60364,-3.30658 -1.17692,-1.59986 -1.17543,-1.61482 0.47409,-4.76946 0.91009,-1.74051 1.49561,-3.57917 1.30115,-4.08592 -0.37784,-0.98464 -4.08351,-1.32218 -4.08351,-0.37195 0,1.07081 -2.11182,1.37553 -2.82009,0.40692 -0.92573,-1.26601 -3.7104,-1.23077 -4.2031,0.0532 -0.38762,1.01013 0.0874,3.3331 0.80008,3.91228 1.20109,0.97615 1.65415,2.77317 1.03576,4.10831 -0.3615,0.7805 -0.84291,1.42126 -1.0698,1.4239 -0.83853,0.01 -1.23253,3.74873 -0.48939,4.64417 1.01664,1.22497 1.9865,1.12764 3.71672,-0.37296 z m 14.14556,-0.0516 c 0.19213,-0.29759 1.22013,-0.10666 2.28444,0.42429 1.47111,0.73389 2.23343,0.8057 3.17928,0.2995 1.23063,-0.65862 1.23177,-0.6985 0.10385,-3.66693 -1.28365,-3.37828 -1.302,-4.28872 -0.15328,-7.60315 0.44461,-1.28285 0.65341,-2.73631 0.464,-3.22992 -0.4154,-1.08251 -3.53448,-1.19124 -4.56653,-0.15919 -0.5742,0.5742 -0.90233,0.5742 -1.47653,0 -0.86582,-0.86582 -4.56852,-0.99327 -5.07445,-0.17468 -0.39114,0.63289 0.32605,2.47765 2.10466,5.41358 0.695,1.14722 0.95022,2.13163 0.60757,2.3434 -0.32496,0.20084 -0.59085,0.86863 -0.59085,1.48397 0,0.61535 -0.38536,1.43863 -0.85635,1.82951 -1.55037,1.2867 -1.63658,3.15541 -0.1725,3.73929 1.41679,0.56503 3.56407,0.20272 4.14669,-0.69967 z m 12.10892,0.93435 c 0.76134,-0.20402 1.38426,-0.75395 1.38426,-1.22204 0,-1.13965 1.17831,-1.08756 1.62318,0.0718 0.23087,0.60162 1.18779,0.92283 2.7492,0.92283 2.14459,0 2.39507,-0.16085 2.39507,-1.53806 0,-0.84593 -0.22518,-1.53805 -0.5004,-1.53805 -1.34331,0 -2.59176,-5.88112 -1.43661,-6.76746 0.94999,-0.72891 2.06987,-3.68816 1.73045,-4.57266 -0.58809,-1.53254 -4.23815,-1.25433 -5.27246,0.40187 l -0.85321,1.36622 -0.5054,-1.36622 c -0.39146,-1.05821 -0.99529,-1.36619 -2.6785,-1.36619 -1.96383,0 -2.17179,0.16293 -2.15942,1.69186 0.007,0.93052 0.55506,2.38399 1.21676,3.22992 0.6617,0.84593 1.20308,2.09176 1.20308,2.7685 0,0.67675 -0.54138,1.92257 -1.20308,2.76851 -1.3589,1.73724 -1.62192,4.66128 -0.46142,5.12955 1.07823,0.43507 1.21484,0.43605 2.7685,0.0197 z m 54.79021,-2.53985 c 0.18384,-2.53578 0.24988,-2.60936 2.34177,-2.60936 1.6406,0 2.59065,-0.47557 3.99439,-1.99948 1.5586,-1.69202 1.78329,-2.33058 1.46118,-4.15275 -0.57115,-3.23094 -2.3193,-4.27672 -7.17603,-4.29288 -4.81209,-0.016 -4.84566,0.0293 -4.82618,6.51576 0.0189,6.2922 0.30412,8.2659 1.28565,8.89656 1.75217,1.12584 2.72354,0.34128 2.91922,-2.35783 z m 19.751,2.07054 c 0.47083,-0.56732 0.65229,-3.21928 0.53674,-7.84409 l -0.17457,-6.98699 -1.66436,-0.19202 c -1.42309,-0.16418 -1.7475,0.10339 -2.23778,1.84567 l -0.57341,2.03769 -0.74471,-1.99948 c -0.63992,-1.71808 -1.03929,-1.99947 -2.83782,-1.99947 h -2.09309 v 7.69028 7.69029 h 1.86497 c 1.16112,0 2.01113,-0.38087 2.25223,-1.00915 0.33761,-0.8798 0.47313,-0.89259 1.05733,-0.0998 1.26668,1.71896 3.55121,2.14824 4.61447,0.8671 z m -140.83147,-2.64958 c 0,-3.30777 1.02751,-2.97764 1.34039,0.43066 0.1848,2.01309 0.33786,2.15328 2.35095,2.15328 h 2.15328 l 0.17528,-6.67854 c 0.19241,-7.33155 -0.24375,-8.57946 -2.89112,-8.27172 -1.35382,0.15737 -1.61915,0.5285 -1.78167,2.49199 -0.24208,2.925 -1.34711,3.03533 -1.34711,0.1345 0,-2.414 -0.94275,-3.1092 -3.3851,-2.49621 -1.52549,0.38287 -1.53668,0.43638 -1.53668,7.34649 0,3.82844 0.18457,7.14537 0.41015,7.37095 0.22558,0.22558 1.33298,0.41015 2.46089,0.41015 2.03329,0 2.05074,-0.0246 2.05074,-2.89155 z m 81.31812,1.85884 c 0.18621,-0.9668 0.26482,-0.9668 1.2316,0 1.24681,1.24682 5.42715,1.42046 5.42715,0.22543 0,-0.444 -0.5537,-1.95331 -1.23045,-3.354 -1.5504,-3.20896 -1.54018,-4.04081 0.0851,-6.93259 0.72354,-1.28736 1.14751,-2.77852 0.94215,-3.31368 -0.54709,-1.42569 -4.02432,-1.2524 -5.34138,0.26618 l -1.07476,1.23921 -0.32406,-1.23921 c -0.24899,-0.95211 -0.83626,-1.2392 -2.53494,-1.2392 -2.04638,0 -2.21088,0.13732 -2.21088,1.84567 0,1.01511 0.27686,1.84566 0.61523,1.84566 0.33837,0 0.61522,0.41904 0.61522,0.93119 0,0.51215 0.33524,1.46797 0.74496,2.12405 0.61524,0.98515 0.5081,1.63663 -0.61522,3.74113 -2.0717,3.88125 -1.85345,4.89287 1.0556,4.89287 1.77244,0 2.46875,-0.27502 2.6147,-1.03271 z m -88.39318,-6.34997 v -2.15328 l -5.69081,-0.17689 -5.69081,-0.17689 v 2.07383 c 0,1.14061 0.19453,2.26836 0.43228,2.50611 0.23776,0.23775 2.79862,0.35311 5.69081,0.25635 l 5.25853,-0.17595 z m 27.01647,1.28938 c 0.88406,-0.97687 0.93203,-1.37675 0.28873,-2.40683 -0.96123,-1.53918 -2.81997,-1.8678 -7.92568,-1.40124 -3.57866,0.32701 -4.02007,0.51446 -4.19998,1.78353 -0.36106,2.54696 0.86271,3.19606 6.02563,3.19606 3.8901,0 4.94323,-0.21231 5.8113,-1.17152 z m 81.26275,-1.28938 v -2.15328 l -5.67335,-0.17666 c -5.62954,-0.17529 -5.6764,-0.16454 -6.06713,1.39225 -0.71048,2.83079 0.54071,3.46448 6.45135,3.26736 l 5.28913,-0.17639 z"
       style="opacity:1;fill:#231915;fill-opacity:1;stroke:#231915;stroke-width:0.52170897;stroke-miterlimit:4;stroke-dasharray:none;stroke-opacity:1" />
  </g>
</svg>
